<?xml version="1.0" encoding="UTF-8" standalone="no"?>
<!DOCTYPE svg PUBLIC "-//W3C//DTD SVG 1.1//EN" "http://www.w3.org/Graphics/SVG/1.1/DTD/svg11.dtd">
<svg width="100%" height="100%" viewBox="0 0 1182 839" version="1.1" xmlns="http://www.w3.org/2000/svg" xmlns:xlink="http://www.w3.org/1999/xlink" xml:space="preserve" xmlns:serif="http://www.serif.com/" style="fill-rule:evenodd;clip-rule:evenodd;stroke-linecap:round;stroke-linejoin:round;stroke-miterlimit:1.5;">
    <g id="Schritt-3" serif:id="Schritt 3">
        <g transform="matrix(1,0,0,1,0,-0.543281)">
            <g transform="matrix(1.56215,0,0,1.56497,-88.0822,-19.273)">
                <g transform="matrix(0.640145,-0,-0,0.638989,56.3854,12.6624)">
                    <path d="M521.394,241.343L531.496,248.919L521.394,256.496L521.394,241.343Z"/>
                    <path d="M59.055,248.919L523.414,248.919" style="fill:none;stroke:black;stroke-width:3.37px;"/>
                </g>
            </g>
            <g transform="matrix(1,0,0,1,5.98027,-17.9408)">
                <g transform="matrix(1,-0,-0,1,-5.98027,18.4841)">
                    <path d="M287.379,96.7L294.955,86.598L302.532,96.7L287.379,96.7Z"/>
                    <path d="M294.955,266.86L294.955,94.679" style="fill:none;stroke:black;stroke-width:3.37px;"/>
                </g>
            </g>
        </g>
        <g transform="matrix(0.162923,0,0,0.162923,942.755,174.346)">
            <path d="M294.402,506.697L294.402,409.372" style="fill:none;stroke:black;stroke-width:20.67px;"/>
        </g>
        <g transform="matrix(0.162923,0,0,0.162923,734.262,174.147)">
            <path d="M294.402,506.697L294.402,409.372" style="fill:none;stroke:black;stroke-width:20.67px;"/>
        </g>
        <g id="g12" transform="matrix(0.228163,0,0,-0.228163,969.004,311.625)">
            <path id="path14" d="M99.203,199.578C99.203,201.953 99.203,202.156 96.922,202.156C90.766,195.797 82.016,195.797 78.844,195.797L78.844,192.719C80.828,192.719 86.688,192.719 91.859,195.297L91.859,143.844C91.859,140.266 91.563,139.078 82.609,139.078L79.438,139.078L79.438,136C82.906,136.297 91.563,136.297 95.531,136.297C99.5,136.297 108.141,136.297 111.625,136L111.625,139.078L108.438,139.078C99.5,139.078 99.203,140.172 99.203,143.844L99.203,199.578" style="fill-rule:nonzero;"/>
            <g transform="matrix(190.8,0,0,4.8,0.479854,91.8801)">
                <g id="g16">
                    <rect id="rect18" x="0" y="0" width="1" height="1"/>
                </g>
            </g>
            <path id="path20" d="M13.609,8.656L24.141,18.875C39.641,32.594 45.609,37.953 45.609,47.891C45.609,59.219 36.656,67.156 24.547,67.156C13.313,67.156 5.969,58.016 5.969,49.172C5.969,43.609 10.938,43.609 11.234,43.609C12.922,43.609 16.391,44.813 16.391,48.875C16.391,51.469 14.609,54.047 11.125,54.047C10.344,54.047 10.141,54.047 9.844,53.953C12.125,60.406 17.484,64.078 23.25,64.078C32.297,64.078 36.563,56.031 36.563,47.891C36.563,39.938 31.594,32.094 26.125,25.938L7.063,4.672C5.969,3.578 5.969,3.391 5.969,1L42.828,1L45.609,18.281L43.125,18.281C42.625,15.297 41.922,10.938 40.938,9.438C40.234,8.656 33.688,8.656 31.5,8.656L13.609,8.656" style="fill-rule:nonzero;"/>
            <path id="path22" d="M94.906,70.344C94.219,71.625 94.016,72.125 92.328,72.125C90.641,72.125 90.438,71.625 89.734,70.344L56.172,2.984C55.672,2.094 55.672,1.891 55.672,1.797C55.672,1 56.266,1 57.859,1L126.797,1C128.391,1 128.984,1 128.984,1.797C128.984,1.891 128.984,2.094 128.484,2.984L94.906,70.344ZM89.141,62.188L115.859,8.547L62.328,8.547L89.141,62.188Z" style="fill-rule:nonzero;"/>
            <path id="path24" d="M167.172,31C167.781,33.578 170.063,42.719 177.016,42.719C177.516,42.719 179.891,42.719 181.984,41.438C179.203,40.938 177.219,38.453 177.219,36.063C177.219,34.484 178.297,32.594 180.984,32.594C183.172,32.594 186.344,34.375 186.344,38.344C186.344,43.516 180.484,44.906 177.109,44.906C171.344,44.906 167.875,39.641 166.688,37.359C164.203,43.906 158.828,44.906 155.953,44.906C145.625,44.906 139.953,32.094 139.953,29.609C139.953,28.609 140.953,28.609 141.156,28.609C141.953,28.609 142.25,28.813 142.438,29.703C145.828,40.234 152.375,42.719 155.75,42.719C157.641,42.719 161.125,41.828 161.125,36.063C161.125,32.984 159.438,26.328 155.75,12.422C154.172,6.266 150.688,2.094 146.313,2.094C145.719,2.094 143.438,2.094 141.344,3.391C143.828,3.875 146.016,5.969 146.016,8.75C146.016,11.438 143.828,12.219 142.344,12.219C139.359,12.219 136.875,9.641 136.875,6.469C136.875,1.891 141.844,-0.094 146.219,-0.094C152.781,-0.094 156.344,6.859 156.656,7.453C157.844,3.781 161.422,-0.094 167.375,-0.094C177.609,-0.094 183.266,12.719 183.266,15.203C183.266,16.203 182.375,16.203 182.078,16.203C181.188,16.203 180.984,15.797 180.781,15.109C177.516,4.484 170.75,2.094 167.578,2.094C163.703,2.094 162.109,5.266 162.109,8.656C162.109,10.828 162.703,13.016 163.797,17.391L167.172,31" style="fill-rule:nonzero;"/>
        </g>
        <g id="path16" transform="matrix(0.306915,0,0,-0.306915,511.372,256.159)">
            <path d="M112.172,31C112.781,33.578 115.063,42.719 122.016,42.719C122.516,42.719 124.891,42.719 126.984,41.438C124.203,40.938 122.219,38.453 122.219,36.063C122.219,34.484 123.297,32.594 125.984,32.594C128.172,32.594 131.344,34.375 131.344,38.344C131.344,43.516 125.484,44.906 122.109,44.906C116.344,44.906 112.875,39.641 111.688,37.359C109.203,43.906 103.828,44.906 100.953,44.906C90.625,44.906 84.953,32.094 84.953,29.609C84.953,28.609 85.953,28.609 86.156,28.609C86.953,28.609 87.25,28.813 87.437,29.703C90.828,40.234 97.375,42.719 100.75,42.719C102.641,42.719 106.125,41.828 106.125,36.063C106.125,32.984 104.438,26.328 100.75,12.422C99.172,6.266 95.688,2.094 91.313,2.094C90.719,2.094 88.438,2.094 86.344,3.391C88.828,3.875 91.016,5.969 91.016,8.75C91.016,11.438 88.828,12.219 87.344,12.219C84.359,12.219 81.875,9.641 81.875,6.469C81.875,1.891 86.844,-0.094 91.219,-0.094C97.781,-0.094 101.344,6.859 101.656,7.453C102.844,3.781 106.422,-0.094 112.375,-0.094C122.609,-0.094 128.266,12.719 128.266,15.203C128.266,16.203 127.375,16.203 127.078,16.203C126.188,16.203 125.984,15.797 125.781,15.109C122.516,4.484 115.75,2.094 112.578,2.094C108.703,2.094 107.109,5.266 107.109,8.656C107.109,10.828 107.703,13.016 108.797,17.391L112.172,31" style="fill-rule:nonzero;"/>
        </g>
        <g id="g121" serif:id="g12" transform="matrix(0.283367,-1.77542e-18,1.77542e-18,-0.297864,1126.1,262.928)">
            <path id="path141" serif:id="path14" d="M30.453,60.734L39,60.734C40.984,60.734 41.984,60.734 41.984,62.719C41.984,63.813 40.984,63.813 39.297,63.813L31.047,63.813L33.141,75.141C33.531,77.219 34.922,84.281 35.516,85.469C36.422,87.359 38.109,88.844 40.188,88.844C40.594,88.844 43.172,88.844 45.063,87.063C40.688,86.656 39.688,83.188 39.688,81.688C39.688,79.406 41.484,78.219 43.375,78.219C45.953,78.219 48.828,80.406 48.828,84.172C48.828,88.75 44.266,91.031 40.188,91.031C36.813,91.031 30.563,89.25 27.578,79.406C26.984,77.328 26.688,76.328 24.297,63.813L17.438,63.813C15.563,63.813 14.469,63.813 14.469,61.922C14.469,60.734 15.359,60.734 17.25,60.734L23.797,60.734L16.344,21.5C14.563,11.859 12.875,2.828 7.703,2.828C7.313,2.828 4.828,2.828 2.938,4.609C7.516,4.906 8.406,8.484 8.406,9.969C8.406,12.266 6.609,13.453 4.734,13.453C2.141,13.453 -0.734,11.266 -0.734,7.484C-0.734,3.016 3.641,0.641 7.703,0.641C13.172,0.641 17.141,6.5 18.938,10.266C22.109,16.531 24.391,28.547 24.5,29.25L30.453,60.734" style="fill-rule:nonzero;"/>
        </g>
        <g transform="matrix(1,-7.70372e-34,0,1,7.95808e-13,-0.543281)">
            <g transform="matrix(1.56215,0,0,1.56497,502.469,-19.273)">
                <g transform="matrix(0.640145,4.92259e-34,-0,0.638989,-321.653,12.6624)">
                    <path d="M1111.94,241.343L1122.05,248.919L1111.94,256.496L1111.94,241.343Z"/>
                    <path d="M649.606,248.919L1113.97,248.919" style="fill:none;stroke:black;stroke-width:3.37px;"/>
                </g>
            </g>
            <g transform="matrix(1,0,0,1,596.852,-17.9408)">
                <g transform="matrix(1,7.70372e-34,-0,1,-596.852,18.4841)">
                    <path d="M878.25,96.7L885.827,86.598L893.403,96.7L878.25,96.7Z"/>
                    <path d="M885.827,266.86L885.827,94.679" style="fill:none;stroke:black;stroke-width:3.37px;"/>
                </g>
            </g>
        </g>
        <g transform="matrix(1,0,0,1,0,257.365)">
            <g transform="matrix(1.56215,0,0,1.56497,-88.0822,-19.273)">
                <g transform="matrix(0.640145,-0,-0,0.638989,56.3854,-152.138)">
                    <path d="M521.394,499.251L531.496,506.827L521.394,514.404L521.394,499.251Z"/>
                    <path d="M59.055,506.827L523.414,506.827" style="fill:none;stroke:black;stroke-width:3.37px;"/>
                </g>
            </g>
            <g transform="matrix(1,0,0,1,5.98027,-17.9408)">
                <g transform="matrix(1,-0,-0,1,-5.98027,-239.424)">
                    <path d="M287.379,354.608L294.955,344.506L302.532,354.608L287.379,354.608Z"/>
                    <path d="M294.955,524.768L294.955,352.588" style="fill:none;stroke:black;stroke-width:3.37px;"/>
                </g>
            </g>
        </g>
        <g transform="matrix(1,0,0,1,0,513.235)">
            <g transform="matrix(1.56215,0,0,1.56497,-88.0822,-19.273)">
                <g transform="matrix(0.640145,-0,-0,0.638989,56.3854,-315.636)">
                    <path d="M521.394,755.121L531.496,762.697L521.394,770.274L521.394,755.121Z"/>
                    <path d="M59.055,762.697L523.414,762.697" style="fill:none;stroke:black;stroke-width:3.37px;"/>
                </g>
            </g>
            <g transform="matrix(1,0,0,1,5.98027,-17.9408)">
                <g transform="matrix(1,-0,-0,1,-5.98027,-495.294)">
                    <path d="M287.379,610.478L294.955,600.376L302.532,610.478L287.379,610.478Z"/>
                    <path d="M294.955,780.638L294.955,608.457" style="fill:none;stroke:black;stroke-width:3.37px;"/>
                </g>
            </g>
        </g>
        <g transform="matrix(1,0,0,1,0,257.365)">
            <g transform="matrix(1.56215,0,0,1.56497,502.469,-19.273)">
                <g transform="matrix(0.640145,-0,-0,0.638989,-321.653,-152.138)">
                    <path d="M1111.94,499.251L1122.05,506.827L1111.94,514.404L1111.94,499.251Z"/>
                    <path d="M649.606,506.827L1113.97,506.827" style="fill:none;stroke:black;stroke-width:3.37px;"/>
                </g>
            </g>
            <g transform="matrix(1,0,0,1,596.852,-17.9408)">
                <g transform="matrix(1,-0,-0,1,-596.852,-239.424)">
                    <path d="M878.25,354.608L885.827,344.506L893.403,354.608L878.25,354.608Z"/>
                    <path d="M885.827,524.768L885.827,352.588" style="fill:none;stroke:black;stroke-width:3.37px;"/>
                </g>
            </g>
        </g>
        <g id="path161" serif:id="path16" transform="matrix(0.306915,0,0,-0.306915,511.372,514.153)">
            <path d="M112.172,31C112.781,33.578 115.063,42.719 122.016,42.719C122.516,42.719 124.891,42.719 126.984,41.438C124.203,40.938 122.219,38.453 122.219,36.063C122.219,34.484 123.297,32.594 125.984,32.594C128.172,32.594 131.344,34.375 131.344,38.344C131.344,43.516 125.484,44.906 122.109,44.906C116.344,44.906 112.875,39.641 111.688,37.359C109.203,43.906 103.828,44.906 100.953,44.906C90.625,44.906 84.953,32.094 84.953,29.609C84.953,28.609 85.953,28.609 86.156,28.609C86.953,28.609 87.25,28.813 87.437,29.703C90.828,40.234 97.375,42.719 100.75,42.719C102.641,42.719 106.125,41.828 106.125,36.063C106.125,32.984 104.438,26.328 100.75,12.422C99.172,6.266 95.688,2.094 91.313,2.094C90.719,2.094 88.438,2.094 86.344,3.391C88.828,3.875 91.016,5.969 91.016,8.75C91.016,11.438 88.828,12.219 87.344,12.219C84.359,12.219 81.875,9.641 81.875,6.469C81.875,1.891 86.844,-0.094 91.219,-0.094C97.781,-0.094 101.344,6.859 101.656,7.453C102.844,3.781 106.422,-0.094 112.375,-0.094C122.609,-0.094 128.266,12.719 128.266,15.203C128.266,16.203 127.375,16.203 127.078,16.203C126.188,16.203 125.984,15.797 125.781,15.109C122.516,4.484 115.75,2.094 112.578,2.094C108.703,2.094 107.109,5.266 107.109,8.656C107.109,10.828 107.703,13.016 108.797,17.391L112.172,31" style="fill-rule:nonzero;"/>
        </g>
        <g id="path162" serif:id="path16" transform="matrix(0.306915,0,0,-0.306915,511.372,769.937)">
            <path d="M112.172,31C112.781,33.578 115.063,42.719 122.016,42.719C122.516,42.719 124.891,42.719 126.984,41.438C124.203,40.938 122.219,38.453 122.219,36.063C122.219,34.484 123.297,32.594 125.984,32.594C128.172,32.594 131.344,34.375 131.344,38.344C131.344,43.516 125.484,44.906 122.109,44.906C116.344,44.906 112.875,39.641 111.688,37.359C109.203,43.906 103.828,44.906 100.953,44.906C90.625,44.906 84.953,32.094 84.953,29.609C84.953,28.609 85.953,28.609 86.156,28.609C86.953,28.609 87.25,28.813 87.437,29.703C90.828,40.234 97.375,42.719 100.75,42.719C102.641,42.719 106.125,41.828 106.125,36.063C106.125,32.984 104.438,26.328 100.75,12.422C99.172,6.266 95.688,2.094 91.313,2.094C90.719,2.094 88.438,2.094 86.344,3.391C88.828,3.875 91.016,5.969 91.016,8.75C91.016,11.438 88.828,12.219 87.344,12.219C84.359,12.219 81.875,9.641 81.875,6.469C81.875,1.891 86.844,-0.094 91.219,-0.094C97.781,-0.094 101.344,6.859 101.656,7.453C102.844,3.781 106.422,-0.094 112.375,-0.094C122.609,-0.094 128.266,12.719 128.266,15.203C128.266,16.203 127.375,16.203 127.078,16.203C126.188,16.203 125.984,15.797 125.781,15.109C122.516,4.484 115.75,2.094 112.578,2.094C108.703,2.094 107.109,5.266 107.109,8.656C107.109,10.828 107.703,13.016 108.797,17.391L112.172,31" style="fill-rule:nonzero;"/>
        </g>
        <g id="g122" serif:id="g12" transform="matrix(0.283367,-1.77542e-18,1.77542e-18,-0.297864,1126.1,520.922)">
            <path id="path142" serif:id="path14" d="M30.453,60.734L39,60.734C40.984,60.734 41.984,60.734 41.984,62.719C41.984,63.813 40.984,63.813 39.297,63.813L31.047,63.813L33.141,75.141C33.531,77.219 34.922,84.281 35.516,85.469C36.422,87.359 38.109,88.844 40.188,88.844C40.594,88.844 43.172,88.844 45.063,87.063C40.688,86.656 39.688,83.188 39.688,81.688C39.688,79.406 41.484,78.219 43.375,78.219C45.953,78.219 48.828,80.406 48.828,84.172C48.828,88.75 44.266,91.031 40.188,91.031C36.813,91.031 30.563,89.25 27.578,79.406C26.984,77.328 26.688,76.328 24.297,63.813L17.438,63.813C15.563,63.813 14.469,63.813 14.469,61.922C14.469,60.734 15.359,60.734 17.25,60.734L23.797,60.734L16.344,21.5C14.563,11.859 12.875,2.828 7.703,2.828C7.313,2.828 4.828,2.828 2.938,4.609C7.516,4.906 8.406,8.484 8.406,9.969C8.406,12.266 6.609,13.453 4.734,13.453C2.141,13.453 -0.734,11.266 -0.734,7.484C-0.734,3.016 3.641,0.641 7.703,0.641C13.172,0.641 17.141,6.5 18.938,10.266C22.109,16.531 24.391,28.547 24.5,29.25L30.453,60.734" style="fill-rule:nonzero;"/>
        </g>
        <g id="g123" serif:id="g12" transform="matrix(0.283367,-1.77542e-18,1.77542e-18,-0.297864,1126.1,776.706)">
            <path id="path143" serif:id="path14" d="M30.453,60.734L39,60.734C40.984,60.734 41.984,60.734 41.984,62.719C41.984,63.813 40.984,63.813 39.297,63.813L31.047,63.813L33.141,75.141C33.531,77.219 34.922,84.281 35.516,85.469C36.422,87.359 38.109,88.844 40.188,88.844C40.594,88.844 43.172,88.844 45.063,87.063C40.688,86.656 39.688,83.188 39.688,81.688C39.688,79.406 41.484,78.219 43.375,78.219C45.953,78.219 48.828,80.406 48.828,84.172C48.828,88.75 44.266,91.031 40.188,91.031C36.813,91.031 30.563,89.25 27.578,79.406C26.984,77.328 26.688,76.328 24.297,63.813L17.438,63.813C15.563,63.813 14.469,63.813 14.469,61.922C14.469,60.734 15.359,60.734 17.25,60.734L23.797,60.734L16.344,21.5C14.563,11.859 12.875,2.828 7.703,2.828C7.313,2.828 4.828,2.828 2.938,4.609C7.516,4.906 8.406,8.484 8.406,9.969C8.406,12.266 6.609,13.453 4.734,13.453C2.141,13.453 -0.734,11.266 -0.734,7.484C-0.734,3.016 3.641,0.641 7.703,0.641C13.172,0.641 17.141,6.5 18.938,10.266C22.109,16.531 24.391,28.547 24.5,29.25L30.453,60.734" style="fill-rule:nonzero;"/>
        </g>
        <g transform="matrix(1,-7.70372e-34,0,1,7.95808e-13,513.235)">
            <g transform="matrix(1.56215,0,0,1.56497,502.469,-19.273)">
                <g transform="matrix(0.640145,4.92259e-34,-0,0.638989,-321.653,-315.636)">
                    <path d="M1111.94,755.121L1122.05,762.697L1111.94,770.274L1111.94,755.121Z"/>
                    <path d="M649.606,762.697L1113.97,762.697" style="fill:none;stroke:black;stroke-width:3.37px;"/>
                </g>
            </g>
            <g transform="matrix(1,0,0,1,596.852,-17.9408)">
                <g transform="matrix(1,7.70372e-34,-0,1,-596.852,-495.294)">
                    <path d="M878.25,610.478L885.827,600.376L893.403,610.478L878.25,610.478Z"/>
                    <path d="M885.827,780.638L885.827,608.457" style="fill:none;stroke:black;stroke-width:3.37px;"/>
                </g>
            </g>
        </g>
        <g transform="matrix(1,0,0,1,162.3,262.704)">
            <g transform="matrix(37.5,0,0,37.5,126.725,63.8538)">
                <path d="M0.055,-0.406C0.043,-0.436 0.035,-0.456 0.028,-0.466L0.033,-0.479C0.04,-0.481 0.057,-0.488 0.084,-0.499C0.112,-0.51 0.137,-0.521 0.16,-0.531L0.033,-0.592C0.032,-0.592 0.031,-0.593 0.029,-0.593L0.027,-0.604C0.034,-0.615 0.045,-0.635 0.062,-0.665L0.073,-0.665L0.174,-0.559L0.203,-0.698L0.211,-0.704C0.232,-0.696 0.254,-0.691 0.274,-0.686L0.277,-0.676C0.269,-0.664 0.258,-0.645 0.244,-0.621C0.23,-0.597 0.216,-0.573 0.204,-0.547C0.231,-0.551 0.253,-0.555 0.272,-0.558C0.314,-0.566 0.337,-0.57 0.341,-0.57L0.35,-0.563C0.351,-0.547 0.355,-0.526 0.362,-0.5L0.353,-0.492C0.309,-0.502 0.26,-0.511 0.204,-0.518C0.219,-0.489 0.231,-0.468 0.238,-0.455C0.256,-0.425 0.266,-0.406 0.269,-0.398L0.267,-0.386C0.259,-0.382 0.246,-0.375 0.23,-0.365C0.22,-0.359 0.212,-0.355 0.208,-0.352L0.195,-0.356L0.174,-0.504L0.068,-0.404L0.055,-0.406Z" style="fill-rule:nonzero;"/>
            </g>
        </g>
        <g transform="matrix(1,0,0,1,593.541,-5.33952)">
            <circle cx="292.604" cy="311.689" r="4.539" style="stroke:black;stroke-width:3.37px;"/>
        </g>
        <g id="klftmpexporter4x1x0xo16932">
        </g>
        <g id="klftmpexporter4x1x0xJ16932">
        </g>
        <g id="klftmpexporter4x1x0xm16932">
        </g>
        <g transform="matrix(1,0,0,1,1.13687e-13,-513.727)">
            <g transform="matrix(1,0,0,1,0,516.766)">
                <path d="M294.955,123.877C294.955,123.877 299.227,238.356 498.284,238.356" style="fill:none;stroke:rgb(0,174,239);stroke-width:3.37px;stroke-dasharray:3.37,6.73,0,0;"/>
            </g>
            <g transform="matrix(1,0,0,1.14094,0.515151,183.081)">
                <g transform="matrix(1,-0,-0,0.876468,-0.515151,289.8)">
                    <path d="M287.341,146.527L294.917,136.425L302.494,146.527L287.341,146.527Z" style="fill:rgb(0,174,239);"/>
                    <path d="M294.917,247.467L294.917,144.506" style="fill:none;stroke:rgb(0,174,239);stroke-width:3.37px;"/>
                </g>
            </g>
            <g transform="matrix(1,0,0,0.574293,34.0056,470.201)">
                <g transform="matrix(1,-0,-0,1.74127,-34.0056,75.7903)">
                    <path d="M320.831,201.676L328.408,191.574L335.984,201.676L320.831,201.676Z" style="fill:rgb(0,174,239);"/>
                    <path d="M328.408,247.467L328.408,199.655" style="fill:none;stroke:rgb(0,174,239);stroke-width:3.37px;"/>
                </g>
            </g>
            <g transform="matrix(1,0,0,0.332675,67.4961,592.628)">
                <g transform="matrix(1,-0,-0,3.00593,-67.4961,-237.171)">
                    <path d="M354.322,225.191L361.898,215.089L369.475,225.191L354.322,225.191Z" style="fill:rgb(0,174,239);"/>
                    <path d="M361.898,247.467L361.898,223.171" style="fill:none;stroke:rgb(0,174,239);stroke-width:3.37px;"/>
                </g>
            </g>
            <g transform="matrix(1,0,0,0.20899,100.987,655.299)">
                <g transform="matrix(1,-0,-0,4.78491,-100.987,-677.409)">
                    <path d="M387.812,237.229L395.389,227.127L402.965,237.229L387.812,237.229Z" style="fill:rgb(0,174,239);"/>
                    <path d="M395.389,247.467L395.389,235.208" style="fill:none;stroke:rgb(0,174,239);stroke-width:3.37px;"/>
                </g>
            </g>
            <g transform="matrix(1,0,0,0.114069,134.477,703.395)">
                <g transform="matrix(1,-0,-0,8.76663,-134.477,-1662.75)">
                    <path d="M421.303,246.467L428.879,236.365L436.456,246.467L421.303,246.467Z" style="fill:rgb(0,174,239);"/>
                    <path d="M428.879,247.467L428.879,244.446" style="fill:none;stroke:rgb(0,174,239);stroke-width:3.37px;"/>
                </g>
            </g>
            <g transform="matrix(2.70175,0,0,1,-860.951,0.79984)">
                <rect x="489.783" y="751.093" width="15.197" height="6.999" style="fill:white;"/>
            </g>
            <g transform="matrix(1,0,0,0.0910578,167.968,715.055)">
                <g transform="matrix(1,-0,-0,10.982,-167.968,-2210.99)">
                    <path d="M454.793,248.706L462.37,238.604L469.946,248.706L454.793,248.706Z" style="fill:rgb(0,174,239);"/>
                    <path d="M462.37,247.467L462.37,246.686" style="fill:none;stroke:rgb(0,174,239);stroke-width:3.37px;"/>
                </g>
            </g>
        </g>
        <g transform="matrix(1,0,0,1,-208.929,0.0977889)">
            <g transform="matrix(1,0,0,1,0,516.766)">
                <path d="M294.955,123.877C294.955,123.877 299.227,238.356 498.284,238.356" style="fill:none;stroke:rgb(0,174,239);stroke-width:3.37px;stroke-dasharray:3.37,6.73,0,0;"/>
            </g>
            <g transform="matrix(1,0,0,1.14094,0.515151,183.081)">
                <g transform="matrix(1,-0,-0,0.876468,208.413,-160.55)">
                    <path d="M78.412,660.352L85.989,650.25L93.565,660.352L78.412,660.352Z" style="fill:rgb(0,174,239);"/>
                    <path d="M85.989,761.291L85.989,658.331" style="fill:none;stroke:rgb(0,174,239);stroke-width:3.37px;"/>
                </g>
            </g>
            <g transform="matrix(1,0,0,0.574293,34.0056,470.201)">
                <g transform="matrix(1,-0,-0,1.74127,174.923,-818.918)">
                    <path d="M111.903,715.501L119.479,705.399L127.056,715.501L111.903,715.501Z" style="fill:rgb(0,174,239);"/>
                    <path d="M119.479,761.291L119.479,713.48" style="fill:none;stroke:rgb(0,174,239);stroke-width:3.37px;"/>
                </g>
            </g>
            <g transform="matrix(1,0,0,0.332675,67.4961,592.628)">
                <g transform="matrix(1,-0,-0,3.00593,141.433,-1781.69)">
                    <path d="M145.393,739.016L152.97,728.914L160.546,739.016L145.393,739.016Z" style="fill:rgb(0,174,239);"/>
                    <path d="M152.97,761.291L152.97,736.995" style="fill:none;stroke:rgb(0,174,239);stroke-width:3.37px;"/>
                </g>
            </g>
            <g transform="matrix(1,0,0,0.20899,100.987,655.299)">
                <g transform="matrix(1,-0,-0,4.78491,107.942,-3136.02)">
                    <path d="M178.884,751.053L186.46,740.951L194.037,751.053L178.884,751.053Z" style="fill:rgb(0,174,239);"/>
                    <path d="M186.46,761.291L186.46,749.033" style="fill:none;stroke:rgb(0,174,239);stroke-width:3.37px;"/>
                </g>
            </g>
            <g transform="matrix(1,0,0,0.114069,134.477,703.395)">
                <g transform="matrix(1,-0,-0,8.76663,74.4515,-6167.26)">
                    <path d="M212.374,760.292L219.951,750.19L227.527,760.292L212.374,760.292Z" style="fill:rgb(0,174,239);"/>
                    <path d="M219.951,761.291L219.951,758.271" style="fill:none;stroke:rgb(0,174,239);stroke-width:3.37px;"/>
                </g>
            </g>
            <g transform="matrix(2.70175,0,0,1,-860.951,0.79984)">
                <rect x="489.783" y="751.093" width="15.197" height="6.999" style="fill:white;"/>
            </g>
            <g transform="matrix(1,0,0,0.0910578,167.968,715.055)">
                <g transform="matrix(1,-0,-0,10.982,40.9611,-7853.83)">
                    <path d="M245.865,762.531L253.441,752.429L261.018,762.531L245.865,762.531Z" style="fill:rgb(0,174,239);"/>
                    <path d="M253.441,761.291L253.441,760.511" style="fill:none;stroke:rgb(0,174,239);stroke-width:3.37px;"/>
                </g>
            </g>
        </g>
        <g transform="matrix(1,0,0,1,1.13687e-13,0.0977889)">
            <g transform="matrix(1,0,0,1,0,516.766)">
                <path d="M294.955,123.877C294.955,123.877 299.227,238.356 498.284,238.356" style="fill:none;stroke:rgb(0,174,239);stroke-width:3.37px;stroke-dasharray:3.37,6.73,0,0;"/>
            </g>
            <g transform="matrix(1,0,0,1.14094,0.515151,183.081)">
                <g transform="matrix(1,-0,-0,0.876468,-0.515151,-160.55)">
                    <path d="M287.341,660.352L294.917,650.25L302.494,660.352L287.341,660.352Z" style="fill:rgb(0,174,239);"/>
                    <path d="M294.917,761.291L294.917,658.331" style="fill:none;stroke:rgb(0,174,239);stroke-width:3.37px;"/>
                </g>
            </g>
            <g transform="matrix(1,0,0,1.14094,211.535,183.081)">
                <g transform="matrix(1,-0,-0,0.876468,-211.535,-160.55)">
                    <path d="M498.36,660.352L505.937,650.25L513.514,660.352L498.36,660.352Z" style="fill:rgb(0,174,239);"/>
                    <path d="M505.937,761.291L505.937,658.331" style="fill:none;stroke:rgb(0,174,239);stroke-width:3.37px;"/>
                </g>
            </g>
            <g transform="matrix(1,0,0,0.574293,34.0056,470.201)">
                <g transform="matrix(1,-0,-0,1.74127,-34.0056,-818.918)">
                    <path d="M320.831,715.501L328.408,705.399L335.984,715.501L320.831,715.501Z" style="fill:rgb(0,174,239);"/>
                    <path d="M328.408,761.291L328.408,713.48" style="fill:none;stroke:rgb(0,174,239);stroke-width:3.37px;"/>
                </g>
            </g>
            <g transform="matrix(1,0,0,0.332675,67.4961,592.628)">
                <g transform="matrix(1,-0,-0,3.00593,-67.4961,-1781.69)">
                    <path d="M354.322,739.016L361.898,728.914L369.475,739.016L354.322,739.016Z" style="fill:rgb(0,174,239);"/>
                    <path d="M361.898,761.291L361.898,736.995" style="fill:none;stroke:rgb(0,174,239);stroke-width:3.37px;"/>
                </g>
            </g>
            <g transform="matrix(1,0,0,0.20899,100.987,655.299)">
                <g transform="matrix(1,-0,-0,4.78491,-100.987,-3136.02)">
                    <path d="M387.812,751.053L395.389,740.951L402.965,751.053L387.812,751.053Z" style="fill:rgb(0,174,239);"/>
                    <path d="M395.389,761.291L395.389,749.033" style="fill:none;stroke:rgb(0,174,239);stroke-width:3.37px;"/>
                </g>
            </g>
            <g transform="matrix(1,0,0,0.114069,134.477,703.395)">
                <g transform="matrix(1,-0,-0,8.76663,-134.477,-6167.26)">
                    <path d="M421.303,760.292L428.879,750.19L436.456,760.292L421.303,760.292Z" style="fill:rgb(0,174,239);"/>
                    <path d="M428.879,761.291L428.879,758.271" style="fill:none;stroke:rgb(0,174,239);stroke-width:3.37px;"/>
                </g>
            </g>
            <g transform="matrix(2.70175,0,0,1,-860.951,0.79984)">
                <rect x="489.783" y="751.093" width="15.197" height="6.999" style="fill:white;"/>
            </g>
            <g transform="matrix(1,0,0,0.0910578,167.968,715.055)">
                <g transform="matrix(1,-0,-0,10.982,-167.968,-7853.83)">
                    <path d="M454.793,762.531L462.37,752.429L469.946,762.531L454.793,762.531Z" style="fill:rgb(0,174,239);"/>
                    <path d="M462.37,761.291L462.37,760.511" style="fill:none;stroke:rgb(0,174,239);stroke-width:3.37px;"/>
                </g>
            </g>
        </g>
        <g id="SpectralLeakage">
            <g transform="matrix(0.659498,0,0,1.02023,278.105,-518.455)">
                <path d="M924.221,637.066C930.211,637.277 942.191,637.699 950.559,640.422C958.927,643.145 969.375,648.326 974.43,653.403C981.094,660.097 998.094,661.12 1005.08,666.264C1010.78,670.461 1011.04,679.569 1016.33,684.266C1022.54,689.774 1036.23,693.265 1042.32,699.312C1047.92,704.881 1046.96,716.123 1052.84,720.55C1058.72,724.978 1072.78,724.989 1077.6,725.877C1078.95,726.126 1080.37,726.126 1081.72,725.877C1086.53,724.989 1100.59,724.978 1106.47,720.55C1112.35,716.123 1111.39,704.881 1116.99,699.312C1123.08,693.265 1136.77,689.774 1142.98,684.266C1148.27,679.569 1148.54,670.461 1154.23,666.264C1161.22,661.12 1178.22,660.097 1184.88,653.403C1189.94,648.326 1200.38,643.145 1208.75,640.422C1217.12,637.699 1229.1,637.277 1235.09,637.066" style="fill:none;stroke:rgb(0,174,239);stroke-width:3.92px;stroke-linecap:square;"/>
            </g>
            <g transform="matrix(0.659498,0,0,1.02023,278.105,-4.43354)">
                <path d="M924.221,637.066C930.211,637.277 942.191,637.699 950.559,640.422C958.927,643.145 969.375,648.326 974.43,653.403C981.094,660.097 998.094,661.12 1005.08,666.264C1010.78,670.461 1011.04,679.569 1016.33,684.266C1022.54,689.774 1036.23,693.265 1042.32,699.312C1047.92,704.881 1046.96,716.123 1052.84,720.55C1058.72,724.978 1072.78,724.989 1077.6,725.877C1078.95,726.126 1080.37,726.126 1081.72,725.877C1086.53,724.989 1100.59,724.978 1106.47,720.55C1112.35,716.123 1111.39,704.881 1116.99,699.312C1123.08,693.265 1136.77,689.774 1142.98,684.266C1148.27,679.569 1148.54,670.461 1154.23,666.264C1161.22,661.12 1178.22,660.097 1184.88,653.403C1189.94,648.326 1200.38,643.145 1208.75,640.422C1217.12,637.699 1229.1,637.277 1235.09,637.066" style="fill:none;stroke:rgb(0,174,239);stroke-width:3.92px;stroke-linecap:square;stroke-dasharray:3.92,11.76,0,0;"/>
            </g>
            <g transform="matrix(-0.659498,0,0,1.02023,1494.01,-518.455)">
                <path d="M924.221,637.066C930.211,637.277 942.191,637.699 950.559,640.422C958.927,643.145 969.375,648.326 974.43,653.403C981.094,660.097 998.094,661.12 1005.08,666.264C1010.78,670.461 1011.04,679.569 1016.33,684.266C1022.54,689.774 1036.23,693.265 1042.32,699.312C1047.92,704.881 1046.96,716.123 1052.84,720.55C1058.72,724.978 1072.78,724.989 1077.6,725.877C1078.95,726.126 1080.37,726.126 1081.72,725.877C1086.53,724.989 1100.59,724.978 1106.47,720.55C1112.35,716.123 1111.39,704.881 1116.99,699.312C1123.08,693.265 1136.77,689.774 1142.98,684.266C1148.27,679.569 1148.54,670.461 1154.23,666.264C1161.22,661.12 1178.22,660.097 1184.88,653.403C1189.94,648.326 1200.38,643.145 1208.75,640.422C1217.12,637.699 1229.1,637.277 1235.09,637.066" style="fill:none;stroke:rgb(0,174,239);stroke-width:3.92px;stroke-linecap:square;"/>
            </g>
            <g transform="matrix(-0.659498,0,0,1.02023,1494.01,-4.43354)">
                <path d="M924.221,637.066C930.211,637.277 942.191,637.699 950.559,640.422C958.927,643.145 969.375,648.326 974.43,653.403C981.094,660.097 998.094,661.12 1005.08,666.264C1010.78,670.461 1011.04,679.569 1016.33,684.266C1022.54,689.774 1036.23,693.265 1042.32,699.312C1047.92,704.881 1046.96,716.123 1052.84,720.55C1058.72,724.978 1072.78,724.989 1077.6,725.877C1078.95,726.126 1080.37,726.126 1081.72,725.877C1086.53,724.989 1100.59,724.978 1106.47,720.55C1112.35,716.123 1111.39,704.881 1116.99,699.312C1123.08,693.265 1136.77,689.774 1142.98,684.266C1148.27,679.569 1148.54,670.461 1154.23,666.264C1161.22,661.12 1178.22,660.097 1184.88,653.403C1189.94,648.326 1200.38,643.145 1208.75,640.422C1217.12,637.699 1229.1,637.277 1235.09,637.066" style="fill:none;stroke:rgb(0,174,239);stroke-width:3.92px;stroke-linecap:square;stroke-dasharray:3.92,11.76,0,0;"/>
            </g>
            <g transform="matrix(-0.659498,0,0,1.02023,1494.01,-518.455)">
                <path d="M1184.88,653.403C1189.94,648.326 1200.38,643.145 1208.75,640.422C1217.12,637.699 1229.1,637.277 1235.09,637.066" style="fill:none;stroke:white;stroke-width:4.85px;stroke-linecap:square;stroke-dasharray:4.85,14.55,0,0;"/>
            </g>
            <g transform="matrix(0.659498,0,0,1.02023,277.88,-518.455)">
                <path d="M1184.88,653.403C1189.94,648.326 1200.38,643.145 1208.75,640.422C1217.12,637.699 1229.1,637.277 1235.09,637.066" style="fill:none;stroke:white;stroke-width:4.85px;stroke-linecap:square;stroke-dasharray:4.85,14.55,0,0;"/>
            </g>
        </g>
        <g transform="matrix(5.19529,0,0,1,-1762.3,-256.877)">
            <g transform="matrix(0.192482,-0,-0,1,339.212,256.877)">
                <path d="M294.734,253.327L294.734,262.307" style="fill:none;stroke:black;stroke-width:2.24px;stroke-linejoin:miter;stroke-miterlimit:10;"/>
                <path d="M464.107,253.327L464.107,262.307" style="fill:none;stroke:black;stroke-width:2.24px;stroke-linejoin:miter;stroke-miterlimit:10;"/>
                <path d="M294.734,257.817L464.107,257.817" style="fill:none;stroke:black;stroke-width:2.24px;"/>
            </g>
        </g>
        <g transform="matrix(5.19529,0,0,1,-1762.3,256.947)">
            <g transform="matrix(0.192482,-0,-0,1,339.212,-256.947)">
                <path d="M294.734,767.152L294.734,776.132" style="fill:none;stroke:black;stroke-width:2.24px;stroke-linejoin:miter;stroke-miterlimit:10;"/>
                <path d="M464.107,767.152L464.107,776.132" style="fill:none;stroke:black;stroke-width:2.24px;stroke-linejoin:miter;stroke-miterlimit:10;"/>
                <path d="M294.734,771.642L464.107,771.642" style="fill:none;stroke:black;stroke-width:2.24px;"/>
            </g>
        </g>
        <g transform="matrix(6.13393,0,0,1,-1542.38,256.947)">
            <g transform="matrix(0.163028,-0,-0,1,251.45,-256.947)">
                <path d="M886.105,767.152L886.105,776.132" style="fill:none;stroke:black;stroke-width:2.24px;stroke-linejoin:miter;stroke-miterlimit:10;"/>
                <path d="M1086.49,767.152L1086.49,776.132" style="fill:none;stroke:black;stroke-width:2.24px;stroke-linejoin:miter;stroke-miterlimit:10;"/>
                <path d="M886.105,771.642L1086.49,771.642" style="fill:none;stroke:black;stroke-width:2.24px;"/>
            </g>
        </g>
        <g id="klftmpexporter4x1x0xw16932" transform="matrix(3.15865,-1.38029e-31,-1.38029e-31,-3.15865,365.245,796.675)">
            <g id="g124" serif:id="g12" transform="matrix(0.1,2.18953e-48,-2.18953e-48,0.1,-1.79865e-45,162.641)">
                <path id="path144" serif:id="path14" d="M71.094,57.422C72.094,61.391 73.875,64.469 81.828,64.766C82.328,64.766 83.516,64.859 83.516,66.75C83.516,66.859 83.516,67.844 82.219,67.844C78.953,67.844 75.469,67.547 72.188,67.547C68.813,67.547 65.344,67.844 62.063,67.844C61.469,67.844 60.266,67.844 60.266,65.859C60.266,64.766 61.266,64.766 62.063,64.766C67.719,64.672 68.813,62.578 68.813,60.391C68.813,60.094 68.609,58.609 68.516,58.313L57.391,14.109L35.438,65.953C34.641,67.75 34.547,67.844 32.266,67.844L18.953,67.844C16.953,67.844 16.063,67.844 16.063,65.859C16.063,64.766 16.953,64.766 18.844,64.766C19.344,64.766 25.609,64.766 25.609,63.875L12.297,10.531C11.297,6.563 9.609,3.375 1.563,3.078C0.969,3.078 -0.125,2.984 -0.125,1.094C-0.125,0.391 0.375,0 1.172,0C4.344,0 7.828,0.297 11.094,0.297C14.484,0.297 18.047,0 21.328,0C21.828,0 23.125,0 23.125,1.984C23.125,2.984 22.219,3.078 21.125,3.078C15.375,3.281 14.578,5.469 14.578,7.453C14.578,8.141 14.672,8.641 14.969,9.734L28.078,62.188C28.484,61.594 28.484,61.391 28.984,60.391L53.719,1.891C54.406,0.203 54.703,0 55.609,0C56.688,0 56.688,0.297 57.188,2.094L71.094,57.422" style="fill-rule:nonzero;"/>
            </g>
            <g id="g125" serif:id="g12" transform="matrix(0.1,4.37906e-48,-4.37906e-48,0.1,-3.56206e-45,-0.0309591)">
                <path id="path145" serif:id="path14" d="M71.094,57.422C72.094,61.391 73.875,64.469 81.828,64.766C82.328,64.766 83.516,64.859 83.516,66.75C83.516,66.859 83.516,67.844 82.219,67.844C78.953,67.844 75.469,67.547 72.188,67.547C68.813,67.547 65.344,67.844 62.063,67.844C61.469,67.844 60.266,67.844 60.266,65.859C60.266,64.766 61.266,64.766 62.063,64.766C67.719,64.672 68.813,62.578 68.813,60.391C68.813,60.094 68.609,58.609 68.516,58.313L57.391,14.109L35.438,65.953C34.641,67.75 34.547,67.844 32.266,67.844L18.953,67.844C16.953,67.844 16.063,67.844 16.063,65.859C16.063,64.766 16.953,64.766 18.844,64.766C19.344,64.766 25.609,64.766 25.609,63.875L12.297,10.531C11.297,6.563 9.609,3.375 1.563,3.078C0.969,3.078 -0.125,2.984 -0.125,1.094C-0.125,0.391 0.375,0 1.172,0C4.344,0 7.828,0.297 11.094,0.297C14.484,0.297 18.047,0 21.328,0C21.828,0 23.125,0 23.125,1.984C23.125,2.984 22.219,3.078 21.125,3.078C15.375,3.281 14.578,5.469 14.578,7.453C14.578,8.141 14.672,8.641 14.969,9.734L28.078,62.188C28.484,61.594 28.484,61.391 28.984,60.391L53.719,1.891C54.406,0.203 54.703,0 55.609,0C56.688,0 56.688,0.297 57.188,2.094L71.094,57.422" style="fill-rule:nonzero;"/>
            </g>
            <g id="g126" serif:id="g12" transform="matrix(0.1,7.11597e-48,-7.11597e-48,0.1,192.634,-0.0309591)">
                <path id="path146" serif:id="path14" d="M71.094,57.422C72.094,61.391 73.875,64.469 81.828,64.766C82.328,64.766 83.516,64.859 83.516,66.75C83.516,66.859 83.516,67.844 82.219,67.844C78.953,67.844 75.469,67.547 72.188,67.547C68.813,67.547 65.344,67.844 62.063,67.844C61.469,67.844 60.266,67.844 60.266,65.859C60.266,64.766 61.266,64.766 62.063,64.766C67.719,64.672 68.813,62.578 68.813,60.391C68.813,60.094 68.609,58.609 68.516,58.313L57.391,14.109L35.438,65.953C34.641,67.75 34.547,67.844 32.266,67.844L18.953,67.844C16.953,67.844 16.063,67.844 16.063,65.859C16.063,64.766 16.953,64.766 18.844,64.766C19.344,64.766 25.609,64.766 25.609,63.875L12.297,10.531C11.297,6.563 9.609,3.375 1.563,3.078C0.969,3.078 -0.125,2.984 -0.125,1.094C-0.125,0.391 0.375,0 1.172,0C4.344,0 7.828,0.297 11.094,0.297C14.484,0.297 18.047,0 21.328,0C21.828,0 23.125,0 23.125,1.984C23.125,2.984 22.219,3.078 21.125,3.078C15.375,3.281 14.578,5.469 14.578,7.453C14.578,8.141 14.672,8.641 14.969,9.734L28.078,62.188C28.484,61.594 28.484,61.391 28.984,60.391L53.719,1.891C54.406,0.203 54.703,0 55.609,0C56.688,0 56.688,0.297 57.188,2.094L71.094,57.422" style="fill-rule:nonzero;"/>
            </g>
        </g>
        <g transform="matrix(1,0,0,1,545.507,396.662)">
            <g transform="matrix(37.5,0,0,37.5,119.96,63.8538)">
                <path d="M0.125,-0.108C0.141,-0.108 0.154,-0.102 0.166,-0.091C0.177,-0.08 0.183,-0.066 0.183,-0.049C0.183,-0.033 0.177,-0.02 0.166,-0.008C0.155,0.003 0.141,0.009 0.125,0.009C0.109,0.009 0.095,0.003 0.083,-0.008C0.072,-0.019 0.066,-0.033 0.066,-0.049C0.066,-0.066 0.072,-0.079 0.083,-0.091C0.095,-0.102 0.109,-0.108 0.125,-0.108Z" style="fill:rgb(0,174,239);fill-rule:nonzero;"/>
            </g>
            <g transform="matrix(37.5,0,0,37.5,129.335,63.8538)">
                <path d="M0.125,-0.108C0.141,-0.108 0.154,-0.102 0.166,-0.091C0.177,-0.08 0.183,-0.066 0.183,-0.049C0.183,-0.033 0.177,-0.02 0.166,-0.008C0.155,0.003 0.141,0.009 0.125,0.009C0.109,0.009 0.095,0.003 0.083,-0.008C0.072,-0.019 0.066,-0.033 0.066,-0.049C0.066,-0.066 0.072,-0.079 0.083,-0.091C0.095,-0.102 0.109,-0.108 0.125,-0.108Z" style="fill:rgb(0,174,239);fill-rule:nonzero;"/>
            </g>
            <g transform="matrix(37.5,0,0,37.5,138.71,63.8538)">
                <path d="M0.125,-0.108C0.141,-0.108 0.154,-0.102 0.166,-0.091C0.177,-0.08 0.183,-0.066 0.183,-0.049C0.183,-0.033 0.177,-0.02 0.166,-0.008C0.155,0.003 0.141,0.009 0.125,0.009C0.109,0.009 0.095,0.003 0.083,-0.008C0.072,-0.019 0.066,-0.033 0.066,-0.049C0.066,-0.066 0.072,-0.079 0.083,-0.091C0.095,-0.102 0.109,-0.108 0.125,-0.108Z" style="fill:rgb(0,174,239);fill-rule:nonzero;"/>
            </g>
        </g>
        <g transform="matrix(1,0,0,1,954.899,396.662)">
            <g transform="matrix(37.5,0,0,37.5,119.96,63.8538)">
                <path d="M0.125,-0.108C0.141,-0.108 0.154,-0.102 0.166,-0.091C0.177,-0.08 0.183,-0.066 0.183,-0.049C0.183,-0.033 0.177,-0.02 0.166,-0.008C0.155,0.003 0.141,0.009 0.125,0.009C0.109,0.009 0.095,0.003 0.083,-0.008C0.072,-0.019 0.066,-0.033 0.066,-0.049C0.066,-0.066 0.072,-0.079 0.083,-0.091C0.095,-0.102 0.109,-0.108 0.125,-0.108Z" style="fill:rgb(0,174,239);fill-rule:nonzero;"/>
            </g>
            <g transform="matrix(37.5,0,0,37.5,129.335,63.8538)">
                <path d="M0.125,-0.108C0.141,-0.108 0.154,-0.102 0.166,-0.091C0.177,-0.08 0.183,-0.066 0.183,-0.049C0.183,-0.033 0.177,-0.02 0.166,-0.008C0.155,0.003 0.141,0.009 0.125,0.009C0.109,0.009 0.095,0.003 0.083,-0.008C0.072,-0.019 0.066,-0.033 0.066,-0.049C0.066,-0.066 0.072,-0.079 0.083,-0.091C0.095,-0.102 0.109,-0.108 0.125,-0.108Z" style="fill:rgb(0,174,239);fill-rule:nonzero;"/>
            </g>
            <g transform="matrix(37.5,0,0,37.5,138.71,63.8538)">
                <path d="M0.125,-0.108C0.141,-0.108 0.154,-0.102 0.166,-0.091C0.177,-0.08 0.183,-0.066 0.183,-0.049C0.183,-0.033 0.177,-0.02 0.166,-0.008C0.155,0.003 0.141,0.009 0.125,0.009C0.109,0.009 0.095,0.003 0.083,-0.008C0.072,-0.019 0.066,-0.033 0.066,-0.049C0.066,-0.066 0.072,-0.079 0.083,-0.091C0.095,-0.102 0.109,-0.108 0.125,-0.108Z" style="fill:rgb(0,174,239);fill-rule:nonzero;"/>
            </g>
        </g>
        <g transform="matrix(1,0,0,1,591.6,-2.91142)">
            <g transform="matrix(1,-0,-0,1,-591.6,2.91142)">
                <path d="M878.426,416.563L886.003,406.461L893.579,416.563L878.426,416.563Z" style="fill:rgb(0,174,239);"/>
                <path d="M886.003,503.785L886.003,414.542" style="fill:none;stroke:rgb(0,174,239);stroke-width:3.37px;"/>
            </g>
        </g>
        <g transform="matrix(1,0,0,1.16415,591.6,169.731)">
            <g transform="matrix(1,-0,-0,0.858999,-591.6,-145.798)">
                <path d="M878.426,656.402L886.003,646.3L893.579,656.402L878.426,656.402Z" style="fill:rgb(0,174,239);"/>
                <path d="M886.003,759.599L886.003,654.381" style="fill:none;stroke:rgb(0,174,239);stroke-width:3.37px;"/>
            </g>
        </g>
        <g transform="matrix(1,0,0,1,625.091,-2.91142)">
            <g transform="matrix(1,-0,-0,1,-625.091,2.91142)">
                <path d="M911.917,416.563L919.493,406.461L927.07,416.563L911.917,416.563Z" style="fill:rgb(0,174,239);"/>
                <path d="M919.493,503.785L919.493,414.542" style="fill:none;stroke:rgb(0,174,239);stroke-width:3.37px;"/>
            </g>
        </g>
        <g transform="matrix(1,0,0,1.00648,625.091,249.62)">
            <g transform="matrix(1,-0,-0,0.993562,-625.091,-248.013)">
                <path d="M911.917,671.746L919.493,661.644L927.07,671.746L911.917,671.746Z" style="fill:rgb(0,174,239);"/>
                <path d="M919.493,759.599L919.493,669.726" style="fill:none;stroke:rgb(0,174,239);stroke-width:3.37px;"/>
            </g>
        </g>
        <g transform="matrix(1,0,0,1,424.148,-2.91142)">
            <g transform="matrix(1,-0,-0,1,-424.148,2.91142)">
                <path d="M710.974,416.563L718.55,406.461L726.127,416.563L710.974,416.563Z" style="fill:rgb(0,174,239);"/>
                <path d="M718.55,503.785L718.55,414.542" style="fill:none;stroke:rgb(0,174,239);stroke-width:3.37px;"/>
            </g>
        </g>
        <g transform="matrix(1,0,0,0.937365,424.148,284.639)">
            <g transform="matrix(1,-0,-0,1.06682,-424.148,-303.659)">
                <path d="M710.974,678.473L718.55,668.371L726.127,678.473L710.974,678.473Z" style="fill:rgb(0,174,239);"/>
                <path d="M718.55,759.599L718.55,676.452" style="fill:none;stroke:rgb(0,174,239);stroke-width:3.37px;"/>
            </g>
        </g>
        <g transform="matrix(1,0,0,1,658.581,-2.91142)">
            <g transform="matrix(1,-0,-0,1,-658.581,2.91142)">
                <path d="M945.407,416.563L952.984,406.461L960.56,416.563L945.407,416.563Z" style="fill:rgb(0,174,239);"/>
                <path d="M952.984,503.785L952.984,414.542" style="fill:none;stroke:rgb(0,174,239);stroke-width:3.37px;"/>
            </g>
        </g>
        <g transform="matrix(1,0,0,0.624192,658.581,443.323)">
            <g transform="matrix(1,-0,-0,1.60207,-658.581,-710.235)">
                <path d="M945.407,708.952L952.984,698.85L960.56,708.952L945.407,708.952Z" style="fill:rgb(0,174,239);"/>
                <path d="M952.984,759.599L952.984,706.932" style="fill:none;stroke:rgb(0,174,239);stroke-width:3.37px;"/>
            </g>
        </g>
        <g transform="matrix(1,0,0,1,457.639,-2.91142)">
            <g transform="matrix(1,-0,-0,1,-457.639,2.91142)">
                <path d="M744.464,416.563L752.041,406.461L759.617,416.563L744.464,416.563Z" style="fill:rgb(0,174,239);"/>
                <path d="M752.041,503.785L752.041,414.542" style="fill:none;stroke:rgb(0,174,239);stroke-width:3.37px;"/>
            </g>
        </g>
        <g transform="matrix(1,0,0,0.565877,457.639,472.871)">
            <g transform="matrix(1,-0,-0,1.76717,-457.639,-835.643)">
                <path d="M744.464,714.628L752.041,704.526L759.617,714.628L744.464,714.628Z" style="fill:rgb(0,174,239);"/>
                <path d="M752.041,759.599L752.041,712.607" style="fill:none;stroke:rgb(0,174,239);stroke-width:3.37px;"/>
            </g>
        </g>
        <g transform="matrix(1,0,0,1,692.072,-2.91142)">
            <g transform="matrix(1,-0,-0,1,-692.072,2.91142)">
                <path d="M978.898,416.563L986.474,406.461L994.051,416.563L978.898,416.563Z" style="fill:rgb(0,174,239);"/>
                <path d="M986.474,503.785L986.474,414.542" style="fill:none;stroke:rgb(0,174,239);stroke-width:3.37px;"/>
            </g>
        </g>
        <g transform="matrix(1,0,0,0.241905,692.072,637.027)">
            <g transform="matrix(1,-0,-0,4.13385,-692.072,-2633.37)">
                <path d="M978.898,746.158L986.474,736.056L994.051,746.158L978.898,746.158Z" style="fill:rgb(0,174,239);"/>
                <path d="M986.474,759.599L986.474,744.138" style="fill:none;stroke:rgb(0,174,239);stroke-width:3.37px;"/>
            </g>
        </g>
        <g transform="matrix(1,0,0,1,491.129,-2.91142)">
            <g transform="matrix(1,-0,-0,1,-491.129,2.91142)">
                <path d="M777.955,416.563L785.531,406.461L793.108,416.563L777.955,416.563Z" style="fill:rgb(0,174,239);"/>
                <path d="M785.531,503.785L785.531,414.542" style="fill:none;stroke:rgb(0,174,239);stroke-width:3.37px;"/>
            </g>
        </g>
        <g transform="matrix(1,0,0,0.235426,491.129,640.31)">
            <g transform="matrix(1,-0,-0,4.24762,-491.129,-2719.8)">
                <path d="M777.955,746.789L785.531,736.687L793.108,746.789L777.955,746.789Z" style="fill:rgb(0,174,239);"/>
                <path d="M785.531,759.599L785.531,744.768" style="fill:none;stroke:rgb(0,174,239);stroke-width:3.37px;"/>
            </g>
        </g>
        <g transform="matrix(1,0,0,1,725.562,-2.91142)">
            <g transform="matrix(1,-0,-0,1,-725.562,2.91142)">
                <path d="M1012.39,416.563L1019.97,406.461L1027.54,416.563L1012.39,416.563Z" style="fill:rgb(0,174,239);"/>
                <path d="M1019.97,503.785L1019.97,414.542" style="fill:none;stroke:rgb(0,174,239);stroke-width:3.37px;"/>
            </g>
        </g>
        <g transform="matrix(1,0,0,0.574517,725.562,468.494)">
            <g transform="matrix(1,-0,-0,1.74059,-725.562,-815.457)">
                <path d="M1012.39,713.787L1019.97,703.685L1027.54,713.787L1012.39,713.787Z" style="fill:rgb(0,174,239);"/>
                <path d="M1019.97,759.599L1019.97,711.767" style="fill:none;stroke:rgb(0,174,239);stroke-width:3.37px;"/>
            </g>
        </g>
        <g transform="matrix(1,0,0,1,524.619,-2.91142)">
            <g transform="matrix(1,-0,-0,1,-524.619,2.91142)">
                <path d="M811.445,416.563L819.022,406.461L826.598,416.563L811.445,416.563Z" style="fill:rgb(0,174,239);"/>
                <path d="M819.022,503.785L819.022,414.542" style="fill:none;stroke:rgb(0,174,239);stroke-width:3.37px;"/>
            </g>
        </g>
        <g transform="matrix(1,0,0,0.630672,524.619,440.04)">
            <g transform="matrix(1,-0,-0,1.58561,-524.619,-697.732)">
                <path d="M811.445,708.322L819.022,698.22L826.598,708.322L811.445,708.322Z" style="fill:rgb(0,174,239);"/>
                <path d="M819.022,759.599L819.022,706.301" style="fill:none;stroke:rgb(0,174,239);stroke-width:3.37px;"/>
            </g>
        </g>
        <g transform="matrix(1,0,0,1,759.053,-2.91142)">
            <g transform="matrix(1,-0,-0,1,-759.053,2.91142)">
                <path d="M1045.88,416.563L1053.45,406.461L1061.03,416.563L1045.88,416.563Z" style="fill:rgb(0,174,239);"/>
                <path d="M1053.45,503.785L1053.45,414.542" style="fill:none;stroke:rgb(0,174,239);stroke-width:3.37px;"/>
            </g>
        </g>
        <g transform="matrix(1,0,0,0.950324,759.053,278.073)">
            <g transform="matrix(1,-0,-0,1.05227,-759.053,-292.609)">
                <path d="M1045.88,677.212L1053.45,667.11L1061.03,677.212L1045.88,677.212Z" style="fill:rgb(0,174,239);"/>
                <path d="M1053.45,759.599L1053.45,675.191" style="fill:none;stroke:rgb(0,174,239);stroke-width:3.37px;"/>
            </g>
        </g>
        <g transform="matrix(1,0,0,1,558.11,-2.91142)">
            <g transform="matrix(1,-0,-0,1,-558.11,2.91142)">
                <path d="M844.936,416.563L852.512,406.461L860.089,416.563L844.936,416.563Z" style="fill:rgb(0,174,239);"/>
                <path d="M852.512,503.785L852.512,414.542" style="fill:none;stroke:rgb(0,174,239);stroke-width:3.37px;"/>
            </g>
        </g>
        <g transform="matrix(1,0,0,1,558.11,252.903)">
            <g transform="matrix(1,-0,-0,1,-558.11,-252.903)">
                <path d="M844.936,672.377L852.512,662.275L860.089,672.377L844.936,672.377Z" style="fill:rgb(0,174,239);"/>
                <path d="M852.512,759.599L852.512,670.357" style="fill:none;stroke:rgb(0,174,239);stroke-width:3.37px;"/>
            </g>
        </g>
        <g transform="matrix(1,0,0,1,591.085,-4.44089e-16)">
            <g transform="matrix(1,-0,-0,1,-591.085,4.44089e-16)">
                <path d="M987.935,510.205L987.935,519.184" style="fill:none;stroke:black;stroke-width:2.24px;stroke-linejoin:miter;stroke-miterlimit:10;"/>
                <path d="M1018.72,510.205L1018.72,519.184" style="fill:none;stroke:black;stroke-width:2.24px;stroke-linejoin:miter;stroke-miterlimit:10;"/>
                <path d="M987.935,514.694L1018.72,514.694" style="fill:none;stroke:black;stroke-width:2.24px;"/>
            </g>
        </g>
        <g transform="matrix(1,0,0,1,0.448082,-2.91142)">
            <g transform="matrix(1,-0,-0,1,-0.448082,2.91142)">
                <path d="M287.274,416.563L294.85,406.461L302.427,416.563L287.274,416.563Z" style="fill:rgb(0,174,239);"/>
                <path d="M294.85,503.785L294.85,414.542" style="fill:none;stroke:rgb(0,174,239);stroke-width:3.37px;"/>
            </g>
        </g>
        <g transform="matrix(1,0,0,1,210.818,-2.91142)">
            <g transform="matrix(1,-0,-0,1,-210.818,2.91142)">
                <path d="M497.643,416.563L505.22,406.461L512.796,416.563L497.643,416.563Z" style="fill:rgb(0,174,239);"/>
                <path d="M505.22,503.785L505.22,414.542" style="fill:none;stroke:rgb(0,174,239);stroke-width:3.37px;"/>
            </g>
        </g>
        <g transform="matrix(1,0,0,1,-209.921,-2.91142)">
            <g transform="matrix(1,-0,-0,1,209.921,2.91142)">
                <path d="M76.904,416.563L84.481,406.461L92.057,416.563L76.904,416.563Z" style="fill:rgb(0,174,239);"/>
                <path d="M84.481,503.785L84.481,414.542" style="fill:none;stroke:rgb(0,174,239);stroke-width:3.37px;"/>
            </g>
        </g>
        <g transform="matrix(0.326942,0,0,-0.326942,61.3716,536.557)">
            <g id="klftmpexporter4x1x0xn16932">
                <g id="g127" serif:id="g12">
                    <path id="path147" serif:id="path14" d="M57.469,22.844C59.156,22.844 60.938,22.844 60.938,24.828C60.938,26.828 59.156,26.828 57.469,26.828L3.719,26.828C2.031,26.828 0.25,26.828 0.25,24.828C0.25,22.844 2.031,22.844 3.719,22.844L57.469,22.844" style="fill-rule:nonzero;"/>
                    <path id="path163" serif:id="path16" d="M107.156,60.094C108.047,63.672 108.344,64.766 117.688,64.766C120.656,64.766 121.453,64.766 121.453,66.656C121.453,67.844 120.359,67.844 119.875,67.844C116.594,67.844 108.438,67.547 105.172,67.547C102.188,67.547 94.938,67.844 91.953,67.844C91.266,67.844 90.062,67.844 90.062,65.859C90.062,64.766 90.953,64.766 92.844,64.766C93.047,64.766 94.937,64.766 96.625,64.563C98.406,64.375 99.297,64.266 99.297,62.984C99.297,62.578 99.203,62.281 98.906,61.094L85.594,7.75C84.609,3.875 84.406,3.078 76.563,3.078C74.875,3.078 73.875,3.078 73.875,1.094C73.875,0 74.766,0 76.563,0L122.547,0C124.938,0 125.031,0 125.625,1.688L133.469,23.141C133.875,24.234 133.875,24.438 133.875,24.531C133.875,24.937 133.578,25.625 132.688,25.625C131.781,25.625 131.688,25.125 131,23.547C127.609,14.406 123.25,3.078 106.063,3.078L96.719,3.078C95.328,3.078 95.125,3.078 94.531,3.172C93.547,3.281 93.25,3.375 93.25,4.172C93.25,4.469 93.25,4.672 93.734,6.453L107.156,60.094" style="fill-rule:nonzero;"/>
                </g>
            </g>
        </g>
        <g transform="matrix(0.326942,0,0,-0.326942,471.898,536.557)">
            <g id="klftmpexporter4x1x0xn169321" serif:id="klftmpexporter4x1x0xn16932">
                <g id="g128" serif:id="g12">
                    <path id="path164" serif:id="path16" d="M107.156,60.094C108.047,63.672 108.344,64.766 117.688,64.766C120.656,64.766 121.453,64.766 121.453,66.656C121.453,67.844 120.359,67.844 119.875,67.844C116.594,67.844 108.438,67.547 105.172,67.547C102.188,67.547 94.938,67.844 91.953,67.844C91.266,67.844 90.062,67.844 90.062,65.859C90.062,64.766 90.953,64.766 92.844,64.766C93.047,64.766 94.937,64.766 96.625,64.563C98.406,64.375 99.297,64.266 99.297,62.984C99.297,62.578 99.203,62.281 98.906,61.094L85.594,7.75C84.609,3.875 84.406,3.078 76.563,3.078C74.875,3.078 73.875,3.078 73.875,1.094C73.875,0 74.766,0 76.563,0L122.547,0C124.938,0 125.031,0 125.625,1.688L133.469,23.141C133.875,24.234 133.875,24.438 133.875,24.531C133.875,24.937 133.578,25.625 132.688,25.625C131.781,25.625 131.688,25.125 131,23.547C127.609,14.406 123.25,3.078 106.063,3.078L96.719,3.078C95.328,3.078 95.125,3.078 94.531,3.172C93.547,3.281 93.25,3.375 93.25,4.172C93.25,4.469 93.25,4.672 93.734,6.453L107.156,60.094" style="fill-rule:nonzero;"/>
                </g>
            </g>
        </g>
        <g transform="matrix(0.315305,-6.38416e-33,-6.38416e-33,-0.315305,979.073,555.549)">
            <g id="klftmpexporter4x1x0xf16932">
                <g id="g129" serif:id="g12">
                    <path id="path148" serif:id="path14" d="M20.203,88.578C20.203,90.953 20.203,91.156 17.922,91.156C11.766,84.797 3.016,84.797 -0.156,84.797L-0.156,81.719C1.828,81.719 7.688,81.719 12.859,84.297L12.859,32.844C12.859,29.266 12.563,28.078 3.609,28.078L0.438,28.078L0.438,25C3.906,25.297 12.563,25.297 16.531,25.297C20.5,25.297 29.141,25.297 32.625,25L32.625,28.078L29.438,28.078C20.5,28.078 20.203,29.172 20.203,32.844L20.203,88.578" style="fill-rule:nonzero;"/>
                    <path id="path165" serif:id="path16" d="M85.609,95.734C86.109,97.016 86.109,97.422 86.109,97.516C86.109,98.609 85.219,99.5 84.125,99.5C83.422,99.5 82.734,99.203 82.438,98.609L47.953,3.938C47.469,2.656 47.469,2.25 47.469,2.156C47.469,1.063 48.359,0.172 49.453,0.172C50.734,0.172 51.047,0.859 51.641,2.547L85.609,95.734" style="fill-rule:nonzero;"/>
                    <path id="path18" d="M129.156,85.094C130.047,88.672 130.344,89.766 139.688,89.766C142.656,89.766 143.453,89.766 143.453,91.656C143.453,92.844 142.359,92.844 141.875,92.844C138.594,92.844 130.438,92.547 127.172,92.547C124.188,92.547 116.938,92.844 113.953,92.844C113.266,92.844 112.063,92.844 112.063,90.859C112.063,89.766 112.953,89.766 114.844,89.766C115.047,89.766 116.938,89.766 118.625,89.563C120.406,89.375 121.297,89.266 121.297,87.984C121.297,87.578 121.203,87.281 120.906,86.094L107.594,32.75C106.609,28.875 106.406,28.078 98.563,28.078C96.875,28.078 95.875,28.078 95.875,26.094C95.875,25 96.766,25 98.563,25L144.547,25C146.938,25 147.031,25 147.625,26.688L155.469,48.141C155.875,49.234 155.875,49.438 155.875,49.531C155.875,49.938 155.578,50.625 154.688,50.625C153.781,50.625 153.688,50.125 153,48.547C149.609,39.406 145.25,28.078 128.063,28.078L118.719,28.078C117.328,28.078 117.125,28.078 116.531,28.172C115.547,28.281 115.25,28.375 115.25,29.172C115.25,29.469 115.25,29.672 115.734,31.453L129.156,85.094" style="fill-rule:nonzero;"/>
                </g>
            </g>
        </g>
        <g transform="matrix(1,0,0,1,750.31,511.312)">
            <g transform="matrix(37.5,0,0,37.5,124.647,63.8538)">
                <path d="M0.485,-0.355L0.015,-0.355L0.015,-0.41L0.485,-0.41L0.485,-0.355ZM0.485,-0.207L0.015,-0.207L0.015,-0.262L0.485,-0.262L0.485,-0.207Z" style="fill-rule:nonzero;"/>
            </g>
        </g>
        <g transform="matrix(1,0,0,1,159.972,511.312)">
            <g transform="matrix(37.5,0,0,37.5,124.647,63.8538)">
                <path d="M0.485,-0.355L0.015,-0.355L0.015,-0.41L0.485,-0.41L0.485,-0.355ZM0.485,-0.207L0.015,-0.207L0.015,-0.262L0.485,-0.262L0.485,-0.207Z" style="fill-rule:nonzero;"/>
            </g>
        </g>
    </g>
    <g transform="matrix(1,0,0,1,-116.188,-25.6297)">
        <g transform="matrix(37.5,0,0,37.5,285.579,63.8538)">
            <path d="M0.039,-0.168L0.042,-0.172L0.066,-0.172L0.07,-0.168C0.072,-0.126 0.074,-0.101 0.077,-0.092C0.08,-0.082 0.088,-0.073 0.103,-0.062C0.118,-0.052 0.138,-0.044 0.162,-0.037C0.187,-0.031 0.212,-0.027 0.237,-0.027C0.271,-0.027 0.302,-0.034 0.33,-0.046C0.357,-0.059 0.379,-0.078 0.394,-0.102C0.409,-0.127 0.417,-0.154 0.417,-0.185C0.417,-0.207 0.413,-0.225 0.406,-0.241C0.399,-0.257 0.388,-0.27 0.375,-0.28C0.362,-0.289 0.347,-0.296 0.33,-0.301C0.313,-0.306 0.288,-0.311 0.254,-0.316C0.222,-0.322 0.196,-0.326 0.178,-0.331C0.16,-0.335 0.141,-0.341 0.123,-0.35C0.105,-0.359 0.09,-0.37 0.077,-0.384C0.065,-0.397 0.055,-0.414 0.048,-0.433C0.041,-0.453 0.037,-0.474 0.037,-0.497C0.037,-0.557 0.058,-0.607 0.101,-0.646C0.143,-0.685 0.2,-0.705 0.271,-0.705C0.299,-0.705 0.33,-0.701 0.364,-0.694C0.397,-0.687 0.427,-0.677 0.455,-0.663L0.458,-0.657C0.451,-0.627 0.446,-0.585 0.445,-0.529L0.44,-0.525L0.415,-0.525L0.411,-0.529C0.41,-0.568 0.41,-0.592 0.408,-0.603C0.407,-0.613 0.392,-0.625 0.364,-0.64C0.335,-0.655 0.305,-0.663 0.271,-0.663C0.244,-0.663 0.218,-0.657 0.194,-0.646C0.17,-0.635 0.152,-0.618 0.139,-0.594C0.127,-0.57 0.121,-0.546 0.121,-0.521C0.121,-0.502 0.124,-0.485 0.132,-0.47C0.139,-0.455 0.149,-0.443 0.161,-0.435C0.173,-0.426 0.187,-0.42 0.202,-0.416C0.218,-0.411 0.247,-0.406 0.289,-0.4C0.347,-0.392 0.389,-0.382 0.415,-0.37C0.441,-0.359 0.462,-0.34 0.478,-0.315C0.494,-0.29 0.501,-0.26 0.501,-0.225C0.501,-0.155 0.473,-0.097 0.417,-0.051C0.36,-0.005 0.292,0.018 0.211,0.018C0.144,0.018 0.085,0.006 0.034,-0.018L0.031,-0.024C0.035,-0.045 0.037,-0.093 0.039,-0.168Z" style="fill-rule:nonzero;"/>
        </g>
        <g transform="matrix(37.5,0,0,37.5,305.262,63.8538)">
            <path d="M0.181,-0.471L0.19,-0.465C0.187,-0.428 0.185,-0.395 0.185,-0.367C0.229,-0.407 0.26,-0.434 0.277,-0.447C0.295,-0.46 0.325,-0.466 0.367,-0.466C0.394,-0.466 0.418,-0.463 0.44,-0.455C0.462,-0.448 0.482,-0.436 0.5,-0.419C0.519,-0.402 0.534,-0.381 0.544,-0.356C0.555,-0.331 0.561,-0.302 0.561,-0.269C0.561,-0.245 0.557,-0.221 0.549,-0.197C0.542,-0.173 0.532,-0.151 0.52,-0.13C0.508,-0.11 0.498,-0.096 0.49,-0.09C0.483,-0.083 0.468,-0.073 0.445,-0.06C0.425,-0.047 0.404,-0.034 0.384,-0.02C0.37,-0.009 0.361,-0.003 0.355,-0C0.349,0.003 0.34,0.006 0.327,0.009C0.314,0.012 0.3,0.013 0.286,0.013C0.252,0.013 0.218,0.005 0.185,-0.013L0.185,0.091C0.185,0.098 0.185,0.122 0.187,0.16C0.188,0.199 0.189,0.222 0.191,0.229C0.192,0.235 0.194,0.24 0.197,0.243C0.2,0.246 0.204,0.247 0.208,0.248C0.212,0.249 0.23,0.25 0.261,0.252L0.265,0.256L0.265,0.277L0.261,0.281C0.221,0.279 0.181,0.277 0.144,0.277C0.107,0.277 0.068,0.279 0.027,0.281L0.022,0.277L0.022,0.256L0.027,0.252C0.058,0.25 0.076,0.249 0.08,0.248C0.084,0.247 0.088,0.245 0.091,0.242C0.094,0.239 0.096,0.234 0.097,0.227C0.099,0.22 0.1,0.198 0.101,0.162C0.103,0.125 0.104,0.097 0.104,0.079L0.104,-0.295C0.104,-0.312 0.103,-0.332 0.101,-0.354C0.1,-0.377 0.099,-0.389 0.098,-0.393C0.097,-0.397 0.094,-0.4 0.091,-0.402C0.087,-0.404 0.078,-0.405 0.065,-0.405L0.024,-0.406L0.02,-0.41L0.02,-0.431L0.024,-0.435C0.086,-0.442 0.138,-0.454 0.181,-0.471ZM0.185,-0.097C0.2,-0.081 0.218,-0.068 0.24,-0.057C0.262,-0.046 0.287,-0.04 0.313,-0.04C0.345,-0.04 0.373,-0.048 0.397,-0.064C0.421,-0.08 0.44,-0.103 0.454,-0.134C0.467,-0.165 0.474,-0.199 0.474,-0.236C0.474,-0.267 0.468,-0.295 0.456,-0.321C0.444,-0.347 0.426,-0.367 0.401,-0.382C0.376,-0.397 0.349,-0.405 0.321,-0.405C0.304,-0.405 0.287,-0.402 0.271,-0.396C0.255,-0.39 0.24,-0.381 0.225,-0.369C0.211,-0.357 0.201,-0.346 0.195,-0.336C0.189,-0.325 0.185,-0.316 0.185,-0.309C0.185,-0.302 0.185,-0.295 0.185,-0.286L0.185,-0.097Z" style="fill-rule:nonzero;"/>
        </g>
        <g transform="matrix(37.5,0,0,37.5,327.803,63.8538)">
            <path d="M0.104,-0.331L0.084,-0.336L0.081,-0.341L0.081,-0.401C0.139,-0.444 0.195,-0.466 0.25,-0.466C0.287,-0.466 0.318,-0.459 0.343,-0.445C0.368,-0.431 0.385,-0.413 0.396,-0.392C0.408,-0.371 0.413,-0.347 0.413,-0.319L0.411,-0.221L0.411,-0.075C0.411,-0.055 0.412,-0.043 0.415,-0.039C0.418,-0.035 0.421,-0.032 0.424,-0.031C0.428,-0.029 0.435,-0.028 0.444,-0.027L0.472,-0.024L0.476,-0.02L0.476,-0L0.472,0.003C0.448,0.001 0.426,0 0.406,0C0.386,0 0.363,0.001 0.335,0.003L0.328,-0.003L0.33,-0.082L0.224,0.001C0.206,0.008 0.186,0.012 0.165,0.012C0.139,0.012 0.117,0.007 0.098,-0.002C0.079,-0.011 0.065,-0.025 0.055,-0.042C0.045,-0.058 0.04,-0.079 0.04,-0.103C0.04,-0.151 0.055,-0.188 0.085,-0.215C0.115,-0.242 0.197,-0.265 0.33,-0.284C0.33,-0.332 0.319,-0.366 0.298,-0.385C0.276,-0.405 0.248,-0.415 0.211,-0.415C0.193,-0.415 0.175,-0.412 0.16,-0.407C0.144,-0.401 0.136,-0.397 0.133,-0.393C0.131,-0.39 0.122,-0.37 0.107,-0.333L0.104,-0.331ZM0.33,-0.254C0.239,-0.239 0.182,-0.222 0.16,-0.205C0.137,-0.187 0.126,-0.16 0.126,-0.123C0.126,-0.072 0.151,-0.047 0.202,-0.047C0.245,-0.047 0.288,-0.072 0.33,-0.122L0.33,-0.254Z" style="fill-rule:nonzero;"/>
        </g>
        <g transform="matrix(37.5,0,0,37.5,346.553,63.8538)">
            <path d="M0.022,-0.383L0.022,-0.396L0.026,-0.401C0.056,-0.412 0.081,-0.423 0.1,-0.433C0.1,-0.518 0.099,-0.567 0.097,-0.581C0.131,-0.593 0.158,-0.605 0.18,-0.619L0.191,-0.609C0.188,-0.588 0.184,-0.529 0.18,-0.43C0.196,-0.43 0.214,-0.43 0.232,-0.43C0.271,-0.43 0.298,-0.431 0.315,-0.433L0.318,-0.429L0.309,-0.388L0.305,-0.384C0.289,-0.384 0.27,-0.384 0.25,-0.384C0.232,-0.384 0.208,-0.384 0.18,-0.384L0.177,-0.185C0.177,-0.139 0.178,-0.109 0.18,-0.095C0.182,-0.081 0.188,-0.07 0.198,-0.062C0.207,-0.054 0.221,-0.05 0.24,-0.05C0.262,-0.05 0.282,-0.056 0.301,-0.067L0.313,-0.049C0.305,-0.044 0.286,-0.028 0.256,-0C0.239,0.007 0.222,0.011 0.205,0.011C0.131,0.011 0.095,-0.024 0.095,-0.095C0.095,-0.121 0.095,-0.143 0.097,-0.162C0.097,-0.167 0.097,-0.173 0.097,-0.179L0.097,-0.381L0.077,-0.381C0.063,-0.381 0.046,-0.381 0.027,-0.379L0.022,-0.383Z" style="fill-rule:nonzero;"/>
        </g>
        <g transform="matrix(37.5,0,0,37.5,358.784,63.8538)">
            <path d="M0.141,-0.684C0.156,-0.684 0.169,-0.678 0.18,-0.667C0.19,-0.657 0.196,-0.644 0.196,-0.628C0.196,-0.613 0.19,-0.601 0.18,-0.59C0.169,-0.579 0.156,-0.574 0.141,-0.574C0.126,-0.574 0.113,-0.579 0.102,-0.59C0.091,-0.6 0.085,-0.613 0.085,-0.628C0.085,-0.644 0.091,-0.657 0.102,-0.667C0.113,-0.678 0.126,-0.684 0.141,-0.684ZM0.182,-0.465L0.191,-0.459C0.188,-0.416 0.186,-0.362 0.186,-0.296L0.186,-0.186C0.186,-0.179 0.187,-0.156 0.188,-0.117C0.189,-0.078 0.191,-0.055 0.192,-0.049C0.194,-0.042 0.196,-0.038 0.199,-0.035C0.202,-0.032 0.205,-0.03 0.209,-0.029C0.214,-0.028 0.231,-0.027 0.262,-0.025L0.267,-0.021L0.267,-0L0.263,0.004C0.222,0.001 0.183,-0 0.145,-0C0.108,-0 0.069,0.001 0.028,0.004L0.023,-0L0.023,-0.021L0.028,-0.025C0.059,-0.027 0.077,-0.028 0.081,-0.029C0.085,-0.03 0.089,-0.032 0.092,-0.035C0.095,-0.038 0.097,-0.043 0.098,-0.05C0.1,-0.056 0.101,-0.077 0.102,-0.113C0.104,-0.148 0.104,-0.175 0.104,-0.193L0.104,-0.29C0.104,-0.303 0.104,-0.32 0.103,-0.343C0.101,-0.365 0.1,-0.379 0.099,-0.384C0.099,-0.389 0.096,-0.393 0.092,-0.396C0.088,-0.398 0.079,-0.399 0.066,-0.399L0.025,-0.4L0.021,-0.404L0.021,-0.425L0.025,-0.429C0.087,-0.436 0.139,-0.448 0.182,-0.465Z" style="fill-rule:nonzero;"/>
        </g>
        <g transform="matrix(37.5,0,0,37.5,369.697,63.8538)">
            <path d="M0.104,-0.331L0.084,-0.336L0.081,-0.341L0.081,-0.401C0.139,-0.444 0.195,-0.466 0.25,-0.466C0.287,-0.466 0.318,-0.459 0.343,-0.445C0.368,-0.431 0.385,-0.413 0.396,-0.392C0.408,-0.371 0.413,-0.347 0.413,-0.319L0.411,-0.221L0.411,-0.075C0.411,-0.055 0.412,-0.043 0.415,-0.039C0.418,-0.035 0.421,-0.032 0.424,-0.031C0.428,-0.029 0.435,-0.028 0.444,-0.027L0.472,-0.024L0.476,-0.02L0.476,-0L0.472,0.003C0.448,0.001 0.426,0 0.406,0C0.386,0 0.363,0.001 0.335,0.003L0.328,-0.003L0.33,-0.082L0.224,0.001C0.206,0.008 0.186,0.012 0.165,0.012C0.139,0.012 0.117,0.007 0.098,-0.002C0.079,-0.011 0.065,-0.025 0.055,-0.042C0.045,-0.058 0.04,-0.079 0.04,-0.103C0.04,-0.151 0.055,-0.188 0.085,-0.215C0.115,-0.242 0.197,-0.265 0.33,-0.284C0.33,-0.332 0.319,-0.366 0.298,-0.385C0.276,-0.405 0.248,-0.415 0.211,-0.415C0.193,-0.415 0.175,-0.412 0.16,-0.407C0.144,-0.401 0.136,-0.397 0.133,-0.393C0.131,-0.39 0.122,-0.37 0.107,-0.333L0.104,-0.331ZM0.33,-0.254C0.239,-0.239 0.182,-0.222 0.16,-0.205C0.137,-0.187 0.126,-0.16 0.126,-0.123C0.126,-0.072 0.151,-0.047 0.202,-0.047C0.245,-0.047 0.288,-0.072 0.33,-0.122L0.33,-0.254Z" style="fill-rule:nonzero;"/>
        </g>
        <g transform="matrix(37.5,0,0,37.5,388.447,63.8538)">
            <path d="M0.183,-0.723L0.192,-0.717C0.188,-0.68 0.187,-0.605 0.187,-0.492L0.187,-0.186C0.187,-0.179 0.187,-0.156 0.188,-0.117C0.19,-0.078 0.191,-0.055 0.193,-0.049C0.194,-0.042 0.196,-0.038 0.199,-0.035C0.202,-0.032 0.206,-0.03 0.21,-0.029C0.214,-0.028 0.232,-0.027 0.263,-0.025L0.267,-0.021L0.267,-0L0.263,0.004C0.222,0.001 0.183,-0 0.146,-0C0.108,-0 0.069,0.001 0.028,0.004L0.024,-0L0.024,-0.021L0.028,-0.025C0.06,-0.027 0.078,-0.028 0.082,-0.029C0.086,-0.03 0.089,-0.032 0.093,-0.035C0.096,-0.038 0.098,-0.043 0.099,-0.05C0.1,-0.056 0.101,-0.077 0.103,-0.113C0.104,-0.148 0.105,-0.175 0.105,-0.193L0.105,-0.446L0.103,-0.55C0.102,-0.586 0.101,-0.611 0.1,-0.625C0.099,-0.639 0.097,-0.647 0.095,-0.65C0.093,-0.653 0.09,-0.654 0.085,-0.656C0.08,-0.657 0.06,-0.658 0.026,-0.658L0.021,-0.662L0.021,-0.683L0.025,-0.687C0.088,-0.694 0.14,-0.706 0.183,-0.723Z" style="fill-rule:nonzero;"/>
        </g>
        <g transform="matrix(37.5,0,0,37.5,408.735,63.8538)">
            <path d="M0.329,-0.662L0.329,-0.683L0.333,-0.687C0.395,-0.694 0.447,-0.706 0.49,-0.723L0.499,-0.717C0.495,-0.68 0.494,-0.605 0.494,-0.492L0.494,-0.172C0.494,-0.139 0.494,-0.111 0.495,-0.086C0.497,-0.062 0.499,-0.047 0.501,-0.042C0.504,-0.038 0.509,-0.034 0.516,-0.031C0.523,-0.028 0.542,-0.026 0.573,-0.023L0.577,-0.019L0.577,-0L0.573,0.004C0.538,0.002 0.51,0 0.491,0C0.473,0 0.448,0.002 0.416,0.004L0.41,-0.001C0.411,-0.033 0.412,-0.056 0.412,-0.068C0.412,-0.07 0.412,-0.076 0.412,-0.087C0.394,-0.074 0.376,-0.059 0.358,-0.043C0.332,-0.02 0.315,-0.005 0.307,0C0.292,0.008 0.27,0.012 0.243,0.012C0.198,0.012 0.16,0.001 0.128,-0.021C0.097,-0.044 0.074,-0.072 0.061,-0.106C0.048,-0.141 0.041,-0.176 0.041,-0.212C0.041,-0.249 0.048,-0.284 0.062,-0.318C0.076,-0.352 0.095,-0.377 0.121,-0.393C0.146,-0.408 0.174,-0.424 0.204,-0.441C0.234,-0.458 0.264,-0.466 0.294,-0.466C0.335,-0.466 0.375,-0.456 0.412,-0.436L0.41,-0.544C0.41,-0.582 0.409,-0.608 0.407,-0.623C0.406,-0.638 0.404,-0.647 0.402,-0.65C0.4,-0.652 0.397,-0.654 0.392,-0.656C0.388,-0.657 0.368,-0.658 0.333,-0.658L0.329,-0.662ZM0.412,-0.352C0.392,-0.375 0.37,-0.392 0.345,-0.404C0.32,-0.416 0.296,-0.422 0.271,-0.422C0.244,-0.422 0.218,-0.415 0.195,-0.4C0.171,-0.385 0.154,-0.363 0.144,-0.334C0.133,-0.305 0.128,-0.273 0.128,-0.239C0.128,-0.182 0.142,-0.137 0.171,-0.102C0.2,-0.068 0.236,-0.05 0.28,-0.05C0.304,-0.05 0.325,-0.056 0.343,-0.067C0.361,-0.078 0.377,-0.092 0.388,-0.111C0.4,-0.129 0.407,-0.148 0.409,-0.167C0.411,-0.185 0.412,-0.219 0.412,-0.269L0.412,-0.352Z" style="fill-rule:nonzero;"/>
        </g>
        <g transform="matrix(37.5,0,0,37.5,431.642,63.8538)">
            <path d="M0.033,-0.224C0.033,-0.262 0.041,-0.3 0.057,-0.336C0.073,-0.372 0.101,-0.403 0.14,-0.429C0.18,-0.455 0.227,-0.468 0.281,-0.468C0.35,-0.468 0.405,-0.447 0.448,-0.404C0.491,-0.36 0.513,-0.305 0.513,-0.237C0.513,-0.163 0.488,-0.101 0.439,-0.053C0.389,-0.005 0.33,0.019 0.26,0.019C0.215,0.019 0.174,0.007 0.138,-0.018C0.102,-0.042 0.076,-0.072 0.059,-0.108C0.042,-0.143 0.033,-0.182 0.033,-0.224ZM0.125,-0.257C0.125,-0.212 0.131,-0.171 0.143,-0.135C0.155,-0.099 0.173,-0.07 0.199,-0.048C0.224,-0.027 0.253,-0.016 0.286,-0.016C0.324,-0.016 0.356,-0.031 0.381,-0.061C0.406,-0.092 0.418,-0.138 0.418,-0.199C0.418,-0.268 0.405,-0.325 0.378,-0.369C0.351,-0.413 0.311,-0.436 0.26,-0.436C0.218,-0.436 0.185,-0.42 0.161,-0.39C0.137,-0.359 0.125,-0.315 0.125,-0.257Z" style="fill-rule:nonzero;"/>
        </g>
        <g transform="matrix(37.5,0,0,37.5,452.113,63.8538)">
            <path d="M0.18,-0.465L0.189,-0.459C0.187,-0.438 0.186,-0.412 0.185,-0.382L0.231,-0.424C0.244,-0.436 0.253,-0.444 0.257,-0.448C0.262,-0.451 0.271,-0.455 0.287,-0.459C0.303,-0.464 0.319,-0.466 0.336,-0.466C0.369,-0.466 0.397,-0.458 0.422,-0.442C0.446,-0.426 0.464,-0.404 0.476,-0.375C0.52,-0.417 0.546,-0.44 0.553,-0.445C0.56,-0.449 0.572,-0.454 0.588,-0.459C0.604,-0.463 0.62,-0.466 0.636,-0.466C0.661,-0.466 0.685,-0.46 0.707,-0.449C0.728,-0.438 0.745,-0.424 0.758,-0.406C0.771,-0.388 0.778,-0.368 0.78,-0.348C0.782,-0.327 0.783,-0.298 0.783,-0.262L0.783,-0.21C0.783,-0.205 0.784,-0.164 0.786,-0.089C0.787,-0.058 0.79,-0.04 0.796,-0.034C0.803,-0.028 0.823,-0.025 0.856,-0.025L0.86,-0.021L0.86,-0L0.856,0.004C0.815,0.001 0.787,-0 0.772,-0C0.764,-0 0.741,0.001 0.702,0.004L0.695,-0.001C0.7,-0.044 0.702,-0.099 0.702,-0.167L0.702,-0.226C0.702,-0.277 0.699,-0.314 0.694,-0.334C0.689,-0.355 0.678,-0.372 0.66,-0.385C0.642,-0.398 0.621,-0.405 0.596,-0.405C0.579,-0.405 0.562,-0.401 0.547,-0.394C0.532,-0.387 0.518,-0.377 0.506,-0.363C0.493,-0.349 0.487,-0.336 0.485,-0.324C0.484,-0.313 0.483,-0.291 0.483,-0.259L0.483,-0.198C0.483,-0.183 0.484,-0.157 0.485,-0.117C0.487,-0.078 0.488,-0.055 0.49,-0.048C0.491,-0.042 0.493,-0.037 0.496,-0.034C0.499,-0.032 0.503,-0.03 0.507,-0.029C0.511,-0.028 0.529,-0.027 0.56,-0.025L0.564,-0.021L0.564,-0L0.56,0.004C0.519,0.001 0.48,-0 0.442,-0C0.408,-0 0.368,0.001 0.325,0.004L0.321,-0L0.321,-0.021L0.325,-0.025C0.357,-0.027 0.375,-0.028 0.379,-0.029C0.383,-0.03 0.386,-0.032 0.389,-0.035C0.392,-0.038 0.395,-0.043 0.396,-0.05C0.397,-0.056 0.398,-0.077 0.4,-0.113C0.401,-0.148 0.402,-0.175 0.402,-0.193L0.402,-0.249C0.402,-0.286 0.399,-0.314 0.394,-0.334C0.389,-0.354 0.378,-0.371 0.362,-0.384C0.345,-0.398 0.324,-0.405 0.299,-0.405C0.28,-0.405 0.262,-0.401 0.246,-0.393C0.23,-0.386 0.217,-0.376 0.206,-0.365C0.196,-0.354 0.19,-0.343 0.187,-0.333C0.185,-0.324 0.184,-0.303 0.184,-0.27L0.184,-0.198C0.184,-0.183 0.184,-0.157 0.186,-0.117C0.187,-0.078 0.188,-0.055 0.19,-0.048C0.191,-0.042 0.193,-0.037 0.197,-0.034C0.2,-0.032 0.203,-0.03 0.207,-0.029C0.211,-0.028 0.229,-0.027 0.26,-0.025L0.264,-0.021L0.264,-0L0.26,0.004C0.22,0.001 0.18,-0 0.143,-0C0.105,-0 0.066,0.001 0.025,0.004L0.021,-0L0.021,-0.021L0.025,-0.025C0.057,-0.027 0.075,-0.028 0.079,-0.029C0.083,-0.03 0.087,-0.032 0.09,-0.035C0.093,-0.038 0.095,-0.043 0.096,-0.05C0.097,-0.056 0.098,-0.077 0.1,-0.113C0.101,-0.148 0.102,-0.175 0.102,-0.193L0.102,-0.29C0.102,-0.303 0.101,-0.32 0.1,-0.343C0.099,-0.365 0.098,-0.379 0.097,-0.384C0.096,-0.389 0.094,-0.393 0.089,-0.396C0.085,-0.398 0.077,-0.399 0.064,-0.399L0.023,-0.4L0.019,-0.404L0.019,-0.425L0.022,-0.429C0.085,-0.436 0.137,-0.448 0.18,-0.465Z" style="fill-rule:nonzero;"/>
        </g>
        <g transform="matrix(37.5,0,0,37.5,485.219,63.8538)">
            <path d="M0.104,-0.331L0.084,-0.336L0.081,-0.341L0.081,-0.401C0.139,-0.444 0.195,-0.466 0.25,-0.466C0.287,-0.466 0.318,-0.459 0.343,-0.445C0.368,-0.431 0.385,-0.413 0.396,-0.392C0.408,-0.371 0.413,-0.347 0.413,-0.319L0.411,-0.221L0.411,-0.075C0.411,-0.055 0.412,-0.043 0.415,-0.039C0.418,-0.035 0.421,-0.032 0.424,-0.031C0.428,-0.029 0.435,-0.028 0.444,-0.027L0.472,-0.024L0.476,-0.02L0.476,-0L0.472,0.003C0.448,0.001 0.426,0 0.406,0C0.386,0 0.363,0.001 0.335,0.003L0.328,-0.003L0.33,-0.082L0.224,0.001C0.206,0.008 0.186,0.012 0.165,0.012C0.139,0.012 0.117,0.007 0.098,-0.002C0.079,-0.011 0.065,-0.025 0.055,-0.042C0.045,-0.058 0.04,-0.079 0.04,-0.103C0.04,-0.151 0.055,-0.188 0.085,-0.215C0.115,-0.242 0.197,-0.265 0.33,-0.284C0.33,-0.332 0.319,-0.366 0.298,-0.385C0.276,-0.405 0.248,-0.415 0.211,-0.415C0.193,-0.415 0.175,-0.412 0.16,-0.407C0.144,-0.401 0.136,-0.397 0.133,-0.393C0.131,-0.39 0.122,-0.37 0.107,-0.333L0.104,-0.331ZM0.33,-0.254C0.239,-0.239 0.182,-0.222 0.16,-0.205C0.137,-0.187 0.126,-0.16 0.126,-0.123C0.126,-0.072 0.151,-0.047 0.202,-0.047C0.245,-0.047 0.288,-0.072 0.33,-0.122L0.33,-0.254Z" style="fill-rule:nonzero;"/>
        </g>
        <g transform="matrix(37.5,0,0,37.5,503.969,63.8538)">
            <path d="M0.141,-0.684C0.156,-0.684 0.169,-0.678 0.18,-0.667C0.19,-0.657 0.196,-0.644 0.196,-0.628C0.196,-0.613 0.19,-0.601 0.18,-0.59C0.169,-0.579 0.156,-0.574 0.141,-0.574C0.126,-0.574 0.113,-0.579 0.102,-0.59C0.091,-0.6 0.085,-0.613 0.085,-0.628C0.085,-0.644 0.091,-0.657 0.102,-0.667C0.113,-0.678 0.126,-0.684 0.141,-0.684ZM0.182,-0.465L0.191,-0.459C0.188,-0.416 0.186,-0.362 0.186,-0.296L0.186,-0.186C0.186,-0.179 0.187,-0.156 0.188,-0.117C0.189,-0.078 0.191,-0.055 0.192,-0.049C0.194,-0.042 0.196,-0.038 0.199,-0.035C0.202,-0.032 0.205,-0.03 0.209,-0.029C0.214,-0.028 0.231,-0.027 0.262,-0.025L0.267,-0.021L0.267,-0L0.263,0.004C0.222,0.001 0.183,-0 0.145,-0C0.108,-0 0.069,0.001 0.028,0.004L0.023,-0L0.023,-0.021L0.028,-0.025C0.059,-0.027 0.077,-0.028 0.081,-0.029C0.085,-0.03 0.089,-0.032 0.092,-0.035C0.095,-0.038 0.097,-0.043 0.098,-0.05C0.1,-0.056 0.101,-0.077 0.102,-0.113C0.104,-0.148 0.104,-0.175 0.104,-0.193L0.104,-0.29C0.104,-0.303 0.104,-0.32 0.103,-0.343C0.101,-0.365 0.1,-0.379 0.099,-0.384C0.099,-0.389 0.096,-0.393 0.092,-0.396C0.088,-0.398 0.079,-0.399 0.066,-0.399L0.025,-0.4L0.021,-0.404L0.021,-0.425L0.025,-0.429C0.087,-0.436 0.139,-0.448 0.182,-0.465Z" style="fill-rule:nonzero;"/>
        </g>
        <g transform="matrix(37.5,0,0,37.5,514.882,63.8538)">
            <path d="M0.167,-0.465L0.176,-0.459C0.174,-0.437 0.173,-0.409 0.172,-0.373C0.198,-0.395 0.223,-0.416 0.247,-0.438C0.253,-0.445 0.26,-0.449 0.266,-0.452C0.272,-0.455 0.282,-0.458 0.296,-0.461C0.31,-0.465 0.324,-0.466 0.339,-0.466C0.364,-0.466 0.388,-0.461 0.411,-0.451C0.434,-0.441 0.452,-0.429 0.464,-0.415C0.476,-0.401 0.484,-0.385 0.488,-0.366C0.493,-0.347 0.495,-0.324 0.495,-0.296L0.495,-0.21C0.495,-0.205 0.496,-0.164 0.498,-0.089C0.498,-0.058 0.502,-0.04 0.508,-0.034C0.514,-0.028 0.534,-0.025 0.568,-0.025L0.572,-0.021L0.572,-0L0.568,0.004C0.527,0.001 0.499,-0 0.484,-0C0.476,-0 0.452,0.001 0.413,0.004L0.407,-0.001C0.411,-0.044 0.414,-0.099 0.414,-0.167L0.414,-0.231C0.414,-0.269 0.413,-0.297 0.411,-0.314C0.409,-0.331 0.404,-0.346 0.395,-0.36C0.385,-0.374 0.373,-0.385 0.358,-0.392C0.343,-0.4 0.324,-0.404 0.303,-0.404C0.286,-0.404 0.272,-0.402 0.26,-0.399C0.248,-0.395 0.234,-0.388 0.219,-0.378C0.204,-0.367 0.193,-0.357 0.186,-0.348C0.179,-0.339 0.175,-0.33 0.173,-0.322C0.172,-0.314 0.171,-0.297 0.171,-0.271L0.171,-0.186C0.171,-0.179 0.172,-0.156 0.173,-0.117C0.174,-0.078 0.176,-0.055 0.177,-0.049C0.178,-0.042 0.181,-0.038 0.184,-0.035C0.187,-0.032 0.19,-0.03 0.194,-0.029C0.199,-0.028 0.216,-0.027 0.247,-0.025L0.251,-0.021L0.251,-0L0.248,0.004C0.207,0.001 0.168,-0 0.13,-0C0.092,-0 0.053,0.001 0.013,0.004L0.008,-0L0.008,-0.021L0.013,-0.025C0.044,-0.027 0.062,-0.028 0.066,-0.029C0.07,-0.03 0.074,-0.032 0.077,-0.035C0.08,-0.038 0.082,-0.043 0.083,-0.05C0.084,-0.056 0.086,-0.077 0.087,-0.113C0.089,-0.148 0.089,-0.175 0.089,-0.193L0.089,-0.29C0.089,-0.303 0.089,-0.32 0.087,-0.343C0.086,-0.365 0.085,-0.379 0.084,-0.384C0.083,-0.389 0.081,-0.393 0.077,-0.396C0.072,-0.398 0.064,-0.399 0.051,-0.399L0.01,-0.4L0.006,-0.404L0.006,-0.425L0.01,-0.429C0.072,-0.436 0.124,-0.448 0.167,-0.465Z" style="fill-rule:nonzero;"/>
        </g>
    </g>
    <g transform="matrix(1,0,0,1,473.295,-25.6297)">
        <g transform="matrix(37.5,0,0,37.5,281.675,63.8538)">
            <path d="M0.213,-0.329L0.213,-0.23L0.213,-0.135C0.214,-0.099 0.215,-0.076 0.216,-0.064C0.218,-0.053 0.22,-0.045 0.223,-0.042C0.226,-0.038 0.232,-0.035 0.241,-0.033C0.25,-0.031 0.272,-0.029 0.306,-0.027L0.31,-0.024L0.31,-0L0.306,0.004C0.223,0.001 0.177,-0 0.166,-0C0.156,-0 0.109,0.001 0.026,0.004L0.022,-0L0.022,-0.024L0.026,-0.027C0.057,-0.029 0.077,-0.03 0.087,-0.032C0.097,-0.034 0.104,-0.037 0.107,-0.04C0.111,-0.043 0.113,-0.05 0.115,-0.06C0.118,-0.069 0.119,-0.091 0.119,-0.126L0.12,-0.23L0.12,-0.456L0.119,-0.551C0.118,-0.588 0.117,-0.612 0.116,-0.623C0.115,-0.634 0.112,-0.641 0.109,-0.645C0.106,-0.648 0.1,-0.651 0.091,-0.653C0.083,-0.656 0.061,-0.657 0.026,-0.659L0.022,-0.662L0.022,-0.687L0.026,-0.69C0.164,-0.688 0.245,-0.687 0.268,-0.687C0.346,-0.687 0.425,-0.688 0.506,-0.69L0.51,-0.687C0.505,-0.67 0.502,-0.652 0.5,-0.631C0.498,-0.61 0.497,-0.581 0.495,-0.543L0.491,-0.54L0.468,-0.54L0.464,-0.543C0.464,-0.546 0.462,-0.558 0.46,-0.581C0.458,-0.599 0.456,-0.615 0.452,-0.63C0.418,-0.642 0.372,-0.647 0.312,-0.647C0.285,-0.647 0.254,-0.646 0.218,-0.642C0.215,-0.616 0.213,-0.554 0.213,-0.456L0.213,-0.372C0.254,-0.371 0.282,-0.371 0.297,-0.371C0.325,-0.371 0.349,-0.372 0.369,-0.374C0.389,-0.376 0.4,-0.378 0.404,-0.38C0.408,-0.382 0.411,-0.385 0.413,-0.391C0.415,-0.396 0.417,-0.408 0.419,-0.426L0.422,-0.453L0.426,-0.457L0.451,-0.457L0.455,-0.452L0.451,-0.345C0.451,-0.333 0.452,-0.315 0.453,-0.292C0.454,-0.265 0.455,-0.244 0.455,-0.229L0.45,-0.226L0.426,-0.226L0.422,-0.229L0.42,-0.271C0.419,-0.287 0.418,-0.299 0.416,-0.307C0.413,-0.314 0.41,-0.319 0.404,-0.321C0.399,-0.324 0.388,-0.326 0.37,-0.328C0.352,-0.33 0.324,-0.331 0.287,-0.331C0.254,-0.331 0.229,-0.33 0.213,-0.329Z" style="fill-rule:nonzero;"/>
        </g>
        <g transform="matrix(37.5,0,0,37.5,302.531,63.8538)">
            <path d="M0.033,-0.224C0.033,-0.262 0.041,-0.3 0.057,-0.336C0.073,-0.372 0.101,-0.403 0.14,-0.429C0.18,-0.455 0.227,-0.468 0.281,-0.468C0.35,-0.468 0.405,-0.447 0.448,-0.404C0.491,-0.36 0.513,-0.305 0.513,-0.237C0.513,-0.163 0.488,-0.101 0.439,-0.053C0.389,-0.005 0.33,0.019 0.26,0.019C0.215,0.019 0.174,0.007 0.138,-0.018C0.102,-0.042 0.076,-0.072 0.059,-0.108C0.042,-0.143 0.033,-0.182 0.033,-0.224ZM0.125,-0.257C0.125,-0.212 0.131,-0.171 0.143,-0.135C0.155,-0.099 0.173,-0.07 0.199,-0.048C0.224,-0.027 0.253,-0.016 0.286,-0.016C0.324,-0.016 0.356,-0.031 0.381,-0.061C0.406,-0.092 0.418,-0.138 0.418,-0.199C0.418,-0.268 0.405,-0.325 0.378,-0.369C0.351,-0.413 0.311,-0.436 0.26,-0.436C0.218,-0.436 0.185,-0.42 0.161,-0.39C0.137,-0.359 0.125,-0.315 0.125,-0.257Z" style="fill-rule:nonzero;"/>
        </g>
        <g transform="matrix(37.5,0,0,37.5,323.002,63.8538)">
            <path d="M0.169,-0.465L0.178,-0.459C0.175,-0.416 0.173,-0.362 0.173,-0.296L0.173,-0.183C0.173,-0.141 0.176,-0.112 0.182,-0.096C0.189,-0.079 0.2,-0.067 0.215,-0.058C0.231,-0.05 0.25,-0.045 0.271,-0.045C0.295,-0.045 0.316,-0.05 0.336,-0.059C0.355,-0.069 0.372,-0.082 0.385,-0.099C0.398,-0.116 0.406,-0.127 0.408,-0.133C0.41,-0.139 0.411,-0.155 0.412,-0.182L0.413,-0.237L0.413,-0.29C0.413,-0.303 0.412,-0.32 0.411,-0.343C0.41,-0.365 0.409,-0.379 0.408,-0.384C0.407,-0.389 0.405,-0.393 0.4,-0.396C0.396,-0.398 0.388,-0.399 0.375,-0.399L0.334,-0.4L0.33,-0.404L0.33,-0.425L0.333,-0.429C0.396,-0.436 0.448,-0.448 0.491,-0.465L0.5,-0.459C0.496,-0.416 0.495,-0.362 0.495,-0.296L0.495,-0.21C0.495,-0.206 0.495,-0.166 0.497,-0.091C0.498,-0.063 0.499,-0.046 0.502,-0.04C0.505,-0.034 0.509,-0.03 0.514,-0.028C0.519,-0.025 0.533,-0.024 0.557,-0.024L0.571,-0.024L0.575,-0.02L0.575,-0L0.571,0.004C0.525,0.001 0.495,-0 0.479,-0C0.459,-0 0.436,0.001 0.41,0.003L0.406,-0C0.408,-0.034 0.409,-0.062 0.41,-0.085C0.39,-0.069 0.366,-0.048 0.34,-0.021C0.33,-0.011 0.315,-0.002 0.296,0.004C0.278,0.011 0.256,0.015 0.232,0.015C0.195,0.015 0.167,0.009 0.147,-0.003C0.126,-0.014 0.112,-0.03 0.104,-0.051C0.095,-0.071 0.091,-0.106 0.091,-0.156L0.091,-0.194L0.091,-0.29C0.091,-0.303 0.091,-0.32 0.089,-0.343C0.088,-0.365 0.087,-0.379 0.086,-0.384C0.085,-0.389 0.083,-0.393 0.079,-0.396C0.074,-0.398 0.066,-0.399 0.053,-0.399L0.012,-0.4L0.008,-0.404L0.008,-0.425L0.012,-0.429C0.074,-0.436 0.126,-0.448 0.169,-0.465Z" style="fill-rule:nonzero;"/>
        </g>
        <g transform="matrix(37.5,0,0,37.5,345.616,63.8538)">
            <path d="M0.188,-0.465L0.197,-0.459C0.195,-0.44 0.193,-0.407 0.192,-0.358L0.229,-0.405C0.241,-0.42 0.252,-0.432 0.261,-0.44C0.27,-0.448 0.281,-0.455 0.293,-0.459C0.306,-0.464 0.319,-0.466 0.332,-0.466C0.346,-0.466 0.359,-0.463 0.372,-0.458L0.375,-0.451C0.37,-0.407 0.367,-0.369 0.367,-0.336L0.345,-0.336C0.332,-0.366 0.311,-0.381 0.282,-0.381C0.262,-0.381 0.244,-0.375 0.229,-0.362C0.214,-0.349 0.204,-0.333 0.199,-0.314C0.194,-0.294 0.191,-0.27 0.191,-0.24L0.191,-0.186C0.191,-0.176 0.192,-0.152 0.193,-0.114C0.195,-0.076 0.196,-0.054 0.198,-0.048C0.199,-0.042 0.201,-0.038 0.204,-0.035C0.207,-0.033 0.212,-0.031 0.217,-0.03C0.222,-0.029 0.245,-0.027 0.286,-0.025L0.291,-0.021L0.291,-0L0.286,0.004C0.243,0.001 0.198,-0 0.15,-0C0.113,-0 0.074,0.001 0.033,0.004L0.029,-0L0.029,-0.021L0.033,-0.025C0.065,-0.027 0.083,-0.028 0.087,-0.029C0.091,-0.03 0.094,-0.032 0.097,-0.035C0.101,-0.038 0.103,-0.043 0.104,-0.05C0.105,-0.056 0.106,-0.077 0.108,-0.113C0.109,-0.148 0.11,-0.175 0.11,-0.193L0.11,-0.29C0.11,-0.303 0.109,-0.32 0.108,-0.343C0.107,-0.365 0.106,-0.379 0.105,-0.384C0.104,-0.389 0.101,-0.393 0.097,-0.396C0.093,-0.398 0.084,-0.399 0.072,-0.399L0.031,-0.4L0.026,-0.404L0.026,-0.425L0.03,-0.429C0.092,-0.436 0.145,-0.448 0.188,-0.465Z" style="fill-rule:nonzero;"/>
        </g>
        <g transform="matrix(37.5,0,0,37.5,360.429,63.8538)">
            <path d="M0.141,-0.684C0.156,-0.684 0.169,-0.678 0.18,-0.667C0.19,-0.657 0.196,-0.644 0.196,-0.628C0.196,-0.613 0.19,-0.601 0.18,-0.59C0.169,-0.579 0.156,-0.574 0.141,-0.574C0.126,-0.574 0.113,-0.579 0.102,-0.59C0.091,-0.6 0.085,-0.613 0.085,-0.628C0.085,-0.644 0.091,-0.657 0.102,-0.667C0.113,-0.678 0.126,-0.684 0.141,-0.684ZM0.182,-0.465L0.191,-0.459C0.188,-0.416 0.186,-0.362 0.186,-0.296L0.186,-0.186C0.186,-0.179 0.187,-0.156 0.188,-0.117C0.189,-0.078 0.191,-0.055 0.192,-0.049C0.194,-0.042 0.196,-0.038 0.199,-0.035C0.202,-0.032 0.205,-0.03 0.209,-0.029C0.214,-0.028 0.231,-0.027 0.262,-0.025L0.267,-0.021L0.267,-0L0.263,0.004C0.222,0.001 0.183,-0 0.145,-0C0.108,-0 0.069,0.001 0.028,0.004L0.023,-0L0.023,-0.021L0.028,-0.025C0.059,-0.027 0.077,-0.028 0.081,-0.029C0.085,-0.03 0.089,-0.032 0.092,-0.035C0.095,-0.038 0.097,-0.043 0.098,-0.05C0.1,-0.056 0.101,-0.077 0.102,-0.113C0.104,-0.148 0.104,-0.175 0.104,-0.193L0.104,-0.29C0.104,-0.303 0.104,-0.32 0.103,-0.343C0.101,-0.365 0.1,-0.379 0.099,-0.384C0.099,-0.389 0.096,-0.393 0.092,-0.396C0.088,-0.398 0.079,-0.399 0.066,-0.399L0.025,-0.4L0.021,-0.404L0.021,-0.425L0.025,-0.429C0.087,-0.436 0.139,-0.448 0.182,-0.465Z" style="fill-rule:nonzero;"/>
        </g>
        <g transform="matrix(37.5,0,0,37.5,371.342,63.8538)">
            <path d="M0.432,-0.072L0.416,-0.037C0.382,-0.015 0.352,-0.001 0.325,0.006C0.299,0.012 0.275,0.016 0.254,0.016C0.215,0.016 0.178,0.008 0.143,-0.007C0.108,-0.023 0.08,-0.049 0.058,-0.085C0.036,-0.121 0.025,-0.165 0.025,-0.217C0.025,-0.251 0.029,-0.282 0.038,-0.309C0.046,-0.337 0.055,-0.357 0.064,-0.371C0.073,-0.384 0.089,-0.399 0.111,-0.415C0.133,-0.431 0.157,-0.444 0.182,-0.454C0.206,-0.464 0.233,-0.469 0.262,-0.469C0.301,-0.469 0.335,-0.46 0.365,-0.441C0.395,-0.423 0.416,-0.399 0.428,-0.371C0.44,-0.342 0.446,-0.312 0.446,-0.279C0.446,-0.269 0.445,-0.259 0.444,-0.25L0.439,-0.245C0.417,-0.24 0.387,-0.236 0.35,-0.235C0.312,-0.233 0.287,-0.232 0.275,-0.232L0.119,-0.232C0.119,-0.165 0.136,-0.115 0.169,-0.083C0.203,-0.052 0.243,-0.036 0.292,-0.036C0.314,-0.036 0.336,-0.04 0.357,-0.047C0.378,-0.055 0.4,-0.066 0.424,-0.08L0.432,-0.072ZM0.119,-0.271C0.125,-0.271 0.147,-0.269 0.186,-0.268C0.226,-0.267 0.255,-0.266 0.273,-0.266C0.319,-0.266 0.346,-0.267 0.356,-0.269C0.356,-0.276 0.356,-0.282 0.356,-0.287C0.356,-0.337 0.346,-0.375 0.326,-0.399C0.305,-0.424 0.277,-0.436 0.242,-0.436C0.203,-0.436 0.173,-0.422 0.151,-0.395C0.129,-0.367 0.119,-0.326 0.119,-0.271Z" style="fill-rule:nonzero;"/>
        </g>
        <g transform="matrix(37.5,0,0,37.5,389.305,63.8538)">
            <path d="M0.188,-0.465L0.197,-0.459C0.195,-0.44 0.193,-0.407 0.192,-0.358L0.229,-0.405C0.241,-0.42 0.252,-0.432 0.261,-0.44C0.27,-0.448 0.281,-0.455 0.293,-0.459C0.306,-0.464 0.319,-0.466 0.332,-0.466C0.346,-0.466 0.359,-0.463 0.372,-0.458L0.375,-0.451C0.37,-0.407 0.367,-0.369 0.367,-0.336L0.345,-0.336C0.332,-0.366 0.311,-0.381 0.282,-0.381C0.262,-0.381 0.244,-0.375 0.229,-0.362C0.214,-0.349 0.204,-0.333 0.199,-0.314C0.194,-0.294 0.191,-0.27 0.191,-0.24L0.191,-0.186C0.191,-0.176 0.192,-0.152 0.193,-0.114C0.195,-0.076 0.196,-0.054 0.198,-0.048C0.199,-0.042 0.201,-0.038 0.204,-0.035C0.207,-0.033 0.212,-0.031 0.217,-0.03C0.222,-0.029 0.245,-0.027 0.286,-0.025L0.291,-0.021L0.291,-0L0.286,0.004C0.243,0.001 0.198,-0 0.15,-0C0.113,-0 0.074,0.001 0.033,0.004L0.029,-0L0.029,-0.021L0.033,-0.025C0.065,-0.027 0.083,-0.028 0.087,-0.029C0.091,-0.03 0.094,-0.032 0.097,-0.035C0.101,-0.038 0.103,-0.043 0.104,-0.05C0.105,-0.056 0.106,-0.077 0.108,-0.113C0.109,-0.148 0.11,-0.175 0.11,-0.193L0.11,-0.29C0.11,-0.303 0.109,-0.32 0.108,-0.343C0.107,-0.365 0.106,-0.379 0.105,-0.384C0.104,-0.389 0.101,-0.393 0.097,-0.396C0.093,-0.398 0.084,-0.399 0.072,-0.399L0.031,-0.4L0.026,-0.404L0.026,-0.425L0.03,-0.429C0.092,-0.436 0.145,-0.448 0.188,-0.465Z" style="fill-rule:nonzero;"/>
        </g>
        <g transform="matrix(37.5,0,0,37.5,413.493,63.8538)">
            <path d="M0.329,-0.662L0.329,-0.683L0.333,-0.687C0.395,-0.694 0.447,-0.706 0.49,-0.723L0.499,-0.717C0.495,-0.68 0.494,-0.605 0.494,-0.492L0.494,-0.172C0.494,-0.139 0.494,-0.111 0.495,-0.086C0.497,-0.062 0.499,-0.047 0.501,-0.042C0.504,-0.038 0.509,-0.034 0.516,-0.031C0.523,-0.028 0.542,-0.026 0.573,-0.023L0.577,-0.019L0.577,-0L0.573,0.004C0.538,0.002 0.51,0 0.491,0C0.473,0 0.448,0.002 0.416,0.004L0.41,-0.001C0.411,-0.033 0.412,-0.056 0.412,-0.068C0.412,-0.07 0.412,-0.076 0.412,-0.087C0.394,-0.074 0.376,-0.059 0.358,-0.043C0.332,-0.02 0.315,-0.005 0.307,0C0.292,0.008 0.27,0.012 0.243,0.012C0.198,0.012 0.16,0.001 0.128,-0.021C0.097,-0.044 0.074,-0.072 0.061,-0.106C0.048,-0.141 0.041,-0.176 0.041,-0.212C0.041,-0.249 0.048,-0.284 0.062,-0.318C0.076,-0.352 0.095,-0.377 0.121,-0.393C0.146,-0.408 0.174,-0.424 0.204,-0.441C0.234,-0.458 0.264,-0.466 0.294,-0.466C0.335,-0.466 0.375,-0.456 0.412,-0.436L0.41,-0.544C0.41,-0.582 0.409,-0.608 0.407,-0.623C0.406,-0.638 0.404,-0.647 0.402,-0.65C0.4,-0.652 0.397,-0.654 0.392,-0.656C0.388,-0.657 0.368,-0.658 0.333,-0.658L0.329,-0.662ZM0.412,-0.352C0.392,-0.375 0.37,-0.392 0.345,-0.404C0.32,-0.416 0.296,-0.422 0.271,-0.422C0.244,-0.422 0.218,-0.415 0.195,-0.4C0.171,-0.385 0.154,-0.363 0.144,-0.334C0.133,-0.305 0.128,-0.273 0.128,-0.239C0.128,-0.182 0.142,-0.137 0.171,-0.102C0.2,-0.068 0.236,-0.05 0.28,-0.05C0.304,-0.05 0.325,-0.056 0.343,-0.067C0.361,-0.078 0.377,-0.092 0.388,-0.111C0.4,-0.129 0.407,-0.148 0.409,-0.167C0.411,-0.185 0.412,-0.219 0.412,-0.269L0.412,-0.352Z" style="fill-rule:nonzero;"/>
        </g>
        <g transform="matrix(37.5,0,0,37.5,436.399,63.8538)">
            <path d="M0.033,-0.224C0.033,-0.262 0.041,-0.3 0.057,-0.336C0.073,-0.372 0.101,-0.403 0.14,-0.429C0.18,-0.455 0.227,-0.468 0.281,-0.468C0.35,-0.468 0.405,-0.447 0.448,-0.404C0.491,-0.36 0.513,-0.305 0.513,-0.237C0.513,-0.163 0.488,-0.101 0.439,-0.053C0.389,-0.005 0.33,0.019 0.26,0.019C0.215,0.019 0.174,0.007 0.138,-0.018C0.102,-0.042 0.076,-0.072 0.059,-0.108C0.042,-0.143 0.033,-0.182 0.033,-0.224ZM0.125,-0.257C0.125,-0.212 0.131,-0.171 0.143,-0.135C0.155,-0.099 0.173,-0.07 0.199,-0.048C0.224,-0.027 0.253,-0.016 0.286,-0.016C0.324,-0.016 0.356,-0.031 0.381,-0.061C0.406,-0.092 0.418,-0.138 0.418,-0.199C0.418,-0.268 0.405,-0.325 0.378,-0.369C0.351,-0.413 0.311,-0.436 0.26,-0.436C0.218,-0.436 0.185,-0.42 0.161,-0.39C0.137,-0.359 0.125,-0.315 0.125,-0.257Z" style="fill-rule:nonzero;"/>
        </g>
        <g transform="matrix(37.5,0,0,37.5,456.871,63.8538)">
            <path d="M0.18,-0.465L0.189,-0.459C0.187,-0.438 0.186,-0.412 0.185,-0.382L0.231,-0.424C0.244,-0.436 0.253,-0.444 0.257,-0.448C0.262,-0.451 0.271,-0.455 0.287,-0.459C0.303,-0.464 0.319,-0.466 0.336,-0.466C0.369,-0.466 0.397,-0.458 0.422,-0.442C0.446,-0.426 0.464,-0.404 0.476,-0.375C0.52,-0.417 0.546,-0.44 0.553,-0.445C0.56,-0.449 0.572,-0.454 0.588,-0.459C0.604,-0.463 0.62,-0.466 0.636,-0.466C0.661,-0.466 0.685,-0.46 0.707,-0.449C0.728,-0.438 0.745,-0.424 0.758,-0.406C0.771,-0.388 0.778,-0.368 0.78,-0.348C0.782,-0.327 0.783,-0.298 0.783,-0.262L0.783,-0.21C0.783,-0.205 0.784,-0.164 0.786,-0.089C0.787,-0.058 0.79,-0.04 0.796,-0.034C0.803,-0.028 0.823,-0.025 0.856,-0.025L0.86,-0.021L0.86,-0L0.856,0.004C0.815,0.001 0.787,-0 0.772,-0C0.764,-0 0.741,0.001 0.702,0.004L0.695,-0.001C0.7,-0.044 0.702,-0.099 0.702,-0.167L0.702,-0.226C0.702,-0.277 0.699,-0.314 0.694,-0.334C0.689,-0.355 0.678,-0.372 0.66,-0.385C0.642,-0.398 0.621,-0.405 0.596,-0.405C0.579,-0.405 0.562,-0.401 0.547,-0.394C0.532,-0.387 0.518,-0.377 0.506,-0.363C0.493,-0.349 0.487,-0.336 0.485,-0.324C0.484,-0.313 0.483,-0.291 0.483,-0.259L0.483,-0.198C0.483,-0.183 0.484,-0.157 0.485,-0.117C0.487,-0.078 0.488,-0.055 0.49,-0.048C0.491,-0.042 0.493,-0.037 0.496,-0.034C0.499,-0.032 0.503,-0.03 0.507,-0.029C0.511,-0.028 0.529,-0.027 0.56,-0.025L0.564,-0.021L0.564,-0L0.56,0.004C0.519,0.001 0.48,-0 0.442,-0C0.408,-0 0.368,0.001 0.325,0.004L0.321,-0L0.321,-0.021L0.325,-0.025C0.357,-0.027 0.375,-0.028 0.379,-0.029C0.383,-0.03 0.386,-0.032 0.389,-0.035C0.392,-0.038 0.395,-0.043 0.396,-0.05C0.397,-0.056 0.398,-0.077 0.4,-0.113C0.401,-0.148 0.402,-0.175 0.402,-0.193L0.402,-0.249C0.402,-0.286 0.399,-0.314 0.394,-0.334C0.389,-0.354 0.378,-0.371 0.362,-0.384C0.345,-0.398 0.324,-0.405 0.299,-0.405C0.28,-0.405 0.262,-0.401 0.246,-0.393C0.23,-0.386 0.217,-0.376 0.206,-0.365C0.196,-0.354 0.19,-0.343 0.187,-0.333C0.185,-0.324 0.184,-0.303 0.184,-0.27L0.184,-0.198C0.184,-0.183 0.184,-0.157 0.186,-0.117C0.187,-0.078 0.188,-0.055 0.19,-0.048C0.191,-0.042 0.193,-0.037 0.197,-0.034C0.2,-0.032 0.203,-0.03 0.207,-0.029C0.211,-0.028 0.229,-0.027 0.26,-0.025L0.264,-0.021L0.264,-0L0.26,0.004C0.22,0.001 0.18,-0 0.143,-0C0.105,-0 0.066,0.001 0.025,0.004L0.021,-0L0.021,-0.021L0.025,-0.025C0.057,-0.027 0.075,-0.028 0.079,-0.029C0.083,-0.03 0.087,-0.032 0.09,-0.035C0.093,-0.038 0.095,-0.043 0.096,-0.05C0.097,-0.056 0.098,-0.077 0.1,-0.113C0.101,-0.148 0.102,-0.175 0.102,-0.193L0.102,-0.29C0.102,-0.303 0.101,-0.32 0.1,-0.343C0.099,-0.365 0.098,-0.379 0.097,-0.384C0.096,-0.389 0.094,-0.393 0.089,-0.396C0.085,-0.398 0.077,-0.399 0.064,-0.399L0.023,-0.4L0.019,-0.404L0.019,-0.425L0.022,-0.429C0.085,-0.436 0.137,-0.448 0.18,-0.465Z" style="fill-rule:nonzero;"/>
        </g>
        <g transform="matrix(37.5,0,0,37.5,489.976,63.8538)">
            <path d="M0.104,-0.331L0.084,-0.336L0.081,-0.341L0.081,-0.401C0.139,-0.444 0.195,-0.466 0.25,-0.466C0.287,-0.466 0.318,-0.459 0.343,-0.445C0.368,-0.431 0.385,-0.413 0.396,-0.392C0.408,-0.371 0.413,-0.347 0.413,-0.319L0.411,-0.221L0.411,-0.075C0.411,-0.055 0.412,-0.043 0.415,-0.039C0.418,-0.035 0.421,-0.032 0.424,-0.031C0.428,-0.029 0.435,-0.028 0.444,-0.027L0.472,-0.024L0.476,-0.02L0.476,-0L0.472,0.003C0.448,0.001 0.426,0 0.406,0C0.386,0 0.363,0.001 0.335,0.003L0.328,-0.003L0.33,-0.082L0.224,0.001C0.206,0.008 0.186,0.012 0.165,0.012C0.139,0.012 0.117,0.007 0.098,-0.002C0.079,-0.011 0.065,-0.025 0.055,-0.042C0.045,-0.058 0.04,-0.079 0.04,-0.103C0.04,-0.151 0.055,-0.188 0.085,-0.215C0.115,-0.242 0.197,-0.265 0.33,-0.284C0.33,-0.332 0.319,-0.366 0.298,-0.385C0.276,-0.405 0.248,-0.415 0.211,-0.415C0.193,-0.415 0.175,-0.412 0.16,-0.407C0.144,-0.401 0.136,-0.397 0.133,-0.393C0.131,-0.39 0.122,-0.37 0.107,-0.333L0.104,-0.331ZM0.33,-0.254C0.239,-0.239 0.182,-0.222 0.16,-0.205C0.137,-0.187 0.126,-0.16 0.126,-0.123C0.126,-0.072 0.151,-0.047 0.202,-0.047C0.245,-0.047 0.288,-0.072 0.33,-0.122L0.33,-0.254Z" style="fill-rule:nonzero;"/>
        </g>
        <g transform="matrix(37.5,0,0,37.5,508.726,63.8538)">
            <path d="M0.141,-0.684C0.156,-0.684 0.169,-0.678 0.18,-0.667C0.19,-0.657 0.196,-0.644 0.196,-0.628C0.196,-0.613 0.19,-0.601 0.18,-0.59C0.169,-0.579 0.156,-0.574 0.141,-0.574C0.126,-0.574 0.113,-0.579 0.102,-0.59C0.091,-0.6 0.085,-0.613 0.085,-0.628C0.085,-0.644 0.091,-0.657 0.102,-0.667C0.113,-0.678 0.126,-0.684 0.141,-0.684ZM0.182,-0.465L0.191,-0.459C0.188,-0.416 0.186,-0.362 0.186,-0.296L0.186,-0.186C0.186,-0.179 0.187,-0.156 0.188,-0.117C0.189,-0.078 0.191,-0.055 0.192,-0.049C0.194,-0.042 0.196,-0.038 0.199,-0.035C0.202,-0.032 0.205,-0.03 0.209,-0.029C0.214,-0.028 0.231,-0.027 0.262,-0.025L0.267,-0.021L0.267,-0L0.263,0.004C0.222,0.001 0.183,-0 0.145,-0C0.108,-0 0.069,0.001 0.028,0.004L0.023,-0L0.023,-0.021L0.028,-0.025C0.059,-0.027 0.077,-0.028 0.081,-0.029C0.085,-0.03 0.089,-0.032 0.092,-0.035C0.095,-0.038 0.097,-0.043 0.098,-0.05C0.1,-0.056 0.101,-0.077 0.102,-0.113C0.104,-0.148 0.104,-0.175 0.104,-0.193L0.104,-0.29C0.104,-0.303 0.104,-0.32 0.103,-0.343C0.101,-0.365 0.1,-0.379 0.099,-0.384C0.099,-0.389 0.096,-0.393 0.092,-0.396C0.088,-0.398 0.079,-0.399 0.066,-0.399L0.025,-0.4L0.021,-0.404L0.021,-0.425L0.025,-0.429C0.087,-0.436 0.139,-0.448 0.182,-0.465Z" style="fill-rule:nonzero;"/>
        </g>
        <g transform="matrix(37.5,0,0,37.5,519.639,63.8538)">
            <path d="M0.167,-0.465L0.176,-0.459C0.174,-0.437 0.173,-0.409 0.172,-0.373C0.198,-0.395 0.223,-0.416 0.247,-0.438C0.253,-0.445 0.26,-0.449 0.266,-0.452C0.272,-0.455 0.282,-0.458 0.296,-0.461C0.31,-0.465 0.324,-0.466 0.339,-0.466C0.364,-0.466 0.388,-0.461 0.411,-0.451C0.434,-0.441 0.452,-0.429 0.464,-0.415C0.476,-0.401 0.484,-0.385 0.488,-0.366C0.493,-0.347 0.495,-0.324 0.495,-0.296L0.495,-0.21C0.495,-0.205 0.496,-0.164 0.498,-0.089C0.498,-0.058 0.502,-0.04 0.508,-0.034C0.514,-0.028 0.534,-0.025 0.568,-0.025L0.572,-0.021L0.572,-0L0.568,0.004C0.527,0.001 0.499,-0 0.484,-0C0.476,-0 0.452,0.001 0.413,0.004L0.407,-0.001C0.411,-0.044 0.414,-0.099 0.414,-0.167L0.414,-0.231C0.414,-0.269 0.413,-0.297 0.411,-0.314C0.409,-0.331 0.404,-0.346 0.395,-0.36C0.385,-0.374 0.373,-0.385 0.358,-0.392C0.343,-0.4 0.324,-0.404 0.303,-0.404C0.286,-0.404 0.272,-0.402 0.26,-0.399C0.248,-0.395 0.234,-0.388 0.219,-0.378C0.204,-0.367 0.193,-0.357 0.186,-0.348C0.179,-0.339 0.175,-0.33 0.173,-0.322C0.172,-0.314 0.171,-0.297 0.171,-0.271L0.171,-0.186C0.171,-0.179 0.172,-0.156 0.173,-0.117C0.174,-0.078 0.176,-0.055 0.177,-0.049C0.178,-0.042 0.181,-0.038 0.184,-0.035C0.187,-0.032 0.19,-0.03 0.194,-0.029C0.199,-0.028 0.216,-0.027 0.247,-0.025L0.251,-0.021L0.251,-0L0.248,0.004C0.207,0.001 0.168,-0 0.13,-0C0.092,-0 0.053,0.001 0.013,0.004L0.008,-0L0.008,-0.021L0.013,-0.025C0.044,-0.027 0.062,-0.028 0.066,-0.029C0.07,-0.03 0.074,-0.032 0.077,-0.035C0.08,-0.038 0.082,-0.043 0.083,-0.05C0.084,-0.056 0.086,-0.077 0.087,-0.113C0.089,-0.148 0.089,-0.175 0.089,-0.193L0.089,-0.29C0.089,-0.303 0.089,-0.32 0.087,-0.343C0.086,-0.365 0.085,-0.379 0.084,-0.384C0.083,-0.389 0.081,-0.393 0.077,-0.396C0.072,-0.398 0.064,-0.399 0.051,-0.399L0.01,-0.4L0.006,-0.404L0.006,-0.425L0.01,-0.429C0.072,-0.436 0.124,-0.448 0.167,-0.465Z" style="fill-rule:nonzero;"/>
        </g>
    </g>
</svg>
