<?xml version="1.0" encoding="UTF-8" standalone="no"?>
<!DOCTYPE svg PUBLIC "-//W3C//DTD SVG 1.1//EN" "http://www.w3.org/Graphics/SVG/1.1/DTD/svg11.dtd">
<svg width="100%" height="100%" viewBox="0 0 1182 839" version="1.1" xmlns="http://www.w3.org/2000/svg" xmlns:xlink="http://www.w3.org/1999/xlink" xml:space="preserve" xmlns:serif="http://www.serif.com/" style="fill-rule:evenodd;clip-rule:evenodd;stroke-linecap:round;stroke-linejoin:round;stroke-miterlimit:1.5;">
    <g id="Schritt-1" serif:id="Schritt 1">
        <g id="Ebene1">
            <g>
                <g transform="matrix(1.56215,0,0,1.56497,-88.0822,-19.273)">
                    <g transform="matrix(0.640145,-0,-0,0.638989,56.3854,12.3152)">
                        <path d="M521.394,241.886L531.496,249.462L521.394,257.039L521.394,241.886Z"/>
                        <path d="M59.055,249.462L523.414,249.462" style="fill:none;stroke:black;stroke-width:3.37px;"/>
                    </g>
                </g>
                <g transform="matrix(1,0,0,1,5.98027,-17.9408)">
                    <g transform="matrix(1,-0,-0,1,-5.98027,17.9408)">
                        <path d="M287.379,97.243L294.955,87.141L302.532,97.243L287.379,97.243Z"/>
                        <path d="M294.955,267.403L294.955,95.223" style="fill:none;stroke:black;stroke-width:3.37px;"/>
                    </g>
                </g>
            </g>
            <g transform="matrix(1,0,0,1,0,257.365)">
                <g transform="matrix(1.56215,0,0,1.56497,-88.0822,-19.273)">
                    <g transform="matrix(0.640145,-0,-0,0.638989,56.3854,-152.138)">
                        <path d="M521.394,499.251L531.496,506.827L521.394,514.404L521.394,499.251Z"/>
                        <path d="M59.055,506.827L523.414,506.827" style="fill:none;stroke:black;stroke-width:3.37px;"/>
                    </g>
                </g>
                <g transform="matrix(1,0,0,1,5.98027,-17.9408)">
                    <g transform="matrix(1,-0,-0,1,-5.98027,-239.424)">
                        <path d="M287.379,354.608L294.955,344.506L302.532,354.608L287.379,354.608Z"/>
                        <path d="M294.955,524.768L294.955,352.588" style="fill:none;stroke:black;stroke-width:3.37px;"/>
                    </g>
                </g>
            </g>
            <g transform="matrix(1,0,0,1,0,513.235)">
                <g transform="matrix(1.56215,0,0,1.56497,-88.0822,-19.273)">
                    <g transform="matrix(0.640145,-0,-0,0.638989,56.3854,-315.636)">
                        <path d="M521.394,755.121L531.496,762.697L521.394,770.274L521.394,755.121Z"/>
                        <path d="M59.055,762.697L523.414,762.697" style="fill:none;stroke:black;stroke-width:3.37px;"/>
                    </g>
                </g>
                <g transform="matrix(1,0,0,1,5.98027,-17.9408)">
                    <g transform="matrix(1,-0,-0,1,-5.98027,-495.294)">
                        <path d="M287.379,610.478L294.955,600.376L302.532,610.478L287.379,610.478Z"/>
                        <path d="M294.955,780.638L294.955,608.457" style="fill:none;stroke:black;stroke-width:3.37px;"/>
                    </g>
                </g>
            </g>
            <g>
                <g transform="matrix(1.56215,0,0,1.56497,502.469,-19.273)">
                    <g transform="matrix(0.640145,-0,-0,0.638989,-321.653,12.3152)">
                        <path d="M1111.94,241.886L1122.05,249.462L1111.94,257.039L1111.94,241.886Z"/>
                        <path d="M649.606,249.462L1113.97,249.462" style="fill:none;stroke:black;stroke-width:3.37px;"/>
                    </g>
                </g>
                <g transform="matrix(1,0,0,1,596.852,-17.9408)">
                    <g transform="matrix(1,-0,-0,1,-596.852,17.9408)">
                        <path d="M878.25,97.243L885.827,87.141L893.403,97.243L878.25,97.243Z"/>
                        <path d="M885.827,267.403L885.827,95.223" style="fill:none;stroke:black;stroke-width:3.37px;"/>
                    </g>
                </g>
            </g>
            <g transform="matrix(1,0,0,1,0,257.365)">
                <g transform="matrix(1.56215,0,0,1.56497,502.469,-19.273)">
                    <g transform="matrix(0.640145,-0,-0,0.638989,-321.653,-152.138)">
                        <path d="M1111.94,499.251L1122.05,506.827L1111.94,514.404L1111.94,499.251Z"/>
                        <path d="M649.606,506.827L1113.97,506.827" style="fill:none;stroke:black;stroke-width:3.37px;"/>
                    </g>
                </g>
                <g transform="matrix(1,0,0,1,596.852,-17.9408)">
                    <g transform="matrix(1,-0,-0,1,-596.852,-239.424)">
                        <path d="M878.25,354.608L885.827,344.506L893.403,354.608L878.25,354.608Z"/>
                        <path d="M885.827,524.768L885.827,352.588" style="fill:none;stroke:black;stroke-width:3.37px;"/>
                    </g>
                </g>
            </g>
            <g transform="matrix(1,0,0,1,752.018,262.704)">
                <g transform="matrix(37.5,0,0,37.5,126.725,63.8538)">
                    <path d="M0.055,-0.406C0.043,-0.436 0.035,-0.456 0.028,-0.466L0.033,-0.479C0.04,-0.481 0.057,-0.488 0.084,-0.499C0.112,-0.51 0.137,-0.521 0.16,-0.531L0.033,-0.592C0.032,-0.592 0.031,-0.593 0.029,-0.593L0.027,-0.604C0.034,-0.615 0.045,-0.635 0.062,-0.665L0.073,-0.665L0.174,-0.559L0.203,-0.698L0.211,-0.704C0.232,-0.696 0.254,-0.691 0.274,-0.686L0.277,-0.676C0.269,-0.664 0.258,-0.645 0.244,-0.621C0.23,-0.597 0.216,-0.573 0.204,-0.547C0.231,-0.551 0.253,-0.555 0.272,-0.558C0.314,-0.566 0.337,-0.57 0.341,-0.57L0.35,-0.563C0.351,-0.547 0.355,-0.526 0.362,-0.5L0.353,-0.492C0.309,-0.502 0.26,-0.511 0.204,-0.518C0.219,-0.489 0.231,-0.468 0.238,-0.455C0.256,-0.425 0.266,-0.406 0.269,-0.398L0.267,-0.386C0.259,-0.382 0.246,-0.375 0.23,-0.365C0.22,-0.359 0.212,-0.355 0.208,-0.352L0.195,-0.356L0.174,-0.504L0.068,-0.404L0.055,-0.406Z" style="fill-rule:nonzero;"/>
                </g>
            </g>
            <g transform="matrix(1,0,0,1,750.31,511.312)">
                <g transform="matrix(37.5,0,0,37.5,124.647,63.8538)">
                    <path d="M0.485,-0.355L0.015,-0.355L0.015,-0.41L0.485,-0.41L0.485,-0.355ZM0.485,-0.207L0.015,-0.207L0.015,-0.262L0.485,-0.262L0.485,-0.207Z" style="fill-rule:nonzero;"/>
                </g>
            </g>
            <g transform="matrix(1,0,0,1,159.972,511.312)">
                <g transform="matrix(37.5,0,0,37.5,124.647,63.8538)">
                    <path d="M0.485,-0.355L0.015,-0.355L0.015,-0.41L0.485,-0.41L0.485,-0.355ZM0.485,-0.207L0.015,-0.207L0.015,-0.262L0.485,-0.262L0.485,-0.207Z" style="fill-rule:nonzero;"/>
                </g>
            </g>
            <g transform="matrix(1,0,0,1,-45.5779,396.662)">
                <g transform="matrix(37.5,0,0,37.5,119.96,63.8538)">
                    <path d="M0.125,-0.108C0.141,-0.108 0.154,-0.102 0.166,-0.091C0.177,-0.08 0.183,-0.066 0.183,-0.049C0.183,-0.033 0.177,-0.02 0.166,-0.008C0.155,0.003 0.141,0.009 0.125,0.009C0.109,0.009 0.095,0.003 0.083,-0.008C0.072,-0.019 0.066,-0.033 0.066,-0.049C0.066,-0.066 0.072,-0.079 0.083,-0.091C0.095,-0.102 0.109,-0.108 0.125,-0.108Z" style="fill:rgb(0,174,239);fill-rule:nonzero;"/>
                </g>
                <g transform="matrix(37.5,0,0,37.5,129.335,63.8538)">
                    <path d="M0.125,-0.108C0.141,-0.108 0.154,-0.102 0.166,-0.091C0.177,-0.08 0.183,-0.066 0.183,-0.049C0.183,-0.033 0.177,-0.02 0.166,-0.008C0.155,0.003 0.141,0.009 0.125,0.009C0.109,0.009 0.095,0.003 0.083,-0.008C0.072,-0.019 0.066,-0.033 0.066,-0.049C0.066,-0.066 0.072,-0.079 0.083,-0.091C0.095,-0.102 0.109,-0.108 0.125,-0.108Z" style="fill:rgb(0,174,239);fill-rule:nonzero;"/>
                </g>
                <g transform="matrix(37.5,0,0,37.5,138.71,63.8538)">
                    <path d="M0.125,-0.108C0.141,-0.108 0.154,-0.102 0.166,-0.091C0.177,-0.08 0.183,-0.066 0.183,-0.049C0.183,-0.033 0.177,-0.02 0.166,-0.008C0.155,0.003 0.141,0.009 0.125,0.009C0.109,0.009 0.095,0.003 0.083,-0.008C0.072,-0.019 0.066,-0.033 0.066,-0.049C0.066,-0.066 0.072,-0.079 0.083,-0.091C0.095,-0.102 0.109,-0.108 0.125,-0.108Z" style="fill:rgb(0,174,239);fill-rule:nonzero;"/>
                </g>
            </g>
            <g transform="matrix(1,0,0,1,363.814,396.662)">
                <g transform="matrix(37.5,0,0,37.5,119.96,63.8538)">
                    <path d="M0.125,-0.108C0.141,-0.108 0.154,-0.102 0.166,-0.091C0.177,-0.08 0.183,-0.066 0.183,-0.049C0.183,-0.033 0.177,-0.02 0.166,-0.008C0.155,0.003 0.141,0.009 0.125,0.009C0.109,0.009 0.095,0.003 0.083,-0.008C0.072,-0.019 0.066,-0.033 0.066,-0.049C0.066,-0.066 0.072,-0.079 0.083,-0.091C0.095,-0.102 0.109,-0.108 0.125,-0.108Z" style="fill:rgb(0,174,239);fill-rule:nonzero;"/>
                </g>
                <g transform="matrix(37.5,0,0,37.5,129.335,63.8538)">
                    <path d="M0.125,-0.108C0.141,-0.108 0.154,-0.102 0.166,-0.091C0.177,-0.08 0.183,-0.066 0.183,-0.049C0.183,-0.033 0.177,-0.02 0.166,-0.008C0.155,0.003 0.141,0.009 0.125,0.009C0.109,0.009 0.095,0.003 0.083,-0.008C0.072,-0.019 0.066,-0.033 0.066,-0.049C0.066,-0.066 0.072,-0.079 0.083,-0.091C0.095,-0.102 0.109,-0.108 0.125,-0.108Z" style="fill:rgb(0,174,239);fill-rule:nonzero;"/>
                </g>
                <g transform="matrix(37.5,0,0,37.5,138.71,63.8538)">
                    <path d="M0.125,-0.108C0.141,-0.108 0.154,-0.102 0.166,-0.091C0.177,-0.08 0.183,-0.066 0.183,-0.049C0.183,-0.033 0.177,-0.02 0.166,-0.008C0.155,0.003 0.141,0.009 0.125,0.009C0.109,0.009 0.095,0.003 0.083,-0.008C0.072,-0.019 0.066,-0.033 0.066,-0.049C0.066,-0.066 0.072,-0.079 0.083,-0.091C0.095,-0.102 0.109,-0.108 0.125,-0.108Z" style="fill:rgb(0,174,239);fill-rule:nonzero;"/>
                </g>
            </g>
            <path d="M294.955,123.877C294.955,123.877 299.227,238.356 498.284,238.356" style="fill:none;stroke:rgb(0,174,239);stroke-width:3.37px;"/>
            <g transform="matrix(1,0,0,1,0,514.901)">
                <path d="M294.955,123.877C294.955,123.877 299.227,238.356 498.284,238.356" style="fill:none;stroke:rgb(0,174,239);stroke-width:3.37px;stroke-dasharray:3.37,6.73,0,0;"/>
            </g>
            <g transform="matrix(1,0,0,1,3.08351,-5.33952)">
                <circle cx="292.604" cy="311.689" r="4.539" style="stroke:black;stroke-width:3.37px;"/>
            </g>
            <g transform="matrix(1,0,0,1,0.515151,-2.91142)">
                <g transform="matrix(1,-0,-0,1,-0.515151,2.91142)">
                    <path d="M287.341,416.563L294.917,406.461L302.494,416.563L287.341,416.563Z" style="fill:rgb(0,174,239);"/>
                    <path d="M294.917,503.785L294.917,414.542" style="fill:none;stroke:rgb(0,174,239);stroke-width:3.37px;"/>
                </g>
            </g>
            <g transform="matrix(1,0,0,1.14094,0.515151,181.215)">
                <g transform="matrix(1,-0,-0,0.876468,-0.515151,-158.829)">
                    <path d="M287.341,658.388L294.917,648.286L302.494,658.388L287.341,658.388Z" style="fill:rgb(0,174,239);"/>
                    <path d="M294.917,759.328L294.917,656.368" style="fill:none;stroke:rgb(0,174,239);stroke-width:3.37px;"/>
                </g>
            </g>
            <g transform="matrix(1,0,0,1,591.367,-2.91142)">
                <g transform="matrix(1,-0,-0,1,-591.367,2.91142)">
                    <path d="M878.192,416.563L885.769,406.461L893.345,416.563L878.192,416.563Z" style="fill:rgb(0,174,239);"/>
                    <path d="M885.769,503.785L885.769,414.542" style="fill:none;stroke:rgb(0,174,239);stroke-width:3.37px;"/>
                </g>
            </g>
            <g transform="matrix(1,0,0,1,34.0056,-2.91142)">
                <g transform="matrix(1,-0,-0,1,-34.0056,2.91142)">
                    <path d="M320.831,416.563L328.408,406.461L335.984,416.563L320.831,416.563Z" style="fill:rgb(0,174,239);"/>
                    <path d="M328.408,503.785L328.408,414.542" style="fill:none;stroke:rgb(0,174,239);stroke-width:3.37px;"/>
                </g>
            </g>
            <g transform="matrix(1,0,0,0.574293,34.0056,468.336)">
                <g transform="matrix(1,-0,-0,1.74127,-34.0056,-815.499)">
                    <path d="M320.831,713.537L328.408,703.435L335.984,713.537L320.831,713.537Z" style="fill:rgb(0,174,239);"/>
                    <path d="M328.408,759.328L328.408,711.517" style="fill:none;stroke:rgb(0,174,239);stroke-width:3.37px;"/>
                </g>
            </g>
            <g transform="matrix(1,0,0,1,801.736,-2.91142)">
                <g transform="matrix(1,-0,-0,1,-801.736,2.91142)">
                    <path d="M1088.56,416.563L1096.14,406.461L1103.71,416.563L1088.56,416.563Z" style="fill:rgb(0,174,239);"/>
                    <path d="M1096.14,503.785L1096.14,414.542" style="fill:none;stroke:rgb(0,174,239);stroke-width:3.37px;"/>
                </g>
            </g>
            <g transform="matrix(0.162923,0,0,0.162923,942.755,688.383)">
                <path d="M294.402,506.697L294.402,409.372" style="fill:none;stroke:black;stroke-width:20.67px;"/>
            </g>
            <g transform="matrix(0.162923,0,0,0.162923,732.952,687.925)">
                <path d="M294.402,506.697L294.402,409.372" style="fill:none;stroke:black;stroke-width:20.67px;"/>
            </g>
            <g transform="matrix(1,0,0,1,-166.937,-2.91142)">
                <g transform="matrix(1,-0,-0,1,166.937,2.91142)">
                    <path d="M119.888,416.563L127.465,406.461L135.041,416.563L119.888,416.563Z" style="fill:rgb(0,174,239);"/>
                    <path d="M127.465,503.785L127.465,414.542" style="fill:none;stroke:rgb(0,174,239);stroke-width:3.37px;"/>
                </g>
            </g>
            <g transform="matrix(1,0,0,1,67.4961,-2.91142)">
                <g transform="matrix(1,-0,-0,1,-67.4961,2.91142)">
                    <path d="M354.322,416.563L361.898,406.461L369.475,416.563L354.322,416.563Z" style="fill:rgb(0,174,239);"/>
                    <path d="M361.898,503.785L361.898,414.542" style="fill:none;stroke:rgb(0,174,239);stroke-width:3.37px;"/>
                </g>
            </g>
            <g transform="matrix(1,0,0,0.332675,67.4961,590.762)">
                <g transform="matrix(1,-0,-0,3.00593,-67.4961,-1775.79)">
                    <path d="M354.322,737.052L361.898,726.95L369.475,737.052L354.322,737.052Z" style="fill:rgb(0,174,239);"/>
                    <path d="M361.898,759.328L361.898,735.032" style="fill:none;stroke:rgb(0,174,239);stroke-width:3.37px;"/>
                </g>
            </g>
            <g transform="matrix(1,0,0,1,-133.447,-2.91142)">
                <g transform="matrix(1,-0,-0,1,133.447,2.91142)">
                    <path d="M153.379,416.563L160.955,406.461L168.532,416.563L153.379,416.563Z" style="fill:rgb(0,174,239);"/>
                    <path d="M160.955,503.785L160.955,414.542" style="fill:none;stroke:rgb(0,174,239);stroke-width:3.37px;"/>
                </g>
            </g>
            <g transform="matrix(1,0,0,1,100.987,-2.91142)">
                <g transform="matrix(1,-0,-0,1,-100.987,2.91142)">
                    <path d="M387.812,416.563L395.389,406.461L402.965,416.563L387.812,416.563Z" style="fill:rgb(0,174,239);"/>
                    <path d="M395.389,503.785L395.389,414.542" style="fill:none;stroke:rgb(0,174,239);stroke-width:3.37px;"/>
                </g>
            </g>
            <g transform="matrix(1,0,0,0.20899,100.987,653.433)">
                <g transform="matrix(1,-0,-0,4.78491,-100.987,-3126.62)">
                    <path d="M387.812,749.09L395.389,738.988L402.965,749.09L387.812,749.09Z" style="fill:rgb(0,174,239);"/>
                    <path d="M395.389,759.328L395.389,747.07" style="fill:none;stroke:rgb(0,174,239);stroke-width:3.37px;"/>
                </g>
            </g>
            <g transform="matrix(1,0,0,1,-99.9563,-2.91142)">
                <g transform="matrix(1,-0,-0,1,99.9563,2.91142)">
                    <path d="M186.869,416.563L194.446,406.461L202.022,416.563L186.869,416.563Z" style="fill:rgb(0,174,239);"/>
                    <path d="M194.446,503.785L194.446,414.542" style="fill:none;stroke:rgb(0,174,239);stroke-width:3.37px;"/>
                </g>
            </g>
            <g transform="matrix(1,0,0,1,134.477,-2.91142)">
                <g transform="matrix(1,-0,-0,1,-134.477,2.91142)">
                    <path d="M421.303,416.563L428.879,406.461L436.456,416.563L421.303,416.563Z" style="fill:rgb(0,174,239);"/>
                    <path d="M428.879,503.785L428.879,414.542" style="fill:none;stroke:rgb(0,174,239);stroke-width:3.37px;"/>
                </g>
            </g>
            <g transform="matrix(1,0,0,0.114069,134.477,701.529)">
                <g transform="matrix(1,-0,-0,8.76663,-134.477,-6150.05)">
                    <path d="M421.303,758.328L428.879,748.226L436.456,758.328L421.303,758.328Z" style="fill:rgb(0,174,239);"/>
                    <path d="M428.879,759.328L428.879,756.308" style="fill:none;stroke:rgb(0,174,239);stroke-width:3.37px;"/>
                </g>
            </g>
            <g transform="matrix(1,0,0,1,-66.4658,-2.91142)">
                <g transform="matrix(1,-0,-0,1,66.4658,2.91142)">
                    <path d="M220.36,416.563L227.936,406.461L235.513,416.563L220.36,416.563Z" style="fill:rgb(0,174,239);"/>
                    <path d="M227.936,503.785L227.936,414.542" style="fill:none;stroke:rgb(0,174,239);stroke-width:3.37px;"/>
                </g>
            </g>
            <g transform="matrix(1,0,0,1,167.968,-2.91142)">
                <g transform="matrix(1,-0,-0,1,-167.968,2.91142)">
                    <path d="M454.793,416.563L462.37,406.461L469.946,416.563L454.793,416.563Z" style="fill:rgb(0,174,239);"/>
                    <path d="M462.37,503.785L462.37,414.542" style="fill:none;stroke:rgb(0,174,239);stroke-width:3.37px;"/>
                </g>
            </g>
            <g transform="matrix(1,0,0,0.0910578,167.968,713.189)">
                <g transform="matrix(1,-0,-0,10.982,-167.968,-7832.27)">
                    <path d="M454.793,760.568L462.37,750.466L469.946,760.568L454.793,760.568Z" style="fill:rgb(0,174,239);"/>
                    <path d="M462.37,759.328L462.37,758.547" style="fill:none;stroke:rgb(0,174,239);stroke-width:3.37px;"/>
                </g>
            </g>
            <g transform="matrix(1,0,0,1,-32.9753,-2.91142)">
                <g transform="matrix(1,-0,-0,1,32.9753,2.91142)">
                    <path d="M253.85,416.563L261.427,406.461L269.003,416.563L253.85,416.563Z" style="fill:rgb(0,174,239);"/>
                    <path d="M261.427,503.785L261.427,414.542" style="fill:none;stroke:rgb(0,174,239);stroke-width:3.37px;"/>
                </g>
            </g>
            <g transform="matrix(1,0,0,1,380.997,-2.91142)">
                <g transform="matrix(1,-0,-0,1,-380.997,2.91142)">
                    <path d="M667.823,416.563L675.399,406.461L682.976,416.563L667.823,416.563Z" style="fill:rgb(0,174,239);"/>
                    <path d="M675.399,503.785L675.399,414.542" style="fill:none;stroke:rgb(0,174,239);stroke-width:3.37px;"/>
                </g>
            </g>
        </g>
        <g transform="matrix(0.228163,0,0,-0.228163,969.004,825.662)">
            <g id="klftmpexporter4x1x0xF16932">
                <g id="g12">
                    <path id="path14" d="M99.203,199.578C99.203,201.953 99.203,202.156 96.922,202.156C90.766,195.797 82.016,195.797 78.844,195.797L78.844,192.719C80.828,192.719 86.688,192.719 91.859,195.297L91.859,143.844C91.859,140.266 91.563,139.078 82.609,139.078L79.438,139.078L79.438,136C82.906,136.297 91.563,136.297 95.531,136.297C99.5,136.297 108.141,136.297 111.625,136L111.625,139.078L108.438,139.078C99.5,139.078 99.203,140.172 99.203,143.844L99.203,199.578" style="fill-rule:nonzero;"/>
                    <g transform="matrix(190.8,0,0,4.8,0.479854,91.8801)">
                        <g id="g16">
                            <rect id="rect18" x="0" y="0" width="1" height="1"/>
                        </g>
                    </g>
                    <path id="path20" d="M13.609,8.656L24.141,18.875C39.641,32.594 45.609,37.953 45.609,47.891C45.609,59.219 36.656,67.156 24.547,67.156C13.313,67.156 5.969,58.016 5.969,49.172C5.969,43.609 10.938,43.609 11.234,43.609C12.922,43.609 16.391,44.813 16.391,48.875C16.391,51.469 14.609,54.047 11.125,54.047C10.344,54.047 10.141,54.047 9.844,53.953C12.125,60.406 17.484,64.078 23.25,64.078C32.297,64.078 36.563,56.031 36.563,47.891C36.563,39.938 31.594,32.094 26.125,25.938L7.063,4.672C5.969,3.578 5.969,3.391 5.969,1L42.828,1L45.609,18.281L43.125,18.281C42.625,15.297 41.922,10.938 40.938,9.438C40.234,8.656 33.688,8.656 31.5,8.656L13.609,8.656" style="fill-rule:nonzero;"/>
                    <path id="path22" d="M94.906,70.344C94.219,71.625 94.016,72.125 92.328,72.125C90.641,72.125 90.438,71.625 89.734,70.344L56.172,2.984C55.672,2.094 55.672,1.891 55.672,1.797C55.672,1 56.266,1 57.859,1L126.797,1C128.391,1 128.984,1 128.984,1.797C128.984,1.891 128.984,2.094 128.484,2.984L94.906,70.344ZM89.141,62.188L115.859,8.547L62.328,8.547L89.141,62.188Z" style="fill-rule:nonzero;"/>
                    <path id="path24" d="M167.172,31C167.781,33.578 170.063,42.719 177.016,42.719C177.516,42.719 179.891,42.719 181.984,41.438C179.203,40.938 177.219,38.453 177.219,36.063C177.219,34.484 178.297,32.594 180.984,32.594C183.172,32.594 186.344,34.375 186.344,38.344C186.344,43.516 180.484,44.906 177.109,44.906C171.344,44.906 167.875,39.641 166.688,37.359C164.203,43.906 158.828,44.906 155.953,44.906C145.625,44.906 139.953,32.094 139.953,29.609C139.953,28.609 140.953,28.609 141.156,28.609C141.953,28.609 142.25,28.813 142.438,29.703C145.828,40.234 152.375,42.719 155.75,42.719C157.641,42.719 161.125,41.828 161.125,36.063C161.125,32.984 159.438,26.328 155.75,12.422C154.172,6.266 150.688,2.094 146.313,2.094C145.719,2.094 143.438,2.094 141.344,3.391C143.828,3.875 146.016,5.969 146.016,8.75C146.016,11.438 143.828,12.219 142.344,12.219C139.359,12.219 136.875,9.641 136.875,6.469C136.875,1.891 141.844,-0.094 146.219,-0.094C152.781,-0.094 156.344,6.859 156.656,7.453C157.844,3.781 161.422,-0.094 167.375,-0.094C177.609,-0.094 183.266,12.719 183.266,15.203C183.266,16.203 182.375,16.203 182.078,16.203C181.188,16.203 180.984,15.797 180.781,15.109C177.516,4.484 170.75,2.094 167.578,2.094C163.703,2.094 162.109,5.266 162.109,8.656C162.109,10.828 162.703,13.016 163.797,17.391L167.172,31" style="fill-rule:nonzero;"/>
                </g>
            </g>
        </g>
        <g id="klftmpexporter4x1x0xo16932" transform="matrix(3.06915,0,0,-3.06915,389.778,552.23)">
            <g id="g121" serif:id="g12" transform="matrix(0.1,0,0,0.1,0.0912125,1.55061)">
                <path id="path141" serif:id="path14" d="M39.906,70.344C39.219,71.625 39.016,72.125 37.328,72.125C35.641,72.125 35.438,71.625 34.734,70.344L1.172,2.984C0.672,2.094 0.672,1.891 0.672,1.797C0.672,1 1.266,1 2.859,1L71.797,1C73.391,1 73.984,1 73.984,1.797C73.984,1.891 73.984,2.094 73.484,2.984L39.906,70.344ZM34.141,62.188L60.859,8.547L7.328,8.547L34.141,62.188Z" style="fill-rule:nonzero;"/>
                <path id="path16" d="M112.172,31C112.781,33.578 115.063,42.719 122.016,42.719C122.516,42.719 124.891,42.719 126.984,41.438C124.203,40.938 122.219,38.453 122.219,36.063C122.219,34.484 123.297,32.594 125.984,32.594C128.172,32.594 131.344,34.375 131.344,38.344C131.344,43.516 125.484,44.906 122.109,44.906C116.344,44.906 112.875,39.641 111.688,37.359C109.203,43.906 103.828,44.906 100.953,44.906C90.625,44.906 84.953,32.094 84.953,29.609C84.953,28.609 85.953,28.609 86.156,28.609C86.953,28.609 87.25,28.813 87.437,29.703C90.828,40.234 97.375,42.719 100.75,42.719C102.641,42.719 106.125,41.828 106.125,36.063C106.125,32.984 104.438,26.328 100.75,12.422C99.172,6.266 95.688,2.094 91.313,2.094C90.719,2.094 88.438,2.094 86.344,3.391C88.828,3.875 91.016,5.969 91.016,8.75C91.016,11.438 88.828,12.219 87.344,12.219C84.359,12.219 81.875,9.641 81.875,6.469C81.875,1.891 86.844,-0.094 91.219,-0.094C97.781,-0.094 101.344,6.859 101.656,7.453C102.844,3.781 106.422,-0.094 112.375,-0.094C122.609,-0.094 128.266,12.719 128.266,15.203C128.266,16.203 127.375,16.203 127.078,16.203C126.188,16.203 125.984,15.797 125.781,15.109C122.516,4.484 115.75,2.094 112.578,2.094C108.703,2.094 107.109,5.266 107.109,8.656C107.109,10.828 107.703,13.016 108.797,17.391L112.172,31" style="fill-rule:nonzero;"/>
            </g>
            <g id="g122" serif:id="g12" transform="matrix(0.1,0,0,0.1,0.0912125,-82.3047)">
                <path id="path142" serif:id="path14" d="M39.906,70.344C39.219,71.625 39.016,72.125 37.328,72.125C35.641,72.125 35.438,71.625 34.734,70.344L1.172,2.984C0.672,2.094 0.672,1.891 0.672,1.797C0.672,1 1.266,1 2.859,1L71.797,1C73.391,1 73.984,1 73.984,1.797C73.984,1.891 73.984,2.094 73.484,2.984L39.906,70.344ZM34.141,62.188L60.859,8.547L7.328,8.547L34.141,62.188Z" style="fill-rule:nonzero;"/>
                <path id="path161" serif:id="path16" d="M112.172,31C112.781,33.578 115.063,42.719 122.016,42.719C122.516,42.719 124.891,42.719 126.984,41.438C124.203,40.938 122.219,38.453 122.219,36.063C122.219,34.484 123.297,32.594 125.984,32.594C128.172,32.594 131.344,34.375 131.344,38.344C131.344,43.516 125.484,44.906 122.109,44.906C116.344,44.906 112.875,39.641 111.688,37.359C109.203,43.906 103.828,44.906 100.953,44.906C90.625,44.906 84.953,32.094 84.953,29.609C84.953,28.609 85.953,28.609 86.156,28.609C86.953,28.609 87.25,28.813 87.437,29.703C90.828,40.234 97.375,42.719 100.75,42.719C102.641,42.719 106.125,41.828 106.125,36.063C106.125,32.984 104.438,26.328 100.75,12.422C99.172,6.266 95.688,2.094 91.313,2.094C90.719,2.094 88.438,2.094 86.344,3.391C88.828,3.875 91.016,5.969 91.016,8.75C91.016,11.438 88.828,12.219 87.344,12.219C84.359,12.219 81.875,9.641 81.875,6.469C81.875,1.891 86.844,-0.094 91.219,-0.094C97.781,-0.094 101.344,6.859 101.656,7.453C102.844,3.781 106.422,-0.094 112.375,-0.094C122.609,-0.094 128.266,12.719 128.266,15.203C128.266,16.203 127.375,16.203 127.078,16.203C126.188,16.203 125.984,15.797 125.781,15.109C122.516,4.484 115.75,2.094 112.578,2.094C108.703,2.094 107.109,5.266 107.109,8.656C107.109,10.828 107.703,13.016 108.797,17.391L112.172,31" style="fill-rule:nonzero;"/>
            </g>
            <g id="path162" serif:id="path16" transform="matrix(0.1,0,0,0.1,39.6181,96.4709)">
                <path d="M112.172,31C112.781,33.578 115.063,42.719 122.016,42.719C122.516,42.719 124.891,42.719 126.984,41.438C124.203,40.938 122.219,38.453 122.219,36.063C122.219,34.484 123.297,32.594 125.984,32.594C128.172,32.594 131.344,34.375 131.344,38.344C131.344,43.516 125.484,44.906 122.109,44.906C116.344,44.906 112.875,39.641 111.688,37.359C109.203,43.906 103.828,44.906 100.953,44.906C90.625,44.906 84.953,32.094 84.953,29.609C84.953,28.609 85.953,28.609 86.156,28.609C86.953,28.609 87.25,28.813 87.437,29.703C90.828,40.234 97.375,42.719 100.75,42.719C102.641,42.719 106.125,41.828 106.125,36.063C106.125,32.984 104.438,26.328 100.75,12.422C99.172,6.266 95.688,2.094 91.313,2.094C90.719,2.094 88.438,2.094 86.344,3.391C88.828,3.875 91.016,5.969 91.016,8.75C91.016,11.438 88.828,12.219 87.344,12.219C84.359,12.219 81.875,9.641 81.875,6.469C81.875,1.891 86.844,-0.094 91.219,-0.094C97.781,-0.094 101.344,6.859 101.656,7.453C102.844,3.781 106.422,-0.094 112.375,-0.094C122.609,-0.094 128.266,12.719 128.266,15.203C128.266,16.203 127.375,16.203 127.078,16.203C126.188,16.203 125.984,15.797 125.781,15.109C122.516,4.484 115.75,2.094 112.578,2.094C108.703,2.094 107.109,5.266 107.109,8.656C107.109,10.828 107.703,13.016 108.797,17.391L112.172,31" style="fill-rule:nonzero;"/>
            </g>
            <g id="path163" serif:id="path16" transform="matrix(0.1,0,0,0.1,39.6181,12.4066)">
                <path d="M112.172,31C112.781,33.578 115.063,42.719 122.016,42.719C122.516,42.719 124.891,42.719 126.984,41.438C124.203,40.938 122.219,38.453 122.219,36.063C122.219,34.484 123.297,32.594 125.984,32.594C128.172,32.594 131.344,34.375 131.344,38.344C131.344,43.516 125.484,44.906 122.109,44.906C116.344,44.906 112.875,39.641 111.688,37.359C109.203,43.906 103.828,44.906 100.953,44.906C90.625,44.906 84.953,32.094 84.953,29.609C84.953,28.609 85.953,28.609 86.156,28.609C86.953,28.609 87.25,28.813 87.437,29.703C90.828,40.234 97.375,42.719 100.75,42.719C102.641,42.719 106.125,41.828 106.125,36.063C106.125,32.984 104.438,26.328 100.75,12.422C99.172,6.266 95.688,2.094 91.313,2.094C90.719,2.094 88.438,2.094 86.344,3.391C88.828,3.875 91.016,5.969 91.016,8.75C91.016,11.438 88.828,12.219 87.344,12.219C84.359,12.219 81.875,9.641 81.875,6.469C81.875,1.891 86.844,-0.094 91.219,-0.094C97.781,-0.094 101.344,6.859 101.656,7.453C102.844,3.781 106.422,-0.094 112.375,-0.094C122.609,-0.094 128.266,12.719 128.266,15.203C128.266,16.203 127.375,16.203 127.078,16.203C126.188,16.203 125.984,15.797 125.781,15.109C122.516,4.484 115.75,2.094 112.578,2.094C108.703,2.094 107.109,5.266 107.109,8.656C107.109,10.828 107.703,13.016 108.797,17.391L112.172,31" style="fill-rule:nonzero;"/>
            </g>
            <g id="path164" serif:id="path16" transform="matrix(0.1,0,0,0.1,39.6181,-70.9339)">
                <path d="M112.172,31C112.781,33.578 115.063,42.719 122.016,42.719C122.516,42.719 124.891,42.719 126.984,41.438C124.203,40.938 122.219,38.453 122.219,36.063C122.219,34.484 123.297,32.594 125.984,32.594C128.172,32.594 131.344,34.375 131.344,38.344C131.344,43.516 125.484,44.906 122.109,44.906C116.344,44.906 112.875,39.641 111.688,37.359C109.203,43.906 103.828,44.906 100.953,44.906C90.625,44.906 84.953,32.094 84.953,29.609C84.953,28.609 85.953,28.609 86.156,28.609C86.953,28.609 87.25,28.813 87.437,29.703C90.828,40.234 97.375,42.719 100.75,42.719C102.641,42.719 106.125,41.828 106.125,36.063C106.125,32.984 104.438,26.328 100.75,12.422C99.172,6.266 95.688,2.094 91.313,2.094C90.719,2.094 88.438,2.094 86.344,3.391C88.828,3.875 91.016,5.969 91.016,8.75C91.016,11.438 88.828,12.219 87.344,12.219C84.359,12.219 81.875,9.641 81.875,6.469C81.875,1.891 86.844,-0.094 91.219,-0.094C97.781,-0.094 101.344,6.859 101.656,7.453C102.844,3.781 106.422,-0.094 112.375,-0.094C122.609,-0.094 128.266,12.719 128.266,15.203C128.266,16.203 127.375,16.203 127.078,16.203C126.188,16.203 125.984,15.797 125.781,15.109C122.516,4.484 115.75,2.094 112.578,2.094C108.703,2.094 107.109,5.266 107.109,8.656C107.109,10.828 107.703,13.016 108.797,17.391L112.172,31" style="fill-rule:nonzero;"/>
            </g>
            <g transform="matrix(0.325823,0,0,-0.325823,-126.999,179.93)">
                <path d="M396.849,510.205L396.849,519.184" style="fill:none;stroke:black;stroke-width:2.24px;stroke-linejoin:miter;stroke-miterlimit:10;"/>
                <path d="M427.638,510.205L427.638,519.184" style="fill:none;stroke:black;stroke-width:2.24px;stroke-linejoin:miter;stroke-miterlimit:10;"/>
                <path d="M396.849,514.694L427.638,514.694" style="fill:none;stroke:black;stroke-width:2.24px;"/>
            </g>
            <g transform="matrix(0.325823,0,0,-0.325823,-126.999,96.0742)">
                <g transform="matrix(1,-0,-0,1,-1.13687e-13,-257.364)">
                    <path d="M396.849,767.569L396.849,776.549" style="fill:none;stroke:black;stroke-width:2.24px;stroke-linejoin:miter;stroke-miterlimit:10;"/>
                    <path d="M427.638,767.569L427.638,776.549" style="fill:none;stroke:black;stroke-width:2.24px;stroke-linejoin:miter;stroke-miterlimit:10;"/>
                    <path d="M396.849,772.059L427.638,772.059" style="fill:none;stroke:black;stroke-width:2.24px;"/>
                </g>
            </g>
            <g transform="matrix(2.08333,0,0,-2.03136,-663.205,1057.76)">
                <g transform="matrix(0.156396,-0,-0,0.160397,257.38,432.139)">
                    <path d="M885.721,510.205L885.721,519.184" style="fill:none;stroke:black;stroke-width:2.24px;stroke-linejoin:miter;stroke-miterlimit:10;"/>
                    <path d="M1094.69,510.205L1094.69,519.184" style="fill:none;stroke:black;stroke-width:2.24px;stroke-linejoin:miter;stroke-miterlimit:10;"/>
                    <path d="M885.721,514.694L1094.69,514.694" style="fill:none;stroke:black;stroke-width:2.24px;"/>
                </g>
            </g>
        </g>
        <g id="klftmpexporter4x1x0xy16932">
        </g>
        <g transform="matrix(0.313973,0,0,-0.313973,956.755,554.563)">
            <g id="klftmpexporter4x1x0xg16932">
                <g id="g123" serif:id="g12">
                    <path id="path143" serif:id="path14" d="M20.203,88.578C20.203,90.953 20.203,91.156 17.922,91.156C11.766,84.797 3.016,84.797 -0.156,84.797L-0.156,81.719C1.828,81.719 7.688,81.719 12.859,84.297L12.859,32.844C12.859,29.266 12.563,28.078 3.609,28.078L0.438,28.078L0.438,25C3.906,25.297 12.563,25.297 16.531,25.297C20.5,25.297 29.141,25.297 32.625,25L32.625,28.078L29.438,28.078C20.5,28.078 20.203,29.172 20.203,32.844L20.203,88.578" style="fill-rule:nonzero;"/>
                    <path id="path165" serif:id="path16" d="M85.609,95.734C86.109,97.016 86.109,97.422 86.109,97.516C86.109,98.609 85.219,99.5 84.125,99.5C83.422,99.5 82.734,99.203 82.438,98.609L47.953,3.938C47.469,2.656 47.469,2.25 47.469,2.156C47.469,1.063 48.359,0.172 49.453,0.172C50.734,0.172 51.047,0.859 51.641,2.547L85.609,95.734" style="fill-rule:nonzero;"/>
                    <path id="path18" d="M135.906,94.344C135.219,95.625 135.016,96.125 133.328,96.125C131.641,96.125 131.438,95.625 130.734,94.344L97.172,26.984C96.672,26.094 96.672,25.891 96.672,25.797C96.672,25 97.266,25 98.859,25L167.797,25C169.391,25 169.984,25 169.984,25.797C169.984,25.891 169.984,26.094 169.484,26.984L135.906,94.344ZM130.141,86.188L156.859,32.547L103.328,32.547L130.141,86.188Z" style="fill-rule:nonzero;"/>
                    <path id="path201" serif:id="path20" d="M208.172,55C208.781,57.578 211.063,66.719 218.016,66.719C218.516,66.719 220.891,66.719 222.984,65.438C220.203,64.938 218.219,62.453 218.219,60.063C218.219,58.484 219.297,56.594 221.984,56.594C224.172,56.594 227.344,58.375 227.344,62.344C227.344,67.516 221.484,68.906 218.109,68.906C212.344,68.906 208.875,63.641 207.688,61.359C205.203,67.906 199.828,68.906 196.953,68.906C186.625,68.906 180.953,56.094 180.953,53.609C180.953,52.609 181.953,52.609 182.156,52.609C182.953,52.609 183.25,52.813 183.438,53.703C186.828,64.234 193.375,66.719 196.75,66.719C198.641,66.719 202.125,65.828 202.125,60.063C202.125,56.984 200.438,50.328 196.75,36.422C195.172,30.266 191.688,26.094 187.313,26.094C186.719,26.094 184.438,26.094 182.344,27.391C184.828,27.875 187.016,29.969 187.016,32.75C187.016,35.438 184.828,36.219 183.344,36.219C180.359,36.219 177.875,33.641 177.875,30.469C177.875,25.891 182.844,23.906 187.219,23.906C193.781,23.906 197.344,30.859 197.656,31.453C198.844,27.781 202.422,23.906 208.375,23.906C218.609,23.906 224.266,36.719 224.266,39.203C224.266,40.203 223.375,40.203 223.078,40.203C222.188,40.203 221.984,39.797 221.781,39.109C218.516,28.484 211.75,26.094 208.578,26.094C204.703,26.094 203.109,29.266 203.109,32.656C203.109,34.828 203.703,37.016 204.797,41.391L208.172,55" style="fill-rule:nonzero;"/>
                </g>
            </g>
        </g>
        <g transform="matrix(0.283367,-1.77542e-18,1.77542e-18,-0.297864,1126.1,263.771)">
            <g id="klftmpexporter4x1x0xk16932">
                <g id="g124" serif:id="g12">
                    <path id="path144" serif:id="path14" d="M30.453,60.734L39,60.734C40.984,60.734 41.984,60.734 41.984,62.719C41.984,63.813 40.984,63.813 39.297,63.813L31.047,63.813L33.141,75.141C33.531,77.219 34.922,84.281 35.516,85.469C36.422,87.359 38.109,88.844 40.188,88.844C40.594,88.844 43.172,88.844 45.063,87.063C40.688,86.656 39.688,83.188 39.688,81.688C39.688,79.406 41.484,78.219 43.375,78.219C45.953,78.219 48.828,80.406 48.828,84.172C48.828,88.75 44.266,91.031 40.188,91.031C36.813,91.031 30.563,89.25 27.578,79.406C26.984,77.328 26.688,76.328 24.297,63.813L17.438,63.813C15.563,63.813 14.469,63.813 14.469,61.922C14.469,60.734 15.359,60.734 17.25,60.734L23.797,60.734L16.344,21.5C14.563,11.859 12.875,2.828 7.703,2.828C7.313,2.828 4.828,2.828 2.938,4.609C7.516,4.906 8.406,8.484 8.406,9.969C8.406,12.266 6.609,13.453 4.734,13.453C2.141,13.453 -0.734,11.266 -0.734,7.484C-0.734,3.016 3.641,0.641 7.703,0.641C13.172,0.641 17.141,6.5 18.938,10.266C22.109,16.531 24.391,28.547 24.5,29.25L30.453,60.734" style="fill-rule:nonzero;"/>
                </g>
            </g>
        </g>
        <g transform="matrix(0.283367,-1.77542e-18,1.77542e-18,-0.297864,1126.1,520.922)">
            <g id="klftmpexporter4x1x0xk169321" serif:id="klftmpexporter4x1x0xk16932">
                <g id="g125" serif:id="g12">
                    <path id="path145" serif:id="path14" d="M30.453,60.734L39,60.734C40.984,60.734 41.984,60.734 41.984,62.719C41.984,63.813 40.984,63.813 39.297,63.813L31.047,63.813L33.141,75.141C33.531,77.219 34.922,84.281 35.516,85.469C36.422,87.359 38.109,88.844 40.188,88.844C40.594,88.844 43.172,88.844 45.063,87.063C40.688,86.656 39.688,83.188 39.688,81.688C39.688,79.406 41.484,78.219 43.375,78.219C45.953,78.219 48.828,80.406 48.828,84.172C48.828,88.75 44.266,91.031 40.188,91.031C36.813,91.031 30.563,89.25 27.578,79.406C26.984,77.328 26.688,76.328 24.297,63.813L17.438,63.813C15.563,63.813 14.469,63.813 14.469,61.922C14.469,60.734 15.359,60.734 17.25,60.734L23.797,60.734L16.344,21.5C14.563,11.859 12.875,2.828 7.703,2.828C7.313,2.828 4.828,2.828 2.938,4.609C7.516,4.906 8.406,8.484 8.406,9.969C8.406,12.266 6.609,13.453 4.734,13.453C2.141,13.453 -0.734,11.266 -0.734,7.484C-0.734,3.016 3.641,0.641 7.703,0.641C13.172,0.641 17.141,6.5 18.938,10.266C22.109,16.531 24.391,28.547 24.5,29.25L30.453,60.734" style="fill-rule:nonzero;"/>
                </g>
            </g>
        </g>
        <g transform="matrix(0.283367,-1.77542e-18,1.77542e-18,-0.297864,1126.1,776.706)">
            <g id="klftmpexporter4x1x0xk169322" serif:id="klftmpexporter4x1x0xk16932">
                <g id="g126" serif:id="g12">
                    <path id="path146" serif:id="path14" d="M30.453,60.734L39,60.734C40.984,60.734 41.984,60.734 41.984,62.719C41.984,63.813 40.984,63.813 39.297,63.813L31.047,63.813L33.141,75.141C33.531,77.219 34.922,84.281 35.516,85.469C36.422,87.359 38.109,88.844 40.188,88.844C40.594,88.844 43.172,88.844 45.063,87.063C40.688,86.656 39.688,83.188 39.688,81.688C39.688,79.406 41.484,78.219 43.375,78.219C45.953,78.219 48.828,80.406 48.828,84.172C48.828,88.75 44.266,91.031 40.188,91.031C36.813,91.031 30.563,89.25 27.578,79.406C26.984,77.328 26.688,76.328 24.297,63.813L17.438,63.813C15.563,63.813 14.469,63.813 14.469,61.922C14.469,60.734 15.359,60.734 17.25,60.734L23.797,60.734L16.344,21.5C14.563,11.859 12.875,2.828 7.703,2.828C7.313,2.828 4.828,2.828 2.938,4.609C7.516,4.906 8.406,8.484 8.406,9.969C8.406,12.266 6.609,13.453 4.734,13.453C2.141,13.453 -0.734,11.266 -0.734,7.484C-0.734,3.016 3.641,0.641 7.703,0.641C13.172,0.641 17.141,6.5 18.938,10.266C22.109,16.531 24.391,28.547 24.5,29.25L30.453,60.734" style="fill-rule:nonzero;"/>
                </g>
            </g>
        </g>
        <g transform="matrix(0.390784,0,0,-0.390784,319.1,122.819)">
            <g id="klftmpexporter4x1x0xO16932">
                <g id="g127" serif:id="g12">
                    <path id="path147" serif:id="path14" d="M45.781,62.453C45.891,63.047 46.078,63.547 46.078,64.234C46.078,65.922 44.891,66.922 43.203,66.922C42.219,66.922 39.531,66.219 39.125,62.656C37.344,66.328 33.875,68.906 29.891,68.906C18.563,68.906 6.25,55 6.25,40.688C6.25,30.859 12.313,25 19.469,25C25.328,25 30,29.672 30.984,30.766L31.078,30.656C29,21.828 27.813,17.75 27.813,17.547C27.406,16.656 24.031,6.828 13.5,6.828C11.609,6.828 8.344,6.922 5.563,7.813C8.531,8.703 9.625,11.297 9.625,12.984C9.625,14.563 8.531,16.453 5.859,16.453C3.672,16.453 0.484,14.672 0.484,10.703C0.484,6.625 4.172,4.641 13.703,4.641C26.125,4.641 33.266,12.391 34.766,18.344L45.781,62.453ZM32.875,37.719C32.281,35.125 30,32.656 27.813,30.766C25.719,28.969 22.641,27.188 19.766,27.188C14.797,27.188 13.297,32.344 13.297,36.328C13.297,41.094 16.188,52.813 18.875,57.875C21.547,62.75 25.828,66.719 30,66.719C36.547,66.719 37.938,58.672 37.938,58.172C37.938,57.688 37.734,57.078 37.641,56.688L32.875,37.719" style="fill:rgb(0,174,239);fill-rule:nonzero;"/>
                    <path id="path166" serif:id="path16" d="M83.875,1.156C83.875,1.453 83.875,1.656 82.188,3.344C69.781,15.859 66.594,34.641 66.594,49.828C66.594,67.125 70.375,84.406 82.594,96.828C83.875,98.016 83.875,98.219 83.875,98.516C83.875,99.203 83.484,99.5 82.891,99.5C81.891,99.5 72.953,92.75 67.094,80.125C62.031,69.203 60.828,58.172 60.828,49.828C60.828,42.094 61.922,30.063 67.391,18.844C73.344,6.625 81.891,0.172 82.891,0.172C83.484,0.172 83.875,0.469 83.875,1.156" style="fill:rgb(0,174,239);fill-rule:nonzero;"/>
                    <path id="path181" serif:id="path18" d="M122.172,55C122.781,57.578 125.063,66.719 132.016,66.719C132.516,66.719 134.891,66.719 136.984,65.438C134.203,64.938 132.219,62.453 132.219,60.063C132.219,58.484 133.297,56.594 135.984,56.594C138.172,56.594 141.344,58.375 141.344,62.344C141.344,67.516 135.484,68.906 132.109,68.906C126.344,68.906 122.875,63.641 121.688,61.359C119.203,67.906 113.828,68.906 110.953,68.906C100.625,68.906 94.953,56.094 94.953,53.609C94.953,52.609 95.953,52.609 96.156,52.609C96.953,52.609 97.25,52.813 97.437,53.703C100.828,64.234 107.375,66.719 110.75,66.719C112.641,66.719 116.125,65.828 116.125,60.063C116.125,56.984 114.438,50.328 110.75,36.422C109.172,30.266 105.688,26.094 101.313,26.094C100.719,26.094 98.437,26.094 96.344,27.391C98.828,27.875 101.016,29.969 101.016,32.75C101.016,35.438 98.828,36.219 97.344,36.219C94.359,36.219 91.875,33.641 91.875,30.469C91.875,25.891 96.844,23.906 101.219,23.906C107.781,23.906 111.344,30.859 111.656,31.453C112.844,27.781 116.422,23.906 122.375,23.906C132.609,23.906 138.266,36.719 138.266,39.203C138.266,40.203 137.375,40.203 137.078,40.203C136.188,40.203 135.984,39.797 135.781,39.109C132.516,28.484 125.75,26.094 122.578,26.094C118.703,26.094 117.109,29.266 117.109,32.656C117.109,34.828 117.703,37.016 118.797,41.391L122.172,55" style="fill:rgb(0,174,239);fill-rule:nonzero;"/>
                    <path id="path202" serif:id="path20" d="M173.703,49.828C173.703,57.578 172.609,69.609 167.156,80.828C161.188,93.047 152.656,99.5 151.656,99.5C151.063,99.5 150.656,99.109 150.656,98.516C150.656,98.219 150.656,98.016 152.547,96.219C162.281,86.391 167.953,70.594 167.953,49.828C167.953,32.844 164.266,15.359 151.953,2.844C150.656,1.656 150.656,1.453 150.656,1.156C150.656,0.563 151.063,0.172 151.656,0.172C152.656,0.172 161.594,6.922 167.453,19.531C172.516,30.469 173.703,41.484 173.703,49.828" style="fill:rgb(0,174,239);fill-rule:nonzero;"/>
                </g>
            </g>
        </g>
        <g id="klftmpexporter4x1x0xk169323" serif:id="klftmpexporter4x1x0xk16932" transform="matrix(4.32132,0,0,-4.32132,949.698,124.371)">
            <g id="g128" serif:id="g12" transform="matrix(0.1,0,0,0.1,-4.44823,0)">
                <path id="path148" serif:id="path14" d="M4.797,95.922C4.797,97.719 4.797,99.5 2.813,99.5C0.828,99.5 0.828,97.719 0.828,95.922L0.828,3.734C0.828,1.953 0.828,0.172 2.813,0.172C4.797,0.172 4.797,1.953 4.797,3.734L4.797,95.922" style="fill:rgb(0,174,239);fill-rule:nonzero;"/>
                <path id="path167" serif:id="path16" d="M91.5,94.047C91.5,94.344 91.297,95.031 90.406,95.031C90.109,95.031 90,94.937 88.906,93.844L81.953,86.187C81.063,87.578 76.5,95.031 65.469,95.031C43.313,95.031 20.969,73.078 20.969,50.031C20.969,34.234 32,22.812 48.078,22.812C52.453,22.812 56.922,23.703 60.5,25.203C65.469,27.187 67.359,29.266 69.141,31.266C70.047,28.781 72.625,25.094 73.609,25.094C74.109,25.094 74.313,25.391 74.313,25.5C74.516,25.703 75.5,29.469 76,31.562L77.891,39.203C78.281,40.891 78.781,42.578 79.172,44.266C80.266,48.734 80.375,48.937 86.031,49.047C86.531,49.047 87.625,49.141 87.625,51.031C87.625,51.719 87.125,52.125 86.328,52.125C84.047,52.125 78.188,51.828 75.906,51.828C72.828,51.828 65.078,52.125 62,52.125C61.094,52.125 59.906,52.125 59.906,50.125C59.906,49.047 60.703,49.047 62.891,49.047C62.984,49.047 65.875,49.047 68.156,48.844C70.734,48.547 71.234,48.25 71.234,46.953C71.234,46.062 70.141,41.594 69.141,37.906C66.359,26.984 53.453,25.891 49.969,25.891C40.438,25.891 30,31.563 30,46.75C30,49.828 31,66.219 41.438,79.141C46.797,85.891 56.438,91.953 66.266,91.953C76.391,91.953 82.266,84.297 82.266,72.781C82.266,68.813 81.953,68.703 81.953,67.719C81.953,66.719 83.047,66.719 83.453,66.719C84.734,66.719 84.734,66.922 85.234,68.703L91.5,94.047" style="fill:rgb(0,174,239);fill-rule:nonzero;"/>
                <path id="path182" serif:id="path18" d="M126.875,1.156C126.875,1.453 126.875,1.656 125.188,3.344C112.781,15.859 109.594,34.641 109.594,49.828C109.594,67.125 113.375,84.406 125.594,96.828C126.875,98.016 126.875,98.219 126.875,98.516C126.875,99.203 126.484,99.5 125.891,99.5C124.891,99.5 115.953,92.75 110.094,80.125C105.031,69.203 103.828,58.172 103.828,49.828C103.828,42.094 104.922,30.063 110.391,18.844C116.344,6.625 124.891,0.172 125.891,0.172C126.484,0.172 126.875,0.469 126.875,1.156" style="fill:rgb(0,174,239);fill-rule:nonzero;"/>
                <path id="path203" serif:id="path20" d="M169.453,64.734L178,64.734C179.984,64.734 180.984,64.734 180.984,66.719C180.984,67.812 179.984,67.812 178.297,67.812L170.047,67.812L172.141,79.141C172.531,81.219 173.922,88.281 174.516,89.469C175.422,91.359 177.109,92.844 179.188,92.844C179.594,92.844 182.172,92.844 184.063,91.062C179.688,90.656 178.688,87.187 178.688,85.687C178.688,83.406 180.484,82.219 182.375,82.219C184.953,82.219 187.828,84.406 187.828,88.172C187.828,92.75 183.266,95.031 179.188,95.031C175.813,95.031 169.563,93.25 166.578,83.406C165.984,81.328 165.688,80.328 163.297,67.812L156.438,67.812C154.563,67.812 153.469,67.812 153.469,65.922C153.469,64.734 154.359,64.734 156.25,64.734L162.797,64.734L155.344,25.5C153.563,15.859 151.875,6.828 146.703,6.828C146.313,6.828 143.828,6.828 141.938,8.609C146.516,8.906 147.406,12.484 147.406,13.969C147.406,16.266 145.609,17.453 143.734,17.453C141.141,17.453 138.266,15.266 138.266,11.484C138.266,7.016 142.641,4.641 146.703,4.641C152.172,4.641 156.141,10.5 157.938,14.266C161.109,20.531 163.391,32.547 163.5,33.25L169.453,64.734" style="fill:rgb(0,174,239);fill-rule:nonzero;"/>
                <path id="path221" serif:id="path22" d="M221.703,49.828C221.703,57.578 220.609,69.609 215.156,80.828C209.188,93.047 200.656,99.5 199.656,99.5C199.063,99.5 198.656,99.109 198.656,98.516C198.656,98.219 198.656,98.016 200.547,96.219C210.281,86.391 215.953,70.594 215.953,49.828C215.953,32.844 212.266,15.359 199.953,2.844C198.656,1.656 198.656,1.453 198.656,1.156C198.656,0.563 199.063,0.172 199.656,0.172C200.656,0.172 209.594,6.922 215.453,19.531C220.516,30.469 221.703,41.484 221.703,49.828" style="fill:rgb(0,174,239);fill-rule:nonzero;"/>
                <path id="path241" serif:id="path24" d="M246.797,95.922C246.797,97.719 246.797,99.5 244.813,99.5C242.828,99.5 242.828,97.719 242.828,95.922L242.828,3.734C242.828,1.953 242.828,0.172 244.813,0.172C246.797,0.172 246.797,1.953 246.797,3.734L246.797,95.922" style="fill:rgb(0,174,239);fill-rule:nonzero;"/>
            </g>
            <g>
                <g transform="matrix(0.230332,0,0,-0.231411,-218.65,28.7807)">
                    <path d="M885.293,132.42C885.293,132.42 934.844,131.566 963.036,184.534C991.229,237.502 1027.96,245.191 1039.07,247.754" style="fill:none;stroke:rgb(0,174,239);stroke-width:3.38px;"/>
                </g>
                <g transform="matrix(0.231411,0,0,0.231411,-255.305,-59.1954)">
                    <path d="M885.293,132.42C885.293,132.42 934.844,131.566 963.036,184.534C991.229,237.502 1027.96,245.191 1039.07,247.754" style="fill:none;stroke:rgb(0,174,239);stroke-width:3.37px;"/>
                </g>
            </g>
            <g>
                <g>
                    <g transform="matrix(0.230332,0,0,-0.231411,-218.65,-90.1552)">
                        <path d="M885.293,132.42C885.293,132.42 934.844,131.566 963.036,184.534C991.229,237.502 1027.96,245.191 1039.07,247.754" style="fill:none;stroke:rgb(0,174,239);stroke-width:3.38px;"/>
                    </g>
                    <g transform="matrix(0.231411,0,0,0.231411,-208.773,-178.131)">
                        <path d="M885.293,132.42C885.293,132.42 934.844,131.566 963.036,184.534C991.229,237.502 1027.96,245.191 1039.07,247.754" style="fill:none;stroke:rgb(0,174,239);stroke-width:3.37px;"/>
                    </g>
                </g>
                <g transform="matrix(0.225439,0,0,-0.231411,-213.498,28.6745)">
                    <path d="M1053.91,659.162C1053.91,659.162 1078.54,645.949 1088.62,645.725" style="fill:none;stroke:white;stroke-width:4.17px;stroke-linecap:square;stroke-dasharray:4.17,12.51,0,0;"/>
                </g>
                <g transform="matrix(0.230063,0,0,-0.216886,-217.7,17.6316)">
                    <path d="M992.325,736.787C992.325,736.787 1017.17,759.883 1039.57,761.632" style="fill:none;stroke:white;stroke-width:6.47px;stroke-linecap:square;stroke-dasharray:6.47,19.41,0,0;"/>
                </g>
                <g transform="matrix(-0.230063,0,0,-0.216886,236.882,17.6316)">
                    <path d="M992.325,736.787C992.325,736.787 1017.17,759.883 1039.57,761.632" style="fill:none;stroke:white;stroke-width:6.47px;stroke-linecap:square;stroke-dasharray:6.47,19.41,0,0;"/>
                </g>
            </g>
            <g transform="matrix(-1,0,0,1,-29.5278,0)">
                <g>
                    <g transform="matrix(0.230332,0,0,-0.231411,-218.65,-90.1552)">
                        <path d="M885.293,132.42C885.293,132.42 934.844,131.566 963.036,184.534C991.229,237.502 1027.96,245.191 1039.07,247.754" style="fill:none;stroke:rgb(0,174,239);stroke-width:3.38px;"/>
                    </g>
                    <g transform="matrix(0.231411,0,0,0.231411,-208.773,-178.131)">
                        <path d="M885.293,132.42C885.293,132.42 934.844,131.566 963.036,184.534C991.229,237.502 1027.96,245.191 1039.07,247.754" style="fill:none;stroke:rgb(0,174,239);stroke-width:3.37px;"/>
                    </g>
                </g>
                <g transform="matrix(0.225439,0,0,-0.231411,-213.498,28.6745)">
                    <path d="M1053.91,659.162C1053.91,659.162 1078.54,645.949 1088.62,645.725" style="fill:none;stroke:white;stroke-width:4.17px;stroke-linecap:square;stroke-dasharray:4.17,12.51,0,0;"/>
                </g>
                <g transform="matrix(0.230063,0,0,-0.216886,-217.7,17.6316)">
                    <path d="M992.325,736.787C992.325,736.787 1017.17,759.883 1039.57,761.632" style="fill:none;stroke:white;stroke-width:6.47px;stroke-linecap:square;stroke-dasharray:6.47,19.41,0,0;"/>
                </g>
                <g transform="matrix(-0.230063,0,0,-0.216886,236.882,17.6316)">
                    <path d="M992.325,736.787C992.325,736.787 1017.17,759.883 1039.57,761.632" style="fill:none;stroke:white;stroke-width:6.47px;stroke-linecap:square;stroke-dasharray:6.47,19.41,0,0;"/>
                </g>
            </g>
            <g transform="matrix(0.231411,1.78272e-34,0,-0.231411,-219.77,-89.9873)">
                <g transform="matrix(1.56215,0,0,1.56497,502.469,-19.273)">
                    <g transform="matrix(0.640145,4.92259e-34,-0,0.638989,-321.653,-315.636)">
                        <path d="M1111.94,755.121L1122.05,762.697L1111.94,770.274L1111.94,755.121Z"/>
                        <path d="M649.606,762.697L1113.97,762.697" style="fill:none;stroke:black;stroke-width:3.37px;"/>
                    </g>
                </g>
                <g transform="matrix(1,0,0,1,596.852,-17.9408)">
                    <g transform="matrix(1,7.70372e-34,-0,1,-596.852,-495.294)">
                        <path d="M878.25,610.478L885.827,600.376L893.403,610.478L878.25,610.478Z"/>
                        <path d="M885.827,780.638L885.827,608.457" style="fill:none;stroke:black;stroke-width:3.37px;"/>
                    </g>
                </g>
            </g>
        </g>
    </g>
    <g transform="matrix(1,0,0,1,-116.188,-25.6297)">
        <g transform="matrix(37.5,0,0,37.5,285.579,63.8538)">
            <path d="M0.039,-0.168L0.042,-0.172L0.066,-0.172L0.07,-0.168C0.072,-0.126 0.074,-0.101 0.077,-0.092C0.08,-0.082 0.088,-0.073 0.103,-0.062C0.118,-0.052 0.138,-0.044 0.162,-0.037C0.187,-0.031 0.212,-0.027 0.237,-0.027C0.271,-0.027 0.302,-0.034 0.33,-0.046C0.357,-0.059 0.379,-0.078 0.394,-0.102C0.409,-0.127 0.417,-0.154 0.417,-0.185C0.417,-0.207 0.413,-0.225 0.406,-0.241C0.399,-0.257 0.388,-0.27 0.375,-0.28C0.362,-0.289 0.347,-0.296 0.33,-0.301C0.313,-0.306 0.288,-0.311 0.254,-0.316C0.222,-0.322 0.196,-0.326 0.178,-0.331C0.16,-0.335 0.141,-0.341 0.123,-0.35C0.105,-0.359 0.09,-0.37 0.077,-0.384C0.065,-0.397 0.055,-0.414 0.048,-0.433C0.041,-0.453 0.037,-0.474 0.037,-0.497C0.037,-0.557 0.058,-0.607 0.101,-0.646C0.143,-0.685 0.2,-0.705 0.271,-0.705C0.299,-0.705 0.33,-0.701 0.364,-0.694C0.397,-0.687 0.427,-0.677 0.455,-0.663L0.458,-0.657C0.451,-0.627 0.446,-0.585 0.445,-0.529L0.44,-0.525L0.415,-0.525L0.411,-0.529C0.41,-0.568 0.41,-0.592 0.408,-0.603C0.407,-0.613 0.392,-0.625 0.364,-0.64C0.335,-0.655 0.305,-0.663 0.271,-0.663C0.244,-0.663 0.218,-0.657 0.194,-0.646C0.17,-0.635 0.152,-0.618 0.139,-0.594C0.127,-0.57 0.121,-0.546 0.121,-0.521C0.121,-0.502 0.124,-0.485 0.132,-0.47C0.139,-0.455 0.149,-0.443 0.161,-0.435C0.173,-0.426 0.187,-0.42 0.202,-0.416C0.218,-0.411 0.247,-0.406 0.289,-0.4C0.347,-0.392 0.389,-0.382 0.415,-0.37C0.441,-0.359 0.462,-0.34 0.478,-0.315C0.494,-0.29 0.501,-0.26 0.501,-0.225C0.501,-0.155 0.473,-0.097 0.417,-0.051C0.36,-0.005 0.292,0.018 0.211,0.018C0.144,0.018 0.085,0.006 0.034,-0.018L0.031,-0.024C0.035,-0.045 0.037,-0.093 0.039,-0.168Z" style="fill-rule:nonzero;"/>
        </g>
        <g transform="matrix(37.5,0,0,37.5,305.262,63.8538)">
            <path d="M0.181,-0.471L0.19,-0.465C0.187,-0.428 0.185,-0.395 0.185,-0.367C0.229,-0.407 0.26,-0.434 0.277,-0.447C0.295,-0.46 0.325,-0.466 0.367,-0.466C0.394,-0.466 0.418,-0.463 0.44,-0.455C0.462,-0.448 0.482,-0.436 0.5,-0.419C0.519,-0.402 0.534,-0.381 0.544,-0.356C0.555,-0.331 0.561,-0.302 0.561,-0.269C0.561,-0.245 0.557,-0.221 0.549,-0.197C0.542,-0.173 0.532,-0.151 0.52,-0.13C0.508,-0.11 0.498,-0.096 0.49,-0.09C0.483,-0.083 0.468,-0.073 0.445,-0.06C0.425,-0.047 0.404,-0.034 0.384,-0.02C0.37,-0.009 0.361,-0.003 0.355,-0C0.349,0.003 0.34,0.006 0.327,0.009C0.314,0.012 0.3,0.013 0.286,0.013C0.252,0.013 0.218,0.005 0.185,-0.013L0.185,0.091C0.185,0.098 0.185,0.122 0.187,0.16C0.188,0.199 0.189,0.222 0.191,0.229C0.192,0.235 0.194,0.24 0.197,0.243C0.2,0.246 0.204,0.247 0.208,0.248C0.212,0.249 0.23,0.25 0.261,0.252L0.265,0.256L0.265,0.277L0.261,0.281C0.221,0.279 0.181,0.277 0.144,0.277C0.107,0.277 0.068,0.279 0.027,0.281L0.022,0.277L0.022,0.256L0.027,0.252C0.058,0.25 0.076,0.249 0.08,0.248C0.084,0.247 0.088,0.245 0.091,0.242C0.094,0.239 0.096,0.234 0.097,0.227C0.099,0.22 0.1,0.198 0.101,0.162C0.103,0.125 0.104,0.097 0.104,0.079L0.104,-0.295C0.104,-0.312 0.103,-0.332 0.101,-0.354C0.1,-0.377 0.099,-0.389 0.098,-0.393C0.097,-0.397 0.094,-0.4 0.091,-0.402C0.087,-0.404 0.078,-0.405 0.065,-0.405L0.024,-0.406L0.02,-0.41L0.02,-0.431L0.024,-0.435C0.086,-0.442 0.138,-0.454 0.181,-0.471ZM0.185,-0.097C0.2,-0.081 0.218,-0.068 0.24,-0.057C0.262,-0.046 0.287,-0.04 0.313,-0.04C0.345,-0.04 0.373,-0.048 0.397,-0.064C0.421,-0.08 0.44,-0.103 0.454,-0.134C0.467,-0.165 0.474,-0.199 0.474,-0.236C0.474,-0.267 0.468,-0.295 0.456,-0.321C0.444,-0.347 0.426,-0.367 0.401,-0.382C0.376,-0.397 0.349,-0.405 0.321,-0.405C0.304,-0.405 0.287,-0.402 0.271,-0.396C0.255,-0.39 0.24,-0.381 0.225,-0.369C0.211,-0.357 0.201,-0.346 0.195,-0.336C0.189,-0.325 0.185,-0.316 0.185,-0.309C0.185,-0.302 0.185,-0.295 0.185,-0.286L0.185,-0.097Z" style="fill-rule:nonzero;"/>
        </g>
        <g transform="matrix(37.5,0,0,37.5,327.803,63.8538)">
            <path d="M0.104,-0.331L0.084,-0.336L0.081,-0.341L0.081,-0.401C0.139,-0.444 0.195,-0.466 0.25,-0.466C0.287,-0.466 0.318,-0.459 0.343,-0.445C0.368,-0.431 0.385,-0.413 0.396,-0.392C0.408,-0.371 0.413,-0.347 0.413,-0.319L0.411,-0.221L0.411,-0.075C0.411,-0.055 0.412,-0.043 0.415,-0.039C0.418,-0.035 0.421,-0.032 0.424,-0.031C0.428,-0.029 0.435,-0.028 0.444,-0.027L0.472,-0.024L0.476,-0.02L0.476,-0L0.472,0.003C0.448,0.001 0.426,0 0.406,0C0.386,0 0.363,0.001 0.335,0.003L0.328,-0.003L0.33,-0.082L0.224,0.001C0.206,0.008 0.186,0.012 0.165,0.012C0.139,0.012 0.117,0.007 0.098,-0.002C0.079,-0.011 0.065,-0.025 0.055,-0.042C0.045,-0.058 0.04,-0.079 0.04,-0.103C0.04,-0.151 0.055,-0.188 0.085,-0.215C0.115,-0.242 0.197,-0.265 0.33,-0.284C0.33,-0.332 0.319,-0.366 0.298,-0.385C0.276,-0.405 0.248,-0.415 0.211,-0.415C0.193,-0.415 0.175,-0.412 0.16,-0.407C0.144,-0.401 0.136,-0.397 0.133,-0.393C0.131,-0.39 0.122,-0.37 0.107,-0.333L0.104,-0.331ZM0.33,-0.254C0.239,-0.239 0.182,-0.222 0.16,-0.205C0.137,-0.187 0.126,-0.16 0.126,-0.123C0.126,-0.072 0.151,-0.047 0.202,-0.047C0.245,-0.047 0.288,-0.072 0.33,-0.122L0.33,-0.254Z" style="fill-rule:nonzero;"/>
        </g>
        <g transform="matrix(37.5,0,0,37.5,346.553,63.8538)">
            <path d="M0.022,-0.383L0.022,-0.396L0.026,-0.401C0.056,-0.412 0.081,-0.423 0.1,-0.433C0.1,-0.518 0.099,-0.567 0.097,-0.581C0.131,-0.593 0.158,-0.605 0.18,-0.619L0.191,-0.609C0.188,-0.588 0.184,-0.529 0.18,-0.43C0.196,-0.43 0.214,-0.43 0.232,-0.43C0.271,-0.43 0.298,-0.431 0.315,-0.433L0.318,-0.429L0.309,-0.388L0.305,-0.384C0.289,-0.384 0.27,-0.384 0.25,-0.384C0.232,-0.384 0.208,-0.384 0.18,-0.384L0.177,-0.185C0.177,-0.139 0.178,-0.109 0.18,-0.095C0.182,-0.081 0.188,-0.07 0.198,-0.062C0.207,-0.054 0.221,-0.05 0.24,-0.05C0.262,-0.05 0.282,-0.056 0.301,-0.067L0.313,-0.049C0.305,-0.044 0.286,-0.028 0.256,-0C0.239,0.007 0.222,0.011 0.205,0.011C0.131,0.011 0.095,-0.024 0.095,-0.095C0.095,-0.121 0.095,-0.143 0.097,-0.162C0.097,-0.167 0.097,-0.173 0.097,-0.179L0.097,-0.381L0.077,-0.381C0.063,-0.381 0.046,-0.381 0.027,-0.379L0.022,-0.383Z" style="fill-rule:nonzero;"/>
        </g>
        <g transform="matrix(37.5,0,0,37.5,358.784,63.8538)">
            <path d="M0.141,-0.684C0.156,-0.684 0.169,-0.678 0.18,-0.667C0.19,-0.657 0.196,-0.644 0.196,-0.628C0.196,-0.613 0.19,-0.601 0.18,-0.59C0.169,-0.579 0.156,-0.574 0.141,-0.574C0.126,-0.574 0.113,-0.579 0.102,-0.59C0.091,-0.6 0.085,-0.613 0.085,-0.628C0.085,-0.644 0.091,-0.657 0.102,-0.667C0.113,-0.678 0.126,-0.684 0.141,-0.684ZM0.182,-0.465L0.191,-0.459C0.188,-0.416 0.186,-0.362 0.186,-0.296L0.186,-0.186C0.186,-0.179 0.187,-0.156 0.188,-0.117C0.189,-0.078 0.191,-0.055 0.192,-0.049C0.194,-0.042 0.196,-0.038 0.199,-0.035C0.202,-0.032 0.205,-0.03 0.209,-0.029C0.214,-0.028 0.231,-0.027 0.262,-0.025L0.267,-0.021L0.267,-0L0.263,0.004C0.222,0.001 0.183,-0 0.145,-0C0.108,-0 0.069,0.001 0.028,0.004L0.023,-0L0.023,-0.021L0.028,-0.025C0.059,-0.027 0.077,-0.028 0.081,-0.029C0.085,-0.03 0.089,-0.032 0.092,-0.035C0.095,-0.038 0.097,-0.043 0.098,-0.05C0.1,-0.056 0.101,-0.077 0.102,-0.113C0.104,-0.148 0.104,-0.175 0.104,-0.193L0.104,-0.29C0.104,-0.303 0.104,-0.32 0.103,-0.343C0.101,-0.365 0.1,-0.379 0.099,-0.384C0.099,-0.389 0.096,-0.393 0.092,-0.396C0.088,-0.398 0.079,-0.399 0.066,-0.399L0.025,-0.4L0.021,-0.404L0.021,-0.425L0.025,-0.429C0.087,-0.436 0.139,-0.448 0.182,-0.465Z" style="fill-rule:nonzero;"/>
        </g>
        <g transform="matrix(37.5,0,0,37.5,369.697,63.8538)">
            <path d="M0.104,-0.331L0.084,-0.336L0.081,-0.341L0.081,-0.401C0.139,-0.444 0.195,-0.466 0.25,-0.466C0.287,-0.466 0.318,-0.459 0.343,-0.445C0.368,-0.431 0.385,-0.413 0.396,-0.392C0.408,-0.371 0.413,-0.347 0.413,-0.319L0.411,-0.221L0.411,-0.075C0.411,-0.055 0.412,-0.043 0.415,-0.039C0.418,-0.035 0.421,-0.032 0.424,-0.031C0.428,-0.029 0.435,-0.028 0.444,-0.027L0.472,-0.024L0.476,-0.02L0.476,-0L0.472,0.003C0.448,0.001 0.426,0 0.406,0C0.386,0 0.363,0.001 0.335,0.003L0.328,-0.003L0.33,-0.082L0.224,0.001C0.206,0.008 0.186,0.012 0.165,0.012C0.139,0.012 0.117,0.007 0.098,-0.002C0.079,-0.011 0.065,-0.025 0.055,-0.042C0.045,-0.058 0.04,-0.079 0.04,-0.103C0.04,-0.151 0.055,-0.188 0.085,-0.215C0.115,-0.242 0.197,-0.265 0.33,-0.284C0.33,-0.332 0.319,-0.366 0.298,-0.385C0.276,-0.405 0.248,-0.415 0.211,-0.415C0.193,-0.415 0.175,-0.412 0.16,-0.407C0.144,-0.401 0.136,-0.397 0.133,-0.393C0.131,-0.39 0.122,-0.37 0.107,-0.333L0.104,-0.331ZM0.33,-0.254C0.239,-0.239 0.182,-0.222 0.16,-0.205C0.137,-0.187 0.126,-0.16 0.126,-0.123C0.126,-0.072 0.151,-0.047 0.202,-0.047C0.245,-0.047 0.288,-0.072 0.33,-0.122L0.33,-0.254Z" style="fill-rule:nonzero;"/>
        </g>
        <g transform="matrix(37.5,0,0,37.5,388.447,63.8538)">
            <path d="M0.183,-0.723L0.192,-0.717C0.188,-0.68 0.187,-0.605 0.187,-0.492L0.187,-0.186C0.187,-0.179 0.187,-0.156 0.188,-0.117C0.19,-0.078 0.191,-0.055 0.193,-0.049C0.194,-0.042 0.196,-0.038 0.199,-0.035C0.202,-0.032 0.206,-0.03 0.21,-0.029C0.214,-0.028 0.232,-0.027 0.263,-0.025L0.267,-0.021L0.267,-0L0.263,0.004C0.222,0.001 0.183,-0 0.146,-0C0.108,-0 0.069,0.001 0.028,0.004L0.024,-0L0.024,-0.021L0.028,-0.025C0.06,-0.027 0.078,-0.028 0.082,-0.029C0.086,-0.03 0.089,-0.032 0.093,-0.035C0.096,-0.038 0.098,-0.043 0.099,-0.05C0.1,-0.056 0.101,-0.077 0.103,-0.113C0.104,-0.148 0.105,-0.175 0.105,-0.193L0.105,-0.446L0.103,-0.55C0.102,-0.586 0.101,-0.611 0.1,-0.625C0.099,-0.639 0.097,-0.647 0.095,-0.65C0.093,-0.653 0.09,-0.654 0.085,-0.656C0.08,-0.657 0.06,-0.658 0.026,-0.658L0.021,-0.662L0.021,-0.683L0.025,-0.687C0.088,-0.694 0.14,-0.706 0.183,-0.723Z" style="fill-rule:nonzero;"/>
        </g>
        <g transform="matrix(37.5,0,0,37.5,408.735,63.8538)">
            <path d="M0.329,-0.662L0.329,-0.683L0.333,-0.687C0.395,-0.694 0.447,-0.706 0.49,-0.723L0.499,-0.717C0.495,-0.68 0.494,-0.605 0.494,-0.492L0.494,-0.172C0.494,-0.139 0.494,-0.111 0.495,-0.086C0.497,-0.062 0.499,-0.047 0.501,-0.042C0.504,-0.038 0.509,-0.034 0.516,-0.031C0.523,-0.028 0.542,-0.026 0.573,-0.023L0.577,-0.019L0.577,-0L0.573,0.004C0.538,0.002 0.51,0 0.491,0C0.473,0 0.448,0.002 0.416,0.004L0.41,-0.001C0.411,-0.033 0.412,-0.056 0.412,-0.068C0.412,-0.07 0.412,-0.076 0.412,-0.087C0.394,-0.074 0.376,-0.059 0.358,-0.043C0.332,-0.02 0.315,-0.005 0.307,0C0.292,0.008 0.27,0.012 0.243,0.012C0.198,0.012 0.16,0.001 0.128,-0.021C0.097,-0.044 0.074,-0.072 0.061,-0.106C0.048,-0.141 0.041,-0.176 0.041,-0.212C0.041,-0.249 0.048,-0.284 0.062,-0.318C0.076,-0.352 0.095,-0.377 0.121,-0.393C0.146,-0.408 0.174,-0.424 0.204,-0.441C0.234,-0.458 0.264,-0.466 0.294,-0.466C0.335,-0.466 0.375,-0.456 0.412,-0.436L0.41,-0.544C0.41,-0.582 0.409,-0.608 0.407,-0.623C0.406,-0.638 0.404,-0.647 0.402,-0.65C0.4,-0.652 0.397,-0.654 0.392,-0.656C0.388,-0.657 0.368,-0.658 0.333,-0.658L0.329,-0.662ZM0.412,-0.352C0.392,-0.375 0.37,-0.392 0.345,-0.404C0.32,-0.416 0.296,-0.422 0.271,-0.422C0.244,-0.422 0.218,-0.415 0.195,-0.4C0.171,-0.385 0.154,-0.363 0.144,-0.334C0.133,-0.305 0.128,-0.273 0.128,-0.239C0.128,-0.182 0.142,-0.137 0.171,-0.102C0.2,-0.068 0.236,-0.05 0.28,-0.05C0.304,-0.05 0.325,-0.056 0.343,-0.067C0.361,-0.078 0.377,-0.092 0.388,-0.111C0.4,-0.129 0.407,-0.148 0.409,-0.167C0.411,-0.185 0.412,-0.219 0.412,-0.269L0.412,-0.352Z" style="fill-rule:nonzero;"/>
        </g>
        <g transform="matrix(37.5,0,0,37.5,431.642,63.8538)">
            <path d="M0.033,-0.224C0.033,-0.262 0.041,-0.3 0.057,-0.336C0.073,-0.372 0.101,-0.403 0.14,-0.429C0.18,-0.455 0.227,-0.468 0.281,-0.468C0.35,-0.468 0.405,-0.447 0.448,-0.404C0.491,-0.36 0.513,-0.305 0.513,-0.237C0.513,-0.163 0.488,-0.101 0.439,-0.053C0.389,-0.005 0.33,0.019 0.26,0.019C0.215,0.019 0.174,0.007 0.138,-0.018C0.102,-0.042 0.076,-0.072 0.059,-0.108C0.042,-0.143 0.033,-0.182 0.033,-0.224ZM0.125,-0.257C0.125,-0.212 0.131,-0.171 0.143,-0.135C0.155,-0.099 0.173,-0.07 0.199,-0.048C0.224,-0.027 0.253,-0.016 0.286,-0.016C0.324,-0.016 0.356,-0.031 0.381,-0.061C0.406,-0.092 0.418,-0.138 0.418,-0.199C0.418,-0.268 0.405,-0.325 0.378,-0.369C0.351,-0.413 0.311,-0.436 0.26,-0.436C0.218,-0.436 0.185,-0.42 0.161,-0.39C0.137,-0.359 0.125,-0.315 0.125,-0.257Z" style="fill-rule:nonzero;"/>
        </g>
        <g transform="matrix(37.5,0,0,37.5,452.113,63.8538)">
            <path d="M0.18,-0.465L0.189,-0.459C0.187,-0.438 0.186,-0.412 0.185,-0.382L0.231,-0.424C0.244,-0.436 0.253,-0.444 0.257,-0.448C0.262,-0.451 0.271,-0.455 0.287,-0.459C0.303,-0.464 0.319,-0.466 0.336,-0.466C0.369,-0.466 0.397,-0.458 0.422,-0.442C0.446,-0.426 0.464,-0.404 0.476,-0.375C0.52,-0.417 0.546,-0.44 0.553,-0.445C0.56,-0.449 0.572,-0.454 0.588,-0.459C0.604,-0.463 0.62,-0.466 0.636,-0.466C0.661,-0.466 0.685,-0.46 0.707,-0.449C0.728,-0.438 0.745,-0.424 0.758,-0.406C0.771,-0.388 0.778,-0.368 0.78,-0.348C0.782,-0.327 0.783,-0.298 0.783,-0.262L0.783,-0.21C0.783,-0.205 0.784,-0.164 0.786,-0.089C0.787,-0.058 0.79,-0.04 0.796,-0.034C0.803,-0.028 0.823,-0.025 0.856,-0.025L0.86,-0.021L0.86,-0L0.856,0.004C0.815,0.001 0.787,-0 0.772,-0C0.764,-0 0.741,0.001 0.702,0.004L0.695,-0.001C0.7,-0.044 0.702,-0.099 0.702,-0.167L0.702,-0.226C0.702,-0.277 0.699,-0.314 0.694,-0.334C0.689,-0.355 0.678,-0.372 0.66,-0.385C0.642,-0.398 0.621,-0.405 0.596,-0.405C0.579,-0.405 0.562,-0.401 0.547,-0.394C0.532,-0.387 0.518,-0.377 0.506,-0.363C0.493,-0.349 0.487,-0.336 0.485,-0.324C0.484,-0.313 0.483,-0.291 0.483,-0.259L0.483,-0.198C0.483,-0.183 0.484,-0.157 0.485,-0.117C0.487,-0.078 0.488,-0.055 0.49,-0.048C0.491,-0.042 0.493,-0.037 0.496,-0.034C0.499,-0.032 0.503,-0.03 0.507,-0.029C0.511,-0.028 0.529,-0.027 0.56,-0.025L0.564,-0.021L0.564,-0L0.56,0.004C0.519,0.001 0.48,-0 0.442,-0C0.408,-0 0.368,0.001 0.325,0.004L0.321,-0L0.321,-0.021L0.325,-0.025C0.357,-0.027 0.375,-0.028 0.379,-0.029C0.383,-0.03 0.386,-0.032 0.389,-0.035C0.392,-0.038 0.395,-0.043 0.396,-0.05C0.397,-0.056 0.398,-0.077 0.4,-0.113C0.401,-0.148 0.402,-0.175 0.402,-0.193L0.402,-0.249C0.402,-0.286 0.399,-0.314 0.394,-0.334C0.389,-0.354 0.378,-0.371 0.362,-0.384C0.345,-0.398 0.324,-0.405 0.299,-0.405C0.28,-0.405 0.262,-0.401 0.246,-0.393C0.23,-0.386 0.217,-0.376 0.206,-0.365C0.196,-0.354 0.19,-0.343 0.187,-0.333C0.185,-0.324 0.184,-0.303 0.184,-0.27L0.184,-0.198C0.184,-0.183 0.184,-0.157 0.186,-0.117C0.187,-0.078 0.188,-0.055 0.19,-0.048C0.191,-0.042 0.193,-0.037 0.197,-0.034C0.2,-0.032 0.203,-0.03 0.207,-0.029C0.211,-0.028 0.229,-0.027 0.26,-0.025L0.264,-0.021L0.264,-0L0.26,0.004C0.22,0.001 0.18,-0 0.143,-0C0.105,-0 0.066,0.001 0.025,0.004L0.021,-0L0.021,-0.021L0.025,-0.025C0.057,-0.027 0.075,-0.028 0.079,-0.029C0.083,-0.03 0.087,-0.032 0.09,-0.035C0.093,-0.038 0.095,-0.043 0.096,-0.05C0.097,-0.056 0.098,-0.077 0.1,-0.113C0.101,-0.148 0.102,-0.175 0.102,-0.193L0.102,-0.29C0.102,-0.303 0.101,-0.32 0.1,-0.343C0.099,-0.365 0.098,-0.379 0.097,-0.384C0.096,-0.389 0.094,-0.393 0.089,-0.396C0.085,-0.398 0.077,-0.399 0.064,-0.399L0.023,-0.4L0.019,-0.404L0.019,-0.425L0.022,-0.429C0.085,-0.436 0.137,-0.448 0.18,-0.465Z" style="fill-rule:nonzero;"/>
        </g>
        <g transform="matrix(37.5,0,0,37.5,485.219,63.8538)">
            <path d="M0.104,-0.331L0.084,-0.336L0.081,-0.341L0.081,-0.401C0.139,-0.444 0.195,-0.466 0.25,-0.466C0.287,-0.466 0.318,-0.459 0.343,-0.445C0.368,-0.431 0.385,-0.413 0.396,-0.392C0.408,-0.371 0.413,-0.347 0.413,-0.319L0.411,-0.221L0.411,-0.075C0.411,-0.055 0.412,-0.043 0.415,-0.039C0.418,-0.035 0.421,-0.032 0.424,-0.031C0.428,-0.029 0.435,-0.028 0.444,-0.027L0.472,-0.024L0.476,-0.02L0.476,-0L0.472,0.003C0.448,0.001 0.426,0 0.406,0C0.386,0 0.363,0.001 0.335,0.003L0.328,-0.003L0.33,-0.082L0.224,0.001C0.206,0.008 0.186,0.012 0.165,0.012C0.139,0.012 0.117,0.007 0.098,-0.002C0.079,-0.011 0.065,-0.025 0.055,-0.042C0.045,-0.058 0.04,-0.079 0.04,-0.103C0.04,-0.151 0.055,-0.188 0.085,-0.215C0.115,-0.242 0.197,-0.265 0.33,-0.284C0.33,-0.332 0.319,-0.366 0.298,-0.385C0.276,-0.405 0.248,-0.415 0.211,-0.415C0.193,-0.415 0.175,-0.412 0.16,-0.407C0.144,-0.401 0.136,-0.397 0.133,-0.393C0.131,-0.39 0.122,-0.37 0.107,-0.333L0.104,-0.331ZM0.33,-0.254C0.239,-0.239 0.182,-0.222 0.16,-0.205C0.137,-0.187 0.126,-0.16 0.126,-0.123C0.126,-0.072 0.151,-0.047 0.202,-0.047C0.245,-0.047 0.288,-0.072 0.33,-0.122L0.33,-0.254Z" style="fill-rule:nonzero;"/>
        </g>
        <g transform="matrix(37.5,0,0,37.5,503.969,63.8538)">
            <path d="M0.141,-0.684C0.156,-0.684 0.169,-0.678 0.18,-0.667C0.19,-0.657 0.196,-0.644 0.196,-0.628C0.196,-0.613 0.19,-0.601 0.18,-0.59C0.169,-0.579 0.156,-0.574 0.141,-0.574C0.126,-0.574 0.113,-0.579 0.102,-0.59C0.091,-0.6 0.085,-0.613 0.085,-0.628C0.085,-0.644 0.091,-0.657 0.102,-0.667C0.113,-0.678 0.126,-0.684 0.141,-0.684ZM0.182,-0.465L0.191,-0.459C0.188,-0.416 0.186,-0.362 0.186,-0.296L0.186,-0.186C0.186,-0.179 0.187,-0.156 0.188,-0.117C0.189,-0.078 0.191,-0.055 0.192,-0.049C0.194,-0.042 0.196,-0.038 0.199,-0.035C0.202,-0.032 0.205,-0.03 0.209,-0.029C0.214,-0.028 0.231,-0.027 0.262,-0.025L0.267,-0.021L0.267,-0L0.263,0.004C0.222,0.001 0.183,-0 0.145,-0C0.108,-0 0.069,0.001 0.028,0.004L0.023,-0L0.023,-0.021L0.028,-0.025C0.059,-0.027 0.077,-0.028 0.081,-0.029C0.085,-0.03 0.089,-0.032 0.092,-0.035C0.095,-0.038 0.097,-0.043 0.098,-0.05C0.1,-0.056 0.101,-0.077 0.102,-0.113C0.104,-0.148 0.104,-0.175 0.104,-0.193L0.104,-0.29C0.104,-0.303 0.104,-0.32 0.103,-0.343C0.101,-0.365 0.1,-0.379 0.099,-0.384C0.099,-0.389 0.096,-0.393 0.092,-0.396C0.088,-0.398 0.079,-0.399 0.066,-0.399L0.025,-0.4L0.021,-0.404L0.021,-0.425L0.025,-0.429C0.087,-0.436 0.139,-0.448 0.182,-0.465Z" style="fill-rule:nonzero;"/>
        </g>
        <g transform="matrix(37.5,0,0,37.5,514.882,63.8538)">
            <path d="M0.167,-0.465L0.176,-0.459C0.174,-0.437 0.173,-0.409 0.172,-0.373C0.198,-0.395 0.223,-0.416 0.247,-0.438C0.253,-0.445 0.26,-0.449 0.266,-0.452C0.272,-0.455 0.282,-0.458 0.296,-0.461C0.31,-0.465 0.324,-0.466 0.339,-0.466C0.364,-0.466 0.388,-0.461 0.411,-0.451C0.434,-0.441 0.452,-0.429 0.464,-0.415C0.476,-0.401 0.484,-0.385 0.488,-0.366C0.493,-0.347 0.495,-0.324 0.495,-0.296L0.495,-0.21C0.495,-0.205 0.496,-0.164 0.498,-0.089C0.498,-0.058 0.502,-0.04 0.508,-0.034C0.514,-0.028 0.534,-0.025 0.568,-0.025L0.572,-0.021L0.572,-0L0.568,0.004C0.527,0.001 0.499,-0 0.484,-0C0.476,-0 0.452,0.001 0.413,0.004L0.407,-0.001C0.411,-0.044 0.414,-0.099 0.414,-0.167L0.414,-0.231C0.414,-0.269 0.413,-0.297 0.411,-0.314C0.409,-0.331 0.404,-0.346 0.395,-0.36C0.385,-0.374 0.373,-0.385 0.358,-0.392C0.343,-0.4 0.324,-0.404 0.303,-0.404C0.286,-0.404 0.272,-0.402 0.26,-0.399C0.248,-0.395 0.234,-0.388 0.219,-0.378C0.204,-0.367 0.193,-0.357 0.186,-0.348C0.179,-0.339 0.175,-0.33 0.173,-0.322C0.172,-0.314 0.171,-0.297 0.171,-0.271L0.171,-0.186C0.171,-0.179 0.172,-0.156 0.173,-0.117C0.174,-0.078 0.176,-0.055 0.177,-0.049C0.178,-0.042 0.181,-0.038 0.184,-0.035C0.187,-0.032 0.19,-0.03 0.194,-0.029C0.199,-0.028 0.216,-0.027 0.247,-0.025L0.251,-0.021L0.251,-0L0.248,0.004C0.207,0.001 0.168,-0 0.13,-0C0.092,-0 0.053,0.001 0.013,0.004L0.008,-0L0.008,-0.021L0.013,-0.025C0.044,-0.027 0.062,-0.028 0.066,-0.029C0.07,-0.03 0.074,-0.032 0.077,-0.035C0.08,-0.038 0.082,-0.043 0.083,-0.05C0.084,-0.056 0.086,-0.077 0.087,-0.113C0.089,-0.148 0.089,-0.175 0.089,-0.193L0.089,-0.29C0.089,-0.303 0.089,-0.32 0.087,-0.343C0.086,-0.365 0.085,-0.379 0.084,-0.384C0.083,-0.389 0.081,-0.393 0.077,-0.396C0.072,-0.398 0.064,-0.399 0.051,-0.399L0.01,-0.4L0.006,-0.404L0.006,-0.425L0.01,-0.429C0.072,-0.436 0.124,-0.448 0.167,-0.465Z" style="fill-rule:nonzero;"/>
        </g>
    </g>
    <g transform="matrix(1,0,0,1,473.295,-25.6297)">
        <g transform="matrix(37.5,0,0,37.5,281.675,63.8538)">
            <path d="M0.213,-0.329L0.213,-0.23L0.213,-0.135C0.214,-0.099 0.215,-0.076 0.216,-0.064C0.218,-0.053 0.22,-0.045 0.223,-0.042C0.226,-0.038 0.232,-0.035 0.241,-0.033C0.25,-0.031 0.272,-0.029 0.306,-0.027L0.31,-0.024L0.31,-0L0.306,0.004C0.223,0.001 0.177,-0 0.166,-0C0.156,-0 0.109,0.001 0.026,0.004L0.022,-0L0.022,-0.024L0.026,-0.027C0.057,-0.029 0.077,-0.03 0.087,-0.032C0.097,-0.034 0.104,-0.037 0.107,-0.04C0.111,-0.043 0.113,-0.05 0.115,-0.06C0.118,-0.069 0.119,-0.091 0.119,-0.126L0.12,-0.23L0.12,-0.456L0.119,-0.551C0.118,-0.588 0.117,-0.612 0.116,-0.623C0.115,-0.634 0.112,-0.641 0.109,-0.645C0.106,-0.648 0.1,-0.651 0.091,-0.653C0.083,-0.656 0.061,-0.657 0.026,-0.659L0.022,-0.662L0.022,-0.687L0.026,-0.69C0.164,-0.688 0.245,-0.687 0.268,-0.687C0.346,-0.687 0.425,-0.688 0.506,-0.69L0.51,-0.687C0.505,-0.67 0.502,-0.652 0.5,-0.631C0.498,-0.61 0.497,-0.581 0.495,-0.543L0.491,-0.54L0.468,-0.54L0.464,-0.543C0.464,-0.546 0.462,-0.558 0.46,-0.581C0.458,-0.599 0.456,-0.615 0.452,-0.63C0.418,-0.642 0.372,-0.647 0.312,-0.647C0.285,-0.647 0.254,-0.646 0.218,-0.642C0.215,-0.616 0.213,-0.554 0.213,-0.456L0.213,-0.372C0.254,-0.371 0.282,-0.371 0.297,-0.371C0.325,-0.371 0.349,-0.372 0.369,-0.374C0.389,-0.376 0.4,-0.378 0.404,-0.38C0.408,-0.382 0.411,-0.385 0.413,-0.391C0.415,-0.396 0.417,-0.408 0.419,-0.426L0.422,-0.453L0.426,-0.457L0.451,-0.457L0.455,-0.452L0.451,-0.345C0.451,-0.333 0.452,-0.315 0.453,-0.292C0.454,-0.265 0.455,-0.244 0.455,-0.229L0.45,-0.226L0.426,-0.226L0.422,-0.229L0.42,-0.271C0.419,-0.287 0.418,-0.299 0.416,-0.307C0.413,-0.314 0.41,-0.319 0.404,-0.321C0.399,-0.324 0.388,-0.326 0.37,-0.328C0.352,-0.33 0.324,-0.331 0.287,-0.331C0.254,-0.331 0.229,-0.33 0.213,-0.329Z" style="fill-rule:nonzero;"/>
        </g>
        <g transform="matrix(37.5,0,0,37.5,302.531,63.8538)">
            <path d="M0.033,-0.224C0.033,-0.262 0.041,-0.3 0.057,-0.336C0.073,-0.372 0.101,-0.403 0.14,-0.429C0.18,-0.455 0.227,-0.468 0.281,-0.468C0.35,-0.468 0.405,-0.447 0.448,-0.404C0.491,-0.36 0.513,-0.305 0.513,-0.237C0.513,-0.163 0.488,-0.101 0.439,-0.053C0.389,-0.005 0.33,0.019 0.26,0.019C0.215,0.019 0.174,0.007 0.138,-0.018C0.102,-0.042 0.076,-0.072 0.059,-0.108C0.042,-0.143 0.033,-0.182 0.033,-0.224ZM0.125,-0.257C0.125,-0.212 0.131,-0.171 0.143,-0.135C0.155,-0.099 0.173,-0.07 0.199,-0.048C0.224,-0.027 0.253,-0.016 0.286,-0.016C0.324,-0.016 0.356,-0.031 0.381,-0.061C0.406,-0.092 0.418,-0.138 0.418,-0.199C0.418,-0.268 0.405,-0.325 0.378,-0.369C0.351,-0.413 0.311,-0.436 0.26,-0.436C0.218,-0.436 0.185,-0.42 0.161,-0.39C0.137,-0.359 0.125,-0.315 0.125,-0.257Z" style="fill-rule:nonzero;"/>
        </g>
        <g transform="matrix(37.5,0,0,37.5,323.002,63.8538)">
            <path d="M0.169,-0.465L0.178,-0.459C0.175,-0.416 0.173,-0.362 0.173,-0.296L0.173,-0.183C0.173,-0.141 0.176,-0.112 0.182,-0.096C0.189,-0.079 0.2,-0.067 0.215,-0.058C0.231,-0.05 0.25,-0.045 0.271,-0.045C0.295,-0.045 0.316,-0.05 0.336,-0.059C0.355,-0.069 0.372,-0.082 0.385,-0.099C0.398,-0.116 0.406,-0.127 0.408,-0.133C0.41,-0.139 0.411,-0.155 0.412,-0.182L0.413,-0.237L0.413,-0.29C0.413,-0.303 0.412,-0.32 0.411,-0.343C0.41,-0.365 0.409,-0.379 0.408,-0.384C0.407,-0.389 0.405,-0.393 0.4,-0.396C0.396,-0.398 0.388,-0.399 0.375,-0.399L0.334,-0.4L0.33,-0.404L0.33,-0.425L0.333,-0.429C0.396,-0.436 0.448,-0.448 0.491,-0.465L0.5,-0.459C0.496,-0.416 0.495,-0.362 0.495,-0.296L0.495,-0.21C0.495,-0.206 0.495,-0.166 0.497,-0.091C0.498,-0.063 0.499,-0.046 0.502,-0.04C0.505,-0.034 0.509,-0.03 0.514,-0.028C0.519,-0.025 0.533,-0.024 0.557,-0.024L0.571,-0.024L0.575,-0.02L0.575,-0L0.571,0.004C0.525,0.001 0.495,-0 0.479,-0C0.459,-0 0.436,0.001 0.41,0.003L0.406,-0C0.408,-0.034 0.409,-0.062 0.41,-0.085C0.39,-0.069 0.366,-0.048 0.34,-0.021C0.33,-0.011 0.315,-0.002 0.296,0.004C0.278,0.011 0.256,0.015 0.232,0.015C0.195,0.015 0.167,0.009 0.147,-0.003C0.126,-0.014 0.112,-0.03 0.104,-0.051C0.095,-0.071 0.091,-0.106 0.091,-0.156L0.091,-0.194L0.091,-0.29C0.091,-0.303 0.091,-0.32 0.089,-0.343C0.088,-0.365 0.087,-0.379 0.086,-0.384C0.085,-0.389 0.083,-0.393 0.079,-0.396C0.074,-0.398 0.066,-0.399 0.053,-0.399L0.012,-0.4L0.008,-0.404L0.008,-0.425L0.012,-0.429C0.074,-0.436 0.126,-0.448 0.169,-0.465Z" style="fill-rule:nonzero;"/>
        </g>
        <g transform="matrix(37.5,0,0,37.5,345.616,63.8538)">
            <path d="M0.188,-0.465L0.197,-0.459C0.195,-0.44 0.193,-0.407 0.192,-0.358L0.229,-0.405C0.241,-0.42 0.252,-0.432 0.261,-0.44C0.27,-0.448 0.281,-0.455 0.293,-0.459C0.306,-0.464 0.319,-0.466 0.332,-0.466C0.346,-0.466 0.359,-0.463 0.372,-0.458L0.375,-0.451C0.37,-0.407 0.367,-0.369 0.367,-0.336L0.345,-0.336C0.332,-0.366 0.311,-0.381 0.282,-0.381C0.262,-0.381 0.244,-0.375 0.229,-0.362C0.214,-0.349 0.204,-0.333 0.199,-0.314C0.194,-0.294 0.191,-0.27 0.191,-0.24L0.191,-0.186C0.191,-0.176 0.192,-0.152 0.193,-0.114C0.195,-0.076 0.196,-0.054 0.198,-0.048C0.199,-0.042 0.201,-0.038 0.204,-0.035C0.207,-0.033 0.212,-0.031 0.217,-0.03C0.222,-0.029 0.245,-0.027 0.286,-0.025L0.291,-0.021L0.291,-0L0.286,0.004C0.243,0.001 0.198,-0 0.15,-0C0.113,-0 0.074,0.001 0.033,0.004L0.029,-0L0.029,-0.021L0.033,-0.025C0.065,-0.027 0.083,-0.028 0.087,-0.029C0.091,-0.03 0.094,-0.032 0.097,-0.035C0.101,-0.038 0.103,-0.043 0.104,-0.05C0.105,-0.056 0.106,-0.077 0.108,-0.113C0.109,-0.148 0.11,-0.175 0.11,-0.193L0.11,-0.29C0.11,-0.303 0.109,-0.32 0.108,-0.343C0.107,-0.365 0.106,-0.379 0.105,-0.384C0.104,-0.389 0.101,-0.393 0.097,-0.396C0.093,-0.398 0.084,-0.399 0.072,-0.399L0.031,-0.4L0.026,-0.404L0.026,-0.425L0.03,-0.429C0.092,-0.436 0.145,-0.448 0.188,-0.465Z" style="fill-rule:nonzero;"/>
        </g>
        <g transform="matrix(37.5,0,0,37.5,360.429,63.8538)">
            <path d="M0.141,-0.684C0.156,-0.684 0.169,-0.678 0.18,-0.667C0.19,-0.657 0.196,-0.644 0.196,-0.628C0.196,-0.613 0.19,-0.601 0.18,-0.59C0.169,-0.579 0.156,-0.574 0.141,-0.574C0.126,-0.574 0.113,-0.579 0.102,-0.59C0.091,-0.6 0.085,-0.613 0.085,-0.628C0.085,-0.644 0.091,-0.657 0.102,-0.667C0.113,-0.678 0.126,-0.684 0.141,-0.684ZM0.182,-0.465L0.191,-0.459C0.188,-0.416 0.186,-0.362 0.186,-0.296L0.186,-0.186C0.186,-0.179 0.187,-0.156 0.188,-0.117C0.189,-0.078 0.191,-0.055 0.192,-0.049C0.194,-0.042 0.196,-0.038 0.199,-0.035C0.202,-0.032 0.205,-0.03 0.209,-0.029C0.214,-0.028 0.231,-0.027 0.262,-0.025L0.267,-0.021L0.267,-0L0.263,0.004C0.222,0.001 0.183,-0 0.145,-0C0.108,-0 0.069,0.001 0.028,0.004L0.023,-0L0.023,-0.021L0.028,-0.025C0.059,-0.027 0.077,-0.028 0.081,-0.029C0.085,-0.03 0.089,-0.032 0.092,-0.035C0.095,-0.038 0.097,-0.043 0.098,-0.05C0.1,-0.056 0.101,-0.077 0.102,-0.113C0.104,-0.148 0.104,-0.175 0.104,-0.193L0.104,-0.29C0.104,-0.303 0.104,-0.32 0.103,-0.343C0.101,-0.365 0.1,-0.379 0.099,-0.384C0.099,-0.389 0.096,-0.393 0.092,-0.396C0.088,-0.398 0.079,-0.399 0.066,-0.399L0.025,-0.4L0.021,-0.404L0.021,-0.425L0.025,-0.429C0.087,-0.436 0.139,-0.448 0.182,-0.465Z" style="fill-rule:nonzero;"/>
        </g>
        <g transform="matrix(37.5,0,0,37.5,371.342,63.8538)">
            <path d="M0.432,-0.072L0.416,-0.037C0.382,-0.015 0.352,-0.001 0.325,0.006C0.299,0.012 0.275,0.016 0.254,0.016C0.215,0.016 0.178,0.008 0.143,-0.007C0.108,-0.023 0.08,-0.049 0.058,-0.085C0.036,-0.121 0.025,-0.165 0.025,-0.217C0.025,-0.251 0.029,-0.282 0.038,-0.309C0.046,-0.337 0.055,-0.357 0.064,-0.371C0.073,-0.384 0.089,-0.399 0.111,-0.415C0.133,-0.431 0.157,-0.444 0.182,-0.454C0.206,-0.464 0.233,-0.469 0.262,-0.469C0.301,-0.469 0.335,-0.46 0.365,-0.441C0.395,-0.423 0.416,-0.399 0.428,-0.371C0.44,-0.342 0.446,-0.312 0.446,-0.279C0.446,-0.269 0.445,-0.259 0.444,-0.25L0.439,-0.245C0.417,-0.24 0.387,-0.236 0.35,-0.235C0.312,-0.233 0.287,-0.232 0.275,-0.232L0.119,-0.232C0.119,-0.165 0.136,-0.115 0.169,-0.083C0.203,-0.052 0.243,-0.036 0.292,-0.036C0.314,-0.036 0.336,-0.04 0.357,-0.047C0.378,-0.055 0.4,-0.066 0.424,-0.08L0.432,-0.072ZM0.119,-0.271C0.125,-0.271 0.147,-0.269 0.186,-0.268C0.226,-0.267 0.255,-0.266 0.273,-0.266C0.319,-0.266 0.346,-0.267 0.356,-0.269C0.356,-0.276 0.356,-0.282 0.356,-0.287C0.356,-0.337 0.346,-0.375 0.326,-0.399C0.305,-0.424 0.277,-0.436 0.242,-0.436C0.203,-0.436 0.173,-0.422 0.151,-0.395C0.129,-0.367 0.119,-0.326 0.119,-0.271Z" style="fill-rule:nonzero;"/>
        </g>
        <g transform="matrix(37.5,0,0,37.5,389.305,63.8538)">
            <path d="M0.188,-0.465L0.197,-0.459C0.195,-0.44 0.193,-0.407 0.192,-0.358L0.229,-0.405C0.241,-0.42 0.252,-0.432 0.261,-0.44C0.27,-0.448 0.281,-0.455 0.293,-0.459C0.306,-0.464 0.319,-0.466 0.332,-0.466C0.346,-0.466 0.359,-0.463 0.372,-0.458L0.375,-0.451C0.37,-0.407 0.367,-0.369 0.367,-0.336L0.345,-0.336C0.332,-0.366 0.311,-0.381 0.282,-0.381C0.262,-0.381 0.244,-0.375 0.229,-0.362C0.214,-0.349 0.204,-0.333 0.199,-0.314C0.194,-0.294 0.191,-0.27 0.191,-0.24L0.191,-0.186C0.191,-0.176 0.192,-0.152 0.193,-0.114C0.195,-0.076 0.196,-0.054 0.198,-0.048C0.199,-0.042 0.201,-0.038 0.204,-0.035C0.207,-0.033 0.212,-0.031 0.217,-0.03C0.222,-0.029 0.245,-0.027 0.286,-0.025L0.291,-0.021L0.291,-0L0.286,0.004C0.243,0.001 0.198,-0 0.15,-0C0.113,-0 0.074,0.001 0.033,0.004L0.029,-0L0.029,-0.021L0.033,-0.025C0.065,-0.027 0.083,-0.028 0.087,-0.029C0.091,-0.03 0.094,-0.032 0.097,-0.035C0.101,-0.038 0.103,-0.043 0.104,-0.05C0.105,-0.056 0.106,-0.077 0.108,-0.113C0.109,-0.148 0.11,-0.175 0.11,-0.193L0.11,-0.29C0.11,-0.303 0.109,-0.32 0.108,-0.343C0.107,-0.365 0.106,-0.379 0.105,-0.384C0.104,-0.389 0.101,-0.393 0.097,-0.396C0.093,-0.398 0.084,-0.399 0.072,-0.399L0.031,-0.4L0.026,-0.404L0.026,-0.425L0.03,-0.429C0.092,-0.436 0.145,-0.448 0.188,-0.465Z" style="fill-rule:nonzero;"/>
        </g>
        <g transform="matrix(37.5,0,0,37.5,413.493,63.8538)">
            <path d="M0.329,-0.662L0.329,-0.683L0.333,-0.687C0.395,-0.694 0.447,-0.706 0.49,-0.723L0.499,-0.717C0.495,-0.68 0.494,-0.605 0.494,-0.492L0.494,-0.172C0.494,-0.139 0.494,-0.111 0.495,-0.086C0.497,-0.062 0.499,-0.047 0.501,-0.042C0.504,-0.038 0.509,-0.034 0.516,-0.031C0.523,-0.028 0.542,-0.026 0.573,-0.023L0.577,-0.019L0.577,-0L0.573,0.004C0.538,0.002 0.51,0 0.491,0C0.473,0 0.448,0.002 0.416,0.004L0.41,-0.001C0.411,-0.033 0.412,-0.056 0.412,-0.068C0.412,-0.07 0.412,-0.076 0.412,-0.087C0.394,-0.074 0.376,-0.059 0.358,-0.043C0.332,-0.02 0.315,-0.005 0.307,0C0.292,0.008 0.27,0.012 0.243,0.012C0.198,0.012 0.16,0.001 0.128,-0.021C0.097,-0.044 0.074,-0.072 0.061,-0.106C0.048,-0.141 0.041,-0.176 0.041,-0.212C0.041,-0.249 0.048,-0.284 0.062,-0.318C0.076,-0.352 0.095,-0.377 0.121,-0.393C0.146,-0.408 0.174,-0.424 0.204,-0.441C0.234,-0.458 0.264,-0.466 0.294,-0.466C0.335,-0.466 0.375,-0.456 0.412,-0.436L0.41,-0.544C0.41,-0.582 0.409,-0.608 0.407,-0.623C0.406,-0.638 0.404,-0.647 0.402,-0.65C0.4,-0.652 0.397,-0.654 0.392,-0.656C0.388,-0.657 0.368,-0.658 0.333,-0.658L0.329,-0.662ZM0.412,-0.352C0.392,-0.375 0.37,-0.392 0.345,-0.404C0.32,-0.416 0.296,-0.422 0.271,-0.422C0.244,-0.422 0.218,-0.415 0.195,-0.4C0.171,-0.385 0.154,-0.363 0.144,-0.334C0.133,-0.305 0.128,-0.273 0.128,-0.239C0.128,-0.182 0.142,-0.137 0.171,-0.102C0.2,-0.068 0.236,-0.05 0.28,-0.05C0.304,-0.05 0.325,-0.056 0.343,-0.067C0.361,-0.078 0.377,-0.092 0.388,-0.111C0.4,-0.129 0.407,-0.148 0.409,-0.167C0.411,-0.185 0.412,-0.219 0.412,-0.269L0.412,-0.352Z" style="fill-rule:nonzero;"/>
        </g>
        <g transform="matrix(37.5,0,0,37.5,436.399,63.8538)">
            <path d="M0.033,-0.224C0.033,-0.262 0.041,-0.3 0.057,-0.336C0.073,-0.372 0.101,-0.403 0.14,-0.429C0.18,-0.455 0.227,-0.468 0.281,-0.468C0.35,-0.468 0.405,-0.447 0.448,-0.404C0.491,-0.36 0.513,-0.305 0.513,-0.237C0.513,-0.163 0.488,-0.101 0.439,-0.053C0.389,-0.005 0.33,0.019 0.26,0.019C0.215,0.019 0.174,0.007 0.138,-0.018C0.102,-0.042 0.076,-0.072 0.059,-0.108C0.042,-0.143 0.033,-0.182 0.033,-0.224ZM0.125,-0.257C0.125,-0.212 0.131,-0.171 0.143,-0.135C0.155,-0.099 0.173,-0.07 0.199,-0.048C0.224,-0.027 0.253,-0.016 0.286,-0.016C0.324,-0.016 0.356,-0.031 0.381,-0.061C0.406,-0.092 0.418,-0.138 0.418,-0.199C0.418,-0.268 0.405,-0.325 0.378,-0.369C0.351,-0.413 0.311,-0.436 0.26,-0.436C0.218,-0.436 0.185,-0.42 0.161,-0.39C0.137,-0.359 0.125,-0.315 0.125,-0.257Z" style="fill-rule:nonzero;"/>
        </g>
        <g transform="matrix(37.5,0,0,37.5,456.871,63.8538)">
            <path d="M0.18,-0.465L0.189,-0.459C0.187,-0.438 0.186,-0.412 0.185,-0.382L0.231,-0.424C0.244,-0.436 0.253,-0.444 0.257,-0.448C0.262,-0.451 0.271,-0.455 0.287,-0.459C0.303,-0.464 0.319,-0.466 0.336,-0.466C0.369,-0.466 0.397,-0.458 0.422,-0.442C0.446,-0.426 0.464,-0.404 0.476,-0.375C0.52,-0.417 0.546,-0.44 0.553,-0.445C0.56,-0.449 0.572,-0.454 0.588,-0.459C0.604,-0.463 0.62,-0.466 0.636,-0.466C0.661,-0.466 0.685,-0.46 0.707,-0.449C0.728,-0.438 0.745,-0.424 0.758,-0.406C0.771,-0.388 0.778,-0.368 0.78,-0.348C0.782,-0.327 0.783,-0.298 0.783,-0.262L0.783,-0.21C0.783,-0.205 0.784,-0.164 0.786,-0.089C0.787,-0.058 0.79,-0.04 0.796,-0.034C0.803,-0.028 0.823,-0.025 0.856,-0.025L0.86,-0.021L0.86,-0L0.856,0.004C0.815,0.001 0.787,-0 0.772,-0C0.764,-0 0.741,0.001 0.702,0.004L0.695,-0.001C0.7,-0.044 0.702,-0.099 0.702,-0.167L0.702,-0.226C0.702,-0.277 0.699,-0.314 0.694,-0.334C0.689,-0.355 0.678,-0.372 0.66,-0.385C0.642,-0.398 0.621,-0.405 0.596,-0.405C0.579,-0.405 0.562,-0.401 0.547,-0.394C0.532,-0.387 0.518,-0.377 0.506,-0.363C0.493,-0.349 0.487,-0.336 0.485,-0.324C0.484,-0.313 0.483,-0.291 0.483,-0.259L0.483,-0.198C0.483,-0.183 0.484,-0.157 0.485,-0.117C0.487,-0.078 0.488,-0.055 0.49,-0.048C0.491,-0.042 0.493,-0.037 0.496,-0.034C0.499,-0.032 0.503,-0.03 0.507,-0.029C0.511,-0.028 0.529,-0.027 0.56,-0.025L0.564,-0.021L0.564,-0L0.56,0.004C0.519,0.001 0.48,-0 0.442,-0C0.408,-0 0.368,0.001 0.325,0.004L0.321,-0L0.321,-0.021L0.325,-0.025C0.357,-0.027 0.375,-0.028 0.379,-0.029C0.383,-0.03 0.386,-0.032 0.389,-0.035C0.392,-0.038 0.395,-0.043 0.396,-0.05C0.397,-0.056 0.398,-0.077 0.4,-0.113C0.401,-0.148 0.402,-0.175 0.402,-0.193L0.402,-0.249C0.402,-0.286 0.399,-0.314 0.394,-0.334C0.389,-0.354 0.378,-0.371 0.362,-0.384C0.345,-0.398 0.324,-0.405 0.299,-0.405C0.28,-0.405 0.262,-0.401 0.246,-0.393C0.23,-0.386 0.217,-0.376 0.206,-0.365C0.196,-0.354 0.19,-0.343 0.187,-0.333C0.185,-0.324 0.184,-0.303 0.184,-0.27L0.184,-0.198C0.184,-0.183 0.184,-0.157 0.186,-0.117C0.187,-0.078 0.188,-0.055 0.19,-0.048C0.191,-0.042 0.193,-0.037 0.197,-0.034C0.2,-0.032 0.203,-0.03 0.207,-0.029C0.211,-0.028 0.229,-0.027 0.26,-0.025L0.264,-0.021L0.264,-0L0.26,0.004C0.22,0.001 0.18,-0 0.143,-0C0.105,-0 0.066,0.001 0.025,0.004L0.021,-0L0.021,-0.021L0.025,-0.025C0.057,-0.027 0.075,-0.028 0.079,-0.029C0.083,-0.03 0.087,-0.032 0.09,-0.035C0.093,-0.038 0.095,-0.043 0.096,-0.05C0.097,-0.056 0.098,-0.077 0.1,-0.113C0.101,-0.148 0.102,-0.175 0.102,-0.193L0.102,-0.29C0.102,-0.303 0.101,-0.32 0.1,-0.343C0.099,-0.365 0.098,-0.379 0.097,-0.384C0.096,-0.389 0.094,-0.393 0.089,-0.396C0.085,-0.398 0.077,-0.399 0.064,-0.399L0.023,-0.4L0.019,-0.404L0.019,-0.425L0.022,-0.429C0.085,-0.436 0.137,-0.448 0.18,-0.465Z" style="fill-rule:nonzero;"/>
        </g>
        <g transform="matrix(37.5,0,0,37.5,489.976,63.8538)">
            <path d="M0.104,-0.331L0.084,-0.336L0.081,-0.341L0.081,-0.401C0.139,-0.444 0.195,-0.466 0.25,-0.466C0.287,-0.466 0.318,-0.459 0.343,-0.445C0.368,-0.431 0.385,-0.413 0.396,-0.392C0.408,-0.371 0.413,-0.347 0.413,-0.319L0.411,-0.221L0.411,-0.075C0.411,-0.055 0.412,-0.043 0.415,-0.039C0.418,-0.035 0.421,-0.032 0.424,-0.031C0.428,-0.029 0.435,-0.028 0.444,-0.027L0.472,-0.024L0.476,-0.02L0.476,-0L0.472,0.003C0.448,0.001 0.426,0 0.406,0C0.386,0 0.363,0.001 0.335,0.003L0.328,-0.003L0.33,-0.082L0.224,0.001C0.206,0.008 0.186,0.012 0.165,0.012C0.139,0.012 0.117,0.007 0.098,-0.002C0.079,-0.011 0.065,-0.025 0.055,-0.042C0.045,-0.058 0.04,-0.079 0.04,-0.103C0.04,-0.151 0.055,-0.188 0.085,-0.215C0.115,-0.242 0.197,-0.265 0.33,-0.284C0.33,-0.332 0.319,-0.366 0.298,-0.385C0.276,-0.405 0.248,-0.415 0.211,-0.415C0.193,-0.415 0.175,-0.412 0.16,-0.407C0.144,-0.401 0.136,-0.397 0.133,-0.393C0.131,-0.39 0.122,-0.37 0.107,-0.333L0.104,-0.331ZM0.33,-0.254C0.239,-0.239 0.182,-0.222 0.16,-0.205C0.137,-0.187 0.126,-0.16 0.126,-0.123C0.126,-0.072 0.151,-0.047 0.202,-0.047C0.245,-0.047 0.288,-0.072 0.33,-0.122L0.33,-0.254Z" style="fill-rule:nonzero;"/>
        </g>
        <g transform="matrix(37.5,0,0,37.5,508.726,63.8538)">
            <path d="M0.141,-0.684C0.156,-0.684 0.169,-0.678 0.18,-0.667C0.19,-0.657 0.196,-0.644 0.196,-0.628C0.196,-0.613 0.19,-0.601 0.18,-0.59C0.169,-0.579 0.156,-0.574 0.141,-0.574C0.126,-0.574 0.113,-0.579 0.102,-0.59C0.091,-0.6 0.085,-0.613 0.085,-0.628C0.085,-0.644 0.091,-0.657 0.102,-0.667C0.113,-0.678 0.126,-0.684 0.141,-0.684ZM0.182,-0.465L0.191,-0.459C0.188,-0.416 0.186,-0.362 0.186,-0.296L0.186,-0.186C0.186,-0.179 0.187,-0.156 0.188,-0.117C0.189,-0.078 0.191,-0.055 0.192,-0.049C0.194,-0.042 0.196,-0.038 0.199,-0.035C0.202,-0.032 0.205,-0.03 0.209,-0.029C0.214,-0.028 0.231,-0.027 0.262,-0.025L0.267,-0.021L0.267,-0L0.263,0.004C0.222,0.001 0.183,-0 0.145,-0C0.108,-0 0.069,0.001 0.028,0.004L0.023,-0L0.023,-0.021L0.028,-0.025C0.059,-0.027 0.077,-0.028 0.081,-0.029C0.085,-0.03 0.089,-0.032 0.092,-0.035C0.095,-0.038 0.097,-0.043 0.098,-0.05C0.1,-0.056 0.101,-0.077 0.102,-0.113C0.104,-0.148 0.104,-0.175 0.104,-0.193L0.104,-0.29C0.104,-0.303 0.104,-0.32 0.103,-0.343C0.101,-0.365 0.1,-0.379 0.099,-0.384C0.099,-0.389 0.096,-0.393 0.092,-0.396C0.088,-0.398 0.079,-0.399 0.066,-0.399L0.025,-0.4L0.021,-0.404L0.021,-0.425L0.025,-0.429C0.087,-0.436 0.139,-0.448 0.182,-0.465Z" style="fill-rule:nonzero;"/>
        </g>
        <g transform="matrix(37.5,0,0,37.5,519.639,63.8538)">
            <path d="M0.167,-0.465L0.176,-0.459C0.174,-0.437 0.173,-0.409 0.172,-0.373C0.198,-0.395 0.223,-0.416 0.247,-0.438C0.253,-0.445 0.26,-0.449 0.266,-0.452C0.272,-0.455 0.282,-0.458 0.296,-0.461C0.31,-0.465 0.324,-0.466 0.339,-0.466C0.364,-0.466 0.388,-0.461 0.411,-0.451C0.434,-0.441 0.452,-0.429 0.464,-0.415C0.476,-0.401 0.484,-0.385 0.488,-0.366C0.493,-0.347 0.495,-0.324 0.495,-0.296L0.495,-0.21C0.495,-0.205 0.496,-0.164 0.498,-0.089C0.498,-0.058 0.502,-0.04 0.508,-0.034C0.514,-0.028 0.534,-0.025 0.568,-0.025L0.572,-0.021L0.572,-0L0.568,0.004C0.527,0.001 0.499,-0 0.484,-0C0.476,-0 0.452,0.001 0.413,0.004L0.407,-0.001C0.411,-0.044 0.414,-0.099 0.414,-0.167L0.414,-0.231C0.414,-0.269 0.413,-0.297 0.411,-0.314C0.409,-0.331 0.404,-0.346 0.395,-0.36C0.385,-0.374 0.373,-0.385 0.358,-0.392C0.343,-0.4 0.324,-0.404 0.303,-0.404C0.286,-0.404 0.272,-0.402 0.26,-0.399C0.248,-0.395 0.234,-0.388 0.219,-0.378C0.204,-0.367 0.193,-0.357 0.186,-0.348C0.179,-0.339 0.175,-0.33 0.173,-0.322C0.172,-0.314 0.171,-0.297 0.171,-0.271L0.171,-0.186C0.171,-0.179 0.172,-0.156 0.173,-0.117C0.174,-0.078 0.176,-0.055 0.177,-0.049C0.178,-0.042 0.181,-0.038 0.184,-0.035C0.187,-0.032 0.19,-0.03 0.194,-0.029C0.199,-0.028 0.216,-0.027 0.247,-0.025L0.251,-0.021L0.251,-0L0.248,0.004C0.207,0.001 0.168,-0 0.13,-0C0.092,-0 0.053,0.001 0.013,0.004L0.008,-0L0.008,-0.021L0.013,-0.025C0.044,-0.027 0.062,-0.028 0.066,-0.029C0.07,-0.03 0.074,-0.032 0.077,-0.035C0.08,-0.038 0.082,-0.043 0.083,-0.05C0.084,-0.056 0.086,-0.077 0.087,-0.113C0.089,-0.148 0.089,-0.175 0.089,-0.193L0.089,-0.29C0.089,-0.303 0.089,-0.32 0.087,-0.343C0.086,-0.365 0.085,-0.379 0.084,-0.384C0.083,-0.389 0.081,-0.393 0.077,-0.396C0.072,-0.398 0.064,-0.399 0.051,-0.399L0.01,-0.4L0.006,-0.404L0.006,-0.425L0.01,-0.429C0.072,-0.436 0.124,-0.448 0.167,-0.465Z" style="fill-rule:nonzero;"/>
        </g>
    </g>
</svg>
