<?xml version="1.0" encoding="UTF-8" standalone="no"?>
<!DOCTYPE svg PUBLIC "-//W3C//DTD SVG 1.1//EN" "http://www.w3.org/Graphics/SVG/1.1/DTD/svg11.dtd">
<svg width="100%" height="100%" viewBox="0 0 721 119" version="1.1" xmlns="http://www.w3.org/2000/svg" xmlns:xlink="http://www.w3.org/1999/xlink" xml:space="preserve" xmlns:serif="http://www.serif.com/" style="fill-rule:evenodd;clip-rule:evenodd;stroke-linecap:square;stroke-linejoin:round;stroke-miterlimit:1.5;">
    <g id="Ebene-1" serif:id="Ebene 1" transform="matrix(4.16667,0,0,4.16667,0,0)">
        <g transform="matrix(0.24,0,0,0.24,-109.845,-16.1041)">
            <g transform="matrix(37.5,0,0,37.5,474.405,112.579)">
                <path d="M0.039,-0.168L0.042,-0.172L0.066,-0.172L0.07,-0.168C0.072,-0.126 0.074,-0.101 0.077,-0.092C0.08,-0.082 0.088,-0.073 0.103,-0.062C0.118,-0.052 0.138,-0.044 0.162,-0.037C0.187,-0.031 0.212,-0.027 0.237,-0.027C0.271,-0.027 0.302,-0.034 0.33,-0.046C0.357,-0.059 0.379,-0.078 0.394,-0.102C0.409,-0.127 0.417,-0.154 0.417,-0.185C0.417,-0.207 0.413,-0.225 0.406,-0.241C0.399,-0.257 0.388,-0.27 0.375,-0.28C0.362,-0.289 0.347,-0.296 0.33,-0.301C0.313,-0.306 0.288,-0.311 0.254,-0.316C0.222,-0.322 0.196,-0.326 0.178,-0.331C0.16,-0.335 0.141,-0.341 0.123,-0.35C0.105,-0.359 0.09,-0.37 0.077,-0.384C0.065,-0.397 0.055,-0.414 0.048,-0.433C0.041,-0.453 0.037,-0.474 0.037,-0.497C0.037,-0.557 0.058,-0.607 0.101,-0.646C0.143,-0.685 0.2,-0.705 0.271,-0.705C0.299,-0.705 0.33,-0.701 0.364,-0.694C0.397,-0.687 0.427,-0.677 0.455,-0.663L0.458,-0.657C0.451,-0.627 0.446,-0.585 0.445,-0.529L0.44,-0.525L0.415,-0.525L0.411,-0.529C0.41,-0.568 0.41,-0.592 0.408,-0.603C0.407,-0.613 0.392,-0.625 0.364,-0.64C0.335,-0.655 0.305,-0.663 0.271,-0.663C0.244,-0.663 0.218,-0.657 0.194,-0.646C0.17,-0.635 0.152,-0.618 0.139,-0.594C0.127,-0.57 0.121,-0.546 0.121,-0.521C0.121,-0.502 0.124,-0.485 0.132,-0.47C0.139,-0.455 0.149,-0.443 0.161,-0.435C0.173,-0.426 0.187,-0.42 0.202,-0.416C0.218,-0.411 0.247,-0.406 0.289,-0.4C0.347,-0.392 0.389,-0.382 0.415,-0.37C0.441,-0.359 0.462,-0.34 0.478,-0.315C0.494,-0.29 0.501,-0.26 0.501,-0.225C0.501,-0.155 0.473,-0.097 0.417,-0.051C0.36,-0.005 0.292,0.018 0.211,0.018C0.144,0.018 0.085,0.006 0.034,-0.018L0.031,-0.024C0.035,-0.045 0.037,-0.093 0.039,-0.168Z" style="fill-rule:nonzero;"/>
            </g>
            <g transform="matrix(37.5,0,0,37.5,494.088,112.579)">
                <path d="M0.141,-0.684C0.156,-0.684 0.169,-0.678 0.18,-0.667C0.19,-0.657 0.196,-0.644 0.196,-0.628C0.196,-0.613 0.19,-0.601 0.18,-0.59C0.169,-0.579 0.156,-0.574 0.141,-0.574C0.126,-0.574 0.113,-0.579 0.102,-0.59C0.091,-0.6 0.085,-0.613 0.085,-0.628C0.085,-0.644 0.091,-0.657 0.102,-0.667C0.113,-0.678 0.126,-0.684 0.141,-0.684ZM0.182,-0.465L0.191,-0.459C0.188,-0.416 0.186,-0.362 0.186,-0.296L0.186,-0.186C0.186,-0.179 0.187,-0.156 0.188,-0.117C0.189,-0.078 0.191,-0.055 0.192,-0.049C0.194,-0.042 0.196,-0.038 0.199,-0.035C0.202,-0.032 0.205,-0.03 0.209,-0.029C0.214,-0.028 0.231,-0.027 0.262,-0.025L0.267,-0.021L0.267,-0L0.263,0.004C0.222,0.001 0.183,-0 0.145,-0C0.108,-0 0.069,0.001 0.028,0.004L0.023,-0L0.023,-0.021L0.028,-0.025C0.059,-0.027 0.077,-0.028 0.081,-0.029C0.085,-0.03 0.089,-0.032 0.092,-0.035C0.095,-0.038 0.097,-0.043 0.098,-0.05C0.1,-0.056 0.101,-0.077 0.102,-0.113C0.104,-0.148 0.104,-0.175 0.104,-0.193L0.104,-0.29C0.104,-0.303 0.104,-0.32 0.103,-0.343C0.101,-0.365 0.1,-0.379 0.099,-0.384C0.099,-0.389 0.096,-0.393 0.092,-0.396C0.088,-0.398 0.079,-0.399 0.066,-0.399L0.025,-0.4L0.021,-0.404L0.021,-0.425L0.025,-0.429C0.087,-0.436 0.139,-0.448 0.182,-0.465Z" style="fill-rule:nonzero;"/>
            </g>
            <g transform="matrix(37.5,0,0,37.5,505.001,112.579)">
                <path d="M0.539,-0.432L0.542,-0.423C0.529,-0.402 0.521,-0.389 0.518,-0.383L0.427,-0.383C0.436,-0.365 0.44,-0.346 0.44,-0.327C0.44,-0.304 0.435,-0.281 0.425,-0.259C0.414,-0.237 0.399,-0.219 0.38,-0.204C0.361,-0.188 0.34,-0.176 0.316,-0.167C0.292,-0.158 0.265,-0.153 0.234,-0.153L0.212,-0.153C0.193,-0.138 0.18,-0.127 0.175,-0.119C0.169,-0.112 0.167,-0.104 0.167,-0.096C0.167,-0.082 0.173,-0.072 0.186,-0.066C0.199,-0.06 0.227,-0.057 0.268,-0.057L0.377,-0.059C0.412,-0.059 0.438,-0.055 0.457,-0.046C0.475,-0.038 0.49,-0.024 0.501,-0.003C0.513,0.018 0.519,0.041 0.519,0.064C0.519,0.1 0.507,0.135 0.484,0.171C0.46,0.207 0.427,0.234 0.383,0.252C0.339,0.271 0.292,0.28 0.242,0.28C0.214,0.28 0.187,0.277 0.162,0.271C0.137,0.265 0.116,0.255 0.097,0.243C0.078,0.23 0.063,0.214 0.052,0.194C0.04,0.174 0.035,0.153 0.035,0.131C0.035,0.119 0.036,0.106 0.04,0.093C0.044,0.08 0.05,0.066 0.061,0.05L0.149,0.001C0.121,-0.008 0.103,-0.017 0.095,-0.025C0.088,-0.034 0.084,-0.044 0.084,-0.056C0.084,-0.069 0.089,-0.083 0.097,-0.1L0.175,-0.157C0.129,-0.169 0.098,-0.187 0.082,-0.211C0.066,-0.235 0.058,-0.261 0.058,-0.29C0.058,-0.316 0.063,-0.342 0.075,-0.365C0.086,-0.389 0.103,-0.409 0.126,-0.423C0.149,-0.437 0.175,-0.448 0.203,-0.457C0.232,-0.465 0.258,-0.469 0.281,-0.469C0.322,-0.469 0.361,-0.456 0.397,-0.43C0.456,-0.43 0.503,-0.43 0.539,-0.432ZM0.142,-0.318C0.142,-0.299 0.146,-0.277 0.153,-0.254C0.161,-0.232 0.174,-0.214 0.191,-0.203C0.209,-0.191 0.228,-0.185 0.25,-0.185C0.279,-0.185 0.304,-0.194 0.325,-0.213C0.346,-0.232 0.356,-0.262 0.356,-0.302C0.356,-0.336 0.347,-0.366 0.328,-0.393C0.308,-0.42 0.281,-0.434 0.246,-0.434C0.216,-0.434 0.192,-0.424 0.172,-0.405C0.152,-0.385 0.142,-0.356 0.142,-0.318ZM0.285,0.009C0.232,0.009 0.202,0.01 0.194,0.011C0.186,0.013 0.175,0.018 0.16,0.028C0.146,0.038 0.134,0.051 0.124,0.068C0.115,0.084 0.11,0.103 0.11,0.124C0.11,0.161 0.124,0.191 0.151,0.214C0.179,0.237 0.215,0.249 0.261,0.249C0.295,0.249 0.326,0.241 0.355,0.227C0.384,0.213 0.406,0.194 0.42,0.169C0.434,0.145 0.44,0.122 0.44,0.1C0.44,0.078 0.435,0.059 0.423,0.043C0.412,0.027 0.397,0.018 0.378,0.014C0.36,0.011 0.329,0.009 0.285,0.009Z" style="fill-rule:nonzero;"/>
            </g>
            <g transform="matrix(37.5,0,0,37.5,525.857,112.579)">
                <path d="M0.167,-0.465L0.176,-0.459C0.174,-0.437 0.173,-0.409 0.172,-0.373C0.198,-0.395 0.223,-0.416 0.247,-0.438C0.253,-0.445 0.26,-0.449 0.266,-0.452C0.272,-0.455 0.282,-0.458 0.296,-0.461C0.31,-0.465 0.324,-0.466 0.339,-0.466C0.364,-0.466 0.388,-0.461 0.411,-0.451C0.434,-0.441 0.452,-0.429 0.464,-0.415C0.476,-0.401 0.484,-0.385 0.488,-0.366C0.493,-0.347 0.495,-0.324 0.495,-0.296L0.495,-0.21C0.495,-0.205 0.496,-0.164 0.498,-0.089C0.498,-0.058 0.502,-0.04 0.508,-0.034C0.514,-0.028 0.534,-0.025 0.568,-0.025L0.572,-0.021L0.572,-0L0.568,0.004C0.527,0.001 0.499,-0 0.484,-0C0.476,-0 0.452,0.001 0.413,0.004L0.407,-0.001C0.411,-0.044 0.414,-0.099 0.414,-0.167L0.414,-0.231C0.414,-0.269 0.413,-0.297 0.411,-0.314C0.409,-0.331 0.404,-0.346 0.395,-0.36C0.385,-0.374 0.373,-0.385 0.358,-0.392C0.343,-0.4 0.324,-0.404 0.303,-0.404C0.286,-0.404 0.272,-0.402 0.26,-0.399C0.248,-0.395 0.234,-0.388 0.219,-0.378C0.204,-0.367 0.193,-0.357 0.186,-0.348C0.179,-0.339 0.175,-0.33 0.173,-0.322C0.172,-0.314 0.171,-0.297 0.171,-0.271L0.171,-0.186C0.171,-0.179 0.172,-0.156 0.173,-0.117C0.174,-0.078 0.176,-0.055 0.177,-0.049C0.178,-0.042 0.181,-0.038 0.184,-0.035C0.187,-0.032 0.19,-0.03 0.194,-0.029C0.199,-0.028 0.216,-0.027 0.247,-0.025L0.251,-0.021L0.251,-0L0.248,0.004C0.207,0.001 0.168,-0 0.13,-0C0.092,-0 0.053,0.001 0.013,0.004L0.008,-0L0.008,-0.021L0.013,-0.025C0.044,-0.027 0.062,-0.028 0.066,-0.029C0.07,-0.03 0.074,-0.032 0.077,-0.035C0.08,-0.038 0.082,-0.043 0.083,-0.05C0.084,-0.056 0.086,-0.077 0.087,-0.113C0.089,-0.148 0.089,-0.175 0.089,-0.193L0.089,-0.29C0.089,-0.303 0.089,-0.32 0.087,-0.343C0.086,-0.365 0.085,-0.379 0.084,-0.384C0.083,-0.389 0.081,-0.393 0.077,-0.396C0.072,-0.398 0.064,-0.399 0.051,-0.399L0.01,-0.4L0.006,-0.404L0.006,-0.425L0.01,-0.429C0.072,-0.436 0.124,-0.448 0.167,-0.465Z" style="fill-rule:nonzero;"/>
            </g>
            <g transform="matrix(37.5,0,0,37.5,547.683,112.579)">
                <path d="M0.104,-0.331L0.084,-0.336L0.081,-0.341L0.081,-0.401C0.139,-0.444 0.195,-0.466 0.25,-0.466C0.287,-0.466 0.318,-0.459 0.343,-0.445C0.368,-0.431 0.385,-0.413 0.396,-0.392C0.408,-0.371 0.413,-0.347 0.413,-0.319L0.411,-0.221L0.411,-0.075C0.411,-0.055 0.412,-0.043 0.415,-0.039C0.418,-0.035 0.421,-0.032 0.424,-0.031C0.428,-0.029 0.435,-0.028 0.444,-0.027L0.472,-0.024L0.476,-0.02L0.476,-0L0.472,0.003C0.448,0.001 0.426,0 0.406,0C0.386,0 0.363,0.001 0.335,0.003L0.328,-0.003L0.33,-0.082L0.224,0.001C0.206,0.008 0.186,0.012 0.165,0.012C0.139,0.012 0.117,0.007 0.098,-0.002C0.079,-0.011 0.065,-0.025 0.055,-0.042C0.045,-0.058 0.04,-0.079 0.04,-0.103C0.04,-0.151 0.055,-0.188 0.085,-0.215C0.115,-0.242 0.197,-0.265 0.33,-0.284C0.33,-0.332 0.319,-0.366 0.298,-0.385C0.276,-0.405 0.248,-0.415 0.211,-0.415C0.193,-0.415 0.175,-0.412 0.16,-0.407C0.144,-0.401 0.136,-0.397 0.133,-0.393C0.131,-0.39 0.122,-0.37 0.107,-0.333L0.104,-0.331ZM0.33,-0.254C0.239,-0.239 0.182,-0.222 0.16,-0.205C0.137,-0.187 0.126,-0.16 0.126,-0.123C0.126,-0.072 0.151,-0.047 0.202,-0.047C0.245,-0.047 0.288,-0.072 0.33,-0.122L0.33,-0.254Z" style="fill-rule:nonzero;"/>
            </g>
            <g transform="matrix(37.5,0,0,37.5,566.433,112.579)">
                <path d="M0.183,-0.723L0.192,-0.717C0.188,-0.68 0.187,-0.605 0.187,-0.492L0.187,-0.186C0.187,-0.179 0.187,-0.156 0.188,-0.117C0.19,-0.078 0.191,-0.055 0.193,-0.049C0.194,-0.042 0.196,-0.038 0.199,-0.035C0.202,-0.032 0.206,-0.03 0.21,-0.029C0.214,-0.028 0.232,-0.027 0.263,-0.025L0.267,-0.021L0.267,-0L0.263,0.004C0.222,0.001 0.183,-0 0.146,-0C0.108,-0 0.069,0.001 0.028,0.004L0.024,-0L0.024,-0.021L0.028,-0.025C0.06,-0.027 0.078,-0.028 0.082,-0.029C0.086,-0.03 0.089,-0.032 0.093,-0.035C0.096,-0.038 0.098,-0.043 0.099,-0.05C0.1,-0.056 0.101,-0.077 0.103,-0.113C0.104,-0.148 0.105,-0.175 0.105,-0.193L0.105,-0.446L0.103,-0.55C0.102,-0.586 0.101,-0.611 0.1,-0.625C0.099,-0.639 0.097,-0.647 0.095,-0.65C0.093,-0.653 0.09,-0.654 0.085,-0.656C0.08,-0.657 0.06,-0.658 0.026,-0.658L0.021,-0.662L0.021,-0.683L0.025,-0.687C0.088,-0.694 0.14,-0.706 0.183,-0.723Z" style="fill-rule:nonzero;"/>
            </g>
        </g>
        <g transform="matrix(0.24,0,0,0.24,12.2078,-16.1041)">
            <g transform="matrix(37.5,0,0,37.5,474.405,112.579)">
                <path d="M0.039,-0.168L0.042,-0.172L0.066,-0.172L0.07,-0.168C0.072,-0.126 0.074,-0.101 0.077,-0.092C0.08,-0.082 0.088,-0.073 0.103,-0.062C0.118,-0.052 0.138,-0.044 0.162,-0.037C0.187,-0.031 0.212,-0.027 0.237,-0.027C0.271,-0.027 0.302,-0.034 0.33,-0.046C0.357,-0.059 0.379,-0.078 0.394,-0.102C0.409,-0.127 0.417,-0.154 0.417,-0.185C0.417,-0.207 0.413,-0.225 0.406,-0.241C0.399,-0.257 0.388,-0.27 0.375,-0.28C0.362,-0.289 0.347,-0.296 0.33,-0.301C0.313,-0.306 0.288,-0.311 0.254,-0.316C0.222,-0.322 0.196,-0.326 0.178,-0.331C0.16,-0.335 0.141,-0.341 0.123,-0.35C0.105,-0.359 0.09,-0.37 0.077,-0.384C0.065,-0.397 0.055,-0.414 0.048,-0.433C0.041,-0.453 0.037,-0.474 0.037,-0.497C0.037,-0.557 0.058,-0.607 0.101,-0.646C0.143,-0.685 0.2,-0.705 0.271,-0.705C0.299,-0.705 0.33,-0.701 0.364,-0.694C0.397,-0.687 0.427,-0.677 0.455,-0.663L0.458,-0.657C0.451,-0.627 0.446,-0.585 0.445,-0.529L0.44,-0.525L0.415,-0.525L0.411,-0.529C0.41,-0.568 0.41,-0.592 0.408,-0.603C0.407,-0.613 0.392,-0.625 0.364,-0.64C0.335,-0.655 0.305,-0.663 0.271,-0.663C0.244,-0.663 0.218,-0.657 0.194,-0.646C0.17,-0.635 0.152,-0.618 0.139,-0.594C0.127,-0.57 0.121,-0.546 0.121,-0.521C0.121,-0.502 0.124,-0.485 0.132,-0.47C0.139,-0.455 0.149,-0.443 0.161,-0.435C0.173,-0.426 0.187,-0.42 0.202,-0.416C0.218,-0.411 0.247,-0.406 0.289,-0.4C0.347,-0.392 0.389,-0.382 0.415,-0.37C0.441,-0.359 0.462,-0.34 0.478,-0.315C0.494,-0.29 0.501,-0.26 0.501,-0.225C0.501,-0.155 0.473,-0.097 0.417,-0.051C0.36,-0.005 0.292,0.018 0.211,0.018C0.144,0.018 0.085,0.006 0.034,-0.018L0.031,-0.024C0.035,-0.045 0.037,-0.093 0.039,-0.168Z" style="fill-rule:nonzero;"/>
            </g>
            <g transform="matrix(37.5,0,0,37.5,494.088,112.579)">
                <path d="M0.141,-0.684C0.156,-0.684 0.169,-0.678 0.18,-0.667C0.19,-0.657 0.196,-0.644 0.196,-0.628C0.196,-0.613 0.19,-0.601 0.18,-0.59C0.169,-0.579 0.156,-0.574 0.141,-0.574C0.126,-0.574 0.113,-0.579 0.102,-0.59C0.091,-0.6 0.085,-0.613 0.085,-0.628C0.085,-0.644 0.091,-0.657 0.102,-0.667C0.113,-0.678 0.126,-0.684 0.141,-0.684ZM0.182,-0.465L0.191,-0.459C0.188,-0.416 0.186,-0.362 0.186,-0.296L0.186,-0.186C0.186,-0.179 0.187,-0.156 0.188,-0.117C0.189,-0.078 0.191,-0.055 0.192,-0.049C0.194,-0.042 0.196,-0.038 0.199,-0.035C0.202,-0.032 0.205,-0.03 0.209,-0.029C0.214,-0.028 0.231,-0.027 0.262,-0.025L0.267,-0.021L0.267,-0L0.263,0.004C0.222,0.001 0.183,-0 0.145,-0C0.108,-0 0.069,0.001 0.028,0.004L0.023,-0L0.023,-0.021L0.028,-0.025C0.059,-0.027 0.077,-0.028 0.081,-0.029C0.085,-0.03 0.089,-0.032 0.092,-0.035C0.095,-0.038 0.097,-0.043 0.098,-0.05C0.1,-0.056 0.101,-0.077 0.102,-0.113C0.104,-0.148 0.104,-0.175 0.104,-0.193L0.104,-0.29C0.104,-0.303 0.104,-0.32 0.103,-0.343C0.101,-0.365 0.1,-0.379 0.099,-0.384C0.099,-0.389 0.096,-0.393 0.092,-0.396C0.088,-0.398 0.079,-0.399 0.066,-0.399L0.025,-0.4L0.021,-0.404L0.021,-0.425L0.025,-0.429C0.087,-0.436 0.139,-0.448 0.182,-0.465Z" style="fill-rule:nonzero;"/>
            </g>
            <g transform="matrix(37.5,0,0,37.5,505.001,112.579)">
                <path d="M0.539,-0.432L0.542,-0.423C0.529,-0.402 0.521,-0.389 0.518,-0.383L0.427,-0.383C0.436,-0.365 0.44,-0.346 0.44,-0.327C0.44,-0.304 0.435,-0.281 0.425,-0.259C0.414,-0.237 0.399,-0.219 0.38,-0.204C0.361,-0.188 0.34,-0.176 0.316,-0.167C0.292,-0.158 0.265,-0.153 0.234,-0.153L0.212,-0.153C0.193,-0.138 0.18,-0.127 0.175,-0.119C0.169,-0.112 0.167,-0.104 0.167,-0.096C0.167,-0.082 0.173,-0.072 0.186,-0.066C0.199,-0.06 0.227,-0.057 0.268,-0.057L0.377,-0.059C0.412,-0.059 0.438,-0.055 0.457,-0.046C0.475,-0.038 0.49,-0.024 0.501,-0.003C0.513,0.018 0.519,0.041 0.519,0.064C0.519,0.1 0.507,0.135 0.484,0.171C0.46,0.207 0.427,0.234 0.383,0.252C0.339,0.271 0.292,0.28 0.242,0.28C0.214,0.28 0.187,0.277 0.162,0.271C0.137,0.265 0.116,0.255 0.097,0.243C0.078,0.23 0.063,0.214 0.052,0.194C0.04,0.174 0.035,0.153 0.035,0.131C0.035,0.119 0.036,0.106 0.04,0.093C0.044,0.08 0.05,0.066 0.061,0.05L0.149,0.001C0.121,-0.008 0.103,-0.017 0.095,-0.025C0.088,-0.034 0.084,-0.044 0.084,-0.056C0.084,-0.069 0.089,-0.083 0.097,-0.1L0.175,-0.157C0.129,-0.169 0.098,-0.187 0.082,-0.211C0.066,-0.235 0.058,-0.261 0.058,-0.29C0.058,-0.316 0.063,-0.342 0.075,-0.365C0.086,-0.389 0.103,-0.409 0.126,-0.423C0.149,-0.437 0.175,-0.448 0.203,-0.457C0.232,-0.465 0.258,-0.469 0.281,-0.469C0.322,-0.469 0.361,-0.456 0.397,-0.43C0.456,-0.43 0.503,-0.43 0.539,-0.432ZM0.142,-0.318C0.142,-0.299 0.146,-0.277 0.153,-0.254C0.161,-0.232 0.174,-0.214 0.191,-0.203C0.209,-0.191 0.228,-0.185 0.25,-0.185C0.279,-0.185 0.304,-0.194 0.325,-0.213C0.346,-0.232 0.356,-0.262 0.356,-0.302C0.356,-0.336 0.347,-0.366 0.328,-0.393C0.308,-0.42 0.281,-0.434 0.246,-0.434C0.216,-0.434 0.192,-0.424 0.172,-0.405C0.152,-0.385 0.142,-0.356 0.142,-0.318ZM0.285,0.009C0.232,0.009 0.202,0.01 0.194,0.011C0.186,0.013 0.175,0.018 0.16,0.028C0.146,0.038 0.134,0.051 0.124,0.068C0.115,0.084 0.11,0.103 0.11,0.124C0.11,0.161 0.124,0.191 0.151,0.214C0.179,0.237 0.215,0.249 0.261,0.249C0.295,0.249 0.326,0.241 0.355,0.227C0.384,0.213 0.406,0.194 0.42,0.169C0.434,0.145 0.44,0.122 0.44,0.1C0.44,0.078 0.435,0.059 0.423,0.043C0.412,0.027 0.397,0.018 0.378,0.014C0.36,0.011 0.329,0.009 0.285,0.009Z" style="fill-rule:nonzero;"/>
            </g>
            <g transform="matrix(37.5,0,0,37.5,525.857,112.579)">
                <path d="M0.167,-0.465L0.176,-0.459C0.174,-0.437 0.173,-0.409 0.172,-0.373C0.198,-0.395 0.223,-0.416 0.247,-0.438C0.253,-0.445 0.26,-0.449 0.266,-0.452C0.272,-0.455 0.282,-0.458 0.296,-0.461C0.31,-0.465 0.324,-0.466 0.339,-0.466C0.364,-0.466 0.388,-0.461 0.411,-0.451C0.434,-0.441 0.452,-0.429 0.464,-0.415C0.476,-0.401 0.484,-0.385 0.488,-0.366C0.493,-0.347 0.495,-0.324 0.495,-0.296L0.495,-0.21C0.495,-0.205 0.496,-0.164 0.498,-0.089C0.498,-0.058 0.502,-0.04 0.508,-0.034C0.514,-0.028 0.534,-0.025 0.568,-0.025L0.572,-0.021L0.572,-0L0.568,0.004C0.527,0.001 0.499,-0 0.484,-0C0.476,-0 0.452,0.001 0.413,0.004L0.407,-0.001C0.411,-0.044 0.414,-0.099 0.414,-0.167L0.414,-0.231C0.414,-0.269 0.413,-0.297 0.411,-0.314C0.409,-0.331 0.404,-0.346 0.395,-0.36C0.385,-0.374 0.373,-0.385 0.358,-0.392C0.343,-0.4 0.324,-0.404 0.303,-0.404C0.286,-0.404 0.272,-0.402 0.26,-0.399C0.248,-0.395 0.234,-0.388 0.219,-0.378C0.204,-0.367 0.193,-0.357 0.186,-0.348C0.179,-0.339 0.175,-0.33 0.173,-0.322C0.172,-0.314 0.171,-0.297 0.171,-0.271L0.171,-0.186C0.171,-0.179 0.172,-0.156 0.173,-0.117C0.174,-0.078 0.176,-0.055 0.177,-0.049C0.178,-0.042 0.181,-0.038 0.184,-0.035C0.187,-0.032 0.19,-0.03 0.194,-0.029C0.199,-0.028 0.216,-0.027 0.247,-0.025L0.251,-0.021L0.251,-0L0.248,0.004C0.207,0.001 0.168,-0 0.13,-0C0.092,-0 0.053,0.001 0.013,0.004L0.008,-0L0.008,-0.021L0.013,-0.025C0.044,-0.027 0.062,-0.028 0.066,-0.029C0.07,-0.03 0.074,-0.032 0.077,-0.035C0.08,-0.038 0.082,-0.043 0.083,-0.05C0.084,-0.056 0.086,-0.077 0.087,-0.113C0.089,-0.148 0.089,-0.175 0.089,-0.193L0.089,-0.29C0.089,-0.303 0.089,-0.32 0.087,-0.343C0.086,-0.365 0.085,-0.379 0.084,-0.384C0.083,-0.389 0.081,-0.393 0.077,-0.396C0.072,-0.398 0.064,-0.399 0.051,-0.399L0.01,-0.4L0.006,-0.404L0.006,-0.425L0.01,-0.429C0.072,-0.436 0.124,-0.448 0.167,-0.465Z" style="fill-rule:nonzero;"/>
            </g>
            <g transform="matrix(37.5,0,0,37.5,547.683,112.579)">
                <path d="M0.104,-0.331L0.084,-0.336L0.081,-0.341L0.081,-0.401C0.139,-0.444 0.195,-0.466 0.25,-0.466C0.287,-0.466 0.318,-0.459 0.343,-0.445C0.368,-0.431 0.385,-0.413 0.396,-0.392C0.408,-0.371 0.413,-0.347 0.413,-0.319L0.411,-0.221L0.411,-0.075C0.411,-0.055 0.412,-0.043 0.415,-0.039C0.418,-0.035 0.421,-0.032 0.424,-0.031C0.428,-0.029 0.435,-0.028 0.444,-0.027L0.472,-0.024L0.476,-0.02L0.476,-0L0.472,0.003C0.448,0.001 0.426,0 0.406,0C0.386,0 0.363,0.001 0.335,0.003L0.328,-0.003L0.33,-0.082L0.224,0.001C0.206,0.008 0.186,0.012 0.165,0.012C0.139,0.012 0.117,0.007 0.098,-0.002C0.079,-0.011 0.065,-0.025 0.055,-0.042C0.045,-0.058 0.04,-0.079 0.04,-0.103C0.04,-0.151 0.055,-0.188 0.085,-0.215C0.115,-0.242 0.197,-0.265 0.33,-0.284C0.33,-0.332 0.319,-0.366 0.298,-0.385C0.276,-0.405 0.248,-0.415 0.211,-0.415C0.193,-0.415 0.175,-0.412 0.16,-0.407C0.144,-0.401 0.136,-0.397 0.133,-0.393C0.131,-0.39 0.122,-0.37 0.107,-0.333L0.104,-0.331ZM0.33,-0.254C0.239,-0.239 0.182,-0.222 0.16,-0.205C0.137,-0.187 0.126,-0.16 0.126,-0.123C0.126,-0.072 0.151,-0.047 0.202,-0.047C0.245,-0.047 0.288,-0.072 0.33,-0.122L0.33,-0.254Z" style="fill-rule:nonzero;"/>
            </g>
            <g transform="matrix(37.5,0,0,37.5,566.433,112.579)">
                <path d="M0.183,-0.723L0.192,-0.717C0.188,-0.68 0.187,-0.605 0.187,-0.492L0.187,-0.186C0.187,-0.179 0.187,-0.156 0.188,-0.117C0.19,-0.078 0.191,-0.055 0.193,-0.049C0.194,-0.042 0.196,-0.038 0.199,-0.035C0.202,-0.032 0.206,-0.03 0.21,-0.029C0.214,-0.028 0.232,-0.027 0.263,-0.025L0.267,-0.021L0.267,-0L0.263,0.004C0.222,0.001 0.183,-0 0.146,-0C0.108,-0 0.069,0.001 0.028,0.004L0.024,-0L0.024,-0.021L0.028,-0.025C0.06,-0.027 0.078,-0.028 0.082,-0.029C0.086,-0.03 0.089,-0.032 0.093,-0.035C0.096,-0.038 0.098,-0.043 0.099,-0.05C0.1,-0.056 0.101,-0.077 0.103,-0.113C0.104,-0.148 0.105,-0.175 0.105,-0.193L0.105,-0.446L0.103,-0.55C0.102,-0.586 0.101,-0.611 0.1,-0.625C0.099,-0.639 0.097,-0.647 0.095,-0.65C0.093,-0.653 0.09,-0.654 0.085,-0.656C0.08,-0.657 0.06,-0.658 0.026,-0.658L0.021,-0.662L0.021,-0.683L0.025,-0.687C0.088,-0.694 0.14,-0.706 0.183,-0.723Z" style="fill-rule:nonzero;"/>
            </g>
        </g>
        <g transform="matrix(0.24,0,0,0.24,-56.8353,-16.7585)">
            <g transform="matrix(37.5,0,0,37.5,466.009,112.579)">
                <path d="M0.039,-0.168L0.042,-0.172L0.066,-0.172L0.07,-0.168C0.072,-0.126 0.074,-0.101 0.077,-0.092C0.08,-0.082 0.088,-0.073 0.103,-0.062C0.118,-0.052 0.138,-0.044 0.162,-0.037C0.187,-0.031 0.212,-0.027 0.237,-0.027C0.271,-0.027 0.302,-0.034 0.33,-0.046C0.357,-0.059 0.379,-0.078 0.394,-0.102C0.409,-0.127 0.417,-0.154 0.417,-0.185C0.417,-0.207 0.413,-0.225 0.406,-0.241C0.399,-0.257 0.388,-0.27 0.375,-0.28C0.362,-0.289 0.347,-0.296 0.33,-0.301C0.313,-0.306 0.288,-0.311 0.254,-0.316C0.222,-0.322 0.196,-0.326 0.178,-0.331C0.16,-0.335 0.141,-0.341 0.123,-0.35C0.105,-0.359 0.09,-0.37 0.077,-0.384C0.065,-0.397 0.055,-0.414 0.048,-0.433C0.041,-0.453 0.037,-0.474 0.037,-0.497C0.037,-0.557 0.058,-0.607 0.101,-0.646C0.143,-0.685 0.2,-0.705 0.271,-0.705C0.299,-0.705 0.33,-0.701 0.364,-0.694C0.397,-0.687 0.427,-0.677 0.455,-0.663L0.458,-0.657C0.451,-0.627 0.446,-0.585 0.445,-0.529L0.44,-0.525L0.415,-0.525L0.411,-0.529C0.41,-0.568 0.41,-0.592 0.408,-0.603C0.407,-0.613 0.392,-0.625 0.364,-0.64C0.335,-0.655 0.305,-0.663 0.271,-0.663C0.244,-0.663 0.218,-0.657 0.194,-0.646C0.17,-0.635 0.152,-0.618 0.139,-0.594C0.127,-0.57 0.121,-0.546 0.121,-0.521C0.121,-0.502 0.124,-0.485 0.132,-0.47C0.139,-0.455 0.149,-0.443 0.161,-0.435C0.173,-0.426 0.187,-0.42 0.202,-0.416C0.218,-0.411 0.247,-0.406 0.289,-0.4C0.347,-0.392 0.389,-0.382 0.415,-0.37C0.441,-0.359 0.462,-0.34 0.478,-0.315C0.494,-0.29 0.501,-0.26 0.501,-0.225C0.501,-0.155 0.473,-0.097 0.417,-0.051C0.36,-0.005 0.292,0.018 0.211,0.018C0.144,0.018 0.085,0.006 0.034,-0.018L0.031,-0.024C0.035,-0.045 0.037,-0.093 0.039,-0.168Z" style="fill-rule:nonzero;"/>
            </g>
            <g transform="matrix(37.5,0,0,37.5,485.693,112.579)">
                <path d="M0.022,0.265C0.033,0.238 0.041,0.213 0.047,0.19L0.059,0.19C0.075,0.207 0.092,0.216 0.11,0.216C0.133,0.216 0.154,0.204 0.171,0.181C0.188,0.158 0.212,0.108 0.243,0.029C0.231,-0.006 0.218,-0.038 0.206,-0.069L0.128,-0.262C0.12,-0.282 0.108,-0.31 0.092,-0.347C0.076,-0.384 0.066,-0.404 0.063,-0.408C0.06,-0.412 0.056,-0.415 0.051,-0.418C0.046,-0.422 0.033,-0.425 0.012,-0.428L0.008,-0.432L0.008,-0.451L0.012,-0.455C0.05,-0.453 0.088,-0.452 0.127,-0.452C0.174,-0.452 0.209,-0.453 0.234,-0.455L0.238,-0.451L0.238,-0.432L0.235,-0.428C0.231,-0.427 0.221,-0.427 0.205,-0.426C0.188,-0.424 0.178,-0.422 0.174,-0.418C0.17,-0.414 0.168,-0.409 0.168,-0.404C0.168,-0.398 0.173,-0.38 0.183,-0.35C0.193,-0.319 0.203,-0.292 0.212,-0.269L0.243,-0.193C0.263,-0.143 0.279,-0.106 0.29,-0.082L0.316,-0.139C0.325,-0.16 0.338,-0.192 0.355,-0.234L0.396,-0.337C0.406,-0.364 0.412,-0.381 0.413,-0.387C0.415,-0.394 0.416,-0.398 0.416,-0.401C0.416,-0.409 0.413,-0.413 0.408,-0.416C0.403,-0.419 0.391,-0.421 0.373,-0.423L0.353,-0.426L0.349,-0.43L0.349,-0.451L0.353,-0.455C0.38,-0.453 0.413,-0.452 0.45,-0.452C0.484,-0.452 0.512,-0.453 0.532,-0.455L0.536,-0.451L0.536,-0.43L0.532,-0.426C0.52,-0.425 0.511,-0.424 0.503,-0.421C0.496,-0.418 0.489,-0.413 0.483,-0.405C0.476,-0.398 0.465,-0.377 0.448,-0.342C0.431,-0.307 0.414,-0.271 0.397,-0.234L0.349,-0.129L0.236,0.134C0.227,0.157 0.214,0.181 0.2,0.208C0.185,0.234 0.168,0.252 0.147,0.264C0.126,0.275 0.104,0.281 0.08,0.281C0.06,0.281 0.04,0.276 0.022,0.265Z" style="fill-rule:nonzero;"/>
            </g>
            <g transform="matrix(37.5,0,0,37.5,506.549,112.579)">
                <path d="M0.049,-0.144L0.07,-0.144L0.075,-0.139C0.075,-0.112 0.077,-0.088 0.08,-0.069C0.09,-0.054 0.107,-0.041 0.132,-0.031C0.157,-0.022 0.181,-0.017 0.205,-0.017C0.24,-0.017 0.267,-0.026 0.288,-0.045C0.309,-0.063 0.319,-0.086 0.319,-0.111C0.319,-0.125 0.315,-0.137 0.308,-0.148C0.3,-0.158 0.289,-0.166 0.274,-0.173C0.259,-0.18 0.231,-0.188 0.192,-0.197C0.159,-0.205 0.135,-0.211 0.122,-0.215C0.109,-0.219 0.096,-0.227 0.083,-0.237C0.071,-0.248 0.062,-0.26 0.055,-0.276C0.049,-0.291 0.045,-0.307 0.045,-0.326C0.045,-0.369 0.063,-0.404 0.097,-0.43C0.132,-0.457 0.175,-0.47 0.227,-0.47C0.249,-0.47 0.273,-0.467 0.298,-0.461C0.324,-0.455 0.344,-0.449 0.357,-0.443L0.361,-0.437C0.359,-0.424 0.357,-0.389 0.356,-0.334L0.352,-0.33L0.333,-0.33L0.328,-0.334C0.327,-0.354 0.325,-0.368 0.323,-0.376C0.32,-0.384 0.315,-0.392 0.305,-0.402C0.296,-0.411 0.282,-0.419 0.265,-0.425C0.248,-0.431 0.23,-0.435 0.21,-0.435C0.191,-0.435 0.174,-0.432 0.16,-0.426C0.147,-0.42 0.136,-0.411 0.128,-0.399C0.119,-0.387 0.115,-0.373 0.115,-0.356C0.115,-0.344 0.118,-0.333 0.123,-0.323C0.128,-0.313 0.136,-0.305 0.146,-0.299C0.156,-0.293 0.167,-0.289 0.179,-0.286L0.232,-0.272C0.278,-0.261 0.31,-0.252 0.33,-0.244C0.35,-0.236 0.365,-0.223 0.375,-0.207C0.386,-0.19 0.392,-0.17 0.392,-0.147C0.392,-0.102 0.373,-0.063 0.336,-0.031C0.299,0.001 0.251,0.017 0.193,0.017C0.172,0.017 0.147,0.015 0.116,0.01C0.086,0.006 0.06,0.001 0.039,-0.005L0.036,-0.011L0.041,-0.044C0.043,-0.054 0.044,-0.064 0.044,-0.074C0.044,-0.085 0.045,-0.106 0.045,-0.139L0.049,-0.144Z" style="fill-rule:nonzero;"/>
            </g>
            <g transform="matrix(37.5,0,0,37.5,522.442,112.579)">
                <path d="M0.022,-0.383L0.022,-0.396L0.026,-0.401C0.056,-0.412 0.081,-0.423 0.1,-0.433C0.1,-0.518 0.099,-0.567 0.097,-0.581C0.131,-0.593 0.158,-0.605 0.18,-0.619L0.191,-0.609C0.188,-0.588 0.184,-0.529 0.18,-0.43C0.196,-0.43 0.214,-0.43 0.232,-0.43C0.271,-0.43 0.298,-0.431 0.315,-0.433L0.318,-0.429L0.309,-0.388L0.305,-0.384C0.289,-0.384 0.27,-0.384 0.25,-0.384C0.232,-0.384 0.208,-0.384 0.18,-0.384L0.177,-0.185C0.177,-0.139 0.178,-0.109 0.18,-0.095C0.182,-0.081 0.188,-0.07 0.198,-0.062C0.207,-0.054 0.221,-0.05 0.24,-0.05C0.262,-0.05 0.282,-0.056 0.301,-0.067L0.313,-0.049C0.305,-0.044 0.286,-0.028 0.256,-0C0.239,0.007 0.222,0.011 0.205,0.011C0.131,0.011 0.095,-0.024 0.095,-0.095C0.095,-0.121 0.095,-0.143 0.097,-0.162C0.097,-0.167 0.097,-0.173 0.097,-0.179L0.097,-0.381L0.077,-0.381C0.063,-0.381 0.046,-0.381 0.027,-0.379L0.022,-0.383Z" style="fill-rule:nonzero;"/>
            </g>
            <g transform="matrix(37.5,0,0,37.5,534.674,112.579)">
                <path d="M0.432,-0.072L0.416,-0.037C0.382,-0.015 0.352,-0.001 0.325,0.006C0.299,0.012 0.275,0.016 0.254,0.016C0.215,0.016 0.178,0.008 0.143,-0.007C0.108,-0.023 0.08,-0.049 0.058,-0.085C0.036,-0.121 0.025,-0.165 0.025,-0.217C0.025,-0.251 0.029,-0.282 0.038,-0.309C0.046,-0.337 0.055,-0.357 0.064,-0.371C0.073,-0.384 0.089,-0.399 0.111,-0.415C0.133,-0.431 0.157,-0.444 0.182,-0.454C0.206,-0.464 0.233,-0.469 0.262,-0.469C0.301,-0.469 0.335,-0.46 0.365,-0.441C0.395,-0.423 0.416,-0.399 0.428,-0.371C0.44,-0.342 0.446,-0.312 0.446,-0.279C0.446,-0.269 0.445,-0.259 0.444,-0.25L0.439,-0.245C0.417,-0.24 0.387,-0.236 0.35,-0.235C0.312,-0.233 0.287,-0.232 0.275,-0.232L0.119,-0.232C0.119,-0.165 0.136,-0.115 0.169,-0.083C0.203,-0.052 0.243,-0.036 0.292,-0.036C0.314,-0.036 0.336,-0.04 0.357,-0.047C0.378,-0.055 0.4,-0.066 0.424,-0.08L0.432,-0.072ZM0.119,-0.271C0.125,-0.271 0.147,-0.269 0.186,-0.268C0.226,-0.267 0.255,-0.266 0.273,-0.266C0.319,-0.266 0.346,-0.267 0.356,-0.269C0.356,-0.276 0.356,-0.282 0.356,-0.287C0.356,-0.337 0.346,-0.375 0.326,-0.399C0.305,-0.424 0.277,-0.436 0.242,-0.436C0.203,-0.436 0.173,-0.422 0.151,-0.395C0.129,-0.367 0.119,-0.326 0.119,-0.271Z" style="fill-rule:nonzero;"/>
            </g>
            <g transform="matrix(37.5,0,0,37.5,552.636,112.579)">
                <path d="M0.18,-0.465L0.189,-0.459C0.187,-0.438 0.186,-0.412 0.185,-0.382L0.231,-0.424C0.244,-0.436 0.253,-0.444 0.257,-0.448C0.262,-0.451 0.271,-0.455 0.287,-0.459C0.303,-0.464 0.319,-0.466 0.336,-0.466C0.369,-0.466 0.397,-0.458 0.422,-0.442C0.446,-0.426 0.464,-0.404 0.476,-0.375C0.52,-0.417 0.546,-0.44 0.553,-0.445C0.56,-0.449 0.572,-0.454 0.588,-0.459C0.604,-0.463 0.62,-0.466 0.636,-0.466C0.661,-0.466 0.685,-0.46 0.707,-0.449C0.728,-0.438 0.745,-0.424 0.758,-0.406C0.771,-0.388 0.778,-0.368 0.78,-0.348C0.782,-0.327 0.783,-0.298 0.783,-0.262L0.783,-0.21C0.783,-0.205 0.784,-0.164 0.786,-0.089C0.787,-0.058 0.79,-0.04 0.796,-0.034C0.803,-0.028 0.823,-0.025 0.856,-0.025L0.86,-0.021L0.86,-0L0.856,0.004C0.815,0.001 0.787,-0 0.772,-0C0.764,-0 0.741,0.001 0.702,0.004L0.695,-0.001C0.7,-0.044 0.702,-0.099 0.702,-0.167L0.702,-0.226C0.702,-0.277 0.699,-0.314 0.694,-0.334C0.689,-0.355 0.678,-0.372 0.66,-0.385C0.642,-0.398 0.621,-0.405 0.596,-0.405C0.579,-0.405 0.562,-0.401 0.547,-0.394C0.532,-0.387 0.518,-0.377 0.506,-0.363C0.493,-0.349 0.487,-0.336 0.485,-0.324C0.484,-0.313 0.483,-0.291 0.483,-0.259L0.483,-0.198C0.483,-0.183 0.484,-0.157 0.485,-0.117C0.487,-0.078 0.488,-0.055 0.49,-0.048C0.491,-0.042 0.493,-0.037 0.496,-0.034C0.499,-0.032 0.503,-0.03 0.507,-0.029C0.511,-0.028 0.529,-0.027 0.56,-0.025L0.564,-0.021L0.564,-0L0.56,0.004C0.519,0.001 0.48,-0 0.442,-0C0.408,-0 0.368,0.001 0.325,0.004L0.321,-0L0.321,-0.021L0.325,-0.025C0.357,-0.027 0.375,-0.028 0.379,-0.029C0.383,-0.03 0.386,-0.032 0.389,-0.035C0.392,-0.038 0.395,-0.043 0.396,-0.05C0.397,-0.056 0.398,-0.077 0.4,-0.113C0.401,-0.148 0.402,-0.175 0.402,-0.193L0.402,-0.249C0.402,-0.286 0.399,-0.314 0.394,-0.334C0.389,-0.354 0.378,-0.371 0.362,-0.384C0.345,-0.398 0.324,-0.405 0.299,-0.405C0.28,-0.405 0.262,-0.401 0.246,-0.393C0.23,-0.386 0.217,-0.376 0.206,-0.365C0.196,-0.354 0.19,-0.343 0.187,-0.333C0.185,-0.324 0.184,-0.303 0.184,-0.27L0.184,-0.198C0.184,-0.183 0.184,-0.157 0.186,-0.117C0.187,-0.078 0.188,-0.055 0.19,-0.048C0.191,-0.042 0.193,-0.037 0.197,-0.034C0.2,-0.032 0.203,-0.03 0.207,-0.029C0.211,-0.028 0.229,-0.027 0.26,-0.025L0.264,-0.021L0.264,-0L0.26,0.004C0.22,0.001 0.18,-0 0.143,-0C0.105,-0 0.066,0.001 0.025,0.004L0.021,-0L0.021,-0.021L0.025,-0.025C0.057,-0.027 0.075,-0.028 0.079,-0.029C0.083,-0.03 0.087,-0.032 0.09,-0.035C0.093,-0.038 0.095,-0.043 0.096,-0.05C0.097,-0.056 0.098,-0.077 0.1,-0.113C0.101,-0.148 0.102,-0.175 0.102,-0.193L0.102,-0.29C0.102,-0.303 0.101,-0.32 0.1,-0.343C0.099,-0.365 0.098,-0.379 0.097,-0.384C0.096,-0.389 0.094,-0.393 0.089,-0.396C0.085,-0.398 0.077,-0.399 0.064,-0.399L0.023,-0.4L0.019,-0.404L0.019,-0.425L0.022,-0.429C0.085,-0.436 0.137,-0.448 0.18,-0.465Z" style="fill-rule:nonzero;"/>
            </g>
        </g>
        <g transform="matrix(0.212519,0,0,0.202151,-3.87823,-21.9339)">
            <rect x="251.81" y="116.253" width="178.607" height="126.797" style="fill:none;stroke:black;stroke-width:2.6px;"/>
        </g>
        <g transform="matrix(0.149398,0,0,0.24,10.0452,-26.6613)">
            <g transform="matrix(1.60645,-0,-0,1,-67.238,111.089)">
                <path d="M197.811,55.105L204.545,60.156L197.811,65.207L197.811,55.105Z"/>
                <path d="M134.102,60.156L199.157,60.156" style="fill:none;stroke:black;stroke-width:2.24px;"/>
            </g>
        </g>
        <g transform="matrix(0.149398,0,0,0.24,65.7025,-26.6613)">
            <g transform="matrix(1.60645,-0,-0,1,-439.783,111.089)">
                <path d="M429.716,55.105L436.451,60.156L429.716,65.207L429.716,55.105Z"/>
                <path d="M366.008,60.156L431.063,60.156" style="fill:none;stroke:black;stroke-width:2.24px;"/>
            </g>
        </g>
    </g>
    <g transform="matrix(0.363816,0,0,-0.363816,452.911,100.868)">
        <g id="klftmpexporter4x1x0xK16492">
            <g id="g12">
                <path id="path14" d="M18.266,48.547L18.266,93.938L0.672,93.141L0.672,88.469C6.828,88.469 7.531,88.469 7.531,84.609L7.531,29.672L0.672,29.672L0.672,25C4.344,25.094 9.016,25.297 12.594,25.297C16.266,25.297 21.047,25.094 24.609,25L24.609,29.672L17.766,29.672L17.766,42.281C20.641,44.563 21.438,45.172 23.422,46.563L33.453,34.047C34.344,32.844 35.938,30.859 35.938,30.563C35.938,29.672 34.156,29.672 32.859,29.672L32.859,25C35.844,25.203 44.484,25.297 44.984,25.297C48.563,25.297 51.938,25.203 55.313,25L55.313,29.672L53.625,29.672C49.344,29.672 49.047,30.063 47.766,31.656L30.969,52.609L43.891,62.656C45.281,63.734 46.172,64.438 52.828,64.438L52.828,69.109C50.141,68.813 47.656,68.813 45.078,68.813C42.391,68.813 35.938,69 33.656,69.109L33.656,64.438C35.938,64.438 36.234,64.141 37.031,63.344L18.266,48.547" style="fill-rule:nonzero;"/>
                <path id="path16" d="M89.875,1.156C89.875,1.453 89.875,1.656 88.188,3.344C75.781,15.859 72.594,34.641 72.594,49.828C72.594,67.125 76.375,84.406 88.594,96.828C89.875,98.016 89.875,98.219 89.875,98.516C89.875,99.203 89.484,99.5 88.891,99.5C87.891,99.5 78.953,92.75 73.094,80.125C68.031,69.203 66.828,58.172 66.828,49.828C66.828,42.094 67.922,30.063 73.391,18.844C79.344,6.625 87.891,0.172 88.891,0.172C89.484,0.172 89.875,0.469 89.875,1.156" style="fill-rule:nonzero;"/>
                <path id="path18" d="M130.375,49.438L142,62.344C143.281,63.734 143.875,64.438 152.125,64.438L152.125,69.109C148.656,68.906 143.484,68.813 142.984,68.813C140.5,68.813 135.531,69 132.75,69.109L132.75,64.438C134.141,64.438 135.344,64.234 136.531,63.547C136.125,62.953 136.125,62.75 135.734,62.344L127.391,53.016L117.656,64.438L121.625,64.438L121.625,69.109C119.047,69 112.781,68.813 109.609,68.813C106.438,68.813 101.953,69 98.688,69.109L98.688,64.438L105.734,64.438L121.234,46.156L108.219,31.563C106.531,29.672 102.953,29.672 98.188,29.672L98.188,25C101.656,25.203 106.828,25.297 107.328,25.297C109.813,25.297 115.563,25.094 117.563,25L117.563,29.672C115.766,29.672 113.875,30.172 113.875,30.766C113.875,30.859 113.875,30.953 114.578,31.75L124.219,42.578L135.141,29.672L131.266,29.672L131.266,25C133.844,25.094 139.906,25.297 143.188,25.297C146.359,25.297 150.828,25.094 154.109,25L154.109,29.672L147.063,29.672L130.375,49.438" style="fill-rule:nonzero;"/>
                <path id="path20" d="M184.703,49.828C184.703,57.578 183.609,69.609 178.156,80.828C172.188,93.047 163.656,99.5 162.656,99.5C162.063,99.5 161.656,99.109 161.656,98.516C161.656,98.219 161.656,98.016 163.547,96.219C173.281,86.391 178.953,70.594 178.953,49.828C178.953,32.844 175.266,15.359 162.953,2.844C161.656,1.656 161.656,1.453 161.656,1.156C161.656,0.563 162.063,0.172 162.656,0.172C163.656,0.172 172.594,6.922 178.453,19.531C183.516,30.469 184.703,41.484 184.703,49.828" style="fill-rule:nonzero;"/>
                <path id="path22" d="M291.25,57.484C292.734,57.484 294.625,57.484 294.625,59.469C294.625,61.453 292.734,61.453 291.344,61.453L231.844,61.453C230.453,61.453 228.563,61.453 228.563,59.469C228.563,57.484 230.453,57.484 231.938,57.484L291.25,57.484ZM291.344,38.219C292.734,38.219 294.625,38.219 294.625,40.203C294.625,42.188 292.734,42.188 291.25,42.188L231.938,42.188C230.453,42.188 228.563,42.188 228.563,40.203C228.563,38.219 230.453,38.219 231.844,38.219L291.344,38.219" style="fill-rule:nonzero;"/>
                <path id="path24" d="M396.047,91.063C390.094,91.063 383.234,89.969 375.984,87.078C370.719,85.094 364.766,82.016 361.688,77.656C359.688,74.875 359,72.484 359,70.297C359,67.016 360.781,64.438 363.078,62.453C368.047,58.078 375.781,56.391 384.438,56.297C381.844,53.016 379.359,49.641 376.984,46.359C369.125,35.234 355.625,25 345.781,25C339.031,25 334.359,27.094 334.359,31.063C334.359,32.047 334.656,33.141 335.266,34.438C335.859,33.438 336.953,32.953 338.141,32.953C340.719,32.953 343.797,34.938 343.797,36.828C343.797,39.297 342.313,40.203 340.516,40.203C338.438,40.203 335.953,39 334.766,37.313C332.969,34.734 332.172,32.547 332.172,30.656C332.172,25.5 338.141,22.813 345.391,22.813C358.5,22.813 376.484,32.656 385.516,45.359C388.406,49.438 391.484,53.516 394.656,57.484C398.641,58.484 402.813,60.172 406.984,62.344C413.828,65.922 420.391,71 424.359,76.656C427.438,81.031 429.625,85.391 430.031,89.266C430.125,89.766 430.125,90.172 430.125,90.656C430.125,93.047 429.125,95.328 425.859,95.328C415.719,95.328 404.297,83.109 396.547,72.078C393.375,67.516 389.797,63.047 386.016,58.484C377.469,58.484 370.219,60.063 365.859,63.938C364.172,65.531 362.969,67.516 362.969,70C362.969,71.891 363.672,74.172 365.453,76.656C368.141,80.328 373.109,83.313 377.875,85.203C384.328,87.875 390.391,88.875 395.656,88.875C395.953,88.875 396.25,88.969 396.344,89.172L396.75,89.766C396.844,89.859 396.953,90.062 396.953,90.266C396.953,90.656 396.547,91.062 396.047,91.062ZM425.453,93.141C427.047,93.141 427.641,92.156 427.641,90.563C427.641,90.172 427.641,89.672 427.547,89.172C426.953,85.797 424.859,81.719 421.875,77.656C418.203,72.391 412.25,67.516 405.781,64.141C402.813,62.547 399.828,61.266 396.953,60.359C399.734,63.937 402.516,67.516 405.094,71.094C415.031,85.297 416.813,93.141 425.453,93.141" style="fill-rule:nonzero;"/>
                <path id="path26" d="M462.109,86.297C462.109,90.266 464.688,96.625 475.516,97.313C476.016,97.422 476.422,97.813 476.422,98.406C476.422,99.5 475.625,99.5 474.531,99.5C464.594,99.5 455.563,94.438 455.453,87.078L455.453,64.438C455.453,60.563 455.453,57.391 451.484,54.109C448,51.219 444.234,51.031 442.047,50.922C441.547,50.828 441.156,50.438 441.156,49.828C441.156,48.844 441.75,48.844 442.734,48.734C449.297,48.344 454.063,44.766 455.156,39.906C455.453,38.813 455.453,38.609 455.453,35.031L455.453,15.359C455.453,11.188 455.453,8.016 460.219,4.234C464.094,1.266 470.656,0.172 474.531,0.172C475.625,0.172 476.422,0.172 476.422,1.266C476.422,2.25 475.828,2.25 474.828,2.344C468.563,2.75 463.703,5.922 462.406,11C462.109,11.891 462.109,12.094 462.109,15.656L462.109,36.516C462.109,41.094 461.313,42.781 458.141,45.953C456.047,48.047 453.172,49.047 450.391,49.828C458.531,52.125 462.109,56.688 462.109,62.453L462.109,86.297" style="fill-rule:nonzero;"/>
                <path id="path28" d="M496.625,69.109L489.172,69.109L489.172,64.438L496.625,64.438L496.625,29.672L489.766,29.672L489.766,25C493.25,25.094 497.719,25.297 502.281,25.297C506.063,25.297 512.422,25.297 516,25L516,29.672L507.344,29.672L507.344,64.438L518.781,64.438L518.781,69.109L506.75,69.109L506.75,79.141C506.75,90.063 514.297,90.953 516.781,90.953C517.281,90.953 517.781,90.953 518.484,90.766C516.984,89.672 516.188,87.781 516.188,85.891C516.188,81.625 519.672,79.734 522.25,79.734C525.234,79.734 528.406,81.828 528.406,85.891C528.406,90.062 524.828,94.531 517.078,94.531C507.344,94.531 496.625,90.359 496.625,79.141L496.625,69.109" style="fill-rule:nonzero;"/>
                <path id="path30" d="M562.875,1.156C562.875,1.453 562.875,1.656 561.188,3.344C548.781,15.859 545.594,34.641 545.594,49.828C545.594,67.125 549.375,84.406 561.594,96.828C562.875,98.016 562.875,98.219 562.875,98.516C562.875,99.203 562.484,99.5 561.891,99.5C560.891,99.5 551.953,92.75 546.094,80.125C541.031,69.203 539.828,58.172 539.828,49.828C539.828,42.094 540.922,30.063 546.391,18.844C552.344,6.625 560.891,0.172 561.891,0.172C562.484,0.172 562.875,0.469 562.875,1.156" style="fill-rule:nonzero;"/>
                <path id="path32" d="M603.375,49.438L615,62.344C616.281,63.734 616.875,64.438 625.125,64.438L625.125,69.109C621.656,68.906 616.484,68.813 615.984,68.813C613.5,68.813 608.531,69 605.75,69.109L605.75,64.438C607.141,64.438 608.344,64.234 609.531,63.547C609.125,62.953 609.125,62.75 608.734,62.344L600.391,53.016L590.656,64.438L594.625,64.438L594.625,69.109C592.047,69 585.781,68.813 582.609,68.813C579.438,68.813 574.953,69 571.688,69.109L571.688,64.438L578.734,64.438L594.234,46.156L581.219,31.563C579.531,29.672 575.953,29.672 571.188,29.672L571.188,25C574.656,25.203 579.828,25.297 580.328,25.297C582.813,25.297 588.563,25.094 590.563,25L590.563,29.672C588.766,29.672 586.875,30.172 586.875,30.766C586.875,30.859 586.875,30.953 587.578,31.75L597.219,42.578L608.141,29.672L604.266,29.672L604.266,25C606.844,25.094 612.906,25.297 616.188,25.297C619.359,25.297 623.828,25.094 627.109,25L627.109,29.672L620.063,29.672L603.375,49.438" style="fill-rule:nonzero;"/>
                <path id="path34" d="M657.703,49.828C657.703,57.578 656.609,69.609 651.156,80.828C645.188,93.047 636.656,99.5 635.656,99.5C635.063,99.5 634.656,99.109 634.656,98.516C634.656,98.219 634.656,98.016 636.547,96.219C646.281,86.391 651.953,70.594 651.953,49.828C651.953,32.844 648.266,15.359 635.953,2.844C634.656,1.656 634.656,1.453 634.656,1.156C634.656,0.563 635.063,0.172 635.656,0.172C636.656,0.172 645.594,6.922 651.453,19.531C656.516,30.469 657.703,41.484 657.703,49.828" style="fill-rule:nonzero;"/>
                <path id="path36" d="M688.453,13.375C688.453,9.406 685.875,3.047 675.047,2.344C674.547,2.25 674.156,1.859 674.156,1.266C674.156,0.172 675.25,0.172 676.141,0.172C685.781,0.172 695.016,5.031 695.109,12.578L695.109,35.234C695.109,39.109 695.109,42.281 699.078,45.563C702.563,48.438 706.344,48.641 708.516,48.734C709.016,48.844 709.422,49.234 709.422,49.828C709.422,50.828 708.828,50.828 707.828,50.922C701.266,51.328 696.5,54.906 695.406,59.766C695.109,60.859 695.109,61.063 695.109,64.641L695.109,84.297C695.109,88.469 695.109,91.656 690.344,95.438C686.375,98.516 679.516,99.5 676.141,99.5C675.25,99.5 674.156,99.5 674.156,98.406C674.156,97.422 674.75,97.422 675.734,97.313C682,96.922 686.875,93.734 688.156,88.672C688.453,87.781 688.453,87.578 688.453,84L688.453,63.141C688.453,58.578 689.25,56.891 692.438,53.703C694.516,51.625 697.391,50.625 700.172,49.828C692.031,47.547 688.453,42.984 688.453,37.219L688.453,13.375" style="fill-rule:nonzero;"/>
            </g>
        </g>
    </g>
    <g transform="matrix(0.359235,0,0,-0.359235,244.232,97.6852)">
        <g id="klftmpexporter4x1x0xI16492">
            <g id="g121" serif:id="g12">
                <path id="path141" serif:id="path14" d="M65.047,91.063C59.094,91.063 52.234,89.969 44.984,87.078C39.719,85.094 33.766,82.016 30.688,77.656C28.688,74.875 28,72.484 28,70.297C28,67.016 29.781,64.438 32.078,62.453C37.047,58.078 44.781,56.391 53.438,56.297C50.844,53.016 48.359,49.641 45.984,46.359C38.125,35.234 24.625,25 14.781,25C8.031,25 3.359,27.094 3.359,31.063C3.359,32.047 3.656,33.141 4.266,34.438C4.859,33.438 5.953,32.953 7.141,32.953C9.719,32.953 12.797,34.938 12.797,36.828C12.797,39.297 11.313,40.203 9.516,40.203C7.438,40.203 4.953,39 3.766,37.313C1.969,34.734 1.172,32.547 1.172,30.656C1.172,25.5 7.141,22.813 14.391,22.813C27.5,22.813 45.484,32.656 54.516,45.359C57.406,49.438 60.484,53.516 63.656,57.484C67.641,58.484 71.813,60.172 75.984,62.344C82.828,65.922 89.391,71 93.359,76.656C96.438,81.031 98.625,85.391 99.031,89.266C99.125,89.766 99.125,90.172 99.125,90.656C99.125,93.047 98.125,95.328 94.859,95.328C84.719,95.328 73.297,83.109 65.547,72.078C62.375,67.516 58.797,63.047 55.016,58.484C46.469,58.484 39.219,60.063 34.859,63.938C33.172,65.531 31.969,67.516 31.969,70C31.969,71.891 32.672,74.172 34.453,76.656C37.141,80.328 42.109,83.313 46.875,85.203C53.328,87.875 59.391,88.875 64.656,88.875C64.953,88.875 65.25,88.969 65.344,89.172L65.75,89.766C65.844,89.859 65.953,90.062 65.953,90.266C65.953,90.656 65.547,91.062 65.047,91.062ZM94.453,93.141C96.047,93.141 96.641,92.156 96.641,90.563C96.641,90.172 96.641,89.672 96.547,89.172C95.953,85.797 93.859,81.719 90.875,77.656C87.203,72.391 81.25,67.516 74.781,64.141C71.813,62.547 68.828,61.266 65.953,60.359C68.734,63.938 71.516,67.516 74.094,71.094C84.031,85.297 85.813,93.141 94.453,93.141" style="fill-rule:nonzero;"/>
                <path id="path161" serif:id="path16" d="M132.109,86.297C132.109,90.266 134.688,96.625 145.516,97.313C146.016,97.422 146.422,97.813 146.422,98.406C146.422,99.5 145.625,99.5 144.531,99.5C134.594,99.5 125.563,94.438 125.453,87.078L125.453,64.438C125.453,60.563 125.453,57.391 121.484,54.109C118,51.219 114.234,51.031 112.047,50.922C111.547,50.828 111.156,50.438 111.156,49.828C111.156,48.844 111.75,48.844 112.734,48.734C119.297,48.344 124.063,44.766 125.156,39.906C125.453,38.813 125.453,38.609 125.453,35.031L125.453,15.359C125.453,11.188 125.453,8.016 130.219,4.234C134.094,1.266 140.656,0.172 144.531,0.172C145.625,0.172 146.422,0.172 146.422,1.266C146.422,2.25 145.828,2.25 144.828,2.344C138.563,2.75 133.703,5.922 132.406,11C132.109,11.891 132.109,12.094 132.109,15.656L132.109,36.516C132.109,41.094 131.313,42.781 128.141,45.953C126.047,48.047 123.172,49.047 120.391,49.828C128.531,52.125 132.109,56.688 132.109,62.453L132.109,86.297" style="fill-rule:nonzero;"/>
                <path id="path181" serif:id="path18" d="M173.078,49.828C173.078,52.719 170.688,55.094 167.813,55.094C164.922,55.094 162.547,52.719 162.547,49.828C162.547,46.953 164.922,44.563 167.813,44.563C170.688,44.563 173.078,46.953 173.078,49.828" style="fill-rule:nonzero;"/>
                <path id="path201" serif:id="path20" d="M203.453,13.375C203.453,9.406 200.875,3.047 190.047,2.344C189.547,2.25 189.156,1.859 189.156,1.266C189.156,0.172 190.25,0.172 191.141,0.172C200.781,0.172 210.016,5.031 210.109,12.578L210.109,35.234C210.109,39.109 210.109,42.281 214.078,45.563C217.563,48.438 221.344,48.641 223.516,48.734C224.016,48.844 224.422,49.234 224.422,49.828C224.422,50.828 223.828,50.828 222.828,50.922C216.266,51.328 211.5,54.906 210.406,59.766C210.109,60.859 210.109,61.063 210.109,64.641L210.109,84.297C210.109,88.469 210.109,91.656 205.344,95.438C201.375,98.516 194.516,99.5 191.141,99.5C190.25,99.5 189.156,99.5 189.156,98.406C189.156,97.422 189.75,97.422 190.734,97.313C197,96.922 201.875,93.734 203.156,88.672C203.453,87.781 203.453,87.578 203.453,84L203.453,63.141C203.453,58.578 204.25,56.891 207.438,53.703C209.516,51.625 212.391,50.625 215.172,49.828C207.031,47.547 203.453,42.984 203.453,37.219L203.453,13.375" style="fill-rule:nonzero;"/>
            </g>
        </g>
    </g>
    <g transform="matrix(0.358934,0,0,-0.358934,31.0979,100.382)">
        <g id="klftmpexporter4x1x0xV16492">
            <g id="g122" serif:id="g12">
                <path id="path142" serif:id="path14" d="M8.625,69.109L1.172,69.109L1.172,64.438L8.625,64.438L8.625,29.672L1.766,29.672L1.766,25C5.25,25.094 9.719,25.297 14.281,25.297C18.063,25.297 24.422,25.297 28,25L28,29.672L19.344,29.672L19.344,64.438L30.781,64.438L30.781,69.109L18.75,69.109L18.75,79.141C18.75,90.063 26.297,90.953 28.781,90.953C29.281,90.953 29.781,90.953 30.484,90.766C28.984,89.672 28.188,87.781 28.188,85.891C28.188,81.625 31.672,79.734 34.25,79.734C37.234,79.734 40.406,81.828 40.406,85.891C40.406,90.062 36.828,94.531 29.078,94.531C19.344,94.531 8.625,90.359 8.625,79.141L8.625,69.109" style="fill-rule:nonzero;"/>
                <path id="path162" serif:id="path16" d="M75.875,1.156C75.875,1.453 75.875,1.656 74.188,3.344C61.781,15.859 58.594,34.641 58.594,49.828C58.594,67.125 62.375,84.406 74.594,96.828C75.875,98.016 75.875,98.219 75.875,98.516C75.875,99.203 75.484,99.5 74.891,99.5C73.891,99.5 64.953,92.75 59.094,80.125C54.031,69.203 52.828,58.172 52.828,49.828C52.828,42.094 53.922,30.063 59.391,18.844C65.344,6.625 73.891,0.172 74.891,0.172C75.484,0.172 75.875,0.469 75.875,1.156" style="fill-rule:nonzero;"/>
                <path id="path182" serif:id="path18" d="M115.375,49.438L127,62.344C128.281,63.734 128.875,64.438 137.125,64.438L137.125,69.109C133.656,68.906 128.484,68.813 127.984,68.813C125.5,68.813 120.531,69 117.75,69.109L117.75,64.438C119.141,64.438 120.344,64.234 121.531,63.547C121.125,62.953 121.125,62.75 120.734,62.344L112.391,53.016L102.656,64.438L106.625,64.438L106.625,69.109C104.047,69 97.781,68.813 94.609,68.813C91.438,68.813 86.953,69 83.688,69.109L83.688,64.438L90.734,64.438L106.234,46.156L93.219,31.563C91.531,29.672 87.953,29.672 83.188,29.672L83.188,25C86.656,25.203 91.828,25.297 92.328,25.297C94.813,25.297 100.563,25.094 102.563,25L102.563,29.672C100.766,29.672 98.875,30.172 98.875,30.766C98.875,30.859 98.875,30.953 99.578,31.75L109.219,42.578L120.141,29.672L116.266,29.672L116.266,25C118.844,25.094 124.906,25.297 128.188,25.297C131.359,25.297 135.828,25.094 139.109,25L139.109,29.672L132.063,29.672L115.375,49.438" style="fill-rule:nonzero;"/>
                <path id="path202" serif:id="path20" d="M169.703,49.828C169.703,57.578 168.609,69.609 163.156,80.828C157.188,93.047 148.656,99.5 147.656,99.5C147.063,99.5 146.656,99.109 146.656,98.516C146.656,98.219 146.656,98.016 148.547,96.219C158.281,86.391 163.953,70.594 163.953,49.828C163.953,32.844 160.266,15.359 147.953,2.844C146.656,1.656 146.656,1.453 146.656,1.156C146.656,0.563 147.063,0.172 147.656,0.172C148.656,0.172 157.594,6.922 163.453,19.531C168.516,30.469 169.703,41.484 169.703,49.828" style="fill-rule:nonzero;"/>
            </g>
        </g>
    </g>
    <g id="klftmpexporter4x1x0xq16492">
    </g>
</svg>
