<?xml version="1.0" encoding="UTF-8" standalone="no"?>
<!DOCTYPE svg PUBLIC "-//W3C//DTD SVG 1.1//EN" "http://www.w3.org/Graphics/SVG/1.1/DTD/svg11.dtd">
<svg width="100%" height="100%" viewBox="0 0 771 650" version="1.1" xmlns="http://www.w3.org/2000/svg" xmlns:xlink="http://www.w3.org/1999/xlink" xml:space="preserve" xmlns:serif="http://www.serif.com/" style="fill-rule:evenodd;clip-rule:evenodd;stroke-miterlimit:10;">
    <g id="Ebene-1" serif:id="Ebene 1" transform="matrix(4.16667,0,0,4.16667,0,0)">
        <g transform="matrix(0.932892,0,0,1,29.351,67.5406)">
            <path d="M0,0L138.347,0" style="fill:none;fill-rule:nonzero;stroke:rgb(35,31,32);stroke-width:0.78px;stroke-dasharray:2.06,2.06;"/>
        </g>
        <g transform="matrix(1,0,0,1,159.409,67.5406)">
            <path d="M0,0L1,0" style="fill:none;fill-rule:nonzero;stroke:rgb(35,31,32);stroke-width:0.75px;"/>
        </g>
        <g transform="matrix(0,-1,-1,0,160.564,63.1211)">
            <ellipse cx="-4.42" cy="-0.001" rx="51.024" ry="4.42" style="fill:none;stroke:rgb(35,31,32);stroke-width:0.75px;"/>
        </g>
        <g transform="matrix(0,-1,-1,0,58.1743,65.4953)">
            <ellipse cx="-2.057" cy="0" rx="14.173" ry="2.057" style="fill:none;stroke:rgb(35,31,32);stroke-width:0.75px;"/>
        </g>
        <g transform="matrix(1,0,0,1,33.2269,119.94)">
            <path d="M0,0L21.41,0" style="fill:none;fill-rule:nonzero;stroke:rgb(35,31,32);stroke-width:0.75px;"/>
        </g>
        <g transform="matrix(1,0,0,1,33.7738,118.07)">
            <path d="M0,3.74L-3.238,1.87L0,0L0,3.74Z" style="fill:rgb(35,31,32);fill-rule:nonzero;"/>
        </g>
        <g transform="matrix(1,0,0,1,54.0892,118.07)">
            <path d="M0,3.74L3.238,1.87L0,0L0,3.74Z" style="fill:rgb(35,31,32);fill-rule:nonzero;"/>
        </g>
        <g transform="matrix(1,0,0,1,61.5184,119.94)">
            <path d="M0,0L95.786,0" style="fill:none;fill-rule:nonzero;stroke:rgb(35,31,32);stroke-width:0.75px;"/>
        </g>
        <g transform="matrix(1,0,0,1,62.0658,118.07)">
            <path d="M0,3.739L-3.238,1.869L0,0L0,3.739Z" style="fill:rgb(35,31,32);fill-rule:nonzero;"/>
        </g>
        <g transform="matrix(1,0,0,1,156.756,118.07)">
            <path d="M0,3.739L3.238,1.869L0,0L0,3.739Z" style="fill:rgb(35,31,32);fill-rule:nonzero;"/>
        </g>
        <g transform="matrix(1,0,0,1,38.5873,116.362)">
            <path d="M0,-5.741C0.036,-5.866 0.036,-5.885 0.036,-5.921C0.036,-6.002 -0.018,-6.048 -0.098,-6.048C-0.225,-6.048 -1.018,-5.976 -1.198,-5.957C-1.289,-5.948 -1.387,-5.94 -1.387,-5.787C-1.387,-5.67 -1.289,-5.67 -1.145,-5.67C-0.72,-5.67 -0.72,-5.606 -0.72,-5.525C-0.72,-5.471 -0.72,-5.453 -0.784,-5.209L-1.262,-3.307C-1.387,-2.801 -1.506,-2.341 -1.604,-1.918C-1.666,-1.693 -1.731,-1.423 -1.731,-1.134C-1.731,-0.359 -1.298,0.307 -0.522,0.307C0.533,0.307 1.686,-0.962 1.686,-2.315C1.686,-3.234 1.119,-3.776 0.441,-3.776C-0.018,-3.776 -0.414,-3.46 -0.623,-3.262L0,-5.742L0,-5.741ZM-0.75,-2.747C-0.496,-3.108 -0.036,-3.549 0.423,-3.549C0.848,-3.549 1.018,-3.126 1.018,-2.702C1.018,-2.296 0.766,-1.179 0.487,-0.7C0.152,-0.122 -0.244,0.085 -0.522,0.085C-0.975,0.085 -1.153,-0.366 -1.153,-0.827C-1.153,-1.143 -1.09,-1.385 -0.883,-2.207L-0.75,-2.748" style="fill:rgb(24,22,28);fill-rule:nonzero;"/>
        </g>
        <g transform="matrix(1,0,0,1,42.1791,117.336)">
            <path d="M0,-3.797C-0.059,-3.933 -0.114,-3.933 -0.245,-3.933L-1.323,-3.933L-1.323,-3.702L-1.168,-3.702C-0.691,-3.702 -0.691,-3.63 -0.691,-3.433L-0.691,-0.518C-0.691,-0.363 -0.691,-0.096 -1.322,-0.096L-1.322,0.137C-1.209,0.131 -0.822,0.115 -0.572,0.115C-0.297,0.115 0.078,0.131 0.186,0.137L0.186,-0.096C-0.445,-0.096 -0.445,-0.363 -0.445,-0.518L-0.445,-3.647L-0.44,-3.647L1.188,-0.001C1.205,0.048 1.247,0.137 1.349,0.137C1.451,0.137 1.491,0.042 1.51,-0.001L3.16,-3.703L3.166,-3.703L3.166,-0.364C3.166,-0.169 3.166,-0.096 2.689,-0.096L2.534,-0.096L2.534,0.136C2.653,0.13 3.154,0.113 3.428,0.113C3.708,0.113 4.203,0.13 4.328,0.136L4.328,-0.096L4.173,-0.096C3.696,-0.096 3.696,-0.169 3.696,-0.364L3.696,-3.434C3.696,-3.631 3.696,-3.703 4.173,-3.703L4.328,-3.703L4.328,-3.934L3.25,-3.934C3.119,-3.934 3.064,-3.934 3.005,-3.798L1.503,-0.428L0.001,-3.798" style="fill:rgb(24,22,28);fill-rule:nonzero;"/>
        </g>
        <g transform="matrix(1,0,0,1,50.9447,114.987)">
            <path d="M0,0.9L-0.22,0.9C-0.292,1.622 -0.476,2.253 -1.556,2.253L-2.204,2.253C-2.496,2.253 -2.496,2.206 -2.496,2.02L-2.496,-1.085C-2.496,-1.282 -2.496,-1.354 -1.924,-1.354L-1.704,-1.354L-1.704,-1.585C-2.02,-1.562 -2.456,-1.562 -2.777,-1.562C-3.043,-1.562 -3.582,-1.581 -3.724,-1.585L-3.724,-1.354L-3.568,-1.354C-3.092,-1.354 -3.092,-1.282 -3.092,-1.085L-3.092,1.985C-3.092,2.18 -3.092,2.253 -3.568,2.253L-3.724,2.253L-3.724,2.485L-0.183,2.485L0.001,0.899" style="fill:rgb(24,22,28);fill-rule:nonzero;"/>
        </g>
        <g transform="matrix(0,-1,-1,0,90.8878,63.8992)">
            <path d="M-61.011,61.011L61.011,61.011" style="fill:none;fill-rule:nonzero;stroke:rgb(35,31,32);stroke-width:0.75px;stroke-dasharray:1.99,1.99;"/>
        </g>
        <g transform="matrix(0,-1,-1,0,119.163,63.8992)">
            <path d="M-61.011,61.011L61.011,61.011" style="fill:none;fill-rule:nonzero;stroke:rgb(35,31,32);stroke-width:0.75px;stroke-dasharray:1.99,1.99;"/>
        </g>
        <g transform="matrix(0,-1,-1,0,221.536,63.8992)">
            <path d="M-61.011,61.011L61.011,61.011" style="fill:none;fill-rule:nonzero;stroke:rgb(35,31,32);stroke-width:0.75px;stroke-dasharray:1.99,1.99;"/>
        </g>
        <g transform="matrix(1,0,0,1,109.166,116.362)">
            <path d="M0,-5.741C0.036,-5.866 0.036,-5.885 0.036,-5.921C0.036,-6.002 -0.018,-6.048 -0.098,-6.048C-0.225,-6.048 -1.018,-5.976 -1.198,-5.957C-1.289,-5.948 -1.387,-5.94 -1.387,-5.787C-1.387,-5.67 -1.289,-5.67 -1.145,-5.67C-0.72,-5.67 -0.72,-5.606 -0.72,-5.525C-0.72,-5.471 -0.72,-5.453 -0.784,-5.209L-1.262,-3.307C-1.387,-2.801 -1.506,-2.341 -1.604,-1.918C-1.666,-1.693 -1.731,-1.423 -1.731,-1.134C-1.731,-0.359 -1.298,0.307 -0.522,0.307C0.533,0.307 1.686,-0.962 1.686,-2.315C1.686,-3.234 1.119,-3.776 0.441,-3.776C-0.018,-3.776 -0.414,-3.46 -0.623,-3.262L0,-5.742L0,-5.741ZM-0.75,-2.747C-0.496,-3.108 -0.036,-3.549 0.423,-3.549C0.848,-3.549 1.018,-3.126 1.018,-2.702C1.018,-2.296 0.766,-1.179 0.487,-0.7C0.152,-0.122 -0.244,0.085 -0.522,0.085C-0.975,0.085 -1.153,-0.366 -1.153,-0.827C-1.153,-1.143 -1.09,-1.385 -0.883,-2.207L-0.75,-2.748" style="fill:rgb(24,22,28);fill-rule:nonzero;"/>
        </g>
        <g transform="matrix(1,0,0,1,115.124,114.987)">
            <path d="M0,0.9L-0.22,0.9C-0.292,1.622 -0.476,2.253 -1.556,2.253L-2.204,2.253C-2.496,2.253 -2.496,2.206 -2.496,2.02L-2.496,-1.085C-2.496,-1.282 -2.496,-1.354 -1.924,-1.354L-1.704,-1.354L-1.704,-1.585C-2.02,-1.562 -2.456,-1.562 -2.777,-1.562C-3.043,-1.562 -3.582,-1.581 -3.724,-1.585L-3.724,-1.354L-3.569,-1.354C-3.092,-1.354 -3.092,-1.282 -3.092,-1.085L-3.092,1.985C-3.092,2.18 -3.092,2.253 -3.569,2.253L-3.724,2.253L-3.724,2.485L-0.183,2.485L0.001,0.899" style="fill:rgb(24,22,28);fill-rule:nonzero;"/>
        </g>
        <g transform="matrix(1,0,0,1,-12.9225,-15.2153)">
            <g transform="matrix(9,0,0,9,153.779,153.377)">
                <path d="M0.918,-0.688L0.923,-0.685L0.923,-0.661L0.919,-0.657C0.883,-0.656 0.861,-0.654 0.852,-0.652C0.844,-0.649 0.838,-0.645 0.834,-0.639C0.83,-0.633 0.828,-0.621 0.828,-0.604C0.827,-0.586 0.826,-0.536 0.825,-0.455L0.825,-0.229C0.825,-0.197 0.826,-0.16 0.827,-0.119C0.828,-0.078 0.83,-0.054 0.833,-0.048C0.836,-0.041 0.841,-0.036 0.85,-0.033C0.858,-0.03 0.881,-0.028 0.919,-0.027L0.923,-0.023L0.923,0L0.918,0.004C0.865,0.001 0.819,-0 0.78,-0C0.753,-0 0.708,0.001 0.644,0.004L0.639,0L0.639,-0.023L0.643,-0.027C0.679,-0.028 0.701,-0.03 0.71,-0.032C0.718,-0.035 0.724,-0.039 0.728,-0.045C0.732,-0.051 0.734,-0.063 0.734,-0.081C0.735,-0.099 0.736,-0.148 0.737,-0.229L0.737,-0.588L0.568,-0.235C0.526,-0.147 0.489,-0.064 0.458,0.014L0.438,0.014C0.42,-0.028 0.405,-0.062 0.394,-0.087L0.16,-0.572L0.16,-0.23C0.16,-0.199 0.161,-0.162 0.161,-0.12C0.162,-0.079 0.164,-0.055 0.167,-0.048C0.171,-0.042 0.176,-0.037 0.185,-0.034C0.193,-0.03 0.216,-0.028 0.254,-0.028L0.258,-0.024L0.258,-0L0.253,0.004L0.222,0.002C0.19,0.001 0.162,-0 0.139,-0C0.129,-0 0.09,0.001 0.022,0.004L0.019,-0L0.019,-0.023L0.022,-0.028C0.058,-0.028 0.08,-0.03 0.089,-0.033C0.097,-0.035 0.103,-0.04 0.107,-0.046C0.111,-0.052 0.113,-0.064 0.114,-0.081C0.114,-0.097 0.115,-0.147 0.116,-0.23L0.116,-0.454C0.116,-0.484 0.115,-0.52 0.115,-0.562C0.114,-0.605 0.112,-0.629 0.109,-0.636C0.106,-0.643 0.1,-0.648 0.092,-0.651C0.084,-0.654 0.061,-0.656 0.022,-0.657L0.019,-0.661L0.019,-0.684L0.023,-0.688C0.045,-0.687 0.076,-0.686 0.114,-0.686C0.15,-0.686 0.181,-0.687 0.208,-0.688C0.235,-0.625 0.261,-0.568 0.286,-0.517L0.471,-0.137L0.638,-0.485C0.683,-0.579 0.714,-0.647 0.729,-0.688C0.761,-0.687 0.792,-0.686 0.822,-0.686C0.849,-0.686 0.881,-0.687 0.918,-0.688Z" style="fill:rgb(35,31,32);fill-rule:nonzero;"/>
            </g>
            <g transform="matrix(9,0,0,9,162.292,153.377)">
                <path d="M0.104,-0.331L0.084,-0.336L0.081,-0.341L0.081,-0.401C0.139,-0.444 0.195,-0.466 0.25,-0.466C0.287,-0.466 0.318,-0.459 0.343,-0.445C0.368,-0.431 0.385,-0.413 0.396,-0.392C0.408,-0.371 0.413,-0.347 0.413,-0.319L0.411,-0.221L0.411,-0.075C0.411,-0.055 0.412,-0.043 0.415,-0.039C0.418,-0.035 0.421,-0.032 0.424,-0.031C0.428,-0.029 0.435,-0.028 0.444,-0.027L0.472,-0.024L0.476,-0.02L0.476,-0L0.472,0.003C0.448,0.001 0.426,0 0.406,0C0.386,0 0.363,0.001 0.335,0.003L0.328,-0.003L0.33,-0.082L0.224,0.001C0.206,0.008 0.186,0.012 0.165,0.012C0.139,0.012 0.117,0.007 0.098,-0.002C0.079,-0.011 0.065,-0.025 0.055,-0.042C0.045,-0.058 0.04,-0.079 0.04,-0.103C0.04,-0.151 0.055,-0.188 0.085,-0.215C0.115,-0.242 0.197,-0.265 0.33,-0.284C0.33,-0.332 0.319,-0.366 0.298,-0.385C0.276,-0.405 0.248,-0.415 0.211,-0.415C0.193,-0.415 0.175,-0.412 0.16,-0.407C0.144,-0.401 0.136,-0.397 0.133,-0.393C0.131,-0.39 0.122,-0.37 0.107,-0.333L0.104,-0.331ZM0.33,-0.254C0.239,-0.239 0.182,-0.222 0.16,-0.205C0.137,-0.187 0.126,-0.16 0.126,-0.123C0.126,-0.072 0.151,-0.047 0.202,-0.047C0.245,-0.047 0.288,-0.072 0.33,-0.122L0.33,-0.254Z" style="fill:rgb(35,31,32);fill-rule:nonzero;"/>
            </g>
            <g transform="matrix(9,0,0,9,166.792,153.377)">
                <path d="M0.141,-0.684C0.156,-0.684 0.169,-0.678 0.18,-0.667C0.19,-0.657 0.196,-0.644 0.196,-0.628C0.196,-0.613 0.19,-0.601 0.18,-0.59C0.169,-0.579 0.156,-0.574 0.141,-0.574C0.126,-0.574 0.113,-0.579 0.102,-0.59C0.091,-0.6 0.085,-0.613 0.085,-0.628C0.085,-0.644 0.091,-0.657 0.102,-0.667C0.113,-0.678 0.126,-0.684 0.141,-0.684ZM0.182,-0.465L0.191,-0.459C0.188,-0.416 0.186,-0.362 0.186,-0.296L0.186,-0.186C0.186,-0.179 0.187,-0.156 0.188,-0.117C0.189,-0.078 0.191,-0.055 0.192,-0.049C0.194,-0.042 0.196,-0.038 0.199,-0.035C0.202,-0.032 0.205,-0.03 0.209,-0.029C0.214,-0.028 0.231,-0.027 0.262,-0.025L0.267,-0.021L0.267,-0L0.263,0.004C0.222,0.001 0.183,-0 0.145,-0C0.108,-0 0.069,0.001 0.028,0.004L0.023,-0L0.023,-0.021L0.028,-0.025C0.059,-0.027 0.077,-0.028 0.081,-0.029C0.085,-0.03 0.089,-0.032 0.092,-0.035C0.095,-0.038 0.097,-0.043 0.098,-0.05C0.1,-0.056 0.101,-0.077 0.102,-0.113C0.104,-0.148 0.104,-0.175 0.104,-0.193L0.104,-0.29C0.104,-0.303 0.104,-0.32 0.103,-0.343C0.101,-0.365 0.1,-0.379 0.099,-0.384C0.099,-0.389 0.096,-0.393 0.092,-0.396C0.088,-0.398 0.079,-0.399 0.066,-0.399L0.025,-0.4L0.021,-0.404L0.021,-0.425L0.025,-0.429C0.087,-0.436 0.139,-0.448 0.182,-0.465Z" style="fill:rgb(35,31,32);fill-rule:nonzero;"/>
            </g>
            <g transform="matrix(9,0,0,9,169.411,153.377)">
                <path d="M0.167,-0.465L0.176,-0.459C0.174,-0.437 0.173,-0.409 0.172,-0.373C0.198,-0.395 0.223,-0.416 0.247,-0.438C0.253,-0.445 0.26,-0.449 0.266,-0.452C0.272,-0.455 0.282,-0.458 0.296,-0.461C0.31,-0.465 0.324,-0.466 0.339,-0.466C0.364,-0.466 0.388,-0.461 0.411,-0.451C0.434,-0.441 0.452,-0.429 0.464,-0.415C0.476,-0.401 0.484,-0.385 0.488,-0.366C0.493,-0.347 0.495,-0.324 0.495,-0.296L0.495,-0.21C0.495,-0.205 0.496,-0.164 0.498,-0.089C0.498,-0.058 0.502,-0.04 0.508,-0.034C0.514,-0.028 0.534,-0.025 0.568,-0.025L0.572,-0.021L0.572,-0L0.568,0.004C0.527,0.001 0.499,-0 0.484,-0C0.476,-0 0.452,0.001 0.413,0.004L0.407,-0.001C0.411,-0.044 0.414,-0.099 0.414,-0.167L0.414,-0.231C0.414,-0.269 0.413,-0.297 0.411,-0.314C0.409,-0.331 0.404,-0.346 0.395,-0.36C0.385,-0.374 0.373,-0.385 0.358,-0.392C0.343,-0.4 0.324,-0.404 0.303,-0.404C0.286,-0.404 0.272,-0.402 0.26,-0.399C0.248,-0.395 0.234,-0.388 0.219,-0.378C0.204,-0.367 0.193,-0.357 0.186,-0.348C0.179,-0.339 0.175,-0.33 0.173,-0.322C0.172,-0.314 0.171,-0.297 0.171,-0.271L0.171,-0.186C0.171,-0.179 0.172,-0.156 0.173,-0.117C0.174,-0.078 0.176,-0.055 0.177,-0.049C0.178,-0.042 0.181,-0.038 0.184,-0.035C0.187,-0.032 0.19,-0.03 0.194,-0.029C0.199,-0.028 0.216,-0.027 0.247,-0.025L0.251,-0.021L0.251,-0L0.248,0.004C0.207,0.001 0.168,-0 0.13,-0C0.092,-0 0.053,0.001 0.013,0.004L0.008,-0L0.008,-0.021L0.013,-0.025C0.044,-0.027 0.062,-0.028 0.066,-0.029C0.07,-0.03 0.074,-0.032 0.077,-0.035C0.08,-0.038 0.082,-0.043 0.083,-0.05C0.084,-0.056 0.086,-0.077 0.087,-0.113C0.089,-0.148 0.089,-0.175 0.089,-0.193L0.089,-0.29C0.089,-0.303 0.089,-0.32 0.087,-0.343C0.086,-0.365 0.085,-0.379 0.084,-0.384C0.083,-0.389 0.081,-0.393 0.077,-0.396C0.072,-0.398 0.064,-0.399 0.051,-0.399L0.01,-0.4L0.006,-0.404L0.006,-0.425L0.01,-0.429C0.072,-0.436 0.124,-0.448 0.167,-0.465Z" style="fill:rgb(35,31,32);fill-rule:nonzero;"/>
            </g>
            <g transform="matrix(9,0,0,9,176.899,153.377)">
                <path d="M0.183,-0.723L0.192,-0.717C0.188,-0.68 0.187,-0.605 0.187,-0.492L0.187,-0.186C0.187,-0.179 0.187,-0.156 0.188,-0.117C0.19,-0.078 0.191,-0.055 0.193,-0.049C0.194,-0.042 0.196,-0.038 0.199,-0.035C0.202,-0.032 0.206,-0.03 0.21,-0.029C0.214,-0.028 0.232,-0.027 0.263,-0.025L0.267,-0.021L0.267,-0L0.263,0.004C0.222,0.001 0.183,-0 0.146,-0C0.108,-0 0.069,0.001 0.028,0.004L0.024,-0L0.024,-0.021L0.028,-0.025C0.06,-0.027 0.078,-0.028 0.082,-0.029C0.086,-0.03 0.089,-0.032 0.093,-0.035C0.096,-0.038 0.098,-0.043 0.099,-0.05C0.1,-0.056 0.101,-0.077 0.103,-0.113C0.104,-0.148 0.105,-0.175 0.105,-0.193L0.105,-0.446L0.103,-0.55C0.102,-0.586 0.101,-0.611 0.1,-0.625C0.099,-0.639 0.097,-0.647 0.095,-0.65C0.093,-0.653 0.09,-0.654 0.085,-0.656C0.08,-0.657 0.06,-0.658 0.026,-0.658L0.021,-0.662L0.021,-0.683L0.025,-0.687C0.088,-0.694 0.14,-0.706 0.183,-0.723Z" style="fill:rgb(35,31,32);fill-rule:nonzero;"/>
            </g>
            <g transform="matrix(9,0,0,9,179.518,153.377)">
                <path d="M0.432,-0.072L0.416,-0.037C0.382,-0.015 0.352,-0.001 0.325,0.006C0.299,0.012 0.275,0.016 0.254,0.016C0.215,0.016 0.178,0.008 0.143,-0.007C0.108,-0.023 0.08,-0.049 0.058,-0.085C0.036,-0.121 0.025,-0.165 0.025,-0.217C0.025,-0.251 0.029,-0.282 0.038,-0.309C0.046,-0.337 0.055,-0.357 0.064,-0.371C0.073,-0.384 0.089,-0.399 0.111,-0.415C0.133,-0.431 0.157,-0.444 0.182,-0.454C0.206,-0.464 0.233,-0.469 0.262,-0.469C0.301,-0.469 0.335,-0.46 0.365,-0.441C0.395,-0.423 0.416,-0.399 0.428,-0.371C0.44,-0.342 0.446,-0.312 0.446,-0.279C0.446,-0.269 0.445,-0.259 0.444,-0.25L0.439,-0.245C0.417,-0.24 0.387,-0.236 0.35,-0.235C0.312,-0.233 0.287,-0.232 0.275,-0.232L0.119,-0.232C0.119,-0.165 0.136,-0.115 0.169,-0.083C0.203,-0.052 0.243,-0.036 0.292,-0.036C0.314,-0.036 0.336,-0.04 0.357,-0.047C0.378,-0.055 0.4,-0.066 0.424,-0.08L0.432,-0.072ZM0.119,-0.271C0.125,-0.271 0.147,-0.269 0.186,-0.268C0.226,-0.267 0.255,-0.266 0.273,-0.266C0.319,-0.266 0.346,-0.267 0.356,-0.269C0.356,-0.276 0.356,-0.282 0.356,-0.287C0.356,-0.337 0.346,-0.375 0.326,-0.399C0.305,-0.424 0.277,-0.436 0.242,-0.436C0.203,-0.436 0.173,-0.422 0.151,-0.395C0.129,-0.367 0.119,-0.326 0.119,-0.271Z" style="fill:rgb(35,31,32);fill-rule:nonzero;"/>
            </g>
            <g transform="matrix(9,0,0,9,183.829,153.377)">
                <path d="M0.167,-0.465L0.176,-0.459C0.174,-0.437 0.173,-0.409 0.172,-0.373C0.198,-0.395 0.223,-0.416 0.247,-0.438C0.253,-0.445 0.26,-0.449 0.266,-0.452C0.272,-0.455 0.282,-0.458 0.296,-0.461C0.31,-0.465 0.324,-0.466 0.339,-0.466C0.364,-0.466 0.388,-0.461 0.411,-0.451C0.434,-0.441 0.452,-0.429 0.464,-0.415C0.476,-0.401 0.484,-0.385 0.488,-0.366C0.493,-0.347 0.495,-0.324 0.495,-0.296L0.495,-0.21C0.495,-0.205 0.496,-0.164 0.498,-0.089C0.498,-0.058 0.502,-0.04 0.508,-0.034C0.514,-0.028 0.534,-0.025 0.568,-0.025L0.572,-0.021L0.572,-0L0.568,0.004C0.527,0.001 0.499,-0 0.484,-0C0.476,-0 0.452,0.001 0.413,0.004L0.407,-0.001C0.411,-0.044 0.414,-0.099 0.414,-0.167L0.414,-0.231C0.414,-0.269 0.413,-0.297 0.411,-0.314C0.409,-0.331 0.404,-0.346 0.395,-0.36C0.385,-0.374 0.373,-0.385 0.358,-0.392C0.343,-0.4 0.324,-0.404 0.303,-0.404C0.286,-0.404 0.272,-0.402 0.26,-0.399C0.248,-0.395 0.234,-0.388 0.219,-0.378C0.204,-0.367 0.193,-0.357 0.186,-0.348C0.179,-0.339 0.175,-0.33 0.173,-0.322C0.172,-0.314 0.171,-0.297 0.171,-0.271L0.171,-0.186C0.171,-0.179 0.172,-0.156 0.173,-0.117C0.174,-0.078 0.176,-0.055 0.177,-0.049C0.178,-0.042 0.181,-0.038 0.184,-0.035C0.187,-0.032 0.19,-0.03 0.194,-0.029C0.199,-0.028 0.216,-0.027 0.247,-0.025L0.251,-0.021L0.251,-0L0.248,0.004C0.207,0.001 0.168,-0 0.13,-0C0.092,-0 0.053,0.001 0.013,0.004L0.008,-0L0.008,-0.021L0.013,-0.025C0.044,-0.027 0.062,-0.028 0.066,-0.029C0.07,-0.03 0.074,-0.032 0.077,-0.035C0.08,-0.038 0.082,-0.043 0.083,-0.05C0.084,-0.056 0.086,-0.077 0.087,-0.113C0.089,-0.148 0.089,-0.175 0.089,-0.193L0.089,-0.29C0.089,-0.303 0.089,-0.32 0.087,-0.343C0.086,-0.365 0.085,-0.379 0.084,-0.384C0.083,-0.389 0.081,-0.393 0.077,-0.396C0.072,-0.398 0.064,-0.399 0.051,-0.399L0.01,-0.4L0.006,-0.404L0.006,-0.425L0.01,-0.429C0.072,-0.436 0.124,-0.448 0.167,-0.465Z" style="fill:rgb(35,31,32);fill-rule:nonzero;"/>
            </g>
            <g transform="matrix(9,0,0,9,189.067,153.377)">
                <path d="M0.049,-0.144L0.07,-0.144L0.075,-0.139C0.075,-0.112 0.077,-0.088 0.08,-0.069C0.09,-0.054 0.107,-0.041 0.132,-0.031C0.157,-0.022 0.181,-0.017 0.205,-0.017C0.24,-0.017 0.267,-0.026 0.288,-0.045C0.309,-0.063 0.319,-0.086 0.319,-0.111C0.319,-0.125 0.315,-0.137 0.308,-0.148C0.3,-0.158 0.289,-0.166 0.274,-0.173C0.259,-0.18 0.231,-0.188 0.192,-0.197C0.159,-0.205 0.135,-0.211 0.122,-0.215C0.109,-0.219 0.096,-0.227 0.083,-0.237C0.071,-0.248 0.062,-0.26 0.055,-0.276C0.049,-0.291 0.045,-0.307 0.045,-0.326C0.045,-0.369 0.063,-0.404 0.097,-0.43C0.132,-0.457 0.175,-0.47 0.227,-0.47C0.249,-0.47 0.273,-0.467 0.298,-0.461C0.324,-0.455 0.344,-0.449 0.357,-0.443L0.361,-0.437C0.359,-0.424 0.357,-0.389 0.356,-0.334L0.352,-0.33L0.333,-0.33L0.328,-0.334C0.327,-0.354 0.325,-0.368 0.323,-0.376C0.32,-0.384 0.315,-0.392 0.305,-0.402C0.296,-0.411 0.282,-0.419 0.265,-0.425C0.248,-0.431 0.23,-0.435 0.21,-0.435C0.191,-0.435 0.174,-0.432 0.16,-0.426C0.147,-0.42 0.136,-0.411 0.128,-0.399C0.119,-0.387 0.115,-0.373 0.115,-0.356C0.115,-0.344 0.118,-0.333 0.123,-0.323C0.128,-0.313 0.136,-0.305 0.146,-0.299C0.156,-0.293 0.167,-0.289 0.179,-0.286L0.232,-0.272C0.278,-0.261 0.31,-0.252 0.33,-0.244C0.35,-0.236 0.365,-0.223 0.375,-0.207C0.386,-0.19 0.392,-0.17 0.392,-0.147C0.392,-0.102 0.373,-0.063 0.336,-0.031C0.299,0.001 0.251,0.017 0.193,0.017C0.172,0.017 0.147,0.015 0.116,0.01C0.086,0.006 0.06,0.001 0.039,-0.005L0.036,-0.011L0.041,-0.044C0.043,-0.054 0.044,-0.064 0.044,-0.074C0.044,-0.085 0.045,-0.106 0.045,-0.139L0.049,-0.144Z" style="fill:rgb(35,31,32);fill-rule:nonzero;"/>
            </g>
        </g>
        <g transform="matrix(1,0,0,1,-12.9225,-15.2153)">
            <g transform="matrix(9,0,0,9,56.3618,153.377)">
                <path d="M0.918,-0.688L0.923,-0.685L0.923,-0.661L0.919,-0.657C0.883,-0.656 0.861,-0.654 0.852,-0.652C0.844,-0.649 0.838,-0.645 0.834,-0.639C0.83,-0.633 0.828,-0.621 0.828,-0.604C0.827,-0.586 0.826,-0.536 0.825,-0.455L0.825,-0.229C0.825,-0.197 0.826,-0.16 0.827,-0.119C0.828,-0.078 0.83,-0.054 0.833,-0.048C0.836,-0.041 0.841,-0.036 0.85,-0.033C0.858,-0.03 0.881,-0.028 0.919,-0.027L0.923,-0.023L0.923,0L0.918,0.004C0.865,0.001 0.819,-0 0.78,-0C0.753,-0 0.708,0.001 0.644,0.004L0.639,0L0.639,-0.023L0.643,-0.027C0.679,-0.028 0.701,-0.03 0.71,-0.032C0.718,-0.035 0.724,-0.039 0.728,-0.045C0.732,-0.051 0.734,-0.063 0.734,-0.081C0.735,-0.099 0.736,-0.148 0.737,-0.229L0.737,-0.588L0.568,-0.235C0.526,-0.147 0.489,-0.064 0.458,0.014L0.438,0.014C0.42,-0.028 0.405,-0.062 0.394,-0.087L0.16,-0.572L0.16,-0.23C0.16,-0.199 0.161,-0.162 0.161,-0.12C0.162,-0.079 0.164,-0.055 0.167,-0.048C0.171,-0.042 0.176,-0.037 0.185,-0.034C0.193,-0.03 0.216,-0.028 0.254,-0.028L0.258,-0.024L0.258,-0L0.253,0.004L0.222,0.002C0.19,0.001 0.162,-0 0.139,-0C0.129,-0 0.09,0.001 0.022,0.004L0.019,-0L0.019,-0.023L0.022,-0.028C0.058,-0.028 0.08,-0.03 0.089,-0.033C0.097,-0.035 0.103,-0.04 0.107,-0.046C0.111,-0.052 0.113,-0.064 0.114,-0.081C0.114,-0.097 0.115,-0.147 0.116,-0.23L0.116,-0.454C0.116,-0.484 0.115,-0.52 0.115,-0.562C0.114,-0.605 0.112,-0.629 0.109,-0.636C0.106,-0.643 0.1,-0.648 0.092,-0.651C0.084,-0.654 0.061,-0.656 0.022,-0.657L0.019,-0.661L0.019,-0.684L0.023,-0.688C0.045,-0.687 0.076,-0.686 0.114,-0.686C0.15,-0.686 0.181,-0.687 0.208,-0.688C0.235,-0.625 0.261,-0.568 0.286,-0.517L0.471,-0.137L0.638,-0.485C0.683,-0.579 0.714,-0.647 0.729,-0.688C0.761,-0.687 0.792,-0.686 0.822,-0.686C0.849,-0.686 0.881,-0.687 0.918,-0.688Z" style="fill:rgb(35,31,32);fill-rule:nonzero;"/>
            </g>
            <g transform="matrix(9,0,0,9,64.874,153.377)">
                <path d="M0.141,-0.684C0.156,-0.684 0.169,-0.678 0.18,-0.667C0.19,-0.657 0.196,-0.644 0.196,-0.628C0.196,-0.613 0.19,-0.601 0.18,-0.59C0.169,-0.579 0.156,-0.574 0.141,-0.574C0.126,-0.574 0.113,-0.579 0.102,-0.59C0.091,-0.6 0.085,-0.613 0.085,-0.628C0.085,-0.644 0.091,-0.657 0.102,-0.667C0.113,-0.678 0.126,-0.684 0.141,-0.684ZM0.182,-0.465L0.191,-0.459C0.188,-0.416 0.186,-0.362 0.186,-0.296L0.186,-0.186C0.186,-0.179 0.187,-0.156 0.188,-0.117C0.189,-0.078 0.191,-0.055 0.192,-0.049C0.194,-0.042 0.196,-0.038 0.199,-0.035C0.202,-0.032 0.205,-0.03 0.209,-0.029C0.214,-0.028 0.231,-0.027 0.262,-0.025L0.267,-0.021L0.267,-0L0.263,0.004C0.222,0.001 0.183,-0 0.145,-0C0.108,-0 0.069,0.001 0.028,0.004L0.023,-0L0.023,-0.021L0.028,-0.025C0.059,-0.027 0.077,-0.028 0.081,-0.029C0.085,-0.03 0.089,-0.032 0.092,-0.035C0.095,-0.038 0.097,-0.043 0.098,-0.05C0.1,-0.056 0.101,-0.077 0.102,-0.113C0.104,-0.148 0.104,-0.175 0.104,-0.193L0.104,-0.29C0.104,-0.303 0.104,-0.32 0.103,-0.343C0.101,-0.365 0.1,-0.379 0.099,-0.384C0.099,-0.389 0.096,-0.393 0.092,-0.396C0.088,-0.398 0.079,-0.399 0.066,-0.399L0.025,-0.4L0.021,-0.404L0.021,-0.425L0.025,-0.429C0.087,-0.436 0.139,-0.448 0.182,-0.465Z" style="fill:rgb(35,31,32);fill-rule:nonzero;"/>
            </g>
            <g transform="matrix(9,0,0,9,67.4931,153.377)">
                <path d="M0.424,-0.052L0.404,-0.02C0.362,0.004 0.315,0.015 0.264,0.015C0.192,0.015 0.137,-0.006 0.098,-0.049C0.059,-0.091 0.039,-0.146 0.039,-0.214C0.039,-0.244 0.042,-0.272 0.049,-0.296C0.056,-0.32 0.064,-0.339 0.074,-0.355C0.085,-0.371 0.096,-0.383 0.108,-0.392C0.121,-0.401 0.142,-0.414 0.171,-0.43C0.201,-0.446 0.223,-0.457 0.238,-0.462C0.253,-0.467 0.273,-0.47 0.3,-0.47C0.35,-0.47 0.392,-0.46 0.424,-0.441C0.418,-0.404 0.413,-0.363 0.41,-0.318L0.405,-0.314L0.385,-0.314L0.381,-0.318C0.38,-0.346 0.378,-0.364 0.375,-0.374C0.373,-0.383 0.36,-0.393 0.337,-0.404C0.313,-0.415 0.288,-0.42 0.261,-0.42C0.235,-0.42 0.211,-0.414 0.19,-0.403C0.169,-0.392 0.153,-0.373 0.143,-0.348C0.132,-0.322 0.127,-0.292 0.127,-0.256C0.127,-0.226 0.131,-0.197 0.14,-0.169C0.148,-0.14 0.159,-0.117 0.173,-0.098C0.187,-0.079 0.205,-0.064 0.228,-0.053C0.251,-0.041 0.276,-0.036 0.304,-0.036C0.322,-0.036 0.339,-0.038 0.356,-0.042C0.372,-0.047 0.392,-0.055 0.414,-0.065L0.424,-0.052Z" style="fill:rgb(35,31,32);fill-rule:nonzero;"/>
            </g>
            <g transform="matrix(9,0,0,9,71.4878,153.377)">
                <path d="M0.188,-0.465L0.197,-0.459C0.195,-0.44 0.193,-0.407 0.192,-0.358L0.229,-0.405C0.241,-0.42 0.252,-0.432 0.261,-0.44C0.27,-0.448 0.281,-0.455 0.293,-0.459C0.306,-0.464 0.319,-0.466 0.332,-0.466C0.346,-0.466 0.359,-0.463 0.372,-0.458L0.375,-0.451C0.37,-0.407 0.367,-0.369 0.367,-0.336L0.345,-0.336C0.332,-0.366 0.311,-0.381 0.282,-0.381C0.262,-0.381 0.244,-0.375 0.229,-0.362C0.214,-0.349 0.204,-0.333 0.199,-0.314C0.194,-0.294 0.191,-0.27 0.191,-0.24L0.191,-0.186C0.191,-0.176 0.192,-0.152 0.193,-0.114C0.195,-0.076 0.196,-0.054 0.198,-0.048C0.199,-0.042 0.201,-0.038 0.204,-0.035C0.207,-0.033 0.212,-0.031 0.217,-0.03C0.222,-0.029 0.245,-0.027 0.286,-0.025L0.291,-0.021L0.291,-0L0.286,0.004C0.243,0.001 0.198,-0 0.15,-0C0.113,-0 0.074,0.001 0.033,0.004L0.029,-0L0.029,-0.021L0.033,-0.025C0.065,-0.027 0.083,-0.028 0.087,-0.029C0.091,-0.03 0.094,-0.032 0.097,-0.035C0.101,-0.038 0.103,-0.043 0.104,-0.05C0.105,-0.056 0.106,-0.077 0.108,-0.113C0.109,-0.148 0.11,-0.175 0.11,-0.193L0.11,-0.29C0.11,-0.303 0.109,-0.32 0.108,-0.343C0.107,-0.365 0.106,-0.379 0.105,-0.384C0.104,-0.389 0.101,-0.393 0.097,-0.396C0.093,-0.398 0.084,-0.399 0.072,-0.399L0.031,-0.4L0.026,-0.404L0.026,-0.425L0.03,-0.429C0.092,-0.436 0.145,-0.448 0.188,-0.465Z" style="fill:rgb(35,31,32);fill-rule:nonzero;"/>
            </g>
            <g transform="matrix(9,0,0,9,75.043,153.377)">
                <path d="M0.033,-0.224C0.033,-0.262 0.041,-0.3 0.057,-0.336C0.073,-0.372 0.101,-0.403 0.14,-0.429C0.18,-0.455 0.227,-0.468 0.281,-0.468C0.35,-0.468 0.405,-0.447 0.448,-0.404C0.491,-0.36 0.513,-0.305 0.513,-0.237C0.513,-0.163 0.488,-0.101 0.439,-0.053C0.389,-0.005 0.33,0.019 0.26,0.019C0.215,0.019 0.174,0.007 0.138,-0.018C0.102,-0.042 0.076,-0.072 0.059,-0.108C0.042,-0.143 0.033,-0.182 0.033,-0.224ZM0.125,-0.257C0.125,-0.212 0.131,-0.171 0.143,-0.135C0.155,-0.099 0.173,-0.07 0.199,-0.048C0.224,-0.027 0.253,-0.016 0.286,-0.016C0.324,-0.016 0.356,-0.031 0.381,-0.061C0.406,-0.092 0.418,-0.138 0.418,-0.199C0.418,-0.268 0.405,-0.325 0.378,-0.369C0.351,-0.413 0.311,-0.436 0.26,-0.436C0.218,-0.436 0.185,-0.42 0.161,-0.39C0.137,-0.359 0.125,-0.315 0.125,-0.257Z" style="fill:rgb(35,31,32);fill-rule:nonzero;"/>
            </g>
            <g transform="matrix(9,0,0,9,79.956,153.377)">
                <path d="M0.183,-0.723L0.192,-0.717C0.188,-0.68 0.187,-0.605 0.187,-0.492L0.187,-0.186C0.187,-0.179 0.187,-0.156 0.188,-0.117C0.19,-0.078 0.191,-0.055 0.193,-0.049C0.194,-0.042 0.196,-0.038 0.199,-0.035C0.202,-0.032 0.206,-0.03 0.21,-0.029C0.214,-0.028 0.232,-0.027 0.263,-0.025L0.267,-0.021L0.267,-0L0.263,0.004C0.222,0.001 0.183,-0 0.146,-0C0.108,-0 0.069,0.001 0.028,0.004L0.024,-0L0.024,-0.021L0.028,-0.025C0.06,-0.027 0.078,-0.028 0.082,-0.029C0.086,-0.03 0.089,-0.032 0.093,-0.035C0.096,-0.038 0.098,-0.043 0.099,-0.05C0.1,-0.056 0.101,-0.077 0.103,-0.113C0.104,-0.148 0.105,-0.175 0.105,-0.193L0.105,-0.446L0.103,-0.55C0.102,-0.586 0.101,-0.611 0.1,-0.625C0.099,-0.639 0.097,-0.647 0.095,-0.65C0.093,-0.653 0.09,-0.654 0.085,-0.656C0.08,-0.657 0.06,-0.658 0.026,-0.658L0.021,-0.662L0.021,-0.683L0.025,-0.687C0.088,-0.694 0.14,-0.706 0.183,-0.723Z" style="fill:rgb(35,31,32);fill-rule:nonzero;"/>
            </g>
            <g transform="matrix(9,0,0,9,82.5752,153.377)">
                <path d="M0.432,-0.072L0.416,-0.037C0.382,-0.015 0.352,-0.001 0.325,0.006C0.299,0.012 0.275,0.016 0.254,0.016C0.215,0.016 0.178,0.008 0.143,-0.007C0.108,-0.023 0.08,-0.049 0.058,-0.085C0.036,-0.121 0.025,-0.165 0.025,-0.217C0.025,-0.251 0.029,-0.282 0.038,-0.309C0.046,-0.337 0.055,-0.357 0.064,-0.371C0.073,-0.384 0.089,-0.399 0.111,-0.415C0.133,-0.431 0.157,-0.444 0.182,-0.454C0.206,-0.464 0.233,-0.469 0.262,-0.469C0.301,-0.469 0.335,-0.46 0.365,-0.441C0.395,-0.423 0.416,-0.399 0.428,-0.371C0.44,-0.342 0.446,-0.312 0.446,-0.279C0.446,-0.269 0.445,-0.259 0.444,-0.25L0.439,-0.245C0.417,-0.24 0.387,-0.236 0.35,-0.235C0.312,-0.233 0.287,-0.232 0.275,-0.232L0.119,-0.232C0.119,-0.165 0.136,-0.115 0.169,-0.083C0.203,-0.052 0.243,-0.036 0.292,-0.036C0.314,-0.036 0.336,-0.04 0.357,-0.047C0.378,-0.055 0.4,-0.066 0.424,-0.08L0.432,-0.072ZM0.119,-0.271C0.125,-0.271 0.147,-0.269 0.186,-0.268C0.226,-0.267 0.255,-0.266 0.273,-0.266C0.319,-0.266 0.346,-0.267 0.356,-0.269C0.356,-0.276 0.356,-0.282 0.356,-0.287C0.356,-0.337 0.346,-0.375 0.326,-0.399C0.305,-0.424 0.277,-0.436 0.242,-0.436C0.203,-0.436 0.173,-0.422 0.151,-0.395C0.129,-0.367 0.119,-0.326 0.119,-0.271Z" style="fill:rgb(35,31,32);fill-rule:nonzero;"/>
            </g>
            <g transform="matrix(9,0,0,9,86.8862,153.377)">
                <path d="M0.167,-0.465L0.176,-0.459C0.174,-0.437 0.173,-0.409 0.172,-0.373C0.198,-0.395 0.223,-0.416 0.247,-0.438C0.253,-0.445 0.26,-0.449 0.266,-0.452C0.272,-0.455 0.282,-0.458 0.296,-0.461C0.31,-0.465 0.324,-0.466 0.339,-0.466C0.364,-0.466 0.388,-0.461 0.411,-0.451C0.434,-0.441 0.452,-0.429 0.464,-0.415C0.476,-0.401 0.484,-0.385 0.488,-0.366C0.493,-0.347 0.495,-0.324 0.495,-0.296L0.495,-0.21C0.495,-0.205 0.496,-0.164 0.498,-0.089C0.498,-0.058 0.502,-0.04 0.508,-0.034C0.514,-0.028 0.534,-0.025 0.568,-0.025L0.572,-0.021L0.572,-0L0.568,0.004C0.527,0.001 0.499,-0 0.484,-0C0.476,-0 0.452,0.001 0.413,0.004L0.407,-0.001C0.411,-0.044 0.414,-0.099 0.414,-0.167L0.414,-0.231C0.414,-0.269 0.413,-0.297 0.411,-0.314C0.409,-0.331 0.404,-0.346 0.395,-0.36C0.385,-0.374 0.373,-0.385 0.358,-0.392C0.343,-0.4 0.324,-0.404 0.303,-0.404C0.286,-0.404 0.272,-0.402 0.26,-0.399C0.248,-0.395 0.234,-0.388 0.219,-0.378C0.204,-0.367 0.193,-0.357 0.186,-0.348C0.179,-0.339 0.175,-0.33 0.173,-0.322C0.172,-0.314 0.171,-0.297 0.171,-0.271L0.171,-0.186C0.171,-0.179 0.172,-0.156 0.173,-0.117C0.174,-0.078 0.176,-0.055 0.177,-0.049C0.178,-0.042 0.181,-0.038 0.184,-0.035C0.187,-0.032 0.19,-0.03 0.194,-0.029C0.199,-0.028 0.216,-0.027 0.247,-0.025L0.251,-0.021L0.251,-0L0.248,0.004C0.207,0.001 0.168,-0 0.13,-0C0.092,-0 0.053,0.001 0.013,0.004L0.008,-0L0.008,-0.021L0.013,-0.025C0.044,-0.027 0.062,-0.028 0.066,-0.029C0.07,-0.03 0.074,-0.032 0.077,-0.035C0.08,-0.038 0.082,-0.043 0.083,-0.05C0.084,-0.056 0.086,-0.077 0.087,-0.113C0.089,-0.148 0.089,-0.175 0.089,-0.193L0.089,-0.29C0.089,-0.303 0.089,-0.32 0.087,-0.343C0.086,-0.365 0.085,-0.379 0.084,-0.384C0.083,-0.389 0.081,-0.393 0.077,-0.396C0.072,-0.398 0.064,-0.399 0.051,-0.399L0.01,-0.4L0.006,-0.404L0.006,-0.425L0.01,-0.429C0.072,-0.436 0.124,-0.448 0.167,-0.465Z" style="fill:rgb(35,31,32);fill-rule:nonzero;"/>
            </g>
            <g transform="matrix(9,0,0,9,92.1245,153.377)">
                <path d="M0.049,-0.144L0.07,-0.144L0.075,-0.139C0.075,-0.112 0.077,-0.088 0.08,-0.069C0.09,-0.054 0.107,-0.041 0.132,-0.031C0.157,-0.022 0.181,-0.017 0.205,-0.017C0.24,-0.017 0.267,-0.026 0.288,-0.045C0.309,-0.063 0.319,-0.086 0.319,-0.111C0.319,-0.125 0.315,-0.137 0.308,-0.148C0.3,-0.158 0.289,-0.166 0.274,-0.173C0.259,-0.18 0.231,-0.188 0.192,-0.197C0.159,-0.205 0.135,-0.211 0.122,-0.215C0.109,-0.219 0.096,-0.227 0.083,-0.237C0.071,-0.248 0.062,-0.26 0.055,-0.276C0.049,-0.291 0.045,-0.307 0.045,-0.326C0.045,-0.369 0.063,-0.404 0.097,-0.43C0.132,-0.457 0.175,-0.47 0.227,-0.47C0.249,-0.47 0.273,-0.467 0.298,-0.461C0.324,-0.455 0.344,-0.449 0.357,-0.443L0.361,-0.437C0.359,-0.424 0.357,-0.389 0.356,-0.334L0.352,-0.33L0.333,-0.33L0.328,-0.334C0.327,-0.354 0.325,-0.368 0.323,-0.376C0.32,-0.384 0.315,-0.392 0.305,-0.402C0.296,-0.411 0.282,-0.419 0.265,-0.425C0.248,-0.431 0.23,-0.435 0.21,-0.435C0.191,-0.435 0.174,-0.432 0.16,-0.426C0.147,-0.42 0.136,-0.411 0.128,-0.399C0.119,-0.387 0.115,-0.373 0.115,-0.356C0.115,-0.344 0.118,-0.333 0.123,-0.323C0.128,-0.313 0.136,-0.305 0.146,-0.299C0.156,-0.293 0.167,-0.289 0.179,-0.286L0.232,-0.272C0.278,-0.261 0.31,-0.252 0.33,-0.244C0.35,-0.236 0.365,-0.223 0.375,-0.207C0.386,-0.19 0.392,-0.17 0.392,-0.147C0.392,-0.102 0.373,-0.063 0.336,-0.031C0.299,0.001 0.251,0.017 0.193,0.017C0.172,0.017 0.147,0.015 0.116,0.01C0.086,0.006 0.06,0.001 0.039,-0.005L0.036,-0.011L0.041,-0.044C0.043,-0.054 0.044,-0.064 0.044,-0.074C0.044,-0.085 0.045,-0.106 0.045,-0.139L0.049,-0.144Z" style="fill:rgb(35,31,32);fill-rule:nonzero;"/>
            </g>
        </g>
        <g transform="matrix(1,0,0,1,-15.3236,-15.2153)">
            <g transform="matrix(9,0,0,9,20.1008,153.377)">
                <path d="M0.039,-0.168L0.042,-0.172L0.066,-0.172L0.07,-0.168C0.072,-0.126 0.074,-0.101 0.077,-0.092C0.08,-0.082 0.088,-0.073 0.103,-0.062C0.118,-0.052 0.138,-0.044 0.162,-0.037C0.187,-0.031 0.212,-0.027 0.237,-0.027C0.271,-0.027 0.302,-0.034 0.33,-0.046C0.357,-0.059 0.379,-0.078 0.394,-0.102C0.409,-0.127 0.417,-0.154 0.417,-0.185C0.417,-0.207 0.413,-0.225 0.406,-0.241C0.399,-0.257 0.388,-0.27 0.375,-0.28C0.362,-0.289 0.347,-0.296 0.33,-0.301C0.313,-0.306 0.288,-0.311 0.254,-0.316C0.222,-0.322 0.196,-0.326 0.178,-0.331C0.16,-0.335 0.141,-0.341 0.123,-0.35C0.105,-0.359 0.09,-0.37 0.077,-0.384C0.065,-0.397 0.055,-0.414 0.048,-0.433C0.041,-0.453 0.037,-0.474 0.037,-0.497C0.037,-0.557 0.058,-0.607 0.101,-0.646C0.143,-0.685 0.2,-0.705 0.271,-0.705C0.299,-0.705 0.33,-0.701 0.364,-0.694C0.397,-0.687 0.427,-0.677 0.455,-0.663L0.458,-0.657C0.451,-0.627 0.446,-0.585 0.445,-0.529L0.44,-0.525L0.415,-0.525L0.411,-0.529C0.41,-0.568 0.41,-0.592 0.408,-0.603C0.407,-0.613 0.392,-0.625 0.364,-0.64C0.335,-0.655 0.305,-0.663 0.271,-0.663C0.244,-0.663 0.218,-0.657 0.194,-0.646C0.17,-0.635 0.152,-0.618 0.139,-0.594C0.127,-0.57 0.121,-0.546 0.121,-0.521C0.121,-0.502 0.124,-0.485 0.132,-0.47C0.139,-0.455 0.149,-0.443 0.161,-0.435C0.173,-0.426 0.187,-0.42 0.202,-0.416C0.218,-0.411 0.247,-0.406 0.289,-0.4C0.347,-0.392 0.389,-0.382 0.415,-0.37C0.441,-0.359 0.462,-0.34 0.478,-0.315C0.494,-0.29 0.501,-0.26 0.501,-0.225C0.501,-0.155 0.473,-0.097 0.417,-0.051C0.36,-0.005 0.292,0.018 0.211,0.018C0.144,0.018 0.085,0.006 0.034,-0.018L0.031,-0.024C0.035,-0.045 0.037,-0.093 0.039,-0.168Z" style="fill:rgb(35,31,32);fill-rule:nonzero;"/>
            </g>
            <g transform="matrix(9,0,0,9,24.8249,153.377)">
                <path d="M0.432,-0.072L0.416,-0.037C0.382,-0.015 0.352,-0.001 0.325,0.006C0.299,0.012 0.275,0.016 0.254,0.016C0.215,0.016 0.178,0.008 0.143,-0.007C0.108,-0.023 0.08,-0.049 0.058,-0.085C0.036,-0.121 0.025,-0.165 0.025,-0.217C0.025,-0.251 0.029,-0.282 0.038,-0.309C0.046,-0.337 0.055,-0.357 0.064,-0.371C0.073,-0.384 0.089,-0.399 0.111,-0.415C0.133,-0.431 0.157,-0.444 0.182,-0.454C0.206,-0.464 0.233,-0.469 0.262,-0.469C0.301,-0.469 0.335,-0.46 0.365,-0.441C0.395,-0.423 0.416,-0.399 0.428,-0.371C0.44,-0.342 0.446,-0.312 0.446,-0.279C0.446,-0.269 0.445,-0.259 0.444,-0.25L0.439,-0.245C0.417,-0.24 0.387,-0.236 0.35,-0.235C0.312,-0.233 0.287,-0.232 0.275,-0.232L0.119,-0.232C0.119,-0.165 0.136,-0.115 0.169,-0.083C0.203,-0.052 0.243,-0.036 0.292,-0.036C0.314,-0.036 0.336,-0.04 0.357,-0.047C0.378,-0.055 0.4,-0.066 0.424,-0.08L0.432,-0.072ZM0.119,-0.271C0.125,-0.271 0.147,-0.269 0.186,-0.268C0.226,-0.267 0.255,-0.266 0.273,-0.266C0.319,-0.266 0.346,-0.267 0.356,-0.269C0.356,-0.276 0.356,-0.282 0.356,-0.287C0.356,-0.337 0.346,-0.375 0.326,-0.399C0.305,-0.424 0.277,-0.436 0.242,-0.436C0.203,-0.436 0.173,-0.422 0.151,-0.395C0.129,-0.367 0.119,-0.326 0.119,-0.271Z" style="fill:rgb(35,31,32);fill-rule:nonzero;"/>
            </g>
            <g transform="matrix(9,0,0,9,29.136,153.377)">
                <path d="M0.167,-0.465L0.176,-0.459C0.174,-0.437 0.173,-0.409 0.172,-0.373C0.198,-0.395 0.223,-0.416 0.247,-0.438C0.253,-0.445 0.26,-0.449 0.266,-0.452C0.272,-0.455 0.282,-0.458 0.296,-0.461C0.31,-0.465 0.324,-0.466 0.339,-0.466C0.364,-0.466 0.388,-0.461 0.411,-0.451C0.434,-0.441 0.452,-0.429 0.464,-0.415C0.476,-0.401 0.484,-0.385 0.488,-0.366C0.493,-0.347 0.495,-0.324 0.495,-0.296L0.495,-0.21C0.495,-0.205 0.496,-0.164 0.498,-0.089C0.498,-0.058 0.502,-0.04 0.508,-0.034C0.514,-0.028 0.534,-0.025 0.568,-0.025L0.572,-0.021L0.572,-0L0.568,0.004C0.527,0.001 0.499,-0 0.484,-0C0.476,-0 0.452,0.001 0.413,0.004L0.407,-0.001C0.411,-0.044 0.414,-0.099 0.414,-0.167L0.414,-0.231C0.414,-0.269 0.413,-0.297 0.411,-0.314C0.409,-0.331 0.404,-0.346 0.395,-0.36C0.385,-0.374 0.373,-0.385 0.358,-0.392C0.343,-0.4 0.324,-0.404 0.303,-0.404C0.286,-0.404 0.272,-0.402 0.26,-0.399C0.248,-0.395 0.234,-0.388 0.219,-0.378C0.204,-0.367 0.193,-0.357 0.186,-0.348C0.179,-0.339 0.175,-0.33 0.173,-0.322C0.172,-0.314 0.171,-0.297 0.171,-0.271L0.171,-0.186C0.171,-0.179 0.172,-0.156 0.173,-0.117C0.174,-0.078 0.176,-0.055 0.177,-0.049C0.178,-0.042 0.181,-0.038 0.184,-0.035C0.187,-0.032 0.19,-0.03 0.194,-0.029C0.199,-0.028 0.216,-0.027 0.247,-0.025L0.251,-0.021L0.251,-0L0.248,0.004C0.207,0.001 0.168,-0 0.13,-0C0.092,-0 0.053,0.001 0.013,0.004L0.008,-0L0.008,-0.021L0.013,-0.025C0.044,-0.027 0.062,-0.028 0.066,-0.029C0.07,-0.03 0.074,-0.032 0.077,-0.035C0.08,-0.038 0.082,-0.043 0.083,-0.05C0.084,-0.056 0.086,-0.077 0.087,-0.113C0.089,-0.148 0.089,-0.175 0.089,-0.193L0.089,-0.29C0.089,-0.303 0.089,-0.32 0.087,-0.343C0.086,-0.365 0.085,-0.379 0.084,-0.384C0.083,-0.389 0.081,-0.393 0.077,-0.396C0.072,-0.398 0.064,-0.399 0.051,-0.399L0.01,-0.4L0.006,-0.404L0.006,-0.425L0.01,-0.429C0.072,-0.436 0.124,-0.448 0.167,-0.465Z" style="fill:rgb(35,31,32);fill-rule:nonzero;"/>
            </g>
            <g transform="matrix(9,0,0,9,34.3742,153.377)">
                <path d="M0.049,-0.144L0.07,-0.144L0.075,-0.139C0.075,-0.112 0.077,-0.088 0.08,-0.069C0.09,-0.054 0.107,-0.041 0.132,-0.031C0.157,-0.022 0.181,-0.017 0.205,-0.017C0.24,-0.017 0.267,-0.026 0.288,-0.045C0.309,-0.063 0.319,-0.086 0.319,-0.111C0.319,-0.125 0.315,-0.137 0.308,-0.148C0.3,-0.158 0.289,-0.166 0.274,-0.173C0.259,-0.18 0.231,-0.188 0.192,-0.197C0.159,-0.205 0.135,-0.211 0.122,-0.215C0.109,-0.219 0.096,-0.227 0.083,-0.237C0.071,-0.248 0.062,-0.26 0.055,-0.276C0.049,-0.291 0.045,-0.307 0.045,-0.326C0.045,-0.369 0.063,-0.404 0.097,-0.43C0.132,-0.457 0.175,-0.47 0.227,-0.47C0.249,-0.47 0.273,-0.467 0.298,-0.461C0.324,-0.455 0.344,-0.449 0.357,-0.443L0.361,-0.437C0.359,-0.424 0.357,-0.389 0.356,-0.334L0.352,-0.33L0.333,-0.33L0.328,-0.334C0.327,-0.354 0.325,-0.368 0.323,-0.376C0.32,-0.384 0.315,-0.392 0.305,-0.402C0.296,-0.411 0.282,-0.419 0.265,-0.425C0.248,-0.431 0.23,-0.435 0.21,-0.435C0.191,-0.435 0.174,-0.432 0.16,-0.426C0.147,-0.42 0.136,-0.411 0.128,-0.399C0.119,-0.387 0.115,-0.373 0.115,-0.356C0.115,-0.344 0.118,-0.333 0.123,-0.323C0.128,-0.313 0.136,-0.305 0.146,-0.299C0.156,-0.293 0.167,-0.289 0.179,-0.286L0.232,-0.272C0.278,-0.261 0.31,-0.252 0.33,-0.244C0.35,-0.236 0.365,-0.223 0.375,-0.207C0.386,-0.19 0.392,-0.17 0.392,-0.147C0.392,-0.102 0.373,-0.063 0.336,-0.031C0.299,0.001 0.251,0.017 0.193,0.017C0.172,0.017 0.147,0.015 0.116,0.01C0.086,0.006 0.06,0.001 0.039,-0.005L0.036,-0.011L0.041,-0.044C0.043,-0.054 0.044,-0.064 0.044,-0.074C0.044,-0.085 0.045,-0.106 0.045,-0.139L0.049,-0.144Z" style="fill:rgb(35,31,32);fill-rule:nonzero;"/>
            </g>
            <g transform="matrix(9,0,0,9,38.1887,153.377)">
                <path d="M0.033,-0.224C0.033,-0.262 0.041,-0.3 0.057,-0.336C0.073,-0.372 0.101,-0.403 0.14,-0.429C0.18,-0.455 0.227,-0.468 0.281,-0.468C0.35,-0.468 0.405,-0.447 0.448,-0.404C0.491,-0.36 0.513,-0.305 0.513,-0.237C0.513,-0.163 0.488,-0.101 0.439,-0.053C0.389,-0.005 0.33,0.019 0.26,0.019C0.215,0.019 0.174,0.007 0.138,-0.018C0.102,-0.042 0.076,-0.072 0.059,-0.108C0.042,-0.143 0.033,-0.182 0.033,-0.224ZM0.125,-0.257C0.125,-0.212 0.131,-0.171 0.143,-0.135C0.155,-0.099 0.173,-0.07 0.199,-0.048C0.224,-0.027 0.253,-0.016 0.286,-0.016C0.324,-0.016 0.356,-0.031 0.381,-0.061C0.406,-0.092 0.418,-0.138 0.418,-0.199C0.418,-0.268 0.405,-0.325 0.378,-0.369C0.351,-0.413 0.311,-0.436 0.26,-0.436C0.218,-0.436 0.185,-0.42 0.161,-0.39C0.137,-0.359 0.125,-0.315 0.125,-0.257Z" style="fill:rgb(35,31,32);fill-rule:nonzero;"/>
            </g>
            <g transform="matrix(9,0,0,9,43.1018,153.377)">
                <path d="M0.188,-0.465L0.197,-0.459C0.195,-0.44 0.193,-0.407 0.192,-0.358L0.229,-0.405C0.241,-0.42 0.252,-0.432 0.261,-0.44C0.27,-0.448 0.281,-0.455 0.293,-0.459C0.306,-0.464 0.319,-0.466 0.332,-0.466C0.346,-0.466 0.359,-0.463 0.372,-0.458L0.375,-0.451C0.37,-0.407 0.367,-0.369 0.367,-0.336L0.345,-0.336C0.332,-0.366 0.311,-0.381 0.282,-0.381C0.262,-0.381 0.244,-0.375 0.229,-0.362C0.214,-0.349 0.204,-0.333 0.199,-0.314C0.194,-0.294 0.191,-0.27 0.191,-0.24L0.191,-0.186C0.191,-0.176 0.192,-0.152 0.193,-0.114C0.195,-0.076 0.196,-0.054 0.198,-0.048C0.199,-0.042 0.201,-0.038 0.204,-0.035C0.207,-0.033 0.212,-0.031 0.217,-0.03C0.222,-0.029 0.245,-0.027 0.286,-0.025L0.291,-0.021L0.291,-0L0.286,0.004C0.243,0.001 0.198,-0 0.15,-0C0.113,-0 0.074,0.001 0.033,0.004L0.029,-0L0.029,-0.021L0.033,-0.025C0.065,-0.027 0.083,-0.028 0.087,-0.029C0.091,-0.03 0.094,-0.032 0.097,-0.035C0.101,-0.038 0.103,-0.043 0.104,-0.05C0.105,-0.056 0.106,-0.077 0.108,-0.113C0.109,-0.148 0.11,-0.175 0.11,-0.193L0.11,-0.29C0.11,-0.303 0.109,-0.32 0.108,-0.343C0.107,-0.365 0.106,-0.379 0.105,-0.384C0.104,-0.389 0.101,-0.393 0.097,-0.396C0.093,-0.398 0.084,-0.399 0.072,-0.399L0.031,-0.4L0.026,-0.404L0.026,-0.425L0.03,-0.429C0.092,-0.436 0.145,-0.448 0.188,-0.465Z" style="fill:rgb(35,31,32);fill-rule:nonzero;"/>
            </g>
            <g transform="matrix(9,0,0,9,20.1008,164.177)">
                <path d="M0.181,-0.471L0.19,-0.465C0.187,-0.428 0.185,-0.395 0.185,-0.367C0.229,-0.407 0.26,-0.434 0.277,-0.447C0.295,-0.46 0.325,-0.466 0.367,-0.466C0.394,-0.466 0.418,-0.463 0.44,-0.455C0.462,-0.448 0.482,-0.436 0.5,-0.419C0.519,-0.402 0.534,-0.381 0.544,-0.356C0.555,-0.331 0.561,-0.302 0.561,-0.269C0.561,-0.245 0.557,-0.221 0.549,-0.197C0.542,-0.173 0.532,-0.151 0.52,-0.13C0.508,-0.11 0.498,-0.096 0.49,-0.09C0.483,-0.083 0.468,-0.073 0.445,-0.06C0.425,-0.047 0.404,-0.034 0.384,-0.02C0.37,-0.009 0.361,-0.003 0.355,-0C0.349,0.003 0.34,0.006 0.327,0.009C0.314,0.012 0.3,0.013 0.286,0.013C0.252,0.013 0.218,0.005 0.185,-0.013L0.185,0.091C0.185,0.098 0.185,0.122 0.187,0.16C0.188,0.199 0.189,0.222 0.191,0.229C0.192,0.235 0.194,0.24 0.197,0.243C0.2,0.246 0.204,0.247 0.208,0.248C0.212,0.249 0.23,0.25 0.261,0.252L0.265,0.256L0.265,0.277L0.261,0.281C0.221,0.279 0.181,0.277 0.144,0.277C0.107,0.277 0.068,0.279 0.027,0.281L0.022,0.277L0.022,0.256L0.027,0.252C0.058,0.25 0.076,0.249 0.08,0.248C0.084,0.247 0.088,0.245 0.091,0.242C0.094,0.239 0.096,0.234 0.097,0.227C0.099,0.22 0.1,0.198 0.101,0.162C0.103,0.125 0.104,0.097 0.104,0.079L0.104,-0.295C0.104,-0.312 0.103,-0.332 0.101,-0.354C0.1,-0.377 0.099,-0.389 0.098,-0.393C0.097,-0.397 0.094,-0.4 0.091,-0.402C0.087,-0.404 0.078,-0.405 0.065,-0.405L0.024,-0.406L0.02,-0.41L0.02,-0.431L0.024,-0.435C0.086,-0.442 0.138,-0.454 0.181,-0.471ZM0.185,-0.097C0.2,-0.081 0.218,-0.068 0.24,-0.057C0.262,-0.046 0.287,-0.04 0.313,-0.04C0.345,-0.04 0.373,-0.048 0.397,-0.064C0.421,-0.08 0.44,-0.103 0.454,-0.134C0.467,-0.165 0.474,-0.199 0.474,-0.236C0.474,-0.267 0.468,-0.295 0.456,-0.321C0.444,-0.347 0.426,-0.367 0.401,-0.382C0.376,-0.397 0.349,-0.405 0.321,-0.405C0.304,-0.405 0.287,-0.402 0.271,-0.396C0.255,-0.39 0.24,-0.381 0.225,-0.369C0.211,-0.357 0.201,-0.346 0.195,-0.336C0.189,-0.325 0.185,-0.316 0.185,-0.309C0.185,-0.302 0.185,-0.295 0.185,-0.286L0.185,-0.097Z" style="fill:rgb(35,31,32);fill-rule:nonzero;"/>
            </g>
            <g transform="matrix(9,0,0,9,25.5105,164.177)">
                <path d="M0.183,-0.723L0.192,-0.717C0.188,-0.68 0.187,-0.605 0.187,-0.492L0.187,-0.186C0.187,-0.179 0.187,-0.156 0.188,-0.117C0.19,-0.078 0.191,-0.055 0.193,-0.049C0.194,-0.042 0.196,-0.038 0.199,-0.035C0.202,-0.032 0.206,-0.03 0.21,-0.029C0.214,-0.028 0.232,-0.027 0.263,-0.025L0.267,-0.021L0.267,-0L0.263,0.004C0.222,0.001 0.183,-0 0.146,-0C0.108,-0 0.069,0.001 0.028,0.004L0.024,-0L0.024,-0.021L0.028,-0.025C0.06,-0.027 0.078,-0.028 0.082,-0.029C0.086,-0.03 0.089,-0.032 0.093,-0.035C0.096,-0.038 0.098,-0.043 0.099,-0.05C0.1,-0.056 0.101,-0.077 0.103,-0.113C0.104,-0.148 0.105,-0.175 0.105,-0.193L0.105,-0.446L0.103,-0.55C0.102,-0.586 0.101,-0.611 0.1,-0.625C0.099,-0.639 0.097,-0.647 0.095,-0.65C0.093,-0.653 0.09,-0.654 0.085,-0.656C0.08,-0.657 0.06,-0.658 0.026,-0.658L0.021,-0.662L0.021,-0.683L0.025,-0.687C0.088,-0.694 0.14,-0.706 0.183,-0.723Z" style="fill:rgb(35,31,32);fill-rule:nonzero;"/>
            </g>
            <g transform="matrix(9,0,0,9,28.1296,164.177)">
                <path d="M0.104,-0.331L0.084,-0.336L0.081,-0.341L0.081,-0.401C0.139,-0.444 0.195,-0.466 0.25,-0.466C0.287,-0.466 0.318,-0.459 0.343,-0.445C0.368,-0.431 0.385,-0.413 0.396,-0.392C0.408,-0.371 0.413,-0.347 0.413,-0.319L0.411,-0.221L0.411,-0.075C0.411,-0.055 0.412,-0.043 0.415,-0.039C0.418,-0.035 0.421,-0.032 0.424,-0.031C0.428,-0.029 0.435,-0.028 0.444,-0.027L0.472,-0.024L0.476,-0.02L0.476,-0L0.472,0.003C0.448,0.001 0.426,0 0.406,0C0.386,0 0.363,0.001 0.335,0.003L0.328,-0.003L0.33,-0.082L0.224,0.001C0.206,0.008 0.186,0.012 0.165,0.012C0.139,0.012 0.117,0.007 0.098,-0.002C0.079,-0.011 0.065,-0.025 0.055,-0.042C0.045,-0.058 0.04,-0.079 0.04,-0.103C0.04,-0.151 0.055,-0.188 0.085,-0.215C0.115,-0.242 0.197,-0.265 0.33,-0.284C0.33,-0.332 0.319,-0.366 0.298,-0.385C0.276,-0.405 0.248,-0.415 0.211,-0.415C0.193,-0.415 0.175,-0.412 0.16,-0.407C0.144,-0.401 0.136,-0.397 0.133,-0.393C0.131,-0.39 0.122,-0.37 0.107,-0.333L0.104,-0.331ZM0.33,-0.254C0.239,-0.239 0.182,-0.222 0.16,-0.205C0.137,-0.187 0.126,-0.16 0.126,-0.123C0.126,-0.072 0.151,-0.047 0.202,-0.047C0.245,-0.047 0.288,-0.072 0.33,-0.122L0.33,-0.254Z" style="fill:rgb(35,31,32);fill-rule:nonzero;"/>
            </g>
            <g transform="matrix(9,0,0,9,32.6296,164.177)">
                <path d="M0.167,-0.465L0.176,-0.459C0.174,-0.437 0.173,-0.409 0.172,-0.373C0.198,-0.395 0.223,-0.416 0.247,-0.438C0.253,-0.445 0.26,-0.449 0.266,-0.452C0.272,-0.455 0.282,-0.458 0.296,-0.461C0.31,-0.465 0.324,-0.466 0.339,-0.466C0.364,-0.466 0.388,-0.461 0.411,-0.451C0.434,-0.441 0.452,-0.429 0.464,-0.415C0.476,-0.401 0.484,-0.385 0.488,-0.366C0.493,-0.347 0.495,-0.324 0.495,-0.296L0.495,-0.21C0.495,-0.205 0.496,-0.164 0.498,-0.089C0.498,-0.058 0.502,-0.04 0.508,-0.034C0.514,-0.028 0.534,-0.025 0.568,-0.025L0.572,-0.021L0.572,-0L0.568,0.004C0.527,0.001 0.499,-0 0.484,-0C0.476,-0 0.452,0.001 0.413,0.004L0.407,-0.001C0.411,-0.044 0.414,-0.099 0.414,-0.167L0.414,-0.231C0.414,-0.269 0.413,-0.297 0.411,-0.314C0.409,-0.331 0.404,-0.346 0.395,-0.36C0.385,-0.374 0.373,-0.385 0.358,-0.392C0.343,-0.4 0.324,-0.404 0.303,-0.404C0.286,-0.404 0.272,-0.402 0.26,-0.399C0.248,-0.395 0.234,-0.388 0.219,-0.378C0.204,-0.367 0.193,-0.357 0.186,-0.348C0.179,-0.339 0.175,-0.33 0.173,-0.322C0.172,-0.314 0.171,-0.297 0.171,-0.271L0.171,-0.186C0.171,-0.179 0.172,-0.156 0.173,-0.117C0.174,-0.078 0.176,-0.055 0.177,-0.049C0.178,-0.042 0.181,-0.038 0.184,-0.035C0.187,-0.032 0.19,-0.03 0.194,-0.029C0.199,-0.028 0.216,-0.027 0.247,-0.025L0.251,-0.021L0.251,-0L0.248,0.004C0.207,0.001 0.168,-0 0.13,-0C0.092,-0 0.053,0.001 0.013,0.004L0.008,-0L0.008,-0.021L0.013,-0.025C0.044,-0.027 0.062,-0.028 0.066,-0.029C0.07,-0.03 0.074,-0.032 0.077,-0.035C0.08,-0.038 0.082,-0.043 0.083,-0.05C0.084,-0.056 0.086,-0.077 0.087,-0.113C0.089,-0.148 0.089,-0.175 0.089,-0.193L0.089,-0.29C0.089,-0.303 0.089,-0.32 0.087,-0.343C0.086,-0.365 0.085,-0.379 0.084,-0.384C0.083,-0.389 0.081,-0.393 0.077,-0.396C0.072,-0.398 0.064,-0.399 0.051,-0.399L0.01,-0.4L0.006,-0.404L0.006,-0.425L0.01,-0.429C0.072,-0.436 0.124,-0.448 0.167,-0.465Z" style="fill:rgb(35,31,32);fill-rule:nonzero;"/>
            </g>
            <g transform="matrix(9,0,0,9,37.8679,164.177)">
                <path d="M0.432,-0.072L0.416,-0.037C0.382,-0.015 0.352,-0.001 0.325,0.006C0.299,0.012 0.275,0.016 0.254,0.016C0.215,0.016 0.178,0.008 0.143,-0.007C0.108,-0.023 0.08,-0.049 0.058,-0.085C0.036,-0.121 0.025,-0.165 0.025,-0.217C0.025,-0.251 0.029,-0.282 0.038,-0.309C0.046,-0.337 0.055,-0.357 0.064,-0.371C0.073,-0.384 0.089,-0.399 0.111,-0.415C0.133,-0.431 0.157,-0.444 0.182,-0.454C0.206,-0.464 0.233,-0.469 0.262,-0.469C0.301,-0.469 0.335,-0.46 0.365,-0.441C0.395,-0.423 0.416,-0.399 0.428,-0.371C0.44,-0.342 0.446,-0.312 0.446,-0.279C0.446,-0.269 0.445,-0.259 0.444,-0.25L0.439,-0.245C0.417,-0.24 0.387,-0.236 0.35,-0.235C0.312,-0.233 0.287,-0.232 0.275,-0.232L0.119,-0.232C0.119,-0.165 0.136,-0.115 0.169,-0.083C0.203,-0.052 0.243,-0.036 0.292,-0.036C0.314,-0.036 0.336,-0.04 0.357,-0.047C0.378,-0.055 0.4,-0.066 0.424,-0.08L0.432,-0.072ZM0.119,-0.271C0.125,-0.271 0.147,-0.269 0.186,-0.268C0.226,-0.267 0.255,-0.266 0.273,-0.266C0.319,-0.266 0.346,-0.267 0.356,-0.269C0.356,-0.276 0.356,-0.282 0.356,-0.287C0.356,-0.337 0.346,-0.375 0.326,-0.399C0.305,-0.424 0.277,-0.436 0.242,-0.436C0.203,-0.436 0.173,-0.422 0.151,-0.395C0.129,-0.367 0.119,-0.326 0.119,-0.271Z" style="fill:rgb(35,31,32);fill-rule:nonzero;"/>
            </g>
        </g>
        <g transform="matrix(1,0,0,1,-33.6823,-96.5067)">
            <g transform="matrix(1,0,0,1,209.81,164.038)">
                <path d="M0,-5.741C0.035,-5.866 0.035,-5.885 0.035,-5.921C0.035,-6.002 -0.02,-6.048 -0.101,-6.048C-0.226,-6.048 -1.02,-5.976 -1.201,-5.957C-1.289,-5.948 -1.39,-5.94 -1.39,-5.787C-1.39,-5.67 -1.289,-5.67 -1.146,-5.67C-0.723,-5.67 -0.723,-5.606 -0.723,-5.525C-0.723,-5.463 -0.804,-5.146 -0.85,-4.958L-1.02,-4.262C-1.111,-3.921 -1.201,-3.569 -1.281,-3.218C-1.451,-3.543 -1.731,-3.777 -2.138,-3.777C-3.183,-3.777 -4.347,-2.532 -4.347,-1.152C-4.347,-0.161 -3.715,0.307 -3.111,0.307C-2.524,0.307 -2.047,-0.179 -1.902,-0.351C-1.803,0.147 -1.353,0.307 -1.063,0.307C-0.803,0.307 -0.576,0.19 -0.379,-0.187C-0.217,-0.485 -0.09,-1.044 -0.09,-1.08C-0.09,-1.125 -0.117,-1.187 -0.207,-1.187C-0.315,-1.187 -0.324,-1.144 -0.361,-0.971C-0.559,-0.187 -0.758,0.083 -1.037,0.083C-1.263,0.083 -1.318,-0.133 -1.318,-0.331C-1.318,-0.448 -1.272,-0.701 -1.263,-0.728L0,-5.742L0,-5.741ZM-1.867,-0.88C-1.904,-0.736 -1.912,-0.718 -2.057,-0.538C-2.381,-0.151 -2.75,0.084 -3.084,0.084C-3.525,0.084 -3.68,-0.375 -3.68,-0.762C-3.68,-1.205 -3.416,-2.243 -3.201,-2.676C-2.912,-3.217 -2.498,-3.549 -2.138,-3.549C-1.533,-3.549 -1.398,-2.819 -1.398,-2.774C-1.398,-2.728 -1.416,-2.676 -1.426,-2.64L-1.867,-0.881" style="fill:rgb(24,22,28);fill-rule:nonzero;"/>
            </g>
            <g transform="matrix(1,0,0,1,213.997,162.662)">
                <path d="M0,0.901L-0.221,0.901C-0.292,1.623 -0.477,2.254 -1.557,2.254L-2.204,2.254C-2.496,2.254 -2.496,2.207 -2.496,2.02L-2.496,-1.084C-2.496,-1.282 -2.496,-1.353 -1.924,-1.353L-1.704,-1.353L-1.704,-1.584C-2.02,-1.562 -2.456,-1.562 -2.777,-1.562C-3.044,-1.562 -3.582,-1.58 -3.725,-1.584L-3.725,-1.353L-3.568,-1.353C-3.092,-1.353 -3.092,-1.282 -3.092,-1.084L-3.092,1.985C-3.092,2.18 -3.092,2.253 -3.568,2.253L-3.725,2.253L-3.725,2.485L-0.184,2.485L0.001,0.899" style="fill:rgb(24,22,28);fill-rule:nonzero;"/>
            </g>
        </g>
        <g transform="matrix(1,0,0,1,-74.621,-44.547)">
            <g transform="matrix(1,0,0,1,84.3154,113.404)">
                <path d="M0,-5.741C0.036,-5.866 0.036,-5.885 0.036,-5.921C0.036,-6.002 -0.019,-6.048 -0.1,-6.048C-0.225,-6.048 -1.019,-5.976 -1.2,-5.957C-1.289,-5.948 -1.389,-5.94 -1.389,-5.787C-1.389,-5.67 -1.289,-5.67 -1.145,-5.67C-0.722,-5.67 -0.722,-5.606 -0.722,-5.525C-0.722,-5.463 -0.803,-5.147 -0.849,-4.958L-1.019,-4.262C-1.11,-3.921 -1.2,-3.569 -1.281,-3.218C-1.451,-3.543 -1.731,-3.777 -2.137,-3.777C-3.182,-3.777 -4.346,-2.532 -4.346,-1.152C-4.346,-0.161 -3.715,0.307 -3.11,0.307C-2.524,0.307 -2.046,-0.179 -1.902,-0.351C-1.802,0.146 -1.352,0.307 -1.063,0.307C-0.802,0.307 -0.575,0.19 -0.379,-0.188C-0.216,-0.485 -0.09,-1.044 -0.09,-1.08C-0.09,-1.125 -0.117,-1.188 -0.207,-1.188C-0.315,-1.188 -0.324,-1.144 -0.36,-0.971C-0.558,-0.188 -0.757,0.083 -1.037,0.083C-1.262,0.083 -1.317,-0.133 -1.317,-0.331C-1.317,-0.448 -1.272,-0.701 -1.262,-0.728L0.001,-5.742L0,-5.741ZM-1.867,-0.88C-1.903,-0.736 -1.912,-0.718 -2.056,-0.538C-2.381,-0.151 -2.75,0.084 -3.084,0.084C-3.525,0.084 -3.679,-0.375 -3.679,-0.762C-3.679,-1.205 -3.416,-2.243 -3.201,-2.676C-2.912,-3.217 -2.498,-3.549 -2.137,-3.549C-1.532,-3.549 -1.398,-2.819 -1.398,-2.774C-1.398,-2.729 -1.415,-2.676 -1.425,-2.64L-1.867,-0.881" style="fill:rgb(24,22,28);fill-rule:nonzero;"/>
            </g>
            <g transform="matrix(1,0,0,1,86.1372,114.378)">
                <path d="M0,-3.797C-0.059,-3.933 -0.114,-3.933 -0.245,-3.933L-1.323,-3.933L-1.323,-3.702L-1.168,-3.702C-0.691,-3.702 -0.691,-3.63 -0.691,-3.433L-0.691,-0.519C-0.691,-0.363 -0.691,-0.096 -1.322,-0.096L-1.322,0.137C-1.209,0.131 -0.822,0.114 -0.572,0.114C-0.297,0.114 0.078,0.131 0.186,0.137L0.186,-0.096C-0.445,-0.096 -0.445,-0.363 -0.445,-0.519L-0.445,-3.647L-0.44,-3.647L1.188,0C1.205,0.048 1.247,0.137 1.349,0.137C1.451,0.137 1.491,0.042 1.51,-0.001L3.16,-3.703L3.166,-3.703L3.166,-0.364C3.166,-0.169 3.166,-0.097 2.689,-0.097L2.534,-0.097L2.534,0.136C2.653,0.13 3.154,0.113 3.428,0.113C3.708,0.113 4.203,0.13 4.328,0.136L4.328,-0.097L4.173,-0.097C3.696,-0.097 3.696,-0.169 3.696,-0.364L3.696,-3.434C3.696,-3.631 3.696,-3.703 4.173,-3.703L4.328,-3.703L4.328,-3.934L3.25,-3.934C3.119,-3.934 3.064,-3.934 3.005,-3.798L1.503,-0.429L0.001,-3.798" style="fill:rgb(24,22,28);fill-rule:nonzero;"/>
            </g>
            <g transform="matrix(1,0,0,1,95.0034,112.029)">
                <path d="M0,0.9L-0.22,0.9C-0.292,1.622 -0.476,2.253 -1.556,2.253L-2.204,2.253C-2.496,2.253 -2.496,2.206 -2.496,2.02L-2.496,-1.085C-2.496,-1.282 -2.496,-1.354 -1.924,-1.354L-1.704,-1.354L-1.704,-1.585C-2.02,-1.562 -2.456,-1.562 -2.777,-1.562C-3.044,-1.562 -3.582,-1.581 -3.724,-1.585L-3.724,-1.354L-3.569,-1.354C-3.092,-1.354 -3.092,-1.282 -3.092,-1.085L-3.092,1.985C-3.092,2.18 -3.092,2.252 -3.569,2.252L-3.724,2.252L-3.724,2.485L-0.183,2.485L0.001,0.899" style="fill:rgb(24,22,28);fill-rule:nonzero;"/>
            </g>
        </g>
        <g transform="matrix(0.24,0,0,0.244823,-45.5415,-16.9301)">
            <g transform="matrix(1,-0,-0,0.980301,189.756,69.1523)">
                <path d="M113.496,222.85L100.026,222.85" style="fill:none;stroke:black;stroke-width:3.37px;stroke-linecap:round;"/>
                <path d="M113.496,340.194L100.026,340.194" style="fill:none;stroke:black;stroke-width:3.37px;stroke-linecap:round;"/>
                <path d="M106.761,222.85L106.761,340.194" style="fill:none;stroke:black;stroke-width:3.37px;stroke-linecap:round;stroke-linejoin:round;stroke-miterlimit:1.5;"/>
            </g>
        </g>
        <g transform="matrix(0.24,0,0,0.865572,97.2622,-231.237)">
            <g transform="matrix(1,-0,-0,0.277273,-405.259,267.149)">
                <path d="M708.511,69.533L695.042,69.533" style="fill:none;stroke:black;stroke-width:3.37px;stroke-linecap:round;"/>
                <path d="M708.511,492.941L695.042,492.941" style="fill:none;stroke:black;stroke-width:3.37px;stroke-linecap:round;"/>
                <path d="M701.777,69.533L701.777,492.941" style="fill:none;stroke:black;stroke-width:3.37px;stroke-linecap:round;stroke-linejoin:round;stroke-miterlimit:1.5;"/>
            </g>
        </g>
        <g transform="matrix(0.24,0,0,0.24,-12.9225,-15.2153)">
            <path d="M723.018,132.663L178.169,403.865" style="fill:none;stroke:rgb(0,174,239);stroke-width:3.37px;stroke-linecap:round;stroke-linejoin:round;stroke-miterlimit:1.5;"/>
        </g>
        <g transform="matrix(0.24,0,0,-0.24,-12.9225,150.456)">
            <path d="M723.018,132.663L178.169,403.865" style="fill:none;stroke:rgb(0,174,239);stroke-width:3.37px;stroke-linecap:round;stroke-linejoin:round;stroke-miterlimit:1.5;"/>
        </g>
    </g>
</svg>
