<?xml version="1.0" encoding="UTF-8" standalone="no"?>
<!DOCTYPE svg PUBLIC "-//W3C//DTD SVG 1.1//EN" "http://www.w3.org/Graphics/SVG/1.1/DTD/svg11.dtd">
<svg width="100%" height="100%" viewBox="0 0 1182 720" version="1.1" xmlns="http://www.w3.org/2000/svg" xmlns:xlink="http://www.w3.org/1999/xlink" xml:space="preserve" xmlns:serif="http://www.serif.com/" style="fill-rule:evenodd;clip-rule:evenodd;stroke-miterlimit:10;">
    <g id="Ebene-1" serif:id="Ebene 1" transform="matrix(4.16667,0,0,4.16667,0,0)">
        <g transform="matrix(-1,0,0,1,78.774,-134.1)">
            <rect x="26.795" y="140.791" width="25.184" height="25.185" style="fill:white;stroke:rgb(35,31,32);stroke-width:0.75px;"/>
        </g>
        <g transform="matrix(-1,0,0,1,78.774,-83.732)">
            <rect x="26.795" y="115.608" width="25.184" height="25.183" style="fill:none;stroke:rgb(35,31,32);stroke-width:0.75px;"/>
        </g>
        <g transform="matrix(-1,0,0,1,78.774,-34.886)">
            <rect x="26.795" y="91.185" width="25.184" height="25.183" style="fill:white;stroke:rgb(35,31,32);stroke-width:0.75px;"/>
        </g>
        <g transform="matrix(-1,0,0,1,78.774,15.479)">
            <rect x="26.795" y="66.002" width="25.184" height="25.184" style="fill:white;stroke:rgb(35,31,32);stroke-width:0.75px;"/>
        </g>
        <g transform="matrix(-1,0,0,1,78.774,65.848)">
            <rect x="26.795" y="40.817" width="25.184" height="25.185" style="fill:white;stroke:rgb(35,31,32);stroke-width:0.75px;"/>
        </g>
        <g transform="matrix(-1,0,0,1,78.774,114.695)">
            <rect x="26.795" y="16.394" width="25.184" height="25.184" style="fill:white;stroke:rgb(35,31,32);stroke-width:0.75px;"/>
        </g>
        <g transform="matrix(0,-1,-1,0,143.797,73.7219)">
            <path d="M-7.761,-7.761C-35.156,-7.761 -57.368,-4.288 -57.368,0.003C-57.368,4.288 -35.156,7.761 -7.761,7.761C19.637,7.761 41.846,4.288 41.846,0.003C41.846,-4.288 19.637,-7.761 -7.761,-7.761" style="fill:white;fill-rule:nonzero;"/>
        </g>
        <g transform="matrix(0,-1,-1,0,143.797,73.7219)">
            <ellipse cx="-7.761" cy="0" rx="49.606" ry="7.761" style="fill:none;stroke:rgb(35,31,32);stroke-width:0.75px;"/>
        </g>
        <g transform="matrix(1,0,0,1,54.6694,13.4385)">
            <path d="M0,0L86.437,0" style="fill:none;fill-rule:nonzero;stroke:rgb(35,31,32);stroke-width:0.75px;"/>
        </g>
        <g transform="matrix(1,0,0,1,55.2168,11.5686)">
            <path d="M0,3.74L-3.238,1.87L0,0L0,3.74Z" style="fill:rgb(35,31,32);fill-rule:nonzero;"/>
        </g>
        <g transform="matrix(1,0,0,1,140.559,11.5686)">
            <path d="M0,3.74L3.238,1.87L0,0L0,3.74Z" style="fill:rgb(35,31,32);fill-rule:nonzero;"/>
        </g>
        <g transform="matrix(0,1,1,0,206.05,81.4829)">
            <path d="M-46.916,-46.916L46.916,-46.916" style="fill:none;fill-rule:nonzero;stroke:rgb(35,31,32);stroke-width:0.75px;"/>
        </g>
        <g transform="matrix(1,0,0,1,157.265,31.8763)">
            <path d="M0,3.238L1.87,0L3.74,3.238L0,3.238Z" style="fill:rgb(35,31,32);fill-rule:nonzero;"/>
        </g>
        <g transform="matrix(1,0,0,1,157.265,131.09)">
            <path d="M0,-3.238L1.87,0L3.74,-3.238L0,-3.238Z" style="fill:rgb(35,31,32);fill-rule:nonzero;"/>
        </g>
        <g transform="matrix(0,1,1,0,43.8442,56.8408)">
            <path d="M-21.582,-21.582L21.582,-21.582" style="fill:none;fill-rule:nonzero;stroke:rgb(35,31,32);stroke-width:0.75px;"/>
        </g>
        <g transform="matrix(1,0,0,1,20.3926,32.5686)">
            <path d="M0,3.238L1.87,0L3.74,3.238L0,3.238Z" style="fill:rgb(35,31,32);fill-rule:nonzero;"/>
        </g>
        <g transform="matrix(1,0,0,1,20.3926,81.112)">
            <path d="M0,-3.238L1.87,0L3.74,-3.238L0,-3.238Z" style="fill:rgb(35,31,32);fill-rule:nonzero;"/>
        </g>
        <g transform="matrix(9,0,0,9,24.0801,169.416)">
            <path d="M0.015,-0.687L0.019,-0.69C0.075,-0.687 0.113,-0.686 0.134,-0.686L0.362,-0.691C0.427,-0.691 0.481,-0.685 0.522,-0.673C0.564,-0.66 0.601,-0.639 0.634,-0.609C0.666,-0.579 0.691,-0.544 0.707,-0.504C0.724,-0.464 0.732,-0.422 0.732,-0.376C0.732,-0.333 0.725,-0.289 0.709,-0.246C0.694,-0.203 0.672,-0.165 0.644,-0.131C0.616,-0.097 0.584,-0.069 0.548,-0.048C0.512,-0.028 0.476,-0.014 0.44,-0.007C0.404,0 0.367,0.004 0.329,0.004C0.304,0.004 0.256,0.003 0.186,0.001C0.162,0 0.147,-0 0.14,-0C0.117,-0 0.09,0.001 0.058,0.004L0.054,-0L0.054,-0.016L0.058,-0.021C0.077,-0.031 0.088,-0.037 0.091,-0.039C0.094,-0.042 0.096,-0.07 0.098,-0.125C0.1,-0.179 0.101,-0.221 0.101,-0.25L0.101,-0.429L0.1,-0.54C0.1,-0.564 0.1,-0.583 0.099,-0.598C0.098,-0.614 0.097,-0.624 0.096,-0.631C0.094,-0.637 0.092,-0.642 0.09,-0.645C0.088,-0.647 0.085,-0.649 0.08,-0.651C0.075,-0.653 0.067,-0.654 0.056,-0.656L0.019,-0.659L0.015,-0.662L0.015,-0.687ZM0.195,-0.049C0.229,-0.043 0.267,-0.04 0.31,-0.04C0.386,-0.04 0.447,-0.052 0.492,-0.078C0.537,-0.103 0.571,-0.141 0.594,-0.19C0.616,-0.24 0.627,-0.296 0.627,-0.359C0.627,-0.451 0.603,-0.522 0.554,-0.573C0.505,-0.624 0.427,-0.649 0.321,-0.649C0.278,-0.649 0.236,-0.646 0.195,-0.64C0.193,-0.586 0.191,-0.526 0.191,-0.459L0.191,-0.306L0.192,-0.162C0.192,-0.134 0.193,-0.097 0.195,-0.049Z" style="fill:rgb(35,31,32);fill-rule:nonzero;"/>
        </g>
        <g transform="matrix(9,0,0,9,31.0456,169.416)">
            <path d="M0.141,-0.684C0.156,-0.684 0.169,-0.678 0.18,-0.667C0.19,-0.657 0.196,-0.644 0.196,-0.628C0.196,-0.613 0.19,-0.601 0.18,-0.59C0.169,-0.579 0.156,-0.574 0.141,-0.574C0.126,-0.574 0.113,-0.579 0.102,-0.59C0.091,-0.6 0.085,-0.613 0.085,-0.628C0.085,-0.644 0.091,-0.657 0.102,-0.667C0.113,-0.678 0.126,-0.684 0.141,-0.684ZM0.182,-0.465L0.191,-0.459C0.188,-0.416 0.186,-0.362 0.186,-0.296L0.186,-0.186C0.186,-0.179 0.187,-0.156 0.188,-0.117C0.189,-0.078 0.191,-0.055 0.192,-0.049C0.194,-0.042 0.196,-0.038 0.199,-0.035C0.202,-0.032 0.205,-0.03 0.209,-0.029C0.214,-0.028 0.231,-0.027 0.262,-0.025L0.267,-0.021L0.267,-0L0.263,0.004C0.222,0.001 0.183,-0 0.145,-0C0.108,-0 0.069,0.001 0.028,0.004L0.023,-0L0.023,-0.021L0.028,-0.025C0.059,-0.027 0.077,-0.028 0.081,-0.029C0.085,-0.03 0.089,-0.032 0.092,-0.035C0.095,-0.038 0.097,-0.043 0.098,-0.05C0.1,-0.056 0.101,-0.077 0.102,-0.113C0.104,-0.148 0.104,-0.175 0.104,-0.193L0.104,-0.29C0.104,-0.303 0.104,-0.32 0.103,-0.343C0.101,-0.365 0.1,-0.379 0.099,-0.384C0.099,-0.389 0.096,-0.393 0.092,-0.396C0.088,-0.398 0.079,-0.399 0.066,-0.399L0.025,-0.4L0.021,-0.404L0.021,-0.425L0.025,-0.429C0.087,-0.436 0.139,-0.448 0.182,-0.465Z" style="fill:rgb(35,31,32);fill-rule:nonzero;"/>
        </g>
        <g transform="matrix(9,0,0,9,33.665,169.416)">
            <path d="M0.049,-0.144L0.07,-0.144L0.075,-0.139C0.075,-0.112 0.077,-0.088 0.08,-0.069C0.09,-0.054 0.107,-0.041 0.132,-0.031C0.157,-0.022 0.181,-0.017 0.205,-0.017C0.24,-0.017 0.267,-0.026 0.288,-0.045C0.309,-0.063 0.319,-0.086 0.319,-0.111C0.319,-0.125 0.315,-0.137 0.308,-0.148C0.3,-0.158 0.289,-0.166 0.274,-0.173C0.259,-0.18 0.231,-0.188 0.192,-0.197C0.159,-0.205 0.135,-0.211 0.122,-0.215C0.109,-0.219 0.096,-0.227 0.083,-0.237C0.071,-0.248 0.062,-0.26 0.055,-0.276C0.049,-0.291 0.045,-0.307 0.045,-0.326C0.045,-0.369 0.063,-0.404 0.097,-0.43C0.132,-0.457 0.175,-0.47 0.227,-0.47C0.249,-0.47 0.273,-0.467 0.298,-0.461C0.324,-0.455 0.344,-0.449 0.357,-0.443L0.361,-0.437C0.359,-0.424 0.357,-0.389 0.356,-0.334L0.352,-0.33L0.333,-0.33L0.328,-0.334C0.327,-0.354 0.325,-0.368 0.323,-0.376C0.32,-0.384 0.315,-0.392 0.305,-0.402C0.296,-0.411 0.282,-0.419 0.265,-0.425C0.248,-0.431 0.23,-0.435 0.21,-0.435C0.191,-0.435 0.174,-0.432 0.16,-0.426C0.147,-0.42 0.136,-0.411 0.128,-0.399C0.119,-0.387 0.115,-0.373 0.115,-0.356C0.115,-0.344 0.118,-0.333 0.123,-0.323C0.128,-0.313 0.136,-0.305 0.146,-0.299C0.156,-0.293 0.167,-0.289 0.179,-0.286L0.232,-0.272C0.278,-0.261 0.31,-0.252 0.33,-0.244C0.35,-0.236 0.365,-0.223 0.375,-0.207C0.386,-0.19 0.392,-0.17 0.392,-0.147C0.392,-0.102 0.373,-0.063 0.336,-0.031C0.299,0.001 0.251,0.017 0.193,0.017C0.172,0.017 0.147,0.015 0.116,0.01C0.086,0.006 0.06,0.001 0.039,-0.005L0.036,-0.011L0.041,-0.044C0.043,-0.054 0.044,-0.064 0.044,-0.074C0.044,-0.085 0.045,-0.106 0.045,-0.139L0.049,-0.144Z" style="fill:rgb(35,31,32);fill-rule:nonzero;"/>
        </g>
        <g transform="matrix(9,0,0,9,37.4797,169.416)">
            <path d="M0.181,-0.471L0.19,-0.465C0.187,-0.428 0.185,-0.395 0.185,-0.367C0.229,-0.407 0.26,-0.434 0.277,-0.447C0.295,-0.46 0.325,-0.466 0.367,-0.466C0.394,-0.466 0.418,-0.463 0.44,-0.455C0.462,-0.448 0.482,-0.436 0.5,-0.419C0.519,-0.402 0.534,-0.381 0.544,-0.356C0.555,-0.331 0.561,-0.302 0.561,-0.269C0.561,-0.245 0.557,-0.221 0.549,-0.197C0.542,-0.173 0.532,-0.151 0.52,-0.13C0.508,-0.11 0.498,-0.096 0.49,-0.09C0.483,-0.083 0.468,-0.073 0.445,-0.06C0.425,-0.047 0.404,-0.034 0.384,-0.02C0.37,-0.009 0.361,-0.003 0.355,-0C0.349,0.003 0.34,0.006 0.327,0.009C0.314,0.012 0.3,0.013 0.286,0.013C0.252,0.013 0.218,0.005 0.185,-0.013L0.185,0.091C0.185,0.098 0.185,0.122 0.187,0.16C0.188,0.199 0.189,0.222 0.191,0.229C0.192,0.235 0.194,0.24 0.197,0.243C0.2,0.246 0.204,0.247 0.208,0.248C0.212,0.249 0.23,0.25 0.261,0.252L0.265,0.256L0.265,0.277L0.261,0.281C0.221,0.279 0.181,0.277 0.144,0.277C0.107,0.277 0.068,0.279 0.027,0.281L0.022,0.277L0.022,0.256L0.027,0.252C0.058,0.25 0.076,0.249 0.08,0.248C0.084,0.247 0.088,0.245 0.091,0.242C0.094,0.239 0.096,0.234 0.097,0.227C0.099,0.22 0.1,0.198 0.101,0.162C0.103,0.125 0.104,0.097 0.104,0.079L0.104,-0.295C0.104,-0.312 0.103,-0.332 0.101,-0.354C0.1,-0.377 0.099,-0.389 0.098,-0.393C0.097,-0.397 0.094,-0.4 0.091,-0.402C0.087,-0.404 0.078,-0.405 0.065,-0.405L0.024,-0.406L0.02,-0.41L0.02,-0.431L0.024,-0.435C0.086,-0.442 0.138,-0.454 0.181,-0.471ZM0.185,-0.097C0.2,-0.081 0.218,-0.068 0.24,-0.057C0.262,-0.046 0.287,-0.04 0.313,-0.04C0.345,-0.04 0.373,-0.048 0.397,-0.064C0.421,-0.08 0.44,-0.103 0.454,-0.134C0.467,-0.165 0.474,-0.199 0.474,-0.236C0.474,-0.267 0.468,-0.295 0.456,-0.321C0.444,-0.347 0.426,-0.367 0.401,-0.382C0.376,-0.397 0.349,-0.405 0.321,-0.405C0.304,-0.405 0.287,-0.402 0.271,-0.396C0.255,-0.39 0.24,-0.381 0.225,-0.369C0.211,-0.357 0.201,-0.346 0.195,-0.336C0.189,-0.325 0.185,-0.316 0.185,-0.309C0.185,-0.302 0.185,-0.295 0.185,-0.286L0.185,-0.097Z" style="fill:rgb(35,31,32);fill-rule:nonzero;"/>
        </g>
        <g transform="matrix(9,0,0,9,42.8895,169.416)">
            <path d="M0.183,-0.723L0.192,-0.717C0.188,-0.68 0.187,-0.605 0.187,-0.492L0.187,-0.186C0.187,-0.179 0.187,-0.156 0.188,-0.117C0.19,-0.078 0.191,-0.055 0.193,-0.049C0.194,-0.042 0.196,-0.038 0.199,-0.035C0.202,-0.032 0.206,-0.03 0.21,-0.029C0.214,-0.028 0.232,-0.027 0.263,-0.025L0.267,-0.021L0.267,-0L0.263,0.004C0.222,0.001 0.183,-0 0.146,-0C0.108,-0 0.069,0.001 0.028,0.004L0.024,-0L0.024,-0.021L0.028,-0.025C0.06,-0.027 0.078,-0.028 0.082,-0.029C0.086,-0.03 0.089,-0.032 0.093,-0.035C0.096,-0.038 0.098,-0.043 0.099,-0.05C0.1,-0.056 0.101,-0.077 0.103,-0.113C0.104,-0.148 0.105,-0.175 0.105,-0.193L0.105,-0.446L0.103,-0.55C0.102,-0.586 0.101,-0.611 0.1,-0.625C0.099,-0.639 0.097,-0.647 0.095,-0.65C0.093,-0.653 0.09,-0.654 0.085,-0.656C0.08,-0.657 0.06,-0.658 0.026,-0.658L0.021,-0.662L0.021,-0.683L0.025,-0.687C0.088,-0.694 0.14,-0.706 0.183,-0.723Z" style="fill:rgb(35,31,32);fill-rule:nonzero;"/>
        </g>
        <g transform="matrix(9,0,0,9,45.5089,169.416)">
            <path d="M0.104,-0.331L0.084,-0.336L0.081,-0.341L0.081,-0.401C0.139,-0.444 0.195,-0.466 0.25,-0.466C0.287,-0.466 0.318,-0.459 0.343,-0.445C0.368,-0.431 0.385,-0.413 0.396,-0.392C0.408,-0.371 0.413,-0.347 0.413,-0.319L0.411,-0.221L0.411,-0.075C0.411,-0.055 0.412,-0.043 0.415,-0.039C0.418,-0.035 0.421,-0.032 0.424,-0.031C0.428,-0.029 0.435,-0.028 0.444,-0.027L0.472,-0.024L0.476,-0.02L0.476,-0L0.472,0.003C0.448,0.001 0.426,0 0.406,0C0.386,0 0.363,0.001 0.335,0.003L0.328,-0.003L0.33,-0.082L0.224,0.001C0.206,0.008 0.186,0.012 0.165,0.012C0.139,0.012 0.117,0.007 0.098,-0.002C0.079,-0.011 0.065,-0.025 0.055,-0.042C0.045,-0.058 0.04,-0.079 0.04,-0.103C0.04,-0.151 0.055,-0.188 0.085,-0.215C0.115,-0.242 0.197,-0.265 0.33,-0.284C0.33,-0.332 0.319,-0.366 0.298,-0.385C0.276,-0.405 0.248,-0.415 0.211,-0.415C0.193,-0.415 0.175,-0.412 0.16,-0.407C0.144,-0.401 0.136,-0.397 0.133,-0.393C0.131,-0.39 0.122,-0.37 0.107,-0.333L0.104,-0.331ZM0.33,-0.254C0.239,-0.239 0.182,-0.222 0.16,-0.205C0.137,-0.187 0.126,-0.16 0.126,-0.123C0.126,-0.072 0.151,-0.047 0.202,-0.047C0.245,-0.047 0.288,-0.072 0.33,-0.122L0.33,-0.254Z" style="fill:rgb(35,31,32);fill-rule:nonzero;"/>
        </g>
        <g transform="matrix(9,0,0,9,50.0091,169.416)">
            <path d="M0.022,0.265C0.033,0.238 0.041,0.213 0.047,0.19L0.059,0.19C0.075,0.207 0.092,0.216 0.11,0.216C0.133,0.216 0.154,0.204 0.171,0.181C0.188,0.158 0.212,0.108 0.243,0.029C0.231,-0.006 0.218,-0.038 0.206,-0.069L0.128,-0.262C0.12,-0.282 0.108,-0.31 0.092,-0.347C0.076,-0.384 0.066,-0.404 0.063,-0.408C0.06,-0.412 0.056,-0.415 0.051,-0.418C0.046,-0.422 0.033,-0.425 0.012,-0.428L0.008,-0.432L0.008,-0.451L0.012,-0.455C0.05,-0.453 0.088,-0.452 0.127,-0.452C0.174,-0.452 0.209,-0.453 0.234,-0.455L0.238,-0.451L0.238,-0.432L0.235,-0.428C0.231,-0.427 0.221,-0.427 0.205,-0.426C0.188,-0.424 0.178,-0.422 0.174,-0.418C0.17,-0.414 0.168,-0.409 0.168,-0.404C0.168,-0.398 0.173,-0.38 0.183,-0.35C0.193,-0.319 0.203,-0.292 0.212,-0.269L0.243,-0.193C0.263,-0.143 0.279,-0.106 0.29,-0.082L0.316,-0.139C0.325,-0.16 0.338,-0.192 0.355,-0.234L0.396,-0.337C0.406,-0.364 0.412,-0.381 0.413,-0.387C0.415,-0.394 0.416,-0.398 0.416,-0.401C0.416,-0.409 0.413,-0.413 0.408,-0.416C0.403,-0.419 0.391,-0.421 0.373,-0.423L0.353,-0.426L0.349,-0.43L0.349,-0.451L0.353,-0.455C0.38,-0.453 0.413,-0.452 0.45,-0.452C0.484,-0.452 0.512,-0.453 0.532,-0.455L0.536,-0.451L0.536,-0.43L0.532,-0.426C0.52,-0.425 0.511,-0.424 0.503,-0.421C0.496,-0.418 0.489,-0.413 0.483,-0.405C0.476,-0.398 0.465,-0.377 0.448,-0.342C0.431,-0.307 0.414,-0.271 0.397,-0.234L0.349,-0.129L0.236,0.134C0.227,0.157 0.214,0.181 0.2,0.208C0.185,0.234 0.168,0.252 0.147,0.264C0.126,0.275 0.104,0.281 0.08,0.281C0.06,0.281 0.04,0.276 0.022,0.265Z" style="fill:rgb(35,31,32);fill-rule:nonzero;"/>
        </g>
        <g transform="matrix(9,0,0,9,124.664,169.416)">
            <path d="M0.918,-0.688L0.923,-0.685L0.923,-0.661L0.919,-0.657C0.883,-0.656 0.861,-0.654 0.852,-0.652C0.844,-0.649 0.838,-0.645 0.834,-0.639C0.83,-0.633 0.828,-0.621 0.828,-0.604C0.827,-0.586 0.826,-0.536 0.825,-0.455L0.825,-0.229C0.825,-0.197 0.826,-0.16 0.827,-0.119C0.828,-0.078 0.83,-0.054 0.833,-0.048C0.836,-0.041 0.841,-0.036 0.85,-0.033C0.858,-0.03 0.881,-0.028 0.919,-0.027L0.923,-0.023L0.923,0L0.918,0.004C0.865,0.001 0.819,-0 0.78,-0C0.753,-0 0.708,0.001 0.644,0.004L0.639,0L0.639,-0.023L0.643,-0.027C0.679,-0.028 0.701,-0.03 0.71,-0.032C0.718,-0.035 0.724,-0.039 0.728,-0.045C0.732,-0.051 0.734,-0.063 0.734,-0.081C0.735,-0.099 0.736,-0.148 0.737,-0.229L0.737,-0.588L0.568,-0.235C0.526,-0.147 0.489,-0.064 0.458,0.014L0.438,0.014C0.42,-0.028 0.405,-0.062 0.394,-0.087L0.16,-0.572L0.16,-0.23C0.16,-0.199 0.161,-0.162 0.161,-0.12C0.162,-0.079 0.164,-0.055 0.167,-0.048C0.171,-0.042 0.176,-0.037 0.185,-0.034C0.193,-0.03 0.216,-0.028 0.254,-0.028L0.258,-0.024L0.258,-0L0.253,0.004L0.222,0.002C0.19,0.001 0.162,-0 0.139,-0C0.129,-0 0.09,0.001 0.022,0.004L0.019,-0L0.019,-0.023L0.022,-0.028C0.058,-0.028 0.08,-0.03 0.089,-0.033C0.097,-0.035 0.103,-0.04 0.107,-0.046C0.111,-0.052 0.113,-0.064 0.114,-0.081C0.114,-0.097 0.115,-0.147 0.116,-0.23L0.116,-0.454C0.116,-0.484 0.115,-0.52 0.115,-0.562C0.114,-0.605 0.112,-0.629 0.109,-0.636C0.106,-0.643 0.1,-0.648 0.092,-0.651C0.084,-0.654 0.061,-0.656 0.022,-0.657L0.019,-0.661L0.019,-0.684L0.023,-0.688C0.045,-0.687 0.076,-0.686 0.114,-0.686C0.15,-0.686 0.181,-0.687 0.208,-0.688C0.235,-0.625 0.261,-0.568 0.286,-0.517L0.471,-0.137L0.638,-0.485C0.683,-0.579 0.714,-0.647 0.729,-0.688C0.761,-0.687 0.792,-0.686 0.822,-0.686C0.849,-0.686 0.881,-0.687 0.918,-0.688Z" style="fill:rgb(35,31,32);fill-rule:nonzero;"/>
        </g>
        <g transform="matrix(9,0,0,9,133.177,169.416)">
            <path d="M0.141,-0.684C0.156,-0.684 0.169,-0.678 0.18,-0.667C0.19,-0.657 0.196,-0.644 0.196,-0.628C0.196,-0.613 0.19,-0.601 0.18,-0.59C0.169,-0.579 0.156,-0.574 0.141,-0.574C0.126,-0.574 0.113,-0.579 0.102,-0.59C0.091,-0.6 0.085,-0.613 0.085,-0.628C0.085,-0.644 0.091,-0.657 0.102,-0.667C0.113,-0.678 0.126,-0.684 0.141,-0.684ZM0.182,-0.465L0.191,-0.459C0.188,-0.416 0.186,-0.362 0.186,-0.296L0.186,-0.186C0.186,-0.179 0.187,-0.156 0.188,-0.117C0.189,-0.078 0.191,-0.055 0.192,-0.049C0.194,-0.042 0.196,-0.038 0.199,-0.035C0.202,-0.032 0.205,-0.03 0.209,-0.029C0.214,-0.028 0.231,-0.027 0.262,-0.025L0.267,-0.021L0.267,-0L0.263,0.004C0.222,0.001 0.183,-0 0.145,-0C0.108,-0 0.069,0.001 0.028,0.004L0.023,-0L0.023,-0.021L0.028,-0.025C0.059,-0.027 0.077,-0.028 0.081,-0.029C0.085,-0.03 0.089,-0.032 0.092,-0.035C0.095,-0.038 0.097,-0.043 0.098,-0.05C0.1,-0.056 0.101,-0.077 0.102,-0.113C0.104,-0.148 0.104,-0.175 0.104,-0.193L0.104,-0.29C0.104,-0.303 0.104,-0.32 0.103,-0.343C0.101,-0.365 0.1,-0.379 0.099,-0.384C0.099,-0.389 0.096,-0.393 0.092,-0.396C0.088,-0.398 0.079,-0.399 0.066,-0.399L0.025,-0.4L0.021,-0.404L0.021,-0.425L0.025,-0.429C0.087,-0.436 0.139,-0.448 0.182,-0.465Z" style="fill:rgb(35,31,32);fill-rule:nonzero;"/>
        </g>
        <g transform="matrix(9,0,0,9,135.796,169.416)">
            <path d="M0.424,-0.052L0.404,-0.02C0.362,0.004 0.315,0.015 0.264,0.015C0.192,0.015 0.137,-0.006 0.098,-0.049C0.059,-0.091 0.039,-0.146 0.039,-0.214C0.039,-0.244 0.042,-0.272 0.049,-0.296C0.056,-0.32 0.064,-0.339 0.074,-0.355C0.085,-0.371 0.096,-0.383 0.108,-0.392C0.121,-0.401 0.142,-0.414 0.171,-0.43C0.201,-0.446 0.223,-0.457 0.238,-0.462C0.253,-0.467 0.273,-0.47 0.3,-0.47C0.35,-0.47 0.392,-0.46 0.424,-0.441C0.418,-0.404 0.413,-0.363 0.41,-0.318L0.405,-0.314L0.385,-0.314L0.381,-0.318C0.38,-0.346 0.378,-0.364 0.375,-0.374C0.373,-0.383 0.36,-0.393 0.337,-0.404C0.313,-0.415 0.288,-0.42 0.261,-0.42C0.235,-0.42 0.211,-0.414 0.19,-0.403C0.169,-0.392 0.153,-0.373 0.143,-0.348C0.132,-0.322 0.127,-0.292 0.127,-0.256C0.127,-0.226 0.131,-0.197 0.14,-0.169C0.148,-0.14 0.159,-0.117 0.173,-0.098C0.187,-0.079 0.205,-0.064 0.228,-0.053C0.251,-0.041 0.276,-0.036 0.304,-0.036C0.322,-0.036 0.339,-0.038 0.356,-0.042C0.372,-0.047 0.392,-0.055 0.414,-0.065L0.424,-0.052Z" style="fill:rgb(35,31,32);fill-rule:nonzero;"/>
        </g>
        <g transform="matrix(9,0,0,9,139.791,169.416)">
            <path d="M0.188,-0.465L0.197,-0.459C0.195,-0.44 0.193,-0.407 0.192,-0.358L0.229,-0.405C0.241,-0.42 0.252,-0.432 0.261,-0.44C0.27,-0.448 0.281,-0.455 0.293,-0.459C0.306,-0.464 0.319,-0.466 0.332,-0.466C0.346,-0.466 0.359,-0.463 0.372,-0.458L0.375,-0.451C0.37,-0.407 0.367,-0.369 0.367,-0.336L0.345,-0.336C0.332,-0.366 0.311,-0.381 0.282,-0.381C0.262,-0.381 0.244,-0.375 0.229,-0.362C0.214,-0.349 0.204,-0.333 0.199,-0.314C0.194,-0.294 0.191,-0.27 0.191,-0.24L0.191,-0.186C0.191,-0.176 0.192,-0.152 0.193,-0.114C0.195,-0.076 0.196,-0.054 0.198,-0.048C0.199,-0.042 0.201,-0.038 0.204,-0.035C0.207,-0.033 0.212,-0.031 0.217,-0.03C0.222,-0.029 0.245,-0.027 0.286,-0.025L0.291,-0.021L0.291,-0L0.286,0.004C0.243,0.001 0.198,-0 0.15,-0C0.113,-0 0.074,0.001 0.033,0.004L0.029,-0L0.029,-0.021L0.033,-0.025C0.065,-0.027 0.083,-0.028 0.087,-0.029C0.091,-0.03 0.094,-0.032 0.097,-0.035C0.101,-0.038 0.103,-0.043 0.104,-0.05C0.105,-0.056 0.106,-0.077 0.108,-0.113C0.109,-0.148 0.11,-0.175 0.11,-0.193L0.11,-0.29C0.11,-0.303 0.109,-0.32 0.108,-0.343C0.107,-0.365 0.106,-0.379 0.105,-0.384C0.104,-0.389 0.101,-0.393 0.097,-0.396C0.093,-0.398 0.084,-0.399 0.072,-0.399L0.031,-0.4L0.026,-0.404L0.026,-0.425L0.03,-0.429C0.092,-0.436 0.145,-0.448 0.188,-0.465Z" style="fill:rgb(35,31,32);fill-rule:nonzero;"/>
        </g>
        <g transform="matrix(9,0,0,9,143.347,169.416)">
            <path d="M0.033,-0.224C0.033,-0.262 0.041,-0.3 0.057,-0.336C0.073,-0.372 0.101,-0.403 0.14,-0.429C0.18,-0.455 0.227,-0.468 0.281,-0.468C0.35,-0.468 0.405,-0.447 0.448,-0.404C0.491,-0.36 0.513,-0.305 0.513,-0.237C0.513,-0.163 0.488,-0.101 0.439,-0.053C0.389,-0.005 0.33,0.019 0.26,0.019C0.215,0.019 0.174,0.007 0.138,-0.018C0.102,-0.042 0.076,-0.072 0.059,-0.108C0.042,-0.143 0.033,-0.182 0.033,-0.224ZM0.125,-0.257C0.125,-0.212 0.131,-0.171 0.143,-0.135C0.155,-0.099 0.173,-0.07 0.199,-0.048C0.224,-0.027 0.253,-0.016 0.286,-0.016C0.324,-0.016 0.356,-0.031 0.381,-0.061C0.406,-0.092 0.418,-0.138 0.418,-0.199C0.418,-0.268 0.405,-0.325 0.378,-0.369C0.351,-0.413 0.311,-0.436 0.26,-0.436C0.218,-0.436 0.185,-0.42 0.161,-0.39C0.137,-0.359 0.125,-0.315 0.125,-0.257Z" style="fill:rgb(35,31,32);fill-rule:nonzero;"/>
        </g>
        <g transform="matrix(9,0,0,9,148.26,169.416)">
            <path d="M0.183,-0.723L0.192,-0.717C0.188,-0.68 0.187,-0.605 0.187,-0.492L0.187,-0.186C0.187,-0.179 0.187,-0.156 0.188,-0.117C0.19,-0.078 0.191,-0.055 0.193,-0.049C0.194,-0.042 0.196,-0.038 0.199,-0.035C0.202,-0.032 0.206,-0.03 0.21,-0.029C0.214,-0.028 0.232,-0.027 0.263,-0.025L0.267,-0.021L0.267,-0L0.263,0.004C0.222,0.001 0.183,-0 0.146,-0C0.108,-0 0.069,0.001 0.028,0.004L0.024,-0L0.024,-0.021L0.028,-0.025C0.06,-0.027 0.078,-0.028 0.082,-0.029C0.086,-0.03 0.089,-0.032 0.093,-0.035C0.096,-0.038 0.098,-0.043 0.099,-0.05C0.1,-0.056 0.101,-0.077 0.103,-0.113C0.104,-0.148 0.105,-0.175 0.105,-0.193L0.105,-0.446L0.103,-0.55C0.102,-0.586 0.101,-0.611 0.1,-0.625C0.099,-0.639 0.097,-0.647 0.095,-0.65C0.093,-0.653 0.09,-0.654 0.085,-0.656C0.08,-0.657 0.06,-0.658 0.026,-0.658L0.021,-0.662L0.021,-0.683L0.025,-0.687C0.088,-0.694 0.14,-0.706 0.183,-0.723Z" style="fill:rgb(35,31,32);fill-rule:nonzero;"/>
        </g>
        <g transform="matrix(9,0,0,9,150.88,169.416)">
            <path d="M0.432,-0.072L0.416,-0.037C0.382,-0.015 0.352,-0.001 0.325,0.006C0.299,0.012 0.275,0.016 0.254,0.016C0.215,0.016 0.178,0.008 0.143,-0.007C0.108,-0.023 0.08,-0.049 0.058,-0.085C0.036,-0.121 0.025,-0.165 0.025,-0.217C0.025,-0.251 0.029,-0.282 0.038,-0.309C0.046,-0.337 0.055,-0.357 0.064,-0.371C0.073,-0.384 0.089,-0.399 0.111,-0.415C0.133,-0.431 0.157,-0.444 0.182,-0.454C0.206,-0.464 0.233,-0.469 0.262,-0.469C0.301,-0.469 0.335,-0.46 0.365,-0.441C0.395,-0.423 0.416,-0.399 0.428,-0.371C0.44,-0.342 0.446,-0.312 0.446,-0.279C0.446,-0.269 0.445,-0.259 0.444,-0.25L0.439,-0.245C0.417,-0.24 0.387,-0.236 0.35,-0.235C0.312,-0.233 0.287,-0.232 0.275,-0.232L0.119,-0.232C0.119,-0.165 0.136,-0.115 0.169,-0.083C0.203,-0.052 0.243,-0.036 0.292,-0.036C0.314,-0.036 0.336,-0.04 0.357,-0.047C0.378,-0.055 0.4,-0.066 0.424,-0.08L0.432,-0.072ZM0.119,-0.271C0.125,-0.271 0.147,-0.269 0.186,-0.268C0.226,-0.267 0.255,-0.266 0.273,-0.266C0.319,-0.266 0.346,-0.267 0.356,-0.269C0.356,-0.276 0.356,-0.282 0.356,-0.287C0.356,-0.337 0.346,-0.375 0.326,-0.399C0.305,-0.424 0.277,-0.436 0.242,-0.436C0.203,-0.436 0.173,-0.422 0.151,-0.395C0.129,-0.367 0.119,-0.326 0.119,-0.271Z" style="fill:rgb(35,31,32);fill-rule:nonzero;"/>
        </g>
        <g transform="matrix(9,0,0,9,155.191,169.416)">
            <path d="M0.167,-0.465L0.176,-0.459C0.174,-0.437 0.173,-0.409 0.172,-0.373C0.198,-0.395 0.223,-0.416 0.247,-0.438C0.253,-0.445 0.26,-0.449 0.266,-0.452C0.272,-0.455 0.282,-0.458 0.296,-0.461C0.31,-0.465 0.324,-0.466 0.339,-0.466C0.364,-0.466 0.388,-0.461 0.411,-0.451C0.434,-0.441 0.452,-0.429 0.464,-0.415C0.476,-0.401 0.484,-0.385 0.488,-0.366C0.493,-0.347 0.495,-0.324 0.495,-0.296L0.495,-0.21C0.495,-0.205 0.496,-0.164 0.498,-0.089C0.498,-0.058 0.502,-0.04 0.508,-0.034C0.514,-0.028 0.534,-0.025 0.568,-0.025L0.572,-0.021L0.572,-0L0.568,0.004C0.527,0.001 0.499,-0 0.484,-0C0.476,-0 0.452,0.001 0.413,0.004L0.407,-0.001C0.411,-0.044 0.414,-0.099 0.414,-0.167L0.414,-0.231C0.414,-0.269 0.413,-0.297 0.411,-0.314C0.409,-0.331 0.404,-0.346 0.395,-0.36C0.385,-0.374 0.373,-0.385 0.358,-0.392C0.343,-0.4 0.324,-0.404 0.303,-0.404C0.286,-0.404 0.272,-0.402 0.26,-0.399C0.248,-0.395 0.234,-0.388 0.219,-0.378C0.204,-0.367 0.193,-0.357 0.186,-0.348C0.179,-0.339 0.175,-0.33 0.173,-0.322C0.172,-0.314 0.171,-0.297 0.171,-0.271L0.171,-0.186C0.171,-0.179 0.172,-0.156 0.173,-0.117C0.174,-0.078 0.176,-0.055 0.177,-0.049C0.178,-0.042 0.181,-0.038 0.184,-0.035C0.187,-0.032 0.19,-0.03 0.194,-0.029C0.199,-0.028 0.216,-0.027 0.247,-0.025L0.251,-0.021L0.251,-0L0.248,0.004C0.207,0.001 0.168,-0 0.13,-0C0.092,-0 0.053,0.001 0.013,0.004L0.008,-0L0.008,-0.021L0.013,-0.025C0.044,-0.027 0.062,-0.028 0.066,-0.029C0.07,-0.03 0.074,-0.032 0.077,-0.035C0.08,-0.038 0.082,-0.043 0.083,-0.05C0.084,-0.056 0.086,-0.077 0.087,-0.113C0.089,-0.148 0.089,-0.175 0.089,-0.193L0.089,-0.29C0.089,-0.303 0.089,-0.32 0.087,-0.343C0.086,-0.365 0.085,-0.379 0.084,-0.384C0.083,-0.389 0.081,-0.393 0.077,-0.396C0.072,-0.398 0.064,-0.399 0.051,-0.399L0.01,-0.4L0.006,-0.404L0.006,-0.425L0.01,-0.429C0.072,-0.436 0.124,-0.448 0.167,-0.465Z" style="fill:rgb(35,31,32);fill-rule:nonzero;"/>
        </g>
        <g transform="matrix(9,0,0,9,160.43,169.416)">
            <path d="M0.049,-0.144L0.07,-0.144L0.075,-0.139C0.075,-0.112 0.077,-0.088 0.08,-0.069C0.09,-0.054 0.107,-0.041 0.132,-0.031C0.157,-0.022 0.181,-0.017 0.205,-0.017C0.24,-0.017 0.267,-0.026 0.288,-0.045C0.309,-0.063 0.319,-0.086 0.319,-0.111C0.319,-0.125 0.315,-0.137 0.308,-0.148C0.3,-0.158 0.289,-0.166 0.274,-0.173C0.259,-0.18 0.231,-0.188 0.192,-0.197C0.159,-0.205 0.135,-0.211 0.122,-0.215C0.109,-0.219 0.096,-0.227 0.083,-0.237C0.071,-0.248 0.062,-0.26 0.055,-0.276C0.049,-0.291 0.045,-0.307 0.045,-0.326C0.045,-0.369 0.063,-0.404 0.097,-0.43C0.132,-0.457 0.175,-0.47 0.227,-0.47C0.249,-0.47 0.273,-0.467 0.298,-0.461C0.324,-0.455 0.344,-0.449 0.357,-0.443L0.361,-0.437C0.359,-0.424 0.357,-0.389 0.356,-0.334L0.352,-0.33L0.333,-0.33L0.328,-0.334C0.327,-0.354 0.325,-0.368 0.323,-0.376C0.32,-0.384 0.315,-0.392 0.305,-0.402C0.296,-0.411 0.282,-0.419 0.265,-0.425C0.248,-0.431 0.23,-0.435 0.21,-0.435C0.191,-0.435 0.174,-0.432 0.16,-0.426C0.147,-0.42 0.136,-0.411 0.128,-0.399C0.119,-0.387 0.115,-0.373 0.115,-0.356C0.115,-0.344 0.118,-0.333 0.123,-0.323C0.128,-0.313 0.136,-0.305 0.146,-0.299C0.156,-0.293 0.167,-0.289 0.179,-0.286L0.232,-0.272C0.278,-0.261 0.31,-0.252 0.33,-0.244C0.35,-0.236 0.365,-0.223 0.375,-0.207C0.386,-0.19 0.392,-0.17 0.392,-0.147C0.392,-0.102 0.373,-0.063 0.336,-0.031C0.299,0.001 0.251,0.017 0.193,0.017C0.172,0.017 0.147,0.015 0.116,0.01C0.086,0.006 0.06,0.001 0.039,-0.005L0.036,-0.011L0.041,-0.044C0.043,-0.054 0.044,-0.064 0.044,-0.074C0.044,-0.085 0.045,-0.106 0.045,-0.139L0.049,-0.144Z" style="fill:rgb(35,31,32);fill-rule:nonzero;"/>
        </g>
        <g transform="matrix(-1,0,0,1,277.065,81.4824)">
            <path d="M-2,0L0,0" style="fill:none;fill-rule:nonzero;stroke:rgb(35,31,32);stroke-width:0.75px;"/>
        </g>
        <g transform="matrix(-1,0,0,1,18.8595,81.4824)">
            <path d="M-254.203,0L0,0" style="fill:none;fill-rule:nonzero;stroke:rgb(35,31,32);stroke-width:0.75px;stroke-dasharray:4,4;"/>
        </g>
        <g transform="matrix(-1,0,0,1,14.8579,81.4824)">
            <path d="M-2,0L0,0" style="fill:none;fill-rule:nonzero;stroke:rgb(35,31,32);stroke-width:0.75px;"/>
        </g>
        <g transform="matrix(-1,0,0,1,24.7954,31.8765)">
            <path d="M-2,0L0,0" style="fill:none;fill-rule:nonzero;stroke:rgb(35,31,32);stroke-width:0.75px;"/>
        </g>
        <g transform="matrix(-1,0,0,1,18.1804,31.8765)">
            <path d="M-3.969,0L0,0" style="fill:none;fill-rule:nonzero;stroke:rgb(35,31,32);stroke-width:0.75px;stroke-dasharray:2.65,2.65;"/>
        </g>
        <g transform="matrix(-1,0,0,1,14.8579,31.8765)">
            <path d="M-2,0L0,0" style="fill:none;fill-rule:nonzero;stroke:rgb(35,31,32);stroke-width:0.75px;"/>
        </g>
        <g transform="matrix(0,-1,-1,0,214.266,78.343)">
            <path d="M-70.47,70.47L70.47,70.47" style="fill:none;fill-rule:nonzero;stroke:rgb(35,31,32);stroke-width:0.75px;stroke-dasharray:4,4;"/>
        </g>
        <g transform="matrix(0.879773,0.475393,0.475393,-0.879773,90.5087,-10.0573)">
            <path d="M-13.962,-55.209L218.304,-55.209" style="fill:none;fill-rule:nonzero;stroke:rgb(237,28,36);stroke-width:0.75px;"/>
        </g>
        <g transform="matrix(0.879793,-0.475357,-0.475357,-0.879793,90.502,173.022)">
            <path d="M-13.96,55.204L218.302,55.204" style="fill:none;fill-rule:nonzero;stroke:rgb(237,28,36);stroke-width:0.75px;"/>
        </g>
        <g transform="matrix(0,-1,-1,0,292.295,94.1744)">
            <path d="M-34.204,60.332C-8.079,34.205 34.204,34.205 60.332,60.332" style="fill:none;fill-rule:nonzero;stroke:rgb(237,28,36);stroke-width:0.75px;"/>
        </g>
        <g transform="matrix(-0.572593,0.81984,0.81984,0.572593,99.6886,83.2701)">
            <path d="M-21.443,-10.792C-16.022,-17.926 -4.036,-17.927 5.356,-10.792" style="fill:none;fill-rule:nonzero;stroke:rgb(237,28,36);stroke-width:0.75px;"/>
        </g>
        <g transform="matrix(-0.0716751,-0.997428,-0.997428,0.0716751,251.652,70.3774)">
            <path d="M-10.005,15.695C-2.888,8.767 8.327,8.768 15.067,15.695" style="fill:none;fill-rule:nonzero;stroke:rgb(0,174,239);stroke-width:0.75px;"/>
        </g>
        <g transform="matrix(1,0,0,1,237.556,37.5779)">
            <path d="M0,2.197C0,2.197 4.883,-2.099 8.633,1.098C12.383,4.296 15.133,2.567 16.383,1.056" style="fill:none;fill-rule:nonzero;stroke:rgb(237,28,36);stroke-width:0.5px;"/>
        </g>
        <g transform="matrix(1,0,0,1,98.8877,40.3895)">
            <path d="M0,19.859C0,19.859 -5.478,14.765 -3.331,9.499C-1.185,4.232 -3.594,1.219 -5.398,0" style="fill:none;fill-rule:nonzero;stroke:rgb(237,28,36);stroke-width:0.5px;"/>
        </g>
        <g transform="matrix(1,0,0,1,241.034,74.1766)">
            <path d="M0,-5.099C0,-5.099 7.426,-7.141 11.064,-2.55C14.705,2.042 18.667,1.546 20.699,0.632" style="fill:none;fill-rule:nonzero;stroke:rgb(0,174,239);stroke-width:0.5px;"/>
        </g>
        <g transform="matrix(0.964421,0.264371,0.264371,-0.964421,63.0185,30.2853)">
            <path d="M-3.769,-28.008L208.111,-28.008" style="fill:none;fill-rule:nonzero;stroke:rgb(0,174,239);stroke-width:0.75px;"/>
        </g>
        <g transform="matrix(0.964362,-0.264585,-0.264585,-0.964362,63.0374,132.7)">
            <path d="M-3.776,28.033L208.126,28.033" style="fill:none;fill-rule:nonzero;stroke:rgb(0,174,239);stroke-width:0.75px;"/>
        </g>
        <g transform="matrix(1,0,0,1,136.035,31.2979)">
            <path d="M0,0L1.5,0" style="fill:none;fill-rule:nonzero;stroke:rgb(35,31,32);stroke-width:0.75px;"/>
        </g>
        <g transform="matrix(1,0,0,1,140.371,31.2979)">
            <path d="M0,0L21.266,0" style="fill:none;fill-rule:nonzero;stroke:rgb(35,31,32);stroke-width:0.75px;stroke-dasharray:2.84,2.84;"/>
        </g>
        <g transform="matrix(1,0,0,1,163.055,31.2979)">
            <path d="M0,0L1.5,0" style="fill:none;fill-rule:nonzero;stroke:rgb(35,31,32);stroke-width:0.75px;"/>
        </g>
        <g transform="matrix(1,0,0,1,136.035,131.85)">
            <path d="M0,0L1.5,0" style="fill:none;fill-rule:nonzero;stroke:rgb(35,31,32);stroke-width:0.75px;"/>
        </g>
        <g transform="matrix(1,0,0,1,140.371,131.85)">
            <path d="M0,0L21.266,0" style="fill:none;fill-rule:nonzero;stroke:rgb(35,31,32);stroke-width:0.75px;stroke-dasharray:2.84,2.84;"/>
        </g>
        <g transform="matrix(1,0,0,1,163.055,131.85)">
            <path d="M0,0L1.5,0" style="fill:none;fill-rule:nonzero;stroke:rgb(35,31,32);stroke-width:0.75px;"/>
        </g>
        <g transform="matrix(1,0,0,1,164.859,121.547)">
            <path d="M0,-5.741C0.036,-5.866 0.036,-5.885 0.036,-5.921C0.036,-6.002 -0.019,-6.048 -0.1,-6.048C-0.225,-6.048 -1.019,-5.976 -1.199,-5.957C-1.289,-5.948 -1.389,-5.94 -1.389,-5.787C-1.389,-5.67 -1.289,-5.67 -1.145,-5.67C-0.722,-5.67 -0.722,-5.606 -0.722,-5.525C-0.722,-5.463 -0.803,-5.146 -0.849,-4.958L-1.019,-4.262C-1.109,-3.921 -1.199,-3.569 -1.28,-3.218C-1.451,-3.543 -1.73,-3.777 -2.137,-3.777C-3.182,-3.777 -4.346,-2.532 -4.346,-1.152C-4.346,-0.161 -3.715,0.307 -3.109,0.307C-2.523,0.307 -2.046,-0.179 -1.901,-0.351C-1.802,0.147 -1.352,0.307 -1.062,0.307C-0.802,0.307 -0.574,0.19 -0.379,-0.187C-0.216,-0.485 -0.09,-1.044 -0.09,-1.08C-0.09,-1.125 -0.117,-1.187 -0.207,-1.187C-0.314,-1.187 -0.323,-1.144 -0.359,-0.971C-0.558,-0.187 -0.757,0.083 -1.037,0.083C-1.262,0.083 -1.316,-0.133 -1.316,-0.331C-1.316,-0.448 -1.271,-0.701 -1.262,-0.728L0.002,-5.742L0,-5.741ZM-1.867,-0.88C-1.902,-0.736 -1.912,-0.718 -2.056,-0.538C-2.381,-0.151 -2.75,0.084 -3.084,0.084C-3.524,0.084 -3.679,-0.375 -3.679,-0.762C-3.679,-1.205 -3.416,-2.243 -3.201,-2.676C-2.912,-3.217 -2.498,-3.549 -2.137,-3.549C-1.531,-3.549 -1.397,-2.819 -1.397,-2.774C-1.397,-2.728 -1.414,-2.676 -1.425,-2.64L-1.867,-0.881" style="fill:rgb(24,22,28);fill-rule:nonzero;"/>
        </g>
        <g transform="matrix(1,0,0,1,166.682,122.522)">
            <path d="M0,-3.798C-0.059,-3.934 -0.114,-3.934 -0.245,-3.934L-1.323,-3.934L-1.323,-3.703L-1.168,-3.703C-0.691,-3.703 -0.691,-3.631 -0.691,-3.434L-0.691,-0.52C-0.691,-0.363 -0.691,-0.097 -1.322,-0.097L-1.322,0.137C-1.209,0.131 -0.822,0.113 -0.572,0.113C-0.297,0.113 0.078,0.131 0.186,0.137L0.186,-0.097C-0.445,-0.097 -0.445,-0.363 -0.445,-0.52L-0.445,-3.648L-0.439,-3.648L1.188,-0.001C1.205,0.047 1.247,0.137 1.35,0.137C1.451,0.137 1.491,0.041 1.51,-0.002L3.16,-3.703L3.166,-3.703L3.166,-0.365C3.166,-0.17 3.166,-0.098 2.689,-0.098L2.534,-0.098L2.534,0.135C2.653,0.129 3.154,0.112 3.428,0.112C3.708,0.112 4.203,0.129 4.328,0.135L4.328,-0.098L4.173,-0.098C3.696,-0.098 3.696,-0.17 3.696,-0.365L3.696,-3.435C3.696,-3.632 3.696,-3.703 4.173,-3.703L4.328,-3.703L4.328,-3.935L3.25,-3.935C3.119,-3.935 3.064,-3.935 3.005,-3.799L1.503,-0.43L0.001,-3.799" style="fill:rgb(24,22,28);fill-rule:nonzero;"/>
        </g>
        <g transform="matrix(1,0,0,1,175.548,120.171)">
            <path d="M0,0.901L-0.22,0.901C-0.292,1.623 -0.476,2.254 -1.556,2.254L-2.204,2.254C-2.496,2.254 -2.496,2.207 -2.496,2.02L-2.496,-1.084C-2.496,-1.282 -2.496,-1.353 -1.924,-1.353L-1.704,-1.353L-1.704,-1.584C-2.021,-1.562 -2.456,-1.562 -2.777,-1.562C-3.044,-1.562 -3.582,-1.58 -3.724,-1.584L-3.724,-1.353L-3.569,-1.353C-3.092,-1.353 -3.092,-1.282 -3.092,-1.084L-3.092,1.985C-3.092,2.18 -3.092,2.253 -3.569,2.253L-3.724,2.253L-3.724,2.485L-0.183,2.485L0.001,0.899" style="fill:rgb(24,22,28);fill-rule:nonzero;"/>
        </g>
        <g transform="matrix(1,0,0,1,7.7246,53.8689)">
            <path d="M0,-5.741C0.036,-5.866 0.036,-5.885 0.036,-5.921C0.036,-6.002 -0.019,-6.048 -0.1,-6.048C-0.225,-6.048 -1.019,-5.976 -1.199,-5.957C-1.289,-5.948 -1.389,-5.94 -1.389,-5.787C-1.389,-5.67 -1.289,-5.67 -1.145,-5.67C-0.722,-5.67 -0.722,-5.606 -0.722,-5.525C-0.722,-5.463 -0.803,-5.146 -0.849,-4.958L-1.019,-4.262C-1.109,-3.921 -1.199,-3.569 -1.28,-3.218C-1.451,-3.543 -1.73,-3.777 -2.137,-3.777C-3.182,-3.777 -4.346,-2.532 -4.346,-1.152C-4.346,-0.161 -3.715,0.307 -3.109,0.307C-2.523,0.307 -2.046,-0.179 -1.901,-0.351C-1.802,0.147 -1.352,0.307 -1.062,0.307C-0.802,0.307 -0.574,0.19 -0.379,-0.187C-0.216,-0.485 -0.09,-1.044 -0.09,-1.08C-0.09,-1.125 -0.117,-1.187 -0.207,-1.187C-0.314,-1.187 -0.323,-1.144 -0.359,-0.971C-0.558,-0.187 -0.757,0.083 -1.037,0.083C-1.262,0.083 -1.316,-0.133 -1.316,-0.331C-1.316,-0.448 -1.271,-0.701 -1.262,-0.728L0.002,-5.742L0,-5.741ZM-1.867,-0.88C-1.902,-0.736 -1.912,-0.718 -2.056,-0.538C-2.381,-0.151 -2.75,0.084 -3.084,0.084C-3.524,0.084 -3.679,-0.375 -3.679,-0.762C-3.679,-1.205 -3.416,-2.243 -3.201,-2.676C-2.912,-3.217 -2.498,-3.549 -2.137,-3.549C-1.531,-3.549 -1.397,-2.819 -1.397,-2.774C-1.397,-2.728 -1.414,-2.676 -1.425,-2.64L-1.867,-0.881" style="fill:rgb(24,22,28);fill-rule:nonzero;"/>
        </g>
        <g transform="matrix(1,0,0,1,9.5469,54.8439)">
            <path d="M0,-3.798C-0.059,-3.934 -0.114,-3.934 -0.245,-3.934L-1.323,-3.934L-1.323,-3.703L-1.168,-3.703C-0.691,-3.703 -0.691,-3.631 -0.691,-3.434L-0.691,-0.52C-0.691,-0.363 -0.691,-0.097 -1.322,-0.097L-1.322,0.137C-1.209,0.131 -0.822,0.113 -0.572,0.113C-0.297,0.113 0.078,0.131 0.186,0.137L0.186,-0.097C-0.445,-0.097 -0.445,-0.363 -0.445,-0.52L-0.445,-3.648L-0.439,-3.648L1.188,-0.001C1.205,0.047 1.247,0.137 1.35,0.137C1.451,0.137 1.491,0.041 1.51,-0.002L3.16,-3.703L3.166,-3.703L3.166,-0.365C3.166,-0.17 3.166,-0.098 2.689,-0.098L2.534,-0.098L2.534,0.135C2.653,0.129 3.154,0.112 3.428,0.112C3.708,0.112 4.203,0.129 4.328,0.135L4.328,-0.098L4.173,-0.098C3.696,-0.098 3.696,-0.17 3.696,-0.365L3.696,-3.435C3.696,-3.632 3.696,-3.703 4.173,-3.703L4.328,-3.703L4.328,-3.935L3.25,-3.935C3.119,-3.935 3.064,-3.935 3.005,-3.799L1.503,-0.43L0.001,-3.799" style="fill:rgb(24,22,28);fill-rule:nonzero;"/>
        </g>
        <g transform="matrix(1,0,0,1,18.4131,52.4935)">
            <path d="M0,0.901L-0.22,0.901C-0.292,1.623 -0.476,2.254 -1.556,2.254L-2.204,2.254C-2.496,2.254 -2.496,2.207 -2.496,2.02L-2.496,-1.084C-2.496,-1.282 -2.496,-1.353 -1.924,-1.353L-1.704,-1.353L-1.704,-1.584C-2.021,-1.562 -2.456,-1.562 -2.777,-1.562C-3.044,-1.562 -3.582,-1.58 -3.724,-1.584L-3.724,-1.353L-3.569,-1.353C-3.092,-1.353 -3.092,-1.282 -3.092,-1.084L-3.092,1.985C-3.092,2.18 -3.092,2.253 -3.569,2.253L-3.724,2.253L-3.724,2.485L-0.183,2.485L0.001,0.899" style="fill:rgb(24,22,28);fill-rule:nonzero;"/>
        </g>
        <g transform="matrix(1,0,0,1,3,56.8887)">
            <path d="M0,0L16,0" style="fill:none;fill-rule:nonzero;stroke:rgb(35,31,32);stroke-width:0.5px;"/>
        </g>
        <g transform="matrix(1,0,0,1,12.0786,60.0076)">
            <path d="M0,2.091L-0.265,2.091C-0.279,2.191 -0.351,2.667 -0.459,2.744C-0.509,2.788 -1.091,2.788 -1.191,2.788L-2.534,2.788L-1.615,2.04C-1.37,1.846 -0.731,1.387 -0.509,1.171C-0.292,0.957 0,0.588 0,0.08C0,-0.818 -0.811,-1.343 -1.773,-1.343C-2.7,-1.343 -3.346,-0.731 -3.346,-0.057C-3.346,0.31 -3.038,0.354 -2.958,0.354C-2.78,0.354 -2.57,0.223 -2.57,-0.034C-2.57,-0.192 -2.664,-0.423 -2.981,-0.423C-2.815,-0.79 -2.376,-1.062 -1.88,-1.062C-1.127,-1.062 -0.725,-0.5 -0.725,0.08C-0.725,0.588 -1.062,1.114 -1.565,1.573L-3.267,3.133C-3.34,3.203 -3.346,3.213 -3.346,3.434L-0.222,3.434L0,2.091" style="fill:rgb(35,31,32);fill-rule:nonzero;"/>
        </g>
        <g transform="matrix(1,0,0,1,259.032,37.0753)">
            <path d="M0,2.184C0.081,2.193 0.146,2.201 0.307,2.201C1.839,2.201 3.247,0.813 3.247,-0.612C3.247,-1.36 2.858,-1.884 2.175,-1.884C0.785,-1.884 0.183,0.163 -0.243,1.588C-1.189,1.416 -1.748,0.947 -1.748,0.28C-1.748,0.038 -1.542,-0.947 -1,-1.559C-0.919,-1.64 -0.919,-1.657 -0.919,-1.686C-0.919,-1.694 -0.919,-1.784 -1.036,-1.784C-1.325,-1.784 -2.011,-0.459 -2.011,0.38C-2.011,1.363 -1.217,1.939 -0.414,2.121C-0.595,2.679 -0.937,3.735 -0.937,3.807C-0.937,3.969 -0.793,4.068 -0.657,4.068C-0.64,4.068 -0.351,4.068 -0.278,3.735C-0.179,3.31 -0.081,2.671 0.001,2.183L0,2.184ZM0.108,1.634C0.136,1.507 0.189,1.201 0.208,1.075C0.289,0.661 0.406,-0.016 0.875,-0.611C1.182,-1.008 1.578,-1.324 2.093,-1.324C2.598,-1.324 2.968,-0.982 2.968,-0.422C2.968,0.589 1.795,1.644 0.388,1.644C0.298,1.644 0.198,1.644 0.107,1.635" style="fill:rgb(237,28,36);fill-rule:nonzero;"/>
        </g>
        <g transform="matrix(1,0,0,1,263.862,38.8082)">
            <path d="M0,-1.066L0.978,-1.066L0.978,-1.299L0,-1.299L0,-2.396L-0.222,-2.396C-0.227,-1.865 -0.482,-1.282 -1.086,-1.257L-1.086,-1.066L-0.495,-1.066L-0.495,0.525C-0.495,1.152 -0.024,1.33 0.382,1.33C0.793,1.33 1.091,1.002 1.091,0.519L1.091,0.192L0.869,0.192L0.869,0.508C0.869,0.931 0.649,1.122 0.429,1.122C0,1.122 0,0.639 0,0.525L0,-1.066" style="fill:rgb(237,28,36);fill-rule:nonzero;"/>
        </g>
        <g transform="matrix(1,0,0,1,82.79,41.2437)">
            <path d="M0,0L9.674,0" style="fill:none;fill-rule:nonzero;stroke:rgb(237,28,36);stroke-width:0.5px;"/>
        </g>
        <g transform="matrix(1,0,0,1,89.7061,44.3626)">
            <path d="M0,2.091L-0.266,2.091C-0.279,2.191 -0.352,2.667 -0.459,2.744C-0.51,2.788 -1.092,2.788 -1.191,2.788L-2.534,2.788L-1.615,2.04C-1.37,1.846 -0.731,1.387 -0.51,1.171C-0.293,0.957 0,0.588 0,0.08C0,-0.818 -0.811,-1.343 -1.773,-1.343C-2.7,-1.343 -3.346,-0.731 -3.346,-0.057C-3.346,0.31 -3.038,0.354 -2.958,0.354C-2.78,0.354 -2.57,0.223 -2.57,-0.034C-2.57,-0.192 -2.664,-0.423 -2.981,-0.423C-2.815,-0.79 -2.377,-1.062 -1.881,-1.062C-1.128,-1.062 -0.725,-0.5 -0.725,0.08C-0.725,0.588 -1.062,1.114 -1.565,1.573L-3.268,3.133C-3.34,3.203 -3.346,3.213 -3.346,3.434L-0.223,3.434L0,2.091" style="fill:rgb(237,28,36);fill-rule:nonzero;"/>
        </g>
        <g transform="matrix(1,0,0,1,86.0029,35.2628)">
            <path d="M0,2.184C0.081,2.193 0.146,2.201 0.307,2.201C1.839,2.201 3.247,0.813 3.247,-0.612C3.247,-1.36 2.858,-1.884 2.175,-1.884C0.785,-1.884 0.183,0.163 -0.243,1.588C-1.189,1.416 -1.748,0.947 -1.748,0.28C-1.748,0.038 -1.542,-0.947 -1,-1.559C-0.919,-1.64 -0.919,-1.657 -0.919,-1.686C-0.919,-1.694 -0.919,-1.784 -1.036,-1.784C-1.325,-1.784 -2.011,-0.459 -2.011,0.38C-2.011,1.363 -1.217,1.939 -0.414,2.121C-0.595,2.679 -0.937,3.735 -0.937,3.807C-0.937,3.969 -0.793,4.068 -0.657,4.068C-0.64,4.068 -0.351,4.068 -0.278,3.735C-0.179,3.31 -0.081,2.671 0.001,2.183L0,2.184ZM0.108,1.634C0.136,1.507 0.189,1.201 0.208,1.075C0.289,0.661 0.406,-0.016 0.875,-0.611C1.182,-1.008 1.578,-1.324 2.093,-1.324C2.598,-1.324 2.968,-0.982 2.968,-0.422C2.968,0.589 1.795,1.644 0.388,1.644C0.298,1.644 0.198,1.644 0.107,1.635" style="fill:rgb(237,28,36);fill-rule:nonzero;"/>
        </g>
        <g transform="matrix(1,0,0,1,90.833,36.9957)">
            <path d="M0,-1.066L0.978,-1.066L0.978,-1.299L0,-1.299L0,-2.396L-0.222,-2.396C-0.227,-1.865 -0.482,-1.282 -1.086,-1.257L-1.086,-1.066L-0.495,-1.066L-0.495,0.525C-0.495,1.152 -0.024,1.33 0.382,1.33C0.793,1.33 1.091,1.002 1.091,0.519L1.091,0.192L0.869,0.192L0.869,0.508C0.869,0.931 0.649,1.122 0.429,1.122C0,1.122 0,0.639 0,0.525L0,-1.066" style="fill:rgb(237,28,36);fill-rule:nonzero;"/>
        </g>
        <g transform="matrix(1,0,0,1,266.977,73.3131)">
            <path d="M0,2.183C0.081,2.193 0.146,2.201 0.307,2.201C1.839,2.201 3.247,0.812 3.247,-0.612C3.247,-1.36 2.858,-1.885 2.175,-1.885C0.785,-1.885 0.183,0.162 -0.243,1.587C-1.189,1.415 -1.748,0.947 -1.748,0.279C-1.748,0.037 -1.542,-0.948 -1,-1.56C-0.919,-1.641 -0.919,-1.658 -0.919,-1.687C-0.919,-1.694 -0.919,-1.785 -1.036,-1.785C-1.325,-1.785 -2.011,-0.46 -2.011,0.379C-2.011,1.363 -1.217,1.939 -0.414,2.121C-0.595,2.679 -0.937,3.734 -0.937,3.806C-0.937,3.968 -0.793,4.068 -0.657,4.068C-0.64,4.068 -0.351,4.068 -0.278,3.734C-0.179,3.31 -0.081,2.67 0.001,2.183L0,2.183ZM0.108,1.633C0.136,1.506 0.189,1.201 0.208,1.074C0.289,0.66 0.406,-0.016 0.875,-0.612C1.182,-1.008 1.578,-1.324 2.093,-1.324C2.598,-1.324 2.968,-0.983 2.968,-0.422C2.968,0.588 1.795,1.644 0.388,1.644C0.298,1.644 0.198,1.644 0.107,1.634" style="fill:rgb(0,174,239);fill-rule:nonzero;"/>
        </g>
        <g transform="matrix(1,0,0,1,273.696,76.1844)">
            <path d="M0,-3.994C-0.06,-4.097 -0.108,-4.125 -0.217,-4.125C-0.322,-4.125 -0.371,-4.083 -0.425,-3.994L-2.73,-0.024C-2.742,-0.007 -2.767,0.042 -2.767,0.066C-2.767,0.131 -2.713,0.131 -2.618,0.131L2.192,0.131C2.287,0.131 2.341,0.131 2.341,0.066C2.341,0.048 2.328,0.028 2.311,-0.007L-0.002,-3.995L0,-3.994ZM-0.424,-3.528L1.406,-0.382L-2.246,-0.382L-0.424,-3.528" style="fill:rgb(0,174,239);fill-rule:nonzero;"/>
        </g>
        <g transform="matrix(1,0,0,1,93.2598,8.9701)">
            <path d="M0,-2.703L0.813,-2.703C0.993,-2.703 1.083,-2.703 1.083,-2.866C1.083,-2.983 0.992,-2.983 0.821,-2.983L0.055,-2.983C0.153,-3.524 0.28,-4.264 0.397,-4.75C0.478,-5.102 0.695,-5.228 0.875,-5.228C0.93,-5.228 1.136,-5.211 1.289,-5.101C1.108,-5.065 0.848,-4.903 0.848,-4.606C0.848,-4.381 1.018,-4.281 1.19,-4.281C1.434,-4.281 1.685,-4.479 1.685,-4.822C1.685,-5.228 1.288,-5.453 0.865,-5.453C0.46,-5.453 0.054,-5.166 -0.135,-4.795C-0.333,-4.408 -0.397,-4.056 -0.587,-2.983L-1.235,-2.983C-1.407,-2.983 -1.515,-2.983 -1.515,-2.821C-1.515,-2.704 -1.417,-2.704 -1.254,-2.704L-0.64,-2.704C-0.894,-1.398 -1.209,0.407 -1.407,1.344C-1.515,1.839 -1.66,2.525 -2.093,2.525C-2.228,2.525 -2.409,2.47 -2.498,2.398C-2.273,2.362 -2.048,2.172 -2.048,1.903C-2.048,1.676 -2.218,1.578 -2.39,1.578C-2.634,1.578 -2.885,1.776 -2.885,2.119C-2.885,2.535 -2.471,2.75 -2.093,2.75C-1.173,2.75 -0.749,1.253 -0.604,0.478L-0.001,-2.705" style="fill:rgb(24,22,28);fill-rule:nonzero;"/>
        </g>
        <g transform="matrix(1,0,0,1,96.0342,10.6369)">
            <path d="M0,-3.798C-0.059,-3.934 -0.113,-3.934 -0.244,-3.934L-1.322,-3.934L-1.322,-3.703L-1.168,-3.703C-0.69,-3.703 -0.69,-3.631 -0.69,-3.434L-0.69,-0.52C-0.69,-0.364 -0.69,-0.097 -1.321,-0.097L-1.321,0.137C-1.209,0.131 -0.821,0.113 -0.571,0.113C-0.297,0.113 0.078,0.131 0.187,0.137L0.187,-0.097C-0.444,-0.097 -0.444,-0.364 -0.444,-0.52L-0.444,-3.648L-0.439,-3.648L1.188,-0.001C1.205,0.047 1.248,0.137 1.35,0.137C1.451,0.137 1.491,0.041 1.511,-0.002L3.16,-3.704L3.166,-3.704L3.166,-0.365C3.166,-0.17 3.166,-0.098 2.689,-0.098L2.534,-0.098L2.534,0.135C2.653,0.129 3.154,0.112 3.429,0.112C3.709,0.112 4.203,0.129 4.328,0.135L4.328,-0.098L4.174,-0.098C3.696,-0.098 3.696,-0.17 3.696,-0.365L3.696,-3.435C3.696,-3.632 3.696,-3.704 4.174,-3.704L4.328,-3.704L4.328,-3.935L3.25,-3.935C3.119,-3.935 3.064,-3.935 3.006,-3.799L1.504,-0.43L0.002,-3.799" style="fill:rgb(24,22,28);fill-rule:nonzero;"/>
        </g>
        <g transform="matrix(1,0,0,1,104.9,8.286)">
            <path d="M0,0.901L-0.22,0.901C-0.292,1.623 -0.476,2.254 -1.556,2.254L-2.204,2.254C-2.495,2.254 -2.495,2.207 -2.495,2.021L-2.495,-1.084C-2.495,-1.281 -2.495,-1.353 -1.924,-1.353L-1.704,-1.353L-1.704,-1.584C-2.02,-1.561 -2.456,-1.561 -2.776,-1.561C-3.044,-1.561 -3.582,-1.58 -3.724,-1.584L-3.724,-1.353L-3.568,-1.353C-3.092,-1.353 -3.092,-1.281 -3.092,-1.084L-3.092,1.986C-3.092,2.181 -3.092,2.253 -3.568,2.253L-3.724,2.253L-3.724,2.485L-0.183,2.485L0.001,0.9" style="fill:rgb(24,22,28);fill-rule:nonzero;"/>
        </g>
    </g>
</svg>
