<?xml version="1.0" encoding="UTF-8" standalone="no"?>
<!DOCTYPE svg PUBLIC "-//W3C//DTD SVG 1.1//EN" "http://www.w3.org/Graphics/SVG/1.1/DTD/svg11.dtd">
<svg width="100%" height="100%" viewBox="0 0 1182 738" version="1.1" xmlns="http://www.w3.org/2000/svg" xmlns:xlink="http://www.w3.org/1999/xlink" xml:space="preserve" xmlns:serif="http://www.serif.com/" style="fill-rule:evenodd;clip-rule:evenodd;stroke-miterlimit:10;">
    <g id="Ebene-1" serif:id="Ebene 1" transform="matrix(4.16667,0,0,4.16667,0,0)">
        <g transform="matrix(-1,0,0,1,109.733,-101.578)">
            <rect x="47.992" y="132.415" width="13.749" height="13.748" style="fill:white;stroke:rgb(35,31,32);stroke-width:0.75px;"/>
        </g>
        <g transform="matrix(-1,0,0,1,109.733,-129.075)">
            <rect x="47.992" y="146.163" width="13.749" height="13.749" style="fill:white;stroke:rgb(35,31,32);stroke-width:0.75px;"/>
        </g>
        <g transform="matrix(-1,0,0,1,109.733,-74.082)">
            <rect x="47.992" y="118.667" width="13.749" height="13.748" style="fill:none;stroke:rgb(35,31,32);stroke-width:0.75px;"/>
        </g>
        <g transform="matrix(-1,0,0,0.970388,109.733,-43.8867)">
            <rect x="47.992" y="105.332" width="13.749" height="13.749" style="fill:none;stroke:rgb(35,31,32);stroke-width:0.76px;"/>
        </g>
        <g transform="matrix(-1,0,0,1,109.733,-19.92)">
            <rect x="47.992" y="91.586" width="13.749" height="13.748" style="fill:white;stroke:rgb(35,31,32);stroke-width:0.75px;"/>
        </g>
        <g transform="matrix(-1,0,0,0.970386,109.733,9.88112)">
            <rect x="47.992" y="77.838" width="13.749" height="13.748" style="fill:white;stroke:rgb(35,31,32);stroke-width:0.76px;"/>
        </g>
        <g transform="matrix(-1,0,0,1,109.733,34.244)">
            <rect x="47.992" y="64.504" width="13.749" height="13.748" style="fill:none;stroke:rgb(35,31,32);stroke-width:0.75px;"/>
        </g>
        <g transform="matrix(-1,0,0,1,109.733,61.74)">
            <rect x="47.992" y="50.756" width="13.749" height="13.748" style="fill:white;stroke:rgb(35,31,32);stroke-width:0.75px;"/>
        </g>
        <g transform="matrix(-1,0,0,1,109.733,88.406)">
            <rect x="47.992" y="37.422" width="13.749" height="13.75" style="fill:white;stroke:rgb(35,31,32);stroke-width:0.75px;"/>
        </g>
        <g transform="matrix(0,-1,-1,0,110.628,50.9082)">
            <path d="M-3.585,-3.584C-16.686,-3.584 -27.304,-1.98 -27.304,0.001C-27.304,1.98 -16.686,3.585 -3.585,3.585C9.516,3.585 20.136,1.98 20.136,0.001C20.136,-1.98 9.516,-3.584 -3.585,-3.584" style="fill:white;fill-rule:nonzero;"/>
        </g>
        <g transform="matrix(0,-1,-1,0,110.628,50.9082)">
            <ellipse cx="-3.584" cy="0.001" rx="23.72" ry="3.584" style="fill:none;stroke:rgb(35,31,32);stroke-width:0.75px;"/>
        </g>
        <g transform="matrix(0,-1,-1,0,110.627,102.388)">
            <path d="M-3.584,-3.584C-16.685,-3.584 -27.305,-1.98 -27.305,0.001C-27.305,1.979 -16.685,3.584 -3.584,3.584C9.516,3.584 20.137,1.979 20.137,0.001C20.137,-1.98 9.516,-3.584 -3.584,-3.584" style="fill:white;fill-rule:nonzero;"/>
        </g>
        <g transform="matrix(0,-1,-1,0,110.627,102.388)">
            <ellipse cx="-3.584" cy="0" rx="23.721" ry="3.584" style="fill:none;stroke:rgb(35,31,32);stroke-width:0.75px;"/>
        </g>
        <g transform="matrix(0,-1,1,0,0,0)">
            <g transform="matrix(11.5871,0,0,11.5871,-25.7109,110.628)">
                <path d="M0.125,-0.108C0.141,-0.108 0.154,-0.102 0.166,-0.091C0.177,-0.08 0.183,-0.066 0.183,-0.049C0.183,-0.033 0.177,-0.02 0.166,-0.008C0.155,0.003 0.141,0.009 0.125,0.009C0.109,0.009 0.095,0.003 0.083,-0.008C0.072,-0.019 0.066,-0.033 0.066,-0.049C0.066,-0.066 0.072,-0.079 0.083,-0.091C0.095,-0.102 0.109,-0.108 0.125,-0.108Z" style="fill:rgb(35,31,32);fill-rule:nonzero;"/>
            </g>
            <g transform="matrix(11.5871,0,0,11.5871,-22.8141,110.628)">
                <path d="M0.125,-0.108C0.141,-0.108 0.154,-0.102 0.166,-0.091C0.177,-0.08 0.183,-0.066 0.183,-0.049C0.183,-0.033 0.177,-0.02 0.166,-0.008C0.155,0.003 0.141,0.009 0.125,0.009C0.109,0.009 0.095,0.003 0.083,-0.008C0.072,-0.019 0.066,-0.033 0.066,-0.049C0.066,-0.066 0.072,-0.079 0.083,-0.091C0.095,-0.102 0.109,-0.108 0.125,-0.108Z" style="fill:rgb(35,31,32);fill-rule:nonzero;"/>
            </g>
            <g transform="matrix(11.5871,0,0,11.5871,-19.9174,110.628)">
                <path d="M0.125,-0.108C0.141,-0.108 0.154,-0.102 0.166,-0.091C0.177,-0.08 0.183,-0.066 0.183,-0.049C0.183,-0.033 0.177,-0.02 0.166,-0.008C0.155,0.003 0.141,0.009 0.125,0.009C0.109,0.009 0.095,0.003 0.083,-0.008C0.072,-0.019 0.066,-0.033 0.066,-0.049C0.066,-0.066 0.072,-0.079 0.083,-0.091C0.095,-0.102 0.109,-0.108 0.125,-0.108Z" style="fill:rgb(35,31,32);fill-rule:nonzero;"/>
            </g>
        </g>
        <g transform="matrix(0,-1,1,0,0,0)">
            <g transform="matrix(11.5871,0,0,11.5871,-11.9802,56.1222)">
                <path d="M0.125,-0.108C0.141,-0.108 0.154,-0.102 0.166,-0.091C0.177,-0.08 0.183,-0.066 0.183,-0.049C0.183,-0.033 0.177,-0.02 0.166,-0.008C0.155,0.003 0.141,0.009 0.125,0.009C0.109,0.009 0.095,0.003 0.083,-0.008C0.072,-0.019 0.066,-0.033 0.066,-0.049C0.066,-0.066 0.072,-0.079 0.083,-0.091C0.095,-0.102 0.109,-0.108 0.125,-0.108Z" style="fill:rgb(35,31,32);fill-rule:nonzero;"/>
            </g>
            <g transform="matrix(11.5871,0,0,11.5871,-9.08341,56.1222)">
                <path d="M0.125,-0.108C0.141,-0.108 0.154,-0.102 0.166,-0.091C0.177,-0.08 0.183,-0.066 0.183,-0.049C0.183,-0.033 0.177,-0.02 0.166,-0.008C0.155,0.003 0.141,0.009 0.125,0.009C0.109,0.009 0.095,0.003 0.083,-0.008C0.072,-0.019 0.066,-0.033 0.066,-0.049C0.066,-0.066 0.072,-0.079 0.083,-0.091C0.095,-0.102 0.109,-0.108 0.125,-0.108Z" style="fill:rgb(35,31,32);fill-rule:nonzero;"/>
            </g>
            <g transform="matrix(11.5871,0,0,11.5871,-6.18664,56.1222)">
                <path d="M0.125,-0.108C0.141,-0.108 0.154,-0.102 0.166,-0.091C0.177,-0.08 0.183,-0.066 0.183,-0.049C0.183,-0.033 0.177,-0.02 0.166,-0.008C0.155,0.003 0.141,0.009 0.125,0.009C0.109,0.009 0.095,0.003 0.083,-0.008C0.072,-0.019 0.066,-0.033 0.066,-0.049C0.066,-0.066 0.072,-0.079 0.083,-0.091C0.095,-0.102 0.109,-0.108 0.125,-0.108Z" style="fill:rgb(35,31,32);fill-rule:nonzero;"/>
            </g>
        </g>
        <g transform="matrix(0,-1,1,0,0,0)">
            <g transform="matrix(11.5871,0,0,11.5871,-152.96,56.1222)">
                <path d="M0.125,-0.108C0.141,-0.108 0.154,-0.102 0.166,-0.091C0.177,-0.08 0.183,-0.066 0.183,-0.049C0.183,-0.033 0.177,-0.02 0.166,-0.008C0.155,0.003 0.141,0.009 0.125,0.009C0.109,0.009 0.095,0.003 0.083,-0.008C0.072,-0.019 0.066,-0.033 0.066,-0.049C0.066,-0.066 0.072,-0.079 0.083,-0.091C0.095,-0.102 0.109,-0.108 0.125,-0.108Z" style="fill:rgb(35,31,32);fill-rule:nonzero;"/>
            </g>
            <g transform="matrix(11.5871,0,0,11.5871,-150.064,56.1222)">
                <path d="M0.125,-0.108C0.141,-0.108 0.154,-0.102 0.166,-0.091C0.177,-0.08 0.183,-0.066 0.183,-0.049C0.183,-0.033 0.177,-0.02 0.166,-0.008C0.155,0.003 0.141,0.009 0.125,0.009C0.109,0.009 0.095,0.003 0.083,-0.008C0.072,-0.019 0.066,-0.033 0.066,-0.049C0.066,-0.066 0.072,-0.079 0.083,-0.091C0.095,-0.102 0.109,-0.108 0.125,-0.108Z" style="fill:rgb(35,31,32);fill-rule:nonzero;"/>
            </g>
            <g transform="matrix(11.5871,0,0,11.5871,-147.167,56.1222)">
                <path d="M0.125,-0.108C0.141,-0.108 0.154,-0.102 0.166,-0.091C0.177,-0.08 0.183,-0.066 0.183,-0.049C0.183,-0.033 0.177,-0.02 0.166,-0.008C0.155,0.003 0.141,0.009 0.125,0.009C0.109,0.009 0.095,0.003 0.083,-0.008C0.072,-0.019 0.066,-0.033 0.066,-0.049C0.066,-0.066 0.072,-0.079 0.083,-0.091C0.095,-0.102 0.109,-0.108 0.125,-0.108Z" style="fill:rgb(35,31,32);fill-rule:nonzero;"/>
            </g>
        </g>
        <g transform="matrix(0,-1,1,0,0,0)">
            <g transform="matrix(11.5871,0,0,11.5871,-144.734,110.628)">
                <path d="M0.125,-0.108C0.141,-0.108 0.154,-0.102 0.166,-0.091C0.177,-0.08 0.183,-0.066 0.183,-0.049C0.183,-0.033 0.177,-0.02 0.166,-0.008C0.155,0.003 0.141,0.009 0.125,0.009C0.109,0.009 0.095,0.003 0.083,-0.008C0.072,-0.019 0.066,-0.033 0.066,-0.049C0.066,-0.066 0.072,-0.079 0.083,-0.091C0.095,-0.102 0.109,-0.108 0.125,-0.108Z" style="fill:rgb(35,31,32);fill-rule:nonzero;"/>
            </g>
            <g transform="matrix(11.5871,0,0,11.5871,-141.837,110.628)">
                <path d="M0.125,-0.108C0.141,-0.108 0.154,-0.102 0.166,-0.091C0.177,-0.08 0.183,-0.066 0.183,-0.049C0.183,-0.033 0.177,-0.02 0.166,-0.008C0.155,0.003 0.141,0.009 0.125,0.009C0.109,0.009 0.095,0.003 0.083,-0.008C0.072,-0.019 0.066,-0.033 0.066,-0.049C0.066,-0.066 0.072,-0.079 0.083,-0.091C0.095,-0.102 0.109,-0.108 0.125,-0.108Z" style="fill:rgb(35,31,32);fill-rule:nonzero;"/>
            </g>
            <g transform="matrix(11.5871,0,0,11.5871,-138.94,110.628)">
                <path d="M0.125,-0.108C0.141,-0.108 0.154,-0.102 0.166,-0.091C0.177,-0.08 0.183,-0.066 0.183,-0.049C0.183,-0.033 0.177,-0.02 0.166,-0.008C0.155,0.003 0.141,0.009 0.125,0.009C0.109,0.009 0.095,0.003 0.083,-0.008C0.072,-0.019 0.066,-0.033 0.066,-0.049C0.066,-0.066 0.072,-0.079 0.083,-0.091C0.095,-0.102 0.109,-0.108 0.125,-0.108Z" style="fill:rgb(35,31,32);fill-rule:nonzero;"/>
            </g>
        </g>
        <g transform="matrix(9,0,0,9,40.8579,163.834)">
            <path d="M0.015,-0.687L0.019,-0.69C0.075,-0.687 0.113,-0.686 0.134,-0.686L0.362,-0.691C0.427,-0.691 0.481,-0.685 0.522,-0.673C0.564,-0.66 0.601,-0.639 0.634,-0.609C0.666,-0.579 0.691,-0.544 0.707,-0.504C0.724,-0.464 0.732,-0.422 0.732,-0.376C0.732,-0.333 0.725,-0.289 0.709,-0.246C0.694,-0.203 0.672,-0.165 0.644,-0.131C0.616,-0.097 0.584,-0.069 0.548,-0.048C0.512,-0.028 0.476,-0.014 0.44,-0.007C0.404,0 0.367,0.004 0.329,0.004C0.304,0.004 0.256,0.003 0.186,0.001C0.162,0 0.147,-0 0.14,-0C0.117,-0 0.09,0.001 0.058,0.004L0.054,-0L0.054,-0.016L0.058,-0.021C0.077,-0.031 0.088,-0.037 0.091,-0.039C0.094,-0.042 0.096,-0.07 0.098,-0.125C0.1,-0.179 0.101,-0.221 0.101,-0.25L0.101,-0.429L0.1,-0.54C0.1,-0.564 0.1,-0.583 0.099,-0.598C0.098,-0.614 0.097,-0.624 0.096,-0.631C0.094,-0.637 0.092,-0.642 0.09,-0.645C0.088,-0.647 0.085,-0.649 0.08,-0.651C0.075,-0.653 0.067,-0.654 0.056,-0.656L0.019,-0.659L0.015,-0.662L0.015,-0.687ZM0.195,-0.049C0.229,-0.043 0.267,-0.04 0.31,-0.04C0.386,-0.04 0.447,-0.052 0.492,-0.078C0.537,-0.103 0.571,-0.141 0.594,-0.19C0.616,-0.24 0.627,-0.296 0.627,-0.359C0.627,-0.451 0.603,-0.522 0.554,-0.573C0.505,-0.624 0.427,-0.649 0.321,-0.649C0.278,-0.649 0.236,-0.646 0.195,-0.64C0.193,-0.586 0.191,-0.526 0.191,-0.459L0.191,-0.306L0.192,-0.162C0.192,-0.134 0.193,-0.097 0.195,-0.049Z" style="fill:rgb(35,31,32);fill-rule:nonzero;"/>
        </g>
        <g transform="matrix(9,0,0,9,47.8234,163.834)">
            <path d="M0.141,-0.684C0.156,-0.684 0.169,-0.678 0.18,-0.667C0.19,-0.657 0.196,-0.644 0.196,-0.628C0.196,-0.613 0.19,-0.601 0.18,-0.59C0.169,-0.579 0.156,-0.574 0.141,-0.574C0.126,-0.574 0.113,-0.579 0.102,-0.59C0.091,-0.6 0.085,-0.613 0.085,-0.628C0.085,-0.644 0.091,-0.657 0.102,-0.667C0.113,-0.678 0.126,-0.684 0.141,-0.684ZM0.182,-0.465L0.191,-0.459C0.188,-0.416 0.186,-0.362 0.186,-0.296L0.186,-0.186C0.186,-0.179 0.187,-0.156 0.188,-0.117C0.189,-0.078 0.191,-0.055 0.192,-0.049C0.194,-0.042 0.196,-0.038 0.199,-0.035C0.202,-0.032 0.205,-0.03 0.209,-0.029C0.214,-0.028 0.231,-0.027 0.262,-0.025L0.267,-0.021L0.267,-0L0.263,0.004C0.222,0.001 0.183,-0 0.145,-0C0.108,-0 0.069,0.001 0.028,0.004L0.023,-0L0.023,-0.021L0.028,-0.025C0.059,-0.027 0.077,-0.028 0.081,-0.029C0.085,-0.03 0.089,-0.032 0.092,-0.035C0.095,-0.038 0.097,-0.043 0.098,-0.05C0.1,-0.056 0.101,-0.077 0.102,-0.113C0.104,-0.148 0.104,-0.175 0.104,-0.193L0.104,-0.29C0.104,-0.303 0.104,-0.32 0.103,-0.343C0.101,-0.365 0.1,-0.379 0.099,-0.384C0.099,-0.389 0.096,-0.393 0.092,-0.396C0.088,-0.398 0.079,-0.399 0.066,-0.399L0.025,-0.4L0.021,-0.404L0.021,-0.425L0.025,-0.429C0.087,-0.436 0.139,-0.448 0.182,-0.465Z" style="fill:rgb(35,31,32);fill-rule:nonzero;"/>
        </g>
        <g transform="matrix(9,0,0,9,50.4428,163.834)">
            <path d="M0.049,-0.144L0.07,-0.144L0.075,-0.139C0.075,-0.112 0.077,-0.088 0.08,-0.069C0.09,-0.054 0.107,-0.041 0.132,-0.031C0.157,-0.022 0.181,-0.017 0.205,-0.017C0.24,-0.017 0.267,-0.026 0.288,-0.045C0.309,-0.063 0.319,-0.086 0.319,-0.111C0.319,-0.125 0.315,-0.137 0.308,-0.148C0.3,-0.158 0.289,-0.166 0.274,-0.173C0.259,-0.18 0.231,-0.188 0.192,-0.197C0.159,-0.205 0.135,-0.211 0.122,-0.215C0.109,-0.219 0.096,-0.227 0.083,-0.237C0.071,-0.248 0.062,-0.26 0.055,-0.276C0.049,-0.291 0.045,-0.307 0.045,-0.326C0.045,-0.369 0.063,-0.404 0.097,-0.43C0.132,-0.457 0.175,-0.47 0.227,-0.47C0.249,-0.47 0.273,-0.467 0.298,-0.461C0.324,-0.455 0.344,-0.449 0.357,-0.443L0.361,-0.437C0.359,-0.424 0.357,-0.389 0.356,-0.334L0.352,-0.33L0.333,-0.33L0.328,-0.334C0.327,-0.354 0.325,-0.368 0.323,-0.376C0.32,-0.384 0.315,-0.392 0.305,-0.402C0.296,-0.411 0.282,-0.419 0.265,-0.425C0.248,-0.431 0.23,-0.435 0.21,-0.435C0.191,-0.435 0.174,-0.432 0.16,-0.426C0.147,-0.42 0.136,-0.411 0.128,-0.399C0.119,-0.387 0.115,-0.373 0.115,-0.356C0.115,-0.344 0.118,-0.333 0.123,-0.323C0.128,-0.313 0.136,-0.305 0.146,-0.299C0.156,-0.293 0.167,-0.289 0.179,-0.286L0.232,-0.272C0.278,-0.261 0.31,-0.252 0.33,-0.244C0.35,-0.236 0.365,-0.223 0.375,-0.207C0.386,-0.19 0.392,-0.17 0.392,-0.147C0.392,-0.102 0.373,-0.063 0.336,-0.031C0.299,0.001 0.251,0.017 0.193,0.017C0.172,0.017 0.147,0.015 0.116,0.01C0.086,0.006 0.06,0.001 0.039,-0.005L0.036,-0.011L0.041,-0.044C0.043,-0.054 0.044,-0.064 0.044,-0.074C0.044,-0.085 0.045,-0.106 0.045,-0.139L0.049,-0.144Z" style="fill:rgb(35,31,32);fill-rule:nonzero;"/>
        </g>
        <g transform="matrix(9,0,0,9,54.2575,163.834)">
            <path d="M0.181,-0.471L0.19,-0.465C0.187,-0.428 0.185,-0.395 0.185,-0.367C0.229,-0.407 0.26,-0.434 0.277,-0.447C0.295,-0.46 0.325,-0.466 0.367,-0.466C0.394,-0.466 0.418,-0.463 0.44,-0.455C0.462,-0.448 0.482,-0.436 0.5,-0.419C0.519,-0.402 0.534,-0.381 0.544,-0.356C0.555,-0.331 0.561,-0.302 0.561,-0.269C0.561,-0.245 0.557,-0.221 0.549,-0.197C0.542,-0.173 0.532,-0.151 0.52,-0.13C0.508,-0.11 0.498,-0.096 0.49,-0.09C0.483,-0.083 0.468,-0.073 0.445,-0.06C0.425,-0.047 0.404,-0.034 0.384,-0.02C0.37,-0.009 0.361,-0.003 0.355,-0C0.349,0.003 0.34,0.006 0.327,0.009C0.314,0.012 0.3,0.013 0.286,0.013C0.252,0.013 0.218,0.005 0.185,-0.013L0.185,0.091C0.185,0.098 0.185,0.122 0.187,0.16C0.188,0.199 0.189,0.222 0.191,0.229C0.192,0.235 0.194,0.24 0.197,0.243C0.2,0.246 0.204,0.247 0.208,0.248C0.212,0.249 0.23,0.25 0.261,0.252L0.265,0.256L0.265,0.277L0.261,0.281C0.221,0.279 0.181,0.277 0.144,0.277C0.107,0.277 0.068,0.279 0.027,0.281L0.022,0.277L0.022,0.256L0.027,0.252C0.058,0.25 0.076,0.249 0.08,0.248C0.084,0.247 0.088,0.245 0.091,0.242C0.094,0.239 0.096,0.234 0.097,0.227C0.099,0.22 0.1,0.198 0.101,0.162C0.103,0.125 0.104,0.097 0.104,0.079L0.104,-0.295C0.104,-0.312 0.103,-0.332 0.101,-0.354C0.1,-0.377 0.099,-0.389 0.098,-0.393C0.097,-0.397 0.094,-0.4 0.091,-0.402C0.087,-0.404 0.078,-0.405 0.065,-0.405L0.024,-0.406L0.02,-0.41L0.02,-0.431L0.024,-0.435C0.086,-0.442 0.138,-0.454 0.181,-0.471ZM0.185,-0.097C0.2,-0.081 0.218,-0.068 0.24,-0.057C0.262,-0.046 0.287,-0.04 0.313,-0.04C0.345,-0.04 0.373,-0.048 0.397,-0.064C0.421,-0.08 0.44,-0.103 0.454,-0.134C0.467,-0.165 0.474,-0.199 0.474,-0.236C0.474,-0.267 0.468,-0.295 0.456,-0.321C0.444,-0.347 0.426,-0.367 0.401,-0.382C0.376,-0.397 0.349,-0.405 0.321,-0.405C0.304,-0.405 0.287,-0.402 0.271,-0.396C0.255,-0.39 0.24,-0.381 0.225,-0.369C0.211,-0.357 0.201,-0.346 0.195,-0.336C0.189,-0.325 0.185,-0.316 0.185,-0.309C0.185,-0.302 0.185,-0.295 0.185,-0.286L0.185,-0.097Z" style="fill:rgb(35,31,32);fill-rule:nonzero;"/>
        </g>
        <g transform="matrix(9,0,0,9,59.6673,163.834)">
            <path d="M0.183,-0.723L0.192,-0.717C0.188,-0.68 0.187,-0.605 0.187,-0.492L0.187,-0.186C0.187,-0.179 0.187,-0.156 0.188,-0.117C0.19,-0.078 0.191,-0.055 0.193,-0.049C0.194,-0.042 0.196,-0.038 0.199,-0.035C0.202,-0.032 0.206,-0.03 0.21,-0.029C0.214,-0.028 0.232,-0.027 0.263,-0.025L0.267,-0.021L0.267,-0L0.263,0.004C0.222,0.001 0.183,-0 0.146,-0C0.108,-0 0.069,0.001 0.028,0.004L0.024,-0L0.024,-0.021L0.028,-0.025C0.06,-0.027 0.078,-0.028 0.082,-0.029C0.086,-0.03 0.089,-0.032 0.093,-0.035C0.096,-0.038 0.098,-0.043 0.099,-0.05C0.1,-0.056 0.101,-0.077 0.103,-0.113C0.104,-0.148 0.105,-0.175 0.105,-0.193L0.105,-0.446L0.103,-0.55C0.102,-0.586 0.101,-0.611 0.1,-0.625C0.099,-0.639 0.097,-0.647 0.095,-0.65C0.093,-0.653 0.09,-0.654 0.085,-0.656C0.08,-0.657 0.06,-0.658 0.026,-0.658L0.021,-0.662L0.021,-0.683L0.025,-0.687C0.088,-0.694 0.14,-0.706 0.183,-0.723Z" style="fill:rgb(35,31,32);fill-rule:nonzero;"/>
        </g>
        <g transform="matrix(9,0,0,9,62.2867,163.834)">
            <path d="M0.104,-0.331L0.084,-0.336L0.081,-0.341L0.081,-0.401C0.139,-0.444 0.195,-0.466 0.25,-0.466C0.287,-0.466 0.318,-0.459 0.343,-0.445C0.368,-0.431 0.385,-0.413 0.396,-0.392C0.408,-0.371 0.413,-0.347 0.413,-0.319L0.411,-0.221L0.411,-0.075C0.411,-0.055 0.412,-0.043 0.415,-0.039C0.418,-0.035 0.421,-0.032 0.424,-0.031C0.428,-0.029 0.435,-0.028 0.444,-0.027L0.472,-0.024L0.476,-0.02L0.476,-0L0.472,0.003C0.448,0.001 0.426,0 0.406,0C0.386,0 0.363,0.001 0.335,0.003L0.328,-0.003L0.33,-0.082L0.224,0.001C0.206,0.008 0.186,0.012 0.165,0.012C0.139,0.012 0.117,0.007 0.098,-0.002C0.079,-0.011 0.065,-0.025 0.055,-0.042C0.045,-0.058 0.04,-0.079 0.04,-0.103C0.04,-0.151 0.055,-0.188 0.085,-0.215C0.115,-0.242 0.197,-0.265 0.33,-0.284C0.33,-0.332 0.319,-0.366 0.298,-0.385C0.276,-0.405 0.248,-0.415 0.211,-0.415C0.193,-0.415 0.175,-0.412 0.16,-0.407C0.144,-0.401 0.136,-0.397 0.133,-0.393C0.131,-0.39 0.122,-0.37 0.107,-0.333L0.104,-0.331ZM0.33,-0.254C0.239,-0.239 0.182,-0.222 0.16,-0.205C0.137,-0.187 0.126,-0.16 0.126,-0.123C0.126,-0.072 0.151,-0.047 0.202,-0.047C0.245,-0.047 0.288,-0.072 0.33,-0.122L0.33,-0.254Z" style="fill:rgb(35,31,32);fill-rule:nonzero;"/>
        </g>
        <g transform="matrix(9,0,0,9,66.7869,163.834)">
            <path d="M0.022,0.265C0.033,0.238 0.041,0.213 0.047,0.19L0.059,0.19C0.075,0.207 0.092,0.216 0.11,0.216C0.133,0.216 0.154,0.204 0.171,0.181C0.188,0.158 0.212,0.108 0.243,0.029C0.231,-0.006 0.218,-0.038 0.206,-0.069L0.128,-0.262C0.12,-0.282 0.108,-0.31 0.092,-0.347C0.076,-0.384 0.066,-0.404 0.063,-0.408C0.06,-0.412 0.056,-0.415 0.051,-0.418C0.046,-0.422 0.033,-0.425 0.012,-0.428L0.008,-0.432L0.008,-0.451L0.012,-0.455C0.05,-0.453 0.088,-0.452 0.127,-0.452C0.174,-0.452 0.209,-0.453 0.234,-0.455L0.238,-0.451L0.238,-0.432L0.235,-0.428C0.231,-0.427 0.221,-0.427 0.205,-0.426C0.188,-0.424 0.178,-0.422 0.174,-0.418C0.17,-0.414 0.168,-0.409 0.168,-0.404C0.168,-0.398 0.173,-0.38 0.183,-0.35C0.193,-0.319 0.203,-0.292 0.212,-0.269L0.243,-0.193C0.263,-0.143 0.279,-0.106 0.29,-0.082L0.316,-0.139C0.325,-0.16 0.338,-0.192 0.355,-0.234L0.396,-0.337C0.406,-0.364 0.412,-0.381 0.413,-0.387C0.415,-0.394 0.416,-0.398 0.416,-0.401C0.416,-0.409 0.413,-0.413 0.408,-0.416C0.403,-0.419 0.391,-0.421 0.373,-0.423L0.353,-0.426L0.349,-0.43L0.349,-0.451L0.353,-0.455C0.38,-0.453 0.413,-0.452 0.45,-0.452C0.484,-0.452 0.512,-0.453 0.532,-0.455L0.536,-0.451L0.536,-0.43L0.532,-0.426C0.52,-0.425 0.511,-0.424 0.503,-0.421C0.496,-0.418 0.489,-0.413 0.483,-0.405C0.476,-0.398 0.465,-0.377 0.448,-0.342C0.431,-0.307 0.414,-0.271 0.397,-0.234L0.349,-0.129L0.236,0.134C0.227,0.157 0.214,0.181 0.2,0.208C0.185,0.234 0.168,0.252 0.147,0.264C0.126,0.275 0.104,0.281 0.08,0.281C0.06,0.281 0.04,0.276 0.022,0.265Z" style="fill:rgb(35,31,32);fill-rule:nonzero;"/>
        </g>
        <g>
            <g transform="matrix(9,0,0,9,90.2319,161.17)">
                <path d="M0.918,-0.688L0.923,-0.685L0.923,-0.661L0.919,-0.657C0.883,-0.656 0.861,-0.654 0.852,-0.652C0.844,-0.649 0.838,-0.645 0.834,-0.639C0.83,-0.633 0.828,-0.621 0.828,-0.604C0.827,-0.586 0.826,-0.536 0.825,-0.455L0.825,-0.229C0.825,-0.197 0.826,-0.16 0.827,-0.119C0.828,-0.078 0.83,-0.054 0.833,-0.048C0.836,-0.041 0.841,-0.036 0.85,-0.033C0.858,-0.03 0.881,-0.028 0.919,-0.027L0.923,-0.023L0.923,0L0.918,0.004C0.865,0.001 0.819,-0 0.78,-0C0.753,-0 0.708,0.001 0.644,0.004L0.639,0L0.639,-0.023L0.643,-0.027C0.679,-0.028 0.701,-0.03 0.71,-0.032C0.718,-0.035 0.724,-0.039 0.728,-0.045C0.732,-0.051 0.734,-0.063 0.734,-0.081C0.735,-0.099 0.736,-0.148 0.737,-0.229L0.737,-0.588L0.568,-0.235C0.526,-0.147 0.489,-0.064 0.458,0.014L0.438,0.014C0.42,-0.028 0.405,-0.062 0.394,-0.087L0.16,-0.572L0.16,-0.23C0.16,-0.199 0.161,-0.162 0.161,-0.12C0.162,-0.079 0.164,-0.055 0.167,-0.048C0.171,-0.042 0.176,-0.037 0.185,-0.034C0.193,-0.03 0.216,-0.028 0.254,-0.028L0.258,-0.024L0.258,-0L0.253,0.004L0.222,0.002C0.19,0.001 0.162,-0 0.139,-0C0.129,-0 0.09,0.001 0.022,0.004L0.019,-0L0.019,-0.023L0.022,-0.028C0.058,-0.028 0.08,-0.03 0.089,-0.033C0.097,-0.035 0.103,-0.04 0.107,-0.046C0.111,-0.052 0.113,-0.064 0.114,-0.081C0.114,-0.097 0.115,-0.147 0.116,-0.23L0.116,-0.454C0.116,-0.484 0.115,-0.52 0.115,-0.562C0.114,-0.605 0.112,-0.629 0.109,-0.636C0.106,-0.643 0.1,-0.648 0.092,-0.651C0.084,-0.654 0.061,-0.656 0.022,-0.657L0.019,-0.661L0.019,-0.684L0.023,-0.688C0.045,-0.687 0.076,-0.686 0.114,-0.686C0.15,-0.686 0.181,-0.687 0.208,-0.688C0.235,-0.625 0.261,-0.568 0.286,-0.517L0.471,-0.137L0.638,-0.485C0.683,-0.579 0.714,-0.647 0.729,-0.688C0.761,-0.687 0.792,-0.686 0.822,-0.686C0.849,-0.686 0.881,-0.687 0.918,-0.688Z" style="fill:rgb(35,31,32);fill-rule:nonzero;"/>
            </g>
            <g transform="matrix(9,0,0,9,98.7445,161.17)">
                <path d="M0.141,-0.684C0.156,-0.684 0.169,-0.678 0.18,-0.667C0.19,-0.657 0.196,-0.644 0.196,-0.628C0.196,-0.613 0.19,-0.601 0.18,-0.59C0.169,-0.579 0.156,-0.574 0.141,-0.574C0.126,-0.574 0.113,-0.579 0.102,-0.59C0.091,-0.6 0.085,-0.613 0.085,-0.628C0.085,-0.644 0.091,-0.657 0.102,-0.667C0.113,-0.678 0.126,-0.684 0.141,-0.684ZM0.182,-0.465L0.191,-0.459C0.188,-0.416 0.186,-0.362 0.186,-0.296L0.186,-0.186C0.186,-0.179 0.187,-0.156 0.188,-0.117C0.189,-0.078 0.191,-0.055 0.192,-0.049C0.194,-0.042 0.196,-0.038 0.199,-0.035C0.202,-0.032 0.205,-0.03 0.209,-0.029C0.214,-0.028 0.231,-0.027 0.262,-0.025L0.267,-0.021L0.267,-0L0.263,0.004C0.222,0.001 0.183,-0 0.145,-0C0.108,-0 0.069,0.001 0.028,0.004L0.023,-0L0.023,-0.021L0.028,-0.025C0.059,-0.027 0.077,-0.028 0.081,-0.029C0.085,-0.03 0.089,-0.032 0.092,-0.035C0.095,-0.038 0.097,-0.043 0.098,-0.05C0.1,-0.056 0.101,-0.077 0.102,-0.113C0.104,-0.148 0.104,-0.175 0.104,-0.193L0.104,-0.29C0.104,-0.303 0.104,-0.32 0.103,-0.343C0.101,-0.365 0.1,-0.379 0.099,-0.384C0.099,-0.389 0.096,-0.393 0.092,-0.396C0.088,-0.398 0.079,-0.399 0.066,-0.399L0.025,-0.4L0.021,-0.404L0.021,-0.425L0.025,-0.429C0.087,-0.436 0.139,-0.448 0.182,-0.465Z" style="fill:rgb(35,31,32);fill-rule:nonzero;"/>
            </g>
            <g transform="matrix(9,0,0,9,101.364,161.17)">
                <path d="M0.424,-0.052L0.404,-0.02C0.362,0.004 0.315,0.015 0.264,0.015C0.192,0.015 0.137,-0.006 0.098,-0.049C0.059,-0.091 0.039,-0.146 0.039,-0.214C0.039,-0.244 0.042,-0.272 0.049,-0.296C0.056,-0.32 0.064,-0.339 0.074,-0.355C0.085,-0.371 0.096,-0.383 0.108,-0.392C0.121,-0.401 0.142,-0.414 0.171,-0.43C0.201,-0.446 0.223,-0.457 0.238,-0.462C0.253,-0.467 0.273,-0.47 0.3,-0.47C0.35,-0.47 0.392,-0.46 0.424,-0.441C0.418,-0.404 0.413,-0.363 0.41,-0.318L0.405,-0.314L0.385,-0.314L0.381,-0.318C0.38,-0.346 0.378,-0.364 0.375,-0.374C0.373,-0.383 0.36,-0.393 0.337,-0.404C0.313,-0.415 0.288,-0.42 0.261,-0.42C0.235,-0.42 0.211,-0.414 0.19,-0.403C0.169,-0.392 0.153,-0.373 0.143,-0.348C0.132,-0.322 0.127,-0.292 0.127,-0.256C0.127,-0.226 0.131,-0.197 0.14,-0.169C0.148,-0.14 0.159,-0.117 0.173,-0.098C0.187,-0.079 0.205,-0.064 0.228,-0.053C0.251,-0.041 0.276,-0.036 0.304,-0.036C0.322,-0.036 0.339,-0.038 0.356,-0.042C0.372,-0.047 0.392,-0.055 0.414,-0.065L0.424,-0.052Z" style="fill:rgb(35,31,32);fill-rule:nonzero;"/>
            </g>
            <g transform="matrix(9,0,0,9,105.359,161.17)">
                <path d="M0.188,-0.465L0.197,-0.459C0.195,-0.44 0.193,-0.407 0.192,-0.358L0.229,-0.405C0.241,-0.42 0.252,-0.432 0.261,-0.44C0.27,-0.448 0.281,-0.455 0.293,-0.459C0.306,-0.464 0.319,-0.466 0.332,-0.466C0.346,-0.466 0.359,-0.463 0.372,-0.458L0.375,-0.451C0.37,-0.407 0.367,-0.369 0.367,-0.336L0.345,-0.336C0.332,-0.366 0.311,-0.381 0.282,-0.381C0.262,-0.381 0.244,-0.375 0.229,-0.362C0.214,-0.349 0.204,-0.333 0.199,-0.314C0.194,-0.294 0.191,-0.27 0.191,-0.24L0.191,-0.186C0.191,-0.176 0.192,-0.152 0.193,-0.114C0.195,-0.076 0.196,-0.054 0.198,-0.048C0.199,-0.042 0.201,-0.038 0.204,-0.035C0.207,-0.033 0.212,-0.031 0.217,-0.03C0.222,-0.029 0.245,-0.027 0.286,-0.025L0.291,-0.021L0.291,-0L0.286,0.004C0.243,0.001 0.198,-0 0.15,-0C0.113,-0 0.074,0.001 0.033,0.004L0.029,-0L0.029,-0.021L0.033,-0.025C0.065,-0.027 0.083,-0.028 0.087,-0.029C0.091,-0.03 0.094,-0.032 0.097,-0.035C0.101,-0.038 0.103,-0.043 0.104,-0.05C0.105,-0.056 0.106,-0.077 0.108,-0.113C0.109,-0.148 0.11,-0.175 0.11,-0.193L0.11,-0.29C0.11,-0.303 0.109,-0.32 0.108,-0.343C0.107,-0.365 0.106,-0.379 0.105,-0.384C0.104,-0.389 0.101,-0.393 0.097,-0.396C0.093,-0.398 0.084,-0.399 0.072,-0.399L0.031,-0.4L0.026,-0.404L0.026,-0.425L0.03,-0.429C0.092,-0.436 0.145,-0.448 0.188,-0.465Z" style="fill:rgb(35,31,32);fill-rule:nonzero;"/>
            </g>
            <g transform="matrix(9,0,0,9,108.915,161.17)">
                <path d="M0.033,-0.224C0.033,-0.262 0.041,-0.3 0.057,-0.336C0.073,-0.372 0.101,-0.403 0.14,-0.429C0.18,-0.455 0.227,-0.468 0.281,-0.468C0.35,-0.468 0.405,-0.447 0.448,-0.404C0.491,-0.36 0.513,-0.305 0.513,-0.237C0.513,-0.163 0.488,-0.101 0.439,-0.053C0.389,-0.005 0.33,0.019 0.26,0.019C0.215,0.019 0.174,0.007 0.138,-0.018C0.102,-0.042 0.076,-0.072 0.059,-0.108C0.042,-0.143 0.033,-0.182 0.033,-0.224ZM0.125,-0.257C0.125,-0.212 0.131,-0.171 0.143,-0.135C0.155,-0.099 0.173,-0.07 0.199,-0.048C0.224,-0.027 0.253,-0.016 0.286,-0.016C0.324,-0.016 0.356,-0.031 0.381,-0.061C0.406,-0.092 0.418,-0.138 0.418,-0.199C0.418,-0.268 0.405,-0.325 0.378,-0.369C0.351,-0.413 0.311,-0.436 0.26,-0.436C0.218,-0.436 0.185,-0.42 0.161,-0.39C0.137,-0.359 0.125,-0.315 0.125,-0.257Z" style="fill:rgb(35,31,32);fill-rule:nonzero;"/>
            </g>
            <g transform="matrix(9,0,0,9,113.828,161.17)">
                <path d="M0.183,-0.723L0.192,-0.717C0.188,-0.68 0.187,-0.605 0.187,-0.492L0.187,-0.186C0.187,-0.179 0.187,-0.156 0.188,-0.117C0.19,-0.078 0.191,-0.055 0.193,-0.049C0.194,-0.042 0.196,-0.038 0.199,-0.035C0.202,-0.032 0.206,-0.03 0.21,-0.029C0.214,-0.028 0.232,-0.027 0.263,-0.025L0.267,-0.021L0.267,-0L0.263,0.004C0.222,0.001 0.183,-0 0.146,-0C0.108,-0 0.069,0.001 0.028,0.004L0.024,-0L0.024,-0.021L0.028,-0.025C0.06,-0.027 0.078,-0.028 0.082,-0.029C0.086,-0.03 0.089,-0.032 0.093,-0.035C0.096,-0.038 0.098,-0.043 0.099,-0.05C0.1,-0.056 0.101,-0.077 0.103,-0.113C0.104,-0.148 0.105,-0.175 0.105,-0.193L0.105,-0.446L0.103,-0.55C0.102,-0.586 0.101,-0.611 0.1,-0.625C0.099,-0.639 0.097,-0.647 0.095,-0.65C0.093,-0.653 0.09,-0.654 0.085,-0.656C0.08,-0.657 0.06,-0.658 0.026,-0.658L0.021,-0.662L0.021,-0.683L0.025,-0.687C0.088,-0.694 0.14,-0.706 0.183,-0.723Z" style="fill:rgb(35,31,32);fill-rule:nonzero;"/>
            </g>
            <g transform="matrix(9,0,0,9,116.448,161.17)">
                <path d="M0.432,-0.072L0.416,-0.037C0.382,-0.015 0.352,-0.001 0.325,0.006C0.299,0.012 0.275,0.016 0.254,0.016C0.215,0.016 0.178,0.008 0.143,-0.007C0.108,-0.023 0.08,-0.049 0.058,-0.085C0.036,-0.121 0.025,-0.165 0.025,-0.217C0.025,-0.251 0.029,-0.282 0.038,-0.309C0.046,-0.337 0.055,-0.357 0.064,-0.371C0.073,-0.384 0.089,-0.399 0.111,-0.415C0.133,-0.431 0.157,-0.444 0.182,-0.454C0.206,-0.464 0.233,-0.469 0.262,-0.469C0.301,-0.469 0.335,-0.46 0.365,-0.441C0.395,-0.423 0.416,-0.399 0.428,-0.371C0.44,-0.342 0.446,-0.312 0.446,-0.279C0.446,-0.269 0.445,-0.259 0.444,-0.25L0.439,-0.245C0.417,-0.24 0.387,-0.236 0.35,-0.235C0.312,-0.233 0.287,-0.232 0.275,-0.232L0.119,-0.232C0.119,-0.165 0.136,-0.115 0.169,-0.083C0.203,-0.052 0.243,-0.036 0.292,-0.036C0.314,-0.036 0.336,-0.04 0.357,-0.047C0.378,-0.055 0.4,-0.066 0.424,-0.08L0.432,-0.072ZM0.119,-0.271C0.125,-0.271 0.147,-0.269 0.186,-0.268C0.226,-0.267 0.255,-0.266 0.273,-0.266C0.319,-0.266 0.346,-0.267 0.356,-0.269C0.356,-0.276 0.356,-0.282 0.356,-0.287C0.356,-0.337 0.346,-0.375 0.326,-0.399C0.305,-0.424 0.277,-0.436 0.242,-0.436C0.203,-0.436 0.173,-0.422 0.151,-0.395C0.129,-0.367 0.119,-0.326 0.119,-0.271Z" style="fill:rgb(35,31,32);fill-rule:nonzero;"/>
            </g>
            <g transform="matrix(9,0,0,9,120.759,161.17)">
                <path d="M0.167,-0.465L0.176,-0.459C0.174,-0.437 0.173,-0.409 0.172,-0.373C0.198,-0.395 0.223,-0.416 0.247,-0.438C0.253,-0.445 0.26,-0.449 0.266,-0.452C0.272,-0.455 0.282,-0.458 0.296,-0.461C0.31,-0.465 0.324,-0.466 0.339,-0.466C0.364,-0.466 0.388,-0.461 0.411,-0.451C0.434,-0.441 0.452,-0.429 0.464,-0.415C0.476,-0.401 0.484,-0.385 0.488,-0.366C0.493,-0.347 0.495,-0.324 0.495,-0.296L0.495,-0.21C0.495,-0.205 0.496,-0.164 0.498,-0.089C0.498,-0.058 0.502,-0.04 0.508,-0.034C0.514,-0.028 0.534,-0.025 0.568,-0.025L0.572,-0.021L0.572,-0L0.568,0.004C0.527,0.001 0.499,-0 0.484,-0C0.476,-0 0.452,0.001 0.413,0.004L0.407,-0.001C0.411,-0.044 0.414,-0.099 0.414,-0.167L0.414,-0.231C0.414,-0.269 0.413,-0.297 0.411,-0.314C0.409,-0.331 0.404,-0.346 0.395,-0.36C0.385,-0.374 0.373,-0.385 0.358,-0.392C0.343,-0.4 0.324,-0.404 0.303,-0.404C0.286,-0.404 0.272,-0.402 0.26,-0.399C0.248,-0.395 0.234,-0.388 0.219,-0.378C0.204,-0.367 0.193,-0.357 0.186,-0.348C0.179,-0.339 0.175,-0.33 0.173,-0.322C0.172,-0.314 0.171,-0.297 0.171,-0.271L0.171,-0.186C0.171,-0.179 0.172,-0.156 0.173,-0.117C0.174,-0.078 0.176,-0.055 0.177,-0.049C0.178,-0.042 0.181,-0.038 0.184,-0.035C0.187,-0.032 0.19,-0.03 0.194,-0.029C0.199,-0.028 0.216,-0.027 0.247,-0.025L0.251,-0.021L0.251,-0L0.248,0.004C0.207,0.001 0.168,-0 0.13,-0C0.092,-0 0.053,0.001 0.013,0.004L0.008,-0L0.008,-0.021L0.013,-0.025C0.044,-0.027 0.062,-0.028 0.066,-0.029C0.07,-0.03 0.074,-0.032 0.077,-0.035C0.08,-0.038 0.082,-0.043 0.083,-0.05C0.084,-0.056 0.086,-0.077 0.087,-0.113C0.089,-0.148 0.089,-0.175 0.089,-0.193L0.089,-0.29C0.089,-0.303 0.089,-0.32 0.087,-0.343C0.086,-0.365 0.085,-0.379 0.084,-0.384C0.083,-0.389 0.081,-0.393 0.077,-0.396C0.072,-0.398 0.064,-0.399 0.051,-0.399L0.01,-0.4L0.006,-0.404L0.006,-0.425L0.01,-0.429C0.072,-0.436 0.124,-0.448 0.167,-0.465Z" style="fill:rgb(35,31,32);fill-rule:nonzero;"/>
            </g>
            <g transform="matrix(9,0,0,9,125.998,161.17)">
                <path d="M0.049,-0.144L0.07,-0.144L0.075,-0.139C0.075,-0.112 0.077,-0.088 0.08,-0.069C0.09,-0.054 0.107,-0.041 0.132,-0.031C0.157,-0.022 0.181,-0.017 0.205,-0.017C0.24,-0.017 0.267,-0.026 0.288,-0.045C0.309,-0.063 0.319,-0.086 0.319,-0.111C0.319,-0.125 0.315,-0.137 0.308,-0.148C0.3,-0.158 0.289,-0.166 0.274,-0.173C0.259,-0.18 0.231,-0.188 0.192,-0.197C0.159,-0.205 0.135,-0.211 0.122,-0.215C0.109,-0.219 0.096,-0.227 0.083,-0.237C0.071,-0.248 0.062,-0.26 0.055,-0.276C0.049,-0.291 0.045,-0.307 0.045,-0.326C0.045,-0.369 0.063,-0.404 0.097,-0.43C0.132,-0.457 0.175,-0.47 0.227,-0.47C0.249,-0.47 0.273,-0.467 0.298,-0.461C0.324,-0.455 0.344,-0.449 0.357,-0.443L0.361,-0.437C0.359,-0.424 0.357,-0.389 0.356,-0.334L0.352,-0.33L0.333,-0.33L0.328,-0.334C0.327,-0.354 0.325,-0.368 0.323,-0.376C0.32,-0.384 0.315,-0.392 0.305,-0.402C0.296,-0.411 0.282,-0.419 0.265,-0.425C0.248,-0.431 0.23,-0.435 0.21,-0.435C0.191,-0.435 0.174,-0.432 0.16,-0.426C0.147,-0.42 0.136,-0.411 0.128,-0.399C0.119,-0.387 0.115,-0.373 0.115,-0.356C0.115,-0.344 0.118,-0.333 0.123,-0.323C0.128,-0.313 0.136,-0.305 0.146,-0.299C0.156,-0.293 0.167,-0.289 0.179,-0.286L0.232,-0.272C0.278,-0.261 0.31,-0.252 0.33,-0.244C0.35,-0.236 0.365,-0.223 0.375,-0.207C0.386,-0.19 0.392,-0.17 0.392,-0.147C0.392,-0.102 0.373,-0.063 0.336,-0.031C0.299,0.001 0.251,0.017 0.193,0.017C0.172,0.017 0.147,0.015 0.116,0.01C0.086,0.006 0.06,0.001 0.039,-0.005L0.036,-0.011L0.041,-0.044C0.043,-0.054 0.044,-0.064 0.044,-0.074C0.044,-0.085 0.045,-0.106 0.045,-0.139L0.049,-0.144Z" style="fill:rgb(35,31,32);fill-rule:nonzero;"/>
            </g>
            <g transform="matrix(9,0,0,9,99.4659,171.97)">
                <path d="M0.104,-0.331L0.084,-0.336L0.081,-0.341L0.081,-0.401C0.139,-0.444 0.195,-0.466 0.25,-0.466C0.287,-0.466 0.318,-0.459 0.343,-0.445C0.368,-0.431 0.385,-0.413 0.396,-0.392C0.408,-0.371 0.413,-0.347 0.413,-0.319L0.411,-0.221L0.411,-0.075C0.411,-0.055 0.412,-0.043 0.415,-0.039C0.418,-0.035 0.421,-0.032 0.424,-0.031C0.428,-0.029 0.435,-0.028 0.444,-0.027L0.472,-0.024L0.476,-0.02L0.476,-0L0.472,0.003C0.448,0.001 0.426,0 0.406,0C0.386,0 0.363,0.001 0.335,0.003L0.328,-0.003L0.33,-0.082L0.224,0.001C0.206,0.008 0.186,0.012 0.165,0.012C0.139,0.012 0.117,0.007 0.098,-0.002C0.079,-0.011 0.065,-0.025 0.055,-0.042C0.045,-0.058 0.04,-0.079 0.04,-0.103C0.04,-0.151 0.055,-0.188 0.085,-0.215C0.115,-0.242 0.197,-0.265 0.33,-0.284C0.33,-0.332 0.319,-0.366 0.298,-0.385C0.276,-0.405 0.248,-0.415 0.211,-0.415C0.193,-0.415 0.175,-0.412 0.16,-0.407C0.144,-0.401 0.136,-0.397 0.133,-0.393C0.131,-0.39 0.122,-0.37 0.107,-0.333L0.104,-0.331ZM0.33,-0.254C0.239,-0.239 0.182,-0.222 0.16,-0.205C0.137,-0.187 0.126,-0.16 0.126,-0.123C0.126,-0.072 0.151,-0.047 0.202,-0.047C0.245,-0.047 0.288,-0.072 0.33,-0.122L0.33,-0.254Z" style="fill:rgb(35,31,32);fill-rule:nonzero;"/>
            </g>
            <g transform="matrix(9,0,0,9,103.966,171.97)">
                <path d="M0.188,-0.465L0.197,-0.459C0.195,-0.44 0.193,-0.407 0.192,-0.358L0.229,-0.405C0.241,-0.42 0.252,-0.432 0.261,-0.44C0.27,-0.448 0.281,-0.455 0.293,-0.459C0.306,-0.464 0.319,-0.466 0.332,-0.466C0.346,-0.466 0.359,-0.463 0.372,-0.458L0.375,-0.451C0.37,-0.407 0.367,-0.369 0.367,-0.336L0.345,-0.336C0.332,-0.366 0.311,-0.381 0.282,-0.381C0.262,-0.381 0.244,-0.375 0.229,-0.362C0.214,-0.349 0.204,-0.333 0.199,-0.314C0.194,-0.294 0.191,-0.27 0.191,-0.24L0.191,-0.186C0.191,-0.176 0.192,-0.152 0.193,-0.114C0.195,-0.076 0.196,-0.054 0.198,-0.048C0.199,-0.042 0.201,-0.038 0.204,-0.035C0.207,-0.033 0.212,-0.031 0.217,-0.03C0.222,-0.029 0.245,-0.027 0.286,-0.025L0.291,-0.021L0.291,-0L0.286,0.004C0.243,0.001 0.198,-0 0.15,-0C0.113,-0 0.074,0.001 0.033,0.004L0.029,-0L0.029,-0.021L0.033,-0.025C0.065,-0.027 0.083,-0.028 0.087,-0.029C0.091,-0.03 0.094,-0.032 0.097,-0.035C0.101,-0.038 0.103,-0.043 0.104,-0.05C0.105,-0.056 0.106,-0.077 0.108,-0.113C0.109,-0.148 0.11,-0.175 0.11,-0.193L0.11,-0.29C0.11,-0.303 0.109,-0.32 0.108,-0.343C0.107,-0.365 0.106,-0.379 0.105,-0.384C0.104,-0.389 0.101,-0.393 0.097,-0.396C0.093,-0.398 0.084,-0.399 0.072,-0.399L0.031,-0.4L0.026,-0.404L0.026,-0.425L0.03,-0.429C0.092,-0.436 0.145,-0.448 0.188,-0.465Z" style="fill:rgb(35,31,32);fill-rule:nonzero;"/>
            </g>
            <g transform="matrix(9,0,0,9,107.521,171.97)">
                <path d="M0.188,-0.465L0.197,-0.459C0.195,-0.44 0.193,-0.407 0.192,-0.358L0.229,-0.405C0.241,-0.42 0.252,-0.432 0.261,-0.44C0.27,-0.448 0.281,-0.455 0.293,-0.459C0.306,-0.464 0.319,-0.466 0.332,-0.466C0.346,-0.466 0.359,-0.463 0.372,-0.458L0.375,-0.451C0.37,-0.407 0.367,-0.369 0.367,-0.336L0.345,-0.336C0.332,-0.366 0.311,-0.381 0.282,-0.381C0.262,-0.381 0.244,-0.375 0.229,-0.362C0.214,-0.349 0.204,-0.333 0.199,-0.314C0.194,-0.294 0.191,-0.27 0.191,-0.24L0.191,-0.186C0.191,-0.176 0.192,-0.152 0.193,-0.114C0.195,-0.076 0.196,-0.054 0.198,-0.048C0.199,-0.042 0.201,-0.038 0.204,-0.035C0.207,-0.033 0.212,-0.031 0.217,-0.03C0.222,-0.029 0.245,-0.027 0.286,-0.025L0.291,-0.021L0.291,-0L0.286,0.004C0.243,0.001 0.198,-0 0.15,-0C0.113,-0 0.074,0.001 0.033,0.004L0.029,-0L0.029,-0.021L0.033,-0.025C0.065,-0.027 0.083,-0.028 0.087,-0.029C0.091,-0.03 0.094,-0.032 0.097,-0.035C0.101,-0.038 0.103,-0.043 0.104,-0.05C0.105,-0.056 0.106,-0.077 0.108,-0.113C0.109,-0.148 0.11,-0.175 0.11,-0.193L0.11,-0.29C0.11,-0.303 0.109,-0.32 0.108,-0.343C0.107,-0.365 0.106,-0.379 0.105,-0.384C0.104,-0.389 0.101,-0.393 0.097,-0.396C0.093,-0.398 0.084,-0.399 0.072,-0.399L0.031,-0.4L0.026,-0.404L0.026,-0.425L0.03,-0.429C0.092,-0.436 0.145,-0.448 0.188,-0.465Z" style="fill:rgb(35,31,32);fill-rule:nonzero;"/>
            </g>
            <g transform="matrix(9,0,0,9,111.076,171.97)">
                <path d="M0.104,-0.331L0.084,-0.336L0.081,-0.341L0.081,-0.401C0.139,-0.444 0.195,-0.466 0.25,-0.466C0.287,-0.466 0.318,-0.459 0.343,-0.445C0.368,-0.431 0.385,-0.413 0.396,-0.392C0.408,-0.371 0.413,-0.347 0.413,-0.319L0.411,-0.221L0.411,-0.075C0.411,-0.055 0.412,-0.043 0.415,-0.039C0.418,-0.035 0.421,-0.032 0.424,-0.031C0.428,-0.029 0.435,-0.028 0.444,-0.027L0.472,-0.024L0.476,-0.02L0.476,-0L0.472,0.003C0.448,0.001 0.426,0 0.406,0C0.386,0 0.363,0.001 0.335,0.003L0.328,-0.003L0.33,-0.082L0.224,0.001C0.206,0.008 0.186,0.012 0.165,0.012C0.139,0.012 0.117,0.007 0.098,-0.002C0.079,-0.011 0.065,-0.025 0.055,-0.042C0.045,-0.058 0.04,-0.079 0.04,-0.103C0.04,-0.151 0.055,-0.188 0.085,-0.215C0.115,-0.242 0.197,-0.265 0.33,-0.284C0.33,-0.332 0.319,-0.366 0.298,-0.385C0.276,-0.405 0.248,-0.415 0.211,-0.415C0.193,-0.415 0.175,-0.412 0.16,-0.407C0.144,-0.401 0.136,-0.397 0.133,-0.393C0.131,-0.39 0.122,-0.37 0.107,-0.333L0.104,-0.331ZM0.33,-0.254C0.239,-0.239 0.182,-0.222 0.16,-0.205C0.137,-0.187 0.126,-0.16 0.126,-0.123C0.126,-0.072 0.151,-0.047 0.202,-0.047C0.245,-0.047 0.288,-0.072 0.33,-0.122L0.33,-0.254Z" style="fill:rgb(35,31,32);fill-rule:nonzero;"/>
            </g>
            <g transform="matrix(9,0,0,9,115.576,171.97)">
                <path d="M0.022,0.265C0.033,0.238 0.041,0.213 0.047,0.19L0.059,0.19C0.075,0.207 0.092,0.216 0.11,0.216C0.133,0.216 0.154,0.204 0.171,0.181C0.188,0.158 0.212,0.108 0.243,0.029C0.231,-0.006 0.218,-0.038 0.206,-0.069L0.128,-0.262C0.12,-0.282 0.108,-0.31 0.092,-0.347C0.076,-0.384 0.066,-0.404 0.063,-0.408C0.06,-0.412 0.056,-0.415 0.051,-0.418C0.046,-0.422 0.033,-0.425 0.012,-0.428L0.008,-0.432L0.008,-0.451L0.012,-0.455C0.05,-0.453 0.088,-0.452 0.127,-0.452C0.174,-0.452 0.209,-0.453 0.234,-0.455L0.238,-0.451L0.238,-0.432L0.235,-0.428C0.231,-0.427 0.221,-0.427 0.205,-0.426C0.188,-0.424 0.178,-0.422 0.174,-0.418C0.17,-0.414 0.168,-0.409 0.168,-0.404C0.168,-0.398 0.173,-0.38 0.183,-0.35C0.193,-0.319 0.203,-0.292 0.212,-0.269L0.243,-0.193C0.263,-0.143 0.279,-0.106 0.29,-0.082L0.316,-0.139C0.325,-0.16 0.338,-0.192 0.355,-0.234L0.396,-0.337C0.406,-0.364 0.412,-0.381 0.413,-0.387C0.415,-0.394 0.416,-0.398 0.416,-0.401C0.416,-0.409 0.413,-0.413 0.408,-0.416C0.403,-0.419 0.391,-0.421 0.373,-0.423L0.353,-0.426L0.349,-0.43L0.349,-0.451L0.353,-0.455C0.38,-0.453 0.413,-0.452 0.45,-0.452C0.484,-0.452 0.512,-0.453 0.532,-0.455L0.536,-0.451L0.536,-0.43L0.532,-0.426C0.52,-0.425 0.511,-0.424 0.503,-0.421C0.496,-0.418 0.489,-0.413 0.483,-0.405C0.476,-0.398 0.465,-0.377 0.448,-0.342C0.431,-0.307 0.414,-0.271 0.397,-0.234L0.349,-0.129L0.236,0.134C0.227,0.157 0.214,0.181 0.2,0.208C0.185,0.234 0.168,0.252 0.147,0.264C0.126,0.275 0.104,0.281 0.08,0.281C0.06,0.281 0.04,0.276 0.022,0.265Z" style="fill:rgb(35,31,32);fill-rule:nonzero;"/>
            </g>
        </g>
        <g transform="matrix(1,0,0,1,64.4321,13.9194)">
            <path d="M0,0L43.503,0" style="fill:none;fill-rule:nonzero;stroke:rgb(35,31,32);stroke-width:0.75px;"/>
        </g>
        <g transform="matrix(1,0,0,1,64.9795,12.0496)">
            <path d="M0,3.74L-3.238,1.87L0,0L0,3.74Z" style="fill:rgb(35,31,32);fill-rule:nonzero;"/>
        </g>
        <g transform="matrix(1,0,0,1,107.388,12.0496)">
            <path d="M0,3.74L3.238,1.87L0,0L0,3.74Z" style="fill:rgb(35,31,32);fill-rule:nonzero;"/>
        </g>
        <g transform="matrix(1,0,0,1,81.7568,9.4046)">
            <path d="M0,-2.702L0.812,-2.702C0.992,-2.702 1.082,-2.702 1.082,-2.866C1.082,-2.982 0.992,-2.982 0.82,-2.982L0.055,-2.982C0.152,-3.523 0.279,-4.264 0.396,-4.75C0.477,-5.101 0.695,-5.227 0.875,-5.227C0.93,-5.227 1.135,-5.211 1.289,-5.1C1.107,-5.064 0.848,-4.902 0.848,-4.605C0.848,-4.381 1.018,-4.28 1.189,-4.28C1.434,-4.28 1.684,-4.478 1.684,-4.821C1.684,-5.227 1.287,-5.452 0.865,-5.452C0.459,-5.452 0.053,-5.166 -0.135,-4.795C-0.334,-4.407 -0.398,-4.056 -0.588,-2.982L-1.236,-2.982C-1.408,-2.982 -1.516,-2.982 -1.516,-2.82C-1.516,-2.704 -1.418,-2.704 -1.254,-2.704L-0.641,-2.704C-0.895,-1.397 -1.209,0.407 -1.408,1.345C-1.516,1.839 -1.66,2.526 -2.094,2.526C-2.229,2.526 -2.41,2.471 -2.498,2.399C-2.273,2.362 -2.049,2.173 -2.049,1.903C-2.049,1.677 -2.219,1.578 -2.391,1.578C-2.635,1.578 -2.885,1.777 -2.885,2.119C-2.885,2.535 -2.471,2.75 -2.094,2.75C-1.174,2.75 -0.75,1.253 -0.605,0.479L-0.002,-2.704" style="fill:rgb(24,22,28);fill-rule:nonzero;"/>
        </g>
        <g transform="matrix(1,0,0,1,84.5303,11.0719)">
            <path d="M0,-3.798C-0.059,-3.934 -0.113,-3.934 -0.244,-3.934L-1.322,-3.934L-1.322,-3.703L-1.168,-3.703C-0.689,-3.703 -0.689,-3.631 -0.689,-3.434L-0.689,-0.52C-0.689,-0.363 -0.689,-0.097 -1.32,-0.097L-1.32,0.137C-1.209,0.131 -0.82,0.113 -0.57,0.113C-0.297,0.113 0.078,0.131 0.187,0.137L0.187,-0.097C-0.443,-0.097 -0.443,-0.363 -0.443,-0.52L-0.443,-3.648L-0.439,-3.648L1.189,-0.001C1.205,0.047 1.248,0.137 1.35,0.137C1.451,0.137 1.492,0.041 1.512,-0.002L3.16,-3.703L3.166,-3.703L3.166,-0.365C3.166,-0.17 3.166,-0.098 2.689,-0.098L2.535,-0.098L2.535,0.135C2.654,0.129 3.154,0.112 3.43,0.112C3.709,0.112 4.203,0.129 4.328,0.135L4.328,-0.098L4.174,-0.098C3.697,-0.098 3.697,-0.17 3.697,-0.365L3.697,-3.435C3.697,-3.632 3.697,-3.703 4.174,-3.703L4.328,-3.703L4.328,-3.935L3.25,-3.935C3.119,-3.935 3.064,-3.935 3.006,-3.799L1.504,-0.43L0.002,-3.799" style="fill:rgb(24,22,28);fill-rule:nonzero;"/>
        </g>
        <g transform="matrix(1,0,0,1,93.3975,8.7216)">
            <path d="M0,0.901L-0.221,0.901C-0.293,1.623 -0.477,2.254 -1.557,2.254L-2.205,2.254C-2.496,2.254 -2.496,2.207 -2.496,2.02L-2.496,-1.084C-2.496,-1.282 -2.496,-1.353 -1.924,-1.353L-1.705,-1.353L-1.705,-1.584C-2.02,-1.562 -2.457,-1.562 -2.777,-1.562C-3.045,-1.562 -3.582,-1.58 -3.725,-1.584L-3.725,-1.353L-3.568,-1.353C-3.092,-1.353 -3.092,-1.282 -3.092,-1.084L-3.092,1.985C-3.092,2.18 -3.092,2.253 -3.568,2.253L-3.725,2.253L-3.725,2.485L-0.184,2.485L0,0.899" style="fill:rgb(24,22,28);fill-rule:nonzero;"/>
        </g>
    </g>
</svg>
