<?xml version="1.0" encoding="UTF-8" standalone="no"?>
<!DOCTYPE svg PUBLIC "-//W3C//DTD SVG 1.1//EN" "http://www.w3.org/Graphics/SVG/1.1/DTD/svg11.dtd">
<svg width="100%" height="100%" viewBox="0 0 414 355" version="1.1" xmlns="http://www.w3.org/2000/svg" xmlns:xlink="http://www.w3.org/1999/xlink" xml:space="preserve" xmlns:serif="http://www.serif.com/" style="fill-rule:evenodd;clip-rule:evenodd;stroke-linecap:round;stroke-linejoin:round;stroke-miterlimit:1.5;">
    <g transform="matrix(1.25374,0,0,1.16471,4.8654,-22.5811)">
        <g transform="matrix(0.797614,-0,-0,0.858584,-3.88071,19.3878)">
            <path d="M136.881,47.787L128.042,36.002L119.203,47.787L136.881,47.787Z"/>
            <path d="M128.042,45.43L128.042,297.945" style="fill:none;stroke:black;stroke-width:3.93px;"/>
        </g>
    </g>
    <g transform="matrix(1,0,0,1,6.48073,-3.02994)">
        <path d="M224.687,154.739C224.687,154.739 253.2,175.563 232.056,205.358" style="fill:none;stroke:black;stroke-width:2.43px;"/>
    </g>
    <g id="klftmpexporter4x1x0xpe2008">
    </g>
    <g transform="matrix(0.286878,0,0,-0.286878,121.774,30.4523)">
        <g id="klftmpexporter4x1x0xth2008">
            <path id="path14" d="M46.281,62.844C46.672,64.234 46.672,64.438 46.672,65.125C46.672,66.922 45.281,67.813 43.797,67.813C42.797,67.813 41.219,67.219 40.313,65.734C40.125,65.234 39.328,62.156 38.922,60.359C38.234,57.781 37.531,55.094 36.938,52.422L32.469,34.531C32.078,33.047 27.797,26.094 21.25,26.094C16.172,26.094 15.094,30.469 15.094,34.141C15.094,38.703 16.781,44.875 20.156,53.609C21.734,57.688 22.141,58.781 22.141,60.766C22.141,65.234 18.953,68.906 14,68.906C4.563,68.906 0.875,54.5 0.875,53.609C0.875,52.609 1.875,52.609 2.078,52.609C3.063,52.609 3.172,52.813 3.656,54.406C6.344,63.734 10.313,66.719 13.688,66.719C14.484,66.719 16.172,66.719 16.172,63.547C16.172,61.063 15.188,58.484 14.484,56.594C10.516,46.063 8.734,40.391 8.734,35.734C8.734,26.891 14.984,23.906 20.844,23.906C24.719,23.906 28.094,25.594 30.875,28.375C29.594,23.219 28.391,18.344 24.422,13.078C21.844,9.703 18.063,6.828 13.5,6.828C12.109,6.828 7.641,7.125 5.953,11C7.531,11 8.828,11 10.219,12.188C11.219,13.078 12.203,14.375 12.203,16.266C12.203,19.344 9.516,19.734 8.531,19.734C6.25,19.734 2.969,18.141 2.969,13.281C2.969,8.313 7.344,4.641 13.5,4.641C23.734,4.641 33.953,13.672 36.734,24.906L46.281,62.844" style="fill-rule:nonzero;"/>
        </g>
    </g>
    <g id="klftmpexporter4x1x0xOW2008" transform="matrix(2.78522,-4.91274e-32,-4.91274e-32,-2.78522,165.014,123.602)">
        <g transform="matrix(1,0,0,1,-65.5861,-27.2754)">
            <g id="path18" transform="matrix(0.1,0,0,0.1,0,1.42109e-14)">
                <path d="M168.875,5.156C168.875,5.453 168.875,5.656 167.188,7.344C154.781,19.859 151.594,38.641 151.594,53.828C151.594,71.125 155.375,88.406 167.594,100.828C168.875,102.016 168.875,102.219 168.875,102.516C168.875,103.203 168.484,103.5 167.891,103.5C166.891,103.5 157.953,96.75 152.094,84.125C147.031,73.203 145.828,62.172 145.828,53.828C145.828,46.094 146.922,34.063 152.391,22.844C158.344,10.625 166.891,4.172 167.891,4.172C168.484,4.172 168.875,4.469 168.875,5.156" style="fill-rule:nonzero;"/>
            </g>
            <g id="path20" transform="matrix(0.1,0,0,0.1,0,1.42109e-14)">
                <path d="M178.469,16.875C177.672,13.5 177.484,12.813 173.109,12.813C171.906,12.813 170.828,12.813 170.828,10.922C170.828,10.125 171.313,9.734 172.109,9.734C174.797,9.734 177.672,10.031 180.453,10.031C183.734,10.031 187.109,9.734 190.297,9.734C190.781,9.734 192.078,9.734 192.078,11.719C192.078,12.813 191.094,12.813 189.688,12.813C184.734,12.813 184.734,13.5 184.734,14.391C184.734,15.594 188.906,31.781 189.594,34.266C190.891,31.391 193.672,27.906 198.734,27.906C210.266,27.906 222.672,42.406 222.672,57.016C222.672,66.344 217.016,72.906 209.469,72.906C204.5,72.906 199.734,69.328 196.453,65.453C195.453,70.828 191.188,72.906 187.516,72.906C182.938,72.906 181.047,69.031 180.156,67.25C178.375,63.875 177.078,57.906 177.078,57.609C177.078,56.609 178.078,56.609 178.266,56.609C179.266,56.609 179.359,56.719 179.953,58.906C181.656,65.953 183.641,70.719 187.219,70.719C188.906,70.719 190.297,69.922 190.297,66.156C190.297,63.875 190,62.781 189.594,61.078L178.469,16.875ZM195.953,60C196.656,62.672 199.328,65.453 201.125,66.953C204.594,70.031 207.484,70.719 209.172,70.719C213.141,70.719 215.516,67.25 215.516,61.391C215.516,55.516 212.25,44.094 210.453,40.328C207.078,33.375 202.313,30.094 198.641,30.094C192.078,30.094 190.781,38.344 190.781,38.938C190.781,39.125 190.781,39.328 191.094,40.516L195.953,60" style="fill-rule:nonzero;"/>
            </g>
            <g id="path22" transform="matrix(0.1,0,0,0.1,0,1.42109e-14)">
                <path d="M241.5,21.453C240.797,19.063 238.484,15.266 234.891,15.266C234.688,15.266 232.578,15.266 231.094,16.25C233.984,17.156 234.188,19.688 234.188,20.109C234.188,21.656 233,22.719 231.375,22.719C229.406,22.719 227.375,21.031 227.375,18.422C227.375,14.906 231.313,13.297 234.75,13.297C237.984,13.297 240.875,15.328 242.625,18.281C244.313,14.563 248.188,13.297 251,13.297C259.078,13.297 263.375,22.078 263.375,24.047C263.375,24.969 262.453,24.969 262.25,24.969C261.266,24.969 261.188,24.609 260.906,23.766C259.438,18.922 255.219,15.266 251.281,15.266C248.469,15.266 246.984,17.156 246.984,19.828C246.984,21.656 248.672,28.063 250.641,35.859C252.047,41.281 255.219,43.031 257.531,43.031C257.672,43.031 259.859,43.031 261.328,42.047C259.078,41.422 258.234,39.453 258.234,38.188C258.234,36.641 259.438,35.578 261.047,35.578C262.672,35.578 264.984,36.922 264.984,39.875C264.984,43.813 260.484,45 257.672,45C254.156,45 251.344,42.688 249.797,40.016C248.531,42.891 245.297,45 241.359,45C233.484,45 228.984,36.359 228.984,34.25C228.984,33.328 229.969,33.328 230.188,33.328C231.094,33.328 231.172,33.609 231.516,34.531C233.281,40.016 237.703,43.031 241.156,43.031C243.469,43.031 245.375,41.766 245.375,38.391C245.375,36.984 244.531,33.469 243.891,31.078L241.5,21.453" style="fill-rule:nonzero;"/>
            </g>
            <g id="path24" transform="matrix(0.1,0,0,0.1,0,1.42109e-14)">
                <path d="M295.172,29.094C295.172,35.656 292.688,39.531 288.813,39.531C285.531,39.531 283.547,37.047 283.547,34.266C283.547,31.578 285.531,29 288.813,29C290,29 291.297,29.391 292.281,30.297C292.578,30.484 292.688,30.594 292.781,30.594C292.875,30.594 292.984,30.484 292.984,29.094C292.984,21.75 289.5,15.781 286.219,12.516C285.125,11.422 285.125,11.219 285.125,10.922C285.125,10.219 285.625,9.828 286.125,9.828C287.219,9.828 295.172,17.484 295.172,29.094" style="fill-rule:nonzero;"/>
            </g>
            <g id="path26" transform="matrix(0.1,0,0,0.1,0,1.42109e-14)">
                <path d="M323.469,16.875C322.672,13.5 322.484,12.813 318.109,12.813C316.906,12.813 315.828,12.813 315.828,10.922C315.828,10.125 316.313,9.734 317.109,9.734C319.797,9.734 322.672,10.031 325.453,10.031C328.734,10.031 332.109,9.734 335.297,9.734C335.781,9.734 337.078,9.734 337.078,11.719C337.078,12.813 336.094,12.813 334.688,12.813C329.734,12.813 329.734,13.5 329.734,14.391C329.734,15.594 333.906,31.781 334.594,34.266C335.891,31.391 338.672,27.906 343.734,27.906C355.266,27.906 367.672,42.406 367.672,57.016C367.672,66.344 362.016,72.906 354.469,72.906C349.5,72.906 344.734,69.328 341.453,65.453C340.453,70.828 336.188,72.906 332.516,72.906C327.938,72.906 326.047,69.031 325.156,67.25C323.375,63.875 322.078,57.906 322.078,57.609C322.078,56.609 323.078,56.609 323.266,56.609C324.266,56.609 324.359,56.719 324.953,58.906C326.656,65.953 328.641,70.719 332.219,70.719C333.906,70.719 335.297,69.922 335.297,66.156C335.297,63.875 335,62.781 334.594,61.078L323.469,16.875ZM340.953,60C341.656,62.672 344.328,65.453 346.125,66.953C349.594,70.031 352.484,70.719 354.172,70.719C358.141,70.719 360.516,67.25 360.516,61.391C360.516,55.516 357.25,44.094 355.453,40.328C352.078,33.375 347.313,30.094 343.641,30.094C337.078,30.094 335.781,38.344 335.781,38.938C335.781,39.125 335.781,39.328 336.094,40.516L340.953,60" style="fill-rule:nonzero;"/>
            </g>
            <g id="path28" transform="matrix(0.1,0,0,0.1,0,1.42109e-14)">
                <path d="M409.094,40.5C409.375,41.484 409.375,41.625 409.375,42.047C409.375,43.453 408.25,44.297 407.047,44.297C406.281,44.297 404.938,43.953 404.172,42.609C403.953,42.188 403.391,39.938 403.047,38.531L401.563,32.703C401.141,31.016 398.969,22.156 398.75,21.375C398.688,21.375 395.594,15.266 390.109,15.266C385.328,15.266 385.328,19.828 385.328,21.094C385.328,24.891 386.938,29.328 389.047,34.734C389.891,36.984 390.25,37.828 390.25,39.031C390.25,42.406 387.359,45 383.563,45C376.469,45 373.297,35.437 373.297,34.25C373.297,33.328 374.281,33.328 374.5,33.328C375.484,33.328 375.547,33.687 375.766,34.453C377.516,40.297 380.547,43.031 383.359,43.031C384.547,43.031 385.109,42.266 385.109,40.578C385.109,38.953 384.484,37.406 384.125,36.5C380.75,27.922 380.047,25.312 380.047,22.219C380.047,21.031 380.047,17.719 382.797,15.469C384.969,13.656 387.922,13.297 389.828,13.297C392.641,13.297 395.172,14.344 397.484,16.453C396.578,12.594 395.797,9.641 392.844,6.125C390.953,3.953 388.141,1.625 384.406,1.625C383.922,1.625 380.609,1.625 379.141,3.953C382.938,4.375 382.938,7.75 382.938,7.812C382.938,10.062 380.891,10.484 380.188,10.484C378.438,10.484 376.109,9.078 376.109,5.844C376.109,2.266 379.484,-0.344 384.484,-0.344C391.578,-0.344 400.234,5.141 402.406,13.937L409.094,40.5" style="fill-rule:nonzero;"/>
            </g>
            <g id="path30" transform="matrix(0.1,0,0,0.1,0,1.42109e-14)">
                <path d="M444.703,53.828C444.703,61.578 443.609,73.609 438.156,84.828C432.188,97.047 423.656,103.5 422.656,103.5C422.063,103.5 421.656,103.109 421.656,102.516C421.656,102.219 421.656,102.016 423.547,100.219C433.281,90.391 438.953,74.594 438.953,53.828C438.953,36.844 435.266,19.359 422.953,6.844C421.656,5.656 421.656,5.453 421.656,5.156C421.656,4.563 422.063,4.172 422.656,4.172C423.656,4.172 432.594,10.922 438.453,23.531C443.516,34.469 444.703,45.484 444.703,53.828" style="fill-rule:nonzero;"/>
            </g>
            <g id="path32" transform="matrix(0.1,0,0,0.1,0,1.42109e-14)">
                <path d="M481.156,94.406L490.578,94.406C491.563,94.406 494.938,94.406 494.938,97.859C494.938,101.297 491.484,101.297 490.578,101.297L464.844,101.297C463.859,101.297 460.484,101.297 460.484,97.859C460.484,94.406 463.922,94.406 464.844,94.406L474.266,94.406L474.266,60.391C474.266,59.406 474.266,56.031 477.703,56.031C481.156,56.031 481.156,59.469 481.156,60.391L481.156,94.406" style="fill-rule:nonzero;"/>
            </g>
        </g>
        <g transform="matrix(0.364119,0.0815961,0.0718727,-0.352706,-95.429,20.9805)">
            <g transform="matrix(0.942984,0.218153,-0.192157,0.973499,107.554,-41.4547)">
                <path d="M47.099,233.035L40.44,246.177L54.92,248.89L47.099,233.035Z" style="fill:rgb(0,174,239);"/>
                <path d="M48.896,242.005C101.731,215.942 384.266,76.571 384.266,76.571" style="fill:none;stroke:rgb(0,174,239);stroke-width:3.93px;"/>
            </g>
        </g>
        <g transform="matrix(0.296415,-5.22834e-33,-5.22834e-33,-0.296415,-37.7018,24.0337)">
            <circle cx="82.565" cy="177.185" r="8.61"/>
        </g>
        <g transform="matrix(0.359038,-6.33292e-33,-6.33292e-33,-0.359038,-68.1678,39.9925)">
            <g transform="matrix(37.5,0,0,37.5,178.381,86.8413)">
                <path d="M0.018,-0.687L0.022,-0.69C0.103,-0.687 0.149,-0.686 0.162,-0.686C0.173,-0.686 0.219,-0.687 0.302,-0.69L0.306,-0.687L0.306,-0.662L0.302,-0.659C0.279,-0.658 0.262,-0.657 0.25,-0.656C0.238,-0.654 0.229,-0.652 0.223,-0.648C0.218,-0.645 0.214,-0.636 0.212,-0.623C0.21,-0.61 0.209,-0.592 0.209,-0.568L0.208,-0.456L0.208,-0.24C0.208,-0.186 0.209,-0.148 0.209,-0.127L0.212,-0.042L0.312,-0.042C0.391,-0.042 0.441,-0.043 0.46,-0.045C0.48,-0.047 0.499,-0.052 0.517,-0.06C0.521,-0.068 0.526,-0.086 0.532,-0.116C0.539,-0.145 0.543,-0.162 0.543,-0.167L0.547,-0.17L0.571,-0.17L0.575,-0.167C0.572,-0.153 0.569,-0.128 0.567,-0.091C0.564,-0.053 0.563,-0.023 0.563,-0L0.559,0.004C0.497,0.002 0.416,0.001 0.315,0.001L0.172,-0C0.14,-0 0.107,0.001 0.073,0.004L0.069,-0L0.069,-0.016L0.073,-0.021C0.093,-0.031 0.104,-0.038 0.106,-0.04C0.108,-0.042 0.11,-0.063 0.112,-0.103C0.114,-0.143 0.115,-0.191 0.115,-0.247L0.115,-0.456L0.114,-0.551C0.114,-0.588 0.113,-0.612 0.112,-0.623C0.11,-0.634 0.108,-0.641 0.105,-0.645C0.102,-0.648 0.096,-0.651 0.087,-0.653C0.078,-0.656 0.056,-0.657 0.022,-0.659L0.018,-0.662L0.018,-0.687Z" style="fill:rgb(0,174,239);fill-rule:nonzero;"/>
            </g>
            <g transform="matrix(37.5,0,0,37.5,201.287,86.8413)">
                <path d="M0.141,-0.684C0.156,-0.684 0.169,-0.678 0.18,-0.667C0.19,-0.657 0.196,-0.644 0.196,-0.628C0.196,-0.613 0.19,-0.601 0.18,-0.59C0.169,-0.579 0.156,-0.574 0.141,-0.574C0.126,-0.574 0.113,-0.579 0.102,-0.59C0.091,-0.6 0.085,-0.613 0.085,-0.628C0.085,-0.644 0.091,-0.657 0.102,-0.667C0.113,-0.678 0.126,-0.684 0.141,-0.684ZM0.182,-0.465L0.191,-0.459C0.188,-0.416 0.186,-0.362 0.186,-0.296L0.186,-0.186C0.186,-0.179 0.187,-0.156 0.188,-0.117C0.189,-0.078 0.191,-0.055 0.192,-0.049C0.194,-0.042 0.196,-0.038 0.199,-0.035C0.202,-0.032 0.205,-0.03 0.209,-0.029C0.214,-0.028 0.231,-0.027 0.262,-0.025L0.267,-0.021L0.267,-0L0.263,0.004C0.222,0.001 0.183,-0 0.145,-0C0.108,-0 0.069,0.001 0.028,0.004L0.023,-0L0.023,-0.021L0.028,-0.025C0.059,-0.027 0.077,-0.028 0.081,-0.029C0.085,-0.03 0.089,-0.032 0.092,-0.035C0.095,-0.038 0.097,-0.043 0.098,-0.05C0.1,-0.056 0.101,-0.077 0.102,-0.113C0.104,-0.148 0.104,-0.175 0.104,-0.193L0.104,-0.29C0.104,-0.303 0.104,-0.32 0.103,-0.343C0.101,-0.365 0.1,-0.379 0.099,-0.384C0.099,-0.389 0.096,-0.393 0.092,-0.396C0.088,-0.398 0.079,-0.399 0.066,-0.399L0.025,-0.4L0.021,-0.404L0.021,-0.425L0.025,-0.429C0.087,-0.436 0.139,-0.448 0.182,-0.465Z" style="fill:rgb(0,174,239);fill-rule:nonzero;"/>
            </g>
            <g transform="matrix(37.5,0,0,37.5,212.2,86.8413)">
                <path d="M0.539,-0.432L0.542,-0.423C0.529,-0.402 0.521,-0.389 0.518,-0.383L0.427,-0.383C0.436,-0.365 0.44,-0.346 0.44,-0.327C0.44,-0.304 0.435,-0.281 0.425,-0.259C0.414,-0.237 0.399,-0.219 0.38,-0.204C0.361,-0.188 0.34,-0.176 0.316,-0.167C0.292,-0.158 0.265,-0.153 0.234,-0.153L0.212,-0.153C0.193,-0.138 0.18,-0.127 0.175,-0.119C0.169,-0.112 0.167,-0.104 0.167,-0.096C0.167,-0.082 0.173,-0.072 0.186,-0.066C0.199,-0.06 0.227,-0.057 0.268,-0.057L0.377,-0.059C0.412,-0.059 0.438,-0.055 0.457,-0.046C0.475,-0.038 0.49,-0.024 0.501,-0.003C0.513,0.018 0.519,0.041 0.519,0.064C0.519,0.1 0.507,0.135 0.484,0.171C0.46,0.207 0.427,0.234 0.383,0.252C0.339,0.271 0.292,0.28 0.242,0.28C0.214,0.28 0.187,0.277 0.162,0.271C0.137,0.265 0.116,0.255 0.097,0.243C0.078,0.23 0.063,0.214 0.052,0.194C0.04,0.174 0.035,0.153 0.035,0.131C0.035,0.119 0.036,0.106 0.04,0.093C0.044,0.08 0.05,0.066 0.061,0.05L0.149,0.001C0.121,-0.008 0.103,-0.017 0.095,-0.025C0.088,-0.034 0.084,-0.044 0.084,-0.056C0.084,-0.069 0.089,-0.083 0.097,-0.1L0.175,-0.157C0.129,-0.169 0.098,-0.187 0.082,-0.211C0.066,-0.235 0.058,-0.261 0.058,-0.29C0.058,-0.316 0.063,-0.342 0.075,-0.365C0.086,-0.389 0.103,-0.409 0.126,-0.423C0.149,-0.437 0.175,-0.448 0.203,-0.457C0.232,-0.465 0.258,-0.469 0.281,-0.469C0.322,-0.469 0.361,-0.456 0.397,-0.43C0.456,-0.43 0.503,-0.43 0.539,-0.432ZM0.142,-0.318C0.142,-0.299 0.146,-0.277 0.153,-0.254C0.161,-0.232 0.174,-0.214 0.191,-0.203C0.209,-0.191 0.228,-0.185 0.25,-0.185C0.279,-0.185 0.304,-0.194 0.325,-0.213C0.346,-0.232 0.356,-0.262 0.356,-0.302C0.356,-0.336 0.347,-0.366 0.328,-0.393C0.308,-0.42 0.281,-0.434 0.246,-0.434C0.216,-0.434 0.192,-0.424 0.172,-0.405C0.152,-0.385 0.142,-0.356 0.142,-0.318ZM0.285,0.009C0.232,0.009 0.202,0.01 0.194,0.011C0.186,0.013 0.175,0.018 0.16,0.028C0.146,0.038 0.134,0.051 0.124,0.068C0.115,0.084 0.11,0.103 0.11,0.124C0.11,0.161 0.124,0.191 0.151,0.214C0.179,0.237 0.215,0.249 0.261,0.249C0.295,0.249 0.326,0.241 0.355,0.227C0.384,0.213 0.406,0.194 0.42,0.169C0.434,0.145 0.44,0.122 0.44,0.1C0.44,0.078 0.435,0.059 0.423,0.043C0.412,0.027 0.397,0.018 0.378,0.014C0.36,0.011 0.329,0.009 0.285,0.009Z" style="fill:rgb(0,174,239);fill-rule:nonzero;"/>
            </g>
            <g transform="matrix(37.5,0,0,37.5,233.056,86.8413)">
                <path d="M0.166,-0.723L0.175,-0.717C0.172,-0.68 0.17,-0.605 0.17,-0.492L0.17,-0.372C0.197,-0.394 0.223,-0.416 0.246,-0.438C0.253,-0.445 0.259,-0.449 0.266,-0.452C0.272,-0.455 0.282,-0.458 0.296,-0.461C0.309,-0.465 0.324,-0.466 0.338,-0.466C0.363,-0.466 0.387,-0.461 0.41,-0.451C0.434,-0.441 0.451,-0.429 0.463,-0.415C0.475,-0.401 0.483,-0.385 0.488,-0.366C0.492,-0.347 0.495,-0.324 0.495,-0.296L0.495,-0.21C0.495,-0.205 0.495,-0.164 0.497,-0.089C0.498,-0.058 0.502,-0.04 0.508,-0.034C0.514,-0.028 0.534,-0.025 0.568,-0.025L0.572,-0.021L0.572,-0L0.568,0.004C0.527,0.001 0.499,-0 0.484,-0C0.476,-0 0.453,0.001 0.413,0.004L0.407,-0.001C0.411,-0.044 0.413,-0.099 0.413,-0.167L0.413,-0.231C0.413,-0.269 0.412,-0.297 0.41,-0.314C0.409,-0.331 0.403,-0.346 0.394,-0.36C0.385,-0.374 0.373,-0.385 0.358,-0.392C0.343,-0.4 0.324,-0.404 0.303,-0.404C0.281,-0.404 0.262,-0.401 0.247,-0.395C0.233,-0.389 0.217,-0.379 0.202,-0.364C0.187,-0.35 0.178,-0.338 0.175,-0.328C0.171,-0.319 0.17,-0.3 0.17,-0.273L0.17,-0.186C0.17,-0.179 0.171,-0.156 0.172,-0.117C0.173,-0.078 0.175,-0.055 0.176,-0.049C0.177,-0.042 0.18,-0.038 0.183,-0.035C0.186,-0.032 0.189,-0.03 0.193,-0.029C0.198,-0.028 0.215,-0.027 0.246,-0.025L0.25,-0.021L0.25,-0L0.247,0.004C0.206,0.001 0.167,-0 0.129,-0C0.091,-0 0.052,0.001 0.012,0.004L0.007,-0L0.007,-0.021L0.012,-0.025C0.043,-0.027 0.061,-0.028 0.065,-0.029C0.069,-0.03 0.073,-0.032 0.076,-0.035C0.079,-0.038 0.081,-0.043 0.082,-0.05C0.083,-0.056 0.085,-0.077 0.086,-0.113C0.088,-0.148 0.088,-0.175 0.088,-0.193L0.088,-0.446L0.086,-0.55C0.085,-0.586 0.084,-0.611 0.083,-0.625C0.082,-0.639 0.081,-0.647 0.079,-0.65C0.077,-0.653 0.073,-0.654 0.068,-0.656C0.063,-0.657 0.044,-0.658 0.009,-0.658L0.005,-0.662L0.005,-0.683L0.009,-0.687C0.071,-0.694 0.123,-0.706 0.166,-0.723Z" style="fill:rgb(0,174,239);fill-rule:nonzero;"/>
            </g>
            <g transform="matrix(37.5,0,0,37.5,254.882,86.8413)">
                <path d="M0.022,-0.383L0.022,-0.396L0.026,-0.401C0.056,-0.412 0.081,-0.423 0.1,-0.433C0.1,-0.518 0.099,-0.567 0.097,-0.581C0.131,-0.593 0.158,-0.605 0.18,-0.619L0.191,-0.609C0.188,-0.588 0.184,-0.529 0.18,-0.43C0.196,-0.43 0.214,-0.43 0.232,-0.43C0.271,-0.43 0.298,-0.431 0.315,-0.433L0.318,-0.429L0.309,-0.388L0.305,-0.384C0.289,-0.384 0.27,-0.384 0.25,-0.384C0.232,-0.384 0.208,-0.384 0.18,-0.384L0.177,-0.185C0.177,-0.139 0.178,-0.109 0.18,-0.095C0.182,-0.081 0.188,-0.07 0.198,-0.062C0.207,-0.054 0.221,-0.05 0.24,-0.05C0.262,-0.05 0.282,-0.056 0.301,-0.067L0.313,-0.049C0.305,-0.044 0.286,-0.028 0.256,-0C0.239,0.007 0.222,0.011 0.205,0.011C0.131,0.011 0.095,-0.024 0.095,-0.095C0.095,-0.121 0.095,-0.143 0.097,-0.162C0.097,-0.167 0.097,-0.173 0.097,-0.179L0.097,-0.381L0.077,-0.381C0.063,-0.381 0.046,-0.381 0.027,-0.379L0.022,-0.383Z" style="fill:rgb(0,174,239);fill-rule:nonzero;"/>
            </g>
            <g transform="matrix(37.5,0,0,37.5,276.489,86.8413)">
                <path d="M0.188,-0.465L0.197,-0.459C0.195,-0.44 0.193,-0.407 0.192,-0.358L0.229,-0.405C0.241,-0.42 0.252,-0.432 0.261,-0.44C0.27,-0.448 0.281,-0.455 0.293,-0.459C0.306,-0.464 0.319,-0.466 0.332,-0.466C0.346,-0.466 0.359,-0.463 0.372,-0.458L0.375,-0.451C0.37,-0.407 0.367,-0.369 0.367,-0.336L0.345,-0.336C0.332,-0.366 0.311,-0.381 0.282,-0.381C0.262,-0.381 0.244,-0.375 0.229,-0.362C0.214,-0.349 0.204,-0.333 0.199,-0.314C0.194,-0.294 0.191,-0.27 0.191,-0.24L0.191,-0.186C0.191,-0.176 0.192,-0.152 0.193,-0.114C0.195,-0.076 0.196,-0.054 0.198,-0.048C0.199,-0.042 0.201,-0.038 0.204,-0.035C0.207,-0.033 0.212,-0.031 0.217,-0.03C0.222,-0.029 0.245,-0.027 0.286,-0.025L0.291,-0.021L0.291,-0L0.286,0.004C0.243,0.001 0.198,-0 0.15,-0C0.113,-0 0.074,0.001 0.033,0.004L0.029,-0L0.029,-0.021L0.033,-0.025C0.065,-0.027 0.083,-0.028 0.087,-0.029C0.091,-0.03 0.094,-0.032 0.097,-0.035C0.101,-0.038 0.103,-0.043 0.104,-0.05C0.105,-0.056 0.106,-0.077 0.108,-0.113C0.109,-0.148 0.11,-0.175 0.11,-0.193L0.11,-0.29C0.11,-0.303 0.109,-0.32 0.108,-0.343C0.107,-0.365 0.106,-0.379 0.105,-0.384C0.104,-0.389 0.101,-0.393 0.097,-0.396C0.093,-0.398 0.084,-0.399 0.072,-0.399L0.031,-0.4L0.026,-0.404L0.026,-0.425L0.03,-0.429C0.092,-0.436 0.145,-0.448 0.188,-0.465Z" style="fill:rgb(0,174,239);fill-rule:nonzero;"/>
            </g>
            <g transform="matrix(37.5,0,0,37.5,291.302,86.8413)">
                <path d="M0.104,-0.331L0.084,-0.336L0.081,-0.341L0.081,-0.401C0.139,-0.444 0.195,-0.466 0.25,-0.466C0.287,-0.466 0.318,-0.459 0.343,-0.445C0.368,-0.431 0.385,-0.413 0.396,-0.392C0.408,-0.371 0.413,-0.347 0.413,-0.319L0.411,-0.221L0.411,-0.075C0.411,-0.055 0.412,-0.043 0.415,-0.039C0.418,-0.035 0.421,-0.032 0.424,-0.031C0.428,-0.029 0.435,-0.028 0.444,-0.027L0.472,-0.024L0.476,-0.02L0.476,-0L0.472,0.003C0.448,0.001 0.426,0 0.406,0C0.386,0 0.363,0.001 0.335,0.003L0.328,-0.003L0.33,-0.082L0.224,0.001C0.206,0.008 0.186,0.012 0.165,0.012C0.139,0.012 0.117,0.007 0.098,-0.002C0.079,-0.011 0.065,-0.025 0.055,-0.042C0.045,-0.058 0.04,-0.079 0.04,-0.103C0.04,-0.151 0.055,-0.188 0.085,-0.215C0.115,-0.242 0.197,-0.265 0.33,-0.284C0.33,-0.332 0.319,-0.366 0.298,-0.385C0.276,-0.405 0.248,-0.415 0.211,-0.415C0.193,-0.415 0.175,-0.412 0.16,-0.407C0.144,-0.401 0.136,-0.397 0.133,-0.393C0.131,-0.39 0.122,-0.37 0.107,-0.333L0.104,-0.331ZM0.33,-0.254C0.239,-0.239 0.182,-0.222 0.16,-0.205C0.137,-0.187 0.126,-0.16 0.126,-0.123C0.126,-0.072 0.151,-0.047 0.202,-0.047C0.245,-0.047 0.288,-0.072 0.33,-0.122L0.33,-0.254Z" style="fill:rgb(0,174,239);fill-rule:nonzero;"/>
            </g>
            <g transform="matrix(37.5,0,0,37.5,310.052,86.8413)">
                <path d="M0.022,0.265C0.033,0.238 0.041,0.213 0.047,0.19L0.059,0.19C0.075,0.207 0.092,0.216 0.11,0.216C0.133,0.216 0.154,0.204 0.171,0.181C0.188,0.158 0.212,0.108 0.243,0.029C0.231,-0.006 0.218,-0.038 0.206,-0.069L0.128,-0.262C0.12,-0.282 0.108,-0.31 0.092,-0.347C0.076,-0.384 0.066,-0.404 0.063,-0.408C0.06,-0.412 0.056,-0.415 0.051,-0.418C0.046,-0.422 0.033,-0.425 0.012,-0.428L0.008,-0.432L0.008,-0.451L0.012,-0.455C0.05,-0.453 0.088,-0.452 0.127,-0.452C0.174,-0.452 0.209,-0.453 0.234,-0.455L0.238,-0.451L0.238,-0.432L0.235,-0.428C0.231,-0.427 0.221,-0.427 0.205,-0.426C0.188,-0.424 0.178,-0.422 0.174,-0.418C0.17,-0.414 0.168,-0.409 0.168,-0.404C0.168,-0.398 0.173,-0.38 0.183,-0.35C0.193,-0.319 0.203,-0.292 0.212,-0.269L0.243,-0.193C0.263,-0.143 0.279,-0.106 0.29,-0.082L0.316,-0.139C0.325,-0.16 0.338,-0.192 0.355,-0.234L0.396,-0.337C0.406,-0.364 0.412,-0.381 0.413,-0.387C0.415,-0.394 0.416,-0.398 0.416,-0.401C0.416,-0.409 0.413,-0.413 0.408,-0.416C0.403,-0.419 0.391,-0.421 0.373,-0.423L0.353,-0.426L0.349,-0.43L0.349,-0.451L0.353,-0.455C0.38,-0.453 0.413,-0.452 0.45,-0.452C0.484,-0.452 0.512,-0.453 0.532,-0.455L0.536,-0.451L0.536,-0.43L0.532,-0.426C0.52,-0.425 0.511,-0.424 0.503,-0.421C0.496,-0.418 0.489,-0.413 0.483,-0.405C0.476,-0.398 0.465,-0.377 0.448,-0.342C0.431,-0.307 0.414,-0.271 0.397,-0.234L0.349,-0.129L0.236,0.134C0.227,0.157 0.214,0.181 0.2,0.208C0.185,0.234 0.168,0.252 0.147,0.264C0.126,0.275 0.104,0.281 0.08,0.281C0.06,0.281 0.04,0.276 0.022,0.265Z" style="fill:rgb(0,174,239);fill-rule:nonzero;"/>
            </g>
        </g>
        <g transform="matrix(0.359038,-6.33292e-33,-6.33292e-33,-0.359038,-80.0729,-43.3722)">
            <g transform="matrix(29.1667,0,0,29.1667,178.381,80.8151)">
                <path d="M0.022,-0.21L0.022,-0.217L0.044,-0.282L0.305,-0.282L0.305,-0.275L0.282,-0.21L0.022,-0.21Z" style="fill-rule:nonzero;"/>
            </g>
            <g transform="matrix(29.1667,0,0,29.1667,188.094,80.8151)">
                <path d="M0.181,-0.471L0.19,-0.465C0.187,-0.428 0.185,-0.395 0.185,-0.367C0.229,-0.407 0.26,-0.434 0.277,-0.447C0.295,-0.46 0.325,-0.466 0.367,-0.466C0.394,-0.466 0.418,-0.463 0.44,-0.455C0.462,-0.448 0.482,-0.436 0.5,-0.419C0.519,-0.402 0.534,-0.381 0.544,-0.356C0.555,-0.331 0.561,-0.302 0.561,-0.269C0.561,-0.245 0.557,-0.221 0.549,-0.197C0.542,-0.173 0.532,-0.151 0.52,-0.13C0.508,-0.11 0.498,-0.096 0.49,-0.09C0.483,-0.083 0.468,-0.073 0.445,-0.06C0.425,-0.047 0.404,-0.034 0.384,-0.02C0.37,-0.009 0.361,-0.003 0.355,-0C0.349,0.003 0.34,0.006 0.327,0.009C0.314,0.012 0.3,0.013 0.286,0.013C0.252,0.013 0.218,0.005 0.185,-0.013L0.185,0.091C0.185,0.098 0.185,0.122 0.187,0.16C0.188,0.199 0.189,0.222 0.191,0.229C0.192,0.235 0.194,0.24 0.197,0.243C0.2,0.246 0.204,0.247 0.208,0.248C0.212,0.249 0.23,0.25 0.261,0.252L0.265,0.256L0.265,0.277L0.261,0.281C0.221,0.279 0.181,0.277 0.144,0.277C0.107,0.277 0.068,0.279 0.027,0.281L0.022,0.277L0.022,0.256L0.027,0.252C0.058,0.25 0.076,0.249 0.08,0.248C0.084,0.247 0.088,0.245 0.091,0.242C0.094,0.239 0.096,0.234 0.097,0.227C0.099,0.22 0.1,0.198 0.101,0.162C0.103,0.125 0.104,0.097 0.104,0.079L0.104,-0.295C0.104,-0.312 0.103,-0.332 0.101,-0.354C0.1,-0.377 0.099,-0.389 0.098,-0.393C0.097,-0.397 0.094,-0.4 0.091,-0.402C0.087,-0.404 0.078,-0.405 0.065,-0.405L0.024,-0.406L0.02,-0.41L0.02,-0.431L0.024,-0.435C0.086,-0.442 0.138,-0.454 0.181,-0.471ZM0.185,-0.097C0.2,-0.081 0.218,-0.068 0.24,-0.057C0.262,-0.046 0.287,-0.04 0.313,-0.04C0.345,-0.04 0.373,-0.048 0.397,-0.064C0.421,-0.08 0.44,-0.103 0.454,-0.134C0.467,-0.165 0.474,-0.199 0.474,-0.236C0.474,-0.267 0.468,-0.295 0.456,-0.321C0.444,-0.347 0.426,-0.367 0.401,-0.382C0.376,-0.397 0.349,-0.405 0.321,-0.405C0.304,-0.405 0.287,-0.402 0.271,-0.396C0.255,-0.39 0.24,-0.381 0.225,-0.369C0.211,-0.357 0.201,-0.346 0.195,-0.336C0.189,-0.325 0.185,-0.316 0.185,-0.309C0.185,-0.302 0.185,-0.295 0.185,-0.286L0.185,-0.097Z" style="fill-rule:nonzero;"/>
            </g>
            <g transform="matrix(29.1667,0,0,29.1667,205.625,80.8151)">
                <path d="M0.183,-0.723L0.192,-0.717C0.188,-0.68 0.187,-0.605 0.187,-0.492L0.187,-0.186C0.187,-0.179 0.187,-0.156 0.188,-0.117C0.19,-0.078 0.191,-0.055 0.193,-0.049C0.194,-0.042 0.196,-0.038 0.199,-0.035C0.202,-0.032 0.206,-0.03 0.21,-0.029C0.214,-0.028 0.232,-0.027 0.263,-0.025L0.267,-0.021L0.267,-0L0.263,0.004C0.222,0.001 0.183,-0 0.146,-0C0.108,-0 0.069,0.001 0.028,0.004L0.024,-0L0.024,-0.021L0.028,-0.025C0.06,-0.027 0.078,-0.028 0.082,-0.029C0.086,-0.03 0.089,-0.032 0.093,-0.035C0.096,-0.038 0.098,-0.043 0.099,-0.05C0.1,-0.056 0.101,-0.077 0.103,-0.113C0.104,-0.148 0.105,-0.175 0.105,-0.193L0.105,-0.446L0.103,-0.55C0.102,-0.586 0.101,-0.611 0.1,-0.625C0.099,-0.639 0.097,-0.647 0.095,-0.65C0.093,-0.653 0.09,-0.654 0.085,-0.656C0.08,-0.657 0.06,-0.658 0.026,-0.658L0.021,-0.662L0.021,-0.683L0.025,-0.687C0.088,-0.694 0.14,-0.706 0.183,-0.723Z" style="fill-rule:nonzero;"/>
            </g>
            <g transform="matrix(29.1667,0,0,29.1667,214.113,80.8151)">
                <path d="M0.104,-0.331L0.084,-0.336L0.081,-0.341L0.081,-0.401C0.139,-0.444 0.195,-0.466 0.25,-0.466C0.287,-0.466 0.318,-0.459 0.343,-0.445C0.368,-0.431 0.385,-0.413 0.396,-0.392C0.408,-0.371 0.413,-0.347 0.413,-0.319L0.411,-0.221L0.411,-0.075C0.411,-0.055 0.412,-0.043 0.415,-0.039C0.418,-0.035 0.421,-0.032 0.424,-0.031C0.428,-0.029 0.435,-0.028 0.444,-0.027L0.472,-0.024L0.476,-0.02L0.476,-0L0.472,0.003C0.448,0.001 0.426,0 0.406,0C0.386,0 0.363,0.001 0.335,0.003L0.328,-0.003L0.33,-0.082L0.224,0.001C0.206,0.008 0.186,0.012 0.165,0.012C0.139,0.012 0.117,0.007 0.098,-0.002C0.079,-0.011 0.065,-0.025 0.055,-0.042C0.045,-0.058 0.04,-0.079 0.04,-0.103C0.04,-0.151 0.055,-0.188 0.085,-0.215C0.115,-0.242 0.197,-0.265 0.33,-0.284C0.33,-0.332 0.319,-0.366 0.298,-0.385C0.276,-0.405 0.248,-0.415 0.211,-0.415C0.193,-0.415 0.175,-0.412 0.16,-0.407C0.144,-0.401 0.136,-0.397 0.133,-0.393C0.131,-0.39 0.122,-0.37 0.107,-0.333L0.104,-0.331ZM0.33,-0.254C0.239,-0.239 0.182,-0.222 0.16,-0.205C0.137,-0.187 0.126,-0.16 0.126,-0.123C0.126,-0.072 0.151,-0.047 0.202,-0.047C0.245,-0.047 0.288,-0.072 0.33,-0.122L0.33,-0.254Z" style="fill-rule:nonzero;"/>
            </g>
            <g transform="matrix(29.1667,0,0,29.1667,228.696,80.8151)">
                <path d="M0.167,-0.465L0.176,-0.459C0.174,-0.437 0.173,-0.409 0.172,-0.373C0.198,-0.395 0.223,-0.416 0.247,-0.438C0.253,-0.445 0.26,-0.449 0.266,-0.452C0.272,-0.455 0.282,-0.458 0.296,-0.461C0.31,-0.465 0.324,-0.466 0.339,-0.466C0.364,-0.466 0.388,-0.461 0.411,-0.451C0.434,-0.441 0.452,-0.429 0.464,-0.415C0.476,-0.401 0.484,-0.385 0.488,-0.366C0.493,-0.347 0.495,-0.324 0.495,-0.296L0.495,-0.21C0.495,-0.205 0.496,-0.164 0.498,-0.089C0.498,-0.058 0.502,-0.04 0.508,-0.034C0.514,-0.028 0.534,-0.025 0.568,-0.025L0.572,-0.021L0.572,-0L0.568,0.004C0.527,0.001 0.499,-0 0.484,-0C0.476,-0 0.452,0.001 0.413,0.004L0.407,-0.001C0.411,-0.044 0.414,-0.099 0.414,-0.167L0.414,-0.231C0.414,-0.269 0.413,-0.297 0.411,-0.314C0.409,-0.331 0.404,-0.346 0.395,-0.36C0.385,-0.374 0.373,-0.385 0.358,-0.392C0.343,-0.4 0.324,-0.404 0.303,-0.404C0.286,-0.404 0.272,-0.402 0.26,-0.399C0.248,-0.395 0.234,-0.388 0.219,-0.378C0.204,-0.367 0.193,-0.357 0.186,-0.348C0.179,-0.339 0.175,-0.33 0.173,-0.322C0.172,-0.314 0.171,-0.297 0.171,-0.271L0.171,-0.186C0.171,-0.179 0.172,-0.156 0.173,-0.117C0.174,-0.078 0.176,-0.055 0.177,-0.049C0.178,-0.042 0.181,-0.038 0.184,-0.035C0.187,-0.032 0.19,-0.03 0.194,-0.029C0.199,-0.028 0.216,-0.027 0.247,-0.025L0.251,-0.021L0.251,-0L0.248,0.004C0.207,0.001 0.168,-0 0.13,-0C0.092,-0 0.053,0.001 0.013,0.004L0.008,-0L0.008,-0.021L0.013,-0.025C0.044,-0.027 0.062,-0.028 0.066,-0.029C0.07,-0.03 0.074,-0.032 0.077,-0.035C0.08,-0.038 0.082,-0.043 0.083,-0.05C0.084,-0.056 0.086,-0.077 0.087,-0.113C0.089,-0.148 0.089,-0.175 0.089,-0.193L0.089,-0.29C0.089,-0.303 0.089,-0.32 0.087,-0.343C0.086,-0.365 0.085,-0.379 0.084,-0.384C0.083,-0.389 0.081,-0.393 0.077,-0.396C0.072,-0.398 0.064,-0.399 0.051,-0.399L0.01,-0.4L0.006,-0.404L0.006,-0.425L0.01,-0.429C0.072,-0.436 0.124,-0.448 0.167,-0.465Z" style="fill-rule:nonzero;"/>
            </g>
            <g transform="matrix(29.1667,0,0,29.1667,245.672,80.8151)">
                <path d="M0.432,-0.072L0.416,-0.037C0.382,-0.015 0.352,-0.001 0.325,0.006C0.299,0.012 0.275,0.016 0.254,0.016C0.215,0.016 0.178,0.008 0.143,-0.007C0.108,-0.023 0.08,-0.049 0.058,-0.085C0.036,-0.121 0.025,-0.165 0.025,-0.217C0.025,-0.251 0.029,-0.282 0.038,-0.309C0.046,-0.337 0.055,-0.357 0.064,-0.371C0.073,-0.384 0.089,-0.399 0.111,-0.415C0.133,-0.431 0.157,-0.444 0.182,-0.454C0.206,-0.464 0.233,-0.469 0.262,-0.469C0.301,-0.469 0.335,-0.46 0.365,-0.441C0.395,-0.423 0.416,-0.399 0.428,-0.371C0.44,-0.342 0.446,-0.312 0.446,-0.279C0.446,-0.269 0.445,-0.259 0.444,-0.25L0.439,-0.245C0.417,-0.24 0.387,-0.236 0.35,-0.235C0.312,-0.233 0.287,-0.232 0.275,-0.232L0.119,-0.232C0.119,-0.165 0.136,-0.115 0.169,-0.083C0.203,-0.052 0.243,-0.036 0.292,-0.036C0.314,-0.036 0.336,-0.04 0.357,-0.047C0.378,-0.055 0.4,-0.066 0.424,-0.08L0.432,-0.072ZM0.119,-0.271C0.125,-0.271 0.147,-0.269 0.186,-0.268C0.226,-0.267 0.255,-0.266 0.273,-0.266C0.319,-0.266 0.346,-0.267 0.356,-0.269C0.356,-0.276 0.356,-0.282 0.356,-0.287C0.356,-0.337 0.346,-0.375 0.326,-0.399C0.305,-0.424 0.277,-0.436 0.242,-0.436C0.203,-0.436 0.173,-0.422 0.151,-0.395C0.129,-0.367 0.119,-0.326 0.119,-0.271Z" style="fill-rule:nonzero;"/>
            </g>
        </g>
        <g transform="matrix(0.439148,-7.74595e-33,-6.33292e-33,-0.359038,-105.237,46.6159)">
            <path d="M193.931,209.523L351.875,209.523" style="fill:none;stroke:black;stroke-width:2.18px;stroke-linecap:square;stroke-dasharray:2.18,6.53,0,0;"/>
        </g>
    </g>
    <g transform="matrix(2.80648,0,0,-2.80648,17.3618,330.75)">
        <g id="klftmpexporter4x1x0xth20081" serif:id="klftmpexporter4x1x0xth2008">
            <g>
                <g id="path181" serif:id="path18" transform="matrix(0.1,0,0,0.1,0,0)">
                    <path d="M167.875,1.156C167.875,1.453 167.875,1.656 166.188,3.344C153.781,15.859 150.594,34.641 150.594,49.828C150.594,67.125 154.375,84.406 166.594,96.828C167.875,98.016 167.875,98.219 167.875,98.516C167.875,99.203 167.484,99.5 166.891,99.5C165.891,99.5 156.953,92.75 151.094,80.125C146.031,69.203 144.828,58.172 144.828,49.828C144.828,42.094 145.922,30.063 151.391,18.844C157.344,6.625 165.891,0.172 166.891,0.172C167.484,0.172 167.875,0.469 167.875,1.156" style="fill-rule:nonzero;"/>
                </g>
                <g id="path201" serif:id="path20" transform="matrix(0.1,0,0,0.1,0,0)">
                    <path d="M206.172,55C206.781,57.578 209.063,66.719 216.016,66.719C216.516,66.719 218.891,66.719 220.984,65.438C218.203,64.938 216.219,62.453 216.219,60.063C216.219,58.484 217.297,56.594 219.984,56.594C222.172,56.594 225.344,58.375 225.344,62.344C225.344,67.516 219.484,68.906 216.109,68.906C210.344,68.906 206.875,63.641 205.688,61.359C203.203,67.906 197.828,68.906 194.953,68.906C184.625,68.906 178.953,56.094 178.953,53.609C178.953,52.609 179.953,52.609 180.156,52.609C180.953,52.609 181.25,52.813 181.438,53.703C184.828,64.234 191.375,66.719 194.75,66.719C196.641,66.719 200.125,65.828 200.125,60.063C200.125,56.984 198.438,50.328 194.75,36.422C193.172,30.266 189.688,26.094 185.313,26.094C184.719,26.094 182.438,26.094 180.344,27.391C182.828,27.875 185.016,29.969 185.016,32.75C185.016,35.438 182.828,36.219 181.344,36.219C178.359,36.219 175.875,33.641 175.875,30.469C175.875,25.891 180.844,23.906 185.219,23.906C191.781,23.906 195.344,30.859 195.656,31.453C196.844,27.781 200.422,23.906 206.375,23.906C216.609,23.906 222.266,36.719 222.266,39.203C222.266,40.203 221.375,40.203 221.078,40.203C220.188,40.203 219.984,39.797 219.781,39.109C216.516,28.484 209.75,26.094 206.578,26.094C202.703,26.094 201.109,29.266 201.109,32.656C201.109,34.828 201.703,37.016 202.797,41.391L206.172,55" style="fill-rule:nonzero;"/>
                </g>
                <g id="path221" serif:id="path22" transform="matrix(0.1,0,0,0.1,0,0)">
                    <path d="M249.172,25.094C249.172,31.656 246.688,35.531 242.813,35.531C239.531,35.531 237.547,33.047 237.547,30.266C237.547,27.578 239.531,25 242.813,25C244,25 245.297,25.391 246.281,26.297C246.578,26.484 246.688,26.594 246.781,26.594C246.875,26.594 246.984,26.484 246.984,25.094C246.984,17.75 243.5,11.781 240.219,8.516C239.125,7.422 239.125,7.219 239.125,6.922C239.125,6.219 239.625,5.828 240.125,5.828C241.219,5.828 249.172,13.484 249.172,25.094" style="fill-rule:nonzero;"/>
                </g>
                <g id="path241" serif:id="path24" transform="matrix(0.1,0,0,0.1,0,0)">
                    <path d="M322.281,62.844C322.672,64.234 322.672,64.438 322.672,65.125C322.672,66.922 321.281,67.813 319.797,67.813C318.797,67.813 317.219,67.219 316.313,65.734C316.125,65.234 315.328,62.156 314.922,60.359C314.234,57.781 313.531,55.094 312.938,52.422L308.469,34.531C308.078,33.047 303.797,26.094 297.25,26.094C292.172,26.094 291.094,30.469 291.094,34.141C291.094,38.703 292.781,44.875 296.156,53.609C297.734,57.687 298.141,58.781 298.141,60.766C298.141,65.234 294.953,68.906 290,68.906C280.563,68.906 276.875,54.5 276.875,53.609C276.875,52.609 277.875,52.609 278.078,52.609C279.063,52.609 279.172,52.812 279.656,54.406C282.344,63.734 286.313,66.719 289.688,66.719C290.484,66.719 292.172,66.719 292.172,63.547C292.172,61.062 291.188,58.484 290.484,56.594C286.516,46.062 284.734,40.391 284.734,35.734C284.734,26.891 290.984,23.906 296.844,23.906C300.719,23.906 304.094,25.594 306.875,28.375C305.594,23.219 304.391,18.344 300.422,13.078C297.844,9.703 294.063,6.828 289.5,6.828C288.109,6.828 283.641,7.125 281.953,11C283.531,11 284.828,11 286.219,12.187C287.219,13.078 288.203,14.375 288.203,16.266C288.203,19.344 285.516,19.734 284.531,19.734C282.25,19.734 278.969,18.141 278.969,13.281C278.969,8.312 283.344,4.641 289.5,4.641C299.734,4.641 309.953,13.672 312.734,24.906L322.281,62.844" style="fill-rule:nonzero;"/>
                </g>
                <g id="path261" serif:id="path26" transform="matrix(0.1,0,0,0.1,0,0)">
                    <path d="M355.703,49.828C355.703,57.578 354.609,69.609 349.156,80.828C343.188,93.047 334.656,99.5 333.656,99.5C333.063,99.5 332.656,99.109 332.656,98.516C332.656,98.219 332.656,98.016 334.547,96.219C344.281,86.391 349.953,70.594 349.953,49.828C349.953,32.844 346.266,15.359 333.953,2.844C332.656,1.656 332.656,1.453 332.656,1.156C332.656,0.563 333.063,0.172 333.656,0.172C334.656,0.172 343.594,6.922 349.453,19.531C354.516,30.469 355.703,41.484 355.703,49.828" style="fill-rule:nonzero;"/>
                </g>
            </g>
        </g>
    </g>
    <g transform="matrix(0.316032,-1.6468e-32,-1.6468e-32,-0.316032,204.988,196.039)">
        <g id="klftmpexporter4x1x0xaz2008">
            <g id="g12">
                <path id="path141" serif:id="path14" d="M12.891,5.109C12.484,3.828 12.391,3.625 12.391,3.125C12.391,0.938 14.281,0.344 15.266,0.344C15.766,0.344 17.953,0.641 18.953,2.922C19.25,3.719 19.734,7 22.422,21.109C23.313,21 24.016,20.906 25.703,20.906C42.188,20.906 57.484,36.5 57.484,52.203C57.484,59.953 53.609,65.906 46.172,65.906C31.766,65.906 25.797,46.641 19.844,27.266C9.109,29.25 3.547,34.813 3.547,41.969C3.547,44.75 5.828,55.672 11.797,62.531C12.594,63.422 12.594,63.625 12.594,63.828C12.594,64.219 12.391,64.813 11.391,64.813C8.609,64.813 0.969,50.406 0.969,40.875C0.969,31.531 7.516,24.281 18.156,21.797L12.891,5.109ZM26.594,26.672C25.797,26.672 25.609,26.672 24.813,26.766C23.609,26.766 23.516,26.875 23.516,27.172C23.516,27.359 25.203,36.406 25.5,37.891C28.578,50.609 36.328,60.141 45.172,60.141C52.031,60.141 54.703,54.781 54.703,50.016C54.703,38.781 41.891,26.672 26.594,26.672" style="fill-rule:nonzero;"/>
            </g>
        </g>
    </g>
</svg>
