<?xml version="1.0" encoding="UTF-8" standalone="no"?>
<!DOCTYPE svg PUBLIC "-//W3C//DTD SVG 1.1//EN" "http://www.w3.org/Graphics/SVG/1.1/DTD/svg11.dtd">
<svg width="100%" height="100%" viewBox="0 0 591 591" version="1.1" xmlns="http://www.w3.org/2000/svg" xmlns:xlink="http://www.w3.org/1999/xlink" xml:space="preserve" xmlns:serif="http://www.serif.com/" style="fill-rule:evenodd;clip-rule:evenodd;stroke-linecap:round;stroke-linejoin:round;stroke-miterlimit:1.5;">
    <g transform="matrix(1,0,0,1,-53.7417,-65.8867)">
        <g transform="matrix(1,-0,-0,1,53.7417,65.8867)">
            <path d="M523.607,293.673L535.393,302.512L523.607,311.351L523.607,293.673Z"/>
            <path d="M39.471,302.512L525.964,302.512" style="fill:none;stroke:black;stroke-width:3.93px;"/>
        </g>
    </g>
    <g transform="matrix(4.16667,0,0,4.16667,516.163,193.308)">
        <g transform="matrix(1,0,0,1,7.01982,22.5654)">
            <path d="M4.501,1.032C4.51,0.988 4.528,0.934 4.528,0.88C4.528,0.763 4.447,0.62 4.25,0.62C4.133,0.62 3.972,0.692 3.9,0.862C3.891,0.898 3.801,1.266 3.747,1.463L3.299,3.256C3.227,3.516 3.227,3.534 3.209,3.615C3.201,3.651 2.824,4.359 2.178,4.359C1.622,4.359 1.622,3.794 1.622,3.624C1.622,3.22 1.739,2.781 2.125,1.777C2.196,1.57 2.25,1.445 2.25,1.275C2.25,0.835 1.918,0.521 1.479,0.521C0.618,0.521 0.26,1.795 0.26,1.902C0.26,1.983 0.322,2.01 0.385,2.01C0.484,2.01 0.493,1.956 0.529,1.839C0.717,1.176 1.075,0.746 1.452,0.746C1.667,0.746 1.667,0.916 1.667,1.041C1.667,1.194 1.631,1.355 1.551,1.57C1.129,2.682 1.013,3.059 1.013,3.489C1.013,4.484 1.82,4.583 2.151,4.583C2.591,4.583 2.905,4.35 3.066,4.189C2.949,4.646 2.851,5.049 2.501,5.498C2.232,5.856 1.873,6.098 1.479,6.098C1.228,6.098 0.932,6.009 0.806,5.758C1.282,5.758 1.344,5.363 1.344,5.274C1.344,5.076 1.201,4.951 1.004,4.951C0.789,4.951 0.502,5.121 0.502,5.534C0.502,6 0.914,6.323 1.479,6.323C2.394,6.323 3.371,5.543 3.631,4.493L4.501,1.032Z" style="fill:rgb(35,31,32);fill-rule:nonzero;"/>
        </g>
        <g transform="matrix(1,0,0,1,-64.3929,-41.0744)">
            <path d="M10.971,1.176C10.971,0.548 10.639,0.512 10.558,0.512C10.334,0.512 10.101,0.755 10.101,0.961C10.101,1.095 10.182,1.167 10.244,1.221C10.487,1.445 10.567,1.732 10.567,1.965C10.567,2.359 10.002,4.359 8.962,4.359C8.29,4.359 8.29,3.731 8.29,3.57C8.29,3.184 8.415,2.727 8.729,1.911C8.873,1.535 8.908,1.445 8.908,1.275C8.908,0.835 8.577,0.521 8.137,0.521C7.277,0.521 6.918,1.795 6.918,1.902C6.918,1.983 6.981,2.01 7.043,2.01C7.142,2.01 7.151,1.956 7.187,1.839C7.375,1.185 7.734,0.746 8.11,0.746C8.29,0.746 8.326,0.862 8.326,1.041C8.326,1.194 8.29,1.355 8.209,1.57C7.886,2.431 7.671,3.005 7.671,3.453C7.671,4.296 8.308,4.583 8.926,4.583C10.433,4.583 10.971,1.75 10.971,1.176Z" style="fill:rgb(35,31,32);fill-rule:nonzero;"/>
        </g>
    </g>
    <g transform="matrix(6.12323e-17,-1,1,6.12323e-17,-80.9667,643.686)">
        <g transform="matrix(6.12323e-17,1,-1,6.12323e-17,643.686,80.9667)">
            <path d="M278.593,66.337L287.432,54.551L296.271,66.337L278.593,66.337Z"/>
            <path d="M287.432,550.473L287.432,63.98" style="fill:none;stroke:black;stroke-width:3.93px;"/>
        </g>
    </g>
    <g id="Ein-Punkt" serif:id="Ein Punkt">
        <g transform="matrix(0.666667,0,0,0.666667,212.911,-53.3285)">
            <circle cx="326.216" cy="258.111" r="6.073" style="fill:rgb(0,174,239);"/>
        </g>
        <g transform="matrix(2.95995,0,0,2.95995,381.13,117.928)">
            <g>
                <path d="M3.057,10.618C3.057,10.574 3.03,10.547 2.976,10.484C1.82,9.426 1.47,7.812 1.47,6.243C1.47,4.853 1.739,3.167 3.003,1.966C3.039,1.93 3.057,1.903 3.057,1.858C3.057,1.796 3.012,1.76 2.949,1.76C2.842,1.76 2.035,2.405 1.551,3.383C1.12,4.243 0.905,5.167 0.905,6.234C0.905,6.88 0.986,7.902 1.479,8.96C2.008,10.063 2.842,10.717 2.949,10.717C3.012,10.717 3.057,10.681 3.057,10.618Z" style="fill:rgb(35,31,32);fill-rule:nonzero;"/>
                <path d="M3.99,9.605C3.927,9.865 3.909,9.946 3.523,9.946C3.425,9.946 3.317,9.946 3.317,10.107C3.317,10.143 3.335,10.224 3.434,10.224L3.819,10.206C3.873,10.197 4.079,10.197 4.205,10.197C4.357,10.197 4.51,10.206 4.662,10.206C4.805,10.206 4.958,10.224 5.092,10.224C5.146,10.224 5.263,10.224 5.263,10.063C5.263,9.946 5.173,9.946 5.021,9.946C4.599,9.946 4.599,9.883 4.599,9.803C4.599,9.749 4.662,9.507 4.698,9.363L5.03,8.027C5.119,8.215 5.37,8.583 5.881,8.583C6.931,8.583 8.078,7.319 8.078,5.974C8.078,5.059 7.513,4.521 6.841,4.521C6.653,4.521 6.204,4.566 5.657,5.176C5.523,4.674 5.11,4.521 4.805,4.521C4.429,4.521 4.241,4.799 4.115,5.041C3.963,5.355 3.837,5.866 3.837,5.902C3.837,5.983 3.9,6.01 3.963,6.01C4.061,6.01 4.079,5.965 4.124,5.786C4.294,5.077 4.483,4.746 4.788,4.746C5.057,4.746 5.057,5.032 5.057,5.167C5.057,5.239 5.048,5.373 5.03,5.445L3.99,9.605ZM5.612,5.723C5.657,5.544 5.657,5.526 5.774,5.391C6.016,5.086 6.419,4.746 6.823,4.746C7.244,4.746 7.415,5.167 7.415,5.588C7.415,5.992 7.164,7.104 6.886,7.579C6.581,8.09 6.204,8.359 5.872,8.359C5.29,8.359 5.146,7.651 5.146,7.588C5.146,7.534 5.164,7.489 5.173,7.444L5.612,5.723Z" style="fill:rgb(35,31,32);fill-rule:nonzero;"/>
                <path d="M11.651,0.604C11.651,0.502 11.651,0.436 11.555,0.436C11.531,0.436 11.495,0.436 11.448,0.514L11.226,0.855C10.886,0.52 10.455,0.436 10.109,0.436C9.332,0.436 8.752,0.962 8.752,1.578C8.752,1.889 8.895,2.152 9.11,2.355C9.379,2.6 9.583,2.642 10.252,2.779C10.868,2.911 11.005,2.941 11.191,3.114C11.262,3.186 11.46,3.377 11.46,3.694C11.46,4.107 11.089,4.537 10.467,4.537C9.953,4.537 9.021,4.381 8.973,3.425C8.967,3.335 8.967,3.288 8.865,3.288C8.752,3.288 8.752,3.341 8.752,3.461L8.752,4.603C8.752,4.704 8.752,4.77 8.847,4.77C8.901,4.77 8.913,4.746 8.943,4.698C8.961,4.68 9.086,4.489 9.17,4.364C9.607,4.728 10.186,4.77 10.467,4.77C11.298,4.77 11.842,4.178 11.842,3.545C11.842,3.126 11.609,2.839 11.519,2.75C11.214,2.445 11.035,2.409 10.294,2.253C10.109,2.212 9.804,2.146 9.732,2.128C9.421,2.026 9.134,1.763 9.134,1.423C9.134,1.022 9.529,0.651 10.115,0.651C10.431,0.651 10.736,0.735 10.981,0.932C11.334,1.213 11.4,1.644 11.424,1.787C11.436,1.877 11.442,1.919 11.537,1.919C11.651,1.919 11.651,1.865 11.651,1.751L11.651,0.604Z" style="fill:rgb(35,31,32);fill-rule:nonzero;"/>
                <path d="M11.842,7.749C11.854,7.707 11.86,7.683 11.86,7.665C11.86,7.594 11.806,7.468 11.645,7.468C11.543,7.468 11.442,7.534 11.4,7.618C11.376,7.659 11.334,7.845 11.304,7.958L11.179,8.454L10.993,9.202C10.951,9.369 10.928,9.465 10.688,9.692C10.623,9.752 10.431,9.907 10.174,9.907C9.732,9.907 9.732,9.518 9.732,9.411C9.732,9.148 9.804,8.879 10.067,8.221C10.127,8.078 10.145,8.036 10.145,7.928C10.145,7.594 9.846,7.408 9.547,7.408C8.937,7.408 8.644,8.197 8.644,8.329C8.644,8.359 8.668,8.413 8.752,8.413C8.835,8.413 8.853,8.377 8.871,8.323C9.039,7.743 9.355,7.606 9.523,7.606C9.642,7.606 9.684,7.683 9.684,7.821C9.684,7.946 9.607,8.15 9.541,8.311C9.332,8.837 9.26,9.112 9.26,9.327C9.26,9.895 9.684,10.104 10.15,10.104C10.234,10.104 10.515,10.104 10.832,9.829C10.754,10.158 10.7,10.391 10.414,10.702C10.306,10.822 10.037,11.067 9.678,11.067C9.624,11.067 9.367,11.061 9.23,10.905C9.493,10.857 9.529,10.624 9.529,10.571C9.529,10.409 9.397,10.343 9.284,10.343C9.134,10.343 8.937,10.463 8.937,10.738C8.937,11.025 9.218,11.264 9.684,11.264C10.318,11.264 11.083,10.798 11.268,10.05L11.842,7.749Z" style="fill:rgb(35,31,32);fill-rule:nonzero;"/>
                <path d="M14.351,8.341C14.351,8.637 14.351,9.372 13.688,10.009C13.634,10.063 13.634,10.072 13.634,10.107C13.634,10.17 13.697,10.215 13.751,10.215C13.849,10.215 14.576,9.516 14.576,8.467C14.576,7.911 14.378,7.516 13.993,7.516C13.688,7.516 13.509,7.749 13.509,8C13.509,8.251 13.688,8.484 13.993,8.484C14.127,8.484 14.262,8.44 14.351,8.341Z" style="fill:rgb(35,31,32);fill-rule:nonzero;"/>
                <path d="M17.247,9.605C17.185,9.865 17.167,9.946 16.781,9.946C16.682,9.946 16.575,9.946 16.575,10.107C16.575,10.143 16.593,10.224 16.691,10.224L17.077,10.206C17.131,10.197 17.337,10.197 17.463,10.197C17.615,10.197 17.767,10.206 17.92,10.206C18.063,10.206 18.216,10.224 18.35,10.224C18.404,10.224 18.521,10.224 18.521,10.063C18.521,9.946 18.431,9.946 18.279,9.946C17.857,9.946 17.857,9.883 17.857,9.803C17.857,9.749 17.92,9.507 17.956,9.363L18.287,8.027C18.377,8.216 18.628,8.583 19.139,8.583C20.188,8.583 21.336,7.319 21.336,5.974C21.336,5.059 20.771,4.521 20.099,4.521C19.91,4.521 19.462,4.566 18.915,5.176C18.781,4.674 18.368,4.521 18.063,4.521C17.687,4.521 17.498,4.799 17.373,5.041C17.22,5.355 17.095,5.866 17.095,5.902C17.095,5.983 17.158,6.01 17.22,6.01C17.319,6.01 17.337,5.965 17.382,5.786C17.552,5.077 17.741,4.746 18.045,4.746C18.314,4.746 18.314,5.032 18.314,5.167C18.314,5.239 18.305,5.373 18.287,5.445L17.247,9.605ZM18.87,5.723C18.915,5.544 18.915,5.526 19.032,5.391C19.274,5.086 19.677,4.746 20.081,4.746C20.502,4.746 20.673,5.167 20.673,5.588C20.673,5.992 20.421,7.104 20.144,7.579C19.839,8.09 19.462,8.359 19.13,8.359C18.547,8.359 18.404,7.651 18.404,7.588C18.404,7.534 18.422,7.489 18.431,7.444L18.87,5.723Z" style="fill:rgb(35,31,32);fill-rule:nonzero;"/>
                <path d="M25.604,3.054L25.383,3.054C25.311,3.778 25.126,4.411 24.044,4.411L23.392,4.411C23.099,4.411 23.099,4.364 23.099,4.178L23.099,1.064C23.099,0.867 23.099,0.795 23.673,0.795L23.894,0.795L23.894,0.562C23.578,0.586 23.141,0.586 22.818,0.586C22.549,0.586 22.012,0.568 21.868,0.562L21.868,0.795L22.023,0.795C22.502,0.795 22.502,0.867 22.502,1.064L22.502,4.142C22.502,4.34 22.502,4.411 22.023,4.411L21.868,4.411L21.868,4.644L25.419,4.644L25.604,3.054Z" style="fill:rgb(35,31,32);fill-rule:nonzero;"/>
                <path d="M24.905,7.899C24.905,7.468 24.66,7.402 24.582,7.402C24.409,7.402 24.247,7.588 24.247,7.731C24.247,7.845 24.325,7.905 24.361,7.934C24.48,8.024 24.588,8.168 24.588,8.395C24.588,8.706 24.157,9.907 23.458,9.907C22.938,9.907 22.938,9.489 22.938,9.375C22.938,9.118 23.022,8.849 23.279,8.209C23.327,8.084 23.345,8.036 23.345,7.928C23.345,7.594 23.04,7.408 22.747,7.408C22.137,7.408 21.844,8.203 21.844,8.329C21.844,8.359 21.868,8.413 21.952,8.413C22.035,8.413 22.053,8.377 22.071,8.323C22.239,7.755 22.549,7.606 22.723,7.606C22.842,7.606 22.884,7.683 22.884,7.821C22.884,7.946 22.807,8.15 22.741,8.311C22.466,8.998 22.466,9.178 22.466,9.303C22.466,9.943 23.01,10.104 23.434,10.104C24.432,10.104 24.905,8.49 24.905,7.899Z" style="fill:rgb(35,31,32);fill-rule:nonzero;"/>
                <path d="M29.191,6.234C29.191,5.499 29.084,4.512 28.618,3.517C28.089,2.414 27.255,1.76 27.147,1.76C27.057,1.76 27.04,1.831 27.04,1.858C27.04,1.903 27.057,1.93 27.12,1.993C27.64,2.459 28.627,3.679 28.627,6.234C28.627,7.516 28.393,9.3 27.093,10.511C27.075,10.538 27.04,10.574 27.04,10.618C27.04,10.645 27.057,10.717 27.147,10.717C27.255,10.717 28.062,10.072 28.546,9.094C28.976,8.233 29.191,7.31 29.191,6.234Z" style="fill:rgb(35,31,32);fill-rule:nonzero;"/>
            </g>
        </g>
    </g>
</svg>
