<?xml version="1.0" encoding="UTF-8" standalone="no"?>
<!DOCTYPE svg PUBLIC "-//W3C//DTD SVG 1.1//EN" "http://www.w3.org/Graphics/SVG/1.1/DTD/svg11.dtd">
<svg width="100%" height="100%" viewBox="0 0 591 591" version="1.1" xmlns="http://www.w3.org/2000/svg" xmlns:xlink="http://www.w3.org/1999/xlink" xml:space="preserve" xmlns:serif="http://www.serif.com/" style="fill-rule:evenodd;clip-rule:evenodd;stroke-linecap:round;stroke-linejoin:round;stroke-miterlimit:1.5;">
    <g transform="matrix(1,0,0,1,-53.7417,-65.8867)">
        <g transform="matrix(1,-0,-0,1,53.7417,65.8867)">
            <path d="M523.607,293.673L535.393,302.512L523.607,311.351L523.607,293.673Z"/>
            <path d="M39.471,302.512L525.964,302.512" style="fill:none;stroke:black;stroke-width:3.93px;"/>
        </g>
    </g>
    <g transform="matrix(4.16667,0,0,4.16667,516.163,193.308)">
        <g transform="matrix(1,0,0,1,7.01982,22.5654)">
            <path d="M4.501,1.032C4.51,0.988 4.528,0.934 4.528,0.88C4.528,0.763 4.447,0.62 4.25,0.62C4.133,0.62 3.972,0.692 3.9,0.862C3.891,0.898 3.801,1.266 3.747,1.463L3.299,3.256C3.227,3.516 3.227,3.534 3.209,3.615C3.201,3.651 2.824,4.359 2.178,4.359C1.622,4.359 1.622,3.794 1.622,3.624C1.622,3.22 1.739,2.781 2.125,1.777C2.196,1.57 2.25,1.445 2.25,1.275C2.25,0.835 1.918,0.521 1.479,0.521C0.618,0.521 0.26,1.795 0.26,1.902C0.26,1.983 0.322,2.01 0.385,2.01C0.484,2.01 0.493,1.956 0.529,1.839C0.717,1.176 1.075,0.746 1.452,0.746C1.667,0.746 1.667,0.916 1.667,1.041C1.667,1.194 1.631,1.355 1.551,1.57C1.129,2.682 1.013,3.059 1.013,3.489C1.013,4.484 1.82,4.583 2.151,4.583C2.591,4.583 2.905,4.35 3.066,4.189C2.949,4.646 2.851,5.049 2.501,5.498C2.232,5.856 1.873,6.098 1.479,6.098C1.228,6.098 0.932,6.009 0.806,5.758C1.282,5.758 1.344,5.363 1.344,5.274C1.344,5.076 1.201,4.951 1.004,4.951C0.789,4.951 0.502,5.121 0.502,5.534C0.502,6 0.914,6.323 1.479,6.323C2.394,6.323 3.371,5.543 3.631,4.493L4.501,1.032Z" style="fill:rgb(35,31,32);fill-rule:nonzero;"/>
        </g>
        <g transform="matrix(1,0,0,1,-64.3929,-41.0744)">
            <path d="M10.971,1.176C10.971,0.548 10.639,0.512 10.558,0.512C10.334,0.512 10.101,0.755 10.101,0.961C10.101,1.095 10.182,1.167 10.244,1.221C10.487,1.445 10.567,1.732 10.567,1.965C10.567,2.359 10.002,4.359 8.962,4.359C8.29,4.359 8.29,3.731 8.29,3.57C8.29,3.184 8.415,2.727 8.729,1.911C8.873,1.535 8.908,1.445 8.908,1.275C8.908,0.835 8.577,0.521 8.137,0.521C7.277,0.521 6.918,1.795 6.918,1.902C6.918,1.983 6.981,2.01 7.043,2.01C7.142,2.01 7.151,1.956 7.187,1.839C7.375,1.185 7.734,0.746 8.11,0.746C8.29,0.746 8.326,0.862 8.326,1.041C8.326,1.194 8.29,1.355 8.209,1.57C7.886,2.431 7.671,3.005 7.671,3.453C7.671,4.296 8.308,4.583 8.926,4.583C10.433,4.583 10.971,1.75 10.971,1.176Z" style="fill:rgb(35,31,32);fill-rule:nonzero;"/>
        </g>
    </g>
    <g transform="matrix(6.12323e-17,-1,1,6.12323e-17,-80.9667,643.686)">
        <g transform="matrix(6.12323e-17,1,-1,6.12323e-17,643.686,80.9667)">
            <path d="M278.593,66.337L287.432,54.551L296.271,66.337L278.593,66.337Z"/>
            <path d="M287.432,550.473L287.432,63.98" style="fill:none;stroke:black;stroke-width:3.93px;"/>
        </g>
    </g>
    <g id="Scharf">
        <g transform="matrix(4.57935e-17,-0.865306,1,6.84236e-17,-45.7065,597.732)">
            <path d="M93.213,368.399L589.134,368.399" style="fill:none;stroke:black;stroke-width:4.2px;"/>
        </g>
        <g transform="matrix(4.57935e-17,-0.865306,1,6.84236e-17,-260.784,597.732)">
            <path d="M93.213,368.399L589.134,368.399" style="fill:none;stroke:black;stroke-width:4.2px;"/>
        </g>
        <g transform="matrix(4.57935e-17,-0.865306,1,6.84236e-17,-9.86027,597.732)">
            <path d="M93.213,368.399L589.134,368.399" style="fill:none;stroke:black;stroke-width:4.2px;"/>
        </g>
        <g transform="matrix(4.57935e-17,-0.865306,1,6.84236e-17,-224.937,597.732)">
            <path d="M93.213,368.399L589.134,368.399" style="fill:none;stroke:black;stroke-width:4.2px;"/>
        </g>
        <g transform="matrix(4.57935e-17,-0.865306,1,6.84236e-17,25.9859,597.732)">
            <path d="M93.213,368.399L589.134,368.399" style="fill:none;stroke:black;stroke-width:4.2px;"/>
        </g>
        <g transform="matrix(4.57935e-17,-0.865306,1,6.84236e-17,-189.091,597.732)">
            <path d="M93.213,368.399L589.134,368.399" style="fill:none;stroke:black;stroke-width:4.2px;"/>
        </g>
        <g transform="matrix(4.57935e-17,-0.865306,1,6.84236e-17,61.8321,597.732)">
            <path d="M93.213,368.399L589.134,368.399" style="fill:none;stroke:rgb(0,174,239);stroke-width:4.2px;"/>
        </g>
        <g transform="matrix(4.57935e-17,-0.865306,1,6.84236e-17,-153.245,597.732)">
            <path d="M93.213,368.399L589.134,368.399" style="fill:none;stroke:black;stroke-width:4.2px;"/>
        </g>
        <g transform="matrix(4.57935e-17,-0.865306,1,6.84236e-17,97.6783,597.732)">
            <path d="M93.213,368.399L589.134,368.399" style="fill:none;stroke:black;stroke-width:4.2px;"/>
        </g>
        <g transform="matrix(4.57935e-17,-0.865306,1,6.84236e-17,-117.399,597.732)">
            <path d="M93.213,368.399L589.134,368.399" style="fill:none;stroke:black;stroke-width:4.2px;"/>
        </g>
    </g>
</svg>
