<?xml version="1.0" encoding="UTF-8" standalone="no"?>
<!DOCTYPE svg PUBLIC "-//W3C//DTD SVG 1.1//EN" "http://www.w3.org/Graphics/SVG/1.1/DTD/svg11.dtd">
<svg width="100%" height="100%" viewBox="0 0 1063 591" version="1.1" xmlns="http://www.w3.org/2000/svg" xmlns:xlink="http://www.w3.org/1999/xlink" xml:space="preserve" xmlns:serif="http://www.serif.com/" style="fill-rule:evenodd;clip-rule:evenodd;stroke-linecap:round;stroke-linejoin:round;stroke-miterlimit:1.5;">
    <g transform="matrix(1,0,0,1,-5.92423,-64.0237)">
        <g transform="matrix(1,-0,-0,1,5.92423,64.0237)">
            <path d="M165.183,46.123L172.759,36.021L180.336,46.123L165.183,46.123Z"/>
            <path d="M172.759,466.41L172.759,44.102" style="fill:none;stroke:black;stroke-width:3.37px;"/>
        </g>
    </g>
    <g transform="matrix(1,0,0,1,393.723,-64.0237)">
        <g transform="matrix(1,-0,-0,1,-393.723,64.0237)">
            <path d="M564.83,46.123L572.406,36.021L579.983,46.123L564.83,46.123Z"/>
            <path d="M572.406,466.41L572.406,44.102" style="fill:none;stroke:black;stroke-width:3.37px;"/>
        </g>
    </g>
    <g transform="matrix(1,0,0,1,793.369,-64.0237)">
        <g transform="matrix(1,-0,-0,1,-793.369,64.0237)">
            <path d="M964.476,46.123L972.053,36.021L979.629,46.123L964.476,46.123Z"/>
            <path d="M972.053,466.41L972.053,44.102" style="fill:none;stroke:black;stroke-width:3.37px;"/>
        </g>
    </g>
    <g transform="matrix(4.16667,0,0,4.16667,186.119,15.678)">
        <path d="M4.501,4.032C4.51,3.988 4.528,3.934 4.528,3.88C4.528,3.763 4.447,3.62 4.25,3.62C4.133,3.62 3.972,3.692 3.9,3.862C3.891,3.898 3.801,4.266 3.747,4.463L3.299,6.256C3.227,6.516 3.227,6.534 3.209,6.615C3.201,6.651 2.824,7.359 2.178,7.359C1.622,7.359 1.622,6.794 1.622,6.624C1.622,6.22 1.739,5.781 2.125,4.777C2.196,4.57 2.25,4.445 2.25,4.275C2.25,3.835 1.918,3.521 1.479,3.521C0.618,3.521 0.26,4.795 0.26,4.902C0.26,4.983 0.322,5.01 0.385,5.01C0.484,5.01 0.493,4.956 0.529,4.839C0.717,4.176 1.075,3.746 1.452,3.746C1.667,3.746 1.667,3.916 1.667,4.041C1.667,4.194 1.631,4.355 1.551,4.57C1.129,5.682 1.013,6.059 1.013,6.489C1.013,7.484 1.82,7.583 2.151,7.583C2.591,7.583 2.905,7.35 3.066,7.189C2.949,7.646 2.851,8.049 2.501,8.498C2.232,8.856 1.873,9.098 1.479,9.098C1.228,9.098 0.932,9.009 0.806,8.758C1.282,8.758 1.344,8.363 1.344,8.274C1.344,8.076 1.201,7.951 1.004,7.951C0.789,7.951 0.502,8.121 0.502,8.534C0.502,9 0.914,9.323 1.479,9.323C2.394,9.323 3.371,8.543 3.631,7.493L4.501,4.032Z" style="fill:rgb(35,31,32);fill-rule:nonzero;"/>
    </g>
    <g transform="matrix(1,0,0,1,558.06,15.678)">
        <g transform="matrix(4.16667,0,0,4.16667,0,0)">
            <path d="M10.838,4.032C10.847,3.988 10.865,3.934 10.865,3.88C10.865,3.763 10.784,3.62 10.587,3.62C10.47,3.62 10.309,3.692 10.237,3.862C10.228,3.898 10.138,4.266 10.084,4.463L9.636,6.256C9.564,6.516 9.564,6.534 9.546,6.615C9.537,6.651 9.161,7.359 8.515,7.359C7.959,7.359 7.959,6.794 7.959,6.624C7.959,6.22 8.076,5.781 8.462,4.777C8.533,4.57 8.587,4.445 8.587,4.275C8.587,3.835 8.255,3.521 7.816,3.521C6.955,3.521 6.597,4.795 6.597,4.902C6.597,4.983 6.659,5.01 6.722,5.01C6.821,5.01 6.83,4.956 6.865,4.839C7.054,4.176 7.412,3.746 7.789,3.746C8.004,3.746 8.004,3.916 8.004,4.041C8.004,4.194 7.968,4.355 7.888,4.57C7.466,5.682 7.35,6.059 7.35,6.489C7.35,7.485 8.157,7.583 8.488,7.583C8.928,7.583 9.242,7.35 9.403,7.189C9.286,7.646 9.188,8.049 8.838,8.498C8.569,8.856 8.21,9.098 7.816,9.098C7.565,9.098 7.269,9.009 7.143,8.758C7.619,8.758 7.681,8.363 7.681,8.274C7.681,8.076 7.538,7.951 7.341,7.951C7.126,7.951 6.839,8.121 6.839,8.534C6.839,9 7.251,9.323 7.816,9.323C8.731,9.323 9.708,8.543 9.968,7.493L10.838,4.032Z" style="fill:rgb(35,31,32);fill-rule:nonzero;"/>
        </g>
        <g transform="matrix(4.16667,0,0,4.16667,0,0)">
            <path d="M13.156,0.835C13.198,0.745 13.21,0.68 13.21,0.644C13.21,0.458 13.043,0.303 12.846,0.303C12.607,0.303 12.535,0.512 12.511,0.596L11.674,3.154C11.662,3.19 11.644,3.238 11.644,3.262C11.644,3.364 11.883,3.411 11.889,3.411C11.943,3.411 11.967,3.358 11.991,3.31L13.156,0.835Z" style="fill:rgb(35,31,32);fill-rule:nonzero;"/>
        </g>
    </g>
    <g transform="matrix(1,0,0,1,559.578,188.744)">
        <g transform="matrix(4.16667,0,0,4.16667,0,0)">
            <path d="M10.838,4.032C10.847,3.988 10.865,3.934 10.865,3.88C10.865,3.763 10.784,3.62 10.587,3.62C10.47,3.62 10.309,3.692 10.237,3.862C10.228,3.898 10.138,4.266 10.084,4.463L9.636,6.256C9.564,6.516 9.564,6.534 9.546,6.615C9.537,6.651 9.161,7.359 8.515,7.359C7.959,7.359 7.959,6.794 7.959,6.624C7.959,6.22 8.076,5.781 8.462,4.777C8.533,4.57 8.587,4.445 8.587,4.275C8.587,3.835 8.255,3.521 7.816,3.521C6.955,3.521 6.597,4.795 6.597,4.902C6.597,4.983 6.659,5.01 6.722,5.01C6.821,5.01 6.83,4.956 6.865,4.839C7.054,4.176 7.412,3.746 7.789,3.746C8.004,3.746 8.004,3.916 8.004,4.041C8.004,4.194 7.968,4.355 7.888,4.57C7.466,5.682 7.35,6.059 7.35,6.489C7.35,7.485 8.157,7.583 8.488,7.583C8.928,7.583 9.242,7.35 9.403,7.189C9.286,7.646 9.188,8.049 8.838,8.498C8.569,8.856 8.21,9.098 7.816,9.098C7.565,9.098 7.269,9.009 7.143,8.758C7.619,8.758 7.681,8.363 7.681,8.274C7.681,8.076 7.538,7.951 7.341,7.951C7.126,7.951 6.839,8.121 6.839,8.534C6.839,9 7.251,9.323 7.816,9.323C8.731,9.323 9.708,8.543 9.968,7.493L10.838,4.032Z" style="fill:rgb(35,31,32);fill-rule:nonzero;"/>
        </g>
        <g transform="matrix(4.16667,0,0,4.16667,0,0)">
            <path d="M13.156,0.835C13.198,0.745 13.21,0.68 13.21,0.644C13.21,0.458 13.043,0.303 12.846,0.303C12.607,0.303 12.535,0.512 12.511,0.596L11.674,3.154C11.662,3.19 11.644,3.238 11.644,3.262C11.644,3.364 11.883,3.411 11.889,3.411C11.943,3.411 11.967,3.358 11.991,3.31L13.156,0.835Z" style="fill:rgb(35,31,32);fill-rule:nonzero;"/>
        </g>
    </g>
    <g transform="matrix(11.789,0,0,11.5457,-10565.3,-4690.31)">
        <path d="M978.713,438.687L907.203,438.687" style="fill:none;stroke:black;stroke-width:0.29px;stroke-dasharray:0.29,0.87,0,0;"/>
    </g>
    <g transform="matrix(4.16667,0,0,4.16667,918.896,16.6858)">
        <path d="M19.792,4.176C19.792,3.548 19.461,3.512 19.38,3.512C19.156,3.512 18.923,3.754 18.923,3.961C18.923,4.095 19.003,4.167 19.066,4.221C19.308,4.445 19.389,4.732 19.389,4.965C19.389,5.359 18.824,7.359 17.784,7.359C17.111,7.359 17.111,6.731 17.111,6.57C17.111,6.184 17.237,5.727 17.551,4.911C17.694,4.535 17.73,4.445 17.73,4.275C17.73,3.835 17.398,3.521 16.959,3.521C16.098,3.521 15.74,4.795 15.74,4.902C15.74,4.983 15.802,5.01 15.865,5.01C15.964,5.01 15.973,4.956 16.009,4.839C16.197,4.185 16.555,3.746 16.932,3.746C17.111,3.746 17.147,3.862 17.147,4.041C17.147,4.194 17.111,4.355 17.031,4.57C16.708,5.431 16.493,6.005 16.493,6.453C16.493,7.296 17.129,7.583 17.748,7.583C19.254,7.583 19.792,4.75 19.792,4.176Z" style="fill:rgb(35,31,32);fill-rule:nonzero;"/>
    </g>
    <g transform="matrix(4.16667,0,0,4.16667,920.414,337.56)">
        <path d="M19.792,4.176C19.792,3.548 19.461,3.512 19.38,3.512C19.156,3.512 18.923,3.754 18.923,3.961C18.923,4.095 19.003,4.167 19.066,4.221C19.308,4.445 19.389,4.732 19.389,4.965C19.389,5.359 18.824,7.359 17.784,7.359C17.111,7.359 17.111,6.731 17.111,6.57C17.111,6.184 17.237,5.727 17.551,4.911C17.694,4.535 17.73,4.445 17.73,4.275C17.73,3.835 17.398,3.521 16.959,3.521C16.098,3.521 15.74,4.795 15.74,4.902C15.74,4.983 15.802,5.01 15.865,5.01C15.964,5.01 15.973,4.956 16.009,4.839C16.197,4.185 16.555,3.746 16.932,3.746C17.111,3.746 17.147,3.862 17.147,4.041C17.147,4.194 17.111,4.355 17.031,4.57C16.708,5.431 16.493,6.005 16.493,6.453C16.493,7.296 17.129,7.583 17.748,7.583C19.254,7.583 19.792,4.75 19.792,4.176Z" style="fill:rgb(35,31,32);fill-rule:nonzero;"/>
    </g>
    <g transform="matrix(1.02262,0,0,1,-15.2336,-64.0237)">
        <g transform="matrix(0.977884,-0,-0,1,14.8967,64.0237)">
            <path d="M187.359,448.299L177.256,455.876L187.359,463.452L187.359,448.299Z"/>
            <path d="M957.939,448.299L968.041,455.876L957.939,463.452L957.939,448.299Z"/>
            <path d="M185.338,455.876L959.959,455.876" style="fill:none;stroke:black;stroke-width:3.37px;"/>
        </g>
    </g>
    <g transform="matrix(0.50826,0,0,1,479.334,-89.0728)">
        <g transform="matrix(1.9675,-0,-0,1,-943.088,89.0728)">
            <path d="M585.108,423.25L575.006,430.827L585.108,438.403L585.108,423.25Z"/>
            <path d="M957.939,423.25L968.041,430.827L957.939,438.403L957.939,423.25Z"/>
            <path d="M583.087,430.827L959.959,430.827" style="fill:none;stroke:black;stroke-width:3.37px;"/>
        </g>
    </g>
    <g transform="matrix(4.16667,0,0,4.16667,272.07,460.425)">
        <path d="M24.017,1.567C24.053,1.441 24.053,1.423 24.053,1.387C24.053,1.307 23.999,1.262 23.918,1.262C23.793,1.262 23.003,1.334 22.824,1.352C22.734,1.36 22.636,1.369 22.636,1.522C22.636,1.638 22.734,1.638 22.878,1.638C23.299,1.638 23.299,1.701 23.299,1.782C23.299,1.836 23.299,1.854 23.237,2.096L22.761,3.988C22.636,4.49 22.519,4.947 22.421,5.368C22.358,5.593 22.295,5.862 22.295,6.149C22.295,6.92 22.726,7.583 23.497,7.583C24.546,7.583 25.693,6.319 25.693,4.974C25.693,4.059 25.129,3.521 24.456,3.521C23.999,3.521 23.604,3.835 23.398,4.032L24.017,1.567ZM23.272,4.544C23.524,4.185 23.981,3.746 24.438,3.746C24.86,3.746 25.03,4.167 25.03,4.588C25.03,4.992 24.779,6.104 24.501,6.579C24.169,7.153 23.775,7.359 23.497,7.359C23.048,7.359 22.869,6.911 22.869,6.453C22.869,6.14 22.932,5.897 23.138,5.082L23.272,4.544Z" style="fill:rgb(35,31,32);fill-rule:nonzero;"/>
    </g>
    <g transform="matrix(1,0,0,1,648.753,393.94)">
        <g transform="matrix(4.16667,0,0,4.16667,0,0)">
            <path d="M29.402,1.567C29.438,1.441 29.438,1.423 29.438,1.387C29.438,1.307 29.384,1.262 29.303,1.262C29.178,1.262 28.389,1.334 28.209,1.352C28.12,1.361 28.021,1.369 28.021,1.522C28.021,1.638 28.12,1.638 28.263,1.638C28.685,1.638 28.685,1.701 28.685,1.782C28.685,1.836 28.685,1.854 28.622,2.096L28.147,3.988C28.021,4.49 27.904,4.947 27.806,5.368C27.743,5.593 27.68,5.862 27.68,6.149C27.68,6.92 28.111,7.583 28.882,7.583C29.931,7.583 31.079,6.319 31.079,4.974C31.079,4.059 30.514,3.521 29.841,3.521C29.384,3.521 28.989,3.835 28.783,4.032L29.402,1.567ZM28.658,4.544C28.909,4.185 29.366,3.746 29.823,3.746C30.245,3.746 30.415,4.167 30.415,4.588C30.415,4.992 30.164,6.104 29.886,6.579C29.554,7.153 29.16,7.359 28.882,7.359C28.434,7.359 28.254,6.911 28.254,6.453C28.254,6.14 28.317,5.897 28.523,5.082L28.658,4.544Z" style="fill:rgb(35,31,32);fill-rule:nonzero;"/>
        </g>
        <g transform="matrix(4.16667,0,0,4.16667,0,0)">
            <path d="M33.076,0.835C33.118,0.745 33.13,0.68 33.13,0.644C33.13,0.458 32.963,0.303 32.766,0.303C32.527,0.303 32.455,0.512 32.431,0.596L31.594,3.154C31.582,3.19 31.564,3.238 31.564,3.262C31.564,3.364 31.803,3.411 31.809,3.411C31.863,3.411 31.887,3.358 31.911,3.31L33.076,0.835Z" style="fill:rgb(35,31,32);fill-rule:nonzero;"/>
        </g>
    </g>
    <g transform="matrix(1,0,0,1,80.9284,-71.5852)">
        <circle cx="91.586" cy="163.711" r="6.452"/>
    </g>
    <g transform="matrix(1,0,0,1,481.135,69.7814)">
        <circle cx="91.586" cy="163.711" r="6.452"/>
    </g>
    <g transform="matrix(1,0,0,1,880.638,209.868)">
        <circle cx="91.586" cy="163.711" r="6.452"/>
    </g>
    <g transform="matrix(2.22199,0.0807021,0.0807021,2.02144,-287.278,-256.159)">
        <path d="M178.04,156.38L578.339,297.457" style="fill:none;stroke:rgb(0,174,239);stroke-width:1.53px;"/>
    </g>
    <g transform="matrix(1,0,0,1,32.9398,458.211)">
        <g transform="matrix(37.5,0,0,37.5,83.3764,60.3859)">
            <path d="M0.039,-0.168L0.042,-0.172L0.066,-0.172L0.07,-0.168C0.072,-0.126 0.074,-0.101 0.077,-0.092C0.08,-0.082 0.088,-0.073 0.103,-0.062C0.118,-0.052 0.138,-0.044 0.162,-0.037C0.187,-0.031 0.212,-0.027 0.237,-0.027C0.271,-0.027 0.302,-0.034 0.33,-0.046C0.357,-0.059 0.379,-0.078 0.394,-0.102C0.409,-0.127 0.417,-0.154 0.417,-0.185C0.417,-0.207 0.413,-0.225 0.406,-0.241C0.399,-0.257 0.388,-0.27 0.375,-0.28C0.362,-0.289 0.347,-0.296 0.33,-0.301C0.313,-0.306 0.288,-0.311 0.254,-0.316C0.222,-0.322 0.196,-0.326 0.178,-0.331C0.16,-0.335 0.141,-0.341 0.123,-0.35C0.105,-0.359 0.09,-0.37 0.077,-0.384C0.065,-0.397 0.055,-0.414 0.048,-0.433C0.041,-0.453 0.037,-0.474 0.037,-0.497C0.037,-0.557 0.058,-0.607 0.101,-0.646C0.143,-0.685 0.2,-0.705 0.271,-0.705C0.299,-0.705 0.33,-0.701 0.364,-0.694C0.397,-0.687 0.427,-0.677 0.455,-0.663L0.458,-0.657C0.451,-0.627 0.446,-0.585 0.445,-0.529L0.44,-0.525L0.415,-0.525L0.411,-0.529C0.41,-0.568 0.41,-0.592 0.408,-0.603C0.407,-0.613 0.392,-0.625 0.364,-0.64C0.335,-0.655 0.305,-0.663 0.271,-0.663C0.244,-0.663 0.218,-0.657 0.194,-0.646C0.17,-0.635 0.152,-0.618 0.139,-0.594C0.127,-0.57 0.121,-0.546 0.121,-0.521C0.121,-0.502 0.124,-0.485 0.132,-0.47C0.139,-0.455 0.149,-0.443 0.161,-0.435C0.173,-0.426 0.187,-0.42 0.202,-0.416C0.218,-0.411 0.247,-0.406 0.289,-0.4C0.347,-0.392 0.389,-0.382 0.415,-0.37C0.441,-0.359 0.462,-0.34 0.478,-0.315C0.494,-0.29 0.501,-0.26 0.501,-0.225C0.501,-0.155 0.473,-0.097 0.417,-0.051C0.36,-0.005 0.292,0.018 0.211,0.018C0.144,0.018 0.085,0.006 0.034,-0.018L0.031,-0.024C0.035,-0.045 0.037,-0.093 0.039,-0.168Z" style="fill-rule:nonzero;"/>
        </g>
        <g transform="matrix(37.5,0,0,37.5,103.06,60.3859)">
            <path d="M0.432,-0.072L0.416,-0.037C0.382,-0.015 0.352,-0.001 0.325,0.006C0.299,0.012 0.275,0.016 0.254,0.016C0.215,0.016 0.178,0.008 0.143,-0.007C0.108,-0.023 0.08,-0.049 0.058,-0.085C0.036,-0.121 0.025,-0.165 0.025,-0.217C0.025,-0.251 0.029,-0.282 0.038,-0.309C0.046,-0.337 0.055,-0.357 0.064,-0.371C0.073,-0.384 0.089,-0.399 0.111,-0.415C0.133,-0.431 0.157,-0.444 0.182,-0.454C0.206,-0.464 0.233,-0.469 0.262,-0.469C0.301,-0.469 0.335,-0.46 0.365,-0.441C0.395,-0.423 0.416,-0.399 0.428,-0.371C0.44,-0.342 0.446,-0.312 0.446,-0.279C0.446,-0.269 0.445,-0.259 0.444,-0.25L0.439,-0.245C0.417,-0.24 0.387,-0.236 0.35,-0.235C0.312,-0.233 0.287,-0.232 0.275,-0.232L0.119,-0.232C0.119,-0.165 0.136,-0.115 0.169,-0.083C0.203,-0.052 0.243,-0.036 0.292,-0.036C0.314,-0.036 0.336,-0.04 0.357,-0.047C0.378,-0.055 0.4,-0.066 0.424,-0.08L0.432,-0.072ZM0.119,-0.271C0.125,-0.271 0.147,-0.269 0.186,-0.268C0.226,-0.267 0.255,-0.266 0.273,-0.266C0.319,-0.266 0.346,-0.267 0.356,-0.269C0.356,-0.276 0.356,-0.282 0.356,-0.287C0.356,-0.337 0.346,-0.375 0.326,-0.399C0.305,-0.424 0.277,-0.436 0.242,-0.436C0.203,-0.436 0.173,-0.422 0.151,-0.395C0.129,-0.367 0.119,-0.326 0.119,-0.271Z" style="fill-rule:nonzero;"/>
        </g>
        <g transform="matrix(37.5,0,0,37.5,121.023,60.3859)">
            <path d="M0.167,-0.465L0.176,-0.459C0.174,-0.437 0.173,-0.409 0.172,-0.373C0.198,-0.395 0.223,-0.416 0.247,-0.438C0.253,-0.445 0.26,-0.449 0.266,-0.452C0.272,-0.455 0.282,-0.458 0.296,-0.461C0.31,-0.465 0.324,-0.466 0.339,-0.466C0.364,-0.466 0.388,-0.461 0.411,-0.451C0.434,-0.441 0.452,-0.429 0.464,-0.415C0.476,-0.401 0.484,-0.385 0.488,-0.366C0.493,-0.347 0.495,-0.324 0.495,-0.296L0.495,-0.21C0.495,-0.205 0.496,-0.164 0.498,-0.089C0.498,-0.058 0.502,-0.04 0.508,-0.034C0.514,-0.028 0.534,-0.025 0.568,-0.025L0.572,-0.021L0.572,-0L0.568,0.004C0.527,0.001 0.499,-0 0.484,-0C0.476,-0 0.452,0.001 0.413,0.004L0.407,-0.001C0.411,-0.044 0.414,-0.099 0.414,-0.167L0.414,-0.231C0.414,-0.269 0.413,-0.297 0.411,-0.314C0.409,-0.331 0.404,-0.346 0.395,-0.36C0.385,-0.374 0.373,-0.385 0.358,-0.392C0.343,-0.4 0.324,-0.404 0.303,-0.404C0.286,-0.404 0.272,-0.402 0.26,-0.399C0.248,-0.395 0.234,-0.388 0.219,-0.378C0.204,-0.367 0.193,-0.357 0.186,-0.348C0.179,-0.339 0.175,-0.33 0.173,-0.322C0.172,-0.314 0.171,-0.297 0.171,-0.271L0.171,-0.186C0.171,-0.179 0.172,-0.156 0.173,-0.117C0.174,-0.078 0.176,-0.055 0.177,-0.049C0.178,-0.042 0.181,-0.038 0.184,-0.035C0.187,-0.032 0.19,-0.03 0.194,-0.029C0.199,-0.028 0.216,-0.027 0.247,-0.025L0.251,-0.021L0.251,-0L0.248,0.004C0.207,0.001 0.168,-0 0.13,-0C0.092,-0 0.053,0.001 0.013,0.004L0.008,-0L0.008,-0.021L0.013,-0.025C0.044,-0.027 0.062,-0.028 0.066,-0.029C0.07,-0.03 0.074,-0.032 0.077,-0.035C0.08,-0.038 0.082,-0.043 0.083,-0.05C0.084,-0.056 0.086,-0.077 0.087,-0.113C0.089,-0.148 0.089,-0.175 0.089,-0.193L0.089,-0.29C0.089,-0.303 0.089,-0.32 0.087,-0.343C0.086,-0.365 0.085,-0.379 0.084,-0.384C0.083,-0.389 0.081,-0.393 0.077,-0.396C0.072,-0.398 0.064,-0.399 0.051,-0.399L0.01,-0.4L0.006,-0.404L0.006,-0.425L0.01,-0.429C0.072,-0.436 0.124,-0.448 0.167,-0.465Z" style="fill-rule:nonzero;"/>
        </g>
        <g transform="matrix(37.5,0,0,37.5,142.849,60.3859)">
            <path d="M0.049,-0.144L0.07,-0.144L0.075,-0.139C0.075,-0.112 0.077,-0.088 0.08,-0.069C0.09,-0.054 0.107,-0.041 0.132,-0.031C0.157,-0.022 0.181,-0.017 0.205,-0.017C0.24,-0.017 0.267,-0.026 0.288,-0.045C0.309,-0.063 0.319,-0.086 0.319,-0.111C0.319,-0.125 0.315,-0.137 0.308,-0.148C0.3,-0.158 0.289,-0.166 0.274,-0.173C0.259,-0.18 0.231,-0.188 0.192,-0.197C0.159,-0.205 0.135,-0.211 0.122,-0.215C0.109,-0.219 0.096,-0.227 0.083,-0.237C0.071,-0.248 0.062,-0.26 0.055,-0.276C0.049,-0.291 0.045,-0.307 0.045,-0.326C0.045,-0.369 0.063,-0.404 0.097,-0.43C0.132,-0.457 0.175,-0.47 0.227,-0.47C0.249,-0.47 0.273,-0.467 0.298,-0.461C0.324,-0.455 0.344,-0.449 0.357,-0.443L0.361,-0.437C0.359,-0.424 0.357,-0.389 0.356,-0.334L0.352,-0.33L0.333,-0.33L0.328,-0.334C0.327,-0.354 0.325,-0.368 0.323,-0.376C0.32,-0.384 0.315,-0.392 0.305,-0.402C0.296,-0.411 0.282,-0.419 0.265,-0.425C0.248,-0.431 0.23,-0.435 0.21,-0.435C0.191,-0.435 0.174,-0.432 0.16,-0.426C0.147,-0.42 0.136,-0.411 0.128,-0.399C0.119,-0.387 0.115,-0.373 0.115,-0.356C0.115,-0.344 0.118,-0.333 0.123,-0.323C0.128,-0.313 0.136,-0.305 0.146,-0.299C0.156,-0.293 0.167,-0.289 0.179,-0.286L0.232,-0.272C0.278,-0.261 0.31,-0.252 0.33,-0.244C0.35,-0.236 0.365,-0.223 0.375,-0.207C0.386,-0.19 0.392,-0.17 0.392,-0.147C0.392,-0.102 0.373,-0.063 0.336,-0.031C0.299,0.001 0.251,0.017 0.193,0.017C0.172,0.017 0.147,0.015 0.116,0.01C0.086,0.006 0.06,0.001 0.039,-0.005L0.036,-0.011L0.041,-0.044C0.043,-0.054 0.044,-0.064 0.044,-0.074C0.044,-0.085 0.045,-0.106 0.045,-0.139L0.049,-0.144Z" style="fill-rule:nonzero;"/>
        </g>
        <g transform="matrix(37.5,0,0,37.5,158.743,60.3859)">
            <path d="M0.033,-0.224C0.033,-0.262 0.041,-0.3 0.057,-0.336C0.073,-0.372 0.101,-0.403 0.14,-0.429C0.18,-0.455 0.227,-0.468 0.281,-0.468C0.35,-0.468 0.405,-0.447 0.448,-0.404C0.491,-0.36 0.513,-0.305 0.513,-0.237C0.513,-0.163 0.488,-0.101 0.439,-0.053C0.389,-0.005 0.33,0.019 0.26,0.019C0.215,0.019 0.174,0.007 0.138,-0.018C0.102,-0.042 0.076,-0.072 0.059,-0.108C0.042,-0.143 0.033,-0.182 0.033,-0.224ZM0.125,-0.257C0.125,-0.212 0.131,-0.171 0.143,-0.135C0.155,-0.099 0.173,-0.07 0.199,-0.048C0.224,-0.027 0.253,-0.016 0.286,-0.016C0.324,-0.016 0.356,-0.031 0.381,-0.061C0.406,-0.092 0.418,-0.138 0.418,-0.199C0.418,-0.268 0.405,-0.325 0.378,-0.369C0.351,-0.413 0.311,-0.436 0.26,-0.436C0.218,-0.436 0.185,-0.42 0.161,-0.39C0.137,-0.359 0.125,-0.315 0.125,-0.257Z" style="fill-rule:nonzero;"/>
        </g>
        <g transform="matrix(37.5,0,0,37.5,179.214,60.3859)">
            <path d="M0.188,-0.465L0.197,-0.459C0.195,-0.44 0.193,-0.407 0.192,-0.358L0.229,-0.405C0.241,-0.42 0.252,-0.432 0.261,-0.44C0.27,-0.448 0.281,-0.455 0.293,-0.459C0.306,-0.464 0.319,-0.466 0.332,-0.466C0.346,-0.466 0.359,-0.463 0.372,-0.458L0.375,-0.451C0.37,-0.407 0.367,-0.369 0.367,-0.336L0.345,-0.336C0.332,-0.366 0.311,-0.381 0.282,-0.381C0.262,-0.381 0.244,-0.375 0.229,-0.362C0.214,-0.349 0.204,-0.333 0.199,-0.314C0.194,-0.294 0.191,-0.27 0.191,-0.24L0.191,-0.186C0.191,-0.176 0.192,-0.152 0.193,-0.114C0.195,-0.076 0.196,-0.054 0.198,-0.048C0.199,-0.042 0.201,-0.038 0.204,-0.035C0.207,-0.033 0.212,-0.031 0.217,-0.03C0.222,-0.029 0.245,-0.027 0.286,-0.025L0.291,-0.021L0.291,-0L0.286,0.004C0.243,0.001 0.198,-0 0.15,-0C0.113,-0 0.074,0.001 0.033,0.004L0.029,-0L0.029,-0.021L0.033,-0.025C0.065,-0.027 0.083,-0.028 0.087,-0.029C0.091,-0.03 0.094,-0.032 0.097,-0.035C0.101,-0.038 0.103,-0.043 0.104,-0.05C0.105,-0.056 0.106,-0.077 0.108,-0.113C0.109,-0.148 0.11,-0.175 0.11,-0.193L0.11,-0.29C0.11,-0.303 0.109,-0.32 0.108,-0.343C0.107,-0.365 0.106,-0.379 0.105,-0.384C0.104,-0.389 0.101,-0.393 0.097,-0.396C0.093,-0.398 0.084,-0.399 0.072,-0.399L0.031,-0.4L0.026,-0.404L0.026,-0.425L0.03,-0.429C0.092,-0.436 0.145,-0.448 0.188,-0.465Z" style="fill-rule:nonzero;"/>
        </g>
    </g>
    <g transform="matrix(1,0,0,1,864.265,458.211)">
        <g transform="matrix(37.5,0,0,37.5,68.7412,60.3859)">
            <path d="M0.018,-0.687L0.022,-0.69C0.103,-0.687 0.149,-0.686 0.162,-0.686C0.173,-0.686 0.219,-0.687 0.302,-0.69L0.306,-0.687L0.306,-0.662L0.302,-0.659C0.279,-0.658 0.262,-0.657 0.25,-0.656C0.238,-0.654 0.229,-0.652 0.223,-0.648C0.218,-0.645 0.214,-0.636 0.212,-0.623C0.21,-0.61 0.209,-0.592 0.209,-0.568L0.208,-0.456L0.208,-0.24C0.208,-0.186 0.209,-0.148 0.209,-0.127L0.212,-0.042L0.312,-0.042C0.391,-0.042 0.441,-0.043 0.46,-0.045C0.48,-0.047 0.499,-0.052 0.517,-0.06C0.521,-0.068 0.526,-0.086 0.532,-0.116C0.539,-0.145 0.543,-0.162 0.543,-0.167L0.547,-0.17L0.571,-0.17L0.575,-0.167C0.572,-0.153 0.569,-0.128 0.567,-0.091C0.564,-0.053 0.563,-0.023 0.563,-0L0.559,0.004C0.497,0.002 0.416,0.001 0.315,0.001L0.172,-0C0.14,-0 0.107,0.001 0.073,0.004L0.069,-0L0.069,-0.016L0.073,-0.021C0.093,-0.031 0.104,-0.038 0.106,-0.04C0.108,-0.042 0.11,-0.063 0.112,-0.103C0.114,-0.143 0.115,-0.191 0.115,-0.247L0.115,-0.456L0.114,-0.551C0.114,-0.588 0.113,-0.612 0.112,-0.623C0.11,-0.634 0.108,-0.641 0.105,-0.645C0.102,-0.648 0.096,-0.651 0.087,-0.653C0.078,-0.656 0.056,-0.657 0.022,-0.659L0.018,-0.662L0.018,-0.687Z" style="fill-rule:nonzero;"/>
        </g>
        <g transform="matrix(37.5,0,0,37.5,91.6477,60.3859)">
            <path d="M0.432,-0.072L0.416,-0.037C0.382,-0.015 0.352,-0.001 0.325,0.006C0.299,0.012 0.275,0.016 0.254,0.016C0.215,0.016 0.178,0.008 0.143,-0.007C0.108,-0.023 0.08,-0.049 0.058,-0.085C0.036,-0.121 0.025,-0.165 0.025,-0.217C0.025,-0.251 0.029,-0.282 0.038,-0.309C0.046,-0.337 0.055,-0.357 0.064,-0.371C0.073,-0.384 0.089,-0.399 0.111,-0.415C0.133,-0.431 0.157,-0.444 0.182,-0.454C0.206,-0.464 0.233,-0.469 0.262,-0.469C0.301,-0.469 0.335,-0.46 0.365,-0.441C0.395,-0.423 0.416,-0.399 0.428,-0.371C0.44,-0.342 0.446,-0.312 0.446,-0.279C0.446,-0.269 0.445,-0.259 0.444,-0.25L0.439,-0.245C0.417,-0.24 0.387,-0.236 0.35,-0.235C0.312,-0.233 0.287,-0.232 0.275,-0.232L0.119,-0.232C0.119,-0.165 0.136,-0.115 0.169,-0.083C0.203,-0.052 0.243,-0.036 0.292,-0.036C0.314,-0.036 0.336,-0.04 0.357,-0.047C0.378,-0.055 0.4,-0.066 0.424,-0.08L0.432,-0.072ZM0.119,-0.271C0.125,-0.271 0.147,-0.269 0.186,-0.268C0.226,-0.267 0.255,-0.266 0.273,-0.266C0.319,-0.266 0.346,-0.267 0.356,-0.269C0.356,-0.276 0.356,-0.282 0.356,-0.287C0.356,-0.337 0.346,-0.375 0.326,-0.399C0.305,-0.424 0.277,-0.436 0.242,-0.436C0.203,-0.436 0.173,-0.422 0.151,-0.395C0.129,-0.367 0.119,-0.326 0.119,-0.271Z" style="fill-rule:nonzero;"/>
        </g>
        <g transform="matrix(37.5,0,0,37.5,109.61,60.3859)">
            <path d="M0.167,-0.465L0.176,-0.459C0.174,-0.437 0.173,-0.409 0.172,-0.373C0.198,-0.395 0.223,-0.416 0.247,-0.438C0.253,-0.445 0.26,-0.449 0.266,-0.452C0.272,-0.455 0.282,-0.458 0.296,-0.461C0.31,-0.465 0.324,-0.466 0.339,-0.466C0.364,-0.466 0.388,-0.461 0.411,-0.451C0.434,-0.441 0.452,-0.429 0.464,-0.415C0.476,-0.401 0.484,-0.385 0.488,-0.366C0.493,-0.347 0.495,-0.324 0.495,-0.296L0.495,-0.21C0.495,-0.205 0.496,-0.164 0.498,-0.089C0.498,-0.058 0.502,-0.04 0.508,-0.034C0.514,-0.028 0.534,-0.025 0.568,-0.025L0.572,-0.021L0.572,-0L0.568,0.004C0.527,0.001 0.499,-0 0.484,-0C0.476,-0 0.452,0.001 0.413,0.004L0.407,-0.001C0.411,-0.044 0.414,-0.099 0.414,-0.167L0.414,-0.231C0.414,-0.269 0.413,-0.297 0.411,-0.314C0.409,-0.331 0.404,-0.346 0.395,-0.36C0.385,-0.374 0.373,-0.385 0.358,-0.392C0.343,-0.4 0.324,-0.404 0.303,-0.404C0.286,-0.404 0.272,-0.402 0.26,-0.399C0.248,-0.395 0.234,-0.388 0.219,-0.378C0.204,-0.367 0.193,-0.357 0.186,-0.348C0.179,-0.339 0.175,-0.33 0.173,-0.322C0.172,-0.314 0.171,-0.297 0.171,-0.271L0.171,-0.186C0.171,-0.179 0.172,-0.156 0.173,-0.117C0.174,-0.078 0.176,-0.055 0.177,-0.049C0.178,-0.042 0.181,-0.038 0.184,-0.035C0.187,-0.032 0.19,-0.03 0.194,-0.029C0.199,-0.028 0.216,-0.027 0.247,-0.025L0.251,-0.021L0.251,-0L0.248,0.004C0.207,0.001 0.168,-0 0.13,-0C0.092,-0 0.053,0.001 0.013,0.004L0.008,-0L0.008,-0.021L0.013,-0.025C0.044,-0.027 0.062,-0.028 0.066,-0.029C0.07,-0.03 0.074,-0.032 0.077,-0.035C0.08,-0.038 0.082,-0.043 0.083,-0.05C0.084,-0.056 0.086,-0.077 0.087,-0.113C0.089,-0.148 0.089,-0.175 0.089,-0.193L0.089,-0.29C0.089,-0.303 0.089,-0.32 0.087,-0.343C0.086,-0.365 0.085,-0.379 0.084,-0.384C0.083,-0.389 0.081,-0.393 0.077,-0.396C0.072,-0.398 0.064,-0.399 0.051,-0.399L0.01,-0.4L0.006,-0.404L0.006,-0.425L0.01,-0.429C0.072,-0.436 0.124,-0.448 0.167,-0.465Z" style="fill-rule:nonzero;"/>
        </g>
        <g transform="matrix(37.5,0,0,37.5,131.436,60.3859)">
            <path d="M0.049,-0.144L0.07,-0.144L0.075,-0.139C0.075,-0.112 0.077,-0.088 0.08,-0.069C0.09,-0.054 0.107,-0.041 0.132,-0.031C0.157,-0.022 0.181,-0.017 0.205,-0.017C0.24,-0.017 0.267,-0.026 0.288,-0.045C0.309,-0.063 0.319,-0.086 0.319,-0.111C0.319,-0.125 0.315,-0.137 0.308,-0.148C0.3,-0.158 0.289,-0.166 0.274,-0.173C0.259,-0.18 0.231,-0.188 0.192,-0.197C0.159,-0.205 0.135,-0.211 0.122,-0.215C0.109,-0.219 0.096,-0.227 0.083,-0.237C0.071,-0.248 0.062,-0.26 0.055,-0.276C0.049,-0.291 0.045,-0.307 0.045,-0.326C0.045,-0.369 0.063,-0.404 0.097,-0.43C0.132,-0.457 0.175,-0.47 0.227,-0.47C0.249,-0.47 0.273,-0.467 0.298,-0.461C0.324,-0.455 0.344,-0.449 0.357,-0.443L0.361,-0.437C0.359,-0.424 0.357,-0.389 0.356,-0.334L0.352,-0.33L0.333,-0.33L0.328,-0.334C0.327,-0.354 0.325,-0.368 0.323,-0.376C0.32,-0.384 0.315,-0.392 0.305,-0.402C0.296,-0.411 0.282,-0.419 0.265,-0.425C0.248,-0.431 0.23,-0.435 0.21,-0.435C0.191,-0.435 0.174,-0.432 0.16,-0.426C0.147,-0.42 0.136,-0.411 0.128,-0.399C0.119,-0.387 0.115,-0.373 0.115,-0.356C0.115,-0.344 0.118,-0.333 0.123,-0.323C0.128,-0.313 0.136,-0.305 0.146,-0.299C0.156,-0.293 0.167,-0.289 0.179,-0.286L0.232,-0.272C0.278,-0.261 0.31,-0.252 0.33,-0.244C0.35,-0.236 0.365,-0.223 0.375,-0.207C0.386,-0.19 0.392,-0.17 0.392,-0.147C0.392,-0.102 0.373,-0.063 0.336,-0.031C0.299,0.001 0.251,0.017 0.193,0.017C0.172,0.017 0.147,0.015 0.116,0.01C0.086,0.006 0.06,0.001 0.039,-0.005L0.036,-0.011L0.041,-0.044C0.043,-0.054 0.044,-0.064 0.044,-0.074C0.044,-0.085 0.045,-0.106 0.045,-0.139L0.049,-0.144Z" style="fill-rule:nonzero;"/>
        </g>
    </g>
    <g transform="matrix(1,0,0,1,433.117,444.244)">
        <g transform="matrix(37.5,0,0,37.5,80.5017,60.3859)">
            <path d="M0.336,0.009C0.331,-0.006 0.311,-0.06 0.275,-0.155L0.109,-0.566C0.09,-0.613 0.078,-0.639 0.073,-0.646C0.068,-0.652 0.049,-0.656 0.015,-0.659L0.01,-0.663L0.01,-0.686L0.015,-0.69C0.064,-0.687 0.107,-0.686 0.142,-0.686C0.174,-0.686 0.217,-0.687 0.271,-0.69L0.275,-0.686L0.275,-0.659L0.271,-0.655C0.232,-0.655 0.208,-0.654 0.2,-0.652C0.193,-0.649 0.189,-0.645 0.189,-0.638C0.189,-0.634 0.194,-0.616 0.205,-0.586C0.215,-0.555 0.224,-0.529 0.232,-0.508L0.385,-0.122L0.513,-0.442C0.521,-0.464 0.534,-0.499 0.551,-0.547C0.568,-0.596 0.577,-0.625 0.577,-0.635C0.577,-0.643 0.573,-0.648 0.565,-0.65C0.557,-0.653 0.533,-0.655 0.493,-0.659L0.489,-0.663L0.489,-0.686L0.493,-0.69C0.55,-0.687 0.586,-0.686 0.602,-0.686C0.615,-0.686 0.648,-0.687 0.701,-0.69L0.705,-0.686L0.705,-0.663L0.701,-0.659C0.677,-0.658 0.663,-0.656 0.658,-0.653C0.653,-0.651 0.649,-0.646 0.645,-0.638C0.642,-0.631 0.63,-0.605 0.61,-0.561L0.458,-0.186C0.424,-0.102 0.4,-0.037 0.385,0.009L0.336,0.009Z" style="fill-rule:nonzero;"/>
        </g>
        <g transform="matrix(37.5,0,0,37.5,106.667,60.3859)">
            <path d="M0.141,-0.684C0.156,-0.684 0.169,-0.678 0.18,-0.667C0.19,-0.657 0.196,-0.644 0.196,-0.628C0.196,-0.613 0.19,-0.601 0.18,-0.59C0.169,-0.579 0.156,-0.574 0.141,-0.574C0.126,-0.574 0.113,-0.579 0.102,-0.59C0.091,-0.6 0.085,-0.613 0.085,-0.628C0.085,-0.644 0.091,-0.657 0.102,-0.667C0.113,-0.678 0.126,-0.684 0.141,-0.684ZM0.182,-0.465L0.191,-0.459C0.188,-0.416 0.186,-0.362 0.186,-0.296L0.186,-0.186C0.186,-0.179 0.187,-0.156 0.188,-0.117C0.189,-0.078 0.191,-0.055 0.192,-0.049C0.194,-0.042 0.196,-0.038 0.199,-0.035C0.202,-0.032 0.205,-0.03 0.209,-0.029C0.214,-0.028 0.231,-0.027 0.262,-0.025L0.267,-0.021L0.267,-0L0.263,0.004C0.222,0.001 0.183,-0 0.145,-0C0.108,-0 0.069,0.001 0.028,0.004L0.023,-0L0.023,-0.021L0.028,-0.025C0.059,-0.027 0.077,-0.028 0.081,-0.029C0.085,-0.03 0.089,-0.032 0.092,-0.035C0.095,-0.038 0.097,-0.043 0.098,-0.05C0.1,-0.056 0.101,-0.077 0.102,-0.113C0.104,-0.148 0.104,-0.175 0.104,-0.193L0.104,-0.29C0.104,-0.303 0.104,-0.32 0.103,-0.343C0.101,-0.365 0.1,-0.379 0.099,-0.384C0.099,-0.389 0.096,-0.393 0.092,-0.396C0.088,-0.398 0.079,-0.399 0.066,-0.399L0.025,-0.4L0.021,-0.404L0.021,-0.425L0.025,-0.429C0.087,-0.436 0.139,-0.448 0.182,-0.465Z" style="fill-rule:nonzero;"/>
        </g>
        <g transform="matrix(37.5,0,0,37.5,117.581,60.3859)">
            <path d="M0.188,-0.465L0.197,-0.459C0.195,-0.44 0.193,-0.407 0.192,-0.358L0.229,-0.405C0.241,-0.42 0.252,-0.432 0.261,-0.44C0.27,-0.448 0.281,-0.455 0.293,-0.459C0.306,-0.464 0.319,-0.466 0.332,-0.466C0.346,-0.466 0.359,-0.463 0.372,-0.458L0.375,-0.451C0.37,-0.407 0.367,-0.369 0.367,-0.336L0.345,-0.336C0.332,-0.366 0.311,-0.381 0.282,-0.381C0.262,-0.381 0.244,-0.375 0.229,-0.362C0.214,-0.349 0.204,-0.333 0.199,-0.314C0.194,-0.294 0.191,-0.27 0.191,-0.24L0.191,-0.186C0.191,-0.176 0.192,-0.152 0.193,-0.114C0.195,-0.076 0.196,-0.054 0.198,-0.048C0.199,-0.042 0.201,-0.038 0.204,-0.035C0.207,-0.033 0.212,-0.031 0.217,-0.03C0.222,-0.029 0.245,-0.027 0.286,-0.025L0.291,-0.021L0.291,-0L0.286,0.004C0.243,0.001 0.198,-0 0.15,-0C0.113,-0 0.074,0.001 0.033,0.004L0.029,-0L0.029,-0.021L0.033,-0.025C0.065,-0.027 0.083,-0.028 0.087,-0.029C0.091,-0.03 0.094,-0.032 0.097,-0.035C0.101,-0.038 0.103,-0.043 0.104,-0.05C0.105,-0.056 0.106,-0.077 0.108,-0.113C0.109,-0.148 0.11,-0.175 0.11,-0.193L0.11,-0.29C0.11,-0.303 0.109,-0.32 0.108,-0.343C0.107,-0.365 0.106,-0.379 0.105,-0.384C0.104,-0.389 0.101,-0.393 0.097,-0.396C0.093,-0.398 0.084,-0.399 0.072,-0.399L0.031,-0.4L0.026,-0.404L0.026,-0.425L0.03,-0.429C0.092,-0.436 0.145,-0.448 0.188,-0.465Z" style="fill-rule:nonzero;"/>
        </g>
        <g transform="matrix(37.5,0,0,37.5,132.394,60.3859)">
            <path d="M0.022,-0.383L0.022,-0.396L0.026,-0.401C0.056,-0.412 0.081,-0.423 0.1,-0.433C0.1,-0.518 0.099,-0.567 0.097,-0.581C0.131,-0.593 0.158,-0.605 0.18,-0.619L0.191,-0.609C0.188,-0.588 0.184,-0.529 0.18,-0.43C0.196,-0.43 0.214,-0.43 0.232,-0.43C0.271,-0.43 0.298,-0.431 0.315,-0.433L0.318,-0.429L0.309,-0.388L0.305,-0.384C0.289,-0.384 0.27,-0.384 0.25,-0.384C0.232,-0.384 0.208,-0.384 0.18,-0.384L0.177,-0.185C0.177,-0.139 0.178,-0.109 0.18,-0.095C0.182,-0.081 0.188,-0.07 0.198,-0.062C0.207,-0.054 0.221,-0.05 0.24,-0.05C0.262,-0.05 0.282,-0.056 0.301,-0.067L0.313,-0.049C0.305,-0.044 0.286,-0.028 0.256,-0C0.239,0.007 0.222,0.011 0.205,0.011C0.131,0.011 0.095,-0.024 0.095,-0.095C0.095,-0.121 0.095,-0.143 0.097,-0.162C0.097,-0.167 0.097,-0.173 0.097,-0.179L0.097,-0.381L0.077,-0.381C0.063,-0.381 0.046,-0.381 0.027,-0.379L0.022,-0.383Z" style="fill-rule:nonzero;"/>
        </g>
        <g transform="matrix(37.5,0,0,37.5,144.625,60.3859)">
            <path d="M0.169,-0.465L0.178,-0.459C0.175,-0.416 0.173,-0.362 0.173,-0.296L0.173,-0.183C0.173,-0.141 0.176,-0.112 0.182,-0.096C0.189,-0.079 0.2,-0.067 0.215,-0.058C0.231,-0.05 0.25,-0.045 0.271,-0.045C0.295,-0.045 0.316,-0.05 0.336,-0.059C0.355,-0.069 0.372,-0.082 0.385,-0.099C0.398,-0.116 0.406,-0.127 0.408,-0.133C0.41,-0.139 0.411,-0.155 0.412,-0.182L0.413,-0.237L0.413,-0.29C0.413,-0.303 0.412,-0.32 0.411,-0.343C0.41,-0.365 0.409,-0.379 0.408,-0.384C0.407,-0.389 0.405,-0.393 0.4,-0.396C0.396,-0.398 0.388,-0.399 0.375,-0.399L0.334,-0.4L0.33,-0.404L0.33,-0.425L0.333,-0.429C0.396,-0.436 0.448,-0.448 0.491,-0.465L0.5,-0.459C0.496,-0.416 0.495,-0.362 0.495,-0.296L0.495,-0.21C0.495,-0.206 0.495,-0.166 0.497,-0.091C0.498,-0.063 0.499,-0.046 0.502,-0.04C0.505,-0.034 0.509,-0.03 0.514,-0.028C0.519,-0.025 0.533,-0.024 0.557,-0.024L0.571,-0.024L0.575,-0.02L0.575,-0L0.571,0.004C0.525,0.001 0.495,-0 0.479,-0C0.459,-0 0.436,0.001 0.41,0.003L0.406,-0C0.408,-0.034 0.409,-0.062 0.41,-0.085C0.39,-0.069 0.366,-0.048 0.34,-0.021C0.33,-0.011 0.315,-0.002 0.296,0.004C0.278,0.011 0.256,0.015 0.232,0.015C0.195,0.015 0.167,0.009 0.147,-0.003C0.126,-0.014 0.112,-0.03 0.104,-0.051C0.095,-0.071 0.091,-0.106 0.091,-0.156L0.091,-0.194L0.091,-0.29C0.091,-0.303 0.091,-0.32 0.089,-0.343C0.088,-0.365 0.087,-0.379 0.086,-0.384C0.085,-0.389 0.083,-0.393 0.079,-0.396C0.074,-0.398 0.066,-0.399 0.053,-0.399L0.012,-0.4L0.008,-0.404L0.008,-0.425L0.012,-0.429C0.074,-0.436 0.126,-0.448 0.169,-0.465Z" style="fill-rule:nonzero;"/>
        </g>
        <g transform="matrix(37.5,0,0,37.5,167.239,60.3859)">
            <path d="M0.104,-0.331L0.084,-0.336L0.081,-0.341L0.081,-0.401C0.139,-0.444 0.195,-0.466 0.25,-0.466C0.287,-0.466 0.318,-0.459 0.343,-0.445C0.368,-0.431 0.385,-0.413 0.396,-0.392C0.408,-0.371 0.413,-0.347 0.413,-0.319L0.411,-0.221L0.411,-0.075C0.411,-0.055 0.412,-0.043 0.415,-0.039C0.418,-0.035 0.421,-0.032 0.424,-0.031C0.428,-0.029 0.435,-0.028 0.444,-0.027L0.472,-0.024L0.476,-0.02L0.476,-0L0.472,0.003C0.448,0.001 0.426,0 0.406,0C0.386,0 0.363,0.001 0.335,0.003L0.328,-0.003L0.33,-0.082L0.224,0.001C0.206,0.008 0.186,0.012 0.165,0.012C0.139,0.012 0.117,0.007 0.098,-0.002C0.079,-0.011 0.065,-0.025 0.055,-0.042C0.045,-0.058 0.04,-0.079 0.04,-0.103C0.04,-0.151 0.055,-0.188 0.085,-0.215C0.115,-0.242 0.197,-0.265 0.33,-0.284C0.33,-0.332 0.319,-0.366 0.298,-0.385C0.276,-0.405 0.248,-0.415 0.211,-0.415C0.193,-0.415 0.175,-0.412 0.16,-0.407C0.144,-0.401 0.136,-0.397 0.133,-0.393C0.131,-0.39 0.122,-0.37 0.107,-0.333L0.104,-0.331ZM0.33,-0.254C0.239,-0.239 0.182,-0.222 0.16,-0.205C0.137,-0.187 0.126,-0.16 0.126,-0.123C0.126,-0.072 0.151,-0.047 0.202,-0.047C0.245,-0.047 0.288,-0.072 0.33,-0.122L0.33,-0.254Z" style="fill-rule:nonzero;"/>
        </g>
        <g transform="matrix(37.5,0,0,37.5,185.989,60.3859)">
            <path d="M0.183,-0.723L0.192,-0.717C0.188,-0.68 0.187,-0.605 0.187,-0.492L0.187,-0.186C0.187,-0.179 0.187,-0.156 0.188,-0.117C0.19,-0.078 0.191,-0.055 0.193,-0.049C0.194,-0.042 0.196,-0.038 0.199,-0.035C0.202,-0.032 0.206,-0.03 0.21,-0.029C0.214,-0.028 0.232,-0.027 0.263,-0.025L0.267,-0.021L0.267,-0L0.263,0.004C0.222,0.001 0.183,-0 0.146,-0C0.108,-0 0.069,0.001 0.028,0.004L0.024,-0L0.024,-0.021L0.028,-0.025C0.06,-0.027 0.078,-0.028 0.082,-0.029C0.086,-0.03 0.089,-0.032 0.093,-0.035C0.096,-0.038 0.098,-0.043 0.099,-0.05C0.1,-0.056 0.101,-0.077 0.103,-0.113C0.104,-0.148 0.105,-0.175 0.105,-0.193L0.105,-0.446L0.103,-0.55C0.102,-0.586 0.101,-0.611 0.1,-0.625C0.099,-0.639 0.097,-0.647 0.095,-0.65C0.093,-0.653 0.09,-0.654 0.085,-0.656C0.08,-0.657 0.06,-0.658 0.026,-0.658L0.021,-0.662L0.021,-0.683L0.025,-0.687C0.088,-0.694 0.14,-0.706 0.183,-0.723Z" style="fill-rule:nonzero;"/>
        </g>
        <g transform="matrix(37.5,0,0,37.5,85.2716,97.8859)">
            <path d="M0.049,-0.144L0.07,-0.144L0.075,-0.139C0.075,-0.112 0.077,-0.088 0.08,-0.069C0.09,-0.054 0.107,-0.041 0.132,-0.031C0.157,-0.022 0.181,-0.017 0.205,-0.017C0.24,-0.017 0.267,-0.026 0.288,-0.045C0.309,-0.063 0.319,-0.086 0.319,-0.111C0.319,-0.125 0.315,-0.137 0.308,-0.148C0.3,-0.158 0.289,-0.166 0.274,-0.173C0.259,-0.18 0.231,-0.188 0.192,-0.197C0.159,-0.205 0.135,-0.211 0.122,-0.215C0.109,-0.219 0.096,-0.227 0.083,-0.237C0.071,-0.248 0.062,-0.26 0.055,-0.276C0.049,-0.291 0.045,-0.307 0.045,-0.326C0.045,-0.369 0.063,-0.404 0.097,-0.43C0.132,-0.457 0.175,-0.47 0.227,-0.47C0.249,-0.47 0.273,-0.467 0.298,-0.461C0.324,-0.455 0.344,-0.449 0.357,-0.443L0.361,-0.437C0.359,-0.424 0.357,-0.389 0.356,-0.334L0.352,-0.33L0.333,-0.33L0.328,-0.334C0.327,-0.354 0.325,-0.368 0.323,-0.376C0.32,-0.384 0.315,-0.392 0.305,-0.402C0.296,-0.411 0.282,-0.419 0.265,-0.425C0.248,-0.431 0.23,-0.435 0.21,-0.435C0.191,-0.435 0.174,-0.432 0.16,-0.426C0.147,-0.42 0.136,-0.411 0.128,-0.399C0.119,-0.387 0.115,-0.373 0.115,-0.356C0.115,-0.344 0.118,-0.333 0.123,-0.323C0.128,-0.313 0.136,-0.305 0.146,-0.299C0.156,-0.293 0.167,-0.289 0.179,-0.286L0.232,-0.272C0.278,-0.261 0.31,-0.252 0.33,-0.244C0.35,-0.236 0.365,-0.223 0.375,-0.207C0.386,-0.19 0.392,-0.17 0.392,-0.147C0.392,-0.102 0.373,-0.063 0.336,-0.031C0.299,0.001 0.251,0.017 0.193,0.017C0.172,0.017 0.147,0.015 0.116,0.01C0.086,0.006 0.06,0.001 0.039,-0.005L0.036,-0.011L0.041,-0.044C0.043,-0.054 0.044,-0.064 0.044,-0.074C0.044,-0.085 0.045,-0.106 0.045,-0.139L0.049,-0.144Z" style="fill-rule:nonzero;"/>
        </g>
        <g transform="matrix(37.5,0,0,37.5,101.165,97.8859)">
            <path d="M0.432,-0.072L0.416,-0.037C0.382,-0.015 0.352,-0.001 0.325,0.006C0.299,0.012 0.275,0.016 0.254,0.016C0.215,0.016 0.178,0.008 0.143,-0.007C0.108,-0.023 0.08,-0.049 0.058,-0.085C0.036,-0.121 0.025,-0.165 0.025,-0.217C0.025,-0.251 0.029,-0.282 0.038,-0.309C0.046,-0.337 0.055,-0.357 0.064,-0.371C0.073,-0.384 0.089,-0.399 0.111,-0.415C0.133,-0.431 0.157,-0.444 0.182,-0.454C0.206,-0.464 0.233,-0.469 0.262,-0.469C0.301,-0.469 0.335,-0.46 0.365,-0.441C0.395,-0.423 0.416,-0.399 0.428,-0.371C0.44,-0.342 0.446,-0.312 0.446,-0.279C0.446,-0.269 0.445,-0.259 0.444,-0.25L0.439,-0.245C0.417,-0.24 0.387,-0.236 0.35,-0.235C0.312,-0.233 0.287,-0.232 0.275,-0.232L0.119,-0.232C0.119,-0.165 0.136,-0.115 0.169,-0.083C0.203,-0.052 0.243,-0.036 0.292,-0.036C0.314,-0.036 0.336,-0.04 0.357,-0.047C0.378,-0.055 0.4,-0.066 0.424,-0.08L0.432,-0.072ZM0.119,-0.271C0.125,-0.271 0.147,-0.269 0.186,-0.268C0.226,-0.267 0.255,-0.266 0.273,-0.266C0.319,-0.266 0.346,-0.267 0.356,-0.269C0.356,-0.276 0.356,-0.282 0.356,-0.287C0.356,-0.337 0.346,-0.375 0.326,-0.399C0.305,-0.424 0.277,-0.436 0.242,-0.436C0.203,-0.436 0.173,-0.422 0.151,-0.395C0.129,-0.367 0.119,-0.326 0.119,-0.271Z" style="fill-rule:nonzero;"/>
        </g>
        <g transform="matrix(37.5,0,0,37.5,119.128,97.8859)">
            <path d="M0.167,-0.465L0.176,-0.459C0.174,-0.437 0.173,-0.409 0.172,-0.373C0.198,-0.395 0.223,-0.416 0.247,-0.438C0.253,-0.445 0.26,-0.449 0.266,-0.452C0.272,-0.455 0.282,-0.458 0.296,-0.461C0.31,-0.465 0.324,-0.466 0.339,-0.466C0.364,-0.466 0.388,-0.461 0.411,-0.451C0.434,-0.441 0.452,-0.429 0.464,-0.415C0.476,-0.401 0.484,-0.385 0.488,-0.366C0.493,-0.347 0.495,-0.324 0.495,-0.296L0.495,-0.21C0.495,-0.205 0.496,-0.164 0.498,-0.089C0.498,-0.058 0.502,-0.04 0.508,-0.034C0.514,-0.028 0.534,-0.025 0.568,-0.025L0.572,-0.021L0.572,-0L0.568,0.004C0.527,0.001 0.499,-0 0.484,-0C0.476,-0 0.452,0.001 0.413,0.004L0.407,-0.001C0.411,-0.044 0.414,-0.099 0.414,-0.167L0.414,-0.231C0.414,-0.269 0.413,-0.297 0.411,-0.314C0.409,-0.331 0.404,-0.346 0.395,-0.36C0.385,-0.374 0.373,-0.385 0.358,-0.392C0.343,-0.4 0.324,-0.404 0.303,-0.404C0.286,-0.404 0.272,-0.402 0.26,-0.399C0.248,-0.395 0.234,-0.388 0.219,-0.378C0.204,-0.367 0.193,-0.357 0.186,-0.348C0.179,-0.339 0.175,-0.33 0.173,-0.322C0.172,-0.314 0.171,-0.297 0.171,-0.271L0.171,-0.186C0.171,-0.179 0.172,-0.156 0.173,-0.117C0.174,-0.078 0.176,-0.055 0.177,-0.049C0.178,-0.042 0.181,-0.038 0.184,-0.035C0.187,-0.032 0.19,-0.03 0.194,-0.029C0.199,-0.028 0.216,-0.027 0.247,-0.025L0.251,-0.021L0.251,-0L0.248,0.004C0.207,0.001 0.168,-0 0.13,-0C0.092,-0 0.053,0.001 0.013,0.004L0.008,-0L0.008,-0.021L0.013,-0.025C0.044,-0.027 0.062,-0.028 0.066,-0.029C0.07,-0.03 0.074,-0.032 0.077,-0.035C0.08,-0.038 0.082,-0.043 0.083,-0.05C0.084,-0.056 0.086,-0.077 0.087,-0.113C0.089,-0.148 0.089,-0.175 0.089,-0.193L0.089,-0.29C0.089,-0.303 0.089,-0.32 0.087,-0.343C0.086,-0.365 0.085,-0.379 0.084,-0.384C0.083,-0.389 0.081,-0.393 0.077,-0.396C0.072,-0.398 0.064,-0.399 0.051,-0.399L0.01,-0.4L0.006,-0.404L0.006,-0.425L0.01,-0.429C0.072,-0.436 0.124,-0.448 0.167,-0.465Z" style="fill-rule:nonzero;"/>
        </g>
        <g transform="matrix(37.5,0,0,37.5,140.954,97.8859)">
            <path d="M0.049,-0.144L0.07,-0.144L0.075,-0.139C0.075,-0.112 0.077,-0.088 0.08,-0.069C0.09,-0.054 0.107,-0.041 0.132,-0.031C0.157,-0.022 0.181,-0.017 0.205,-0.017C0.24,-0.017 0.267,-0.026 0.288,-0.045C0.309,-0.063 0.319,-0.086 0.319,-0.111C0.319,-0.125 0.315,-0.137 0.308,-0.148C0.3,-0.158 0.289,-0.166 0.274,-0.173C0.259,-0.18 0.231,-0.188 0.192,-0.197C0.159,-0.205 0.135,-0.211 0.122,-0.215C0.109,-0.219 0.096,-0.227 0.083,-0.237C0.071,-0.248 0.062,-0.26 0.055,-0.276C0.049,-0.291 0.045,-0.307 0.045,-0.326C0.045,-0.369 0.063,-0.404 0.097,-0.43C0.132,-0.457 0.175,-0.47 0.227,-0.47C0.249,-0.47 0.273,-0.467 0.298,-0.461C0.324,-0.455 0.344,-0.449 0.357,-0.443L0.361,-0.437C0.359,-0.424 0.357,-0.389 0.356,-0.334L0.352,-0.33L0.333,-0.33L0.328,-0.334C0.327,-0.354 0.325,-0.368 0.323,-0.376C0.32,-0.384 0.315,-0.392 0.305,-0.402C0.296,-0.411 0.282,-0.419 0.265,-0.425C0.248,-0.431 0.23,-0.435 0.21,-0.435C0.191,-0.435 0.174,-0.432 0.16,-0.426C0.147,-0.42 0.136,-0.411 0.128,-0.399C0.119,-0.387 0.115,-0.373 0.115,-0.356C0.115,-0.344 0.118,-0.333 0.123,-0.323C0.128,-0.313 0.136,-0.305 0.146,-0.299C0.156,-0.293 0.167,-0.289 0.179,-0.286L0.232,-0.272C0.278,-0.261 0.31,-0.252 0.33,-0.244C0.35,-0.236 0.365,-0.223 0.375,-0.207C0.386,-0.19 0.392,-0.17 0.392,-0.147C0.392,-0.102 0.373,-0.063 0.336,-0.031C0.299,0.001 0.251,0.017 0.193,0.017C0.172,0.017 0.147,0.015 0.116,0.01C0.086,0.006 0.06,0.001 0.039,-0.005L0.036,-0.011L0.041,-0.044C0.043,-0.054 0.044,-0.064 0.044,-0.074C0.044,-0.085 0.045,-0.106 0.045,-0.139L0.049,-0.144Z" style="fill-rule:nonzero;"/>
        </g>
        <g transform="matrix(37.5,0,0,37.5,156.847,97.8859)">
            <path d="M0.033,-0.224C0.033,-0.262 0.041,-0.3 0.057,-0.336C0.073,-0.372 0.101,-0.403 0.14,-0.429C0.18,-0.455 0.227,-0.468 0.281,-0.468C0.35,-0.468 0.405,-0.447 0.448,-0.404C0.491,-0.36 0.513,-0.305 0.513,-0.237C0.513,-0.163 0.488,-0.101 0.439,-0.053C0.389,-0.005 0.33,0.019 0.26,0.019C0.215,0.019 0.174,0.007 0.138,-0.018C0.102,-0.042 0.076,-0.072 0.059,-0.108C0.042,-0.143 0.033,-0.182 0.033,-0.224ZM0.125,-0.257C0.125,-0.212 0.131,-0.171 0.143,-0.135C0.155,-0.099 0.173,-0.07 0.199,-0.048C0.224,-0.027 0.253,-0.016 0.286,-0.016C0.324,-0.016 0.356,-0.031 0.381,-0.061C0.406,-0.092 0.418,-0.138 0.418,-0.199C0.418,-0.268 0.405,-0.325 0.378,-0.369C0.351,-0.413 0.311,-0.436 0.26,-0.436C0.218,-0.436 0.185,-0.42 0.161,-0.39C0.137,-0.359 0.125,-0.315 0.125,-0.257Z" style="fill-rule:nonzero;"/>
        </g>
        <g transform="matrix(37.5,0,0,37.5,177.319,97.8859)">
            <path d="M0.188,-0.465L0.197,-0.459C0.195,-0.44 0.193,-0.407 0.192,-0.358L0.229,-0.405C0.241,-0.42 0.252,-0.432 0.261,-0.44C0.27,-0.448 0.281,-0.455 0.293,-0.459C0.306,-0.464 0.319,-0.466 0.332,-0.466C0.346,-0.466 0.359,-0.463 0.372,-0.458L0.375,-0.451C0.37,-0.407 0.367,-0.369 0.367,-0.336L0.345,-0.336C0.332,-0.366 0.311,-0.381 0.282,-0.381C0.262,-0.381 0.244,-0.375 0.229,-0.362C0.214,-0.349 0.204,-0.333 0.199,-0.314C0.194,-0.294 0.191,-0.27 0.191,-0.24L0.191,-0.186C0.191,-0.176 0.192,-0.152 0.193,-0.114C0.195,-0.076 0.196,-0.054 0.198,-0.048C0.199,-0.042 0.201,-0.038 0.204,-0.035C0.207,-0.033 0.212,-0.031 0.217,-0.03C0.222,-0.029 0.245,-0.027 0.286,-0.025L0.291,-0.021L0.291,-0L0.286,0.004C0.243,0.001 0.198,-0 0.15,-0C0.113,-0 0.074,0.001 0.033,0.004L0.029,-0L0.029,-0.021L0.033,-0.025C0.065,-0.027 0.083,-0.028 0.087,-0.029C0.091,-0.03 0.094,-0.032 0.097,-0.035C0.101,-0.038 0.103,-0.043 0.104,-0.05C0.105,-0.056 0.106,-0.077 0.108,-0.113C0.109,-0.148 0.11,-0.175 0.11,-0.193L0.11,-0.29C0.11,-0.303 0.109,-0.32 0.108,-0.343C0.107,-0.365 0.106,-0.379 0.105,-0.384C0.104,-0.389 0.101,-0.393 0.097,-0.396C0.093,-0.398 0.084,-0.399 0.072,-0.399L0.031,-0.4L0.026,-0.404L0.026,-0.425L0.03,-0.429C0.092,-0.436 0.145,-0.448 0.188,-0.465Z" style="fill-rule:nonzero;"/>
        </g>
    </g>
    <g transform="matrix(1,0,0,1.02123,-5.92423,-66.5038)">
        <g transform="matrix(1,-0,-0,0.979209,5.92423,65.1211)">
            <path d="M556.624,249.815L549.047,239.713L541.471,249.815L556.624,249.815Z"/>
            <path d="M556.624,360.462L549.047,370.564L541.471,360.462L556.624,360.462Z"/>
            <path d="M549.047,247.795L549.047,362.482" style="fill:none;stroke:black;stroke-width:3.37px;"/>
        </g>
    </g>
    <g transform="matrix(1,0,0,2.11655,-400.974,-537.25)">
        <g transform="matrix(1,-0,-0,0.472468,400.974,253.833)">
            <path d="M161.574,107.5L153.998,97.398L146.421,107.5L161.574,107.5Z"/>
            <path d="M161.574,358.488L153.998,368.59L146.421,358.488L161.574,358.488Z"/>
            <path d="M153.998,105.479L153.998,360.508" style="fill:none;stroke:black;stroke-width:3.37px;"/>
        </g>
    </g>
    <g transform="matrix(4.16667,0,0,4.16667,438.886,280.591)">
        <g>
            <path d="M4.501,4.032C4.51,3.988 4.528,3.934 4.528,3.88C4.528,3.763 4.447,3.62 4.25,3.62C4.133,3.62 3.972,3.692 3.9,3.862C3.891,3.898 3.801,4.266 3.747,4.463L3.299,6.256C3.227,6.516 3.227,6.534 3.209,6.615C3.201,6.651 2.824,7.359 2.178,7.359C1.622,7.359 1.622,6.794 1.622,6.624C1.622,6.22 1.739,5.781 2.125,4.777C2.196,4.57 2.25,4.445 2.25,4.275C2.25,3.835 1.918,3.521 1.479,3.521C0.618,3.521 0.26,4.795 0.26,4.902C0.26,4.983 0.322,5.01 0.385,5.01C0.484,5.01 0.493,4.956 0.529,4.839C0.717,4.176 1.075,3.746 1.452,3.746C1.667,3.746 1.667,3.916 1.667,4.041C1.667,4.194 1.631,4.355 1.551,4.57C1.129,5.682 1.013,6.059 1.013,6.489C1.013,7.484 1.82,7.583 2.151,7.583C2.591,7.583 2.905,7.35 3.066,7.189C2.949,7.646 2.851,8.049 2.501,8.498C2.232,8.856 1.873,9.098 1.479,9.098C1.228,9.098 0.932,9.009 0.806,8.758C1.282,8.758 1.344,8.363 1.344,8.274C1.344,8.076 1.201,7.951 1.004,7.951C0.789,7.951 0.502,8.121 0.502,8.534C0.502,9 0.914,9.323 1.479,9.323C2.394,9.323 3.371,8.543 3.631,7.493L4.501,4.032Z" style="fill:rgb(35,31,32);fill-rule:nonzero;"/>
            <path d="M6.796,0.835C6.838,0.745 6.85,0.68 6.85,0.644C6.85,0.458 6.683,0.303 6.486,0.303C6.247,0.303 6.175,0.512 6.151,0.596L5.314,3.154C5.302,3.19 5.284,3.238 5.284,3.262C5.284,3.364 5.523,3.411 5.529,3.411C5.583,3.411 5.607,3.358 5.631,3.31L6.796,0.835Z" style="fill:rgb(35,31,32);fill-rule:nonzero;"/>
            <path d="M15.652,5.431C15.813,5.431 15.984,5.431 15.984,5.234C15.984,5.046 15.804,5.046 15.652,5.046L10.702,5.046C10.55,5.046 10.371,5.046 10.371,5.234C10.371,5.431 10.541,5.431 10.702,5.431L15.652,5.431Z" style="fill:rgb(35,31,32);fill-rule:nonzero;"/>
            <path d="M23.116,4.176C23.116,3.548 22.785,3.512 22.704,3.512C22.48,3.512 22.247,3.755 22.247,3.961C22.247,4.095 22.327,4.167 22.39,4.221C22.632,4.445 22.713,4.732 22.713,4.965C22.713,5.359 22.148,7.359 21.108,7.359C20.436,7.359 20.436,6.731 20.436,6.57C20.436,6.184 20.561,5.727 20.875,4.911C21.018,4.535 21.054,4.445 21.054,4.275C21.054,3.835 20.722,3.521 20.283,3.521C19.422,3.521 19.064,4.795 19.064,4.902C19.064,4.983 19.126,5.01 19.189,5.01C19.288,5.01 19.297,4.956 19.333,4.839C19.521,4.185 19.88,3.746 20.256,3.746C20.436,3.746 20.471,3.862 20.471,4.041C20.471,4.194 20.436,4.355 20.355,4.57C20.032,5.431 19.817,6.005 19.817,6.453C19.817,7.296 20.453,7.583 21.072,7.583C22.578,7.583 23.116,4.75 23.116,4.176Z" style="fill:rgb(35,31,32);fill-rule:nonzero;"/>
        </g>
    </g>
    <g transform="matrix(4.16667,0,0,4.16667,22.903,188.215)">
        <g>
            <path d="M4.701,4.152C4.71,4.108 4.728,4.054 4.728,4C4.728,3.883 4.647,3.74 4.45,3.74C4.333,3.74 4.172,3.812 4.1,3.982C4.091,4.018 4.001,4.386 3.947,4.583L3.499,6.376C3.427,6.636 3.427,6.654 3.409,6.735C3.401,6.771 3.024,7.479 2.378,7.479C1.822,7.479 1.822,6.914 1.822,6.744C1.822,6.34 1.939,5.901 2.325,4.897C2.396,4.69 2.45,4.565 2.45,4.395C2.45,3.955 2.118,3.641 1.679,3.641C0.818,3.641 0.46,4.915 0.46,5.022C0.46,5.103 0.522,5.13 0.585,5.13C0.684,5.13 0.693,5.076 0.729,4.959C0.917,4.296 1.275,3.866 1.652,3.866C1.867,3.866 1.867,4.036 1.867,4.161C1.867,4.314 1.831,4.475 1.751,4.69C1.329,5.802 1.213,6.179 1.213,6.609C1.213,7.604 2.02,7.703 2.351,7.703C2.791,7.703 3.105,7.47 3.266,7.309C3.149,7.766 3.051,8.169 2.701,8.618C2.432,8.976 2.073,9.218 1.679,9.218C1.428,9.218 1.132,9.129 1.006,8.878C1.482,8.878 1.544,8.483 1.544,8.394C1.544,8.196 1.401,8.071 1.204,8.071C0.989,8.071 0.702,8.241 0.702,8.654C0.702,9.12 1.114,9.443 1.679,9.443C2.594,9.443 3.571,8.663 3.831,7.613L4.701,4.152Z" style="fill:rgb(35,31,32);fill-rule:nonzero;"/>
            <path d="M6.996,1.075C7.038,0.985 7.05,0.92 7.05,0.884C7.05,0.698 6.883,0.543 6.686,0.543C6.447,0.543 6.375,0.752 6.351,0.836L5.514,3.394C5.502,3.43 5.484,3.478 5.484,3.502C5.484,3.604 5.723,3.651 5.729,3.651C5.783,3.651 5.807,3.598 5.831,3.55L6.996,1.075Z" style="fill:rgb(35,31,32);fill-rule:nonzero;"/>
            <path d="M15.852,5.551C16.013,5.551 16.184,5.551 16.184,5.354C16.184,5.166 16.004,5.166 15.852,5.166L10.902,5.166C10.75,5.166 10.571,5.166 10.571,5.354C10.571,5.551 10.741,5.551 10.902,5.551L15.852,5.551Z" style="fill:rgb(35,31,32);fill-rule:nonzero;"/>
            <path d="M23.316,4.296C23.316,3.668 22.985,3.632 22.904,3.632C22.68,3.632 22.447,3.875 22.447,4.081C22.447,4.215 22.527,4.287 22.59,4.341C22.832,4.565 22.913,4.852 22.913,5.085C22.913,5.479 22.348,7.479 21.308,7.479C20.636,7.479 20.636,6.851 20.636,6.69C20.636,6.304 20.761,5.847 21.075,5.031C21.218,4.655 21.254,4.565 21.254,4.395C21.254,3.955 20.922,3.641 20.483,3.641C19.622,3.641 19.264,4.915 19.264,5.022C19.264,5.103 19.326,5.13 19.389,5.13C19.488,5.13 19.497,5.076 19.533,4.959C19.721,4.305 20.08,3.866 20.456,3.866C20.636,3.866 20.671,3.982 20.671,4.161C20.671,4.314 20.636,4.475 20.555,4.69C20.232,5.551 20.017,6.125 20.017,6.573C20.017,7.416 20.653,7.703 21.272,7.703C22.778,7.703 23.316,4.87 23.316,4.296Z" style="fill:rgb(35,31,32);fill-rule:nonzero;"/>
            <rect x="0.188" y="10.976" width="23.64" height="0.48" style="fill:rgb(35,31,32);"/>
            <path d="M10.862,13.567C10.898,13.441 10.898,13.423 10.898,13.387C10.898,13.307 10.845,13.262 10.764,13.262C10.638,13.262 9.849,13.334 9.67,13.351C9.58,13.36 9.482,13.369 9.482,13.522C9.482,13.638 9.58,13.638 9.724,13.638C10.145,13.638 10.145,13.701 10.145,13.782C10.145,13.836 10.145,13.854 10.082,14.096L9.607,15.988C9.482,16.49 9.365,16.947 9.266,17.368C9.204,17.593 9.141,17.862 9.141,18.148C9.141,18.92 9.571,19.583 10.342,19.583C11.391,19.583 12.539,18.319 12.539,16.974C12.539,16.059 11.974,15.521 11.302,15.521C10.845,15.521 10.45,15.835 10.244,16.032L10.862,13.567ZM10.118,16.544C10.369,16.185 10.827,15.746 11.284,15.746C11.705,15.746 11.876,16.167 11.876,16.588C11.876,16.992 11.625,18.104 11.347,18.579C11.015,19.153 10.62,19.359 10.342,19.359C9.894,19.359 9.715,18.911 9.715,18.453C9.715,18.14 9.778,17.897 9.984,17.081L10.118,16.544Z" style="fill:rgb(35,31,32);fill-rule:nonzero;"/>
            <path d="M14.556,14.155C14.598,14.065 14.61,14 14.61,13.964C14.61,13.778 14.443,13.623 14.246,13.623C14.007,13.623 13.935,13.832 13.911,13.916L13.074,16.474C13.062,16.51 13.044,16.558 13.044,16.582C13.044,16.684 13.283,16.731 13.289,16.731C13.343,16.731 13.367,16.678 13.391,16.63L14.556,14.155Z" style="fill:rgb(35,31,32);fill-rule:nonzero;"/>
            <path d="M27.182,7.567C27.218,7.441 27.218,7.423 27.218,7.387C27.218,7.307 27.165,7.262 27.084,7.262C26.958,7.262 26.169,7.334 25.99,7.351C25.9,7.36 25.802,7.369 25.802,7.522C25.802,7.638 25.9,7.638 26.044,7.638C26.465,7.638 26.465,7.701 26.465,7.782C26.465,7.836 26.465,7.854 26.402,8.096L25.927,9.988C25.802,10.49 25.685,10.947 25.586,11.368C25.524,11.593 25.461,11.862 25.461,12.148C25.461,12.92 25.891,13.583 26.662,13.583C27.711,13.583 28.859,12.319 28.859,10.974C28.859,10.059 28.294,9.521 27.622,9.521C27.165,9.521 26.77,9.835 26.564,10.032L27.182,7.567ZM26.438,10.544C26.689,10.185 27.147,9.746 27.604,9.746C28.025,9.746 28.196,10.167 28.196,10.588C28.196,10.992 27.945,12.104 27.667,12.579C27.335,13.153 26.94,13.359 26.662,13.359C26.214,13.359 26.035,12.911 26.035,12.453C26.035,12.14 26.098,11.897 26.304,11.081L26.438,10.544Z" style="fill:rgb(35,31,32);fill-rule:nonzero;"/>
        </g>
    </g>
    <path d="M119.929,92.381L173.13,92.381" style="fill:none;stroke:black;stroke-width:3.37px;stroke-linecap:square;stroke-dasharray:3.37,10.1,0,0;"/>
    <g transform="matrix(1,0,0,1,398.751,141.009)">
        <path d="M119.929,92.381L173.13,92.381" style="fill:none;stroke:black;stroke-width:3.37px;stroke-linecap:square;stroke-dasharray:3.37,10.1,0,0;"/>
    </g>
</svg>
