<?xml version="1.0" encoding="UTF-8" standalone="no"?>
<!DOCTYPE svg PUBLIC "-//W3C//DTD SVG 1.1//EN" "http://www.w3.org/Graphics/SVG/1.1/DTD/svg11.dtd">
<svg width="100%" height="100%" viewBox="0 0 473 355" version="1.1" xmlns="http://www.w3.org/2000/svg" xmlns:xlink="http://www.w3.org/1999/xlink" xml:space="preserve" xmlns:serif="http://www.serif.com/" style="fill-rule:evenodd;clip-rule:evenodd;stroke-linecap:round;stroke-linejoin:round;stroke-miterlimit:1.5;">
    <g transform="matrix(1.25374,0,0,1.16471,-39.0255,-20.6589)">
        <g transform="matrix(0.797614,-0,-0,0.858584,31.1273,17.7374)">
            <path d="M92.99,49.71L84.151,37.924L75.312,49.71L92.99,49.71Z"/>
            <path d="M84.151,47.353L84.151,299.868" style="fill:none;stroke:black;stroke-width:3.93px;"/>
        </g>
    </g>
    <g transform="matrix(1.25374,0,0,1.16471,218.273,-20.6589)">
        <g transform="matrix(0.797614,-0,-0,0.858584,-174.097,17.7374)">
            <path d="M350.288,49.71L341.449,37.924L332.61,49.71L350.288,49.71Z"/>
            <path d="M341.449,47.353L341.449,299.868" style="fill:none;stroke:black;stroke-width:3.93px;"/>
        </g>
    </g>
    <g id="klftmpexporter4x1x0xpe2008">
    </g>
    <g id="klftmpexporter4x1x0xth2008" transform="matrix(2.86878,0,0,-2.86878,178.079,173.899)">
        <g id="path14" transform="matrix(0.1,0,0,0.1,-34.9264,49.3325)">
            <path d="M46.281,62.844C46.672,64.234 46.672,64.438 46.672,65.125C46.672,66.922 45.281,67.813 43.797,67.813C42.797,67.813 41.219,67.219 40.313,65.734C40.125,65.234 39.328,62.156 38.922,60.359C38.234,57.781 37.531,55.094 36.938,52.422L32.469,34.531C32.078,33.047 27.797,26.094 21.25,26.094C16.172,26.094 15.094,30.469 15.094,34.141C15.094,38.703 16.781,44.875 20.156,53.609C21.734,57.688 22.141,58.781 22.141,60.766C22.141,65.234 18.953,68.906 14,68.906C4.563,68.906 0.875,54.5 0.875,53.609C0.875,52.609 1.875,52.609 2.078,52.609C3.063,52.609 3.172,52.813 3.656,54.406C6.344,63.734 10.313,66.719 13.688,66.719C14.484,66.719 16.172,66.719 16.172,63.547C16.172,61.063 15.188,58.484 14.484,56.594C10.516,46.063 8.734,40.391 8.734,35.734C8.734,26.891 14.984,23.906 20.844,23.906C24.719,23.906 28.094,25.594 30.875,28.375C29.594,23.219 28.391,18.344 24.422,13.078C21.844,9.703 18.063,6.828 13.5,6.828C12.109,6.828 7.641,7.125 5.953,11C7.531,11 8.828,11 10.219,12.188C11.219,13.078 12.203,14.375 12.203,16.266C12.203,19.344 9.516,19.734 8.531,19.734C6.25,19.734 2.969,18.141 2.969,13.281C2.969,8.313 7.344,4.641 13.5,4.641C23.734,4.641 33.953,13.672 36.734,24.906L46.281,62.844" style="fill-rule:nonzero;"/>
        </g>
        <g id="path16" transform="matrix(0.1,0,0,0.1,47.3517,49.3284)">
            <path d="M112.484,61.953C112.484,67.313 109.906,68.906 108.125,68.906C105.641,68.906 103.25,66.328 103.25,64.141C103.25,62.844 103.75,62.25 104.844,61.156C106.922,59.172 108.219,56.594 108.219,53.016C108.219,48.844 102.156,26.094 90.531,26.094C85.469,26.094 83.187,29.563 83.187,34.734C83.187,40.297 85.875,47.547 88.953,55.797C89.641,57.484 90.141,58.875 90.141,60.766C90.141,65.234 86.953,68.906 82,68.906C72.656,68.906 68.875,54.5 68.875,53.609C68.875,52.609 69.875,52.609 70.078,52.609C71.063,52.609 71.172,52.813 71.656,54.406C74.547,64.438 78.813,66.719 81.688,66.719C82.484,66.719 84.172,66.719 84.172,63.547C84.172,61.063 83.188,58.375 82.484,56.594C78.125,45.063 76.828,40.5 76.828,36.219C76.828,25.5 85.563,23.906 90.141,23.906C106.828,23.906 112.484,56.781 112.484,61.953" style="fill-rule:nonzero;"/>
        </g>
    </g>
    <g id="klftmpexporter4x1x0xOW2008" transform="matrix(2.78522,-4.91274e-32,-4.91274e-32,-2.78522,165.014,123.602)">
        <g transform="matrix(1,0,0,1,-40.9706,-43.1489)">
            <g id="path18" transform="matrix(0.1,0,0,0.1,0,1.42109e-14)">
                <path d="M168.875,5.156C168.875,5.453 168.875,5.656 167.188,7.344C154.781,19.859 151.594,38.641 151.594,53.828C151.594,71.125 155.375,88.406 167.594,100.828C168.875,102.016 168.875,102.219 168.875,102.516C168.875,103.203 168.484,103.5 167.891,103.5C166.891,103.5 157.953,96.75 152.094,84.125C147.031,73.203 145.828,62.172 145.828,53.828C145.828,46.094 146.922,34.063 152.391,22.844C158.344,10.625 166.891,4.172 167.891,4.172C168.484,4.172 168.875,4.469 168.875,5.156" style="fill-rule:nonzero;"/>
            </g>
            <g id="path20" transform="matrix(0.1,0,0,0.1,0,1.42109e-14)">
                <path d="M178.469,16.875C177.672,13.5 177.484,12.813 173.109,12.813C171.906,12.813 170.828,12.813 170.828,10.922C170.828,10.125 171.313,9.734 172.109,9.734C174.797,9.734 177.672,10.031 180.453,10.031C183.734,10.031 187.109,9.734 190.297,9.734C190.781,9.734 192.078,9.734 192.078,11.719C192.078,12.813 191.094,12.813 189.688,12.813C184.734,12.813 184.734,13.5 184.734,14.391C184.734,15.594 188.906,31.781 189.594,34.266C190.891,31.391 193.672,27.906 198.734,27.906C210.266,27.906 222.672,42.406 222.672,57.016C222.672,66.344 217.016,72.906 209.469,72.906C204.5,72.906 199.734,69.328 196.453,65.453C195.453,70.828 191.188,72.906 187.516,72.906C182.938,72.906 181.047,69.031 180.156,67.25C178.375,63.875 177.078,57.906 177.078,57.609C177.078,56.609 178.078,56.609 178.266,56.609C179.266,56.609 179.359,56.719 179.953,58.906C181.656,65.953 183.641,70.719 187.219,70.719C188.906,70.719 190.297,69.922 190.297,66.156C190.297,63.875 190,62.781 189.594,61.078L178.469,16.875ZM195.953,60C196.656,62.672 199.328,65.453 201.125,66.953C204.594,70.031 207.484,70.719 209.172,70.719C213.141,70.719 215.516,67.25 215.516,61.391C215.516,55.516 212.25,44.094 210.453,40.328C207.078,33.375 202.313,30.094 198.641,30.094C192.078,30.094 190.781,38.344 190.781,38.938C190.781,39.125 190.781,39.328 191.094,40.516L195.953,60" style="fill-rule:nonzero;"/>
            </g>
            <g id="path22" transform="matrix(0.1,0,0,0.1,0,1.42109e-14)">
                <path d="M241.5,21.453C240.797,19.063 238.484,15.266 234.891,15.266C234.688,15.266 232.578,15.266 231.094,16.25C233.984,17.156 234.188,19.688 234.188,20.109C234.188,21.656 233,22.719 231.375,22.719C229.406,22.719 227.375,21.031 227.375,18.422C227.375,14.906 231.313,13.297 234.75,13.297C237.984,13.297 240.875,15.328 242.625,18.281C244.313,14.563 248.188,13.297 251,13.297C259.078,13.297 263.375,22.078 263.375,24.047C263.375,24.969 262.453,24.969 262.25,24.969C261.266,24.969 261.188,24.609 260.906,23.766C259.438,18.922 255.219,15.266 251.281,15.266C248.469,15.266 246.984,17.156 246.984,19.828C246.984,21.656 248.672,28.063 250.641,35.859C252.047,41.281 255.219,43.031 257.531,43.031C257.672,43.031 259.859,43.031 261.328,42.047C259.078,41.422 258.234,39.453 258.234,38.188C258.234,36.641 259.438,35.578 261.047,35.578C262.672,35.578 264.984,36.922 264.984,39.875C264.984,43.813 260.484,45 257.672,45C254.156,45 251.344,42.688 249.797,40.016C248.531,42.891 245.297,45 241.359,45C233.484,45 228.984,36.359 228.984,34.25C228.984,33.328 229.969,33.328 230.188,33.328C231.094,33.328 231.172,33.609 231.516,34.531C233.281,40.016 237.703,43.031 241.156,43.031C243.469,43.031 245.375,41.766 245.375,38.391C245.375,36.984 244.531,33.469 243.891,31.078L241.5,21.453" style="fill-rule:nonzero;"/>
            </g>
            <g id="path24" transform="matrix(0.1,0,0,0.1,0,1.42109e-14)">
                <path d="M295.172,29.094C295.172,35.656 292.688,39.531 288.813,39.531C285.531,39.531 283.547,37.047 283.547,34.266C283.547,31.578 285.531,29 288.813,29C290,29 291.297,29.391 292.281,30.297C292.578,30.484 292.688,30.594 292.781,30.594C292.875,30.594 292.984,30.484 292.984,29.094C292.984,21.75 289.5,15.781 286.219,12.516C285.125,11.422 285.125,11.219 285.125,10.922C285.125,10.219 285.625,9.828 286.125,9.828C287.219,9.828 295.172,17.484 295.172,29.094" style="fill-rule:nonzero;"/>
            </g>
            <g id="path26" transform="matrix(0.1,0,0,0.1,0,1.42109e-14)">
                <path d="M323.469,16.875C322.672,13.5 322.484,12.813 318.109,12.813C316.906,12.813 315.828,12.813 315.828,10.922C315.828,10.125 316.313,9.734 317.109,9.734C319.797,9.734 322.672,10.031 325.453,10.031C328.734,10.031 332.109,9.734 335.297,9.734C335.781,9.734 337.078,9.734 337.078,11.719C337.078,12.813 336.094,12.813 334.688,12.813C329.734,12.813 329.734,13.5 329.734,14.391C329.734,15.594 333.906,31.781 334.594,34.266C335.891,31.391 338.672,27.906 343.734,27.906C355.266,27.906 367.672,42.406 367.672,57.016C367.672,66.344 362.016,72.906 354.469,72.906C349.5,72.906 344.734,69.328 341.453,65.453C340.453,70.828 336.188,72.906 332.516,72.906C327.938,72.906 326.047,69.031 325.156,67.25C323.375,63.875 322.078,57.906 322.078,57.609C322.078,56.609 323.078,56.609 323.266,56.609C324.266,56.609 324.359,56.719 324.953,58.906C326.656,65.953 328.641,70.719 332.219,70.719C333.906,70.719 335.297,69.922 335.297,66.156C335.297,63.875 335,62.781 334.594,61.078L323.469,16.875ZM340.953,60C341.656,62.672 344.328,65.453 346.125,66.953C349.594,70.031 352.484,70.719 354.172,70.719C358.141,70.719 360.516,67.25 360.516,61.391C360.516,55.516 357.25,44.094 355.453,40.328C352.078,33.375 347.313,30.094 343.641,30.094C337.078,30.094 335.781,38.344 335.781,38.938C335.781,39.125 335.781,39.328 336.094,40.516L340.953,60" style="fill-rule:nonzero;"/>
            </g>
            <g id="path28" transform="matrix(0.1,0,0,0.1,0,1.42109e-14)">
                <path d="M409.094,40.5C409.375,41.484 409.375,41.625 409.375,42.047C409.375,43.453 408.25,44.297 407.047,44.297C406.281,44.297 404.938,43.953 404.172,42.609C403.953,42.188 403.391,39.938 403.047,38.531L401.563,32.703C401.141,31.016 398.969,22.156 398.75,21.375C398.688,21.375 395.594,15.266 390.109,15.266C385.328,15.266 385.328,19.828 385.328,21.094C385.328,24.891 386.938,29.328 389.047,34.734C389.891,36.984 390.25,37.828 390.25,39.031C390.25,42.406 387.359,45 383.563,45C376.469,45 373.297,35.437 373.297,34.25C373.297,33.328 374.281,33.328 374.5,33.328C375.484,33.328 375.547,33.687 375.766,34.453C377.516,40.297 380.547,43.031 383.359,43.031C384.547,43.031 385.109,42.266 385.109,40.578C385.109,38.953 384.484,37.406 384.125,36.5C380.75,27.922 380.047,25.312 380.047,22.219C380.047,21.031 380.047,17.719 382.797,15.469C384.969,13.656 387.922,13.297 389.828,13.297C392.641,13.297 395.172,14.344 397.484,16.453C396.578,12.594 395.797,9.641 392.844,6.125C390.953,3.953 388.141,1.625 384.406,1.625C383.922,1.625 380.609,1.625 379.141,3.953C382.938,4.375 382.938,7.75 382.938,7.812C382.938,10.062 380.891,10.484 380.188,10.484C378.438,10.484 376.109,9.078 376.109,5.844C376.109,2.266 379.484,-0.344 384.484,-0.344C391.578,-0.344 400.234,5.141 402.406,13.937L409.094,40.5" style="fill-rule:nonzero;"/>
            </g>
            <g id="path30" transform="matrix(0.1,0,0,0.1,0,1.42109e-14)">
                <path d="M444.703,53.828C444.703,61.578 443.609,73.609 438.156,84.828C432.188,97.047 423.656,103.5 422.656,103.5C422.063,103.5 421.656,103.109 421.656,102.516C421.656,102.219 421.656,102.016 423.547,100.219C433.281,90.391 438.953,74.594 438.953,53.828C438.953,36.844 435.266,19.359 422.953,6.844C421.656,5.656 421.656,5.453 421.656,5.156C421.656,4.563 422.063,4.172 422.656,4.172C423.656,4.172 432.594,10.922 438.453,23.531C443.516,34.469 444.703,45.484 444.703,53.828" style="fill-rule:nonzero;"/>
            </g>
            <g id="path32" transform="matrix(0.1,0,0,0.1,0,1.42109e-14)">
                <path d="M481.156,94.406L490.578,94.406C491.563,94.406 494.938,94.406 494.938,97.859C494.938,101.297 491.484,101.297 490.578,101.297L464.844,101.297C463.859,101.297 460.484,101.297 460.484,97.859C460.484,94.406 463.922,94.406 464.844,94.406L474.266,94.406L474.266,60.391C474.266,59.406 474.266,56.031 477.703,56.031C481.156,56.031 481.156,59.469 481.156,60.391L481.156,94.406" style="fill-rule:nonzero;"/>
            </g>
        </g>
        <g transform="matrix(1,0,0,1,13.0554,-19.0655)">
            <g id="path34" transform="matrix(0.1,0,0,0.1,0,1.42109e-14)">
                <path d="M554.875,5.156C554.875,5.453 554.875,5.656 553.188,7.344C540.781,19.859 537.594,38.641 537.594,53.828C537.594,71.125 541.375,88.406 553.594,100.828C554.875,102.016 554.875,102.219 554.875,102.516C554.875,103.203 554.484,103.5 553.891,103.5C552.891,103.5 543.953,96.75 538.094,84.125C533.031,73.203 531.828,62.172 531.828,53.828C531.828,46.094 532.922,34.063 538.391,22.844C544.344,10.625 552.891,4.172 553.891,4.172C554.484,4.172 554.875,4.469 554.875,5.156" style="fill-rule:nonzero;"/>
            </g>
            <g id="path36" transform="matrix(0.1,0,0,0.1,0,1.42109e-14)">
                <path d="M604.906,71.813C604.906,72.219 604.609,72.813 603.906,72.813C602.813,72.813 598.844,68.828 597.156,65.953C594.969,71.313 591.094,72.906 587.906,72.906C576.188,72.906 563.969,58.203 563.969,43.797C563.969,34.063 569.828,27.906 577.094,27.906C581.359,27.906 585.234,30.297 588.813,33.875C587.906,30.391 584.641,16.984 584.344,16.094C583.547,13.313 582.75,12.906 577.188,12.813C575.891,12.813 574.906,12.813 574.906,10.828C574.906,10.719 574.906,9.734 576.188,9.734C579.375,9.734 582.844,10.031 586.125,10.031C589.5,10.031 593.078,9.734 596.359,9.734C596.859,9.734 598.141,9.734 598.141,11.719C598.141,12.813 597.156,12.813 595.563,12.813C590.797,12.813 590.797,13.5 590.797,14.391C590.797,15.094 591,15.688 591.188,16.578L604.906,71.813ZM577.391,30.094C571.422,30.094 571.031,37.734 571.031,39.438C571.031,44.203 573.906,55.031 575.594,59.203C578.672,66.547 583.844,70.719 587.906,70.719C594.375,70.719 595.766,62.672 595.766,61.984C595.766,61.391 590.297,39.625 590,39.234C588.516,36.453 582.953,30.094 577.391,30.094" style="fill-rule:nonzero;"/>
            </g>
            <g id="path38" transform="matrix(0.1,0,0,0.1,0,1.42109e-14)">
                <path d="M634.734,25.391C634.391,23.984 633.75,21.313 633.609,21.234C632.281,19.063 629.469,15.266 625.109,15.266C620.25,15.266 620.25,19.828 620.25,21.094C620.25,25.25 622.219,30.234 624.188,35.375C624.75,36.781 625.172,37.828 625.172,38.953C625.172,42.609 622.078,45 618.5,45C611.469,45 608.297,35.375 608.297,34.25C608.297,33.328 609.281,33.328 609.5,33.328C610.484,33.328 610.547,33.688 610.766,34.453C612.453,40.219 615.547,43.031 618.281,43.031C619.484,43.031 620.047,42.266 620.047,40.578C620.047,38.953 619.484,37.484 618.781,35.859C614.984,26.156 614.984,24.125 614.984,22.219C614.984,21.031 614.984,17.797 617.578,15.547C619.625,13.859 622.359,13.297 624.828,13.297C629.25,13.297 631.641,15.688 633.969,17.938C635.516,13.438 640.219,13.297 641.063,13.297C643.453,13.297 645.281,14.703 646.625,17.016C648.172,19.766 649.156,23.844 649.156,24.047C649.156,24.969 648.172,24.969 647.953,24.969C646.969,24.969 646.906,24.688 646.406,22.781C645.563,19.484 644.234,15.266 641.281,15.266C639.453,15.266 638.953,16.875 638.953,18.703C638.953,19.906 639.516,22.438 640.016,24.266C640.5,26.156 641.203,29.047 641.563,30.594L643.172,36.844C643.594,38.609 644.375,41.703 644.375,42.047C644.375,43.453 643.25,44.297 642.047,44.297C639.453,44.297 638.953,42.266 638.391,40.016L634.734,25.391" style="fill-rule:nonzero;"/>
            </g>
            <g id="path40" transform="matrix(0.1,0,0,0.1,0,1.42109e-14)">
                <path d="M678.172,29.094C678.172,35.656 675.688,39.531 671.813,39.531C668.531,39.531 666.547,37.047 666.547,34.266C666.547,31.578 668.531,29 671.813,29C673,29 674.297,29.391 675.281,30.297C675.578,30.484 675.688,30.594 675.781,30.594C675.875,30.594 675.984,30.484 675.984,29.094C675.984,21.75 672.5,15.781 669.219,12.516C668.125,11.422 668.125,11.219 668.125,10.922C668.125,10.219 668.625,9.828 669.125,9.828C670.219,9.828 678.172,17.484 678.172,29.094" style="fill-rule:nonzero;"/>
            </g>
            <g id="path42" transform="matrix(0.1,0,0,0.1,0,1.42109e-14)">
                <path d="M746.906,71.813C746.906,72.219 746.609,72.813 745.906,72.813C744.813,72.813 740.844,68.828 739.156,65.953C736.969,71.313 733.094,72.906 729.906,72.906C718.188,72.906 705.969,58.203 705.969,43.797C705.969,34.063 711.828,27.906 719.094,27.906C723.359,27.906 727.234,30.297 730.813,33.875C729.906,30.391 726.641,16.984 726.344,16.094C725.547,13.313 724.75,12.906 719.188,12.813C717.891,12.813 716.906,12.813 716.906,10.828C716.906,10.719 716.906,9.734 718.188,9.734C721.375,9.734 724.844,10.031 728.125,10.031C731.5,10.031 735.078,9.734 738.359,9.734C738.859,9.734 740.141,9.734 740.141,11.719C740.141,12.813 739.156,12.813 737.563,12.813C732.797,12.813 732.797,13.5 732.797,14.391C732.797,15.094 733,15.688 733.188,16.578L746.906,71.813ZM719.391,30.094C713.422,30.094 713.031,37.734 713.031,39.438C713.031,44.203 715.906,55.031 717.594,59.203C720.672,66.547 725.844,70.719 729.906,70.719C736.375,70.719 737.766,62.672 737.766,61.984C737.766,61.391 732.297,39.625 732,39.234C730.516,36.453 724.953,30.094 719.391,30.094" style="fill-rule:nonzero;"/>
            </g>
            <g id="path44" transform="matrix(0.1,0,0,0.1,0,1.42109e-14)">
                <path d="M783.547,39.516C783.547,45 780.234,45.078 780.031,45.078C778.203,45.078 776.234,43.172 776.234,41.344C776.234,40.156 776.938,39.594 777.422,39.172C778.625,38.188 780.031,36.359 780.031,33.547C780.031,30.375 775.391,15.266 767.016,15.266C761.328,15.266 761.328,20.328 761.328,21.516C761.328,24.75 762.594,28.688 765.188,35.234C765.75,36.703 766.172,37.766 766.172,38.953C766.172,42.609 763.078,45 759.5,45C752.469,45 749.297,35.375 749.297,34.25C749.297,33.328 750.281,33.328 750.5,33.328C751.484,33.328 751.547,33.688 751.766,34.453C753.453,40.219 756.469,43.031 759.281,43.031C760.484,43.031 761.047,42.266 761.047,40.578C761.047,38.953 760.484,37.484 759.781,35.859C756.75,28.063 755.984,25.031 755.984,22.5C755.984,15.547 761.469,13.297 766.813,13.297C778.625,13.297 783.547,33.75 783.547,39.516" style="fill-rule:nonzero;"/>
            </g>
            <g id="path46" transform="matrix(0.1,0,0,0.1,0,1.42109e-14)">
                <path d="M821.703,53.828C821.703,61.578 820.609,73.609 815.156,84.828C809.188,97.047 800.656,103.5 799.656,103.5C799.063,103.5 798.656,103.109 798.656,102.516C798.656,102.219 798.656,102.016 800.547,100.219C810.281,90.391 815.953,74.594 815.953,53.828C815.953,36.844 812.266,19.359 799.953,6.844C798.656,5.656 798.656,5.453 798.656,5.156C798.656,4.563 799.063,4.172 799.656,4.172C800.656,4.172 809.594,10.922 815.453,23.531C820.516,34.469 821.703,45.484 821.703,53.828" style="fill-rule:nonzero;"/>
            </g>
            <g id="path48" transform="matrix(0.1,0,0,0.1,0,1.42109e-14)">
                <path d="M858.156,94.406L867.578,94.406C868.563,94.406 871.938,94.406 871.938,97.859C871.938,101.297 868.484,101.297 867.578,101.297L841.844,101.297C840.859,101.297 837.484,101.297 837.484,97.859C837.484,94.406 840.922,94.406 841.844,94.406L851.266,94.406L851.266,60.391C851.266,59.406 851.266,56.031 854.703,56.031C858.156,56.031 858.156,59.469 858.156,60.391L858.156,94.406" style="fill-rule:nonzero;"/>
            </g>
        </g>
        <g transform="matrix(0.415946,0.0143707,-0.0143707,-0.362667,-82.9987,39.9625)">
            <g transform="matrix(0.864367,0.0342506,0.0342506,0.991351,56.7619,-9.92528)">
                <path d="M48.798,206.016L39.535,217.472L53.126,223.157L48.798,206.016Z" style="fill:rgb(0,174,239);"/>
                <path d="M48.677,215.164C109.78,199.734 456.511,112.175 456.511,112.175" style="fill:none;stroke:rgb(0,174,239);stroke-width:3.93px;"/>
            </g>
        </g>
        <g transform="matrix(0.296415,-5.22834e-33,-5.22834e-33,-0.296415,-53.5545,22.8724)">
            <circle cx="82.565" cy="177.185" r="8.61"/>
        </g>
        <g transform="matrix(0.296415,-5.22834e-33,-5.22834e-33,-0.296415,38.8543,45.889)">
            <circle cx="82.565" cy="177.185" r="8.61"/>
        </g>
        <g transform="matrix(0.359038,-6.33292e-33,-6.33292e-33,-0.359038,-75.9895,26.5345)">
            <g transform="matrix(37.5,0,0,37.5,178.381,86.8413)">
                <path d="M0.018,-0.687L0.022,-0.69C0.103,-0.687 0.149,-0.686 0.162,-0.686C0.173,-0.686 0.219,-0.687 0.302,-0.69L0.306,-0.687L0.306,-0.662L0.302,-0.659C0.279,-0.658 0.262,-0.657 0.25,-0.656C0.238,-0.654 0.229,-0.652 0.223,-0.648C0.218,-0.645 0.214,-0.636 0.212,-0.623C0.21,-0.61 0.209,-0.592 0.209,-0.568L0.208,-0.456L0.208,-0.24C0.208,-0.186 0.209,-0.148 0.209,-0.127L0.212,-0.042L0.312,-0.042C0.391,-0.042 0.441,-0.043 0.46,-0.045C0.48,-0.047 0.499,-0.052 0.517,-0.06C0.521,-0.068 0.526,-0.086 0.532,-0.116C0.539,-0.145 0.543,-0.162 0.543,-0.167L0.547,-0.17L0.571,-0.17L0.575,-0.167C0.572,-0.153 0.569,-0.128 0.567,-0.091C0.564,-0.053 0.563,-0.023 0.563,-0L0.559,0.004C0.497,0.002 0.416,0.001 0.315,0.001L0.172,-0C0.14,-0 0.107,0.001 0.073,0.004L0.069,-0L0.069,-0.016L0.073,-0.021C0.093,-0.031 0.104,-0.038 0.106,-0.04C0.108,-0.042 0.11,-0.063 0.112,-0.103C0.114,-0.143 0.115,-0.191 0.115,-0.247L0.115,-0.456L0.114,-0.551C0.114,-0.588 0.113,-0.612 0.112,-0.623C0.11,-0.634 0.108,-0.641 0.105,-0.645C0.102,-0.648 0.096,-0.651 0.087,-0.653C0.078,-0.656 0.056,-0.657 0.022,-0.659L0.018,-0.662L0.018,-0.687Z" style="fill:rgb(0,174,239);fill-rule:nonzero;"/>
            </g>
            <g transform="matrix(37.5,0,0,37.5,201.287,86.8413)">
                <path d="M0.141,-0.684C0.156,-0.684 0.169,-0.678 0.18,-0.667C0.19,-0.657 0.196,-0.644 0.196,-0.628C0.196,-0.613 0.19,-0.601 0.18,-0.59C0.169,-0.579 0.156,-0.574 0.141,-0.574C0.126,-0.574 0.113,-0.579 0.102,-0.59C0.091,-0.6 0.085,-0.613 0.085,-0.628C0.085,-0.644 0.091,-0.657 0.102,-0.667C0.113,-0.678 0.126,-0.684 0.141,-0.684ZM0.182,-0.465L0.191,-0.459C0.188,-0.416 0.186,-0.362 0.186,-0.296L0.186,-0.186C0.186,-0.179 0.187,-0.156 0.188,-0.117C0.189,-0.078 0.191,-0.055 0.192,-0.049C0.194,-0.042 0.196,-0.038 0.199,-0.035C0.202,-0.032 0.205,-0.03 0.209,-0.029C0.214,-0.028 0.231,-0.027 0.262,-0.025L0.267,-0.021L0.267,-0L0.263,0.004C0.222,0.001 0.183,-0 0.145,-0C0.108,-0 0.069,0.001 0.028,0.004L0.023,-0L0.023,-0.021L0.028,-0.025C0.059,-0.027 0.077,-0.028 0.081,-0.029C0.085,-0.03 0.089,-0.032 0.092,-0.035C0.095,-0.038 0.097,-0.043 0.098,-0.05C0.1,-0.056 0.101,-0.077 0.102,-0.113C0.104,-0.148 0.104,-0.175 0.104,-0.193L0.104,-0.29C0.104,-0.303 0.104,-0.32 0.103,-0.343C0.101,-0.365 0.1,-0.379 0.099,-0.384C0.099,-0.389 0.096,-0.393 0.092,-0.396C0.088,-0.398 0.079,-0.399 0.066,-0.399L0.025,-0.4L0.021,-0.404L0.021,-0.425L0.025,-0.429C0.087,-0.436 0.139,-0.448 0.182,-0.465Z" style="fill:rgb(0,174,239);fill-rule:nonzero;"/>
            </g>
            <g transform="matrix(37.5,0,0,37.5,212.2,86.8413)">
                <path d="M0.539,-0.432L0.542,-0.423C0.529,-0.402 0.521,-0.389 0.518,-0.383L0.427,-0.383C0.436,-0.365 0.44,-0.346 0.44,-0.327C0.44,-0.304 0.435,-0.281 0.425,-0.259C0.414,-0.237 0.399,-0.219 0.38,-0.204C0.361,-0.188 0.34,-0.176 0.316,-0.167C0.292,-0.158 0.265,-0.153 0.234,-0.153L0.212,-0.153C0.193,-0.138 0.18,-0.127 0.175,-0.119C0.169,-0.112 0.167,-0.104 0.167,-0.096C0.167,-0.082 0.173,-0.072 0.186,-0.066C0.199,-0.06 0.227,-0.057 0.268,-0.057L0.377,-0.059C0.412,-0.059 0.438,-0.055 0.457,-0.046C0.475,-0.038 0.49,-0.024 0.501,-0.003C0.513,0.018 0.519,0.041 0.519,0.064C0.519,0.1 0.507,0.135 0.484,0.171C0.46,0.207 0.427,0.234 0.383,0.252C0.339,0.271 0.292,0.28 0.242,0.28C0.214,0.28 0.187,0.277 0.162,0.271C0.137,0.265 0.116,0.255 0.097,0.243C0.078,0.23 0.063,0.214 0.052,0.194C0.04,0.174 0.035,0.153 0.035,0.131C0.035,0.119 0.036,0.106 0.04,0.093C0.044,0.08 0.05,0.066 0.061,0.05L0.149,0.001C0.121,-0.008 0.103,-0.017 0.095,-0.025C0.088,-0.034 0.084,-0.044 0.084,-0.056C0.084,-0.069 0.089,-0.083 0.097,-0.1L0.175,-0.157C0.129,-0.169 0.098,-0.187 0.082,-0.211C0.066,-0.235 0.058,-0.261 0.058,-0.29C0.058,-0.316 0.063,-0.342 0.075,-0.365C0.086,-0.389 0.103,-0.409 0.126,-0.423C0.149,-0.437 0.175,-0.448 0.203,-0.457C0.232,-0.465 0.258,-0.469 0.281,-0.469C0.322,-0.469 0.361,-0.456 0.397,-0.43C0.456,-0.43 0.503,-0.43 0.539,-0.432ZM0.142,-0.318C0.142,-0.299 0.146,-0.277 0.153,-0.254C0.161,-0.232 0.174,-0.214 0.191,-0.203C0.209,-0.191 0.228,-0.185 0.25,-0.185C0.279,-0.185 0.304,-0.194 0.325,-0.213C0.346,-0.232 0.356,-0.262 0.356,-0.302C0.356,-0.336 0.347,-0.366 0.328,-0.393C0.308,-0.42 0.281,-0.434 0.246,-0.434C0.216,-0.434 0.192,-0.424 0.172,-0.405C0.152,-0.385 0.142,-0.356 0.142,-0.318ZM0.285,0.009C0.232,0.009 0.202,0.01 0.194,0.011C0.186,0.013 0.175,0.018 0.16,0.028C0.146,0.038 0.134,0.051 0.124,0.068C0.115,0.084 0.11,0.103 0.11,0.124C0.11,0.161 0.124,0.191 0.151,0.214C0.179,0.237 0.215,0.249 0.261,0.249C0.295,0.249 0.326,0.241 0.355,0.227C0.384,0.213 0.406,0.194 0.42,0.169C0.434,0.145 0.44,0.122 0.44,0.1C0.44,0.078 0.435,0.059 0.423,0.043C0.412,0.027 0.397,0.018 0.378,0.014C0.36,0.011 0.329,0.009 0.285,0.009Z" style="fill:rgb(0,174,239);fill-rule:nonzero;"/>
            </g>
            <g transform="matrix(37.5,0,0,37.5,233.056,86.8413)">
                <path d="M0.166,-0.723L0.175,-0.717C0.172,-0.68 0.17,-0.605 0.17,-0.492L0.17,-0.372C0.197,-0.394 0.223,-0.416 0.246,-0.438C0.253,-0.445 0.259,-0.449 0.266,-0.452C0.272,-0.455 0.282,-0.458 0.296,-0.461C0.309,-0.465 0.324,-0.466 0.338,-0.466C0.363,-0.466 0.387,-0.461 0.41,-0.451C0.434,-0.441 0.451,-0.429 0.463,-0.415C0.475,-0.401 0.483,-0.385 0.488,-0.366C0.492,-0.347 0.495,-0.324 0.495,-0.296L0.495,-0.21C0.495,-0.205 0.495,-0.164 0.497,-0.089C0.498,-0.058 0.502,-0.04 0.508,-0.034C0.514,-0.028 0.534,-0.025 0.568,-0.025L0.572,-0.021L0.572,-0L0.568,0.004C0.527,0.001 0.499,-0 0.484,-0C0.476,-0 0.453,0.001 0.413,0.004L0.407,-0.001C0.411,-0.044 0.413,-0.099 0.413,-0.167L0.413,-0.231C0.413,-0.269 0.412,-0.297 0.41,-0.314C0.409,-0.331 0.403,-0.346 0.394,-0.36C0.385,-0.374 0.373,-0.385 0.358,-0.392C0.343,-0.4 0.324,-0.404 0.303,-0.404C0.281,-0.404 0.262,-0.401 0.247,-0.395C0.233,-0.389 0.217,-0.379 0.202,-0.364C0.187,-0.35 0.178,-0.338 0.175,-0.328C0.171,-0.319 0.17,-0.3 0.17,-0.273L0.17,-0.186C0.17,-0.179 0.171,-0.156 0.172,-0.117C0.173,-0.078 0.175,-0.055 0.176,-0.049C0.177,-0.042 0.18,-0.038 0.183,-0.035C0.186,-0.032 0.189,-0.03 0.193,-0.029C0.198,-0.028 0.215,-0.027 0.246,-0.025L0.25,-0.021L0.25,-0L0.247,0.004C0.206,0.001 0.167,-0 0.129,-0C0.091,-0 0.052,0.001 0.012,0.004L0.007,-0L0.007,-0.021L0.012,-0.025C0.043,-0.027 0.061,-0.028 0.065,-0.029C0.069,-0.03 0.073,-0.032 0.076,-0.035C0.079,-0.038 0.081,-0.043 0.082,-0.05C0.083,-0.056 0.085,-0.077 0.086,-0.113C0.088,-0.148 0.088,-0.175 0.088,-0.193L0.088,-0.446L0.086,-0.55C0.085,-0.586 0.084,-0.611 0.083,-0.625C0.082,-0.639 0.081,-0.647 0.079,-0.65C0.077,-0.653 0.073,-0.654 0.068,-0.656C0.063,-0.657 0.044,-0.658 0.009,-0.658L0.005,-0.662L0.005,-0.683L0.009,-0.687C0.071,-0.694 0.123,-0.706 0.166,-0.723Z" style="fill:rgb(0,174,239);fill-rule:nonzero;"/>
            </g>
            <g transform="matrix(37.5,0,0,37.5,254.882,86.8413)">
                <path d="M0.022,-0.383L0.022,-0.396L0.026,-0.401C0.056,-0.412 0.081,-0.423 0.1,-0.433C0.1,-0.518 0.099,-0.567 0.097,-0.581C0.131,-0.593 0.158,-0.605 0.18,-0.619L0.191,-0.609C0.188,-0.588 0.184,-0.529 0.18,-0.43C0.196,-0.43 0.214,-0.43 0.232,-0.43C0.271,-0.43 0.298,-0.431 0.315,-0.433L0.318,-0.429L0.309,-0.388L0.305,-0.384C0.289,-0.384 0.27,-0.384 0.25,-0.384C0.232,-0.384 0.208,-0.384 0.18,-0.384L0.177,-0.185C0.177,-0.139 0.178,-0.109 0.18,-0.095C0.182,-0.081 0.188,-0.07 0.198,-0.062C0.207,-0.054 0.221,-0.05 0.24,-0.05C0.262,-0.05 0.282,-0.056 0.301,-0.067L0.313,-0.049C0.305,-0.044 0.286,-0.028 0.256,-0C0.239,0.007 0.222,0.011 0.205,0.011C0.131,0.011 0.095,-0.024 0.095,-0.095C0.095,-0.121 0.095,-0.143 0.097,-0.162C0.097,-0.167 0.097,-0.173 0.097,-0.179L0.097,-0.381L0.077,-0.381C0.063,-0.381 0.046,-0.381 0.027,-0.379L0.022,-0.383Z" style="fill:rgb(0,174,239);fill-rule:nonzero;"/>
            </g>
            <g transform="matrix(37.5,0,0,37.5,276.489,86.8413)">
                <path d="M0.188,-0.465L0.197,-0.459C0.195,-0.44 0.193,-0.407 0.192,-0.358L0.229,-0.405C0.241,-0.42 0.252,-0.432 0.261,-0.44C0.27,-0.448 0.281,-0.455 0.293,-0.459C0.306,-0.464 0.319,-0.466 0.332,-0.466C0.346,-0.466 0.359,-0.463 0.372,-0.458L0.375,-0.451C0.37,-0.407 0.367,-0.369 0.367,-0.336L0.345,-0.336C0.332,-0.366 0.311,-0.381 0.282,-0.381C0.262,-0.381 0.244,-0.375 0.229,-0.362C0.214,-0.349 0.204,-0.333 0.199,-0.314C0.194,-0.294 0.191,-0.27 0.191,-0.24L0.191,-0.186C0.191,-0.176 0.192,-0.152 0.193,-0.114C0.195,-0.076 0.196,-0.054 0.198,-0.048C0.199,-0.042 0.201,-0.038 0.204,-0.035C0.207,-0.033 0.212,-0.031 0.217,-0.03C0.222,-0.029 0.245,-0.027 0.286,-0.025L0.291,-0.021L0.291,-0L0.286,0.004C0.243,0.001 0.198,-0 0.15,-0C0.113,-0 0.074,0.001 0.033,0.004L0.029,-0L0.029,-0.021L0.033,-0.025C0.065,-0.027 0.083,-0.028 0.087,-0.029C0.091,-0.03 0.094,-0.032 0.097,-0.035C0.101,-0.038 0.103,-0.043 0.104,-0.05C0.105,-0.056 0.106,-0.077 0.108,-0.113C0.109,-0.148 0.11,-0.175 0.11,-0.193L0.11,-0.29C0.11,-0.303 0.109,-0.32 0.108,-0.343C0.107,-0.365 0.106,-0.379 0.105,-0.384C0.104,-0.389 0.101,-0.393 0.097,-0.396C0.093,-0.398 0.084,-0.399 0.072,-0.399L0.031,-0.4L0.026,-0.404L0.026,-0.425L0.03,-0.429C0.092,-0.436 0.145,-0.448 0.188,-0.465Z" style="fill:rgb(0,174,239);fill-rule:nonzero;"/>
            </g>
            <g transform="matrix(37.5,0,0,37.5,291.302,86.8413)">
                <path d="M0.104,-0.331L0.084,-0.336L0.081,-0.341L0.081,-0.401C0.139,-0.444 0.195,-0.466 0.25,-0.466C0.287,-0.466 0.318,-0.459 0.343,-0.445C0.368,-0.431 0.385,-0.413 0.396,-0.392C0.408,-0.371 0.413,-0.347 0.413,-0.319L0.411,-0.221L0.411,-0.075C0.411,-0.055 0.412,-0.043 0.415,-0.039C0.418,-0.035 0.421,-0.032 0.424,-0.031C0.428,-0.029 0.435,-0.028 0.444,-0.027L0.472,-0.024L0.476,-0.02L0.476,-0L0.472,0.003C0.448,0.001 0.426,0 0.406,0C0.386,0 0.363,0.001 0.335,0.003L0.328,-0.003L0.33,-0.082L0.224,0.001C0.206,0.008 0.186,0.012 0.165,0.012C0.139,0.012 0.117,0.007 0.098,-0.002C0.079,-0.011 0.065,-0.025 0.055,-0.042C0.045,-0.058 0.04,-0.079 0.04,-0.103C0.04,-0.151 0.055,-0.188 0.085,-0.215C0.115,-0.242 0.197,-0.265 0.33,-0.284C0.33,-0.332 0.319,-0.366 0.298,-0.385C0.276,-0.405 0.248,-0.415 0.211,-0.415C0.193,-0.415 0.175,-0.412 0.16,-0.407C0.144,-0.401 0.136,-0.397 0.133,-0.393C0.131,-0.39 0.122,-0.37 0.107,-0.333L0.104,-0.331ZM0.33,-0.254C0.239,-0.239 0.182,-0.222 0.16,-0.205C0.137,-0.187 0.126,-0.16 0.126,-0.123C0.126,-0.072 0.151,-0.047 0.202,-0.047C0.245,-0.047 0.288,-0.072 0.33,-0.122L0.33,-0.254Z" style="fill:rgb(0,174,239);fill-rule:nonzero;"/>
            </g>
            <g transform="matrix(37.5,0,0,37.5,310.052,86.8413)">
                <path d="M0.022,0.265C0.033,0.238 0.041,0.213 0.047,0.19L0.059,0.19C0.075,0.207 0.092,0.216 0.11,0.216C0.133,0.216 0.154,0.204 0.171,0.181C0.188,0.158 0.212,0.108 0.243,0.029C0.231,-0.006 0.218,-0.038 0.206,-0.069L0.128,-0.262C0.12,-0.282 0.108,-0.31 0.092,-0.347C0.076,-0.384 0.066,-0.404 0.063,-0.408C0.06,-0.412 0.056,-0.415 0.051,-0.418C0.046,-0.422 0.033,-0.425 0.012,-0.428L0.008,-0.432L0.008,-0.451L0.012,-0.455C0.05,-0.453 0.088,-0.452 0.127,-0.452C0.174,-0.452 0.209,-0.453 0.234,-0.455L0.238,-0.451L0.238,-0.432L0.235,-0.428C0.231,-0.427 0.221,-0.427 0.205,-0.426C0.188,-0.424 0.178,-0.422 0.174,-0.418C0.17,-0.414 0.168,-0.409 0.168,-0.404C0.168,-0.398 0.173,-0.38 0.183,-0.35C0.193,-0.319 0.203,-0.292 0.212,-0.269L0.243,-0.193C0.263,-0.143 0.279,-0.106 0.29,-0.082L0.316,-0.139C0.325,-0.16 0.338,-0.192 0.355,-0.234L0.396,-0.337C0.406,-0.364 0.412,-0.381 0.413,-0.387C0.415,-0.394 0.416,-0.398 0.416,-0.401C0.416,-0.409 0.413,-0.413 0.408,-0.416C0.403,-0.419 0.391,-0.421 0.373,-0.423L0.353,-0.426L0.349,-0.43L0.349,-0.451L0.353,-0.455C0.38,-0.453 0.413,-0.452 0.45,-0.452C0.484,-0.452 0.512,-0.453 0.532,-0.455L0.536,-0.451L0.536,-0.43L0.532,-0.426C0.52,-0.425 0.511,-0.424 0.503,-0.421C0.496,-0.418 0.489,-0.413 0.483,-0.405C0.476,-0.398 0.465,-0.377 0.448,-0.342C0.431,-0.307 0.414,-0.271 0.397,-0.234L0.349,-0.129L0.236,0.134C0.227,0.157 0.214,0.181 0.2,0.208C0.185,0.234 0.168,0.252 0.147,0.264C0.126,0.275 0.104,0.281 0.08,0.281C0.06,0.281 0.04,0.276 0.022,0.265Z" style="fill:rgb(0,174,239);fill-rule:nonzero;"/>
            </g>
        </g>
        <g transform="matrix(0.359038,-6.33292e-33,-6.33292e-33,-0.359038,-95.8314,-44.0624)">
            <g transform="matrix(29.1667,0,0,29.1667,178.381,80.8151)">
                <path d="M0.022,-0.21L0.022,-0.217L0.044,-0.282L0.305,-0.282L0.305,-0.275L0.282,-0.21L0.022,-0.21Z" style="fill-rule:nonzero;"/>
            </g>
            <g transform="matrix(29.1667,0,0,29.1667,188.094,80.8151)">
                <path d="M0.181,-0.471L0.19,-0.465C0.187,-0.428 0.185,-0.395 0.185,-0.367C0.229,-0.407 0.26,-0.434 0.277,-0.447C0.295,-0.46 0.325,-0.466 0.367,-0.466C0.394,-0.466 0.418,-0.463 0.44,-0.455C0.462,-0.448 0.482,-0.436 0.5,-0.419C0.519,-0.402 0.534,-0.381 0.544,-0.356C0.555,-0.331 0.561,-0.302 0.561,-0.269C0.561,-0.245 0.557,-0.221 0.549,-0.197C0.542,-0.173 0.532,-0.151 0.52,-0.13C0.508,-0.11 0.498,-0.096 0.49,-0.09C0.483,-0.083 0.468,-0.073 0.445,-0.06C0.425,-0.047 0.404,-0.034 0.384,-0.02C0.37,-0.009 0.361,-0.003 0.355,-0C0.349,0.003 0.34,0.006 0.327,0.009C0.314,0.012 0.3,0.013 0.286,0.013C0.252,0.013 0.218,0.005 0.185,-0.013L0.185,0.091C0.185,0.098 0.185,0.122 0.187,0.16C0.188,0.199 0.189,0.222 0.191,0.229C0.192,0.235 0.194,0.24 0.197,0.243C0.2,0.246 0.204,0.247 0.208,0.248C0.212,0.249 0.23,0.25 0.261,0.252L0.265,0.256L0.265,0.277L0.261,0.281C0.221,0.279 0.181,0.277 0.144,0.277C0.107,0.277 0.068,0.279 0.027,0.281L0.022,0.277L0.022,0.256L0.027,0.252C0.058,0.25 0.076,0.249 0.08,0.248C0.084,0.247 0.088,0.245 0.091,0.242C0.094,0.239 0.096,0.234 0.097,0.227C0.099,0.22 0.1,0.198 0.101,0.162C0.103,0.125 0.104,0.097 0.104,0.079L0.104,-0.295C0.104,-0.312 0.103,-0.332 0.101,-0.354C0.1,-0.377 0.099,-0.389 0.098,-0.393C0.097,-0.397 0.094,-0.4 0.091,-0.402C0.087,-0.404 0.078,-0.405 0.065,-0.405L0.024,-0.406L0.02,-0.41L0.02,-0.431L0.024,-0.435C0.086,-0.442 0.138,-0.454 0.181,-0.471ZM0.185,-0.097C0.2,-0.081 0.218,-0.068 0.24,-0.057C0.262,-0.046 0.287,-0.04 0.313,-0.04C0.345,-0.04 0.373,-0.048 0.397,-0.064C0.421,-0.08 0.44,-0.103 0.454,-0.134C0.467,-0.165 0.474,-0.199 0.474,-0.236C0.474,-0.267 0.468,-0.295 0.456,-0.321C0.444,-0.347 0.426,-0.367 0.401,-0.382C0.376,-0.397 0.349,-0.405 0.321,-0.405C0.304,-0.405 0.287,-0.402 0.271,-0.396C0.255,-0.39 0.24,-0.381 0.225,-0.369C0.211,-0.357 0.201,-0.346 0.195,-0.336C0.189,-0.325 0.185,-0.316 0.185,-0.309C0.185,-0.302 0.185,-0.295 0.185,-0.286L0.185,-0.097Z" style="fill-rule:nonzero;"/>
            </g>
            <g transform="matrix(29.1667,0,0,29.1667,205.625,80.8151)">
                <path d="M0.183,-0.723L0.192,-0.717C0.188,-0.68 0.187,-0.605 0.187,-0.492L0.187,-0.186C0.187,-0.179 0.187,-0.156 0.188,-0.117C0.19,-0.078 0.191,-0.055 0.193,-0.049C0.194,-0.042 0.196,-0.038 0.199,-0.035C0.202,-0.032 0.206,-0.03 0.21,-0.029C0.214,-0.028 0.232,-0.027 0.263,-0.025L0.267,-0.021L0.267,-0L0.263,0.004C0.222,0.001 0.183,-0 0.146,-0C0.108,-0 0.069,0.001 0.028,0.004L0.024,-0L0.024,-0.021L0.028,-0.025C0.06,-0.027 0.078,-0.028 0.082,-0.029C0.086,-0.03 0.089,-0.032 0.093,-0.035C0.096,-0.038 0.098,-0.043 0.099,-0.05C0.1,-0.056 0.101,-0.077 0.103,-0.113C0.104,-0.148 0.105,-0.175 0.105,-0.193L0.105,-0.446L0.103,-0.55C0.102,-0.586 0.101,-0.611 0.1,-0.625C0.099,-0.639 0.097,-0.647 0.095,-0.65C0.093,-0.653 0.09,-0.654 0.085,-0.656C0.08,-0.657 0.06,-0.658 0.026,-0.658L0.021,-0.662L0.021,-0.683L0.025,-0.687C0.088,-0.694 0.14,-0.706 0.183,-0.723Z" style="fill-rule:nonzero;"/>
            </g>
            <g transform="matrix(29.1667,0,0,29.1667,214.113,80.8151)">
                <path d="M0.104,-0.331L0.084,-0.336L0.081,-0.341L0.081,-0.401C0.139,-0.444 0.195,-0.466 0.25,-0.466C0.287,-0.466 0.318,-0.459 0.343,-0.445C0.368,-0.431 0.385,-0.413 0.396,-0.392C0.408,-0.371 0.413,-0.347 0.413,-0.319L0.411,-0.221L0.411,-0.075C0.411,-0.055 0.412,-0.043 0.415,-0.039C0.418,-0.035 0.421,-0.032 0.424,-0.031C0.428,-0.029 0.435,-0.028 0.444,-0.027L0.472,-0.024L0.476,-0.02L0.476,-0L0.472,0.003C0.448,0.001 0.426,0 0.406,0C0.386,0 0.363,0.001 0.335,0.003L0.328,-0.003L0.33,-0.082L0.224,0.001C0.206,0.008 0.186,0.012 0.165,0.012C0.139,0.012 0.117,0.007 0.098,-0.002C0.079,-0.011 0.065,-0.025 0.055,-0.042C0.045,-0.058 0.04,-0.079 0.04,-0.103C0.04,-0.151 0.055,-0.188 0.085,-0.215C0.115,-0.242 0.197,-0.265 0.33,-0.284C0.33,-0.332 0.319,-0.366 0.298,-0.385C0.276,-0.405 0.248,-0.415 0.211,-0.415C0.193,-0.415 0.175,-0.412 0.16,-0.407C0.144,-0.401 0.136,-0.397 0.133,-0.393C0.131,-0.39 0.122,-0.37 0.107,-0.333L0.104,-0.331ZM0.33,-0.254C0.239,-0.239 0.182,-0.222 0.16,-0.205C0.137,-0.187 0.126,-0.16 0.126,-0.123C0.126,-0.072 0.151,-0.047 0.202,-0.047C0.245,-0.047 0.288,-0.072 0.33,-0.122L0.33,-0.254Z" style="fill-rule:nonzero;"/>
            </g>
            <g transform="matrix(29.1667,0,0,29.1667,228.696,80.8151)">
                <path d="M0.167,-0.465L0.176,-0.459C0.174,-0.437 0.173,-0.409 0.172,-0.373C0.198,-0.395 0.223,-0.416 0.247,-0.438C0.253,-0.445 0.26,-0.449 0.266,-0.452C0.272,-0.455 0.282,-0.458 0.296,-0.461C0.31,-0.465 0.324,-0.466 0.339,-0.466C0.364,-0.466 0.388,-0.461 0.411,-0.451C0.434,-0.441 0.452,-0.429 0.464,-0.415C0.476,-0.401 0.484,-0.385 0.488,-0.366C0.493,-0.347 0.495,-0.324 0.495,-0.296L0.495,-0.21C0.495,-0.205 0.496,-0.164 0.498,-0.089C0.498,-0.058 0.502,-0.04 0.508,-0.034C0.514,-0.028 0.534,-0.025 0.568,-0.025L0.572,-0.021L0.572,-0L0.568,0.004C0.527,0.001 0.499,-0 0.484,-0C0.476,-0 0.452,0.001 0.413,0.004L0.407,-0.001C0.411,-0.044 0.414,-0.099 0.414,-0.167L0.414,-0.231C0.414,-0.269 0.413,-0.297 0.411,-0.314C0.409,-0.331 0.404,-0.346 0.395,-0.36C0.385,-0.374 0.373,-0.385 0.358,-0.392C0.343,-0.4 0.324,-0.404 0.303,-0.404C0.286,-0.404 0.272,-0.402 0.26,-0.399C0.248,-0.395 0.234,-0.388 0.219,-0.378C0.204,-0.367 0.193,-0.357 0.186,-0.348C0.179,-0.339 0.175,-0.33 0.173,-0.322C0.172,-0.314 0.171,-0.297 0.171,-0.271L0.171,-0.186C0.171,-0.179 0.172,-0.156 0.173,-0.117C0.174,-0.078 0.176,-0.055 0.177,-0.049C0.178,-0.042 0.181,-0.038 0.184,-0.035C0.187,-0.032 0.19,-0.03 0.194,-0.029C0.199,-0.028 0.216,-0.027 0.247,-0.025L0.251,-0.021L0.251,-0L0.248,0.004C0.207,0.001 0.168,-0 0.13,-0C0.092,-0 0.053,0.001 0.013,0.004L0.008,-0L0.008,-0.021L0.013,-0.025C0.044,-0.027 0.062,-0.028 0.066,-0.029C0.07,-0.03 0.074,-0.032 0.077,-0.035C0.08,-0.038 0.082,-0.043 0.083,-0.05C0.084,-0.056 0.086,-0.077 0.087,-0.113C0.089,-0.148 0.089,-0.175 0.089,-0.193L0.089,-0.29C0.089,-0.303 0.089,-0.32 0.087,-0.343C0.086,-0.365 0.085,-0.379 0.084,-0.384C0.083,-0.389 0.081,-0.393 0.077,-0.396C0.072,-0.398 0.064,-0.399 0.051,-0.399L0.01,-0.4L0.006,-0.404L0.006,-0.425L0.01,-0.429C0.072,-0.436 0.124,-0.448 0.167,-0.465Z" style="fill-rule:nonzero;"/>
            </g>
            <g transform="matrix(29.1667,0,0,29.1667,245.672,80.8151)">
                <path d="M0.432,-0.072L0.416,-0.037C0.382,-0.015 0.352,-0.001 0.325,0.006C0.299,0.012 0.275,0.016 0.254,0.016C0.215,0.016 0.178,0.008 0.143,-0.007C0.108,-0.023 0.08,-0.049 0.058,-0.085C0.036,-0.121 0.025,-0.165 0.025,-0.217C0.025,-0.251 0.029,-0.282 0.038,-0.309C0.046,-0.337 0.055,-0.357 0.064,-0.371C0.073,-0.384 0.089,-0.399 0.111,-0.415C0.133,-0.431 0.157,-0.444 0.182,-0.454C0.206,-0.464 0.233,-0.469 0.262,-0.469C0.301,-0.469 0.335,-0.46 0.365,-0.441C0.395,-0.423 0.416,-0.399 0.428,-0.371C0.44,-0.342 0.446,-0.312 0.446,-0.279C0.446,-0.269 0.445,-0.259 0.444,-0.25L0.439,-0.245C0.417,-0.24 0.387,-0.236 0.35,-0.235C0.312,-0.233 0.287,-0.232 0.275,-0.232L0.119,-0.232C0.119,-0.165 0.136,-0.115 0.169,-0.083C0.203,-0.052 0.243,-0.036 0.292,-0.036C0.314,-0.036 0.336,-0.04 0.357,-0.047C0.378,-0.055 0.4,-0.066 0.424,-0.08L0.432,-0.072ZM0.119,-0.271C0.125,-0.271 0.147,-0.269 0.186,-0.268C0.226,-0.267 0.255,-0.266 0.273,-0.266C0.319,-0.266 0.346,-0.267 0.356,-0.269C0.356,-0.276 0.356,-0.282 0.356,-0.287C0.356,-0.337 0.346,-0.375 0.326,-0.399C0.305,-0.424 0.277,-0.436 0.242,-0.436C0.203,-0.436 0.173,-0.422 0.151,-0.395C0.129,-0.367 0.119,-0.326 0.119,-0.271Z" style="fill-rule:nonzero;"/>
            </g>
        </g>
        <g transform="matrix(0.359038,-6.33292e-33,-6.33292e-33,-0.359038,-2.62489,-44.0624)">
            <g transform="matrix(29.1667,0,0,29.1667,178.381,80.8151)">
                <path d="M0.022,-0.21L0.022,-0.217L0.044,-0.282L0.305,-0.282L0.305,-0.275L0.282,-0.21L0.022,-0.21Z" style="fill-rule:nonzero;"/>
            </g>
            <g transform="matrix(29.1667,0,0,29.1667,188.094,80.8151)">
                <path d="M0.181,-0.471L0.19,-0.465C0.187,-0.428 0.185,-0.395 0.185,-0.367C0.229,-0.407 0.26,-0.434 0.277,-0.447C0.295,-0.46 0.325,-0.466 0.367,-0.466C0.394,-0.466 0.418,-0.463 0.44,-0.455C0.462,-0.448 0.482,-0.436 0.5,-0.419C0.519,-0.402 0.534,-0.381 0.544,-0.356C0.555,-0.331 0.561,-0.302 0.561,-0.269C0.561,-0.245 0.557,-0.221 0.549,-0.197C0.542,-0.173 0.532,-0.151 0.52,-0.13C0.508,-0.11 0.498,-0.096 0.49,-0.09C0.483,-0.083 0.468,-0.073 0.445,-0.06C0.425,-0.047 0.404,-0.034 0.384,-0.02C0.37,-0.009 0.361,-0.003 0.355,-0C0.349,0.003 0.34,0.006 0.327,0.009C0.314,0.012 0.3,0.013 0.286,0.013C0.252,0.013 0.218,0.005 0.185,-0.013L0.185,0.091C0.185,0.098 0.185,0.122 0.187,0.16C0.188,0.199 0.189,0.222 0.191,0.229C0.192,0.235 0.194,0.24 0.197,0.243C0.2,0.246 0.204,0.247 0.208,0.248C0.212,0.249 0.23,0.25 0.261,0.252L0.265,0.256L0.265,0.277L0.261,0.281C0.221,0.279 0.181,0.277 0.144,0.277C0.107,0.277 0.068,0.279 0.027,0.281L0.022,0.277L0.022,0.256L0.027,0.252C0.058,0.25 0.076,0.249 0.08,0.248C0.084,0.247 0.088,0.245 0.091,0.242C0.094,0.239 0.096,0.234 0.097,0.227C0.099,0.22 0.1,0.198 0.101,0.162C0.103,0.125 0.104,0.097 0.104,0.079L0.104,-0.295C0.104,-0.312 0.103,-0.332 0.101,-0.354C0.1,-0.377 0.099,-0.389 0.098,-0.393C0.097,-0.397 0.094,-0.4 0.091,-0.402C0.087,-0.404 0.078,-0.405 0.065,-0.405L0.024,-0.406L0.02,-0.41L0.02,-0.431L0.024,-0.435C0.086,-0.442 0.138,-0.454 0.181,-0.471ZM0.185,-0.097C0.2,-0.081 0.218,-0.068 0.24,-0.057C0.262,-0.046 0.287,-0.04 0.313,-0.04C0.345,-0.04 0.373,-0.048 0.397,-0.064C0.421,-0.08 0.44,-0.103 0.454,-0.134C0.467,-0.165 0.474,-0.199 0.474,-0.236C0.474,-0.267 0.468,-0.295 0.456,-0.321C0.444,-0.347 0.426,-0.367 0.401,-0.382C0.376,-0.397 0.349,-0.405 0.321,-0.405C0.304,-0.405 0.287,-0.402 0.271,-0.396C0.255,-0.39 0.24,-0.381 0.225,-0.369C0.211,-0.357 0.201,-0.346 0.195,-0.336C0.189,-0.325 0.185,-0.316 0.185,-0.309C0.185,-0.302 0.185,-0.295 0.185,-0.286L0.185,-0.097Z" style="fill-rule:nonzero;"/>
            </g>
            <g transform="matrix(29.1667,0,0,29.1667,205.625,80.8151)">
                <path d="M0.183,-0.723L0.192,-0.717C0.188,-0.68 0.187,-0.605 0.187,-0.492L0.187,-0.186C0.187,-0.179 0.187,-0.156 0.188,-0.117C0.19,-0.078 0.191,-0.055 0.193,-0.049C0.194,-0.042 0.196,-0.038 0.199,-0.035C0.202,-0.032 0.206,-0.03 0.21,-0.029C0.214,-0.028 0.232,-0.027 0.263,-0.025L0.267,-0.021L0.267,-0L0.263,0.004C0.222,0.001 0.183,-0 0.146,-0C0.108,-0 0.069,0.001 0.028,0.004L0.024,-0L0.024,-0.021L0.028,-0.025C0.06,-0.027 0.078,-0.028 0.082,-0.029C0.086,-0.03 0.089,-0.032 0.093,-0.035C0.096,-0.038 0.098,-0.043 0.099,-0.05C0.1,-0.056 0.101,-0.077 0.103,-0.113C0.104,-0.148 0.105,-0.175 0.105,-0.193L0.105,-0.446L0.103,-0.55C0.102,-0.586 0.101,-0.611 0.1,-0.625C0.099,-0.639 0.097,-0.647 0.095,-0.65C0.093,-0.653 0.09,-0.654 0.085,-0.656C0.08,-0.657 0.06,-0.658 0.026,-0.658L0.021,-0.662L0.021,-0.683L0.025,-0.687C0.088,-0.694 0.14,-0.706 0.183,-0.723Z" style="fill-rule:nonzero;"/>
            </g>
            <g transform="matrix(29.1667,0,0,29.1667,214.113,80.8151)">
                <path d="M0.104,-0.331L0.084,-0.336L0.081,-0.341L0.081,-0.401C0.139,-0.444 0.195,-0.466 0.25,-0.466C0.287,-0.466 0.318,-0.459 0.343,-0.445C0.368,-0.431 0.385,-0.413 0.396,-0.392C0.408,-0.371 0.413,-0.347 0.413,-0.319L0.411,-0.221L0.411,-0.075C0.411,-0.055 0.412,-0.043 0.415,-0.039C0.418,-0.035 0.421,-0.032 0.424,-0.031C0.428,-0.029 0.435,-0.028 0.444,-0.027L0.472,-0.024L0.476,-0.02L0.476,-0L0.472,0.003C0.448,0.001 0.426,0 0.406,0C0.386,0 0.363,0.001 0.335,0.003L0.328,-0.003L0.33,-0.082L0.224,0.001C0.206,0.008 0.186,0.012 0.165,0.012C0.139,0.012 0.117,0.007 0.098,-0.002C0.079,-0.011 0.065,-0.025 0.055,-0.042C0.045,-0.058 0.04,-0.079 0.04,-0.103C0.04,-0.151 0.055,-0.188 0.085,-0.215C0.115,-0.242 0.197,-0.265 0.33,-0.284C0.33,-0.332 0.319,-0.366 0.298,-0.385C0.276,-0.405 0.248,-0.415 0.211,-0.415C0.193,-0.415 0.175,-0.412 0.16,-0.407C0.144,-0.401 0.136,-0.397 0.133,-0.393C0.131,-0.39 0.122,-0.37 0.107,-0.333L0.104,-0.331ZM0.33,-0.254C0.239,-0.239 0.182,-0.222 0.16,-0.205C0.137,-0.187 0.126,-0.16 0.126,-0.123C0.126,-0.072 0.151,-0.047 0.202,-0.047C0.245,-0.047 0.288,-0.072 0.33,-0.122L0.33,-0.254Z" style="fill-rule:nonzero;"/>
            </g>
            <g transform="matrix(29.1667,0,0,29.1667,228.696,80.8151)">
                <path d="M0.167,-0.465L0.176,-0.459C0.174,-0.437 0.173,-0.409 0.172,-0.373C0.198,-0.395 0.223,-0.416 0.247,-0.438C0.253,-0.445 0.26,-0.449 0.266,-0.452C0.272,-0.455 0.282,-0.458 0.296,-0.461C0.31,-0.465 0.324,-0.466 0.339,-0.466C0.364,-0.466 0.388,-0.461 0.411,-0.451C0.434,-0.441 0.452,-0.429 0.464,-0.415C0.476,-0.401 0.484,-0.385 0.488,-0.366C0.493,-0.347 0.495,-0.324 0.495,-0.296L0.495,-0.21C0.495,-0.205 0.496,-0.164 0.498,-0.089C0.498,-0.058 0.502,-0.04 0.508,-0.034C0.514,-0.028 0.534,-0.025 0.568,-0.025L0.572,-0.021L0.572,-0L0.568,0.004C0.527,0.001 0.499,-0 0.484,-0C0.476,-0 0.452,0.001 0.413,0.004L0.407,-0.001C0.411,-0.044 0.414,-0.099 0.414,-0.167L0.414,-0.231C0.414,-0.269 0.413,-0.297 0.411,-0.314C0.409,-0.331 0.404,-0.346 0.395,-0.36C0.385,-0.374 0.373,-0.385 0.358,-0.392C0.343,-0.4 0.324,-0.404 0.303,-0.404C0.286,-0.404 0.272,-0.402 0.26,-0.399C0.248,-0.395 0.234,-0.388 0.219,-0.378C0.204,-0.367 0.193,-0.357 0.186,-0.348C0.179,-0.339 0.175,-0.33 0.173,-0.322C0.172,-0.314 0.171,-0.297 0.171,-0.271L0.171,-0.186C0.171,-0.179 0.172,-0.156 0.173,-0.117C0.174,-0.078 0.176,-0.055 0.177,-0.049C0.178,-0.042 0.181,-0.038 0.184,-0.035C0.187,-0.032 0.19,-0.03 0.194,-0.029C0.199,-0.028 0.216,-0.027 0.247,-0.025L0.251,-0.021L0.251,-0L0.248,0.004C0.207,0.001 0.168,-0 0.13,-0C0.092,-0 0.053,0.001 0.013,0.004L0.008,-0L0.008,-0.021L0.013,-0.025C0.044,-0.027 0.062,-0.028 0.066,-0.029C0.07,-0.03 0.074,-0.032 0.077,-0.035C0.08,-0.038 0.082,-0.043 0.083,-0.05C0.084,-0.056 0.086,-0.077 0.087,-0.113C0.089,-0.148 0.089,-0.175 0.089,-0.193L0.089,-0.29C0.089,-0.303 0.089,-0.32 0.087,-0.343C0.086,-0.365 0.085,-0.379 0.084,-0.384C0.083,-0.389 0.081,-0.393 0.077,-0.396C0.072,-0.398 0.064,-0.399 0.051,-0.399L0.01,-0.4L0.006,-0.404L0.006,-0.425L0.01,-0.429C0.072,-0.436 0.124,-0.448 0.167,-0.465Z" style="fill-rule:nonzero;"/>
            </g>
            <g transform="matrix(29.1667,0,0,29.1667,245.672,80.8151)">
                <path d="M0.432,-0.072L0.416,-0.037C0.382,-0.015 0.352,-0.001 0.325,0.006C0.299,0.012 0.275,0.016 0.254,0.016C0.215,0.016 0.178,0.008 0.143,-0.007C0.108,-0.023 0.08,-0.049 0.058,-0.085C0.036,-0.121 0.025,-0.165 0.025,-0.217C0.025,-0.251 0.029,-0.282 0.038,-0.309C0.046,-0.337 0.055,-0.357 0.064,-0.371C0.073,-0.384 0.089,-0.399 0.111,-0.415C0.133,-0.431 0.157,-0.444 0.182,-0.454C0.206,-0.464 0.233,-0.469 0.262,-0.469C0.301,-0.469 0.335,-0.46 0.365,-0.441C0.395,-0.423 0.416,-0.399 0.428,-0.371C0.44,-0.342 0.446,-0.312 0.446,-0.279C0.446,-0.269 0.445,-0.259 0.444,-0.25L0.439,-0.245C0.417,-0.24 0.387,-0.236 0.35,-0.235C0.312,-0.233 0.287,-0.232 0.275,-0.232L0.119,-0.232C0.119,-0.165 0.136,-0.115 0.169,-0.083C0.203,-0.052 0.243,-0.036 0.292,-0.036C0.314,-0.036 0.336,-0.04 0.357,-0.047C0.378,-0.055 0.4,-0.066 0.424,-0.08L0.432,-0.072ZM0.119,-0.271C0.125,-0.271 0.147,-0.269 0.186,-0.268C0.226,-0.267 0.255,-0.266 0.273,-0.266C0.319,-0.266 0.346,-0.267 0.356,-0.269C0.356,-0.276 0.356,-0.282 0.356,-0.287C0.356,-0.337 0.346,-0.375 0.326,-0.399C0.305,-0.424 0.277,-0.436 0.242,-0.436C0.203,-0.436 0.173,-0.422 0.151,-0.395C0.129,-0.367 0.119,-0.326 0.119,-0.271Z" style="fill-rule:nonzero;"/>
            </g>
        </g>
    </g>
    <g id="klftmpexporter4x1x0xth20081" serif:id="klftmpexporter4x1x0xth2008" transform="matrix(1.33333,0,0,-1.33333,214.556,312.153)">
        <g transform="matrix(2.10486,0,0,2.10486,-180.814,-15.3893)">
            <g id="path181" serif:id="path18" transform="matrix(0.1,0,0,0.1,0,0)">
                <path d="M167.875,1.156C167.875,1.453 167.875,1.656 166.188,3.344C153.781,15.859 150.594,34.641 150.594,49.828C150.594,67.125 154.375,84.406 166.594,96.828C167.875,98.016 167.875,98.219 167.875,98.516C167.875,99.203 167.484,99.5 166.891,99.5C165.891,99.5 156.953,92.75 151.094,80.125C146.031,69.203 144.828,58.172 144.828,49.828C144.828,42.094 145.922,30.063 151.391,18.844C157.344,6.625 165.891,0.172 166.891,0.172C167.484,0.172 167.875,0.469 167.875,1.156" style="fill-rule:nonzero;"/>
            </g>
            <g id="path201" serif:id="path20" transform="matrix(0.1,0,0,0.1,0,0)">
                <path d="M206.172,55C206.781,57.578 209.063,66.719 216.016,66.719C216.516,66.719 218.891,66.719 220.984,65.438C218.203,64.938 216.219,62.453 216.219,60.063C216.219,58.484 217.297,56.594 219.984,56.594C222.172,56.594 225.344,58.375 225.344,62.344C225.344,67.516 219.484,68.906 216.109,68.906C210.344,68.906 206.875,63.641 205.688,61.359C203.203,67.906 197.828,68.906 194.953,68.906C184.625,68.906 178.953,56.094 178.953,53.609C178.953,52.609 179.953,52.609 180.156,52.609C180.953,52.609 181.25,52.813 181.438,53.703C184.828,64.234 191.375,66.719 194.75,66.719C196.641,66.719 200.125,65.828 200.125,60.063C200.125,56.984 198.438,50.328 194.75,36.422C193.172,30.266 189.688,26.094 185.313,26.094C184.719,26.094 182.438,26.094 180.344,27.391C182.828,27.875 185.016,29.969 185.016,32.75C185.016,35.438 182.828,36.219 181.344,36.219C178.359,36.219 175.875,33.641 175.875,30.469C175.875,25.891 180.844,23.906 185.219,23.906C191.781,23.906 195.344,30.859 195.656,31.453C196.844,27.781 200.422,23.906 206.375,23.906C216.609,23.906 222.266,36.719 222.266,39.203C222.266,40.203 221.375,40.203 221.078,40.203C220.188,40.203 219.984,39.797 219.781,39.109C216.516,28.484 209.75,26.094 206.578,26.094C202.703,26.094 201.109,29.266 201.109,32.656C201.109,34.828 201.703,37.016 202.797,41.391L206.172,55" style="fill-rule:nonzero;"/>
            </g>
            <g id="path221" serif:id="path22" transform="matrix(0.1,0,0,0.1,0,0)">
                <path d="M249.172,25.094C249.172,31.656 246.688,35.531 242.813,35.531C239.531,35.531 237.547,33.047 237.547,30.266C237.547,27.578 239.531,25 242.813,25C244,25 245.297,25.391 246.281,26.297C246.578,26.484 246.688,26.594 246.781,26.594C246.875,26.594 246.984,26.484 246.984,25.094C246.984,17.75 243.5,11.781 240.219,8.516C239.125,7.422 239.125,7.219 239.125,6.922C239.125,6.219 239.625,5.828 240.125,5.828C241.219,5.828 249.172,13.484 249.172,25.094" style="fill-rule:nonzero;"/>
            </g>
            <g id="path241" serif:id="path24" transform="matrix(0.1,0,0,0.1,0,0)">
                <path d="M322.281,62.844C322.672,64.234 322.672,64.438 322.672,65.125C322.672,66.922 321.281,67.813 319.797,67.813C318.797,67.813 317.219,67.219 316.313,65.734C316.125,65.234 315.328,62.156 314.922,60.359C314.234,57.781 313.531,55.094 312.938,52.422L308.469,34.531C308.078,33.047 303.797,26.094 297.25,26.094C292.172,26.094 291.094,30.469 291.094,34.141C291.094,38.703 292.781,44.875 296.156,53.609C297.734,57.687 298.141,58.781 298.141,60.766C298.141,65.234 294.953,68.906 290,68.906C280.563,68.906 276.875,54.5 276.875,53.609C276.875,52.609 277.875,52.609 278.078,52.609C279.063,52.609 279.172,52.812 279.656,54.406C282.344,63.734 286.313,66.719 289.688,66.719C290.484,66.719 292.172,66.719 292.172,63.547C292.172,61.062 291.188,58.484 290.484,56.594C286.516,46.062 284.734,40.391 284.734,35.734C284.734,26.891 290.984,23.906 296.844,23.906C300.719,23.906 304.094,25.594 306.875,28.375C305.594,23.219 304.391,18.344 300.422,13.078C297.844,9.703 294.063,6.828 289.5,6.828C288.109,6.828 283.641,7.125 281.953,11C283.531,11 284.828,11 286.219,12.187C287.219,13.078 288.203,14.375 288.203,16.266C288.203,19.344 285.516,19.734 284.531,19.734C282.25,19.734 278.969,18.141 278.969,13.281C278.969,8.312 283.344,4.641 289.5,4.641C299.734,4.641 309.953,13.672 312.734,24.906L322.281,62.844" style="fill-rule:nonzero;"/>
            </g>
            <g id="path261" serif:id="path26" transform="matrix(0.1,0,0,0.1,0,0)">
                <path d="M355.703,49.828C355.703,57.578 354.609,69.609 349.156,80.828C343.188,93.047 334.656,99.5 333.656,99.5C333.063,99.5 332.656,99.109 332.656,98.516C332.656,98.219 332.656,98.016 334.547,96.219C344.281,86.391 349.953,70.594 349.953,49.828C349.953,32.844 346.266,15.359 333.953,2.844C332.656,1.656 332.656,1.453 332.656,1.156C332.656,0.563 333.063,0.172 333.656,0.172C334.656,0.172 343.594,6.922 349.453,19.531C354.516,30.469 355.703,41.484 355.703,49.828" style="fill-rule:nonzero;"/>
            </g>
        </g>
        <g transform="matrix(2.0375,4.59776e-32,-4.59776e-32,2.0375,-45.4182,-15.0398)">
            <g id="path301" serif:id="path30" transform="matrix(0.1,0,0,0.1,0,0)">
                <path d="M464.875,1.156C464.875,1.453 464.875,1.656 463.188,3.344C450.781,15.859 447.594,34.641 447.594,49.828C447.594,67.125 451.375,84.406 463.594,96.828C464.875,98.016 464.875,98.219 464.875,98.516C464.875,99.203 464.484,99.5 463.891,99.5C462.891,99.5 453.953,92.75 448.094,80.125C443.031,69.203 441.828,58.172 441.828,49.828C441.828,42.094 442.922,30.063 448.391,18.844C454.344,6.625 462.891,0.172 463.891,0.172C464.484,0.172 464.875,0.469 464.875,1.156" style="fill-rule:nonzero;"/>
            </g>
            <g id="path321" serif:id="path32" transform="matrix(0.1,0,0,0.1,0,0)">
                <path d="M505.766,30.563C506.859,26.484 510.344,23.906 514.609,23.906C518.078,23.906 520.375,26.188 521.953,29.375C523.656,32.953 524.938,39 524.938,39.203C524.938,40.203 524.047,40.203 523.75,40.203C522.75,40.203 522.656,39.797 522.359,38.406C520.969,32.844 519.078,26.094 514.906,26.094C512.828,26.094 511.828,27.391 511.828,30.656C511.828,32.844 513.016,37.516 513.813,41L516.594,51.719C516.891,53.219 517.891,56.984 518.281,58.484C518.781,60.766 519.781,64.531 519.781,65.125C519.781,66.922 518.391,67.813 516.891,67.813C516.391,67.813 513.813,67.719 513.016,64.344C511.125,57.078 506.766,39.703 505.563,34.438C505.469,34.047 501.5,26.094 494.25,26.094C489.078,26.094 488.094,30.563 488.094,34.234C488.094,39.797 490.875,47.656 493.453,54.5C494.641,57.484 495.141,58.875 495.141,60.766C495.141,65.234 491.953,68.906 487,68.906C477.563,68.906 473.875,54.5 473.875,53.609C473.875,52.609 474.875,52.609 475.078,52.609C476.063,52.609 476.172,52.813 476.656,54.406C479.141,63.047 482.922,66.719 486.688,66.719C487.594,66.719 489.172,66.625 489.172,63.438C489.172,61.063 488.094,58.172 487.484,56.688C483.813,46.859 481.734,40.688 481.734,35.828C481.734,26.391 488.578,23.906 493.953,23.906C500.5,23.906 504.078,28.375 505.766,30.563" style="fill-rule:nonzero;"/>
            </g>
            <g id="path341" serif:id="path34" transform="matrix(0.1,0,0,0.1,0,0)">
                <path d="M548.172,25.094C548.172,31.656 545.688,35.531 541.813,35.531C538.531,35.531 536.547,33.047 536.547,30.266C536.547,27.578 538.531,25 541.813,25C543,25 544.297,25.391 545.281,26.297C545.578,26.484 545.688,26.594 545.781,26.594C545.875,26.594 545.984,26.484 545.984,25.094C545.984,17.75 542.5,11.781 539.219,8.516C538.125,7.422 538.125,7.219 538.125,6.922C538.125,6.219 538.625,5.828 539.125,5.828C540.219,5.828 548.172,13.484 548.172,25.094" style="fill-rule:nonzero;"/>
            </g>
            <g id="path361" serif:id="path36" transform="matrix(0.1,0,0,0.1,0,0)">
                <path d="M619.484,61.953C619.484,67.313 616.906,68.906 615.125,68.906C612.641,68.906 610.25,66.328 610.25,64.141C610.25,62.844 610.75,62.25 611.844,61.156C613.922,59.172 615.219,56.594 615.219,53.016C615.219,48.844 609.156,26.094 597.531,26.094C592.469,26.094 590.188,29.563 590.188,34.734C590.188,40.297 592.875,47.547 595.953,55.797C596.641,57.484 597.141,58.875 597.141,60.766C597.141,65.234 593.953,68.906 589,68.906C579.656,68.906 575.875,54.5 575.875,53.609C575.875,52.609 576.875,52.609 577.078,52.609C578.063,52.609 578.172,52.813 578.656,54.406C581.547,64.438 585.813,66.719 588.688,66.719C589.484,66.719 591.172,66.719 591.172,63.547C591.172,61.063 590.188,58.375 589.484,56.594C585.125,45.063 583.828,40.5 583.828,36.219C583.828,25.5 592.563,23.906 597.141,23.906C613.828,23.906 619.484,56.781 619.484,61.953" style="fill-rule:nonzero;"/>
            </g>
            <g id="path381" serif:id="path38" transform="matrix(0.1,0,0,0.1,0,0)">
                <path d="M652.703,49.828C652.703,57.578 651.609,69.609 646.156,80.828C640.188,93.047 631.656,99.5 630.656,99.5C630.063,99.5 629.656,99.109 629.656,98.516C629.656,98.219 629.656,98.016 631.547,96.219C641.281,86.391 646.953,70.594 646.953,49.828C646.953,32.844 643.266,15.359 630.953,2.844C629.656,1.656 629.656,1.453 629.656,1.156C629.656,0.563 630.063,0.172 630.656,0.172C631.656,0.172 640.594,6.922 646.453,19.531C651.516,30.469 652.703,41.484 652.703,49.828" style="fill-rule:nonzero;"/>
            </g>
        </g>
    </g>
</svg>
