<?xml version="1.0" encoding="UTF-8" standalone="no"?>
<!DOCTYPE svg PUBLIC "-//W3C//DTD SVG 1.1//EN" "http://www.w3.org/Graphics/SVG/1.1/DTD/svg11.dtd">
<svg width="100%" height="100%" viewBox="0 0 914 556" version="1.1" xmlns="http://www.w3.org/2000/svg" xmlns:xlink="http://www.w3.org/1999/xlink" xml:space="preserve" xmlns:serif="http://www.serif.com/" style="fill-rule:evenodd;clip-rule:evenodd;stroke-miterlimit:10;">
    <g id="Ebene1">
        <rect x="-5.66" y="-4.873" width="924.04" height="565.111" style="fill:white;"/>
    </g>
    <g transform="matrix(4.16667,0,0,4.16667,41.8745,273.161)">
        <path d="M0,0L199.25,0" style="fill:none;fill-rule:nonzero;stroke:black;stroke-width:2px;"/>
    </g>
    <g transform="matrix(3.80134,1.70614,1.70614,-3.80134,109.923,1.04556)">
        <path d="M-4.808,-22.455L104.871,-22.455" style="fill:none;fill-rule:nonzero;stroke:rgb(0,174,239);stroke-width:1px;"/>
    </g>
    <g transform="matrix(4.16667,0,0,4.16667,487.708,252.086)">
        <path d="M0,5.058L-6.982,4.821L-4.5,3.038L-4.818,0" style="fill:rgb(0,174,239);fill-rule:nonzero;"/>
    </g>
    <g transform="matrix(0,-4.16667,-4.16667,0,749.687,277.682)">
        <path d="M-62.875,62.875L62.875,62.875" style="fill:none;fill-rule:nonzero;stroke:black;stroke-width:0.75px;"/>
    </g>
    <g transform="matrix(3.51129,-2.2432,-2.2432,-3.51129,428.883,254.039)">
        <path d="M-1.759,6.018C4.991,10.334 13.849,10.332 20.598,6.018" style="fill:none;fill-rule:nonzero;stroke:black;stroke-width:0.75px;"/>
    </g>
    <g transform="matrix(-2.94628,-2.94628,-2.94628,2.94628,530.937,168.797)">
        <path d="M-25.047,10.375C-16.938,2.265 -3.812,2.265 4.297,10.375" style="fill:none;fill-rule:nonzero;stroke:black;stroke-width:0.75px;"/>
    </g>
    <g transform="matrix(4.16667,0,0,4.16667,523.124,235.495)">
        <path d="M0,2C1.29,2 1.29,0 0,0C-1.29,0 -1.29,2 0,2" style="fill-rule:nonzero;"/>
    </g>
    <g transform="matrix(4.16667,0,0,4.16667,415.604,182.82)">
        <path d="M0,-2.67C0,-3.598 -0.306,-4.562 -1.136,-4.562C-2.452,-4.562 -3.831,-1.993 -3.831,0.008C-3.831,0.658 -3.633,1.892 -2.695,1.892C-1.379,1.892 0,-0.65 0,-2.671L0,-2.67ZM-2.849,-1.479C-2.669,-2.192 -2.48,-2.849 -2.11,-3.471C-1.895,-3.832 -1.56,-4.337 -1.146,-4.337C-0.658,-4.337 -0.623,-3.562 -0.623,-3.22C-0.623,-2.678 -0.767,-2.047 -0.903,-1.479L-2.85,-1.479L-2.849,-1.479ZM-0.983,-1.19C-1.127,-0.623 -1.299,0.054 -1.66,0.694C-1.895,1.117 -2.255,1.667 -2.688,1.667C-3.075,1.667 -3.2,1.198 -3.2,0.54C-3.2,-0.037 -3.056,-0.624 -2.922,-1.191L-0.983,-1.191" style="fill:rgb(24,22,28);fill-rule:nonzero;"/>
    </g>
    <g transform="matrix(4.16667,0,0,4.16667,424.924,193.295)">
        <path d="M0,-3.604C0,-3.784 -0.023,-3.784 -0.202,-3.784C-0.596,-3.403 -1.204,-3.403 -1.418,-3.403L-1.418,-3.17C-1.263,-3.17 -0.871,-3.17 -0.513,-3.337L-0.513,-0.326C-0.513,-0.129 -0.513,-0.053 -1.127,-0.053L-1.383,-0.053L-1.383,0.18C-1.055,0.157 -0.589,0.157 -0.256,0.157C0.078,0.157 0.544,0.157 0.871,0.18L0.871,-0.053L0.615,-0.053C0.001,-0.053 0.001,-0.13 0.001,-0.326L0.001,-3.604" style="fill:rgb(24,22,28);fill-rule:nonzero;"/>
    </g>
    <g transform="matrix(4.16667,0,0,4.16667,540.629,390.349)">
        <path d="M0,-2.67C0,-3.598 -0.306,-4.562 -1.136,-4.562C-2.451,-4.562 -3.83,-1.992 -3.83,0.009C-3.83,0.658 -3.633,1.892 -2.695,1.892C-1.379,1.892 0,-0.649 0,-2.67M-2.849,-1.479C-2.669,-2.191 -2.48,-2.849 -2.109,-3.471C-1.895,-3.832 -1.56,-4.336 -1.146,-4.336C-0.658,-4.336 -0.623,-3.562 -0.623,-3.22C-0.623,-2.678 -0.767,-2.047 -0.902,-1.479L-2.85,-1.479L-2.849,-1.479ZM-0.982,-1.19C-1.127,-0.622 -1.299,0.055 -1.66,0.694C-1.895,1.117 -2.255,1.668 -2.688,1.668C-3.074,1.668 -3.199,1.198 -3.199,0.541C-3.199,-0.036 -3.056,-0.623 -2.922,-1.191L-0.982,-1.191" style="fill:rgb(24,22,28);fill-rule:nonzero;"/>
    </g>
    <g transform="matrix(4.16667,0,0,4.16667,554.399,389.699)">
        <path d="M0,1.736L-0.221,1.736C-0.232,1.82 -0.293,2.214 -0.381,2.279C-0.424,2.314 -0.906,2.314 -0.989,2.314L-2.104,2.314L-1.34,1.695C-1.137,1.533 -0.607,1.152 -0.424,0.972C-0.244,0.795 0,0.49 0,0.067C0,-0.678 -0.674,-1.114 -1.473,-1.114C-2.242,-1.114 -2.777,-0.606 -2.777,-0.046C-2.777,0.258 -2.521,0.295 -2.455,0.295C-2.308,0.295 -2.133,0.186 -2.133,-0.028C-2.133,-0.159 -2.211,-0.35 -2.475,-0.35C-2.336,-0.655 -1.973,-0.88 -1.562,-0.88C-0.937,-0.88 -0.603,-0.414 -0.603,0.067C-0.603,0.49 -0.883,0.925 -1.299,1.306L-2.711,2.6C-2.772,2.66 -2.777,2.667 -2.777,2.85L-0.186,2.85L-0.002,1.736" style="fill:rgb(24,22,28);fill-rule:nonzero;"/>
    </g>
    <g transform="matrix(-3.84103,1.6148,1.6148,3.84103,496.265,369.227)">
        <path d="M-15.251,-3.076C-10.205,-0.952 -4.428,-0.953 0.62,-3.076" style="fill:none;fill-rule:nonzero;stroke:black;stroke-width:0.75px;"/>
    </g>
    <g transform="matrix(3.0574,2.8308,2.8308,-3.0574,607.868,215.058)">
        <path d="M-11.687,-29.825L76.112,-29.825" style="fill:none;fill-rule:nonzero;stroke:rgb(237,28,36);stroke-width:1px;"/>
    </g>
    <g transform="matrix(4.16667,0,0,4.16667,771.045,507.486)">
        <path d="M0,6.722L-6.943,4.117L-3.842,3.164L-3.132,0" style="fill:rgb(237,28,36);fill-rule:nonzero;"/>
    </g>
    <g transform="matrix(4.16667,0,0,4.16667,-434.421,-275.122)">
        <g transform="matrix(9,0,0,9,127.144,83.7146)">
            <path d="M0.029,-0.69L0.09,-0.688C0.13,-0.687 0.156,-0.686 0.168,-0.686C0.18,-0.686 0.226,-0.687 0.309,-0.69L0.313,-0.687L0.313,-0.662L0.309,-0.659C0.286,-0.658 0.269,-0.657 0.257,-0.656C0.244,-0.654 0.236,-0.652 0.23,-0.648C0.224,-0.645 0.221,-0.636 0.219,-0.623C0.217,-0.61 0.216,-0.592 0.216,-0.568L0.215,-0.456L0.215,-0.23L0.216,-0.135C0.216,-0.098 0.217,-0.074 0.219,-0.063C0.22,-0.053 0.223,-0.046 0.226,-0.042C0.229,-0.038 0.235,-0.035 0.244,-0.033C0.252,-0.031 0.274,-0.029 0.309,-0.027L0.313,-0.024L0.313,-0L0.309,0.004C0.307,0.004 0.278,0.003 0.223,0.001C0.2,0 0.181,-0 0.168,-0C0.158,-0 0.112,0.001 0.029,0.004L0.025,-0L0.025,-0.024L0.029,-0.027C0.059,-0.029 0.079,-0.03 0.089,-0.032C0.099,-0.034 0.106,-0.037 0.11,-0.04C0.113,-0.043 0.116,-0.049 0.118,-0.06C0.12,-0.07 0.121,-0.092 0.122,-0.127L0.122,-0.23L0.122,-0.456L0.121,-0.551C0.121,-0.588 0.12,-0.612 0.118,-0.623C0.117,-0.634 0.115,-0.641 0.112,-0.645C0.108,-0.648 0.103,-0.651 0.094,-0.653C0.085,-0.656 0.063,-0.657 0.029,-0.659L0.025,-0.662L0.025,-0.687L0.029,-0.69Z" style="fill-rule:nonzero;"/>
        </g>
        <g transform="matrix(9,0,0,9,130.176,83.7146)">
            <path d="M0.167,-0.465L0.176,-0.459C0.174,-0.437 0.173,-0.409 0.172,-0.373C0.198,-0.395 0.223,-0.416 0.247,-0.438C0.253,-0.445 0.26,-0.449 0.266,-0.452C0.272,-0.455 0.282,-0.458 0.296,-0.461C0.31,-0.465 0.324,-0.466 0.339,-0.466C0.364,-0.466 0.388,-0.461 0.411,-0.451C0.434,-0.441 0.452,-0.429 0.464,-0.415C0.476,-0.401 0.484,-0.385 0.488,-0.366C0.493,-0.347 0.495,-0.324 0.495,-0.296L0.495,-0.21C0.495,-0.205 0.496,-0.164 0.498,-0.089C0.498,-0.058 0.502,-0.04 0.508,-0.034C0.514,-0.028 0.534,-0.025 0.568,-0.025L0.572,-0.021L0.572,-0L0.568,0.004C0.527,0.001 0.499,-0 0.484,-0C0.476,-0 0.452,0.001 0.413,0.004L0.407,-0.001C0.411,-0.044 0.414,-0.099 0.414,-0.167L0.414,-0.231C0.414,-0.269 0.413,-0.297 0.411,-0.314C0.409,-0.331 0.404,-0.346 0.395,-0.36C0.385,-0.374 0.373,-0.385 0.358,-0.392C0.343,-0.4 0.324,-0.404 0.303,-0.404C0.286,-0.404 0.272,-0.402 0.26,-0.399C0.248,-0.395 0.234,-0.388 0.219,-0.378C0.204,-0.367 0.193,-0.357 0.186,-0.348C0.179,-0.339 0.175,-0.33 0.173,-0.322C0.172,-0.314 0.171,-0.297 0.171,-0.271L0.171,-0.186C0.171,-0.179 0.172,-0.156 0.173,-0.117C0.174,-0.078 0.176,-0.055 0.177,-0.049C0.178,-0.042 0.181,-0.038 0.184,-0.035C0.187,-0.032 0.19,-0.03 0.194,-0.029C0.199,-0.028 0.216,-0.027 0.247,-0.025L0.251,-0.021L0.251,-0L0.248,0.004C0.207,0.001 0.168,-0 0.13,-0C0.092,-0 0.053,0.001 0.013,0.004L0.008,-0L0.008,-0.021L0.013,-0.025C0.044,-0.027 0.062,-0.028 0.066,-0.029C0.07,-0.03 0.074,-0.032 0.077,-0.035C0.08,-0.038 0.082,-0.043 0.083,-0.05C0.084,-0.056 0.086,-0.077 0.087,-0.113C0.089,-0.148 0.089,-0.175 0.089,-0.193L0.089,-0.29C0.089,-0.303 0.089,-0.32 0.087,-0.343C0.086,-0.365 0.085,-0.379 0.084,-0.384C0.083,-0.389 0.081,-0.393 0.077,-0.396C0.072,-0.398 0.064,-0.399 0.051,-0.399L0.01,-0.4L0.006,-0.404L0.006,-0.425L0.01,-0.429C0.072,-0.436 0.124,-0.448 0.167,-0.465Z" style="fill-rule:nonzero;"/>
        </g>
        <g transform="matrix(9,0,0,9,135.415,83.7146)">
            <path d="M0.424,-0.052L0.404,-0.02C0.362,0.004 0.315,0.015 0.264,0.015C0.192,0.015 0.137,-0.006 0.098,-0.049C0.059,-0.091 0.039,-0.146 0.039,-0.214C0.039,-0.244 0.042,-0.272 0.049,-0.296C0.056,-0.32 0.064,-0.339 0.074,-0.355C0.085,-0.371 0.096,-0.383 0.108,-0.392C0.121,-0.401 0.142,-0.414 0.171,-0.43C0.201,-0.446 0.223,-0.457 0.238,-0.462C0.253,-0.467 0.273,-0.47 0.3,-0.47C0.35,-0.47 0.392,-0.46 0.424,-0.441C0.418,-0.404 0.413,-0.363 0.41,-0.318L0.405,-0.314L0.385,-0.314L0.381,-0.318C0.38,-0.346 0.378,-0.364 0.375,-0.374C0.373,-0.383 0.36,-0.393 0.337,-0.404C0.313,-0.415 0.288,-0.42 0.261,-0.42C0.235,-0.42 0.211,-0.414 0.19,-0.403C0.169,-0.392 0.153,-0.373 0.143,-0.348C0.132,-0.322 0.127,-0.292 0.127,-0.256C0.127,-0.226 0.131,-0.197 0.14,-0.169C0.148,-0.14 0.159,-0.117 0.173,-0.098C0.187,-0.079 0.205,-0.064 0.228,-0.053C0.251,-0.041 0.276,-0.036 0.304,-0.036C0.322,-0.036 0.339,-0.038 0.356,-0.042C0.372,-0.047 0.392,-0.055 0.414,-0.065L0.424,-0.052Z" style="fill-rule:nonzero;"/>
        </g>
        <g transform="matrix(9,0,0,9,139.409,83.7146)">
            <path d="M0.141,-0.684C0.156,-0.684 0.169,-0.678 0.18,-0.667C0.19,-0.657 0.196,-0.644 0.196,-0.628C0.196,-0.613 0.19,-0.601 0.18,-0.59C0.169,-0.579 0.156,-0.574 0.141,-0.574C0.126,-0.574 0.113,-0.579 0.102,-0.59C0.091,-0.6 0.085,-0.613 0.085,-0.628C0.085,-0.644 0.091,-0.657 0.102,-0.667C0.113,-0.678 0.126,-0.684 0.141,-0.684ZM0.182,-0.465L0.191,-0.459C0.188,-0.416 0.186,-0.362 0.186,-0.296L0.186,-0.186C0.186,-0.179 0.187,-0.156 0.188,-0.117C0.189,-0.078 0.191,-0.055 0.192,-0.049C0.194,-0.042 0.196,-0.038 0.199,-0.035C0.202,-0.032 0.205,-0.03 0.209,-0.029C0.214,-0.028 0.231,-0.027 0.262,-0.025L0.267,-0.021L0.267,-0L0.263,0.004C0.222,0.001 0.183,-0 0.145,-0C0.108,-0 0.069,0.001 0.028,0.004L0.023,-0L0.023,-0.021L0.028,-0.025C0.059,-0.027 0.077,-0.028 0.081,-0.029C0.085,-0.03 0.089,-0.032 0.092,-0.035C0.095,-0.038 0.097,-0.043 0.098,-0.05C0.1,-0.056 0.101,-0.077 0.102,-0.113C0.104,-0.148 0.104,-0.175 0.104,-0.193L0.104,-0.29C0.104,-0.303 0.104,-0.32 0.103,-0.343C0.101,-0.365 0.1,-0.379 0.099,-0.384C0.099,-0.389 0.096,-0.393 0.092,-0.396C0.088,-0.398 0.079,-0.399 0.066,-0.399L0.025,-0.4L0.021,-0.404L0.021,-0.425L0.025,-0.429C0.087,-0.436 0.139,-0.448 0.182,-0.465Z" style="fill-rule:nonzero;"/>
        </g>
        <g transform="matrix(9,0,0,9,142.028,83.7146)">
            <path d="M0.329,-0.662L0.329,-0.683L0.333,-0.687C0.395,-0.694 0.447,-0.706 0.49,-0.723L0.499,-0.717C0.495,-0.68 0.494,-0.605 0.494,-0.492L0.494,-0.172C0.494,-0.139 0.494,-0.111 0.495,-0.086C0.497,-0.062 0.499,-0.047 0.501,-0.042C0.504,-0.038 0.509,-0.034 0.516,-0.031C0.523,-0.028 0.542,-0.026 0.573,-0.023L0.577,-0.019L0.577,-0L0.573,0.004C0.538,0.002 0.51,0 0.491,0C0.473,0 0.448,0.002 0.416,0.004L0.41,-0.001C0.411,-0.033 0.412,-0.056 0.412,-0.068C0.412,-0.07 0.412,-0.076 0.412,-0.087C0.394,-0.074 0.376,-0.059 0.358,-0.043C0.332,-0.02 0.315,-0.005 0.307,0C0.292,0.008 0.27,0.012 0.243,0.012C0.198,0.012 0.16,0.001 0.128,-0.021C0.097,-0.044 0.074,-0.072 0.061,-0.106C0.048,-0.141 0.041,-0.176 0.041,-0.212C0.041,-0.249 0.048,-0.284 0.062,-0.318C0.076,-0.352 0.095,-0.377 0.121,-0.393C0.146,-0.408 0.174,-0.424 0.204,-0.441C0.234,-0.458 0.264,-0.466 0.294,-0.466C0.335,-0.466 0.375,-0.456 0.412,-0.436L0.41,-0.544C0.41,-0.582 0.409,-0.608 0.407,-0.623C0.406,-0.638 0.404,-0.647 0.402,-0.65C0.4,-0.652 0.397,-0.654 0.392,-0.656C0.388,-0.657 0.368,-0.658 0.333,-0.658L0.329,-0.662ZM0.412,-0.352C0.392,-0.375 0.37,-0.392 0.345,-0.404C0.32,-0.416 0.296,-0.422 0.271,-0.422C0.244,-0.422 0.218,-0.415 0.195,-0.4C0.171,-0.385 0.154,-0.363 0.144,-0.334C0.133,-0.305 0.128,-0.273 0.128,-0.239C0.128,-0.182 0.142,-0.137 0.171,-0.102C0.2,-0.068 0.236,-0.05 0.28,-0.05C0.304,-0.05 0.325,-0.056 0.343,-0.067C0.361,-0.078 0.377,-0.092 0.388,-0.111C0.4,-0.129 0.407,-0.148 0.409,-0.167C0.411,-0.185 0.412,-0.219 0.412,-0.269L0.412,-0.352Z" style="fill-rule:nonzero;"/>
        </g>
        <g transform="matrix(9,0,0,9,147.526,83.7146)">
            <path d="M0.432,-0.072L0.416,-0.037C0.382,-0.015 0.352,-0.001 0.325,0.006C0.299,0.012 0.275,0.016 0.254,0.016C0.215,0.016 0.178,0.008 0.143,-0.007C0.108,-0.023 0.08,-0.049 0.058,-0.085C0.036,-0.121 0.025,-0.165 0.025,-0.217C0.025,-0.251 0.029,-0.282 0.038,-0.309C0.046,-0.337 0.055,-0.357 0.064,-0.371C0.073,-0.384 0.089,-0.399 0.111,-0.415C0.133,-0.431 0.157,-0.444 0.182,-0.454C0.206,-0.464 0.233,-0.469 0.262,-0.469C0.301,-0.469 0.335,-0.46 0.365,-0.441C0.395,-0.423 0.416,-0.399 0.428,-0.371C0.44,-0.342 0.446,-0.312 0.446,-0.279C0.446,-0.269 0.445,-0.259 0.444,-0.25L0.439,-0.245C0.417,-0.24 0.387,-0.236 0.35,-0.235C0.312,-0.233 0.287,-0.232 0.275,-0.232L0.119,-0.232C0.119,-0.165 0.136,-0.115 0.169,-0.083C0.203,-0.052 0.243,-0.036 0.292,-0.036C0.314,-0.036 0.336,-0.04 0.357,-0.047C0.378,-0.055 0.4,-0.066 0.424,-0.08L0.432,-0.072ZM0.119,-0.271C0.125,-0.271 0.147,-0.269 0.186,-0.268C0.226,-0.267 0.255,-0.266 0.273,-0.266C0.319,-0.266 0.346,-0.267 0.356,-0.269C0.356,-0.276 0.356,-0.282 0.356,-0.287C0.356,-0.337 0.346,-0.375 0.326,-0.399C0.305,-0.424 0.277,-0.436 0.242,-0.436C0.203,-0.436 0.173,-0.422 0.151,-0.395C0.129,-0.367 0.119,-0.326 0.119,-0.271Z" style="fill-rule:nonzero;"/>
        </g>
        <g transform="matrix(9,0,0,9,151.837,83.7146)">
            <path d="M0.167,-0.465L0.176,-0.459C0.174,-0.437 0.173,-0.409 0.172,-0.373C0.198,-0.395 0.223,-0.416 0.247,-0.438C0.253,-0.445 0.26,-0.449 0.266,-0.452C0.272,-0.455 0.282,-0.458 0.296,-0.461C0.31,-0.465 0.324,-0.466 0.339,-0.466C0.364,-0.466 0.388,-0.461 0.411,-0.451C0.434,-0.441 0.452,-0.429 0.464,-0.415C0.476,-0.401 0.484,-0.385 0.488,-0.366C0.493,-0.347 0.495,-0.324 0.495,-0.296L0.495,-0.21C0.495,-0.205 0.496,-0.164 0.498,-0.089C0.498,-0.058 0.502,-0.04 0.508,-0.034C0.514,-0.028 0.534,-0.025 0.568,-0.025L0.572,-0.021L0.572,-0L0.568,0.004C0.527,0.001 0.499,-0 0.484,-0C0.476,-0 0.452,0.001 0.413,0.004L0.407,-0.001C0.411,-0.044 0.414,-0.099 0.414,-0.167L0.414,-0.231C0.414,-0.269 0.413,-0.297 0.411,-0.314C0.409,-0.331 0.404,-0.346 0.395,-0.36C0.385,-0.374 0.373,-0.385 0.358,-0.392C0.343,-0.4 0.324,-0.404 0.303,-0.404C0.286,-0.404 0.272,-0.402 0.26,-0.399C0.248,-0.395 0.234,-0.388 0.219,-0.378C0.204,-0.367 0.193,-0.357 0.186,-0.348C0.179,-0.339 0.175,-0.33 0.173,-0.322C0.172,-0.314 0.171,-0.297 0.171,-0.271L0.171,-0.186C0.171,-0.179 0.172,-0.156 0.173,-0.117C0.174,-0.078 0.176,-0.055 0.177,-0.049C0.178,-0.042 0.181,-0.038 0.184,-0.035C0.187,-0.032 0.19,-0.03 0.194,-0.029C0.199,-0.028 0.216,-0.027 0.247,-0.025L0.251,-0.021L0.251,-0L0.248,0.004C0.207,0.001 0.168,-0 0.13,-0C0.092,-0 0.053,0.001 0.013,0.004L0.008,-0L0.008,-0.021L0.013,-0.025C0.044,-0.027 0.062,-0.028 0.066,-0.029C0.07,-0.03 0.074,-0.032 0.077,-0.035C0.08,-0.038 0.082,-0.043 0.083,-0.05C0.084,-0.056 0.086,-0.077 0.087,-0.113C0.089,-0.148 0.089,-0.175 0.089,-0.193L0.089,-0.29C0.089,-0.303 0.089,-0.32 0.087,-0.343C0.086,-0.365 0.085,-0.379 0.084,-0.384C0.083,-0.389 0.081,-0.393 0.077,-0.396C0.072,-0.398 0.064,-0.399 0.051,-0.399L0.01,-0.4L0.006,-0.404L0.006,-0.425L0.01,-0.429C0.072,-0.436 0.124,-0.448 0.167,-0.465Z" style="fill-rule:nonzero;"/>
        </g>
        <g transform="matrix(9,0,0,9,157.075,83.7146)">
            <path d="M0.022,-0.383L0.022,-0.396L0.026,-0.401C0.056,-0.412 0.081,-0.423 0.1,-0.433C0.1,-0.518 0.099,-0.567 0.097,-0.581C0.131,-0.593 0.158,-0.605 0.18,-0.619L0.191,-0.609C0.188,-0.588 0.184,-0.529 0.18,-0.43C0.196,-0.43 0.214,-0.43 0.232,-0.43C0.271,-0.43 0.298,-0.431 0.315,-0.433L0.318,-0.429L0.309,-0.388L0.305,-0.384C0.289,-0.384 0.27,-0.384 0.25,-0.384C0.232,-0.384 0.208,-0.384 0.18,-0.384L0.177,-0.185C0.177,-0.139 0.178,-0.109 0.18,-0.095C0.182,-0.081 0.188,-0.07 0.198,-0.062C0.207,-0.054 0.221,-0.05 0.24,-0.05C0.262,-0.05 0.282,-0.056 0.301,-0.067L0.313,-0.049C0.305,-0.044 0.286,-0.028 0.256,-0C0.239,0.007 0.222,0.011 0.205,0.011C0.131,0.011 0.095,-0.024 0.095,-0.095C0.095,-0.121 0.095,-0.143 0.097,-0.162C0.097,-0.167 0.097,-0.173 0.097,-0.179L0.097,-0.381L0.077,-0.381C0.063,-0.381 0.046,-0.381 0.027,-0.379L0.022,-0.383Z" style="fill-rule:nonzero;"/>
        </g>
        <g transform="matrix(9,0,0,9,162.26,83.7146)">
            <path d="M0.183,-0.723L0.192,-0.717C0.188,-0.68 0.187,-0.605 0.187,-0.492L0.187,-0.186C0.187,-0.179 0.187,-0.156 0.188,-0.117C0.19,-0.078 0.191,-0.055 0.193,-0.049C0.194,-0.042 0.196,-0.038 0.199,-0.035C0.202,-0.032 0.206,-0.03 0.21,-0.029C0.214,-0.028 0.232,-0.027 0.263,-0.025L0.267,-0.021L0.267,-0L0.263,0.004C0.222,0.001 0.183,-0 0.146,-0C0.108,-0 0.069,0.001 0.028,0.004L0.024,-0L0.024,-0.021L0.028,-0.025C0.06,-0.027 0.078,-0.028 0.082,-0.029C0.086,-0.03 0.089,-0.032 0.093,-0.035C0.096,-0.038 0.098,-0.043 0.099,-0.05C0.1,-0.056 0.101,-0.077 0.103,-0.113C0.104,-0.148 0.105,-0.175 0.105,-0.193L0.105,-0.446L0.103,-0.55C0.102,-0.586 0.101,-0.611 0.1,-0.625C0.099,-0.639 0.097,-0.647 0.095,-0.65C0.093,-0.653 0.09,-0.654 0.085,-0.656C0.08,-0.657 0.06,-0.658 0.026,-0.658L0.021,-0.662L0.021,-0.683L0.025,-0.687C0.088,-0.694 0.14,-0.706 0.183,-0.723Z" style="fill-rule:nonzero;"/>
        </g>
        <g transform="matrix(9,0,0,9,164.88,83.7146)">
            <path d="M0.141,-0.684C0.156,-0.684 0.169,-0.678 0.18,-0.667C0.19,-0.657 0.196,-0.644 0.196,-0.628C0.196,-0.613 0.19,-0.601 0.18,-0.59C0.169,-0.579 0.156,-0.574 0.141,-0.574C0.126,-0.574 0.113,-0.579 0.102,-0.59C0.091,-0.6 0.085,-0.613 0.085,-0.628C0.085,-0.644 0.091,-0.657 0.102,-0.667C0.113,-0.678 0.126,-0.684 0.141,-0.684ZM0.182,-0.465L0.191,-0.459C0.188,-0.416 0.186,-0.362 0.186,-0.296L0.186,-0.186C0.186,-0.179 0.187,-0.156 0.188,-0.117C0.189,-0.078 0.191,-0.055 0.192,-0.049C0.194,-0.042 0.196,-0.038 0.199,-0.035C0.202,-0.032 0.205,-0.03 0.209,-0.029C0.214,-0.028 0.231,-0.027 0.262,-0.025L0.267,-0.021L0.267,-0L0.263,0.004C0.222,0.001 0.183,-0 0.145,-0C0.108,-0 0.069,0.001 0.028,0.004L0.023,-0L0.023,-0.021L0.028,-0.025C0.059,-0.027 0.077,-0.028 0.081,-0.029C0.085,-0.03 0.089,-0.032 0.092,-0.035C0.095,-0.038 0.097,-0.043 0.098,-0.05C0.1,-0.056 0.101,-0.077 0.102,-0.113C0.104,-0.148 0.104,-0.175 0.104,-0.193L0.104,-0.29C0.104,-0.303 0.104,-0.32 0.103,-0.343C0.101,-0.365 0.1,-0.379 0.099,-0.384C0.099,-0.389 0.096,-0.393 0.092,-0.396C0.088,-0.398 0.079,-0.399 0.066,-0.399L0.025,-0.4L0.021,-0.404L0.021,-0.425L0.025,-0.429C0.087,-0.436 0.139,-0.448 0.182,-0.465Z" style="fill-rule:nonzero;"/>
        </g>
        <g transform="matrix(9,0,0,9,167.499,83.7146)">
            <path d="M0.539,-0.432L0.542,-0.423C0.529,-0.402 0.521,-0.389 0.518,-0.383L0.427,-0.383C0.436,-0.365 0.44,-0.346 0.44,-0.327C0.44,-0.304 0.435,-0.281 0.425,-0.259C0.414,-0.237 0.399,-0.219 0.38,-0.204C0.361,-0.188 0.34,-0.176 0.316,-0.167C0.292,-0.158 0.265,-0.153 0.234,-0.153L0.212,-0.153C0.193,-0.138 0.18,-0.127 0.175,-0.119C0.169,-0.112 0.167,-0.104 0.167,-0.096C0.167,-0.082 0.173,-0.072 0.186,-0.066C0.199,-0.06 0.227,-0.057 0.268,-0.057L0.377,-0.059C0.412,-0.059 0.438,-0.055 0.457,-0.046C0.475,-0.038 0.49,-0.024 0.501,-0.003C0.513,0.018 0.519,0.041 0.519,0.064C0.519,0.1 0.507,0.135 0.484,0.171C0.46,0.207 0.427,0.234 0.383,0.252C0.339,0.271 0.292,0.28 0.242,0.28C0.214,0.28 0.187,0.277 0.162,0.271C0.137,0.265 0.116,0.255 0.097,0.243C0.078,0.23 0.063,0.214 0.052,0.194C0.04,0.174 0.035,0.153 0.035,0.131C0.035,0.119 0.036,0.106 0.04,0.093C0.044,0.08 0.05,0.066 0.061,0.05L0.149,0.001C0.121,-0.008 0.103,-0.017 0.095,-0.025C0.088,-0.034 0.084,-0.044 0.084,-0.056C0.084,-0.069 0.089,-0.083 0.097,-0.1L0.175,-0.157C0.129,-0.169 0.098,-0.187 0.082,-0.211C0.066,-0.235 0.058,-0.261 0.058,-0.29C0.058,-0.316 0.063,-0.342 0.075,-0.365C0.086,-0.389 0.103,-0.409 0.126,-0.423C0.149,-0.437 0.175,-0.448 0.203,-0.457C0.232,-0.465 0.258,-0.469 0.281,-0.469C0.322,-0.469 0.361,-0.456 0.397,-0.43C0.456,-0.43 0.503,-0.43 0.539,-0.432ZM0.142,-0.318C0.142,-0.299 0.146,-0.277 0.153,-0.254C0.161,-0.232 0.174,-0.214 0.191,-0.203C0.209,-0.191 0.228,-0.185 0.25,-0.185C0.279,-0.185 0.304,-0.194 0.325,-0.213C0.346,-0.232 0.356,-0.262 0.356,-0.302C0.356,-0.336 0.347,-0.366 0.328,-0.393C0.308,-0.42 0.281,-0.434 0.246,-0.434C0.216,-0.434 0.192,-0.424 0.172,-0.405C0.152,-0.385 0.142,-0.356 0.142,-0.318ZM0.285,0.009C0.232,0.009 0.202,0.01 0.194,0.011C0.186,0.013 0.175,0.018 0.16,0.028C0.146,0.038 0.134,0.051 0.124,0.068C0.115,0.084 0.11,0.103 0.11,0.124C0.11,0.161 0.124,0.191 0.151,0.214C0.179,0.237 0.215,0.249 0.261,0.249C0.295,0.249 0.326,0.241 0.355,0.227C0.384,0.213 0.406,0.194 0.42,0.169C0.434,0.145 0.44,0.122 0.44,0.1C0.44,0.078 0.435,0.059 0.423,0.043C0.412,0.027 0.397,0.018 0.378,0.014C0.36,0.011 0.329,0.009 0.285,0.009Z" style="fill-rule:nonzero;"/>
        </g>
        <g transform="matrix(9,0,0,9,172.504,83.7146)">
            <path d="M0.166,-0.723L0.175,-0.717C0.172,-0.68 0.17,-0.605 0.17,-0.492L0.17,-0.372C0.197,-0.394 0.223,-0.416 0.246,-0.438C0.253,-0.445 0.259,-0.449 0.266,-0.452C0.272,-0.455 0.282,-0.458 0.296,-0.461C0.309,-0.465 0.324,-0.466 0.338,-0.466C0.363,-0.466 0.387,-0.461 0.41,-0.451C0.434,-0.441 0.451,-0.429 0.463,-0.415C0.475,-0.401 0.483,-0.385 0.488,-0.366C0.492,-0.347 0.495,-0.324 0.495,-0.296L0.495,-0.21C0.495,-0.205 0.495,-0.164 0.497,-0.089C0.498,-0.058 0.502,-0.04 0.508,-0.034C0.514,-0.028 0.534,-0.025 0.568,-0.025L0.572,-0.021L0.572,-0L0.568,0.004C0.527,0.001 0.499,-0 0.484,-0C0.476,-0 0.453,0.001 0.413,0.004L0.407,-0.001C0.411,-0.044 0.413,-0.099 0.413,-0.167L0.413,-0.231C0.413,-0.269 0.412,-0.297 0.41,-0.314C0.409,-0.331 0.403,-0.346 0.394,-0.36C0.385,-0.374 0.373,-0.385 0.358,-0.392C0.343,-0.4 0.324,-0.404 0.303,-0.404C0.281,-0.404 0.262,-0.401 0.247,-0.395C0.233,-0.389 0.217,-0.379 0.202,-0.364C0.187,-0.35 0.178,-0.338 0.175,-0.328C0.171,-0.319 0.17,-0.3 0.17,-0.273L0.17,-0.186C0.17,-0.179 0.171,-0.156 0.172,-0.117C0.173,-0.078 0.175,-0.055 0.176,-0.049C0.177,-0.042 0.18,-0.038 0.183,-0.035C0.186,-0.032 0.189,-0.03 0.193,-0.029C0.198,-0.028 0.215,-0.027 0.246,-0.025L0.25,-0.021L0.25,-0L0.247,0.004C0.206,0.001 0.167,-0 0.129,-0C0.091,-0 0.052,0.001 0.012,0.004L0.007,-0L0.007,-0.021L0.012,-0.025C0.043,-0.027 0.061,-0.028 0.065,-0.029C0.069,-0.03 0.073,-0.032 0.076,-0.035C0.079,-0.038 0.081,-0.043 0.082,-0.05C0.083,-0.056 0.085,-0.077 0.086,-0.113C0.088,-0.148 0.088,-0.175 0.088,-0.193L0.088,-0.446L0.086,-0.55C0.085,-0.586 0.084,-0.611 0.083,-0.625C0.082,-0.639 0.081,-0.647 0.079,-0.65C0.077,-0.653 0.073,-0.654 0.068,-0.656C0.063,-0.657 0.044,-0.658 0.009,-0.658L0.005,-0.662L0.005,-0.683L0.009,-0.687C0.071,-0.694 0.123,-0.706 0.166,-0.723Z" style="fill-rule:nonzero;"/>
        </g>
        <g transform="matrix(9,0,0,9,177.742,83.7146)">
            <path d="M0.022,-0.383L0.022,-0.396L0.026,-0.401C0.056,-0.412 0.081,-0.423 0.1,-0.433C0.1,-0.518 0.099,-0.567 0.097,-0.581C0.131,-0.593 0.158,-0.605 0.18,-0.619L0.191,-0.609C0.188,-0.588 0.184,-0.529 0.18,-0.43C0.196,-0.43 0.214,-0.43 0.232,-0.43C0.271,-0.43 0.298,-0.431 0.315,-0.433L0.318,-0.429L0.309,-0.388L0.305,-0.384C0.289,-0.384 0.27,-0.384 0.25,-0.384C0.232,-0.384 0.208,-0.384 0.18,-0.384L0.177,-0.185C0.177,-0.139 0.178,-0.109 0.18,-0.095C0.182,-0.081 0.188,-0.07 0.198,-0.062C0.207,-0.054 0.221,-0.05 0.24,-0.05C0.262,-0.05 0.282,-0.056 0.301,-0.067L0.313,-0.049C0.305,-0.044 0.286,-0.028 0.256,-0C0.239,0.007 0.222,0.011 0.205,0.011C0.131,0.011 0.095,-0.024 0.095,-0.095C0.095,-0.121 0.095,-0.143 0.097,-0.162C0.097,-0.167 0.097,-0.173 0.097,-0.179L0.097,-0.381L0.077,-0.381C0.063,-0.381 0.046,-0.381 0.027,-0.379L0.022,-0.383Z" style="fill-rule:nonzero;"/>
        </g>
    </g>
    <g transform="matrix(4.16667,0,0,4.16667,-434.421,-275.122)">
        <g transform="matrix(9,0,0,9,264.142,146.049)">
            <path d="M0.589,-0.69L0.594,-0.686C0.591,-0.656 0.589,-0.605 0.589,-0.532L0.585,-0.528L0.563,-0.528L0.559,-0.533L0.553,-0.578C0.551,-0.602 0.549,-0.616 0.547,-0.622C0.546,-0.627 0.543,-0.631 0.54,-0.634C0.537,-0.636 0.526,-0.638 0.508,-0.64C0.49,-0.641 0.47,-0.642 0.448,-0.642L0.356,-0.642C0.353,-0.569 0.352,-0.526 0.352,-0.515L0.352,-0.23L0.353,-0.135C0.353,-0.098 0.354,-0.074 0.356,-0.063C0.357,-0.052 0.359,-0.045 0.363,-0.042C0.366,-0.038 0.372,-0.035 0.38,-0.033C0.389,-0.031 0.411,-0.029 0.446,-0.027L0.449,-0.024L0.449,-0L0.446,0.004C0.362,0.001 0.316,-0 0.306,-0C0.296,-0 0.249,0.001 0.167,0.004L0.163,-0L0.163,-0.024L0.167,-0.027C0.198,-0.029 0.218,-0.03 0.228,-0.032C0.238,-0.034 0.244,-0.037 0.248,-0.04C0.251,-0.043 0.254,-0.049 0.256,-0.06C0.259,-0.07 0.26,-0.092 0.26,-0.127L0.261,-0.23L0.261,-0.515C0.261,-0.52 0.259,-0.562 0.257,-0.642L0.184,-0.642C0.154,-0.642 0.128,-0.641 0.106,-0.64C0.085,-0.639 0.072,-0.635 0.069,-0.63C0.065,-0.625 0.062,-0.607 0.059,-0.578L0.054,-0.533L0.05,-0.528L0.027,-0.528L0.023,-0.532C0.023,-0.611 0.021,-0.662 0.019,-0.686L0.023,-0.69C0.08,-0.687 0.174,-0.686 0.306,-0.686C0.441,-0.686 0.535,-0.687 0.589,-0.69Z" style="fill-rule:nonzero;"/>
        </g>
        <g transform="matrix(9,0,0,9,269.659,146.049)">
            <path d="M0.188,-0.465L0.197,-0.459C0.195,-0.44 0.193,-0.407 0.192,-0.358L0.229,-0.405C0.241,-0.42 0.252,-0.432 0.261,-0.44C0.27,-0.448 0.281,-0.455 0.293,-0.459C0.306,-0.464 0.319,-0.466 0.332,-0.466C0.346,-0.466 0.359,-0.463 0.372,-0.458L0.375,-0.451C0.37,-0.407 0.367,-0.369 0.367,-0.336L0.345,-0.336C0.332,-0.366 0.311,-0.381 0.282,-0.381C0.262,-0.381 0.244,-0.375 0.229,-0.362C0.214,-0.349 0.204,-0.333 0.199,-0.314C0.194,-0.294 0.191,-0.27 0.191,-0.24L0.191,-0.186C0.191,-0.176 0.192,-0.152 0.193,-0.114C0.195,-0.076 0.196,-0.054 0.198,-0.048C0.199,-0.042 0.201,-0.038 0.204,-0.035C0.207,-0.033 0.212,-0.031 0.217,-0.03C0.222,-0.029 0.245,-0.027 0.286,-0.025L0.291,-0.021L0.291,-0L0.286,0.004C0.243,0.001 0.198,-0 0.15,-0C0.113,-0 0.074,0.001 0.033,0.004L0.029,-0L0.029,-0.021L0.033,-0.025C0.065,-0.027 0.083,-0.028 0.087,-0.029C0.091,-0.03 0.094,-0.032 0.097,-0.035C0.101,-0.038 0.103,-0.043 0.104,-0.05C0.105,-0.056 0.106,-0.077 0.108,-0.113C0.109,-0.148 0.11,-0.175 0.11,-0.193L0.11,-0.29C0.11,-0.303 0.109,-0.32 0.108,-0.343C0.107,-0.365 0.106,-0.379 0.105,-0.384C0.104,-0.389 0.101,-0.393 0.097,-0.396C0.093,-0.398 0.084,-0.399 0.072,-0.399L0.031,-0.4L0.026,-0.404L0.026,-0.425L0.03,-0.429C0.092,-0.436 0.145,-0.448 0.188,-0.465Z" style="fill-rule:nonzero;"/>
        </g>
        <g transform="matrix(9,0,0,9,273.216,146.049)">
            <path d="M0.104,-0.331L0.084,-0.336L0.081,-0.341L0.081,-0.401C0.139,-0.444 0.195,-0.466 0.25,-0.466C0.287,-0.466 0.318,-0.459 0.343,-0.445C0.368,-0.431 0.385,-0.413 0.396,-0.392C0.408,-0.371 0.413,-0.347 0.413,-0.319L0.411,-0.221L0.411,-0.075C0.411,-0.055 0.412,-0.043 0.415,-0.039C0.418,-0.035 0.421,-0.032 0.424,-0.031C0.428,-0.029 0.435,-0.028 0.444,-0.027L0.472,-0.024L0.476,-0.02L0.476,-0L0.472,0.003C0.448,0.001 0.426,0 0.406,0C0.386,0 0.363,0.001 0.335,0.003L0.328,-0.003L0.33,-0.082L0.224,0.001C0.206,0.008 0.186,0.012 0.165,0.012C0.139,0.012 0.117,0.007 0.098,-0.002C0.079,-0.011 0.065,-0.025 0.055,-0.042C0.045,-0.058 0.04,-0.079 0.04,-0.103C0.04,-0.151 0.055,-0.188 0.085,-0.215C0.115,-0.242 0.197,-0.265 0.33,-0.284C0.33,-0.332 0.319,-0.366 0.298,-0.385C0.276,-0.405 0.248,-0.415 0.211,-0.415C0.193,-0.415 0.175,-0.412 0.16,-0.407C0.144,-0.401 0.136,-0.397 0.133,-0.393C0.131,-0.39 0.122,-0.37 0.107,-0.333L0.104,-0.331ZM0.33,-0.254C0.239,-0.239 0.182,-0.222 0.16,-0.205C0.137,-0.187 0.126,-0.16 0.126,-0.123C0.126,-0.072 0.151,-0.047 0.202,-0.047C0.245,-0.047 0.288,-0.072 0.33,-0.122L0.33,-0.254Z" style="fill-rule:nonzero;"/>
        </g>
        <g transform="matrix(9,0,0,9,277.718,146.049)">
            <path d="M0.167,-0.465L0.176,-0.459C0.174,-0.437 0.173,-0.409 0.172,-0.373C0.198,-0.395 0.223,-0.416 0.247,-0.438C0.253,-0.445 0.26,-0.449 0.266,-0.452C0.272,-0.455 0.282,-0.458 0.296,-0.461C0.31,-0.465 0.324,-0.466 0.339,-0.466C0.364,-0.466 0.388,-0.461 0.411,-0.451C0.434,-0.441 0.452,-0.429 0.464,-0.415C0.476,-0.401 0.484,-0.385 0.488,-0.366C0.493,-0.347 0.495,-0.324 0.495,-0.296L0.495,-0.21C0.495,-0.205 0.496,-0.164 0.498,-0.089C0.498,-0.058 0.502,-0.04 0.508,-0.034C0.514,-0.028 0.534,-0.025 0.568,-0.025L0.572,-0.021L0.572,-0L0.568,0.004C0.527,0.001 0.499,-0 0.484,-0C0.476,-0 0.452,0.001 0.413,0.004L0.407,-0.001C0.411,-0.044 0.414,-0.099 0.414,-0.167L0.414,-0.231C0.414,-0.269 0.413,-0.297 0.411,-0.314C0.409,-0.331 0.404,-0.346 0.395,-0.36C0.385,-0.374 0.373,-0.385 0.358,-0.392C0.343,-0.4 0.324,-0.404 0.303,-0.404C0.286,-0.404 0.272,-0.402 0.26,-0.399C0.248,-0.395 0.234,-0.388 0.219,-0.378C0.204,-0.367 0.193,-0.357 0.186,-0.348C0.179,-0.339 0.175,-0.33 0.173,-0.322C0.172,-0.314 0.171,-0.297 0.171,-0.271L0.171,-0.186C0.171,-0.179 0.172,-0.156 0.173,-0.117C0.174,-0.078 0.176,-0.055 0.177,-0.049C0.178,-0.042 0.181,-0.038 0.184,-0.035C0.187,-0.032 0.19,-0.03 0.194,-0.029C0.199,-0.028 0.216,-0.027 0.247,-0.025L0.251,-0.021L0.251,-0L0.248,0.004C0.207,0.001 0.168,-0 0.13,-0C0.092,-0 0.053,0.001 0.013,0.004L0.008,-0L0.008,-0.021L0.013,-0.025C0.044,-0.027 0.062,-0.028 0.066,-0.029C0.07,-0.03 0.074,-0.032 0.077,-0.035C0.08,-0.038 0.082,-0.043 0.083,-0.05C0.084,-0.056 0.086,-0.077 0.087,-0.113C0.089,-0.148 0.089,-0.175 0.089,-0.193L0.089,-0.29C0.089,-0.303 0.089,-0.32 0.087,-0.343C0.086,-0.365 0.085,-0.379 0.084,-0.384C0.083,-0.389 0.081,-0.393 0.077,-0.396C0.072,-0.398 0.064,-0.399 0.051,-0.399L0.01,-0.4L0.006,-0.404L0.006,-0.425L0.01,-0.429C0.072,-0.436 0.124,-0.448 0.167,-0.465Z" style="fill-rule:nonzero;"/>
        </g>
        <g transform="matrix(9,0,0,9,282.958,146.049)">
            <path d="M0.049,-0.144L0.07,-0.144L0.075,-0.139C0.075,-0.112 0.077,-0.088 0.08,-0.069C0.09,-0.054 0.107,-0.041 0.132,-0.031C0.157,-0.022 0.181,-0.017 0.205,-0.017C0.24,-0.017 0.267,-0.026 0.288,-0.045C0.309,-0.063 0.319,-0.086 0.319,-0.111C0.319,-0.125 0.315,-0.137 0.308,-0.148C0.3,-0.158 0.289,-0.166 0.274,-0.173C0.259,-0.18 0.231,-0.188 0.192,-0.197C0.159,-0.205 0.135,-0.211 0.122,-0.215C0.109,-0.219 0.096,-0.227 0.083,-0.237C0.071,-0.248 0.062,-0.26 0.055,-0.276C0.049,-0.291 0.045,-0.307 0.045,-0.326C0.045,-0.369 0.063,-0.404 0.097,-0.43C0.132,-0.457 0.175,-0.47 0.227,-0.47C0.249,-0.47 0.273,-0.467 0.298,-0.461C0.324,-0.455 0.344,-0.449 0.357,-0.443L0.361,-0.437C0.359,-0.424 0.357,-0.389 0.356,-0.334L0.352,-0.33L0.333,-0.33L0.328,-0.334C0.327,-0.354 0.325,-0.368 0.323,-0.376C0.32,-0.384 0.315,-0.392 0.305,-0.402C0.296,-0.411 0.282,-0.419 0.265,-0.425C0.248,-0.431 0.23,-0.435 0.21,-0.435C0.191,-0.435 0.174,-0.432 0.16,-0.426C0.147,-0.42 0.136,-0.411 0.128,-0.399C0.119,-0.387 0.115,-0.373 0.115,-0.356C0.115,-0.344 0.118,-0.333 0.123,-0.323C0.128,-0.313 0.136,-0.305 0.146,-0.299C0.156,-0.293 0.167,-0.289 0.179,-0.286L0.232,-0.272C0.278,-0.261 0.31,-0.252 0.33,-0.244C0.35,-0.236 0.365,-0.223 0.375,-0.207C0.386,-0.19 0.392,-0.17 0.392,-0.147C0.392,-0.102 0.373,-0.063 0.336,-0.031C0.299,0.001 0.251,0.017 0.193,0.017C0.172,0.017 0.147,0.015 0.116,0.01C0.086,0.006 0.06,0.001 0.039,-0.005L0.036,-0.011L0.041,-0.044C0.043,-0.054 0.044,-0.064 0.044,-0.074C0.044,-0.085 0.045,-0.106 0.045,-0.139L0.049,-0.144Z" style="fill-rule:nonzero;"/>
        </g>
        <g transform="matrix(9,0,0,9,286.775,146.049)">
            <path d="M0.18,-0.465L0.189,-0.459C0.187,-0.438 0.186,-0.412 0.185,-0.382L0.231,-0.424C0.244,-0.436 0.253,-0.444 0.257,-0.448C0.262,-0.451 0.271,-0.455 0.287,-0.459C0.303,-0.464 0.319,-0.466 0.336,-0.466C0.369,-0.466 0.397,-0.458 0.422,-0.442C0.446,-0.426 0.464,-0.404 0.476,-0.375C0.52,-0.417 0.546,-0.44 0.553,-0.445C0.56,-0.449 0.572,-0.454 0.588,-0.459C0.604,-0.463 0.62,-0.466 0.636,-0.466C0.661,-0.466 0.685,-0.46 0.707,-0.449C0.728,-0.438 0.745,-0.424 0.758,-0.406C0.771,-0.388 0.778,-0.368 0.78,-0.348C0.782,-0.327 0.783,-0.298 0.783,-0.262L0.783,-0.21C0.783,-0.205 0.784,-0.164 0.786,-0.089C0.787,-0.058 0.79,-0.04 0.796,-0.034C0.803,-0.028 0.823,-0.025 0.856,-0.025L0.86,-0.021L0.86,-0L0.856,0.004C0.815,0.001 0.787,-0 0.772,-0C0.764,-0 0.741,0.001 0.702,0.004L0.695,-0.001C0.7,-0.044 0.702,-0.099 0.702,-0.167L0.702,-0.226C0.702,-0.277 0.699,-0.314 0.694,-0.334C0.689,-0.355 0.678,-0.372 0.66,-0.385C0.642,-0.398 0.621,-0.405 0.596,-0.405C0.579,-0.405 0.562,-0.401 0.547,-0.394C0.532,-0.387 0.518,-0.377 0.506,-0.363C0.493,-0.349 0.487,-0.336 0.485,-0.324C0.484,-0.313 0.483,-0.291 0.483,-0.259L0.483,-0.198C0.483,-0.183 0.484,-0.157 0.485,-0.117C0.487,-0.078 0.488,-0.055 0.49,-0.048C0.491,-0.042 0.493,-0.037 0.496,-0.034C0.499,-0.032 0.503,-0.03 0.507,-0.029C0.511,-0.028 0.529,-0.027 0.56,-0.025L0.564,-0.021L0.564,-0L0.56,0.004C0.519,0.001 0.48,-0 0.442,-0C0.408,-0 0.368,0.001 0.325,0.004L0.321,-0L0.321,-0.021L0.325,-0.025C0.357,-0.027 0.375,-0.028 0.379,-0.029C0.383,-0.03 0.386,-0.032 0.389,-0.035C0.392,-0.038 0.395,-0.043 0.396,-0.05C0.397,-0.056 0.398,-0.077 0.4,-0.113C0.401,-0.148 0.402,-0.175 0.402,-0.193L0.402,-0.249C0.402,-0.286 0.399,-0.314 0.394,-0.334C0.389,-0.354 0.378,-0.371 0.362,-0.384C0.345,-0.398 0.324,-0.405 0.299,-0.405C0.28,-0.405 0.262,-0.401 0.246,-0.393C0.23,-0.386 0.217,-0.376 0.206,-0.365C0.196,-0.354 0.19,-0.343 0.187,-0.333C0.185,-0.324 0.184,-0.303 0.184,-0.27L0.184,-0.198C0.184,-0.183 0.184,-0.157 0.186,-0.117C0.187,-0.078 0.188,-0.055 0.19,-0.048C0.191,-0.042 0.193,-0.037 0.197,-0.034C0.2,-0.032 0.203,-0.03 0.207,-0.029C0.211,-0.028 0.229,-0.027 0.26,-0.025L0.264,-0.021L0.264,-0L0.26,0.004C0.22,0.001 0.18,-0 0.143,-0C0.105,-0 0.066,0.001 0.025,0.004L0.021,-0L0.021,-0.021L0.025,-0.025C0.057,-0.027 0.075,-0.028 0.079,-0.029C0.083,-0.03 0.087,-0.032 0.09,-0.035C0.093,-0.038 0.095,-0.043 0.096,-0.05C0.097,-0.056 0.098,-0.077 0.1,-0.113C0.101,-0.148 0.102,-0.175 0.102,-0.193L0.102,-0.29C0.102,-0.303 0.101,-0.32 0.1,-0.343C0.099,-0.365 0.098,-0.379 0.097,-0.384C0.096,-0.389 0.094,-0.393 0.089,-0.396C0.085,-0.398 0.077,-0.399 0.064,-0.399L0.023,-0.4L0.019,-0.404L0.019,-0.425L0.022,-0.429C0.085,-0.436 0.137,-0.448 0.18,-0.465Z" style="fill-rule:nonzero;"/>
        </g>
        <g transform="matrix(9,0,0,9,294.722,146.049)">
            <path d="M0.141,-0.684C0.156,-0.684 0.169,-0.678 0.18,-0.667C0.19,-0.657 0.196,-0.644 0.196,-0.628C0.196,-0.613 0.19,-0.601 0.18,-0.59C0.169,-0.579 0.156,-0.574 0.141,-0.574C0.126,-0.574 0.113,-0.579 0.102,-0.59C0.091,-0.6 0.085,-0.613 0.085,-0.628C0.085,-0.644 0.091,-0.657 0.102,-0.667C0.113,-0.678 0.126,-0.684 0.141,-0.684ZM0.182,-0.465L0.191,-0.459C0.188,-0.416 0.186,-0.362 0.186,-0.296L0.186,-0.186C0.186,-0.179 0.187,-0.156 0.188,-0.117C0.189,-0.078 0.191,-0.055 0.192,-0.049C0.194,-0.042 0.196,-0.038 0.199,-0.035C0.202,-0.032 0.205,-0.03 0.209,-0.029C0.214,-0.028 0.231,-0.027 0.262,-0.025L0.267,-0.021L0.267,-0L0.263,0.004C0.222,0.001 0.183,-0 0.145,-0C0.108,-0 0.069,0.001 0.028,0.004L0.023,-0L0.023,-0.021L0.028,-0.025C0.059,-0.027 0.077,-0.028 0.081,-0.029C0.085,-0.03 0.089,-0.032 0.092,-0.035C0.095,-0.038 0.097,-0.043 0.098,-0.05C0.1,-0.056 0.101,-0.077 0.102,-0.113C0.104,-0.148 0.104,-0.175 0.104,-0.193L0.104,-0.29C0.104,-0.303 0.104,-0.32 0.103,-0.343C0.101,-0.365 0.1,-0.379 0.099,-0.384C0.099,-0.389 0.096,-0.393 0.092,-0.396C0.088,-0.398 0.079,-0.399 0.066,-0.399L0.025,-0.4L0.021,-0.404L0.021,-0.425L0.025,-0.429C0.087,-0.436 0.139,-0.448 0.182,-0.465Z" style="fill-rule:nonzero;"/>
        </g>
        <g transform="matrix(9,0,0,9,297.343,146.049)">
            <path d="M0.614,-0.429L0.604,-0.388L0.601,-0.384C0.584,-0.384 0.566,-0.384 0.545,-0.384C0.527,-0.384 0.504,-0.384 0.475,-0.384L0.472,-0.185C0.472,-0.137 0.474,-0.105 0.476,-0.091C0.479,-0.077 0.485,-0.067 0.495,-0.06C0.505,-0.053 0.518,-0.05 0.536,-0.05C0.557,-0.05 0.578,-0.056 0.596,-0.067L0.608,-0.049C0.6,-0.044 0.581,-0.028 0.552,-0C0.535,0.007 0.518,0.011 0.5,0.011C0.427,0.011 0.39,-0.024 0.39,-0.095L0.393,-0.179L0.393,-0.384L0.18,-0.384L0.177,-0.185C0.177,-0.137 0.178,-0.105 0.181,-0.091C0.184,-0.077 0.19,-0.067 0.2,-0.06C0.209,-0.053 0.223,-0.05 0.24,-0.05C0.262,-0.05 0.282,-0.056 0.301,-0.067L0.313,-0.049C0.305,-0.044 0.286,-0.028 0.256,-0C0.239,0.007 0.222,0.011 0.205,0.011C0.131,0.011 0.095,-0.024 0.095,-0.095L0.097,-0.179L0.097,-0.381L0.077,-0.381C0.063,-0.381 0.046,-0.381 0.027,-0.379L0.022,-0.383L0.022,-0.396L0.026,-0.401C0.056,-0.412 0.081,-0.423 0.1,-0.433C0.1,-0.518 0.099,-0.567 0.097,-0.581C0.131,-0.593 0.158,-0.605 0.18,-0.619L0.191,-0.609C0.188,-0.588 0.184,-0.529 0.18,-0.433L0.394,-0.433C0.394,-0.525 0.394,-0.574 0.393,-0.581C0.426,-0.593 0.454,-0.605 0.475,-0.619L0.487,-0.609C0.484,-0.588 0.48,-0.529 0.475,-0.43C0.491,-0.43 0.509,-0.43 0.528,-0.43C0.566,-0.43 0.594,-0.431 0.61,-0.433L0.614,-0.429Z" style="fill-rule:nonzero;"/>
        </g>
        <g transform="matrix(9,0,0,9,302.939,146.049)">
            <path d="M0.432,-0.072L0.416,-0.037C0.382,-0.015 0.352,-0.001 0.325,0.006C0.299,0.012 0.275,0.016 0.254,0.016C0.215,0.016 0.178,0.008 0.143,-0.007C0.108,-0.023 0.08,-0.049 0.058,-0.085C0.036,-0.121 0.025,-0.165 0.025,-0.217C0.025,-0.251 0.029,-0.282 0.038,-0.309C0.046,-0.337 0.055,-0.357 0.064,-0.371C0.073,-0.384 0.089,-0.399 0.111,-0.415C0.133,-0.431 0.157,-0.444 0.182,-0.454C0.206,-0.464 0.233,-0.469 0.262,-0.469C0.301,-0.469 0.335,-0.46 0.365,-0.441C0.395,-0.423 0.416,-0.399 0.428,-0.371C0.44,-0.342 0.446,-0.312 0.446,-0.279C0.446,-0.269 0.445,-0.259 0.444,-0.25L0.439,-0.245C0.417,-0.24 0.387,-0.236 0.35,-0.235C0.312,-0.233 0.287,-0.232 0.275,-0.232L0.119,-0.232C0.119,-0.165 0.136,-0.115 0.169,-0.083C0.203,-0.052 0.243,-0.036 0.292,-0.036C0.314,-0.036 0.336,-0.04 0.357,-0.047C0.378,-0.055 0.4,-0.066 0.424,-0.08L0.432,-0.072ZM0.119,-0.271C0.125,-0.271 0.147,-0.269 0.186,-0.268C0.226,-0.267 0.255,-0.266 0.273,-0.266C0.319,-0.266 0.346,-0.267 0.356,-0.269C0.356,-0.276 0.356,-0.282 0.356,-0.287C0.356,-0.337 0.346,-0.375 0.326,-0.399C0.305,-0.424 0.277,-0.436 0.242,-0.436C0.203,-0.436 0.173,-0.422 0.151,-0.395C0.129,-0.367 0.119,-0.326 0.119,-0.271Z" style="fill-rule:nonzero;"/>
        </g>
        <g transform="matrix(9,0,0,9,307.252,146.049)">
            <path d="M0.329,-0.662L0.329,-0.683L0.333,-0.687C0.395,-0.694 0.447,-0.706 0.49,-0.723L0.499,-0.717C0.495,-0.68 0.494,-0.605 0.494,-0.492L0.494,-0.172C0.494,-0.139 0.494,-0.111 0.495,-0.086C0.497,-0.062 0.499,-0.047 0.501,-0.042C0.504,-0.038 0.509,-0.034 0.516,-0.031C0.523,-0.028 0.542,-0.026 0.573,-0.023L0.577,-0.019L0.577,-0L0.573,0.004C0.538,0.002 0.51,0 0.491,0C0.473,0 0.448,0.002 0.416,0.004L0.41,-0.001C0.411,-0.033 0.412,-0.056 0.412,-0.068C0.412,-0.07 0.412,-0.076 0.412,-0.087C0.394,-0.074 0.376,-0.059 0.358,-0.043C0.332,-0.02 0.315,-0.005 0.307,0C0.292,0.008 0.27,0.012 0.243,0.012C0.198,0.012 0.16,0.001 0.128,-0.021C0.097,-0.044 0.074,-0.072 0.061,-0.106C0.048,-0.141 0.041,-0.176 0.041,-0.212C0.041,-0.249 0.048,-0.284 0.062,-0.318C0.076,-0.352 0.095,-0.377 0.121,-0.393C0.146,-0.408 0.174,-0.424 0.204,-0.441C0.234,-0.458 0.264,-0.466 0.294,-0.466C0.335,-0.466 0.375,-0.456 0.412,-0.436L0.41,-0.544C0.41,-0.582 0.409,-0.608 0.407,-0.623C0.406,-0.638 0.404,-0.647 0.402,-0.65C0.4,-0.652 0.397,-0.654 0.392,-0.656C0.388,-0.657 0.368,-0.658 0.333,-0.658L0.329,-0.662ZM0.412,-0.352C0.392,-0.375 0.37,-0.392 0.345,-0.404C0.32,-0.416 0.296,-0.422 0.271,-0.422C0.244,-0.422 0.218,-0.415 0.195,-0.4C0.171,-0.385 0.154,-0.363 0.144,-0.334C0.133,-0.305 0.128,-0.273 0.128,-0.239C0.128,-0.182 0.142,-0.137 0.171,-0.102C0.2,-0.068 0.236,-0.05 0.28,-0.05C0.304,-0.05 0.325,-0.056 0.343,-0.067C0.361,-0.078 0.377,-0.092 0.388,-0.111C0.4,-0.129 0.407,-0.148 0.409,-0.167C0.411,-0.185 0.412,-0.219 0.412,-0.269L0.412,-0.352Z" style="fill-rule:nonzero;"/>
        </g>
        <g transform="matrix(9,0,0,9,312.751,146.049)">
            <path d="M-0.007,0.141C0.013,0.107 0.028,0.082 0.037,0.065C0.045,0.048 0.053,0.03 0.06,0.011C0.066,-0.007 0.071,-0.022 0.073,-0.032C0.075,-0.042 0.078,-0.063 0.082,-0.094C0.084,-0.095 0.093,-0.097 0.109,-0.101C0.132,-0.107 0.156,-0.114 0.182,-0.124L0.194,-0.11C0.153,-0.014 0.104,0.067 0.047,0.134L0.005,0.153L-0.007,0.141Z" style="fill-rule:nonzero;"/>
        </g>
        <g transform="matrix(9,0,0,9,264.142,156.849)">
            <path d="M0.188,-0.465L0.197,-0.459C0.195,-0.44 0.193,-0.407 0.192,-0.358L0.229,-0.405C0.241,-0.42 0.252,-0.432 0.261,-0.44C0.27,-0.448 0.281,-0.455 0.293,-0.459C0.306,-0.464 0.319,-0.466 0.332,-0.466C0.346,-0.466 0.359,-0.463 0.372,-0.458L0.375,-0.451C0.37,-0.407 0.367,-0.369 0.367,-0.336L0.345,-0.336C0.332,-0.366 0.311,-0.381 0.282,-0.381C0.262,-0.381 0.244,-0.375 0.229,-0.362C0.214,-0.349 0.204,-0.333 0.199,-0.314C0.194,-0.294 0.191,-0.27 0.191,-0.24L0.191,-0.186C0.191,-0.176 0.192,-0.152 0.193,-0.114C0.195,-0.076 0.196,-0.054 0.198,-0.048C0.199,-0.042 0.201,-0.038 0.204,-0.035C0.207,-0.033 0.212,-0.031 0.217,-0.03C0.222,-0.029 0.245,-0.027 0.286,-0.025L0.291,-0.021L0.291,-0L0.286,0.004C0.243,0.001 0.198,-0 0.15,-0C0.113,-0 0.074,0.001 0.033,0.004L0.029,-0L0.029,-0.021L0.033,-0.025C0.065,-0.027 0.083,-0.028 0.087,-0.029C0.091,-0.03 0.094,-0.032 0.097,-0.035C0.101,-0.038 0.103,-0.043 0.104,-0.05C0.105,-0.056 0.106,-0.077 0.108,-0.113C0.109,-0.148 0.11,-0.175 0.11,-0.193L0.11,-0.29C0.11,-0.303 0.109,-0.32 0.108,-0.343C0.107,-0.365 0.106,-0.379 0.105,-0.384C0.104,-0.389 0.101,-0.393 0.097,-0.396C0.093,-0.398 0.084,-0.399 0.072,-0.399L0.031,-0.4L0.026,-0.404L0.026,-0.425L0.03,-0.429C0.092,-0.436 0.145,-0.448 0.188,-0.465Z" style="fill-rule:nonzero;"/>
        </g>
        <g transform="matrix(9,0,0,9,267.697,156.849)">
            <path d="M0.432,-0.072L0.416,-0.037C0.382,-0.015 0.352,-0.001 0.325,0.006C0.299,0.012 0.275,0.016 0.254,0.016C0.215,0.016 0.178,0.008 0.143,-0.007C0.108,-0.023 0.08,-0.049 0.058,-0.085C0.036,-0.121 0.025,-0.165 0.025,-0.217C0.025,-0.251 0.029,-0.282 0.038,-0.309C0.046,-0.337 0.055,-0.357 0.064,-0.371C0.073,-0.384 0.089,-0.399 0.111,-0.415C0.133,-0.431 0.157,-0.444 0.182,-0.454C0.206,-0.464 0.233,-0.469 0.262,-0.469C0.301,-0.469 0.335,-0.46 0.365,-0.441C0.395,-0.423 0.416,-0.399 0.428,-0.371C0.44,-0.342 0.446,-0.312 0.446,-0.279C0.446,-0.269 0.445,-0.259 0.444,-0.25L0.439,-0.245C0.417,-0.24 0.387,-0.236 0.35,-0.235C0.312,-0.233 0.287,-0.232 0.275,-0.232L0.119,-0.232C0.119,-0.165 0.136,-0.115 0.169,-0.083C0.203,-0.052 0.243,-0.036 0.292,-0.036C0.314,-0.036 0.336,-0.04 0.357,-0.047C0.378,-0.055 0.4,-0.066 0.424,-0.08L0.432,-0.072ZM0.119,-0.271C0.125,-0.271 0.147,-0.269 0.186,-0.268C0.226,-0.267 0.255,-0.266 0.273,-0.266C0.319,-0.266 0.346,-0.267 0.356,-0.269C0.356,-0.276 0.356,-0.282 0.356,-0.287C0.356,-0.337 0.346,-0.375 0.326,-0.399C0.305,-0.424 0.277,-0.436 0.242,-0.436C0.203,-0.436 0.173,-0.422 0.151,-0.395C0.129,-0.367 0.119,-0.326 0.119,-0.271Z" style="fill-rule:nonzero;"/>
        </g>
        <g transform="matrix(9,0,0,9,272.008,156.849)">
            <path d="M0.281,-0.025L0.285,-0.021L0.285,-0L0.281,0.004C0.271,0.004 0.252,0.003 0.224,0.002C0.199,0.001 0.173,-0 0.146,-0C0.11,-0 0.071,0.001 0.028,0.004L0.024,-0L0.024,-0.021L0.028,-0.025C0.059,-0.027 0.077,-0.028 0.082,-0.029C0.086,-0.03 0.089,-0.032 0.092,-0.035C0.095,-0.038 0.097,-0.043 0.098,-0.05C0.1,-0.056 0.101,-0.077 0.102,-0.113C0.104,-0.148 0.104,-0.175 0.104,-0.193L0.104,-0.382L0.042,-0.378L0.037,-0.382L0.037,-0.395L0.041,-0.399L0.104,-0.432L0.104,-0.461C0.104,-0.494 0.106,-0.519 0.109,-0.535C0.112,-0.552 0.117,-0.568 0.125,-0.582C0.133,-0.596 0.147,-0.614 0.167,-0.635C0.187,-0.657 0.204,-0.675 0.219,-0.689C0.234,-0.703 0.247,-0.712 0.258,-0.717C0.269,-0.721 0.282,-0.724 0.297,-0.724C0.31,-0.724 0.323,-0.721 0.337,-0.716L0.337,-0.636L0.326,-0.632C0.307,-0.648 0.286,-0.656 0.262,-0.656C0.245,-0.656 0.231,-0.653 0.218,-0.646C0.206,-0.639 0.197,-0.627 0.193,-0.612C0.188,-0.596 0.186,-0.57 0.186,-0.533L0.186,-0.432L0.238,-0.432C0.265,-0.432 0.291,-0.433 0.315,-0.435L0.319,-0.43L0.311,-0.387L0.306,-0.382C0.296,-0.382 0.29,-0.382 0.287,-0.382L0.224,-0.383L0.186,-0.383L0.186,-0.186C0.186,-0.176 0.187,-0.152 0.188,-0.115C0.19,-0.077 0.191,-0.055 0.192,-0.049C0.194,-0.042 0.196,-0.038 0.199,-0.035C0.202,-0.032 0.207,-0.03 0.214,-0.028C0.221,-0.027 0.243,-0.026 0.281,-0.025Z" style="fill-rule:nonzero;"/>
        </g>
        <g transform="matrix(9,0,0,9,275.005,156.849)">
            <path d="M0.188,-0.465L0.197,-0.459C0.195,-0.44 0.193,-0.407 0.192,-0.358L0.229,-0.405C0.241,-0.42 0.252,-0.432 0.261,-0.44C0.27,-0.448 0.281,-0.455 0.293,-0.459C0.306,-0.464 0.319,-0.466 0.332,-0.466C0.346,-0.466 0.359,-0.463 0.372,-0.458L0.375,-0.451C0.37,-0.407 0.367,-0.369 0.367,-0.336L0.345,-0.336C0.332,-0.366 0.311,-0.381 0.282,-0.381C0.262,-0.381 0.244,-0.375 0.229,-0.362C0.214,-0.349 0.204,-0.333 0.199,-0.314C0.194,-0.294 0.191,-0.27 0.191,-0.24L0.191,-0.186C0.191,-0.176 0.192,-0.152 0.193,-0.114C0.195,-0.076 0.196,-0.054 0.198,-0.048C0.199,-0.042 0.201,-0.038 0.204,-0.035C0.207,-0.033 0.212,-0.031 0.217,-0.03C0.222,-0.029 0.245,-0.027 0.286,-0.025L0.291,-0.021L0.291,-0L0.286,0.004C0.243,0.001 0.198,-0 0.15,-0C0.113,-0 0.074,0.001 0.033,0.004L0.029,-0L0.029,-0.021L0.033,-0.025C0.065,-0.027 0.083,-0.028 0.087,-0.029C0.091,-0.03 0.094,-0.032 0.097,-0.035C0.101,-0.038 0.103,-0.043 0.104,-0.05C0.105,-0.056 0.106,-0.077 0.108,-0.113C0.109,-0.148 0.11,-0.175 0.11,-0.193L0.11,-0.29C0.11,-0.303 0.109,-0.32 0.108,-0.343C0.107,-0.365 0.106,-0.379 0.105,-0.384C0.104,-0.389 0.101,-0.393 0.097,-0.396C0.093,-0.398 0.084,-0.399 0.072,-0.399L0.031,-0.4L0.026,-0.404L0.026,-0.425L0.03,-0.429C0.092,-0.436 0.145,-0.448 0.188,-0.465Z" style="fill-rule:nonzero;"/>
        </g>
        <g transform="matrix(9,0,0,9,278.56,156.849)">
            <path d="M0.104,-0.331L0.084,-0.336L0.081,-0.341L0.081,-0.401C0.139,-0.444 0.195,-0.466 0.25,-0.466C0.287,-0.466 0.318,-0.459 0.343,-0.445C0.368,-0.431 0.385,-0.413 0.396,-0.392C0.408,-0.371 0.413,-0.347 0.413,-0.319L0.411,-0.221L0.411,-0.075C0.411,-0.055 0.412,-0.043 0.415,-0.039C0.418,-0.035 0.421,-0.032 0.424,-0.031C0.428,-0.029 0.435,-0.028 0.444,-0.027L0.472,-0.024L0.476,-0.02L0.476,-0L0.472,0.003C0.448,0.001 0.426,0 0.406,0C0.386,0 0.363,0.001 0.335,0.003L0.328,-0.003L0.33,-0.082L0.224,0.001C0.206,0.008 0.186,0.012 0.165,0.012C0.139,0.012 0.117,0.007 0.098,-0.002C0.079,-0.011 0.065,-0.025 0.055,-0.042C0.045,-0.058 0.04,-0.079 0.04,-0.103C0.04,-0.151 0.055,-0.188 0.085,-0.215C0.115,-0.242 0.197,-0.265 0.33,-0.284C0.33,-0.332 0.319,-0.366 0.298,-0.385C0.276,-0.405 0.248,-0.415 0.211,-0.415C0.193,-0.415 0.175,-0.412 0.16,-0.407C0.144,-0.401 0.136,-0.397 0.133,-0.393C0.131,-0.39 0.122,-0.37 0.107,-0.333L0.104,-0.331ZM0.33,-0.254C0.239,-0.239 0.182,-0.222 0.16,-0.205C0.137,-0.187 0.126,-0.16 0.126,-0.123C0.126,-0.072 0.151,-0.047 0.202,-0.047C0.245,-0.047 0.288,-0.072 0.33,-0.122L0.33,-0.254Z" style="fill-rule:nonzero;"/>
        </g>
        <g transform="matrix(9,0,0,9,283.06,156.849)">
            <path d="M0.424,-0.052L0.404,-0.02C0.362,0.004 0.315,0.015 0.264,0.015C0.192,0.015 0.137,-0.006 0.098,-0.049C0.059,-0.091 0.039,-0.146 0.039,-0.214C0.039,-0.244 0.042,-0.272 0.049,-0.296C0.056,-0.32 0.064,-0.339 0.074,-0.355C0.085,-0.371 0.096,-0.383 0.108,-0.392C0.121,-0.401 0.142,-0.414 0.171,-0.43C0.201,-0.446 0.223,-0.457 0.238,-0.462C0.253,-0.467 0.273,-0.47 0.3,-0.47C0.35,-0.47 0.392,-0.46 0.424,-0.441C0.418,-0.404 0.413,-0.363 0.41,-0.318L0.405,-0.314L0.385,-0.314L0.381,-0.318C0.38,-0.346 0.378,-0.364 0.375,-0.374C0.373,-0.383 0.36,-0.393 0.337,-0.404C0.313,-0.415 0.288,-0.42 0.261,-0.42C0.235,-0.42 0.211,-0.414 0.19,-0.403C0.169,-0.392 0.153,-0.373 0.143,-0.348C0.132,-0.322 0.127,-0.292 0.127,-0.256C0.127,-0.226 0.131,-0.197 0.14,-0.169C0.148,-0.14 0.159,-0.117 0.173,-0.098C0.187,-0.079 0.205,-0.064 0.228,-0.053C0.251,-0.041 0.276,-0.036 0.304,-0.036C0.322,-0.036 0.339,-0.038 0.356,-0.042C0.372,-0.047 0.392,-0.055 0.414,-0.065L0.424,-0.052Z" style="fill-rule:nonzero;"/>
        </g>
        <g transform="matrix(9,0,0,9,287.055,156.849)">
            <path d="M0.022,-0.383L0.022,-0.396L0.026,-0.401C0.056,-0.412 0.081,-0.423 0.1,-0.433C0.1,-0.518 0.099,-0.567 0.097,-0.581C0.131,-0.593 0.158,-0.605 0.18,-0.619L0.191,-0.609C0.188,-0.588 0.184,-0.529 0.18,-0.43C0.196,-0.43 0.214,-0.43 0.232,-0.43C0.271,-0.43 0.298,-0.431 0.315,-0.433L0.318,-0.429L0.309,-0.388L0.305,-0.384C0.289,-0.384 0.27,-0.384 0.25,-0.384C0.232,-0.384 0.208,-0.384 0.18,-0.384L0.177,-0.185C0.177,-0.139 0.178,-0.109 0.18,-0.095C0.182,-0.081 0.188,-0.07 0.198,-0.062C0.207,-0.054 0.221,-0.05 0.24,-0.05C0.262,-0.05 0.282,-0.056 0.301,-0.067L0.313,-0.049C0.305,-0.044 0.286,-0.028 0.256,-0C0.239,0.007 0.222,0.011 0.205,0.011C0.131,0.011 0.095,-0.024 0.095,-0.095C0.095,-0.121 0.095,-0.143 0.097,-0.162C0.097,-0.167 0.097,-0.173 0.097,-0.179L0.097,-0.381L0.077,-0.381C0.063,-0.381 0.046,-0.381 0.027,-0.379L0.022,-0.383Z" style="fill-rule:nonzero;"/>
        </g>
        <g transform="matrix(9,0,0,9,289.99,156.849)">
            <path d="M0.432,-0.072L0.416,-0.037C0.382,-0.015 0.352,-0.001 0.325,0.006C0.299,0.012 0.275,0.016 0.254,0.016C0.215,0.016 0.178,0.008 0.143,-0.007C0.108,-0.023 0.08,-0.049 0.058,-0.085C0.036,-0.121 0.025,-0.165 0.025,-0.217C0.025,-0.251 0.029,-0.282 0.038,-0.309C0.046,-0.337 0.055,-0.357 0.064,-0.371C0.073,-0.384 0.089,-0.399 0.111,-0.415C0.133,-0.431 0.157,-0.444 0.182,-0.454C0.206,-0.464 0.233,-0.469 0.262,-0.469C0.301,-0.469 0.335,-0.46 0.365,-0.441C0.395,-0.423 0.416,-0.399 0.428,-0.371C0.44,-0.342 0.446,-0.312 0.446,-0.279C0.446,-0.269 0.445,-0.259 0.444,-0.25L0.439,-0.245C0.417,-0.24 0.387,-0.236 0.35,-0.235C0.312,-0.233 0.287,-0.232 0.275,-0.232L0.119,-0.232C0.119,-0.165 0.136,-0.115 0.169,-0.083C0.203,-0.052 0.243,-0.036 0.292,-0.036C0.314,-0.036 0.336,-0.04 0.357,-0.047C0.378,-0.055 0.4,-0.066 0.424,-0.08L0.432,-0.072ZM0.119,-0.271C0.125,-0.271 0.147,-0.269 0.186,-0.268C0.226,-0.267 0.255,-0.266 0.273,-0.266C0.319,-0.266 0.346,-0.267 0.356,-0.269C0.356,-0.276 0.356,-0.282 0.356,-0.287C0.356,-0.337 0.346,-0.375 0.326,-0.399C0.305,-0.424 0.277,-0.436 0.242,-0.436C0.203,-0.436 0.173,-0.422 0.151,-0.395C0.129,-0.367 0.119,-0.326 0.119,-0.271Z" style="fill-rule:nonzero;"/>
        </g>
        <g transform="matrix(9,0,0,9,294.301,156.849)">
            <path d="M0.329,-0.662L0.329,-0.683L0.333,-0.687C0.395,-0.694 0.447,-0.706 0.49,-0.723L0.499,-0.717C0.495,-0.68 0.494,-0.605 0.494,-0.492L0.494,-0.172C0.494,-0.139 0.494,-0.111 0.495,-0.086C0.497,-0.062 0.499,-0.047 0.501,-0.042C0.504,-0.038 0.509,-0.034 0.516,-0.031C0.523,-0.028 0.542,-0.026 0.573,-0.023L0.577,-0.019L0.577,-0L0.573,0.004C0.538,0.002 0.51,0 0.491,0C0.473,0 0.448,0.002 0.416,0.004L0.41,-0.001C0.411,-0.033 0.412,-0.056 0.412,-0.068C0.412,-0.07 0.412,-0.076 0.412,-0.087C0.394,-0.074 0.376,-0.059 0.358,-0.043C0.332,-0.02 0.315,-0.005 0.307,0C0.292,0.008 0.27,0.012 0.243,0.012C0.198,0.012 0.16,0.001 0.128,-0.021C0.097,-0.044 0.074,-0.072 0.061,-0.106C0.048,-0.141 0.041,-0.176 0.041,-0.212C0.041,-0.249 0.048,-0.284 0.062,-0.318C0.076,-0.352 0.095,-0.377 0.121,-0.393C0.146,-0.408 0.174,-0.424 0.204,-0.441C0.234,-0.458 0.264,-0.466 0.294,-0.466C0.335,-0.466 0.375,-0.456 0.412,-0.436L0.41,-0.544C0.41,-0.582 0.409,-0.608 0.407,-0.623C0.406,-0.638 0.404,-0.647 0.402,-0.65C0.4,-0.652 0.397,-0.654 0.392,-0.656C0.388,-0.657 0.368,-0.658 0.333,-0.658L0.329,-0.662ZM0.412,-0.352C0.392,-0.375 0.37,-0.392 0.345,-0.404C0.32,-0.416 0.296,-0.422 0.271,-0.422C0.244,-0.422 0.218,-0.415 0.195,-0.4C0.171,-0.385 0.154,-0.363 0.144,-0.334C0.133,-0.305 0.128,-0.273 0.128,-0.239C0.128,-0.182 0.142,-0.137 0.171,-0.102C0.2,-0.068 0.236,-0.05 0.28,-0.05C0.304,-0.05 0.325,-0.056 0.343,-0.067C0.361,-0.078 0.377,-0.092 0.388,-0.111C0.4,-0.129 0.407,-0.148 0.409,-0.167C0.411,-0.185 0.412,-0.219 0.412,-0.269L0.412,-0.352Z" style="fill-rule:nonzero;"/>
        </g>
        <g transform="matrix(9,0,0,9,264.142,167.649)">
            <path d="M0.183,-0.723L0.192,-0.717C0.188,-0.68 0.187,-0.605 0.187,-0.492L0.187,-0.186C0.187,-0.179 0.187,-0.156 0.188,-0.117C0.19,-0.078 0.191,-0.055 0.193,-0.049C0.194,-0.042 0.196,-0.038 0.199,-0.035C0.202,-0.032 0.206,-0.03 0.21,-0.029C0.214,-0.028 0.232,-0.027 0.263,-0.025L0.267,-0.021L0.267,-0L0.263,0.004C0.222,0.001 0.183,-0 0.146,-0C0.108,-0 0.069,0.001 0.028,0.004L0.024,-0L0.024,-0.021L0.028,-0.025C0.06,-0.027 0.078,-0.028 0.082,-0.029C0.086,-0.03 0.089,-0.032 0.093,-0.035C0.096,-0.038 0.098,-0.043 0.099,-0.05C0.1,-0.056 0.101,-0.077 0.103,-0.113C0.104,-0.148 0.105,-0.175 0.105,-0.193L0.105,-0.446L0.103,-0.55C0.102,-0.586 0.101,-0.611 0.1,-0.625C0.099,-0.639 0.097,-0.647 0.095,-0.65C0.093,-0.653 0.09,-0.654 0.085,-0.656C0.08,-0.657 0.06,-0.658 0.026,-0.658L0.021,-0.662L0.021,-0.683L0.025,-0.687C0.088,-0.694 0.14,-0.706 0.183,-0.723Z" style="fill-rule:nonzero;"/>
        </g>
        <g transform="matrix(9,0,0,9,266.761,167.649)">
            <path d="M0.141,-0.684C0.156,-0.684 0.169,-0.678 0.18,-0.667C0.19,-0.657 0.196,-0.644 0.196,-0.628C0.196,-0.613 0.19,-0.601 0.18,-0.59C0.169,-0.579 0.156,-0.574 0.141,-0.574C0.126,-0.574 0.113,-0.579 0.102,-0.59C0.091,-0.6 0.085,-0.613 0.085,-0.628C0.085,-0.644 0.091,-0.657 0.102,-0.667C0.113,-0.678 0.126,-0.684 0.141,-0.684ZM0.182,-0.465L0.191,-0.459C0.188,-0.416 0.186,-0.362 0.186,-0.296L0.186,-0.186C0.186,-0.179 0.187,-0.156 0.188,-0.117C0.189,-0.078 0.191,-0.055 0.192,-0.049C0.194,-0.042 0.196,-0.038 0.199,-0.035C0.202,-0.032 0.205,-0.03 0.209,-0.029C0.214,-0.028 0.231,-0.027 0.262,-0.025L0.267,-0.021L0.267,-0L0.263,0.004C0.222,0.001 0.183,-0 0.145,-0C0.108,-0 0.069,0.001 0.028,0.004L0.023,-0L0.023,-0.021L0.028,-0.025C0.059,-0.027 0.077,-0.028 0.081,-0.029C0.085,-0.03 0.089,-0.032 0.092,-0.035C0.095,-0.038 0.097,-0.043 0.098,-0.05C0.1,-0.056 0.101,-0.077 0.102,-0.113C0.104,-0.148 0.104,-0.175 0.104,-0.193L0.104,-0.29C0.104,-0.303 0.104,-0.32 0.103,-0.343C0.101,-0.365 0.1,-0.379 0.099,-0.384C0.099,-0.389 0.096,-0.393 0.092,-0.396C0.088,-0.398 0.079,-0.399 0.066,-0.399L0.025,-0.4L0.021,-0.404L0.021,-0.425L0.025,-0.429C0.087,-0.436 0.139,-0.448 0.182,-0.465Z" style="fill-rule:nonzero;"/>
        </g>
        <g transform="matrix(9,0,0,9,269.38,167.649)">
            <path d="M0.539,-0.432L0.542,-0.423C0.529,-0.402 0.521,-0.389 0.518,-0.383L0.427,-0.383C0.436,-0.365 0.44,-0.346 0.44,-0.327C0.44,-0.304 0.435,-0.281 0.425,-0.259C0.414,-0.237 0.399,-0.219 0.38,-0.204C0.361,-0.188 0.34,-0.176 0.316,-0.167C0.292,-0.158 0.265,-0.153 0.234,-0.153L0.212,-0.153C0.193,-0.138 0.18,-0.127 0.175,-0.119C0.169,-0.112 0.167,-0.104 0.167,-0.096C0.167,-0.082 0.173,-0.072 0.186,-0.066C0.199,-0.06 0.227,-0.057 0.268,-0.057L0.377,-0.059C0.412,-0.059 0.438,-0.055 0.457,-0.046C0.475,-0.038 0.49,-0.024 0.501,-0.003C0.513,0.018 0.519,0.041 0.519,0.064C0.519,0.1 0.507,0.135 0.484,0.171C0.46,0.207 0.427,0.234 0.383,0.252C0.339,0.271 0.292,0.28 0.242,0.28C0.214,0.28 0.187,0.277 0.162,0.271C0.137,0.265 0.116,0.255 0.097,0.243C0.078,0.23 0.063,0.214 0.052,0.194C0.04,0.174 0.035,0.153 0.035,0.131C0.035,0.119 0.036,0.106 0.04,0.093C0.044,0.08 0.05,0.066 0.061,0.05L0.149,0.001C0.121,-0.008 0.103,-0.017 0.095,-0.025C0.088,-0.034 0.084,-0.044 0.084,-0.056C0.084,-0.069 0.089,-0.083 0.097,-0.1L0.175,-0.157C0.129,-0.169 0.098,-0.187 0.082,-0.211C0.066,-0.235 0.058,-0.261 0.058,-0.29C0.058,-0.316 0.063,-0.342 0.075,-0.365C0.086,-0.389 0.103,-0.409 0.126,-0.423C0.149,-0.437 0.175,-0.448 0.203,-0.457C0.232,-0.465 0.258,-0.469 0.281,-0.469C0.322,-0.469 0.361,-0.456 0.397,-0.43C0.456,-0.43 0.503,-0.43 0.539,-0.432ZM0.142,-0.318C0.142,-0.299 0.146,-0.277 0.153,-0.254C0.161,-0.232 0.174,-0.214 0.191,-0.203C0.209,-0.191 0.228,-0.185 0.25,-0.185C0.279,-0.185 0.304,-0.194 0.325,-0.213C0.346,-0.232 0.356,-0.262 0.356,-0.302C0.356,-0.336 0.347,-0.366 0.328,-0.393C0.308,-0.42 0.281,-0.434 0.246,-0.434C0.216,-0.434 0.192,-0.424 0.172,-0.405C0.152,-0.385 0.142,-0.356 0.142,-0.318ZM0.285,0.009C0.232,0.009 0.202,0.01 0.194,0.011C0.186,0.013 0.175,0.018 0.16,0.028C0.146,0.038 0.134,0.051 0.124,0.068C0.115,0.084 0.11,0.103 0.11,0.124C0.11,0.161 0.124,0.191 0.151,0.214C0.179,0.237 0.215,0.249 0.261,0.249C0.295,0.249 0.326,0.241 0.355,0.227C0.384,0.213 0.406,0.194 0.42,0.169C0.434,0.145 0.44,0.122 0.44,0.1C0.44,0.078 0.435,0.059 0.423,0.043C0.412,0.027 0.397,0.018 0.378,0.014C0.36,0.011 0.329,0.009 0.285,0.009Z" style="fill-rule:nonzero;"/>
        </g>
        <g transform="matrix(9,0,0,9,274.384,167.649)">
            <path d="M0.166,-0.723L0.175,-0.717C0.172,-0.68 0.17,-0.605 0.17,-0.492L0.17,-0.372C0.197,-0.394 0.223,-0.416 0.246,-0.438C0.253,-0.445 0.259,-0.449 0.266,-0.452C0.272,-0.455 0.282,-0.458 0.296,-0.461C0.309,-0.465 0.324,-0.466 0.338,-0.466C0.363,-0.466 0.387,-0.461 0.41,-0.451C0.434,-0.441 0.451,-0.429 0.463,-0.415C0.475,-0.401 0.483,-0.385 0.488,-0.366C0.492,-0.347 0.495,-0.324 0.495,-0.296L0.495,-0.21C0.495,-0.205 0.495,-0.164 0.497,-0.089C0.498,-0.058 0.502,-0.04 0.508,-0.034C0.514,-0.028 0.534,-0.025 0.568,-0.025L0.572,-0.021L0.572,-0L0.568,0.004C0.527,0.001 0.499,-0 0.484,-0C0.476,-0 0.453,0.001 0.413,0.004L0.407,-0.001C0.411,-0.044 0.413,-0.099 0.413,-0.167L0.413,-0.231C0.413,-0.269 0.412,-0.297 0.41,-0.314C0.409,-0.331 0.403,-0.346 0.394,-0.36C0.385,-0.374 0.373,-0.385 0.358,-0.392C0.343,-0.4 0.324,-0.404 0.303,-0.404C0.281,-0.404 0.262,-0.401 0.247,-0.395C0.233,-0.389 0.217,-0.379 0.202,-0.364C0.187,-0.35 0.178,-0.338 0.175,-0.328C0.171,-0.319 0.17,-0.3 0.17,-0.273L0.17,-0.186C0.17,-0.179 0.171,-0.156 0.172,-0.117C0.173,-0.078 0.175,-0.055 0.176,-0.049C0.177,-0.042 0.18,-0.038 0.183,-0.035C0.186,-0.032 0.189,-0.03 0.193,-0.029C0.198,-0.028 0.215,-0.027 0.246,-0.025L0.25,-0.021L0.25,-0L0.247,0.004C0.206,0.001 0.167,-0 0.129,-0C0.091,-0 0.052,0.001 0.012,0.004L0.007,-0L0.007,-0.021L0.012,-0.025C0.043,-0.027 0.061,-0.028 0.065,-0.029C0.069,-0.03 0.073,-0.032 0.076,-0.035C0.079,-0.038 0.081,-0.043 0.082,-0.05C0.083,-0.056 0.085,-0.077 0.086,-0.113C0.088,-0.148 0.088,-0.175 0.088,-0.193L0.088,-0.446L0.086,-0.55C0.085,-0.586 0.084,-0.611 0.083,-0.625C0.082,-0.639 0.081,-0.647 0.079,-0.65C0.077,-0.653 0.073,-0.654 0.068,-0.656C0.063,-0.657 0.044,-0.658 0.009,-0.658L0.005,-0.662L0.005,-0.683L0.009,-0.687C0.071,-0.694 0.123,-0.706 0.166,-0.723Z" style="fill-rule:nonzero;"/>
        </g>
        <g transform="matrix(9,0,0,9,279.622,167.649)">
            <path d="M0.022,-0.383L0.022,-0.396L0.026,-0.401C0.056,-0.412 0.081,-0.423 0.1,-0.433C0.1,-0.518 0.099,-0.567 0.097,-0.581C0.131,-0.593 0.158,-0.605 0.18,-0.619L0.191,-0.609C0.188,-0.588 0.184,-0.529 0.18,-0.43C0.196,-0.43 0.214,-0.43 0.232,-0.43C0.271,-0.43 0.298,-0.431 0.315,-0.433L0.318,-0.429L0.309,-0.388L0.305,-0.384C0.289,-0.384 0.27,-0.384 0.25,-0.384C0.232,-0.384 0.208,-0.384 0.18,-0.384L0.177,-0.185C0.177,-0.139 0.178,-0.109 0.18,-0.095C0.182,-0.081 0.188,-0.07 0.198,-0.062C0.207,-0.054 0.221,-0.05 0.24,-0.05C0.262,-0.05 0.282,-0.056 0.301,-0.067L0.313,-0.049C0.305,-0.044 0.286,-0.028 0.256,-0C0.239,0.007 0.222,0.011 0.205,0.011C0.131,0.011 0.095,-0.024 0.095,-0.095C0.095,-0.121 0.095,-0.143 0.097,-0.162C0.097,-0.167 0.097,-0.173 0.097,-0.179L0.097,-0.381L0.077,-0.381C0.063,-0.381 0.046,-0.381 0.027,-0.379L0.022,-0.383Z" style="fill-rule:nonzero;"/>
        </g>
    </g>
    <g transform="matrix(4.16667,0,0,4.16667,69.3745,230.728)">
        <path d="M0,3.963C0,4.674 -0.036,4.737 -0.459,4.774L-0.765,4.801L-0.765,5.07C-0.351,5.054 -0.081,5.044 0.388,5.044C0.893,5.044 1.218,5.053 1.751,5.07L1.751,4.801L1.318,4.774C0.902,4.747 0.857,4.674 0.857,3.963L0.857,-0.087C0.857,-0.79 0.902,-0.871 1.318,-0.898L1.696,-0.926L1.696,-1.195C1.01,-1.169 1.01,-1.169 0.857,-1.169C0.723,-1.169 0.723,-1.169 0.001,-1.195L-2.361,3.817L-4.741,-1.196C-5.463,-1.169 -5.463,-1.169 -5.597,-1.169C-5.733,-1.169 -5.733,-1.169 -6.455,-1.196L-6.455,-0.927L-6.058,-0.899C-5.642,-0.872 -5.597,-0.792 -5.597,-0.089L-5.597,3.962C-5.597,4.665 -5.642,4.745 -6.058,4.773L-6.455,4.8L-6.455,5.069C-5.561,5.042 -5.561,5.042 -5.408,5.042C-5.274,5.042 -5.274,5.042 -4.327,5.069L-4.327,4.8L-4.724,4.773C-5.138,4.745 -5.183,4.665 -5.183,3.962L-5.183,-0.169L-2.667,5.159L-2.487,5.159C-2.423,5.024 -2.37,4.88 -2.315,4.745C-2.171,4.394 -2.062,4.141 -1.999,4.015L-0.394,0.607C-0.267,0.344 -0.16,0.138 0.003,-0.169L0.003,3.962" style="fill:rgb(24,22,28);fill-rule:nonzero;"/>
    </g>
    <g transform="matrix(4.16667,0,0,4.16667,93.712,237.49)">
        <path d="M0,2.79L-0.117,2.699C-0.695,3.043 -0.901,3.125 -1.289,3.125C-1.876,3.125 -2.362,2.861 -2.616,2.42C-2.786,2.122 -2.85,1.869 -2.868,1.348L-1.552,1.348C-0.93,1.348 -0.541,1.319 0.081,1.22C0.09,1.094 0.098,1.012 0.098,0.904C0.098,-0.134 -0.569,-0.809 -1.579,-0.809C-1.913,-0.809 -2.301,-0.691 -2.67,-0.476C-3.411,-0.053 -3.707,0.508 -3.707,1.444C-3.707,2.014 -3.571,2.5 -3.329,2.843C-2.968,3.32 -2.363,3.599 -1.687,3.599C-1.354,3.599 -1.02,3.525 -0.651,3.364C-0.407,3.267 -0.218,3.148 -0.182,3.094L-0.001,2.788L0,2.79ZM-0.703,1.014C-1.172,1.032 -1.389,1.04 -1.714,1.04C-2.128,1.04 -2.362,1.032 -2.85,0.986C-2.85,0.563 -2.814,0.364 -2.697,0.131C-2.506,-0.267 -2.119,-0.511 -1.686,-0.511C-1.389,-0.511 -1.155,-0.394 -0.992,-0.149C-0.794,0.147 -0.731,0.409 -0.703,1.012" style="fill:rgb(24,22,28);fill-rule:nonzero;"/>
    </g>
    <g transform="matrix(4.16667,0,0,4.16667,110.691,241.328)">
        <path d="M0,-1.441C-0.506,-1.657 -0.758,-1.729 -1.073,-1.729C-1.317,-1.729 -1.532,-1.676 -1.759,-1.559L-2.553,-1.143C-3.067,-0.873 -3.4,-0.214 -3.4,0.552C-3.4,1.272 -3.156,1.868 -2.714,2.229C-2.408,2.49 -1.984,2.607 -1.398,2.607C-1.218,2.607 -1.01,2.571 -0.965,2.536L0.037,1.696L-0.008,2.526C0.434,2.509 0.578,2.498 0.686,2.498C0.758,2.498 0.884,2.498 1.074,2.508C1.138,2.517 1.318,2.517 1.507,2.525L1.507,2.255L1.093,2.228C0.787,2.209 0.759,2.147 0.759,1.579L0.759,-3.975L0.678,-4.048C0.281,-3.893 -0.016,-3.821 -0.728,-3.714L-0.728,-3.461L-0.223,-3.461C-0.06,-3.461 0.004,-3.363 0.004,-3.092L0.004,-1.442L0,-1.441ZM0,0.508C0,1.094 -0.019,1.183 -0.136,1.391C-0.389,1.814 -0.83,2.094 -1.255,2.094C-2.047,2.094 -2.616,1.329 -2.616,0.255C-2.616,-0.728 -2.128,-1.304 -1.318,-1.304C-0.976,-1.304 -0.615,-1.187 -0.299,-0.971C-0.11,-0.844 -0.001,-0.727 -0.001,-0.655L-0.001,0.509" style="fill:rgb(24,22,28);fill-rule:nonzero;"/>
    </g>
    <g transform="matrix(4.16667,0,0,4.16667,125.604,243.515)">
        <path d="M0,-2.217L-0.081,-2.253C-0.54,-2.064 -1.009,-1.937 -1.487,-1.884L-1.487,-1.631L-1.154,-1.631C-0.793,-1.631 -0.757,-1.57 -0.757,-0.973L-0.757,1.055C-0.757,1.624 -0.784,1.686 -1.09,1.705L-1.506,1.732L-1.506,2.002C-0.604,1.975 -0.604,1.975 -0.377,1.975C-0.152,1.975 -0.152,1.975 0.75,2.002L0.75,1.732L0.333,1.705C0.027,1.686 0,1.624 0,1.055L0,-2.217ZM-0.415,-4.219C-0.685,-4.219 -0.92,-3.986 -0.92,-3.714C-0.92,-3.453 -0.686,-3.219 -0.423,-3.219C-0.162,-3.219 0.082,-3.453 0.082,-3.714C0.082,-3.967 -0.162,-4.219 -0.415,-4.219" style="fill:rgb(24,22,28);fill-rule:nonzero;"/>
    </g>
    <g transform="matrix(4.16667,0,0,4.16667,148.274,252.049)">
        <path d="M0,-4.265L-0.081,-4.301C-0.542,-4.112 -1.011,-3.985 -1.487,-3.932L-1.487,-3.679L-1.154,-3.679C-0.793,-3.679 -0.757,-3.618 -0.757,-3.021L-0.757,-1.551C-0.757,-1.353 -0.884,-1.101 -1.091,-0.893C-1.343,-0.641 -1.632,-0.515 -1.983,-0.515C-2.299,-0.515 -2.55,-0.613 -2.695,-0.786C-2.822,-0.929 -2.884,-1.208 -2.884,-1.605L-2.884,-4.264L-2.965,-4.3C-3.424,-4.111 -3.893,-3.984 -4.371,-3.931L-4.371,-3.678L-4.038,-3.678C-3.677,-3.678 -3.641,-3.616 -3.641,-3.02L-3.641,-1.506C-3.641,-0.875 -3.586,-0.595 -3.424,-0.369C-3.226,-0.099 -2.883,0.036 -2.369,0.036C-1.963,0.036 -1.604,-0.091 -1.36,-0.316L-0.755,-0.875C-0.755,-0.613 -0.764,-0.469 -0.791,-0.045C-0.188,-0.072 -0.178,-0.072 -0.043,-0.072C0.084,-0.072 0.084,-0.072 0.705,-0.045L0.705,-0.315L0.335,-0.342C0.029,-0.361 0.002,-0.414 0.002,-0.993L0.002,-4.264" style="fill:rgb(24,22,28);fill-rule:nonzero;"/>
    </g>
    <g transform="matrix(4.16667,0,0,4.16667,152.554,249.261)">
        <path d="M0,-3.01L0.333,-3.01C0.694,-3.01 0.73,-2.948 0.73,-2.352L0.73,-0.323C0.73,0.245 0.703,0.307 0.397,0.326L-0.019,0.353L-0.019,0.623C0.847,0.596 0.875,0.596 1.126,0.596C1.379,0.596 1.614,0.605 2.199,0.623L2.199,0.353L1.821,0.326C1.513,0.307 1.487,0.245 1.487,-0.323L1.487,-2.235C1.487,-2.641 2.082,-3.082 2.623,-3.082C3.111,-3.082 3.443,-2.623 3.443,-1.938L3.443,-0.323C3.443,0.245 3.416,0.307 3.11,0.326L2.694,0.353L2.694,0.623C3.596,0.596 3.596,0.596 3.822,0.596C4.047,0.596 4.047,0.596 4.949,0.623L4.949,0.353L4.535,0.326C4.227,0.307 4.201,0.245 4.201,-0.323L4.201,-2.235C4.201,-2.641 4.796,-3.082 5.337,-3.082C5.825,-3.082 6.157,-2.623 6.157,-1.938L6.157,0.623C6.707,0.596 6.716,0.596 6.87,0.596C6.987,0.596 6.987,0.596 7.673,0.623L7.673,0.353L7.25,0.326C6.942,0.307 6.916,0.245 6.916,-0.323L6.916,-2.18C6.916,-3.073 6.393,-3.632 5.563,-3.632C5.247,-3.632 4.986,-3.552 4.824,-3.407L4.14,-2.795C3.851,-3.39 3.481,-3.633 2.859,-3.633C2.526,-3.633 2.273,-3.553 2.111,-3.407L1.489,-2.831L1.489,-3.597L1.408,-3.633C0.949,-3.444 0.48,-3.317 0.002,-3.264L0.002,-3.011" style="fill:rgb(24,22,28);fill-rule:nonzero;"/>
    </g>
    <g transform="matrix(4.16667,0,0,4.16667,196.479,246.632)">
        <path d="M0,-3.779L0.089,-3.779L1.253,-4.299C1.262,-4.308 1.27,-4.308 1.28,-4.308C1.335,-4.308 1.352,-4.227 1.352,-4.011L1.352,0.362C1.352,0.83 1.254,0.931 0.766,0.955L0.261,0.983L0.261,1.253C1.65,1.226 1.65,1.226 1.749,1.226C1.866,1.226 2.065,1.226 2.371,1.235C2.48,1.244 2.796,1.244 3.165,1.252L3.165,0.983L2.696,0.955C2.201,0.928 2.11,0.828 2.11,0.36L2.11,-4.988L1.983,-5.032C1.397,-4.725 0.756,-4.455 -0.064,-4.166L0,-3.779" style="fill:rgb(24,22,28);fill-rule:nonzero;"/>
    </g>
    <g transform="matrix(4.16667,0,0,4.16667,216.912,238.974)">
        <path d="M0,2.063C-0.27,2.063 -0.514,2.316 -0.514,2.585C-0.514,2.856 -0.27,3.109 -0.009,3.109C0.28,3.109 0.532,2.865 0.532,2.585C0.532,2.316 0.28,2.063 0.001,2.063L0,2.063ZM0,-1.046C-0.27,-1.046 -0.514,-0.794 -0.514,-0.525C-0.514,-0.254 -0.27,-0.001 -0.009,-0.001C0.28,-0.001 0.532,-0.246 0.532,-0.515C0.532,-0.795 0.28,-1.046 0.001,-1.046" style="fill:rgb(24,22,28);fill-rule:nonzero;"/>
    </g>
    <g transform="matrix(4.16667,0,0,4.16667,238.145,241.424)">
        <path d="M0,1.061C0.098,0.637 0.27,-0.02 0.28,-0.094C0.297,-0.147 0.522,-0.581 0.847,-0.896C1.108,-1.14 1.452,-1.285 1.803,-1.285C2.289,-1.285 2.289,-0.807 2.289,-0.654C2.289,-0.103 1.866,0.997 1.767,1.275C1.658,1.555 1.622,1.645 1.622,1.817C1.622,2.303 1.992,2.573 2.399,2.573C3.265,2.573 3.616,1.284 3.616,1.184C3.616,1.139 3.588,1.077 3.499,1.077C3.399,1.077 3.39,1.121 3.354,1.238C3.129,2.004 2.751,2.346 2.426,2.346C2.364,2.346 2.201,2.346 2.201,2.059C2.201,1.832 2.29,1.598 2.364,1.4C2.544,0.941 2.905,-0.016 2.905,-0.52C2.905,-1.322 2.31,-1.512 1.832,-1.512C0.993,-1.512 0.552,-0.918 0.407,-0.728C0.354,-1.214 -0.016,-1.512 -0.466,-1.512C-0.846,-1.512 -1.035,-1.232 -1.161,-0.99C-1.314,-0.673 -1.441,-0.16 -1.441,-0.124C-1.441,-0.043 -1.377,-0.015 -1.314,-0.015C-1.214,-0.015 -1.197,-0.06 -1.151,-0.241C-0.979,-0.954 -0.79,-1.286 -0.484,-1.286C-0.214,-1.286 -0.214,-0.999 -0.214,-0.863C-0.214,-0.673 -0.286,-0.393 -0.341,-0.16C-0.403,0.075 -0.494,0.462 -0.53,0.571L-0.891,2.05C-0.953,2.266 -0.953,2.285 -0.953,2.312C-0.953,2.428 -0.872,2.573 -0.673,2.573C-0.546,2.573 -0.412,2.493 -0.348,2.383C-0.321,2.331 -0.25,2.041 -0.204,1.862L0.004,1.059" style="fill:rgb(24,22,28);fill-rule:nonzero;"/>
    </g>
    <g transform="matrix(4.16667,0,0,4.16667,262.87,254.745)">
        <path d="M0,-3.604C0,-3.784 -0.023,-3.784 -0.202,-3.784C-0.596,-3.403 -1.204,-3.403 -1.418,-3.403L-1.418,-3.169C-1.263,-3.169 -0.871,-3.169 -0.513,-3.336L-0.513,-0.326C-0.513,-0.128 -0.513,-0.052 -1.127,-0.052L-1.383,-0.052L-1.383,0.18C-1.055,0.158 -0.589,0.158 -0.256,0.158C0.078,0.158 0.544,0.158 0.871,0.18L0.871,-0.052L0.615,-0.052C0.001,-0.052 0.001,-0.129 0.001,-0.326L0.001,-3.604" style="fill:rgb(24,22,28);fill-rule:nonzero;"/>
    </g>
    <g transform="matrix(4.16667,0,0,4.16667,69.3745,295.395)">
        <path d="M0,3.963C0,4.674 -0.036,4.737 -0.459,4.774L-0.765,4.801L-0.765,5.07C-0.351,5.054 -0.081,5.044 0.388,5.044C0.893,5.044 1.218,5.053 1.751,5.07L1.751,4.801L1.318,4.774C0.902,4.747 0.857,4.674 0.857,3.963L0.857,-0.087C0.857,-0.79 0.902,-0.871 1.318,-0.898L1.696,-0.926L1.696,-1.195C1.01,-1.169 1.01,-1.169 0.857,-1.169C0.723,-1.169 0.723,-1.169 0.001,-1.195L-2.361,3.817L-4.741,-1.196C-5.463,-1.169 -5.463,-1.169 -5.597,-1.169C-5.733,-1.169 -5.733,-1.169 -6.455,-1.196L-6.455,-0.927L-6.058,-0.899C-5.642,-0.872 -5.597,-0.792 -5.597,-0.089L-5.597,3.962C-5.597,4.665 -5.642,4.745 -6.058,4.773L-6.455,4.8L-6.455,5.069C-5.561,5.042 -5.561,5.042 -5.408,5.042C-5.274,5.042 -5.274,5.042 -4.327,5.069L-4.327,4.8L-4.724,4.773C-5.138,4.745 -5.183,4.665 -5.183,3.962L-5.183,-0.169L-2.667,5.159L-2.487,5.159C-2.423,5.024 -2.37,4.88 -2.315,4.745C-2.171,4.394 -2.062,4.141 -1.999,4.015L-0.394,0.607C-0.267,0.344 -0.16,0.138 0.003,-0.169L0.003,3.962" style="fill:rgb(24,22,28);fill-rule:nonzero;"/>
    </g>
    <g transform="matrix(4.16667,0,0,4.16667,93.712,302.149)">
        <path d="M0,2.792L-0.117,2.7C-0.695,3.044 -0.901,3.126 -1.289,3.126C-1.876,3.126 -2.362,2.862 -2.616,2.421C-2.786,2.124 -2.85,1.87 -2.868,1.349L-1.552,1.349C-0.93,1.349 -0.541,1.32 0.081,1.222C0.09,1.095 0.098,1.014 0.098,0.905C0.098,-0.133 -0.569,-0.808 -1.579,-0.808C-1.913,-0.808 -2.301,-0.69 -2.67,-0.475C-3.411,-0.052 -3.707,0.509 -3.707,1.445C-3.707,2.015 -3.571,2.501 -3.329,2.844C-2.968,3.321 -2.363,3.6 -1.687,3.6C-1.354,3.6 -1.02,3.527 -0.651,3.365C-0.407,3.268 -0.218,3.149 -0.182,3.096L-0.001,2.79L0,2.792ZM-0.703,1.015C-1.172,1.033 -1.389,1.042 -1.714,1.042C-2.128,1.042 -2.362,1.033 -2.85,0.987C-2.85,0.564 -2.814,0.365 -2.697,0.132C-2.506,-0.266 -2.119,-0.51 -1.686,-0.51C-1.389,-0.51 -1.155,-0.393 -0.992,-0.148C-0.794,0.148 -0.731,0.41 -0.703,1.014" style="fill:rgb(24,22,28);fill-rule:nonzero;"/>
    </g>
    <g transform="matrix(4.16667,0,0,4.16667,110.691,305.99)">
        <path d="M0,-1.441C-0.506,-1.657 -0.758,-1.729 -1.073,-1.729C-1.317,-1.729 -1.532,-1.676 -1.759,-1.558L-2.553,-1.143C-3.067,-0.873 -3.4,-0.214 -3.4,0.552C-3.4,1.272 -3.156,1.868 -2.714,2.229C-2.408,2.49 -1.984,2.607 -1.398,2.607C-1.218,2.607 -1.01,2.571 -0.965,2.536L0.037,1.696L-0.008,2.526C0.434,2.509 0.578,2.498 0.686,2.498C0.758,2.498 0.884,2.498 1.074,2.508C1.138,2.517 1.318,2.517 1.507,2.526L1.507,2.255L1.093,2.228C0.787,2.209 0.759,2.147 0.759,1.579L0.759,-3.974L0.678,-4.048C0.281,-3.893 -0.016,-3.821 -0.728,-3.714L-0.728,-3.461L-0.223,-3.461C-0.06,-3.461 0.004,-3.362 0.004,-3.092L0.004,-1.442L0,-1.441ZM0,0.508C0,1.095 -0.019,1.183 -0.136,1.391C-0.389,1.814 -0.83,2.095 -1.255,2.095C-2.047,2.095 -2.616,1.329 -2.616,0.255C-2.616,-0.728 -2.128,-1.304 -1.318,-1.304C-0.976,-1.304 -0.615,-1.187 -0.299,-0.971C-0.11,-0.844 -0.001,-0.727 -0.001,-0.655L-0.001,0.509" style="fill:rgb(24,22,28);fill-rule:nonzero;"/>
    </g>
    <g transform="matrix(4.16667,0,0,4.16667,125.604,308.182)">
        <path d="M0,-2.218L-0.081,-2.254C-0.54,-2.065 -1.009,-1.938 -1.487,-1.885L-1.487,-1.632L-1.154,-1.632C-0.793,-1.632 -0.757,-1.571 -0.757,-0.974L-0.757,1.054C-0.757,1.623 -0.784,1.685 -1.09,1.704L-1.506,1.731L-1.506,2.002C-0.604,1.974 -0.604,1.974 -0.377,1.974C-0.152,1.974 -0.152,1.974 0.75,2.002L0.75,1.731L0.333,1.704C0.027,1.685 0,1.623 0,1.054L0,-2.218ZM-0.415,-4.22C-0.685,-4.22 -0.92,-3.987 -0.92,-3.715C-0.92,-3.454 -0.686,-3.22 -0.423,-3.22C-0.162,-3.22 0.082,-3.454 0.082,-3.715C0.082,-3.968 -0.162,-4.22 -0.415,-4.22" style="fill:rgb(24,22,28);fill-rule:nonzero;"/>
    </g>
    <g transform="matrix(4.16667,0,0,4.16667,148.274,316.715)">
        <path d="M0,-4.266L-0.081,-4.302C-0.542,-4.113 -1.011,-3.986 -1.487,-3.933L-1.487,-3.68L-1.154,-3.68C-0.793,-3.68 -0.757,-3.619 -0.757,-3.022L-0.757,-1.552C-0.757,-1.354 -0.884,-1.102 -1.091,-0.893C-1.343,-0.642 -1.632,-0.516 -1.983,-0.516C-2.299,-0.516 -2.55,-0.614 -2.695,-0.787C-2.822,-0.93 -2.884,-1.209 -2.884,-1.606L-2.884,-4.265L-2.965,-4.301C-3.424,-4.112 -3.893,-3.985 -4.371,-3.932L-4.371,-3.679L-4.038,-3.679C-3.677,-3.679 -3.641,-3.617 -3.641,-3.02L-3.641,-1.507C-3.641,-0.876 -3.586,-0.596 -3.424,-0.37C-3.226,-0.1 -2.883,0.036 -2.369,0.036C-1.963,0.036 -1.604,-0.092 -1.36,-0.317L-0.755,-0.876C-0.755,-0.614 -0.764,-0.47 -0.791,-0.046C-0.188,-0.073 -0.178,-0.073 -0.043,-0.073C0.084,-0.073 0.084,-0.073 0.705,-0.046L0.705,-0.316L0.335,-0.343C0.029,-0.362 0.002,-0.415 0.002,-0.994L0.002,-4.265" style="fill:rgb(24,22,28);fill-rule:nonzero;"/>
    </g>
    <g transform="matrix(4.16667,0,0,4.16667,152.554,313.928)">
        <path d="M0,-3.011L0.333,-3.011C0.694,-3.011 0.73,-2.949 0.73,-2.353L0.73,-0.324C0.73,0.244 0.703,0.306 0.397,0.325L-0.019,0.352L-0.019,0.623C0.847,0.595 0.875,0.595 1.126,0.595C1.379,0.595 1.614,0.604 2.199,0.623L2.199,0.352L1.821,0.325C1.513,0.306 1.487,0.244 1.487,-0.324L1.487,-2.236C1.487,-2.642 2.082,-3.083 2.623,-3.083C3.111,-3.083 3.443,-2.624 3.443,-1.939L3.443,-0.324C3.443,0.244 3.416,0.306 3.11,0.325L2.694,0.352L2.694,0.623C3.596,0.595 3.596,0.595 3.822,0.595C4.047,0.595 4.047,0.595 4.949,0.623L4.949,0.352L4.535,0.325C4.227,0.306 4.201,0.244 4.201,-0.324L4.201,-2.236C4.201,-2.642 4.796,-3.083 5.337,-3.083C5.825,-3.083 6.157,-2.624 6.157,-1.939L6.157,0.623C6.707,0.595 6.716,0.595 6.87,0.595C6.987,0.595 6.987,0.595 7.673,0.623L7.673,0.352L7.25,0.325C6.942,0.306 6.916,0.244 6.916,-0.324L6.916,-2.181C6.916,-3.074 6.393,-3.633 5.563,-3.633C5.247,-3.633 4.986,-3.553 4.824,-3.408L4.14,-2.796C3.851,-3.39 3.481,-3.634 2.859,-3.634C2.526,-3.634 2.273,-3.554 2.111,-3.408L1.489,-2.832L1.489,-3.598L1.408,-3.634C0.949,-3.445 0.48,-3.318 0.002,-3.265L0.002,-3.012" style="fill:rgb(24,22,28);fill-rule:nonzero;"/>
    </g>
    <g transform="matrix(4.16667,0,0,4.16667,194.558,291.49)">
        <path d="M0,5.772L0,6.006C1.686,5.979 1.686,5.979 2.011,5.979C2.336,5.979 2.336,5.979 4.077,6.006C4.058,5.818 4.058,5.727 4.058,5.602C4.058,5.485 4.058,5.393 4.077,5.196C3.04,5.241 2.625,5.251 0.957,5.287L2.598,3.545C3.473,2.618 3.743,2.121 3.743,1.444C3.743,0.408 3.04,-0.234 1.895,-0.234C1.247,-0.234 0.804,-0.053 0.362,0.397L0.209,1.625L0.47,1.625L0.587,1.209C0.732,0.686 1.057,0.46 1.66,0.46C2.435,0.46 2.932,0.948 2.932,1.713C2.932,2.391 2.552,3.057 1.534,4.141L0.001,5.772" style="fill:rgb(24,22,28);fill-rule:nonzero;"/>
    </g>
    <g transform="matrix(4.16667,0,0,4.16667,216.912,303.64)">
        <path d="M0,2.063C-0.27,2.063 -0.514,2.316 -0.514,2.585C-0.514,2.856 -0.27,3.109 -0.009,3.109C0.28,3.109 0.532,2.865 0.532,2.585C0.532,2.316 0.28,2.063 0.001,2.063L0,2.063ZM0,-1.046C-0.27,-1.046 -0.514,-0.794 -0.514,-0.525C-0.514,-0.254 -0.27,-0.001 -0.009,-0.001C0.28,-0.001 0.532,-0.246 0.532,-0.515C0.532,-0.795 0.28,-1.046 0.001,-1.046" style="fill:rgb(24,22,28);fill-rule:nonzero;"/>
    </g>
    <g transform="matrix(4.16667,0,0,4.16667,238.145,306.09)">
        <path d="M0,1.061C0.098,0.637 0.27,-0.02 0.28,-0.094C0.297,-0.147 0.522,-0.581 0.847,-0.896C1.108,-1.14 1.452,-1.285 1.803,-1.285C2.289,-1.285 2.289,-0.807 2.289,-0.654C2.289,-0.103 1.866,0.997 1.767,1.275C1.658,1.555 1.622,1.645 1.622,1.817C1.622,2.303 1.992,2.573 2.399,2.573C3.265,2.573 3.616,1.284 3.616,1.184C3.616,1.139 3.588,1.077 3.499,1.077C3.399,1.077 3.39,1.121 3.354,1.238C3.129,2.004 2.751,2.346 2.426,2.346C2.364,2.346 2.201,2.346 2.201,2.059C2.201,1.832 2.29,1.598 2.364,1.4C2.544,0.941 2.905,-0.016 2.905,-0.52C2.905,-1.322 2.31,-1.512 1.832,-1.512C0.993,-1.512 0.552,-0.918 0.407,-0.728C0.354,-1.214 -0.016,-1.512 -0.466,-1.512C-0.846,-1.512 -1.035,-1.232 -1.161,-0.99C-1.314,-0.673 -1.441,-0.16 -1.441,-0.124C-1.441,-0.043 -1.377,-0.015 -1.314,-0.015C-1.214,-0.015 -1.197,-0.06 -1.151,-0.241C-0.979,-0.954 -0.79,-1.286 -0.484,-1.286C-0.214,-1.286 -0.214,-0.999 -0.214,-0.863C-0.214,-0.673 -0.286,-0.393 -0.341,-0.16C-0.403,0.075 -0.494,0.462 -0.53,0.571L-0.891,2.05C-0.953,2.266 -0.953,2.285 -0.953,2.312C-0.953,2.428 -0.872,2.573 -0.673,2.573C-0.546,2.573 -0.412,2.493 -0.348,2.383C-0.321,2.331 -0.25,2.041 -0.204,1.862L0.004,1.059" style="fill:rgb(24,22,28);fill-rule:nonzero;"/>
    </g>
    <g transform="matrix(4.16667,0,0,4.16667,267.316,308.282)">
        <path d="M0,1.736L-0.22,1.736C-0.232,1.82 -0.292,2.214 -0.381,2.279C-0.423,2.314 -0.906,2.314 -0.989,2.314L-2.103,2.314L-1.34,1.695C-1.137,1.533 -0.607,1.152 -0.423,0.972C-0.243,0.795 0,0.49 0,0.067C0,-0.678 -0.673,-1.114 -1.472,-1.114C-2.241,-1.114 -2.777,-0.606 -2.777,-0.046C-2.777,0.258 -2.521,0.295 -2.455,0.295C-2.307,0.295 -2.133,0.186 -2.133,-0.028C-2.133,-0.159 -2.211,-0.35 -2.474,-0.35C-2.336,-0.655 -1.972,-0.88 -1.561,-0.88C-0.936,-0.88 -0.602,-0.414 -0.602,0.067C-0.602,0.49 -0.882,0.925 -1.299,1.306L-2.711,2.6C-2.772,2.66 -2.777,2.667 -2.777,2.85L-0.185,2.85L-0.001,1.736" style="fill:rgb(24,22,28);fill-rule:nonzero;"/>
    </g>
</svg>
