<?xml version="1.0" encoding="UTF-8" standalone="no"?>
<!DOCTYPE svg PUBLIC "-//W3C//DTD SVG 1.1//EN" "http://www.w3.org/Graphics/SVG/1.1/DTD/svg11.dtd">
<svg width="100%" height="100%" viewBox="0 0 591 591" version="1.1" xmlns="http://www.w3.org/2000/svg" xmlns:xlink="http://www.w3.org/1999/xlink" xml:space="preserve" xmlns:serif="http://www.serif.com/" style="fill-rule:evenodd;clip-rule:evenodd;stroke-miterlimit:10;">
    <g id="Ebene-1" serif:id="Ebene 1" transform="matrix(4.16667,0,0,4.16667,0,0)">
        <g transform="matrix(-1,0,0,1,280.94,0)">
            <g transform="matrix(0.42882,0,0,1,153.473,55.2227)">
                <path d="M0,0L219.659,0" style="fill:none;fill-rule:nonzero;stroke:rgb(35,31,32);stroke-width:0.97px;"/>
            </g>
            <g transform="matrix(0,1,1,0,188.585,50.7588)">
                <ellipse cx="4.125" cy="-0.001" rx="37.052" ry="4.125" style="fill:none;stroke:rgb(35,31,32);stroke-width:0.75px;"/>
            </g>
            <g transform="matrix(0,1,1,0,233.367,55.2225)">
                <path d="M-44.783,-44.783L44.783,-44.783" style="fill:none;fill-rule:nonzero;stroke:rgb(35,31,32);stroke-width:0.75px;"/>
            </g>
            <g transform="matrix(0,1,1,0,284.704,55.2226)">
                <path d="M-45.371,-45.371L45.371,-45.371" style="fill:none;fill-rule:nonzero;stroke:rgb(35,31,32);stroke-width:0.75px;"/>
            </g>
            <g transform="matrix(-0.943782,-0.330568,-0.330568,0.943782,169.695,7.32418)">
                <path d="M-21.457,3.649L0.621,3.649" style="fill:none;fill-rule:nonzero;stroke:rgb(0,174,239);stroke-width:0.75px;"/>
            </g>
            <g transform="matrix(1,0,0,1,169.037,12.5075)">
                <path d="M0,-3.529L-3.674,-2.835L-1.236,0L0,-3.529Z" style="fill:rgb(0,174,239);fill-rule:nonzero;"/>
            </g>
            <g transform="matrix(-0.943777,-0.330583,-0.330583,0.943777,158.55,43.4276)">
                <path d="M-7.071,1.202L0.205,1.202" style="fill:none;fill-rule:nonzero;stroke:rgb(0,174,239);stroke-width:0.75px;stroke-dasharray:1,1;"/>
            </g>
            <g transform="matrix(-0.943777,-0.330583,-0.330583,0.943777,158.55,6.07952)">
                <path d="M-7.071,1.202L0.205,1.202" style="fill:none;fill-rule:nonzero;stroke:rgb(0,174,239);stroke-width:0.75px;stroke-dasharray:1,1;"/>
            </g>
            <g transform="matrix(-0.943777,-0.330583,-0.330583,0.943777,158.55,25.8897)">
                <path d="M-7.071,1.202L0.205,1.202" style="fill:none;fill-rule:nonzero;stroke:rgb(0,174,239);stroke-width:0.75px;stroke-dasharray:1,1;"/>
            </g>
            <g transform="matrix(-0.943777,-0.330583,-0.330583,0.943777,158.55,79.7059)">
                <path d="M-7.071,1.202L0.205,1.202" style="fill:none;fill-rule:nonzero;stroke:rgb(0,174,239);stroke-width:0.75px;stroke-dasharray:1,1;"/>
            </g>
            <g transform="matrix(-0.943773,-0.330594,-0.330594,0.943773,167.093,25.8059)">
                <path d="M-24.151,4.108L0.699,4.108" style="fill:none;fill-rule:nonzero;stroke:rgb(0,174,239);stroke-width:0.75px;"/>
            </g>
            <g transform="matrix(1,0,0,1,166.209,31.3967)">
                <path d="M0,-3.529L-3.674,-2.835L-1.236,0L0,-3.529Z" style="fill:rgb(0,174,239);fill-rule:nonzero;"/>
            </g>
            <g transform="matrix(-0.943771,-0.3306,-0.3306,0.943771,169.696,81.1011)">
                <path d="M-21.469,3.652L0.621,3.651" style="fill:none;fill-rule:nonzero;stroke:rgb(0,174,239);stroke-width:0.75px;"/>
            </g>
            <g transform="matrix(1,0,0,1,169.037,86.2878)">
                <path d="M0,-3.53L-3.674,-2.836L-1.236,0L0,-3.53Z" style="fill:rgb(0,174,239);fill-rule:nonzero;"/>
            </g>
            <g transform="matrix(-0.93901,0.34389,0.34389,0.93901,193.327,99.7454)">
                <path d="M-52.398,-9.293L1.648,-9.293" style="fill:none;fill-rule:nonzero;stroke:rgb(0,174,239);stroke-width:0.75px;"/>
            </g>
            <g transform="matrix(-0.677024,-0.735961,-0.735961,0.677024,217.08,8.06596)">
                <path d="M-62.855,27.584L12.105,27.584" style="fill:none;fill-rule:nonzero;stroke:rgb(0,174,239);stroke-width:0.75px;"/>
            </g>
            <g transform="matrix(0.820989,0.570945,0.570945,-0.820989,203.161,26.325)">
                <path d="M-5.539,-17.667L56.346,-17.667" style="fill:none;fill-rule:nonzero;stroke:rgb(0,174,239);stroke-width:0.75px;"/>
            </g>
            <g transform="matrix(0.555724,-0.831367,-0.831367,-0.555724,171.116,55.5568)">
                <path d="M-1.602,2.998C1.153,4.84 4.379,4.839 5.61,2.998" style="fill:none;fill-rule:nonzero;stroke:rgb(35,31,32);stroke-width:0.5px;"/>
            </g>
            <g transform="matrix(-0.943771,-0.330599,-0.330599,0.943771,174.047,36.874)">
                <path d="M-73.559,12.511L2.128,12.511" style="fill:none;fill-rule:nonzero;stroke:rgb(0,174,239);stroke-width:0.75px;"/>
            </g>
            <g transform="matrix(1,0,0,1,169.037,49.9241)">
                <path d="M0,-3.53L-3.674,-2.836L-1.236,0L0,-3.53Z" style="fill:rgb(0,174,239);fill-rule:nonzero;"/>
            </g>
            <g transform="matrix(1,0,0,1,191.044,12.7036)">
                <path d="M0,0L45.996,0" style="fill:none;fill-rule:nonzero;stroke:rgb(35,31,32);stroke-width:0.5px;"/>
            </g>
            <g transform="matrix(1,0,0,1,191.408,11.4572)">
                <path d="M0,2.493L-2.158,1.246L0,0L0,2.493Z" style="fill:rgb(35,31,32);fill-rule:nonzero;"/>
            </g>
            <g transform="matrix(1,0,0,1,236.676,11.4572)">
                <path d="M0,2.493L2.158,1.246L0,0L0,2.493Z" style="fill:rgb(35,31,32);fill-rule:nonzero;"/>
            </g>
        </g>
        <g transform="matrix(1,0,0,1,-97.1197,0)">
            <text x="160.756px" y="118.08px" style="font-family:'PalatinoLinotype-Roman', 'Palatino Linotype', serif;font-size:9px;fill:rgb(35,31,32);">Collimating</text>
            <text x="176.461px" y="128.88px" style="font-family:'PalatinoLinotype-Roman', 'Palatino Linotype', serif;font-size:9px;fill:rgb(35,31,32);">lens</text>
        </g>
        <g transform="matrix(1,0,0,1,-209.258,-1.90065)">
            <text x="224.026px" y="113.247px" style="font-family:'PalatinoLinotype-Roman', 'Palatino Linotype', serif;font-size:9px;fill:rgb(35,31,32);">2D pro-</text>
            <text x="216.637px" y="124.047px" style="font-family:'PalatinoLinotype-Roman', 'Palatino Linotype', serif;font-size:9px;fill:rgb(35,31,32);">grammable</text>
            <text x="215.98px" y="134.847px" style="font-family:'PalatinoLinotype-Roman', 'Palatino Linotype', serif;font-size:9px;fill:rgb(35,31,32);">light source</text>
        </g>
        <g transform="matrix(1,0,0,1,31.4621,64.1623)">
            <path d="M0,-1.549C-1.028,-1.324 -2.03,-0.241 -2.03,0.948C-2.03,1.95 -1.327,2.49 -0.542,2.49C0.505,2.49 1.289,1.119 1.289,-0.16C1.289,-0.99 0.892,-1.477 0.612,-1.82C0.296,-2.207 -0.29,-2.92 -0.29,-3.325C-0.29,-3.479 -0.173,-3.722 0.205,-3.722C0.485,-3.722 0.666,-3.614 0.854,-3.488C0.981,-3.416 1.243,-3.254 1.377,-3.254C1.568,-3.254 1.738,-3.424 1.738,-3.623C1.738,-3.821 1.621,-3.85 1.197,-3.94C0.755,-4.039 0.592,-4.039 0.467,-4.039C-0.435,-4.039 -0.57,-3.399 -0.57,-3.11C-0.57,-2.659 -0.281,-2.045 -0.001,-1.55L0,-1.549ZM0.125,-1.334C0.603,-0.495 0.622,-0.09 0.622,0.208C0.622,0.894 0.252,2.264 -0.55,2.264C-0.938,2.264 -1.435,2.011 -1.435,1.2C-1.435,0.623 -1.118,-0.991 0.125,-1.334" style="fill:rgb(24,22,28);fill-rule:nonzero;"/>
        </g>
        <g transform="matrix(1,0,0,1,36.6427,65.713)">
            <path d="M0,0.89C0.645,0.21 0.781,-0.516 0.781,-0.529C0.781,-0.612 0.692,-0.612 0.674,-0.612C0.584,-0.612 0.578,-0.582 0.549,-0.47C0.411,0.019 0.138,0.413 -0.018,0.597C-0.029,0.461 -0.029,0.33 -0.043,0.192C-0.119,-0.553 -0.687,-0.899 -1.265,-0.899C-2.176,-0.899 -3.046,-0.101 -3.046,0.728C-3.046,1.342 -2.582,1.789 -1.883,1.789C-1.566,1.789 -1.037,1.706 -0.435,1.276C-0.346,1.532 -0.138,1.788 0.227,1.788C0.578,1.788 0.805,1.508 0.805,1.371C0.805,1.288 0.722,1.288 0.696,1.288C0.631,1.288 0.607,1.294 0.577,1.371C0.524,1.519 0.351,1.591 0.244,1.591C0.153,1.591 0.041,1.591 -0.001,0.888L0,0.89ZM-0.481,1.064C-1.065,1.522 -1.596,1.594 -1.871,1.594C-2.258,1.594 -2.525,1.356 -2.525,0.927C-2.525,0.719 -2.431,0.171 -2.181,-0.181C-1.912,-0.569 -1.53,-0.7 -1.274,-0.7C-0.857,-0.7 -0.644,-0.384 -0.559,0.08C-0.512,0.336 -0.518,0.713 -0.481,1.064" style="fill:rgb(24,22,28);fill-rule:nonzero;"/>
        </g>
        <g transform="matrix(-0.721939,0,0,1,214.546,-3.55271e-14)">
            <text x="240.003px" y="68.75px" style="font-family:'PalatinoLinotype-Roman', 'Palatino Linotype', serif;font-size:16.622px;fill:rgb(35,31,32);">}</text>
        </g>
        <g transform="matrix(1,0,0,1,109.428,52.6959)">
            <path d="M0,-0.299C0,-1.442 -0.689,-1.887 -1.342,-1.887C-2.385,-1.887 -3.436,-0.828 -3.436,0.277C-3.436,1.066 -2.898,1.588 -2.154,1.588C-1.326,1.588 -0.697,1.097 -0.498,0.945C-0.398,1.327 -0.145,1.588 0.231,1.588C0.646,1.588 0.898,1.182 0.898,1.044C0.898,0.96 0.813,0.96 0.79,0.96C0.705,0.96 0.698,0.99 0.675,1.059C0.592,1.282 0.392,1.396 0.253,1.396C0.008,1.396 0.008,0.714 0.008,0.56C0.008,0.461 0.008,0.446 0.077,0.362C0.207,0.201 0.415,-0.069 0.614,-0.459C0.843,-0.912 0.968,-1.38 0.968,-1.425C0.968,-1.433 0.968,-1.51 0.868,-1.51C0.775,-1.51 0.775,-1.487 0.736,-1.364C0.66,-1.095 0.483,-0.513 -0.001,0.132L-0.001,-0.298L0,-0.299ZM-0.537,0.721C-0.729,0.884 -1.35,1.396 -2.133,1.396C-2.562,1.396 -2.846,1.113 -2.846,0.56C-2.846,0.23 -2.7,-0.528 -2.393,-1.021C-2.194,-1.334 -1.786,-1.694 -1.342,-1.694C-0.828,-1.694 -0.659,-1.234 -0.591,-0.775C-0.529,-0.36 -0.574,0.376 -0.536,0.721" style="fill:rgb(24,22,28);fill-rule:nonzero;"/>
        </g>
        <g transform="matrix(1,0,0,1,-147.742,0)">
            <g transform="matrix(1,0,0,1,214.854,8.8651)">
                <path d="M0,-2.703L0.813,-2.703C0.993,-2.703 1.083,-2.703 1.083,-2.866C1.083,-2.983 0.992,-2.983 0.821,-2.983L0.055,-2.983C0.153,-3.524 0.28,-4.264 0.397,-4.75C0.478,-5.102 0.695,-5.228 0.875,-5.228C0.93,-5.228 1.136,-5.211 1.289,-5.101C1.108,-5.065 0.848,-4.903 0.848,-4.606C0.848,-4.381 1.018,-4.281 1.19,-4.281C1.434,-4.281 1.685,-4.479 1.685,-4.822C1.685,-5.228 1.288,-5.453 0.865,-5.453C0.46,-5.453 0.054,-5.166 -0.135,-4.795C-0.333,-4.408 -0.397,-4.056 -0.587,-2.983L-1.235,-2.983C-1.407,-2.983 -1.515,-2.983 -1.515,-2.821C-1.515,-2.704 -1.417,-2.704 -1.254,-2.704L-0.64,-2.704C-0.894,-1.398 -1.209,0.407 -1.407,1.344C-1.515,1.839 -1.66,2.525 -2.093,2.525C-2.228,2.525 -2.409,2.47 -2.498,2.398C-2.273,2.362 -2.048,2.173 -2.048,1.903C-2.048,1.676 -2.218,1.578 -2.39,1.578C-2.634,1.578 -2.885,1.776 -2.885,2.119C-2.885,2.535 -2.471,2.75 -2.093,2.75C-1.173,2.75 -0.749,1.253 -0.604,0.478L-0.001,-2.705" style="fill:rgb(24,22,28);fill-rule:nonzero;"/>
            </g>
            <g transform="matrix(1,0,0,1,219.995,8.1821)">
                <path d="M0,0.9L-0.22,0.9C-0.292,1.622 -0.476,2.253 -1.556,2.253L-2.204,2.253C-2.495,2.253 -2.495,2.206 -2.495,2.02L-2.495,-1.085C-2.495,-1.282 -2.495,-1.354 -1.924,-1.354L-1.704,-1.354L-1.704,-1.585C-2.02,-1.562 -2.456,-1.562 -2.776,-1.562C-3.044,-1.562 -3.582,-1.581 -3.724,-1.585L-3.724,-1.354L-3.568,-1.354C-3.092,-1.354 -3.092,-1.282 -3.092,-1.085L-3.092,1.985C-3.092,2.18 -3.092,2.252 -3.568,2.252L-3.724,2.252L-3.724,2.485L-0.183,2.485L0.001,0.899" style="fill:rgb(24,22,28);fill-rule:nonzero;"/>
            </g>
        </g>
    </g>
</svg>
