<?xml version="1.0" encoding="UTF-8" standalone="no"?>
<!DOCTYPE svg PUBLIC "-//W3C//DTD SVG 1.1//EN" "http://www.w3.org/Graphics/SVG/1.1/DTD/svg11.dtd">
<svg width="100%" height="100%" viewBox="0 0 721 544" version="1.1" xmlns="http://www.w3.org/2000/svg" xmlns:xlink="http://www.w3.org/1999/xlink" xml:space="preserve" xmlns:serif="http://www.serif.com/" style="fill-rule:evenodd;clip-rule:evenodd;stroke-linecap:square;">
    <g id="axes_1">
        <g id="line2d_15">
            <clipPath id="_clip1">
                <rect x="41.377" y="34.301" width="636.348" height="474.182"/>
            </clipPath>
            <g clip-path="url(#_clip1)">
                <path d="M-63.041,316.641l0.041,0.124l4.95,38.722l4.951,29.365l4.951,-4.972l4.95,3.531l4.951,29.799l4.95,16.498l4.951,-27.141l4.95,-9.682l4.951,16.871l4.951,-31.969l4.95,-67.297l4.951,-38.982l4.95,-4.718l4.951,32.653l4.95,66.895l4.951,-15.533l4.951,-53.104l4.95,-6.071l4.951,9.488l4.95,-76.62l4.951,-83.335l4.95,-53.779l4.951,-29.626l4.95,-9.475l4.951,9.475l4.951,29.626l4.95,53.779l4.951,83.335l4.95,76.62l4.951,-9.488l4.95,6.071l4.951,53.104l4.951,15.533l4.95,-66.895l4.951,-32.653l4.95,4.718l4.951,38.982l4.95,67.297l4.951,31.969l4.951,-16.871l4.95,9.682l4.951,27.141l4.95,-16.498l4.951,-29.799l4.95,-3.531l4.951,4.972l4.951,-29.365l4.95,-38.722l4.951,-14.999l4.95,17.039l4.951,50.633l4.95,21.424l4.951,-56.026l4.951,-33.65l4.95,-2.642l4.951,7.438l4.95,-20.507l4.951,-36.676l4.95,-20.879l4.951,5.024l4.95,38.339l4.951,89.867l4.951,34.09l4.95,-96.776l4.951,-42.35l4.95,-6.854l4.951,16.295l4.95,23.314l4.951,5.623l4.951,-8.537l4.95,0.856l4.951,19.953l4.95,32.689l4.951,6.466l9.901,-69.337l4.951,-19.741l4.95,-4.583l4.951,10.989l4.95,28.835l4.951,49.092l4.95,53.849l4.951,0.756l4.951,-21.935l4.95,-1.369l4.951,6.258l4.95,-25.867l4.951,-43.737l4.95,-29.725l4.951,-8.973l4.951,12.31l4.95,34.476l4.951,53.309l4.95,31.312l4.951,-27.69l4.95,-30.825l4.951,-18.288l4.951,-12.156l4.95,-10.746l4.951,-7.784l4.95,-0.039l4.951,11.915l4.95,25.7l4.951,33.17l4.95,14.611l4.951,-13.548l4.951,-11.323l4.95,6.208l4.951,17.686l4.95,-1.109l4.951,-28.813l4.95,-24.292l4.951,-5.145l4.951,15.593l4.95,31.78l4.951,29.148l4.95,7.078l4.951,5.329l4.95,22.589l4.951,15.15l4.951,-34.902l4.95,-41.224l4.951,-24.887l4.95,-14.73l4.951,-12.605l4.95,-9.047l4.951,3.937l4.951,28.354l4.95,67.109l4.951,50.227l4.95,-79.231l4.951,-43.339l4.95,0.486l4.951,40.501l4.951,22.708l4.95,-72.82l4.951,-55.091l4.95,-24.087l4.951,0.92l4.95,23.135l4.951,43.866l4.95,58.679l4.951,49.147l4.951,2.071l4.95,-41.566l4.951,-47.355l4.95,-31.745l4.951,-12.216l4.95,4.323l4.951,10.419" style="fill:none;fill-rule:nonzero;stroke:rgb(31,119,180);stroke-width:2.67px;"/>
            </g>
        </g>
        <g id="line2d_16">
            <clipPath id="_clip2">
                <rect x="1.63" y="-24.151" width="715.842" height="533.418"/>
            </clipPath>
            <g clip-path="url(#_clip2)">
                <path d="M1.63,502.2l715.842,0" style="fill:none;fill-rule:nonzero;stroke:black;stroke-width:3.01px;stroke-linecap:butt;stroke-dasharray:3.01,4.96;"/>
            </g>
        </g>
        <g id="line2d_17">
            <clipPath id="_clip3">
                <rect x="41.377" y="3.563" width="636.348" height="535.658"/>
            </clipPath>
            <g clip-path="url(#_clip3)">
                <path d="M55.813,539.221l0,-535.658" style="fill:none;fill-rule:nonzero;stroke:black;stroke-width:2.85px;stroke-linecap:butt;stroke-dasharray:2.85,4.7;"/>
            </g>
        </g>
    </g>
</svg>
