<?xml version="1.0" encoding="UTF-8" standalone="no"?>
<!DOCTYPE svg PUBLIC "-//W3C//DTD SVG 1.1//EN" "http://www.w3.org/Graphics/SVG/1.1/DTD/svg11.dtd">
<svg width="100%" height="100%" viewBox="0 0 1123 284" version="1.1" xmlns="http://www.w3.org/2000/svg" xmlns:xlink="http://www.w3.org/1999/xlink" xml:space="preserve" xmlns:serif="http://www.serif.com/" style="fill-rule:evenodd;clip-rule:evenodd;stroke-linecap:square;">
    <g>
        <g>
            <g id="axes_1">
                <g id="patch_2">
                    <rect x="44.608" y="85.685" width="411.139" height="142.524" style="fill:white;fill-rule:nonzero;"/>
                </g>
                <g id="matplotlib.axis_2">
                </g>
                <g id="line2d_11">
                    <clipPath id="_clip1">
                        <rect x="44.608" y="85.685" width="411.139" height="142.524"/>
                    </clipPath>
                    <g clip-path="url(#_clip1)">
                        <path d="M43.979,224.02l37.151,-0l1.004,-133.26l333.363,-0l1.004,133.26l40.164,-0" style="fill:none;fill-rule:nonzero;stroke:rgb(31,119,180);stroke-width:1.68px;"/>
                    </g>
                </g>
                <g id="line2d_12">
                    <clipPath id="_clip2">
                        <rect x="5.414" y="85.685" width="489.527" height="142.524"/>
                    </clipPath>
                    <g clip-path="url(#_clip2)">
                        <path d="M5.414,224.02l489.527,-0" style="fill:none;fill-rule:nonzero;stroke:black;stroke-width:1.77px;stroke-linecap:butt;stroke-dasharray:1.77,2.92;"/>
                    </g>
                </g>
                <g id="line2d_13">
                    <clipPath id="_clip3">
                        <rect x="44.608" y="45.591" width="411.139" height="182.617"/>
                    </clipPath>
                    <g clip-path="url(#_clip3)">
                        <path d="M248.816,228.209l-0,-182.618" style="fill:none;fill-rule:nonzero;stroke:black;stroke-width:2.05px;stroke-linecap:butt;stroke-dasharray:2.05,3.38;"/>
                    </g>
                </g>
                <g id="patch_3">
                </g>
                <g id="patch_4">
                </g>
                <g id="patch_5">
                </g>
            </g>
        </g>
    </g>
    <g id="patch_1">
        <rect x="549.089" y="16.247" width="321.954" height="241.466" style="fill:white;fill-rule:nonzero;"/>
    </g>
    <g id="axes_11" serif:id="axes_1">
        <g id="patch_21" serif:id="patch_2">
            <rect x="779.153" y="29.039" width="302.467" height="225.386" style="fill:white;fill-rule:nonzero;"/>
        </g>
        <g id="line2d_18">
            <clipPath id="_clip4">
                <rect x="779.153" y="29.039" width="302.467" height="225.386"/>
            </clipPath>
            <g clip-path="url(#_clip4)">
                <path d="M729.521,231.559l8.341,11.622l9.092,-47.685l9.092,23.718l9.093,24.544l9.092,-55.445l9.092,18.656l9.093,37.272l9.092,-64.739l9.092,13.642l9.093,51.488l9.092,-76.378l9.092,8.421l9.093,68.26l9.092,-91.961l9.092,2.445l9.093,89.731l9.092,-115.414l9.092,-6.157l9.093,121.699l9.092,-162.356l9.092,-34.873l9.093,-9.654l9.092,9.654l9.092,34.873l9.093,162.356l9.092,-121.699l9.092,6.157l9.093,115.414l9.092,-89.731l9.092,-2.445l9.092,91.961l9.093,-68.26l9.092,-8.421l9.092,76.378l9.093,-51.488l9.092,-13.642l9.092,64.739l9.093,-37.272l9.092,-18.656l9.092,55.445l9.093,-24.544l9.092,-23.718l9.092,47.685l1.755,-2.445" style="fill:none;fill-rule:nonzero;stroke:rgb(31,119,180);stroke-width:1.27px;"/>
            </g>
        </g>
        <g id="line2d_19">
            <clipPath id="_clip5">
                <rect x="744.138" y="29.039" width="372.495" height="225.386"/>
            </clipPath>
            <g clip-path="url(#_clip5)">
                <path d="M744.138,223.819l372.496,-0" style="fill:none;fill-rule:nonzero;stroke:black;stroke-width:1.43px;stroke-linecap:butt;stroke-dasharray:1.43,2.35;"/>
            </g>
        </g>
        <g id="line2d_20">
            <clipPath id="_clip6">
                <rect x="779.153" y="5.36" width="302.467" height="272.744"/>
            </clipPath>
            <g clip-path="url(#_clip6)">
                <path d="M928.801,278.104l-0,-272.744" style="fill:none;fill-rule:nonzero;stroke:black;stroke-width:1.41px;stroke-linecap:butt;stroke-dasharray:1.41,2.33;"/>
            </g>
        </g>
        <g id="patch_31" serif:id="patch_3">
        </g>
        <g id="patch_41" serif:id="patch_4">
        </g>
        <g id="patch_51" serif:id="patch_5">
        </g>
    </g>
    <g>
        <path d="M606.789,85.083c0,-1.234 -1.383,-1.421 -2.987,-1.421l-14.946,-0c-0.634,-0 -3.588,-0.296 -6.125,2.242c-0.225,0.225 -0.488,0.562 -0.488,0.9c0,0.112 0.113,0.22 0.3,0.22c1.084,0 2.242,-0.895 2.65,-1.229c0.45,-0.037 1.571,-0.037 2.729,-0.037l3.138,-0c-0.933,4.779 -2.467,10.012 -4.633,15.091c-1.084,2.542 -2.95,6.65 -3.621,7.434c-2.579,-0 -3.325,-1.717 -3.775,-2.5c-0.075,-0.15 -0.188,-0.225 -0.338,-0.225c-0.858,-0 -2.95,1.158 -2.95,1.829c0,0.187 0.188,0.487 0.263,0.637c0.746,1.492 2.429,2.35 4.108,2.35c2.242,0 4.183,-1.304 5.679,-3.024c0.746,-0.859 3.809,-7.396 4.484,-9.488l7.433,-0c-0,0.371 0.037,0.333 0.337,0.333c0.934,0 2.505,-0.971 2.8,-1.604c0.075,-0.15 0.188,-0.412 0.188,-0.6c-0,-0.15 -0.038,-0.221 -0.633,-0.221l-9.305,0c0.784,-1.946 2.542,-8.221 2.913,-10.012l7.475,-0c0.633,-0 2.054,0.071 2.054,0.971c0,0.333 -0.15,0.52 0.375,0.52c0.408,0 2.875,-0.895 2.875,-2.166Z" style="fill:rgb(35,31,32);fill-rule:nonzero;"/>
        <path d="M617.014,87.662c0,-2.242 0,-3.1 1.233,-4.221c0.746,-0.637 1.867,-1.233 3.588,-1.346c0.408,-0.037 0.708,-0.037 0.708,-0.45c0,-0.483 -0.337,-0.483 -0.821,-0.483c-3.662,-0 -7.325,1.754 -7.362,4.704l-0,9.567c-0.038,1.271 -1.121,3.737 -5.042,3.921c-0.337,0.037 -0.487,0.262 -0.487,0.487c-0,0.45 0.375,0.483 0.675,0.483c2.612,0.113 4.408,1.609 4.779,3.363c0.075,0.337 0.075,0.413 0.075,1.721l-0,7.396c-0,1.458 -0,3.287 2.617,4.633c1.979,1.046 4.333,1.083 4.745,1.083c0.484,0 0.821,0 0.821,-0.483c0,-0.413 -0.375,-0.45 -0.562,-0.45c-3.434,-0.225 -4.592,-2.092 -4.854,-3.1c-0.113,-0.45 -0.113,-0.525 -0.113,-1.871l0,-5.604c0,-1.083 0,-2.912 -0.037,-3.25c-0.375,-2.092 -2.205,-3.325 -4.296,-3.921c4.333,-1.233 4.333,-3.812 4.333,-5.454l0,-6.725Z" style="fill:rgb(35,31,32);fill-rule:nonzero;"/>
        <path d="M638.81,91.77c2.242,0 5.042,1.834 5.042,5.159c-0,2.387 -2.13,4.929 -5.042,4.929c-2.804,-0 -5.046,-2.242 -5.046,-4.784c0,-2.425 1.608,-5.304 5.046,-5.304Z" style="fill:rgb(35,31,32);fill-rule:nonzero;"/>
        <path d="M662.256,104.249c0.037,-1.27 1.121,-3.737 5.041,-3.92c0.338,-0.038 0.488,-0.263 0.488,-0.488c-0,-0.45 -0.375,-0.487 -0.671,-0.487c-2.617,-0.109 -4.408,-1.605 -4.783,-3.363c-0.075,-0.333 -0.075,-0.408 -0.075,-1.716l-0,-7.396c-0,-1.459 -0,-3.288 -2.617,-4.634c-1.979,-1.008 -4.333,-1.083 -4.742,-1.083c-0.45,-0 -0.825,-0 -0.825,0.483c0,0.413 0.375,0.45 0.563,0.45c3.437,0.225 4.596,2.092 4.854,3.1c0.113,0.45 0.113,0.525 0.113,1.867l-0,5.604c-0,1.083 -0,2.917 0.037,3.254c0.375,2.092 2.204,3.325 4.296,3.921c-4.333,1.233 -4.333,3.813 -4.333,5.454l-0,6.725c-0,2.242 -0,3.1 -1.234,4.221c-0.746,0.638 -1.866,1.233 -3.583,1.346c-0.413,0.037 -0.713,0.037 -0.713,0.45c0,0.483 0.375,0.483 0.825,0.483c3.659,0 7.321,-1.754 7.359,-4.708l-0,-9.563Z" style="fill:rgb(35,31,32);fill-rule:nonzero;"/>
    </g>
    <path d="M690.985,132.191l19.081,9.541l-19.081,9.541l-0,-19.082Z"/>
    <path d="M525.911,141.732l168.89,0" style="fill:none;stroke:black;stroke-width:3.18px;stroke-linecap:round;stroke-linejoin:round;stroke-miterlimit:1.5;"/>
</svg>
