<?xml version="1.0" encoding="UTF-8" standalone="no"?>
<!DOCTYPE svg PUBLIC "-//W3C//DTD SVG 1.1//EN" "http://www.w3.org/Graphics/SVG/1.1/DTD/svg11.dtd">
<svg width="100%" height="100%" viewBox="0 0 875 532" version="1.1" xmlns="http://www.w3.org/2000/svg" xmlns:xlink="http://www.w3.org/1999/xlink" xml:space="preserve" xmlns:serif="http://www.serif.com/" style="fill-rule:evenodd;clip-rule:evenodd;stroke-linecap:round;stroke-miterlimit:1.5;">
    <g transform="matrix(1,0,0,1,-146.367,-41.1683)">
        <g transform="matrix(0.648069,0,0,0.648069,51.5112,44.3569)">
            <rect x="146.367" y="126.038" width="118.415" height="118.415" style="fill:none;stroke:black;stroke-width:3.18px;"/>
        </g>
        <g transform="matrix(0.648069,0,0,0.648069,51.5112,121.098)">
            <rect x="146.367" y="126.038" width="118.415" height="118.415" style="fill:none;stroke:black;stroke-width:3.18px;"/>
        </g>
        <g transform="matrix(0.648069,0,0,0.648069,51.5112,197.839)">
            <rect x="146.367" y="126.038" width="118.415" height="118.415" style="fill:none;stroke:black;stroke-width:3.18px;"/>
        </g>
        <g transform="matrix(0.648069,0,0,0.648069,51.5112,274.58)">
            <rect x="146.367" y="126.038" width="118.415" height="118.415" style="fill:none;stroke:black;stroke-width:3.18px;"/>
        </g>
        <g transform="matrix(0.648069,0,0,0.648069,128.252,44.3569)">
            <rect x="146.367" y="126.038" width="118.415" height="118.415" style="fill:none;stroke:black;stroke-width:3.18px;"/>
        </g>
        <g transform="matrix(0.648069,0,0,0.648069,128.252,121.098)">
            <rect x="146.367" y="126.038" width="118.415" height="118.415" style="fill:none;stroke:black;stroke-width:3.18px;"/>
        </g>
        <g transform="matrix(0.648069,0,0,0.648069,128.252,197.839)">
            <rect x="146.367" y="126.038" width="118.415" height="118.415" style="fill:none;stroke:black;stroke-width:3.18px;"/>
        </g>
        <g transform="matrix(0.648069,0,0,0.648069,128.252,274.58)">
            <rect x="146.367" y="126.038" width="118.415" height="118.415" style="fill:none;stroke:black;stroke-width:3.18px;"/>
        </g>
        <g transform="matrix(0.648069,0,0,0.648069,204.994,44.3569)">
            <rect x="146.367" y="126.038" width="118.415" height="118.415" style="fill:none;stroke:black;stroke-width:3.18px;"/>
        </g>
        <g transform="matrix(0.648069,0,0,0.648069,204.994,121.098)">
            <rect x="146.367" y="126.038" width="118.415" height="118.415" style="fill:none;stroke:black;stroke-width:3.18px;"/>
        </g>
        <g transform="matrix(0.648069,0,0,0.648069,204.994,197.839)">
            <rect x="146.367" y="126.038" width="118.415" height="118.415" style="fill:none;stroke:black;stroke-width:3.18px;"/>
        </g>
        <g transform="matrix(0.648069,0,0,0.648069,204.994,274.58)">
            <rect x="146.367" y="126.038" width="118.415" height="118.415" style="fill:none;stroke:black;stroke-width:3.18px;"/>
        </g>
        <g transform="matrix(0.648069,0,0,0.648069,281.735,44.3569)">
            <rect x="146.367" y="126.038" width="118.415" height="118.415" style="fill:none;stroke:black;stroke-width:3.18px;"/>
        </g>
        <g transform="matrix(0.648069,0,0,0.648069,281.735,121.098)">
            <rect x="146.367" y="126.038" width="118.415" height="118.415" style="fill:none;stroke:black;stroke-width:3.18px;"/>
        </g>
        <g transform="matrix(0.648069,0,0,0.648069,281.735,197.839)">
            <rect x="146.367" y="126.038" width="118.415" height="118.415" style="fill:none;stroke:black;stroke-width:3.18px;"/>
        </g>
        <g transform="matrix(0.648069,0,0,0.648069,281.735,274.58)">
            <rect x="146.367" y="126.038" width="118.415" height="118.415" style="fill:none;stroke:black;stroke-width:3.18px;"/>
        </g>
    </g>
    <g transform="matrix(0.648069,0,0,0.648069,469.827,79.9298)">
        <rect x="146.367" y="126.038" width="118.415" height="118.415" style="fill:none;stroke:black;stroke-width:3.18px;"/>
    </g>
    <g transform="matrix(0.648069,0,0,0.648069,546.568,3.18863)">
        <rect x="146.367" y="126.038" width="118.415" height="118.415" style="fill:none;stroke:black;stroke-width:3.18px;"/>
    </g>
    <g transform="matrix(0.648069,0,0,0.648069,546.568,79.9298)">
        <rect x="146.367" y="126.038" width="118.415" height="118.415" style="fill:none;stroke:black;stroke-width:3.18px;"/>
    </g>
    <g transform="matrix(0.648069,0,0,0.648069,469.827,3.18863)">
        <rect x="146.367" y="126.038" width="118.415" height="118.415" style="fill:none;stroke:black;stroke-width:3.18px;"/>
    </g>
    <g id="Ebene2">
        <g transform="matrix(1.04373,0,0,1,-162.835,-29.7841)">
            <g transform="matrix(0.958103,-0,-0,1,156.013,29.7841)">
                <path d="M218.975,64.326L230.224,69.951L218.975,75.575L218.975,64.326Z" style="fill:rgb(35,31,32);"/>
                <path d="M76.794,69.951L221.225,69.951" style="fill:none;stroke:rgb(35,31,32);stroke-width:2.06px;"/>
            </g>
        </g>
        <g transform="matrix(1,0,0,1,-146.367,-499.255)">
            <g transform="matrix(37.5,0,0,37.5,223.806,544.716)">
                <path d="M0.039,-0.168L0.042,-0.172L0.066,-0.172L0.07,-0.168C0.072,-0.126 0.074,-0.101 0.077,-0.092C0.08,-0.082 0.088,-0.073 0.103,-0.062C0.118,-0.052 0.138,-0.044 0.162,-0.037C0.187,-0.031 0.212,-0.027 0.237,-0.027C0.271,-0.027 0.302,-0.034 0.33,-0.046C0.357,-0.059 0.379,-0.078 0.394,-0.102C0.409,-0.127 0.417,-0.154 0.417,-0.185C0.417,-0.207 0.413,-0.225 0.406,-0.241C0.399,-0.257 0.388,-0.27 0.375,-0.28C0.362,-0.289 0.347,-0.296 0.33,-0.301C0.313,-0.306 0.288,-0.311 0.254,-0.316C0.222,-0.322 0.196,-0.326 0.178,-0.331C0.16,-0.335 0.141,-0.341 0.123,-0.35C0.105,-0.359 0.09,-0.37 0.077,-0.384C0.065,-0.397 0.055,-0.414 0.048,-0.433C0.041,-0.453 0.037,-0.474 0.037,-0.497C0.037,-0.557 0.058,-0.607 0.101,-0.646C0.143,-0.685 0.2,-0.705 0.271,-0.705C0.299,-0.705 0.33,-0.701 0.364,-0.694C0.397,-0.687 0.427,-0.677 0.455,-0.663L0.458,-0.657C0.451,-0.627 0.446,-0.585 0.445,-0.529L0.44,-0.525L0.415,-0.525L0.411,-0.529C0.41,-0.568 0.41,-0.592 0.408,-0.603C0.407,-0.613 0.392,-0.625 0.364,-0.64C0.335,-0.655 0.305,-0.663 0.271,-0.663C0.244,-0.663 0.218,-0.657 0.194,-0.646C0.17,-0.635 0.152,-0.618 0.139,-0.594C0.127,-0.57 0.121,-0.546 0.121,-0.521C0.121,-0.502 0.124,-0.485 0.132,-0.47C0.139,-0.455 0.149,-0.443 0.161,-0.435C0.173,-0.426 0.187,-0.42 0.202,-0.416C0.218,-0.411 0.247,-0.406 0.289,-0.4C0.347,-0.392 0.389,-0.382 0.415,-0.37C0.441,-0.359 0.462,-0.34 0.478,-0.315C0.494,-0.29 0.501,-0.26 0.501,-0.225C0.501,-0.155 0.473,-0.097 0.417,-0.051C0.36,-0.005 0.292,0.018 0.211,0.018C0.144,0.018 0.085,0.006 0.034,-0.018L0.031,-0.024C0.035,-0.045 0.037,-0.093 0.039,-0.168Z" style="fill:rgb(35,31,32);fill-rule:nonzero;"/>
            </g>
            <g transform="matrix(37.5,0,0,37.5,243.49,544.716)">
                <path d="M0.166,-0.723L0.175,-0.717C0.172,-0.68 0.17,-0.605 0.17,-0.492L0.17,-0.372C0.197,-0.394 0.223,-0.416 0.246,-0.438C0.253,-0.445 0.259,-0.449 0.266,-0.452C0.272,-0.455 0.282,-0.458 0.296,-0.461C0.309,-0.465 0.324,-0.466 0.338,-0.466C0.363,-0.466 0.387,-0.461 0.41,-0.451C0.434,-0.441 0.451,-0.429 0.463,-0.415C0.475,-0.401 0.483,-0.385 0.488,-0.366C0.492,-0.347 0.495,-0.324 0.495,-0.296L0.495,-0.21C0.495,-0.205 0.495,-0.164 0.497,-0.089C0.498,-0.058 0.502,-0.04 0.508,-0.034C0.514,-0.028 0.534,-0.025 0.568,-0.025L0.572,-0.021L0.572,-0L0.568,0.004C0.527,0.001 0.499,-0 0.484,-0C0.476,-0 0.453,0.001 0.413,0.004L0.407,-0.001C0.411,-0.044 0.413,-0.099 0.413,-0.167L0.413,-0.231C0.413,-0.269 0.412,-0.297 0.41,-0.314C0.409,-0.331 0.403,-0.346 0.394,-0.36C0.385,-0.374 0.373,-0.385 0.358,-0.392C0.343,-0.4 0.324,-0.404 0.303,-0.404C0.281,-0.404 0.262,-0.401 0.247,-0.395C0.233,-0.389 0.217,-0.379 0.202,-0.364C0.187,-0.35 0.178,-0.338 0.175,-0.328C0.171,-0.319 0.17,-0.3 0.17,-0.273L0.17,-0.186C0.17,-0.179 0.171,-0.156 0.172,-0.117C0.173,-0.078 0.175,-0.055 0.176,-0.049C0.177,-0.042 0.18,-0.038 0.183,-0.035C0.186,-0.032 0.189,-0.03 0.193,-0.029C0.198,-0.028 0.215,-0.027 0.246,-0.025L0.25,-0.021L0.25,-0L0.247,0.004C0.206,0.001 0.167,-0 0.129,-0C0.091,-0 0.052,0.001 0.012,0.004L0.007,-0L0.007,-0.021L0.012,-0.025C0.043,-0.027 0.061,-0.028 0.065,-0.029C0.069,-0.03 0.073,-0.032 0.076,-0.035C0.079,-0.038 0.081,-0.043 0.082,-0.05C0.083,-0.056 0.085,-0.077 0.086,-0.113C0.088,-0.148 0.088,-0.175 0.088,-0.193L0.088,-0.446L0.086,-0.55C0.085,-0.586 0.084,-0.611 0.083,-0.625C0.082,-0.639 0.081,-0.647 0.079,-0.65C0.077,-0.653 0.073,-0.654 0.068,-0.656C0.063,-0.657 0.044,-0.658 0.009,-0.658L0.005,-0.662L0.005,-0.683L0.009,-0.687C0.071,-0.694 0.123,-0.706 0.166,-0.723Z" style="fill:rgb(35,31,32);fill-rule:nonzero;"/>
            </g>
            <g transform="matrix(37.5,0,0,37.5,265.316,544.716)">
                <path d="M0.141,-0.684C0.156,-0.684 0.169,-0.678 0.18,-0.667C0.19,-0.657 0.196,-0.644 0.196,-0.628C0.196,-0.613 0.19,-0.601 0.18,-0.59C0.169,-0.579 0.156,-0.574 0.141,-0.574C0.126,-0.574 0.113,-0.579 0.102,-0.59C0.091,-0.6 0.085,-0.613 0.085,-0.628C0.085,-0.644 0.091,-0.657 0.102,-0.667C0.113,-0.678 0.126,-0.684 0.141,-0.684ZM0.182,-0.465L0.191,-0.459C0.188,-0.416 0.186,-0.362 0.186,-0.296L0.186,-0.186C0.186,-0.179 0.187,-0.156 0.188,-0.117C0.189,-0.078 0.191,-0.055 0.192,-0.049C0.194,-0.042 0.196,-0.038 0.199,-0.035C0.202,-0.032 0.205,-0.03 0.209,-0.029C0.214,-0.028 0.231,-0.027 0.262,-0.025L0.267,-0.021L0.267,-0L0.263,0.004C0.222,0.001 0.183,-0 0.145,-0C0.108,-0 0.069,0.001 0.028,0.004L0.023,-0L0.023,-0.021L0.028,-0.025C0.059,-0.027 0.077,-0.028 0.081,-0.029C0.085,-0.03 0.089,-0.032 0.092,-0.035C0.095,-0.038 0.097,-0.043 0.098,-0.05C0.1,-0.056 0.101,-0.077 0.102,-0.113C0.104,-0.148 0.104,-0.175 0.104,-0.193L0.104,-0.29C0.104,-0.303 0.104,-0.32 0.103,-0.343C0.101,-0.365 0.1,-0.379 0.099,-0.384C0.099,-0.389 0.096,-0.393 0.092,-0.396C0.088,-0.398 0.079,-0.399 0.066,-0.399L0.025,-0.4L0.021,-0.404L0.021,-0.425L0.025,-0.429C0.087,-0.436 0.139,-0.448 0.182,-0.465Z" style="fill:rgb(35,31,32);fill-rule:nonzero;"/>
            </g>
            <g transform="matrix(37.5,0,0,37.5,276.229,544.716)">
                <path d="M0.281,-0.025L0.285,-0.021L0.285,-0L0.281,0.004C0.271,0.004 0.252,0.003 0.224,0.002C0.199,0.001 0.173,-0 0.146,-0C0.11,-0 0.071,0.001 0.028,0.004L0.024,-0L0.024,-0.021L0.028,-0.025C0.059,-0.027 0.077,-0.028 0.082,-0.029C0.086,-0.03 0.089,-0.032 0.092,-0.035C0.095,-0.038 0.097,-0.043 0.098,-0.05C0.1,-0.056 0.101,-0.077 0.102,-0.113C0.104,-0.148 0.104,-0.175 0.104,-0.193L0.104,-0.382L0.042,-0.378L0.037,-0.382L0.037,-0.395L0.041,-0.399L0.104,-0.432L0.104,-0.461C0.104,-0.494 0.106,-0.519 0.109,-0.535C0.112,-0.552 0.117,-0.568 0.125,-0.582C0.133,-0.596 0.147,-0.614 0.167,-0.635C0.187,-0.657 0.204,-0.675 0.219,-0.689C0.234,-0.703 0.247,-0.712 0.258,-0.717C0.269,-0.721 0.282,-0.724 0.297,-0.724C0.31,-0.724 0.323,-0.721 0.337,-0.716L0.337,-0.636L0.326,-0.632C0.307,-0.648 0.286,-0.656 0.262,-0.656C0.245,-0.656 0.231,-0.653 0.218,-0.646C0.206,-0.639 0.197,-0.627 0.193,-0.612C0.188,-0.596 0.186,-0.57 0.186,-0.533L0.186,-0.432L0.238,-0.432C0.265,-0.432 0.291,-0.433 0.315,-0.435L0.319,-0.43L0.311,-0.387L0.306,-0.382C0.296,-0.382 0.29,-0.382 0.287,-0.382L0.224,-0.383L0.186,-0.383L0.186,-0.186C0.186,-0.176 0.187,-0.152 0.188,-0.115C0.19,-0.077 0.191,-0.055 0.192,-0.049C0.194,-0.042 0.196,-0.038 0.199,-0.035C0.202,-0.032 0.207,-0.03 0.214,-0.028C0.221,-0.027 0.243,-0.026 0.281,-0.025Z" style="fill:rgb(35,31,32);fill-rule:nonzero;"/>
            </g>
            <g transform="matrix(37.5,0,0,37.5,288.717,544.716)">
                <path d="M0.022,-0.383L0.022,-0.396L0.026,-0.401C0.056,-0.412 0.081,-0.423 0.1,-0.433C0.1,-0.518 0.099,-0.567 0.097,-0.581C0.131,-0.593 0.158,-0.605 0.18,-0.619L0.191,-0.609C0.188,-0.588 0.184,-0.529 0.18,-0.43C0.196,-0.43 0.214,-0.43 0.232,-0.43C0.271,-0.43 0.298,-0.431 0.315,-0.433L0.318,-0.429L0.309,-0.388L0.305,-0.384C0.289,-0.384 0.27,-0.384 0.25,-0.384C0.232,-0.384 0.208,-0.384 0.18,-0.384L0.177,-0.185C0.177,-0.139 0.178,-0.109 0.18,-0.095C0.182,-0.081 0.188,-0.07 0.198,-0.062C0.207,-0.054 0.221,-0.05 0.24,-0.05C0.262,-0.05 0.282,-0.056 0.301,-0.067L0.313,-0.049C0.305,-0.044 0.286,-0.028 0.256,-0C0.239,0.007 0.222,0.011 0.205,0.011C0.131,0.011 0.095,-0.024 0.095,-0.095C0.095,-0.121 0.095,-0.143 0.097,-0.162C0.097,-0.167 0.097,-0.173 0.097,-0.179L0.097,-0.381L0.077,-0.381C0.063,-0.381 0.046,-0.381 0.027,-0.379L0.022,-0.383Z" style="fill:rgb(35,31,32);fill-rule:nonzero;"/>
            </g>
            <g transform="matrix(37.5,0,0,37.5,310.323,544.716)">
                <path d="M-0.006,-0.658L-0.011,-0.662L-0.011,-0.683L-0.007,-0.687C0.055,-0.694 0.108,-0.706 0.15,-0.723L0.16,-0.717C0.156,-0.68 0.154,-0.605 0.154,-0.492L0.154,-0.368C0.16,-0.376 0.172,-0.388 0.189,-0.405C0.206,-0.422 0.22,-0.434 0.23,-0.44C0.241,-0.447 0.255,-0.453 0.274,-0.458C0.292,-0.464 0.311,-0.466 0.332,-0.466C0.368,-0.466 0.401,-0.457 0.428,-0.439C0.456,-0.421 0.477,-0.396 0.49,-0.366C0.504,-0.336 0.511,-0.303 0.511,-0.269C0.511,-0.236 0.505,-0.204 0.494,-0.175C0.483,-0.145 0.469,-0.121 0.454,-0.102C0.445,-0.09 0.429,-0.076 0.406,-0.06C0.361,-0.027 0.329,-0.006 0.31,0.002C0.292,0.01 0.268,0.015 0.239,0.015C0.216,0.015 0.195,0.011 0.177,0.005C0.158,-0.001 0.139,-0.011 0.119,-0.025L0.08,0.012L0.063,0.006C0.07,-0.053 0.073,-0.121 0.073,-0.196L0.073,-0.455L0.071,-0.549C0.07,-0.585 0.069,-0.61 0.068,-0.624C0.066,-0.639 0.065,-0.647 0.063,-0.65C0.061,-0.653 0.058,-0.654 0.053,-0.656C0.048,-0.657 0.028,-0.658 -0.006,-0.658ZM0.154,-0.309L0.154,-0.126C0.154,-0.111 0.155,-0.101 0.156,-0.096C0.158,-0.091 0.164,-0.084 0.176,-0.074C0.188,-0.065 0.202,-0.057 0.221,-0.05C0.239,-0.043 0.258,-0.039 0.277,-0.039C0.324,-0.039 0.36,-0.057 0.386,-0.093C0.412,-0.129 0.425,-0.174 0.425,-0.229C0.425,-0.264 0.42,-0.294 0.409,-0.321C0.398,-0.347 0.382,-0.367 0.36,-0.381C0.338,-0.395 0.313,-0.402 0.286,-0.402C0.254,-0.402 0.226,-0.393 0.201,-0.374C0.176,-0.355 0.161,-0.333 0.154,-0.309Z" style="fill:rgb(35,31,32);fill-rule:nonzero;"/>
            </g>
            <g transform="matrix(37.5,0,0,37.5,331.069,544.716)">
                <path d="M0.022,0.265C0.033,0.238 0.041,0.213 0.047,0.19L0.059,0.19C0.075,0.207 0.092,0.216 0.11,0.216C0.133,0.216 0.154,0.204 0.171,0.181C0.188,0.158 0.212,0.108 0.243,0.029C0.231,-0.006 0.218,-0.038 0.206,-0.069L0.128,-0.262C0.12,-0.282 0.108,-0.31 0.092,-0.347C0.076,-0.384 0.066,-0.404 0.063,-0.408C0.06,-0.412 0.056,-0.415 0.051,-0.418C0.046,-0.422 0.033,-0.425 0.012,-0.428L0.008,-0.432L0.008,-0.451L0.012,-0.455C0.05,-0.453 0.088,-0.452 0.127,-0.452C0.174,-0.452 0.209,-0.453 0.234,-0.455L0.238,-0.451L0.238,-0.432L0.235,-0.428C0.231,-0.427 0.221,-0.427 0.205,-0.426C0.188,-0.424 0.178,-0.422 0.174,-0.418C0.17,-0.414 0.168,-0.409 0.168,-0.404C0.168,-0.398 0.173,-0.38 0.183,-0.35C0.193,-0.319 0.203,-0.292 0.212,-0.269L0.243,-0.193C0.263,-0.143 0.279,-0.106 0.29,-0.082L0.316,-0.139C0.325,-0.16 0.338,-0.192 0.355,-0.234L0.396,-0.337C0.406,-0.364 0.412,-0.381 0.413,-0.387C0.415,-0.394 0.416,-0.398 0.416,-0.401C0.416,-0.409 0.413,-0.413 0.408,-0.416C0.403,-0.419 0.391,-0.421 0.373,-0.423L0.353,-0.426L0.349,-0.43L0.349,-0.451L0.353,-0.455C0.38,-0.453 0.413,-0.452 0.45,-0.452C0.484,-0.452 0.512,-0.453 0.532,-0.455L0.536,-0.451L0.536,-0.43L0.532,-0.426C0.52,-0.425 0.511,-0.424 0.503,-0.421C0.496,-0.418 0.489,-0.413 0.483,-0.405C0.476,-0.398 0.465,-0.377 0.448,-0.342C0.431,-0.307 0.414,-0.271 0.397,-0.234L0.349,-0.129L0.236,0.134C0.227,0.157 0.214,0.181 0.2,0.208C0.185,0.234 0.168,0.252 0.147,0.264C0.126,0.275 0.104,0.281 0.08,0.281C0.06,0.281 0.04,0.276 0.022,0.265Z" style="fill:rgb(35,31,32);fill-rule:nonzero;"/>
            </g>
            <g transform="matrix(37.5,0,0,37.5,361.3,544.716)">
                <path d="M0.012,-0.011C0.023,-0.063 0.03,-0.104 0.032,-0.135L0.036,-0.139L0.052,-0.139L0.056,-0.135L0.056,-0.057C0.085,-0.032 0.118,-0.019 0.152,-0.019C0.168,-0.019 0.183,-0.022 0.198,-0.027C0.212,-0.032 0.225,-0.039 0.234,-0.048C0.244,-0.057 0.252,-0.069 0.258,-0.084C0.264,-0.099 0.267,-0.114 0.267,-0.129C0.267,-0.139 0.265,-0.149 0.26,-0.159C0.256,-0.169 0.25,-0.177 0.24,-0.183C0.23,-0.189 0.211,-0.194 0.182,-0.2C0.153,-0.205 0.132,-0.209 0.12,-0.213C0.108,-0.216 0.096,-0.222 0.085,-0.23C0.074,-0.239 0.065,-0.25 0.058,-0.264C0.051,-0.277 0.048,-0.292 0.048,-0.308C0.048,-0.33 0.053,-0.35 0.063,-0.367C0.073,-0.385 0.089,-0.402 0.109,-0.417C0.129,-0.433 0.15,-0.446 0.172,-0.457C0.193,-0.467 0.217,-0.472 0.243,-0.472C0.282,-0.472 0.314,-0.464 0.34,-0.449L0.342,-0.443C0.337,-0.424 0.333,-0.407 0.332,-0.392L0.326,-0.337L0.322,-0.333L0.307,-0.333L0.302,-0.337C0.302,-0.357 0.302,-0.375 0.301,-0.394C0.278,-0.419 0.247,-0.431 0.208,-0.431C0.178,-0.431 0.153,-0.422 0.135,-0.405C0.116,-0.387 0.107,-0.366 0.107,-0.341C0.107,-0.321 0.113,-0.305 0.125,-0.293C0.138,-0.281 0.161,-0.273 0.196,-0.268C0.227,-0.263 0.249,-0.259 0.262,-0.256C0.275,-0.253 0.287,-0.247 0.298,-0.24C0.309,-0.232 0.318,-0.222 0.324,-0.21C0.33,-0.198 0.333,-0.184 0.333,-0.168C0.333,-0.15 0.33,-0.132 0.323,-0.115C0.316,-0.098 0.306,-0.082 0.293,-0.067C0.28,-0.052 0.262,-0.037 0.238,-0.021C0.215,-0.005 0.194,0.005 0.175,0.011C0.157,0.017 0.138,0.02 0.117,0.02C0.084,0.02 0.05,0.011 0.014,-0.006L0.012,-0.011Z" style="fill:rgb(35,31,32);fill-rule:nonzero;"/>
            </g>
        </g>
        <g transform="matrix(1.94421,0,0,1.94421,-207.827,-160.175)">
            <path d="M264.782,126.038L264.782,244.454L146.367,244.454L146.367,126.038L264.782,126.038ZM263.724,127.097C263.724,127.097 147.426,127.097 147.426,127.097L147.426,243.395C158.483,243.395 252.667,243.395 263.724,243.395L263.724,127.097Z" style="fill:rgb(0,174,239);"/>
        </g>
        <g transform="matrix(1.94421,0,0,1.94421,-284.568,-160.175)">
            <path d="M264.782,126.038L264.782,244.454L146.367,244.454L146.367,126.038L264.782,126.038ZM263.724,127.097C263.724,127.097 147.426,127.097 147.426,127.097C147.426,127.097 147.426,243.395 147.426,243.395C147.426,243.395 263.724,243.395 263.724,243.395L263.724,127.097Z" style="fill:rgb(236,0,140);"/>
        </g>
        <g transform="matrix(1,0,0,1,-146.367,-94.0231)">
            <g transform="matrix(37.5,0,0,37.5,253.927,544.716)">
                <path d="M0.029,-0.69L0.09,-0.688C0.13,-0.687 0.156,-0.686 0.168,-0.686C0.18,-0.686 0.226,-0.687 0.309,-0.69L0.313,-0.687L0.313,-0.662L0.309,-0.659C0.286,-0.658 0.269,-0.657 0.257,-0.656C0.244,-0.654 0.236,-0.652 0.23,-0.648C0.224,-0.645 0.221,-0.636 0.219,-0.623C0.217,-0.61 0.216,-0.592 0.216,-0.568L0.215,-0.456L0.215,-0.23L0.216,-0.135C0.216,-0.098 0.217,-0.074 0.219,-0.063C0.22,-0.053 0.223,-0.046 0.226,-0.042C0.229,-0.038 0.235,-0.035 0.244,-0.033C0.252,-0.031 0.274,-0.029 0.309,-0.027L0.313,-0.024L0.313,-0L0.309,0.004C0.307,0.004 0.278,0.003 0.223,0.001C0.2,0 0.181,-0 0.168,-0C0.158,-0 0.112,0.001 0.029,0.004L0.025,-0L0.025,-0.024L0.029,-0.027C0.059,-0.029 0.079,-0.03 0.089,-0.032C0.099,-0.034 0.106,-0.037 0.11,-0.04C0.113,-0.043 0.116,-0.049 0.118,-0.06C0.12,-0.07 0.121,-0.092 0.122,-0.127L0.122,-0.23L0.122,-0.456L0.121,-0.551C0.121,-0.588 0.12,-0.612 0.118,-0.623C0.117,-0.634 0.115,-0.641 0.112,-0.645C0.108,-0.648 0.103,-0.651 0.094,-0.653C0.085,-0.656 0.063,-0.657 0.029,-0.659L0.025,-0.662L0.025,-0.687L0.029,-0.69Z" style="fill:rgb(35,31,32);fill-rule:nonzero;"/>
            </g>
            <g transform="matrix(37.5,0,0,37.5,266.561,544.716)">
                <path d="M0.167,-0.465L0.176,-0.459C0.174,-0.437 0.173,-0.409 0.172,-0.373C0.198,-0.395 0.223,-0.416 0.247,-0.438C0.253,-0.445 0.26,-0.449 0.266,-0.452C0.272,-0.455 0.282,-0.458 0.296,-0.461C0.31,-0.465 0.324,-0.466 0.339,-0.466C0.364,-0.466 0.388,-0.461 0.411,-0.451C0.434,-0.441 0.452,-0.429 0.464,-0.415C0.476,-0.401 0.484,-0.385 0.488,-0.366C0.493,-0.347 0.495,-0.324 0.495,-0.296L0.495,-0.21C0.495,-0.205 0.496,-0.164 0.498,-0.089C0.498,-0.058 0.502,-0.04 0.508,-0.034C0.514,-0.028 0.534,-0.025 0.568,-0.025L0.572,-0.021L0.572,-0L0.568,0.004C0.527,0.001 0.499,-0 0.484,-0C0.476,-0 0.452,0.001 0.413,0.004L0.407,-0.001C0.411,-0.044 0.414,-0.099 0.414,-0.167L0.414,-0.231C0.414,-0.269 0.413,-0.297 0.411,-0.314C0.409,-0.331 0.404,-0.346 0.395,-0.36C0.385,-0.374 0.373,-0.385 0.358,-0.392C0.343,-0.4 0.324,-0.404 0.303,-0.404C0.286,-0.404 0.272,-0.402 0.26,-0.399C0.248,-0.395 0.234,-0.388 0.219,-0.378C0.204,-0.367 0.193,-0.357 0.186,-0.348C0.179,-0.339 0.175,-0.33 0.173,-0.322C0.172,-0.314 0.171,-0.297 0.171,-0.271L0.171,-0.186C0.171,-0.179 0.172,-0.156 0.173,-0.117C0.174,-0.078 0.176,-0.055 0.177,-0.049C0.178,-0.042 0.181,-0.038 0.184,-0.035C0.187,-0.032 0.19,-0.03 0.194,-0.029C0.199,-0.028 0.216,-0.027 0.247,-0.025L0.251,-0.021L0.251,-0L0.248,0.004C0.207,0.001 0.168,-0 0.13,-0C0.092,-0 0.053,0.001 0.013,0.004L0.008,-0L0.008,-0.021L0.013,-0.025C0.044,-0.027 0.062,-0.028 0.066,-0.029C0.07,-0.03 0.074,-0.032 0.077,-0.035C0.08,-0.038 0.082,-0.043 0.083,-0.05C0.084,-0.056 0.086,-0.077 0.087,-0.113C0.089,-0.148 0.089,-0.175 0.089,-0.193L0.089,-0.29C0.089,-0.303 0.089,-0.32 0.087,-0.343C0.086,-0.365 0.085,-0.379 0.084,-0.384C0.083,-0.389 0.081,-0.393 0.077,-0.396C0.072,-0.398 0.064,-0.399 0.051,-0.399L0.01,-0.4L0.006,-0.404L0.006,-0.425L0.01,-0.429C0.072,-0.436 0.124,-0.448 0.167,-0.465Z" style="fill:rgb(35,31,32);fill-rule:nonzero;"/>
            </g>
            <g transform="matrix(37.5,0,0,37.5,288.387,544.716)">
                <path d="M0.181,-0.471L0.19,-0.465C0.187,-0.428 0.185,-0.395 0.185,-0.367C0.229,-0.407 0.26,-0.434 0.277,-0.447C0.295,-0.46 0.325,-0.466 0.367,-0.466C0.394,-0.466 0.418,-0.463 0.44,-0.455C0.462,-0.448 0.482,-0.436 0.5,-0.419C0.519,-0.402 0.534,-0.381 0.544,-0.356C0.555,-0.331 0.561,-0.302 0.561,-0.269C0.561,-0.245 0.557,-0.221 0.549,-0.197C0.542,-0.173 0.532,-0.151 0.52,-0.13C0.508,-0.11 0.498,-0.096 0.49,-0.09C0.483,-0.083 0.468,-0.073 0.445,-0.06C0.425,-0.047 0.404,-0.034 0.384,-0.02C0.37,-0.009 0.361,-0.003 0.355,-0C0.349,0.003 0.34,0.006 0.327,0.009C0.314,0.012 0.3,0.013 0.286,0.013C0.252,0.013 0.218,0.005 0.185,-0.013L0.185,0.091C0.185,0.098 0.185,0.122 0.187,0.16C0.188,0.199 0.189,0.222 0.191,0.229C0.192,0.235 0.194,0.24 0.197,0.243C0.2,0.246 0.204,0.247 0.208,0.248C0.212,0.249 0.23,0.25 0.261,0.252L0.265,0.256L0.265,0.277L0.261,0.281C0.221,0.279 0.181,0.277 0.144,0.277C0.107,0.277 0.068,0.279 0.027,0.281L0.022,0.277L0.022,0.256L0.027,0.252C0.058,0.25 0.076,0.249 0.08,0.248C0.084,0.247 0.088,0.245 0.091,0.242C0.094,0.239 0.096,0.234 0.097,0.227C0.099,0.22 0.1,0.198 0.101,0.162C0.103,0.125 0.104,0.097 0.104,0.079L0.104,-0.295C0.104,-0.312 0.103,-0.332 0.101,-0.354C0.1,-0.377 0.099,-0.389 0.098,-0.393C0.097,-0.397 0.094,-0.4 0.091,-0.402C0.087,-0.404 0.078,-0.405 0.065,-0.405L0.024,-0.406L0.02,-0.41L0.02,-0.431L0.024,-0.435C0.086,-0.442 0.138,-0.454 0.181,-0.471ZM0.185,-0.097C0.2,-0.081 0.218,-0.068 0.24,-0.057C0.262,-0.046 0.287,-0.04 0.313,-0.04C0.345,-0.04 0.373,-0.048 0.397,-0.064C0.421,-0.08 0.44,-0.103 0.454,-0.134C0.467,-0.165 0.474,-0.199 0.474,-0.236C0.474,-0.267 0.468,-0.295 0.456,-0.321C0.444,-0.347 0.426,-0.367 0.401,-0.382C0.376,-0.397 0.349,-0.405 0.321,-0.405C0.304,-0.405 0.287,-0.402 0.271,-0.396C0.255,-0.39 0.24,-0.381 0.225,-0.369C0.211,-0.357 0.201,-0.346 0.195,-0.336C0.189,-0.325 0.185,-0.316 0.185,-0.309C0.185,-0.302 0.185,-0.295 0.185,-0.286L0.185,-0.097Z" style="fill:rgb(35,31,32);fill-rule:nonzero;"/>
            </g>
            <g transform="matrix(37.5,0,0,37.5,310.927,544.716)">
                <path d="M0.169,-0.465L0.178,-0.459C0.175,-0.416 0.173,-0.362 0.173,-0.296L0.173,-0.183C0.173,-0.141 0.176,-0.112 0.182,-0.096C0.189,-0.079 0.2,-0.067 0.215,-0.058C0.231,-0.05 0.25,-0.045 0.271,-0.045C0.295,-0.045 0.316,-0.05 0.336,-0.059C0.355,-0.069 0.372,-0.082 0.385,-0.099C0.398,-0.116 0.406,-0.127 0.408,-0.133C0.41,-0.139 0.411,-0.155 0.412,-0.182L0.413,-0.237L0.413,-0.29C0.413,-0.303 0.412,-0.32 0.411,-0.343C0.41,-0.365 0.409,-0.379 0.408,-0.384C0.407,-0.389 0.405,-0.393 0.4,-0.396C0.396,-0.398 0.388,-0.399 0.375,-0.399L0.334,-0.4L0.33,-0.404L0.33,-0.425L0.333,-0.429C0.396,-0.436 0.448,-0.448 0.491,-0.465L0.5,-0.459C0.496,-0.416 0.495,-0.362 0.495,-0.296L0.495,-0.21C0.495,-0.206 0.495,-0.166 0.497,-0.091C0.498,-0.063 0.499,-0.046 0.502,-0.04C0.505,-0.034 0.509,-0.03 0.514,-0.028C0.519,-0.025 0.533,-0.024 0.557,-0.024L0.571,-0.024L0.575,-0.02L0.575,-0L0.571,0.004C0.525,0.001 0.495,-0 0.479,-0C0.459,-0 0.436,0.001 0.41,0.003L0.406,-0C0.408,-0.034 0.409,-0.062 0.41,-0.085C0.39,-0.069 0.366,-0.048 0.34,-0.021C0.33,-0.011 0.315,-0.002 0.296,0.004C0.278,0.011 0.256,0.015 0.232,0.015C0.195,0.015 0.167,0.009 0.147,-0.003C0.126,-0.014 0.112,-0.03 0.104,-0.051C0.095,-0.071 0.091,-0.106 0.091,-0.156L0.091,-0.194L0.091,-0.29C0.091,-0.303 0.091,-0.32 0.089,-0.343C0.088,-0.365 0.087,-0.379 0.086,-0.384C0.085,-0.389 0.083,-0.393 0.079,-0.396C0.074,-0.398 0.066,-0.399 0.053,-0.399L0.012,-0.4L0.008,-0.404L0.008,-0.425L0.012,-0.429C0.074,-0.436 0.126,-0.448 0.169,-0.465Z" style="fill:rgb(35,31,32);fill-rule:nonzero;"/>
            </g>
            <g transform="matrix(37.5,0,0,37.5,333.541,544.716)">
                <path d="M0.022,-0.383L0.022,-0.396L0.026,-0.401C0.056,-0.412 0.081,-0.423 0.1,-0.433C0.1,-0.518 0.099,-0.567 0.097,-0.581C0.131,-0.593 0.158,-0.605 0.18,-0.619L0.191,-0.609C0.188,-0.588 0.184,-0.529 0.18,-0.43C0.196,-0.43 0.214,-0.43 0.232,-0.43C0.271,-0.43 0.298,-0.431 0.315,-0.433L0.318,-0.429L0.309,-0.388L0.305,-0.384C0.289,-0.384 0.27,-0.384 0.25,-0.384C0.232,-0.384 0.208,-0.384 0.18,-0.384L0.177,-0.185C0.177,-0.139 0.178,-0.109 0.18,-0.095C0.182,-0.081 0.188,-0.07 0.198,-0.062C0.207,-0.054 0.221,-0.05 0.24,-0.05C0.262,-0.05 0.282,-0.056 0.301,-0.067L0.313,-0.049C0.305,-0.044 0.286,-0.028 0.256,-0C0.239,0.007 0.222,0.011 0.205,0.011C0.131,0.011 0.095,-0.024 0.095,-0.095C0.095,-0.121 0.095,-0.143 0.097,-0.162C0.097,-0.167 0.097,-0.173 0.097,-0.179L0.097,-0.381L0.077,-0.381C0.063,-0.381 0.046,-0.381 0.027,-0.379L0.022,-0.383Z" style="fill:rgb(35,31,32);fill-rule:nonzero;"/>
            </g>
        </g>
        <g transform="matrix(1,0,0,1,418.316,-94.0231)">
            <g transform="matrix(37.5,0,0,37.5,162.253,544.716)">
                <path d="M0.023,-0.336C0.023,-0.385 0.03,-0.431 0.044,-0.473C0.058,-0.515 0.082,-0.555 0.116,-0.591C0.15,-0.627 0.19,-0.654 0.238,-0.674C0.285,-0.694 0.339,-0.704 0.399,-0.704C0.51,-0.704 0.598,-0.673 0.664,-0.613C0.73,-0.553 0.763,-0.47 0.763,-0.366C0.763,-0.292 0.747,-0.226 0.714,-0.167C0.682,-0.109 0.636,-0.063 0.576,-0.031C0.516,0.002 0.448,0.018 0.374,0.018C0.32,0.018 0.272,0.009 0.227,-0.009C0.182,-0.026 0.144,-0.053 0.113,-0.088C0.082,-0.123 0.059,-0.164 0.045,-0.21C0.031,-0.256 0.023,-0.298 0.023,-0.336ZM0.125,-0.369C0.125,-0.329 0.131,-0.286 0.144,-0.24C0.157,-0.195 0.176,-0.156 0.202,-0.123C0.227,-0.09 0.257,-0.066 0.29,-0.05C0.324,-0.034 0.362,-0.026 0.404,-0.026C0.455,-0.026 0.5,-0.037 0.539,-0.061C0.578,-0.084 0.608,-0.12 0.629,-0.168C0.649,-0.217 0.66,-0.271 0.66,-0.332C0.66,-0.398 0.648,-0.457 0.625,-0.51C0.601,-0.563 0.568,-0.602 0.524,-0.626C0.481,-0.65 0.433,-0.662 0.38,-0.662C0.301,-0.662 0.239,-0.637 0.193,-0.588C0.148,-0.538 0.125,-0.465 0.125,-0.369Z" style="fill:rgb(35,31,32);fill-rule:nonzero;"/>
            </g>
            <g transform="matrix(37.5,0,0,37.5,191.733,544.716)">
                <path d="M0.169,-0.465L0.178,-0.459C0.175,-0.416 0.173,-0.362 0.173,-0.296L0.173,-0.183C0.173,-0.141 0.176,-0.112 0.182,-0.096C0.189,-0.079 0.2,-0.067 0.215,-0.058C0.231,-0.05 0.25,-0.045 0.271,-0.045C0.295,-0.045 0.316,-0.05 0.336,-0.059C0.355,-0.069 0.372,-0.082 0.385,-0.099C0.398,-0.116 0.406,-0.127 0.408,-0.133C0.41,-0.139 0.411,-0.155 0.412,-0.182L0.413,-0.237L0.413,-0.29C0.413,-0.303 0.412,-0.32 0.411,-0.343C0.41,-0.365 0.409,-0.379 0.408,-0.384C0.407,-0.389 0.405,-0.393 0.4,-0.396C0.396,-0.398 0.388,-0.399 0.375,-0.399L0.334,-0.4L0.33,-0.404L0.33,-0.425L0.333,-0.429C0.396,-0.436 0.448,-0.448 0.491,-0.465L0.5,-0.459C0.496,-0.416 0.495,-0.362 0.495,-0.296L0.495,-0.21C0.495,-0.206 0.495,-0.166 0.497,-0.091C0.498,-0.063 0.499,-0.046 0.502,-0.04C0.505,-0.034 0.509,-0.03 0.514,-0.028C0.519,-0.025 0.533,-0.024 0.557,-0.024L0.571,-0.024L0.575,-0.02L0.575,-0L0.571,0.004C0.525,0.001 0.495,-0 0.479,-0C0.459,-0 0.436,0.001 0.41,0.003L0.406,-0C0.408,-0.034 0.409,-0.062 0.41,-0.085C0.39,-0.069 0.366,-0.048 0.34,-0.021C0.33,-0.011 0.315,-0.002 0.296,0.004C0.278,0.011 0.256,0.015 0.232,0.015C0.195,0.015 0.167,0.009 0.147,-0.003C0.126,-0.014 0.112,-0.03 0.104,-0.051C0.095,-0.071 0.091,-0.106 0.091,-0.156L0.091,-0.194L0.091,-0.29C0.091,-0.303 0.091,-0.32 0.089,-0.343C0.088,-0.365 0.087,-0.379 0.086,-0.384C0.085,-0.389 0.083,-0.393 0.079,-0.396C0.074,-0.398 0.066,-0.399 0.053,-0.399L0.012,-0.4L0.008,-0.404L0.008,-0.425L0.012,-0.429C0.074,-0.436 0.126,-0.448 0.169,-0.465Z" style="fill:rgb(35,31,32);fill-rule:nonzero;"/>
            </g>
            <g transform="matrix(37.5,0,0,37.5,214.347,544.716)">
                <path d="M0.022,-0.383L0.022,-0.396L0.026,-0.401C0.056,-0.412 0.081,-0.423 0.1,-0.433C0.1,-0.518 0.099,-0.567 0.097,-0.581C0.131,-0.593 0.158,-0.605 0.18,-0.619L0.191,-0.609C0.188,-0.588 0.184,-0.529 0.18,-0.43C0.196,-0.43 0.214,-0.43 0.232,-0.43C0.271,-0.43 0.298,-0.431 0.315,-0.433L0.318,-0.429L0.309,-0.388L0.305,-0.384C0.289,-0.384 0.27,-0.384 0.25,-0.384C0.232,-0.384 0.208,-0.384 0.18,-0.384L0.177,-0.185C0.177,-0.139 0.178,-0.109 0.18,-0.095C0.182,-0.081 0.188,-0.07 0.198,-0.062C0.207,-0.054 0.221,-0.05 0.24,-0.05C0.262,-0.05 0.282,-0.056 0.301,-0.067L0.313,-0.049C0.305,-0.044 0.286,-0.028 0.256,-0C0.239,0.007 0.222,0.011 0.205,0.011C0.131,0.011 0.095,-0.024 0.095,-0.095C0.095,-0.121 0.095,-0.143 0.097,-0.162C0.097,-0.167 0.097,-0.173 0.097,-0.179L0.097,-0.381L0.077,-0.381C0.063,-0.381 0.046,-0.381 0.027,-0.379L0.022,-0.383Z" style="fill:rgb(35,31,32);fill-rule:nonzero;"/>
            </g>
            <g transform="matrix(37.5,0,0,37.5,226.578,544.716)">
                <path d="M0.181,-0.471L0.19,-0.465C0.187,-0.428 0.185,-0.395 0.185,-0.367C0.229,-0.407 0.26,-0.434 0.277,-0.447C0.295,-0.46 0.325,-0.466 0.367,-0.466C0.394,-0.466 0.418,-0.463 0.44,-0.455C0.462,-0.448 0.482,-0.436 0.5,-0.419C0.519,-0.402 0.534,-0.381 0.544,-0.356C0.555,-0.331 0.561,-0.302 0.561,-0.269C0.561,-0.245 0.557,-0.221 0.549,-0.197C0.542,-0.173 0.532,-0.151 0.52,-0.13C0.508,-0.11 0.498,-0.096 0.49,-0.09C0.483,-0.083 0.468,-0.073 0.445,-0.06C0.425,-0.047 0.404,-0.034 0.384,-0.02C0.37,-0.009 0.361,-0.003 0.355,-0C0.349,0.003 0.34,0.006 0.327,0.009C0.314,0.012 0.3,0.013 0.286,0.013C0.252,0.013 0.218,0.005 0.185,-0.013L0.185,0.091C0.185,0.098 0.185,0.122 0.187,0.16C0.188,0.199 0.189,0.222 0.191,0.229C0.192,0.235 0.194,0.24 0.197,0.243C0.2,0.246 0.204,0.247 0.208,0.248C0.212,0.249 0.23,0.25 0.261,0.252L0.265,0.256L0.265,0.277L0.261,0.281C0.221,0.279 0.181,0.277 0.144,0.277C0.107,0.277 0.068,0.279 0.027,0.281L0.022,0.277L0.022,0.256L0.027,0.252C0.058,0.25 0.076,0.249 0.08,0.248C0.084,0.247 0.088,0.245 0.091,0.242C0.094,0.239 0.096,0.234 0.097,0.227C0.099,0.22 0.1,0.198 0.101,0.162C0.103,0.125 0.104,0.097 0.104,0.079L0.104,-0.295C0.104,-0.312 0.103,-0.332 0.101,-0.354C0.1,-0.377 0.099,-0.389 0.098,-0.393C0.097,-0.397 0.094,-0.4 0.091,-0.402C0.087,-0.404 0.078,-0.405 0.065,-0.405L0.024,-0.406L0.02,-0.41L0.02,-0.431L0.024,-0.435C0.086,-0.442 0.138,-0.454 0.181,-0.471ZM0.185,-0.097C0.2,-0.081 0.218,-0.068 0.24,-0.057C0.262,-0.046 0.287,-0.04 0.313,-0.04C0.345,-0.04 0.373,-0.048 0.397,-0.064C0.421,-0.08 0.44,-0.103 0.454,-0.134C0.467,-0.165 0.474,-0.199 0.474,-0.236C0.474,-0.267 0.468,-0.295 0.456,-0.321C0.444,-0.347 0.426,-0.367 0.401,-0.382C0.376,-0.397 0.349,-0.405 0.321,-0.405C0.304,-0.405 0.287,-0.402 0.271,-0.396C0.255,-0.39 0.24,-0.381 0.225,-0.369C0.211,-0.357 0.201,-0.346 0.195,-0.336C0.189,-0.325 0.185,-0.316 0.185,-0.309C0.185,-0.302 0.185,-0.295 0.185,-0.286L0.185,-0.097Z" style="fill:rgb(35,31,32);fill-rule:nonzero;"/>
            </g>
            <g transform="matrix(37.5,0,0,37.5,249.119,544.716)">
                <path d="M0.169,-0.465L0.178,-0.459C0.175,-0.416 0.173,-0.362 0.173,-0.296L0.173,-0.183C0.173,-0.141 0.176,-0.112 0.182,-0.096C0.189,-0.079 0.2,-0.067 0.215,-0.058C0.231,-0.05 0.25,-0.045 0.271,-0.045C0.295,-0.045 0.316,-0.05 0.336,-0.059C0.355,-0.069 0.372,-0.082 0.385,-0.099C0.398,-0.116 0.406,-0.127 0.408,-0.133C0.41,-0.139 0.411,-0.155 0.412,-0.182L0.413,-0.237L0.413,-0.29C0.413,-0.303 0.412,-0.32 0.411,-0.343C0.41,-0.365 0.409,-0.379 0.408,-0.384C0.407,-0.389 0.405,-0.393 0.4,-0.396C0.396,-0.398 0.388,-0.399 0.375,-0.399L0.334,-0.4L0.33,-0.404L0.33,-0.425L0.333,-0.429C0.396,-0.436 0.448,-0.448 0.491,-0.465L0.5,-0.459C0.496,-0.416 0.495,-0.362 0.495,-0.296L0.495,-0.21C0.495,-0.206 0.495,-0.166 0.497,-0.091C0.498,-0.063 0.499,-0.046 0.502,-0.04C0.505,-0.034 0.509,-0.03 0.514,-0.028C0.519,-0.025 0.533,-0.024 0.557,-0.024L0.571,-0.024L0.575,-0.02L0.575,-0L0.571,0.004C0.525,0.001 0.495,-0 0.479,-0C0.459,-0 0.436,0.001 0.41,0.003L0.406,-0C0.408,-0.034 0.409,-0.062 0.41,-0.085C0.39,-0.069 0.366,-0.048 0.34,-0.021C0.33,-0.011 0.315,-0.002 0.296,0.004C0.278,0.011 0.256,0.015 0.232,0.015C0.195,0.015 0.167,0.009 0.147,-0.003C0.126,-0.014 0.112,-0.03 0.104,-0.051C0.095,-0.071 0.091,-0.106 0.091,-0.156L0.091,-0.194L0.091,-0.29C0.091,-0.303 0.091,-0.32 0.089,-0.343C0.088,-0.365 0.087,-0.379 0.086,-0.384C0.085,-0.389 0.083,-0.393 0.079,-0.396C0.074,-0.398 0.066,-0.399 0.053,-0.399L0.012,-0.4L0.008,-0.404L0.008,-0.425L0.012,-0.429C0.074,-0.436 0.126,-0.448 0.169,-0.465Z" style="fill:rgb(35,31,32);fill-rule:nonzero;"/>
            </g>
            <g transform="matrix(37.5,0,0,37.5,271.732,544.716)">
                <path d="M0.022,-0.383L0.022,-0.396L0.026,-0.401C0.056,-0.412 0.081,-0.423 0.1,-0.433C0.1,-0.518 0.099,-0.567 0.097,-0.581C0.131,-0.593 0.158,-0.605 0.18,-0.619L0.191,-0.609C0.188,-0.588 0.184,-0.529 0.18,-0.43C0.196,-0.43 0.214,-0.43 0.232,-0.43C0.271,-0.43 0.298,-0.431 0.315,-0.433L0.318,-0.429L0.309,-0.388L0.305,-0.384C0.289,-0.384 0.27,-0.384 0.25,-0.384C0.232,-0.384 0.208,-0.384 0.18,-0.384L0.177,-0.185C0.177,-0.139 0.178,-0.109 0.18,-0.095C0.182,-0.081 0.188,-0.07 0.198,-0.062C0.207,-0.054 0.221,-0.05 0.24,-0.05C0.262,-0.05 0.282,-0.056 0.301,-0.067L0.313,-0.049C0.305,-0.044 0.286,-0.028 0.256,-0C0.239,0.007 0.222,0.011 0.205,0.011C0.131,0.011 0.095,-0.024 0.095,-0.095C0.095,-0.121 0.095,-0.143 0.097,-0.162C0.097,-0.167 0.097,-0.173 0.097,-0.179L0.097,-0.381L0.077,-0.381C0.063,-0.381 0.046,-0.381 0.027,-0.379L0.022,-0.383Z" style="fill:rgb(35,31,32);fill-rule:nonzero;"/>
            </g>
        </g>
        <g transform="matrix(0.648069,0,0,0.648069,469.827,3.18863)">
            <rect x="146.367" y="126.038" width="118.415" height="118.415" style="fill:rgb(236,0,140);stroke:black;stroke-width:3.18px;"/>
        </g>
    </g>
</svg>
