<?xml version="1.0" encoding="UTF-8" standalone="no"?>
<!DOCTYPE svg PUBLIC "-//W3C//DTD SVG 1.1//EN" "http://www.w3.org/Graphics/SVG/1.1/DTD/svg11.dtd">
<svg width="100%" height="100%" viewBox="0 0 875 532" version="1.1" xmlns="http://www.w3.org/2000/svg" xmlns:xlink="http://www.w3.org/1999/xlink" xml:space="preserve" xmlns:serif="http://www.serif.com/" style="fill-rule:evenodd;clip-rule:evenodd;stroke-linecap:round;stroke-miterlimit:1.5;">
    <g transform="matrix(1,0,0,1,-146.367,-41.1683)">
        <g transform="matrix(0.648069,0,0,0.648069,51.5112,44.3569)">
            <rect x="146.367" y="126.038" width="118.415" height="118.415" style="fill:none;stroke:black;stroke-width:3.18px;"/>
        </g>
        <g transform="matrix(0.648069,0,0,0.648069,51.5112,121.098)">
            <rect x="146.367" y="126.038" width="118.415" height="118.415" style="fill:none;stroke:black;stroke-width:3.18px;"/>
        </g>
        <g transform="matrix(0.648069,0,0,0.648069,51.5112,197.839)">
            <rect x="146.367" y="126.038" width="118.415" height="118.415" style="fill:none;stroke:black;stroke-width:3.18px;"/>
        </g>
        <g transform="matrix(0.648069,0,0,0.648069,51.5112,274.58)">
            <rect x="146.367" y="126.038" width="118.415" height="118.415" style="fill:none;stroke:black;stroke-width:3.18px;"/>
        </g>
        <g transform="matrix(0.648069,0,0,0.648069,128.252,44.3569)">
            <rect x="146.367" y="126.038" width="118.415" height="118.415" style="fill:none;stroke:black;stroke-width:3.18px;"/>
        </g>
        <g transform="matrix(0.648069,0,0,0.648069,128.252,121.098)">
            <rect x="146.367" y="126.038" width="118.415" height="118.415" style="fill:none;stroke:black;stroke-width:3.18px;"/>
        </g>
        <g transform="matrix(0.648069,0,0,0.648069,128.252,197.839)">
            <rect x="146.367" y="126.038" width="118.415" height="118.415" style="fill:none;stroke:black;stroke-width:3.18px;"/>
        </g>
        <g transform="matrix(0.648069,0,0,0.648069,128.252,274.58)">
            <rect x="146.367" y="126.038" width="118.415" height="118.415" style="fill:none;stroke:black;stroke-width:3.18px;"/>
        </g>
        <g transform="matrix(0.648069,0,0,0.648069,204.994,44.3569)">
            <rect x="146.367" y="126.038" width="118.415" height="118.415" style="fill:none;stroke:black;stroke-width:3.18px;"/>
        </g>
        <g transform="matrix(0.648069,0,0,0.648069,204.994,121.098)">
            <rect x="146.367" y="126.038" width="118.415" height="118.415" style="fill:none;stroke:black;stroke-width:3.18px;"/>
        </g>
        <g transform="matrix(0.648069,0,0,0.648069,204.994,197.839)">
            <rect x="146.367" y="126.038" width="118.415" height="118.415" style="fill:none;stroke:black;stroke-width:3.18px;"/>
        </g>
        <g transform="matrix(0.648069,0,0,0.648069,204.994,274.58)">
            <rect x="146.367" y="126.038" width="118.415" height="118.415" style="fill:none;stroke:black;stroke-width:3.18px;"/>
        </g>
        <g transform="matrix(0.648069,0,0,0.648069,281.735,44.3569)">
            <rect x="146.367" y="126.038" width="118.415" height="118.415" style="fill:none;stroke:black;stroke-width:3.18px;"/>
        </g>
        <g transform="matrix(0.648069,0,0,0.648069,281.735,121.098)">
            <rect x="146.367" y="126.038" width="118.415" height="118.415" style="fill:none;stroke:black;stroke-width:3.18px;"/>
        </g>
        <g transform="matrix(0.648069,0,0,0.648069,281.735,197.839)">
            <rect x="146.367" y="126.038" width="118.415" height="118.415" style="fill:none;stroke:black;stroke-width:3.18px;"/>
        </g>
        <g transform="matrix(0.648069,0,0,0.648069,281.735,274.58)">
            <rect x="146.367" y="126.038" width="118.415" height="118.415" style="fill:none;stroke:black;stroke-width:3.18px;"/>
        </g>
    </g>
    <g transform="matrix(0.648069,0,0,0.648069,469.827,79.9298)">
        <rect x="146.367" y="126.038" width="118.415" height="118.415" style="fill:none;stroke:black;stroke-width:3.18px;"/>
    </g>
    <g transform="matrix(0.648069,0,0,0.648069,546.568,3.18863)">
        <rect x="146.367" y="126.038" width="118.415" height="118.415" style="fill:none;stroke:black;stroke-width:3.18px;"/>
    </g>
    <g transform="matrix(0.648069,0,0,0.648069,546.568,79.9298)">
        <rect x="146.367" y="126.038" width="118.415" height="118.415" style="fill:none;stroke:black;stroke-width:3.18px;"/>
    </g>
    <g transform="matrix(0.648069,0,0,0.648069,469.827,3.18863)">
        <rect x="146.367" y="126.038" width="118.415" height="118.415" style="fill:none;stroke:black;stroke-width:3.18px;"/>
    </g>
    <g id="Ebene5">
        <g transform="matrix(1.81676,0,0,1.81676,-181.626,-136.565)">
            <path d="M264.782,126.038L264.782,244.454L146.367,244.454L146.367,126.038L264.782,126.038ZM263.65,127.171L147.5,127.171L147.5,243.321L263.65,243.321L263.65,127.171Z" style="fill:rgb(0,174,239);"/>
        </g>
        <g transform="matrix(1.88707,0,0,1.88707,-196.082,-72.8497)">
            <path d="M264.782,126.038L264.782,244.454L146.367,244.454L146.367,126.038L264.782,126.038ZM263.692,127.129C263.692,127.129 147.458,127.129 147.458,127.129C147.458,127.129 147.458,243.363 147.458,243.363L263.692,243.363L263.692,127.129Z" style="fill:rgb(237,28,36);"/>
        </g>
        <g transform="matrix(1.94421,0,0,1.94421,-284.568,-160.175)">
            <path d="M264.782,126.038L264.782,244.454L146.367,244.454L146.367,126.038L264.782,126.038ZM263.724,127.097C263.724,127.097 147.426,127.097 147.426,127.097C147.426,127.097 147.426,243.395 147.426,243.395C147.426,243.395 263.724,243.395 263.724,243.395L263.724,127.097Z" style="fill:rgb(236,0,140);"/>
        </g>
        <g transform="matrix(1.83433,0,0,1.83433,-261.981,-63.0802)">
            <path d="M264.782,126.038L264.782,244.454L146.367,244.454L146.367,126.038L264.782,126.038ZM263.661,127.16C263.661,127.16 147.489,127.16 147.489,127.16C147.489,127.16 147.489,243.332 147.489,243.332C159.486,243.332 263.661,243.332 263.661,243.332L263.661,127.16Z" style="fill:rgb(0,166,80);"/>
        </g>
        <g transform="matrix(1,0,0,1,22.8698,79.7904)">
            <g transform="matrix(0.648069,0,0,0.648069,567.405,120.587)">
                <rect x="146.367" y="126.038" width="118.415" height="118.415" style="fill:none;stroke:black;stroke-width:3.18px;"/>
            </g>
            <g transform="matrix(0.648069,0,0,0.648069,644.146,43.8462)">
                <rect x="146.367" y="126.038" width="118.415" height="118.415" style="fill:none;stroke:black;stroke-width:3.18px;"/>
            </g>
            <g transform="matrix(0.648069,0,0,0.648069,644.146,120.587)">
                <rect x="146.367" y="126.038" width="118.415" height="118.415" style="fill:none;stroke:black;stroke-width:3.18px;"/>
            </g>
            <g transform="matrix(0.648069,0,0,0.648069,567.405,43.8462)">
                <rect x="146.367" y="126.038" width="118.415" height="118.415" style="fill:none;stroke:black;stroke-width:3.18px;"/>
            </g>
            <g transform="matrix(0.648069,0,0,0.648069,643.841,43.8462)">
                <rect x="146.367" y="126.038" width="118.415" height="118.415" style="fill:rgb(0,174,239);stroke:black;stroke-width:3.18px;"/>
            </g>
            <g transform="matrix(0.648069,0,0,0.648069,643.841,120.587)">
                <rect x="146.367" y="126.038" width="118.415" height="118.415" style="fill:rgb(237,28,36);stroke:black;stroke-width:3.18px;"/>
            </g>
            <g transform="matrix(0.648069,0,0,0.648069,567.405,43.8462)">
                <rect x="146.367" y="126.038" width="118.415" height="118.415" style="fill:rgb(236,0,140);stroke:black;stroke-width:3.18px;"/>
            </g>
            <g transform="matrix(0.648069,0,0,0.648069,567.405,120.587)">
                <rect x="146.367" y="126.038" width="118.415" height="118.415" style="fill:rgb(0,166,80);stroke:black;stroke-width:3.18px;"/>
            </g>
        </g>
        <g transform="matrix(1,0,0,1,-45.7398,11.1808)">
            <g transform="matrix(0.648069,0,0,0.648069,567.405,120.587)">
                <rect x="146.367" y="126.038" width="118.415" height="118.415" style="fill:none;stroke:black;stroke-width:3.18px;"/>
            </g>
            <g transform="matrix(0.648069,0,0,0.648069,644.146,43.8462)">
                <rect x="146.367" y="126.038" width="118.415" height="118.415" style="fill:none;stroke:black;stroke-width:3.18px;"/>
            </g>
            <g transform="matrix(0.648069,0,0,0.648069,644.146,120.587)">
                <rect x="146.367" y="126.038" width="118.415" height="118.415" style="fill:none;stroke:black;stroke-width:3.18px;"/>
            </g>
            <g transform="matrix(0.648069,0,0,0.648069,567.405,43.8462)">
                <rect x="146.367" y="126.038" width="118.415" height="118.415" style="fill:none;stroke:black;stroke-width:3.18px;"/>
            </g>
            <g transform="matrix(0.648069,0,0,0.648069,643.841,43.8462)">
                <rect x="146.367" y="126.038" width="118.415" height="118.415" style="fill:rgb(0,174,239);stroke:black;stroke-width:3.18px;"/>
            </g>
            <g transform="matrix(0.648069,0,0,0.648069,643.841,120.587)">
                <rect x="146.367" y="126.038" width="118.415" height="118.415" style="fill:rgb(237,28,36);stroke:black;stroke-width:3.18px;"/>
            </g>
            <g transform="matrix(0.648069,0,0,0.648069,567.405,43.8462)">
                <rect x="146.367" y="126.038" width="118.415" height="118.415" style="fill:rgb(236,0,140);stroke:black;stroke-width:3.18px;"/>
            </g>
            <g transform="matrix(0.648069,0,0,0.648069,567.405,120.587)">
                <rect x="146.367" y="126.038" width="118.415" height="118.415" style="fill:rgb(0,166,80);stroke:black;stroke-width:3.18px;"/>
            </g>
        </g>
        <g transform="matrix(1,0,0,1,-71.659,-14.7384)">
            <g transform="matrix(0.648069,0,0,0.648069,567.405,120.587)">
                <rect x="146.367" y="126.038" width="118.415" height="118.415" style="fill:none;stroke:black;stroke-width:3.18px;"/>
            </g>
            <g transform="matrix(0.648069,0,0,0.648069,644.146,43.8462)">
                <rect x="146.367" y="126.038" width="118.415" height="118.415" style="fill:none;stroke:black;stroke-width:3.18px;"/>
            </g>
            <g transform="matrix(0.648069,0,0,0.648069,644.146,120.587)">
                <rect x="146.367" y="126.038" width="118.415" height="118.415" style="fill:none;stroke:black;stroke-width:3.18px;"/>
            </g>
            <g transform="matrix(0.648069,0,0,0.648069,567.405,43.8462)">
                <rect x="146.367" y="126.038" width="118.415" height="118.415" style="fill:none;stroke:black;stroke-width:3.18px;"/>
            </g>
            <g transform="matrix(0.648069,0,0,0.648069,643.841,43.8462)">
                <rect x="146.367" y="126.038" width="118.415" height="118.415" style="fill:rgb(0,174,239);stroke:black;stroke-width:3.18px;"/>
            </g>
            <g transform="matrix(0.648069,0,0,0.648069,643.841,120.587)">
                <rect x="146.367" y="126.038" width="118.415" height="118.415" style="fill:rgb(237,28,36);stroke:black;stroke-width:3.18px;"/>
            </g>
            <g transform="matrix(0.648069,0,0,0.648069,567.405,43.8462)">
                <rect x="146.367" y="126.038" width="118.415" height="118.415" style="fill:rgb(236,0,140);stroke:black;stroke-width:3.18px;"/>
            </g>
            <g transform="matrix(0.648069,0,0,0.648069,567.405,120.587)">
                <rect x="146.367" y="126.038" width="118.415" height="118.415" style="fill:rgb(0,166,80);stroke:black;stroke-width:3.18px;"/>
            </g>
        </g>
        <g transform="matrix(1,0,0,1,-97.5781,-40.6576)">
            <g transform="matrix(0.648069,0,0,0.648069,567.405,120.587)">
                <rect x="146.367" y="126.038" width="118.415" height="118.415" style="fill:none;stroke:black;stroke-width:3.18px;"/>
            </g>
            <g transform="matrix(0.648069,0,0,0.648069,644.146,43.8462)">
                <rect x="146.367" y="126.038" width="118.415" height="118.415" style="fill:none;stroke:black;stroke-width:3.18px;"/>
            </g>
            <g transform="matrix(0.648069,0,0,0.648069,644.146,120.587)">
                <rect x="146.367" y="126.038" width="118.415" height="118.415" style="fill:none;stroke:black;stroke-width:3.18px;"/>
            </g>
            <g transform="matrix(0.648069,0,0,0.648069,567.405,43.8462)">
                <rect x="146.367" y="126.038" width="118.415" height="118.415" style="fill:none;stroke:black;stroke-width:3.18px;"/>
            </g>
            <g transform="matrix(0.648069,0,0,0.648069,643.841,43.8462)">
                <rect x="146.367" y="126.038" width="118.415" height="118.415" style="fill:rgb(0,174,239);stroke:black;stroke-width:3.18px;"/>
            </g>
            <g transform="matrix(0.648069,0,0,0.648069,643.841,120.587)">
                <rect x="146.367" y="126.038" width="118.415" height="118.415" style="fill:rgb(237,28,36);stroke:black;stroke-width:3.18px;"/>
            </g>
            <g transform="matrix(0.648069,0,0,0.648069,567.405,43.8462)">
                <rect x="146.367" y="126.038" width="118.415" height="118.415" style="fill:rgb(236,0,140);stroke:black;stroke-width:3.18px;"/>
            </g>
            <g transform="matrix(0.648069,0,0,0.648069,567.405,120.587)">
                <rect x="146.367" y="126.038" width="118.415" height="118.415" style="fill:rgb(0,166,80);stroke:black;stroke-width:3.18px;"/>
            </g>
        </g>
        <g transform="matrix(0.707107,0.707107,-0.707107,0.707107,882.933,-226.571)">
            <g transform="matrix(37.5,0,0,37.5,209.046,544.716)">
                <path d="M0.125,-0.108C0.141,-0.108 0.154,-0.102 0.166,-0.091C0.177,-0.08 0.183,-0.066 0.183,-0.049C0.183,-0.033 0.177,-0.02 0.166,-0.008C0.155,0.003 0.141,0.009 0.125,0.009C0.109,0.009 0.095,0.003 0.083,-0.008C0.072,-0.019 0.066,-0.033 0.066,-0.049C0.066,-0.066 0.072,-0.079 0.083,-0.091C0.095,-0.102 0.109,-0.108 0.125,-0.108Z" style="fill:rgb(35,31,32);fill-rule:nonzero;"/>
            </g>
            <g transform="matrix(37.5,0,0,37.5,218.421,544.716)">
                <path d="M0.125,-0.108C0.141,-0.108 0.154,-0.102 0.166,-0.091C0.177,-0.08 0.183,-0.066 0.183,-0.049C0.183,-0.033 0.177,-0.02 0.166,-0.008C0.155,0.003 0.141,0.009 0.125,0.009C0.109,0.009 0.095,0.003 0.083,-0.008C0.072,-0.019 0.066,-0.033 0.066,-0.049C0.066,-0.066 0.072,-0.079 0.083,-0.091C0.095,-0.102 0.109,-0.108 0.125,-0.108Z" style="fill:rgb(35,31,32);fill-rule:nonzero;"/>
            </g>
            <g transform="matrix(37.5,0,0,37.5,227.796,544.716)">
                <path d="M0.125,-0.108C0.141,-0.108 0.154,-0.102 0.166,-0.091C0.177,-0.08 0.183,-0.066 0.183,-0.049C0.183,-0.033 0.177,-0.02 0.166,-0.008C0.155,0.003 0.141,0.009 0.125,0.009C0.109,0.009 0.095,0.003 0.083,-0.008C0.072,-0.019 0.066,-0.033 0.066,-0.049C0.066,-0.066 0.072,-0.079 0.083,-0.091C0.095,-0.102 0.109,-0.108 0.125,-0.108Z" style="fill:rgb(35,31,32);fill-rule:nonzero;"/>
            </g>
        </g>
        <g transform="matrix(1,0,0,1,-146.367,-94.0231)">
            <g transform="matrix(37.5,0,0,37.5,253.927,544.716)">
                <path d="M0.029,-0.69L0.09,-0.688C0.13,-0.687 0.156,-0.686 0.168,-0.686C0.18,-0.686 0.226,-0.687 0.309,-0.69L0.313,-0.687L0.313,-0.662L0.309,-0.659C0.286,-0.658 0.269,-0.657 0.257,-0.656C0.244,-0.654 0.236,-0.652 0.23,-0.648C0.224,-0.645 0.221,-0.636 0.219,-0.623C0.217,-0.61 0.216,-0.592 0.216,-0.568L0.215,-0.456L0.215,-0.23L0.216,-0.135C0.216,-0.098 0.217,-0.074 0.219,-0.063C0.22,-0.053 0.223,-0.046 0.226,-0.042C0.229,-0.038 0.235,-0.035 0.244,-0.033C0.252,-0.031 0.274,-0.029 0.309,-0.027L0.313,-0.024L0.313,-0L0.309,0.004C0.307,0.004 0.278,0.003 0.223,0.001C0.2,0 0.181,-0 0.168,-0C0.158,-0 0.112,0.001 0.029,0.004L0.025,-0L0.025,-0.024L0.029,-0.027C0.059,-0.029 0.079,-0.03 0.089,-0.032C0.099,-0.034 0.106,-0.037 0.11,-0.04C0.113,-0.043 0.116,-0.049 0.118,-0.06C0.12,-0.07 0.121,-0.092 0.122,-0.127L0.122,-0.23L0.122,-0.456L0.121,-0.551C0.121,-0.588 0.12,-0.612 0.118,-0.623C0.117,-0.634 0.115,-0.641 0.112,-0.645C0.108,-0.648 0.103,-0.651 0.094,-0.653C0.085,-0.656 0.063,-0.657 0.029,-0.659L0.025,-0.662L0.025,-0.687L0.029,-0.69Z" style="fill:rgb(35,31,32);fill-rule:nonzero;"/>
            </g>
            <g transform="matrix(37.5,0,0,37.5,266.561,544.716)">
                <path d="M0.167,-0.465L0.176,-0.459C0.174,-0.437 0.173,-0.409 0.172,-0.373C0.198,-0.395 0.223,-0.416 0.247,-0.438C0.253,-0.445 0.26,-0.449 0.266,-0.452C0.272,-0.455 0.282,-0.458 0.296,-0.461C0.31,-0.465 0.324,-0.466 0.339,-0.466C0.364,-0.466 0.388,-0.461 0.411,-0.451C0.434,-0.441 0.452,-0.429 0.464,-0.415C0.476,-0.401 0.484,-0.385 0.488,-0.366C0.493,-0.347 0.495,-0.324 0.495,-0.296L0.495,-0.21C0.495,-0.205 0.496,-0.164 0.498,-0.089C0.498,-0.058 0.502,-0.04 0.508,-0.034C0.514,-0.028 0.534,-0.025 0.568,-0.025L0.572,-0.021L0.572,-0L0.568,0.004C0.527,0.001 0.499,-0 0.484,-0C0.476,-0 0.452,0.001 0.413,0.004L0.407,-0.001C0.411,-0.044 0.414,-0.099 0.414,-0.167L0.414,-0.231C0.414,-0.269 0.413,-0.297 0.411,-0.314C0.409,-0.331 0.404,-0.346 0.395,-0.36C0.385,-0.374 0.373,-0.385 0.358,-0.392C0.343,-0.4 0.324,-0.404 0.303,-0.404C0.286,-0.404 0.272,-0.402 0.26,-0.399C0.248,-0.395 0.234,-0.388 0.219,-0.378C0.204,-0.367 0.193,-0.357 0.186,-0.348C0.179,-0.339 0.175,-0.33 0.173,-0.322C0.172,-0.314 0.171,-0.297 0.171,-0.271L0.171,-0.186C0.171,-0.179 0.172,-0.156 0.173,-0.117C0.174,-0.078 0.176,-0.055 0.177,-0.049C0.178,-0.042 0.181,-0.038 0.184,-0.035C0.187,-0.032 0.19,-0.03 0.194,-0.029C0.199,-0.028 0.216,-0.027 0.247,-0.025L0.251,-0.021L0.251,-0L0.248,0.004C0.207,0.001 0.168,-0 0.13,-0C0.092,-0 0.053,0.001 0.013,0.004L0.008,-0L0.008,-0.021L0.013,-0.025C0.044,-0.027 0.062,-0.028 0.066,-0.029C0.07,-0.03 0.074,-0.032 0.077,-0.035C0.08,-0.038 0.082,-0.043 0.083,-0.05C0.084,-0.056 0.086,-0.077 0.087,-0.113C0.089,-0.148 0.089,-0.175 0.089,-0.193L0.089,-0.29C0.089,-0.303 0.089,-0.32 0.087,-0.343C0.086,-0.365 0.085,-0.379 0.084,-0.384C0.083,-0.389 0.081,-0.393 0.077,-0.396C0.072,-0.398 0.064,-0.399 0.051,-0.399L0.01,-0.4L0.006,-0.404L0.006,-0.425L0.01,-0.429C0.072,-0.436 0.124,-0.448 0.167,-0.465Z" style="fill:rgb(35,31,32);fill-rule:nonzero;"/>
            </g>
            <g transform="matrix(37.5,0,0,37.5,288.387,544.716)">
                <path d="M0.181,-0.471L0.19,-0.465C0.187,-0.428 0.185,-0.395 0.185,-0.367C0.229,-0.407 0.26,-0.434 0.277,-0.447C0.295,-0.46 0.325,-0.466 0.367,-0.466C0.394,-0.466 0.418,-0.463 0.44,-0.455C0.462,-0.448 0.482,-0.436 0.5,-0.419C0.519,-0.402 0.534,-0.381 0.544,-0.356C0.555,-0.331 0.561,-0.302 0.561,-0.269C0.561,-0.245 0.557,-0.221 0.549,-0.197C0.542,-0.173 0.532,-0.151 0.52,-0.13C0.508,-0.11 0.498,-0.096 0.49,-0.09C0.483,-0.083 0.468,-0.073 0.445,-0.06C0.425,-0.047 0.404,-0.034 0.384,-0.02C0.37,-0.009 0.361,-0.003 0.355,-0C0.349,0.003 0.34,0.006 0.327,0.009C0.314,0.012 0.3,0.013 0.286,0.013C0.252,0.013 0.218,0.005 0.185,-0.013L0.185,0.091C0.185,0.098 0.185,0.122 0.187,0.16C0.188,0.199 0.189,0.222 0.191,0.229C0.192,0.235 0.194,0.24 0.197,0.243C0.2,0.246 0.204,0.247 0.208,0.248C0.212,0.249 0.23,0.25 0.261,0.252L0.265,0.256L0.265,0.277L0.261,0.281C0.221,0.279 0.181,0.277 0.144,0.277C0.107,0.277 0.068,0.279 0.027,0.281L0.022,0.277L0.022,0.256L0.027,0.252C0.058,0.25 0.076,0.249 0.08,0.248C0.084,0.247 0.088,0.245 0.091,0.242C0.094,0.239 0.096,0.234 0.097,0.227C0.099,0.22 0.1,0.198 0.101,0.162C0.103,0.125 0.104,0.097 0.104,0.079L0.104,-0.295C0.104,-0.312 0.103,-0.332 0.101,-0.354C0.1,-0.377 0.099,-0.389 0.098,-0.393C0.097,-0.397 0.094,-0.4 0.091,-0.402C0.087,-0.404 0.078,-0.405 0.065,-0.405L0.024,-0.406L0.02,-0.41L0.02,-0.431L0.024,-0.435C0.086,-0.442 0.138,-0.454 0.181,-0.471ZM0.185,-0.097C0.2,-0.081 0.218,-0.068 0.24,-0.057C0.262,-0.046 0.287,-0.04 0.313,-0.04C0.345,-0.04 0.373,-0.048 0.397,-0.064C0.421,-0.08 0.44,-0.103 0.454,-0.134C0.467,-0.165 0.474,-0.199 0.474,-0.236C0.474,-0.267 0.468,-0.295 0.456,-0.321C0.444,-0.347 0.426,-0.367 0.401,-0.382C0.376,-0.397 0.349,-0.405 0.321,-0.405C0.304,-0.405 0.287,-0.402 0.271,-0.396C0.255,-0.39 0.24,-0.381 0.225,-0.369C0.211,-0.357 0.201,-0.346 0.195,-0.336C0.189,-0.325 0.185,-0.316 0.185,-0.309C0.185,-0.302 0.185,-0.295 0.185,-0.286L0.185,-0.097Z" style="fill:rgb(35,31,32);fill-rule:nonzero;"/>
            </g>
            <g transform="matrix(37.5,0,0,37.5,310.927,544.716)">
                <path d="M0.169,-0.465L0.178,-0.459C0.175,-0.416 0.173,-0.362 0.173,-0.296L0.173,-0.183C0.173,-0.141 0.176,-0.112 0.182,-0.096C0.189,-0.079 0.2,-0.067 0.215,-0.058C0.231,-0.05 0.25,-0.045 0.271,-0.045C0.295,-0.045 0.316,-0.05 0.336,-0.059C0.355,-0.069 0.372,-0.082 0.385,-0.099C0.398,-0.116 0.406,-0.127 0.408,-0.133C0.41,-0.139 0.411,-0.155 0.412,-0.182L0.413,-0.237L0.413,-0.29C0.413,-0.303 0.412,-0.32 0.411,-0.343C0.41,-0.365 0.409,-0.379 0.408,-0.384C0.407,-0.389 0.405,-0.393 0.4,-0.396C0.396,-0.398 0.388,-0.399 0.375,-0.399L0.334,-0.4L0.33,-0.404L0.33,-0.425L0.333,-0.429C0.396,-0.436 0.448,-0.448 0.491,-0.465L0.5,-0.459C0.496,-0.416 0.495,-0.362 0.495,-0.296L0.495,-0.21C0.495,-0.206 0.495,-0.166 0.497,-0.091C0.498,-0.063 0.499,-0.046 0.502,-0.04C0.505,-0.034 0.509,-0.03 0.514,-0.028C0.519,-0.025 0.533,-0.024 0.557,-0.024L0.571,-0.024L0.575,-0.02L0.575,-0L0.571,0.004C0.525,0.001 0.495,-0 0.479,-0C0.459,-0 0.436,0.001 0.41,0.003L0.406,-0C0.408,-0.034 0.409,-0.062 0.41,-0.085C0.39,-0.069 0.366,-0.048 0.34,-0.021C0.33,-0.011 0.315,-0.002 0.296,0.004C0.278,0.011 0.256,0.015 0.232,0.015C0.195,0.015 0.167,0.009 0.147,-0.003C0.126,-0.014 0.112,-0.03 0.104,-0.051C0.095,-0.071 0.091,-0.106 0.091,-0.156L0.091,-0.194L0.091,-0.29C0.091,-0.303 0.091,-0.32 0.089,-0.343C0.088,-0.365 0.087,-0.379 0.086,-0.384C0.085,-0.389 0.083,-0.393 0.079,-0.396C0.074,-0.398 0.066,-0.399 0.053,-0.399L0.012,-0.4L0.008,-0.404L0.008,-0.425L0.012,-0.429C0.074,-0.436 0.126,-0.448 0.169,-0.465Z" style="fill:rgb(35,31,32);fill-rule:nonzero;"/>
            </g>
            <g transform="matrix(37.5,0,0,37.5,333.541,544.716)">
                <path d="M0.022,-0.383L0.022,-0.396L0.026,-0.401C0.056,-0.412 0.081,-0.423 0.1,-0.433C0.1,-0.518 0.099,-0.567 0.097,-0.581C0.131,-0.593 0.158,-0.605 0.18,-0.619L0.191,-0.609C0.188,-0.588 0.184,-0.529 0.18,-0.43C0.196,-0.43 0.214,-0.43 0.232,-0.43C0.271,-0.43 0.298,-0.431 0.315,-0.433L0.318,-0.429L0.309,-0.388L0.305,-0.384C0.289,-0.384 0.27,-0.384 0.25,-0.384C0.232,-0.384 0.208,-0.384 0.18,-0.384L0.177,-0.185C0.177,-0.139 0.178,-0.109 0.18,-0.095C0.182,-0.081 0.188,-0.07 0.198,-0.062C0.207,-0.054 0.221,-0.05 0.24,-0.05C0.262,-0.05 0.282,-0.056 0.301,-0.067L0.313,-0.049C0.305,-0.044 0.286,-0.028 0.256,-0C0.239,0.007 0.222,0.011 0.205,0.011C0.131,0.011 0.095,-0.024 0.095,-0.095C0.095,-0.121 0.095,-0.143 0.097,-0.162C0.097,-0.167 0.097,-0.173 0.097,-0.179L0.097,-0.381L0.077,-0.381C0.063,-0.381 0.046,-0.381 0.027,-0.379L0.022,-0.383Z" style="fill:rgb(35,31,32);fill-rule:nonzero;"/>
            </g>
        </g>
        <g transform="matrix(1,0,0,1,389.855,-94.0231)">
            <g transform="matrix(37.5,0,0,37.5,172.809,544.716)">
                <path d="M0.918,-0.688L0.923,-0.685L0.923,-0.661L0.919,-0.657C0.883,-0.656 0.861,-0.654 0.852,-0.652C0.844,-0.649 0.838,-0.645 0.834,-0.639C0.83,-0.633 0.828,-0.621 0.828,-0.604C0.827,-0.586 0.826,-0.536 0.825,-0.455L0.825,-0.229C0.825,-0.197 0.826,-0.16 0.827,-0.119C0.828,-0.078 0.83,-0.054 0.833,-0.048C0.836,-0.041 0.841,-0.036 0.85,-0.033C0.858,-0.03 0.881,-0.028 0.919,-0.027L0.923,-0.023L0.923,0L0.918,0.004C0.865,0.001 0.819,-0 0.78,-0C0.753,-0 0.708,0.001 0.644,0.004L0.639,0L0.639,-0.023L0.643,-0.027C0.679,-0.028 0.701,-0.03 0.71,-0.032C0.718,-0.035 0.724,-0.039 0.728,-0.045C0.732,-0.051 0.734,-0.063 0.734,-0.081C0.735,-0.099 0.736,-0.148 0.737,-0.229L0.737,-0.588L0.568,-0.235C0.526,-0.147 0.489,-0.064 0.458,0.014L0.438,0.014C0.42,-0.028 0.405,-0.062 0.394,-0.087L0.16,-0.572L0.16,-0.23C0.16,-0.199 0.161,-0.162 0.161,-0.12C0.162,-0.079 0.164,-0.055 0.167,-0.048C0.171,-0.042 0.176,-0.037 0.185,-0.034C0.193,-0.03 0.216,-0.028 0.254,-0.028L0.258,-0.024L0.258,-0L0.253,0.004L0.222,0.002C0.19,0.001 0.162,-0 0.139,-0C0.129,-0 0.09,0.001 0.022,0.004L0.019,-0L0.019,-0.023L0.022,-0.028C0.058,-0.028 0.08,-0.03 0.089,-0.033C0.097,-0.035 0.103,-0.04 0.107,-0.046C0.111,-0.052 0.113,-0.064 0.114,-0.081C0.114,-0.097 0.115,-0.147 0.116,-0.23L0.116,-0.454C0.116,-0.484 0.115,-0.52 0.115,-0.562C0.114,-0.605 0.112,-0.629 0.109,-0.636C0.106,-0.643 0.1,-0.648 0.092,-0.651C0.084,-0.654 0.061,-0.656 0.022,-0.657L0.019,-0.661L0.019,-0.684L0.023,-0.688C0.045,-0.687 0.076,-0.686 0.114,-0.686C0.15,-0.686 0.181,-0.687 0.208,-0.688C0.235,-0.625 0.261,-0.568 0.286,-0.517L0.471,-0.137L0.638,-0.485C0.683,-0.579 0.714,-0.647 0.729,-0.688C0.761,-0.687 0.792,-0.686 0.822,-0.686C0.849,-0.686 0.881,-0.687 0.918,-0.688Z" style="fill:rgb(35,31,32);fill-rule:nonzero;"/>
            </g>
            <g transform="matrix(37.5,0,0,37.5,208.277,544.716)">
                <path d="M0.169,-0.465L0.178,-0.459C0.175,-0.416 0.173,-0.362 0.173,-0.296L0.173,-0.183C0.173,-0.141 0.176,-0.112 0.182,-0.096C0.189,-0.079 0.2,-0.067 0.215,-0.058C0.231,-0.05 0.25,-0.045 0.271,-0.045C0.295,-0.045 0.316,-0.05 0.336,-0.059C0.355,-0.069 0.372,-0.082 0.385,-0.099C0.398,-0.116 0.406,-0.127 0.408,-0.133C0.41,-0.139 0.411,-0.155 0.412,-0.182L0.413,-0.237L0.413,-0.29C0.413,-0.303 0.412,-0.32 0.411,-0.343C0.41,-0.365 0.409,-0.379 0.408,-0.384C0.407,-0.389 0.405,-0.393 0.4,-0.396C0.396,-0.398 0.388,-0.399 0.375,-0.399L0.334,-0.4L0.33,-0.404L0.33,-0.425L0.333,-0.429C0.396,-0.436 0.448,-0.448 0.491,-0.465L0.5,-0.459C0.496,-0.416 0.495,-0.362 0.495,-0.296L0.495,-0.21C0.495,-0.206 0.495,-0.166 0.497,-0.091C0.498,-0.063 0.499,-0.046 0.502,-0.04C0.505,-0.034 0.509,-0.03 0.514,-0.028C0.519,-0.025 0.533,-0.024 0.557,-0.024L0.571,-0.024L0.575,-0.02L0.575,-0L0.571,0.004C0.525,0.001 0.495,-0 0.479,-0C0.459,-0 0.436,0.001 0.41,0.003L0.406,-0C0.408,-0.034 0.409,-0.062 0.41,-0.085C0.39,-0.069 0.366,-0.048 0.34,-0.021C0.33,-0.011 0.315,-0.002 0.296,0.004C0.278,0.011 0.256,0.015 0.232,0.015C0.195,0.015 0.167,0.009 0.147,-0.003C0.126,-0.014 0.112,-0.03 0.104,-0.051C0.095,-0.071 0.091,-0.106 0.091,-0.156L0.091,-0.194L0.091,-0.29C0.091,-0.303 0.091,-0.32 0.089,-0.343C0.088,-0.365 0.087,-0.379 0.086,-0.384C0.085,-0.389 0.083,-0.393 0.079,-0.396C0.074,-0.398 0.066,-0.399 0.053,-0.399L0.012,-0.4L0.008,-0.404L0.008,-0.425L0.012,-0.429C0.074,-0.436 0.126,-0.448 0.169,-0.465Z" style="fill:rgb(35,31,32);fill-rule:nonzero;"/>
            </g>
            <g transform="matrix(37.5,0,0,37.5,230.89,544.716)">
                <path d="M0.183,-0.723L0.192,-0.717C0.188,-0.68 0.187,-0.605 0.187,-0.492L0.187,-0.186C0.187,-0.179 0.187,-0.156 0.188,-0.117C0.19,-0.078 0.191,-0.055 0.193,-0.049C0.194,-0.042 0.196,-0.038 0.199,-0.035C0.202,-0.032 0.206,-0.03 0.21,-0.029C0.214,-0.028 0.232,-0.027 0.263,-0.025L0.267,-0.021L0.267,-0L0.263,0.004C0.222,0.001 0.183,-0 0.146,-0C0.108,-0 0.069,0.001 0.028,0.004L0.024,-0L0.024,-0.021L0.028,-0.025C0.06,-0.027 0.078,-0.028 0.082,-0.029C0.086,-0.03 0.089,-0.032 0.093,-0.035C0.096,-0.038 0.098,-0.043 0.099,-0.05C0.1,-0.056 0.101,-0.077 0.103,-0.113C0.104,-0.148 0.105,-0.175 0.105,-0.193L0.105,-0.446L0.103,-0.55C0.102,-0.586 0.101,-0.611 0.1,-0.625C0.099,-0.639 0.097,-0.647 0.095,-0.65C0.093,-0.653 0.09,-0.654 0.085,-0.656C0.08,-0.657 0.06,-0.658 0.026,-0.658L0.021,-0.662L0.021,-0.683L0.025,-0.687C0.088,-0.694 0.14,-0.706 0.183,-0.723Z" style="fill:rgb(35,31,32);fill-rule:nonzero;"/>
            </g>
            <g transform="matrix(37.5,0,0,37.5,241.803,544.716)">
                <path d="M0.022,-0.383L0.022,-0.396L0.026,-0.401C0.056,-0.412 0.081,-0.423 0.1,-0.433C0.1,-0.518 0.099,-0.567 0.097,-0.581C0.131,-0.593 0.158,-0.605 0.18,-0.619L0.191,-0.609C0.188,-0.588 0.184,-0.529 0.18,-0.43C0.196,-0.43 0.214,-0.43 0.232,-0.43C0.271,-0.43 0.298,-0.431 0.315,-0.433L0.318,-0.429L0.309,-0.388L0.305,-0.384C0.289,-0.384 0.27,-0.384 0.25,-0.384C0.232,-0.384 0.208,-0.384 0.18,-0.384L0.177,-0.185C0.177,-0.139 0.178,-0.109 0.18,-0.095C0.182,-0.081 0.188,-0.07 0.198,-0.062C0.207,-0.054 0.221,-0.05 0.24,-0.05C0.262,-0.05 0.282,-0.056 0.301,-0.067L0.313,-0.049C0.305,-0.044 0.286,-0.028 0.256,-0C0.239,0.007 0.222,0.011 0.205,0.011C0.131,0.011 0.095,-0.024 0.095,-0.095C0.095,-0.121 0.095,-0.143 0.097,-0.162C0.097,-0.167 0.097,-0.173 0.097,-0.179L0.097,-0.381L0.077,-0.381C0.063,-0.381 0.046,-0.381 0.027,-0.379L0.022,-0.383Z" style="fill:rgb(35,31,32);fill-rule:nonzero;"/>
            </g>
            <g transform="matrix(37.5,0,0,37.5,254.035,544.716)">
                <path d="M0.141,-0.684C0.156,-0.684 0.169,-0.678 0.18,-0.667C0.19,-0.657 0.196,-0.644 0.196,-0.628C0.196,-0.613 0.19,-0.601 0.18,-0.59C0.169,-0.579 0.156,-0.574 0.141,-0.574C0.126,-0.574 0.113,-0.579 0.102,-0.59C0.091,-0.6 0.085,-0.613 0.085,-0.628C0.085,-0.644 0.091,-0.657 0.102,-0.667C0.113,-0.678 0.126,-0.684 0.141,-0.684ZM0.182,-0.465L0.191,-0.459C0.188,-0.416 0.186,-0.362 0.186,-0.296L0.186,-0.186C0.186,-0.179 0.187,-0.156 0.188,-0.117C0.189,-0.078 0.191,-0.055 0.192,-0.049C0.194,-0.042 0.196,-0.038 0.199,-0.035C0.202,-0.032 0.205,-0.03 0.209,-0.029C0.214,-0.028 0.231,-0.027 0.262,-0.025L0.267,-0.021L0.267,-0L0.263,0.004C0.222,0.001 0.183,-0 0.145,-0C0.108,-0 0.069,0.001 0.028,0.004L0.023,-0L0.023,-0.021L0.028,-0.025C0.059,-0.027 0.077,-0.028 0.081,-0.029C0.085,-0.03 0.089,-0.032 0.092,-0.035C0.095,-0.038 0.097,-0.043 0.098,-0.05C0.1,-0.056 0.101,-0.077 0.102,-0.113C0.104,-0.148 0.104,-0.175 0.104,-0.193L0.104,-0.29C0.104,-0.303 0.104,-0.32 0.103,-0.343C0.101,-0.365 0.1,-0.379 0.099,-0.384C0.099,-0.389 0.096,-0.393 0.092,-0.396C0.088,-0.398 0.079,-0.399 0.066,-0.399L0.025,-0.4L0.021,-0.404L0.021,-0.425L0.025,-0.429C0.087,-0.436 0.139,-0.448 0.182,-0.465Z" style="fill:rgb(35,31,32);fill-rule:nonzero;"/>
            </g>
            <g transform="matrix(37.5,0,0,37.5,264.948,544.716)">
                <path d="M0.181,-0.471L0.19,-0.465C0.187,-0.428 0.185,-0.395 0.185,-0.367C0.229,-0.407 0.26,-0.434 0.277,-0.447C0.295,-0.46 0.325,-0.466 0.367,-0.466C0.394,-0.466 0.418,-0.463 0.44,-0.455C0.462,-0.448 0.482,-0.436 0.5,-0.419C0.519,-0.402 0.534,-0.381 0.544,-0.356C0.555,-0.331 0.561,-0.302 0.561,-0.269C0.561,-0.245 0.557,-0.221 0.549,-0.197C0.542,-0.173 0.532,-0.151 0.52,-0.13C0.508,-0.11 0.498,-0.096 0.49,-0.09C0.483,-0.083 0.468,-0.073 0.445,-0.06C0.425,-0.047 0.404,-0.034 0.384,-0.02C0.37,-0.009 0.361,-0.003 0.355,-0C0.349,0.003 0.34,0.006 0.327,0.009C0.314,0.012 0.3,0.013 0.286,0.013C0.252,0.013 0.218,0.005 0.185,-0.013L0.185,0.091C0.185,0.098 0.185,0.122 0.187,0.16C0.188,0.199 0.189,0.222 0.191,0.229C0.192,0.235 0.194,0.24 0.197,0.243C0.2,0.246 0.204,0.247 0.208,0.248C0.212,0.249 0.23,0.25 0.261,0.252L0.265,0.256L0.265,0.277L0.261,0.281C0.221,0.279 0.181,0.277 0.144,0.277C0.107,0.277 0.068,0.279 0.027,0.281L0.022,0.277L0.022,0.256L0.027,0.252C0.058,0.25 0.076,0.249 0.08,0.248C0.084,0.247 0.088,0.245 0.091,0.242C0.094,0.239 0.096,0.234 0.097,0.227C0.099,0.22 0.1,0.198 0.101,0.162C0.103,0.125 0.104,0.097 0.104,0.079L0.104,-0.295C0.104,-0.312 0.103,-0.332 0.101,-0.354C0.1,-0.377 0.099,-0.389 0.098,-0.393C0.097,-0.397 0.094,-0.4 0.091,-0.402C0.087,-0.404 0.078,-0.405 0.065,-0.405L0.024,-0.406L0.02,-0.41L0.02,-0.431L0.024,-0.435C0.086,-0.442 0.138,-0.454 0.181,-0.471ZM0.185,-0.097C0.2,-0.081 0.218,-0.068 0.24,-0.057C0.262,-0.046 0.287,-0.04 0.313,-0.04C0.345,-0.04 0.373,-0.048 0.397,-0.064C0.421,-0.08 0.44,-0.103 0.454,-0.134C0.467,-0.165 0.474,-0.199 0.474,-0.236C0.474,-0.267 0.468,-0.295 0.456,-0.321C0.444,-0.347 0.426,-0.367 0.401,-0.382C0.376,-0.397 0.349,-0.405 0.321,-0.405C0.304,-0.405 0.287,-0.402 0.271,-0.396C0.255,-0.39 0.24,-0.381 0.225,-0.369C0.211,-0.357 0.201,-0.346 0.195,-0.336C0.189,-0.325 0.185,-0.316 0.185,-0.309C0.185,-0.302 0.185,-0.295 0.185,-0.286L0.185,-0.097Z" style="fill:rgb(35,31,32);fill-rule:nonzero;"/>
            </g>
            <g transform="matrix(37.5,0,0,37.5,287.488,544.716)">
                <path d="M0.183,-0.723L0.192,-0.717C0.188,-0.68 0.187,-0.605 0.187,-0.492L0.187,-0.186C0.187,-0.179 0.187,-0.156 0.188,-0.117C0.19,-0.078 0.191,-0.055 0.193,-0.049C0.194,-0.042 0.196,-0.038 0.199,-0.035C0.202,-0.032 0.206,-0.03 0.21,-0.029C0.214,-0.028 0.232,-0.027 0.263,-0.025L0.267,-0.021L0.267,-0L0.263,0.004C0.222,0.001 0.183,-0 0.146,-0C0.108,-0 0.069,0.001 0.028,0.004L0.024,-0L0.024,-0.021L0.028,-0.025C0.06,-0.027 0.078,-0.028 0.082,-0.029C0.086,-0.03 0.089,-0.032 0.093,-0.035C0.096,-0.038 0.098,-0.043 0.099,-0.05C0.1,-0.056 0.101,-0.077 0.103,-0.113C0.104,-0.148 0.105,-0.175 0.105,-0.193L0.105,-0.446L0.103,-0.55C0.102,-0.586 0.101,-0.611 0.1,-0.625C0.099,-0.639 0.097,-0.647 0.095,-0.65C0.093,-0.653 0.09,-0.654 0.085,-0.656C0.08,-0.657 0.06,-0.658 0.026,-0.658L0.021,-0.662L0.021,-0.683L0.025,-0.687C0.088,-0.694 0.14,-0.706 0.183,-0.723Z" style="fill:rgb(35,31,32);fill-rule:nonzero;"/>
            </g>
            <g transform="matrix(37.5,0,0,37.5,298.401,544.716)">
                <path d="M0.432,-0.072L0.416,-0.037C0.382,-0.015 0.352,-0.001 0.325,0.006C0.299,0.012 0.275,0.016 0.254,0.016C0.215,0.016 0.178,0.008 0.143,-0.007C0.108,-0.023 0.08,-0.049 0.058,-0.085C0.036,-0.121 0.025,-0.165 0.025,-0.217C0.025,-0.251 0.029,-0.282 0.038,-0.309C0.046,-0.337 0.055,-0.357 0.064,-0.371C0.073,-0.384 0.089,-0.399 0.111,-0.415C0.133,-0.431 0.157,-0.444 0.182,-0.454C0.206,-0.464 0.233,-0.469 0.262,-0.469C0.301,-0.469 0.335,-0.46 0.365,-0.441C0.395,-0.423 0.416,-0.399 0.428,-0.371C0.44,-0.342 0.446,-0.312 0.446,-0.279C0.446,-0.269 0.445,-0.259 0.444,-0.25L0.439,-0.245C0.417,-0.24 0.387,-0.236 0.35,-0.235C0.312,-0.233 0.287,-0.232 0.275,-0.232L0.119,-0.232C0.119,-0.165 0.136,-0.115 0.169,-0.083C0.203,-0.052 0.243,-0.036 0.292,-0.036C0.314,-0.036 0.336,-0.04 0.357,-0.047C0.378,-0.055 0.4,-0.066 0.424,-0.08L0.432,-0.072ZM0.119,-0.271C0.125,-0.271 0.147,-0.269 0.186,-0.268C0.226,-0.267 0.255,-0.266 0.273,-0.266C0.319,-0.266 0.346,-0.267 0.356,-0.269C0.356,-0.276 0.356,-0.282 0.356,-0.287C0.356,-0.337 0.346,-0.375 0.326,-0.399C0.305,-0.424 0.277,-0.436 0.242,-0.436C0.203,-0.436 0.173,-0.422 0.151,-0.395C0.129,-0.367 0.119,-0.326 0.119,-0.271Z" style="fill:rgb(35,31,32);fill-rule:nonzero;"/>
            </g>
            <g transform="matrix(37.5,0,0,37.5,325.739,544.716)">
                <path d="M0.033,-0.224C0.033,-0.262 0.041,-0.3 0.057,-0.336C0.073,-0.372 0.101,-0.403 0.14,-0.429C0.18,-0.455 0.227,-0.468 0.281,-0.468C0.35,-0.468 0.405,-0.447 0.448,-0.404C0.491,-0.36 0.513,-0.305 0.513,-0.237C0.513,-0.163 0.488,-0.101 0.439,-0.053C0.389,-0.005 0.33,0.019 0.26,0.019C0.215,0.019 0.174,0.007 0.138,-0.018C0.102,-0.042 0.076,-0.072 0.059,-0.108C0.042,-0.143 0.033,-0.182 0.033,-0.224ZM0.125,-0.257C0.125,-0.212 0.131,-0.171 0.143,-0.135C0.155,-0.099 0.173,-0.07 0.199,-0.048C0.224,-0.027 0.253,-0.016 0.286,-0.016C0.324,-0.016 0.356,-0.031 0.381,-0.061C0.406,-0.092 0.418,-0.138 0.418,-0.199C0.418,-0.268 0.405,-0.325 0.378,-0.369C0.351,-0.413 0.311,-0.436 0.26,-0.436C0.218,-0.436 0.185,-0.42 0.161,-0.39C0.137,-0.359 0.125,-0.315 0.125,-0.257Z" style="fill:rgb(35,31,32);fill-rule:nonzero;"/>
            </g>
            <g transform="matrix(37.5,0,0,37.5,346.21,544.716)">
                <path d="M0.169,-0.465L0.178,-0.459C0.175,-0.416 0.173,-0.362 0.173,-0.296L0.173,-0.183C0.173,-0.141 0.176,-0.112 0.182,-0.096C0.189,-0.079 0.2,-0.067 0.215,-0.058C0.231,-0.05 0.25,-0.045 0.271,-0.045C0.295,-0.045 0.316,-0.05 0.336,-0.059C0.355,-0.069 0.372,-0.082 0.385,-0.099C0.398,-0.116 0.406,-0.127 0.408,-0.133C0.41,-0.139 0.411,-0.155 0.412,-0.182L0.413,-0.237L0.413,-0.29C0.413,-0.303 0.412,-0.32 0.411,-0.343C0.41,-0.365 0.409,-0.379 0.408,-0.384C0.407,-0.389 0.405,-0.393 0.4,-0.396C0.396,-0.398 0.388,-0.399 0.375,-0.399L0.334,-0.4L0.33,-0.404L0.33,-0.425L0.333,-0.429C0.396,-0.436 0.448,-0.448 0.491,-0.465L0.5,-0.459C0.496,-0.416 0.495,-0.362 0.495,-0.296L0.495,-0.21C0.495,-0.206 0.495,-0.166 0.497,-0.091C0.498,-0.063 0.499,-0.046 0.502,-0.04C0.505,-0.034 0.509,-0.03 0.514,-0.028C0.519,-0.025 0.533,-0.024 0.557,-0.024L0.571,-0.024L0.575,-0.02L0.575,-0L0.571,0.004C0.525,0.001 0.495,-0 0.479,-0C0.459,-0 0.436,0.001 0.41,0.003L0.406,-0C0.408,-0.034 0.409,-0.062 0.41,-0.085C0.39,-0.069 0.366,-0.048 0.34,-0.021C0.33,-0.011 0.315,-0.002 0.296,0.004C0.278,0.011 0.256,0.015 0.232,0.015C0.195,0.015 0.167,0.009 0.147,-0.003C0.126,-0.014 0.112,-0.03 0.104,-0.051C0.095,-0.071 0.091,-0.106 0.091,-0.156L0.091,-0.194L0.091,-0.29C0.091,-0.303 0.091,-0.32 0.089,-0.343C0.088,-0.365 0.087,-0.379 0.086,-0.384C0.085,-0.389 0.083,-0.393 0.079,-0.396C0.074,-0.398 0.066,-0.399 0.053,-0.399L0.012,-0.4L0.008,-0.404L0.008,-0.425L0.012,-0.429C0.074,-0.436 0.126,-0.448 0.169,-0.465Z" style="fill:rgb(35,31,32);fill-rule:nonzero;"/>
            </g>
            <g transform="matrix(37.5,0,0,37.5,368.824,544.716)">
                <path d="M0.022,-0.383L0.022,-0.396L0.026,-0.401C0.056,-0.412 0.081,-0.423 0.1,-0.433C0.1,-0.518 0.099,-0.567 0.097,-0.581C0.131,-0.593 0.158,-0.605 0.18,-0.619L0.191,-0.609C0.188,-0.588 0.184,-0.529 0.18,-0.43C0.196,-0.43 0.214,-0.43 0.232,-0.43C0.271,-0.43 0.298,-0.431 0.315,-0.433L0.318,-0.429L0.309,-0.388L0.305,-0.384C0.289,-0.384 0.27,-0.384 0.25,-0.384C0.232,-0.384 0.208,-0.384 0.18,-0.384L0.177,-0.185C0.177,-0.139 0.178,-0.109 0.18,-0.095C0.182,-0.081 0.188,-0.07 0.198,-0.062C0.207,-0.054 0.221,-0.05 0.24,-0.05C0.262,-0.05 0.282,-0.056 0.301,-0.067L0.313,-0.049C0.305,-0.044 0.286,-0.028 0.256,-0C0.239,0.007 0.222,0.011 0.205,0.011C0.131,0.011 0.095,-0.024 0.095,-0.095C0.095,-0.121 0.095,-0.143 0.097,-0.162C0.097,-0.167 0.097,-0.173 0.097,-0.179L0.097,-0.381L0.077,-0.381C0.063,-0.381 0.046,-0.381 0.027,-0.379L0.022,-0.383Z" style="fill:rgb(35,31,32);fill-rule:nonzero;"/>
            </g>
            <g transform="matrix(37.5,0,0,37.5,381.055,544.716)">
                <path d="M0.181,-0.471L0.19,-0.465C0.187,-0.428 0.185,-0.395 0.185,-0.367C0.229,-0.407 0.26,-0.434 0.277,-0.447C0.295,-0.46 0.325,-0.466 0.367,-0.466C0.394,-0.466 0.418,-0.463 0.44,-0.455C0.462,-0.448 0.482,-0.436 0.5,-0.419C0.519,-0.402 0.534,-0.381 0.544,-0.356C0.555,-0.331 0.561,-0.302 0.561,-0.269C0.561,-0.245 0.557,-0.221 0.549,-0.197C0.542,-0.173 0.532,-0.151 0.52,-0.13C0.508,-0.11 0.498,-0.096 0.49,-0.09C0.483,-0.083 0.468,-0.073 0.445,-0.06C0.425,-0.047 0.404,-0.034 0.384,-0.02C0.37,-0.009 0.361,-0.003 0.355,-0C0.349,0.003 0.34,0.006 0.327,0.009C0.314,0.012 0.3,0.013 0.286,0.013C0.252,0.013 0.218,0.005 0.185,-0.013L0.185,0.091C0.185,0.098 0.185,0.122 0.187,0.16C0.188,0.199 0.189,0.222 0.191,0.229C0.192,0.235 0.194,0.24 0.197,0.243C0.2,0.246 0.204,0.247 0.208,0.248C0.212,0.249 0.23,0.25 0.261,0.252L0.265,0.256L0.265,0.277L0.261,0.281C0.221,0.279 0.181,0.277 0.144,0.277C0.107,0.277 0.068,0.279 0.027,0.281L0.022,0.277L0.022,0.256L0.027,0.252C0.058,0.25 0.076,0.249 0.08,0.248C0.084,0.247 0.088,0.245 0.091,0.242C0.094,0.239 0.096,0.234 0.097,0.227C0.099,0.22 0.1,0.198 0.101,0.162C0.103,0.125 0.104,0.097 0.104,0.079L0.104,-0.295C0.104,-0.312 0.103,-0.332 0.101,-0.354C0.1,-0.377 0.099,-0.389 0.098,-0.393C0.097,-0.397 0.094,-0.4 0.091,-0.402C0.087,-0.404 0.078,-0.405 0.065,-0.405L0.024,-0.406L0.02,-0.41L0.02,-0.431L0.024,-0.435C0.086,-0.442 0.138,-0.454 0.181,-0.471ZM0.185,-0.097C0.2,-0.081 0.218,-0.068 0.24,-0.057C0.262,-0.046 0.287,-0.04 0.313,-0.04C0.345,-0.04 0.373,-0.048 0.397,-0.064C0.421,-0.08 0.44,-0.103 0.454,-0.134C0.467,-0.165 0.474,-0.199 0.474,-0.236C0.474,-0.267 0.468,-0.295 0.456,-0.321C0.444,-0.347 0.426,-0.367 0.401,-0.382C0.376,-0.397 0.349,-0.405 0.321,-0.405C0.304,-0.405 0.287,-0.402 0.271,-0.396C0.255,-0.39 0.24,-0.381 0.225,-0.369C0.211,-0.357 0.201,-0.346 0.195,-0.336C0.189,-0.325 0.185,-0.316 0.185,-0.309C0.185,-0.302 0.185,-0.295 0.185,-0.286L0.185,-0.097Z" style="fill:rgb(35,31,32);fill-rule:nonzero;"/>
            </g>
            <g transform="matrix(37.5,0,0,37.5,403.595,544.716)">
                <path d="M0.169,-0.465L0.178,-0.459C0.175,-0.416 0.173,-0.362 0.173,-0.296L0.173,-0.183C0.173,-0.141 0.176,-0.112 0.182,-0.096C0.189,-0.079 0.2,-0.067 0.215,-0.058C0.231,-0.05 0.25,-0.045 0.271,-0.045C0.295,-0.045 0.316,-0.05 0.336,-0.059C0.355,-0.069 0.372,-0.082 0.385,-0.099C0.398,-0.116 0.406,-0.127 0.408,-0.133C0.41,-0.139 0.411,-0.155 0.412,-0.182L0.413,-0.237L0.413,-0.29C0.413,-0.303 0.412,-0.32 0.411,-0.343C0.41,-0.365 0.409,-0.379 0.408,-0.384C0.407,-0.389 0.405,-0.393 0.4,-0.396C0.396,-0.398 0.388,-0.399 0.375,-0.399L0.334,-0.4L0.33,-0.404L0.33,-0.425L0.333,-0.429C0.396,-0.436 0.448,-0.448 0.491,-0.465L0.5,-0.459C0.496,-0.416 0.495,-0.362 0.495,-0.296L0.495,-0.21C0.495,-0.206 0.495,-0.166 0.497,-0.091C0.498,-0.063 0.499,-0.046 0.502,-0.04C0.505,-0.034 0.509,-0.03 0.514,-0.028C0.519,-0.025 0.533,-0.024 0.557,-0.024L0.571,-0.024L0.575,-0.02L0.575,-0L0.571,0.004C0.525,0.001 0.495,-0 0.479,-0C0.459,-0 0.436,0.001 0.41,0.003L0.406,-0C0.408,-0.034 0.409,-0.062 0.41,-0.085C0.39,-0.069 0.366,-0.048 0.34,-0.021C0.33,-0.011 0.315,-0.002 0.296,0.004C0.278,0.011 0.256,0.015 0.232,0.015C0.195,0.015 0.167,0.009 0.147,-0.003C0.126,-0.014 0.112,-0.03 0.104,-0.051C0.095,-0.071 0.091,-0.106 0.091,-0.156L0.091,-0.194L0.091,-0.29C0.091,-0.303 0.091,-0.32 0.089,-0.343C0.088,-0.365 0.087,-0.379 0.086,-0.384C0.085,-0.389 0.083,-0.393 0.079,-0.396C0.074,-0.398 0.066,-0.399 0.053,-0.399L0.012,-0.4L0.008,-0.404L0.008,-0.425L0.012,-0.429C0.074,-0.436 0.126,-0.448 0.169,-0.465Z" style="fill:rgb(35,31,32);fill-rule:nonzero;"/>
            </g>
            <g transform="matrix(37.5,0,0,37.5,426.209,544.716)">
                <path d="M0.022,-0.383L0.022,-0.396L0.026,-0.401C0.056,-0.412 0.081,-0.423 0.1,-0.433C0.1,-0.518 0.099,-0.567 0.097,-0.581C0.131,-0.593 0.158,-0.605 0.18,-0.619L0.191,-0.609C0.188,-0.588 0.184,-0.529 0.18,-0.43C0.196,-0.43 0.214,-0.43 0.232,-0.43C0.271,-0.43 0.298,-0.431 0.315,-0.433L0.318,-0.429L0.309,-0.388L0.305,-0.384C0.289,-0.384 0.27,-0.384 0.25,-0.384C0.232,-0.384 0.208,-0.384 0.18,-0.384L0.177,-0.185C0.177,-0.139 0.178,-0.109 0.18,-0.095C0.182,-0.081 0.188,-0.07 0.198,-0.062C0.207,-0.054 0.221,-0.05 0.24,-0.05C0.262,-0.05 0.282,-0.056 0.301,-0.067L0.313,-0.049C0.305,-0.044 0.286,-0.028 0.256,-0C0.239,0.007 0.222,0.011 0.205,0.011C0.131,0.011 0.095,-0.024 0.095,-0.095C0.095,-0.121 0.095,-0.143 0.097,-0.162C0.097,-0.167 0.097,-0.173 0.097,-0.179L0.097,-0.381L0.077,-0.381C0.063,-0.381 0.046,-0.381 0.027,-0.379L0.022,-0.383Z" style="fill:rgb(35,31,32);fill-rule:nonzero;"/>
            </g>
            <g transform="matrix(37.5,0,0,37.5,438.44,544.716)">
                <path d="M0.049,-0.144L0.07,-0.144L0.075,-0.139C0.075,-0.112 0.077,-0.088 0.08,-0.069C0.09,-0.054 0.107,-0.041 0.132,-0.031C0.157,-0.022 0.181,-0.017 0.205,-0.017C0.24,-0.017 0.267,-0.026 0.288,-0.045C0.309,-0.063 0.319,-0.086 0.319,-0.111C0.319,-0.125 0.315,-0.137 0.308,-0.148C0.3,-0.158 0.289,-0.166 0.274,-0.173C0.259,-0.18 0.231,-0.188 0.192,-0.197C0.159,-0.205 0.135,-0.211 0.122,-0.215C0.109,-0.219 0.096,-0.227 0.083,-0.237C0.071,-0.248 0.062,-0.26 0.055,-0.276C0.049,-0.291 0.045,-0.307 0.045,-0.326C0.045,-0.369 0.063,-0.404 0.097,-0.43C0.132,-0.457 0.175,-0.47 0.227,-0.47C0.249,-0.47 0.273,-0.467 0.298,-0.461C0.324,-0.455 0.344,-0.449 0.357,-0.443L0.361,-0.437C0.359,-0.424 0.357,-0.389 0.356,-0.334L0.352,-0.33L0.333,-0.33L0.328,-0.334C0.327,-0.354 0.325,-0.368 0.323,-0.376C0.32,-0.384 0.315,-0.392 0.305,-0.402C0.296,-0.411 0.282,-0.419 0.265,-0.425C0.248,-0.431 0.23,-0.435 0.21,-0.435C0.191,-0.435 0.174,-0.432 0.16,-0.426C0.147,-0.42 0.136,-0.411 0.128,-0.399C0.119,-0.387 0.115,-0.373 0.115,-0.356C0.115,-0.344 0.118,-0.333 0.123,-0.323C0.128,-0.313 0.136,-0.305 0.146,-0.299C0.156,-0.293 0.167,-0.289 0.179,-0.286L0.232,-0.272C0.278,-0.261 0.31,-0.252 0.33,-0.244C0.35,-0.236 0.365,-0.223 0.375,-0.207C0.386,-0.19 0.392,-0.17 0.392,-0.147C0.392,-0.102 0.373,-0.063 0.336,-0.031C0.299,0.001 0.251,0.017 0.193,0.017C0.172,0.017 0.147,0.015 0.116,0.01C0.086,0.006 0.06,0.001 0.039,-0.005L0.036,-0.011L0.041,-0.044C0.043,-0.054 0.044,-0.064 0.044,-0.074C0.044,-0.085 0.045,-0.106 0.045,-0.139L0.049,-0.144Z" style="fill:rgb(35,31,32);fill-rule:nonzero;"/>
            </g>
            <g transform="matrix(37.5,0,0,37.5,149.6,594.704)">
                <path d="M0.281,-0.025L0.285,-0.021L0.285,-0L0.281,0.004C0.271,0.004 0.252,0.003 0.224,0.002C0.199,0.001 0.173,-0 0.146,-0C0.11,-0 0.071,0.001 0.028,0.004L0.024,-0L0.024,-0.021L0.028,-0.025C0.059,-0.027 0.077,-0.028 0.082,-0.029C0.086,-0.03 0.089,-0.032 0.092,-0.035C0.095,-0.038 0.097,-0.043 0.098,-0.05C0.1,-0.056 0.101,-0.077 0.102,-0.113C0.104,-0.148 0.104,-0.175 0.104,-0.193L0.104,-0.382L0.042,-0.378L0.037,-0.382L0.037,-0.395L0.041,-0.399L0.104,-0.432L0.104,-0.461C0.104,-0.494 0.106,-0.519 0.109,-0.535C0.112,-0.552 0.117,-0.568 0.125,-0.582C0.133,-0.596 0.147,-0.614 0.167,-0.635C0.187,-0.657 0.204,-0.675 0.219,-0.689C0.234,-0.703 0.247,-0.712 0.258,-0.717C0.269,-0.721 0.282,-0.724 0.297,-0.724C0.31,-0.724 0.323,-0.721 0.337,-0.716L0.337,-0.636L0.326,-0.632C0.307,-0.648 0.286,-0.656 0.262,-0.656C0.245,-0.656 0.231,-0.653 0.218,-0.646C0.206,-0.639 0.197,-0.627 0.193,-0.612C0.188,-0.596 0.186,-0.57 0.186,-0.533L0.186,-0.432L0.238,-0.432C0.265,-0.432 0.291,-0.433 0.315,-0.435L0.319,-0.43L0.311,-0.387L0.306,-0.382C0.296,-0.382 0.29,-0.382 0.287,-0.382L0.224,-0.383L0.186,-0.383L0.186,-0.186C0.186,-0.176 0.187,-0.152 0.188,-0.115C0.19,-0.077 0.191,-0.055 0.192,-0.049C0.194,-0.042 0.196,-0.038 0.199,-0.035C0.202,-0.032 0.207,-0.03 0.214,-0.028C0.221,-0.027 0.243,-0.026 0.281,-0.025Z" style="fill:rgb(35,31,32);fill-rule:nonzero;"/>
            </g>
            <g transform="matrix(37.5,0,0,37.5,162.088,594.704)">
                <path d="M0.033,-0.224C0.033,-0.262 0.041,-0.3 0.057,-0.336C0.073,-0.372 0.101,-0.403 0.14,-0.429C0.18,-0.455 0.227,-0.468 0.281,-0.468C0.35,-0.468 0.405,-0.447 0.448,-0.404C0.491,-0.36 0.513,-0.305 0.513,-0.237C0.513,-0.163 0.488,-0.101 0.439,-0.053C0.389,-0.005 0.33,0.019 0.26,0.019C0.215,0.019 0.174,0.007 0.138,-0.018C0.102,-0.042 0.076,-0.072 0.059,-0.108C0.042,-0.143 0.033,-0.182 0.033,-0.224ZM0.125,-0.257C0.125,-0.212 0.131,-0.171 0.143,-0.135C0.155,-0.099 0.173,-0.07 0.199,-0.048C0.224,-0.027 0.253,-0.016 0.286,-0.016C0.324,-0.016 0.356,-0.031 0.381,-0.061C0.406,-0.092 0.418,-0.138 0.418,-0.199C0.418,-0.268 0.405,-0.325 0.378,-0.369C0.351,-0.413 0.311,-0.436 0.26,-0.436C0.218,-0.436 0.185,-0.42 0.161,-0.39C0.137,-0.359 0.125,-0.315 0.125,-0.257Z" style="fill:rgb(35,31,32);fill-rule:nonzero;"/>
            </g>
            <g transform="matrix(37.5,0,0,37.5,182.559,594.704)">
                <path d="M0.188,-0.465L0.197,-0.459C0.195,-0.44 0.193,-0.407 0.192,-0.358L0.229,-0.405C0.241,-0.42 0.252,-0.432 0.261,-0.44C0.27,-0.448 0.281,-0.455 0.293,-0.459C0.306,-0.464 0.319,-0.466 0.332,-0.466C0.346,-0.466 0.359,-0.463 0.372,-0.458L0.375,-0.451C0.37,-0.407 0.367,-0.369 0.367,-0.336L0.345,-0.336C0.332,-0.366 0.311,-0.381 0.282,-0.381C0.262,-0.381 0.244,-0.375 0.229,-0.362C0.214,-0.349 0.204,-0.333 0.199,-0.314C0.194,-0.294 0.191,-0.27 0.191,-0.24L0.191,-0.186C0.191,-0.176 0.192,-0.152 0.193,-0.114C0.195,-0.076 0.196,-0.054 0.198,-0.048C0.199,-0.042 0.201,-0.038 0.204,-0.035C0.207,-0.033 0.212,-0.031 0.217,-0.03C0.222,-0.029 0.245,-0.027 0.286,-0.025L0.291,-0.021L0.291,-0L0.286,0.004C0.243,0.001 0.198,-0 0.15,-0C0.113,-0 0.074,0.001 0.033,0.004L0.029,-0L0.029,-0.021L0.033,-0.025C0.065,-0.027 0.083,-0.028 0.087,-0.029C0.091,-0.03 0.094,-0.032 0.097,-0.035C0.101,-0.038 0.103,-0.043 0.104,-0.05C0.105,-0.056 0.106,-0.077 0.108,-0.113C0.109,-0.148 0.11,-0.175 0.11,-0.193L0.11,-0.29C0.11,-0.303 0.109,-0.32 0.108,-0.343C0.107,-0.365 0.106,-0.379 0.105,-0.384C0.104,-0.389 0.101,-0.393 0.097,-0.396C0.093,-0.398 0.084,-0.399 0.072,-0.399L0.031,-0.4L0.026,-0.404L0.026,-0.425L0.03,-0.429C0.092,-0.436 0.145,-0.448 0.188,-0.465Z" style="fill:rgb(35,31,32);fill-rule:nonzero;"/>
            </g>
            <g transform="matrix(37.5,0,0,37.5,206.748,594.704)">
                <path d="M0.18,-0.465L0.189,-0.459C0.187,-0.438 0.186,-0.412 0.185,-0.382L0.231,-0.424C0.244,-0.436 0.253,-0.444 0.257,-0.448C0.262,-0.451 0.271,-0.455 0.287,-0.459C0.303,-0.464 0.319,-0.466 0.336,-0.466C0.369,-0.466 0.397,-0.458 0.422,-0.442C0.446,-0.426 0.464,-0.404 0.476,-0.375C0.52,-0.417 0.546,-0.44 0.553,-0.445C0.56,-0.449 0.572,-0.454 0.588,-0.459C0.604,-0.463 0.62,-0.466 0.636,-0.466C0.661,-0.466 0.685,-0.46 0.707,-0.449C0.728,-0.438 0.745,-0.424 0.758,-0.406C0.771,-0.388 0.778,-0.368 0.78,-0.348C0.782,-0.327 0.783,-0.298 0.783,-0.262L0.783,-0.21C0.783,-0.205 0.784,-0.164 0.786,-0.089C0.787,-0.058 0.79,-0.04 0.796,-0.034C0.803,-0.028 0.823,-0.025 0.856,-0.025L0.86,-0.021L0.86,-0L0.856,0.004C0.815,0.001 0.787,-0 0.772,-0C0.764,-0 0.741,0.001 0.702,0.004L0.695,-0.001C0.7,-0.044 0.702,-0.099 0.702,-0.167L0.702,-0.226C0.702,-0.277 0.699,-0.314 0.694,-0.334C0.689,-0.355 0.678,-0.372 0.66,-0.385C0.642,-0.398 0.621,-0.405 0.596,-0.405C0.579,-0.405 0.562,-0.401 0.547,-0.394C0.532,-0.387 0.518,-0.377 0.506,-0.363C0.493,-0.349 0.487,-0.336 0.485,-0.324C0.484,-0.313 0.483,-0.291 0.483,-0.259L0.483,-0.198C0.483,-0.183 0.484,-0.157 0.485,-0.117C0.487,-0.078 0.488,-0.055 0.49,-0.048C0.491,-0.042 0.493,-0.037 0.496,-0.034C0.499,-0.032 0.503,-0.03 0.507,-0.029C0.511,-0.028 0.529,-0.027 0.56,-0.025L0.564,-0.021L0.564,-0L0.56,0.004C0.519,0.001 0.48,-0 0.442,-0C0.408,-0 0.368,0.001 0.325,0.004L0.321,-0L0.321,-0.021L0.325,-0.025C0.357,-0.027 0.375,-0.028 0.379,-0.029C0.383,-0.03 0.386,-0.032 0.389,-0.035C0.392,-0.038 0.395,-0.043 0.396,-0.05C0.397,-0.056 0.398,-0.077 0.4,-0.113C0.401,-0.148 0.402,-0.175 0.402,-0.193L0.402,-0.249C0.402,-0.286 0.399,-0.314 0.394,-0.334C0.389,-0.354 0.378,-0.371 0.362,-0.384C0.345,-0.398 0.324,-0.405 0.299,-0.405C0.28,-0.405 0.262,-0.401 0.246,-0.393C0.23,-0.386 0.217,-0.376 0.206,-0.365C0.196,-0.354 0.19,-0.343 0.187,-0.333C0.185,-0.324 0.184,-0.303 0.184,-0.27L0.184,-0.198C0.184,-0.183 0.184,-0.157 0.186,-0.117C0.187,-0.078 0.188,-0.055 0.19,-0.048C0.191,-0.042 0.193,-0.037 0.197,-0.034C0.2,-0.032 0.203,-0.03 0.207,-0.029C0.211,-0.028 0.229,-0.027 0.26,-0.025L0.264,-0.021L0.264,-0L0.26,0.004C0.22,0.001 0.18,-0 0.143,-0C0.105,-0 0.066,0.001 0.025,0.004L0.021,-0L0.021,-0.021L0.025,-0.025C0.057,-0.027 0.075,-0.028 0.079,-0.029C0.083,-0.03 0.087,-0.032 0.09,-0.035C0.093,-0.038 0.095,-0.043 0.096,-0.05C0.097,-0.056 0.098,-0.077 0.1,-0.113C0.101,-0.148 0.102,-0.175 0.102,-0.193L0.102,-0.29C0.102,-0.303 0.101,-0.32 0.1,-0.343C0.099,-0.365 0.098,-0.379 0.097,-0.384C0.096,-0.389 0.094,-0.393 0.089,-0.396C0.085,-0.398 0.077,-0.399 0.064,-0.399L0.023,-0.4L0.019,-0.404L0.019,-0.425L0.022,-0.429C0.085,-0.436 0.137,-0.448 0.18,-0.465Z" style="fill:rgb(35,31,32);fill-rule:nonzero;"/>
            </g>
            <g transform="matrix(37.5,0,0,37.5,239.853,594.704)">
                <path d="M0.169,-0.465L0.178,-0.459C0.175,-0.416 0.173,-0.362 0.173,-0.296L0.173,-0.183C0.173,-0.141 0.176,-0.112 0.182,-0.096C0.189,-0.079 0.2,-0.067 0.215,-0.058C0.231,-0.05 0.25,-0.045 0.271,-0.045C0.295,-0.045 0.316,-0.05 0.336,-0.059C0.355,-0.069 0.372,-0.082 0.385,-0.099C0.398,-0.116 0.406,-0.127 0.408,-0.133C0.41,-0.139 0.411,-0.155 0.412,-0.182L0.413,-0.237L0.413,-0.29C0.413,-0.303 0.412,-0.32 0.411,-0.343C0.41,-0.365 0.409,-0.379 0.408,-0.384C0.407,-0.389 0.405,-0.393 0.4,-0.396C0.396,-0.398 0.388,-0.399 0.375,-0.399L0.334,-0.4L0.33,-0.404L0.33,-0.425L0.333,-0.429C0.396,-0.436 0.448,-0.448 0.491,-0.465L0.5,-0.459C0.496,-0.416 0.495,-0.362 0.495,-0.296L0.495,-0.21C0.495,-0.206 0.495,-0.166 0.497,-0.091C0.498,-0.063 0.499,-0.046 0.502,-0.04C0.505,-0.034 0.509,-0.03 0.514,-0.028C0.519,-0.025 0.533,-0.024 0.557,-0.024L0.571,-0.024L0.575,-0.02L0.575,-0L0.571,0.004C0.525,0.001 0.495,-0 0.479,-0C0.459,-0 0.436,0.001 0.41,0.003L0.406,-0C0.408,-0.034 0.409,-0.062 0.41,-0.085C0.39,-0.069 0.366,-0.048 0.34,-0.021C0.33,-0.011 0.315,-0.002 0.296,0.004C0.278,0.011 0.256,0.015 0.232,0.015C0.195,0.015 0.167,0.009 0.147,-0.003C0.126,-0.014 0.112,-0.03 0.104,-0.051C0.095,-0.071 0.091,-0.106 0.091,-0.156L0.091,-0.194L0.091,-0.29C0.091,-0.303 0.091,-0.32 0.089,-0.343C0.088,-0.365 0.087,-0.379 0.086,-0.384C0.085,-0.389 0.083,-0.393 0.079,-0.396C0.074,-0.398 0.066,-0.399 0.053,-0.399L0.012,-0.4L0.008,-0.404L0.008,-0.425L0.012,-0.429C0.074,-0.436 0.126,-0.448 0.169,-0.465Z" style="fill:rgb(35,31,32);fill-rule:nonzero;"/>
            </g>
            <g transform="matrix(37.5,0,0,37.5,262.467,594.704)">
                <path d="M0.183,-0.723L0.192,-0.717C0.188,-0.68 0.187,-0.605 0.187,-0.492L0.187,-0.186C0.187,-0.179 0.187,-0.156 0.188,-0.117C0.19,-0.078 0.191,-0.055 0.193,-0.049C0.194,-0.042 0.196,-0.038 0.199,-0.035C0.202,-0.032 0.206,-0.03 0.21,-0.029C0.214,-0.028 0.232,-0.027 0.263,-0.025L0.267,-0.021L0.267,-0L0.263,0.004C0.222,0.001 0.183,-0 0.146,-0C0.108,-0 0.069,0.001 0.028,0.004L0.024,-0L0.024,-0.021L0.028,-0.025C0.06,-0.027 0.078,-0.028 0.082,-0.029C0.086,-0.03 0.089,-0.032 0.093,-0.035C0.096,-0.038 0.098,-0.043 0.099,-0.05C0.1,-0.056 0.101,-0.077 0.103,-0.113C0.104,-0.148 0.105,-0.175 0.105,-0.193L0.105,-0.446L0.103,-0.55C0.102,-0.586 0.101,-0.611 0.1,-0.625C0.099,-0.639 0.097,-0.647 0.095,-0.65C0.093,-0.653 0.09,-0.654 0.085,-0.656C0.08,-0.657 0.06,-0.658 0.026,-0.658L0.021,-0.662L0.021,-0.683L0.025,-0.687C0.088,-0.694 0.14,-0.706 0.183,-0.723Z" style="fill:rgb(35,31,32);fill-rule:nonzero;"/>
            </g>
            <g transform="matrix(37.5,0,0,37.5,273.38,594.704)">
                <path d="M0.022,-0.383L0.022,-0.396L0.026,-0.401C0.056,-0.412 0.081,-0.423 0.1,-0.433C0.1,-0.518 0.099,-0.567 0.097,-0.581C0.131,-0.593 0.158,-0.605 0.18,-0.619L0.191,-0.609C0.188,-0.588 0.184,-0.529 0.18,-0.43C0.196,-0.43 0.214,-0.43 0.232,-0.43C0.271,-0.43 0.298,-0.431 0.315,-0.433L0.318,-0.429L0.309,-0.388L0.305,-0.384C0.289,-0.384 0.27,-0.384 0.25,-0.384C0.232,-0.384 0.208,-0.384 0.18,-0.384L0.177,-0.185C0.177,-0.139 0.178,-0.109 0.18,-0.095C0.182,-0.081 0.188,-0.07 0.198,-0.062C0.207,-0.054 0.221,-0.05 0.24,-0.05C0.262,-0.05 0.282,-0.056 0.301,-0.067L0.313,-0.049C0.305,-0.044 0.286,-0.028 0.256,-0C0.239,0.007 0.222,0.011 0.205,0.011C0.131,0.011 0.095,-0.024 0.095,-0.095C0.095,-0.121 0.095,-0.143 0.097,-0.162C0.097,-0.167 0.097,-0.173 0.097,-0.179L0.097,-0.381L0.077,-0.381C0.063,-0.381 0.046,-0.381 0.027,-0.379L0.022,-0.383Z" style="fill:rgb(35,31,32);fill-rule:nonzero;"/>
            </g>
            <g transform="matrix(37.5,0,0,37.5,285.611,594.704)">
                <path d="M0.141,-0.684C0.156,-0.684 0.169,-0.678 0.18,-0.667C0.19,-0.657 0.196,-0.644 0.196,-0.628C0.196,-0.613 0.19,-0.601 0.18,-0.59C0.169,-0.579 0.156,-0.574 0.141,-0.574C0.126,-0.574 0.113,-0.579 0.102,-0.59C0.091,-0.6 0.085,-0.613 0.085,-0.628C0.085,-0.644 0.091,-0.657 0.102,-0.667C0.113,-0.678 0.126,-0.684 0.141,-0.684ZM0.182,-0.465L0.191,-0.459C0.188,-0.416 0.186,-0.362 0.186,-0.296L0.186,-0.186C0.186,-0.179 0.187,-0.156 0.188,-0.117C0.189,-0.078 0.191,-0.055 0.192,-0.049C0.194,-0.042 0.196,-0.038 0.199,-0.035C0.202,-0.032 0.205,-0.03 0.209,-0.029C0.214,-0.028 0.231,-0.027 0.262,-0.025L0.267,-0.021L0.267,-0L0.263,0.004C0.222,0.001 0.183,-0 0.145,-0C0.108,-0 0.069,0.001 0.028,0.004L0.023,-0L0.023,-0.021L0.028,-0.025C0.059,-0.027 0.077,-0.028 0.081,-0.029C0.085,-0.03 0.089,-0.032 0.092,-0.035C0.095,-0.038 0.097,-0.043 0.098,-0.05C0.1,-0.056 0.101,-0.077 0.102,-0.113C0.104,-0.148 0.104,-0.175 0.104,-0.193L0.104,-0.29C0.104,-0.303 0.104,-0.32 0.103,-0.343C0.101,-0.365 0.1,-0.379 0.099,-0.384C0.099,-0.389 0.096,-0.393 0.092,-0.396C0.088,-0.398 0.079,-0.399 0.066,-0.399L0.025,-0.4L0.021,-0.404L0.021,-0.425L0.025,-0.429C0.087,-0.436 0.139,-0.448 0.182,-0.465Z" style="fill:rgb(35,31,32);fill-rule:nonzero;"/>
            </g>
            <g transform="matrix(37.5,0,0,37.5,296.524,594.704)">
                <path d="M0.181,-0.471L0.19,-0.465C0.187,-0.428 0.185,-0.395 0.185,-0.367C0.229,-0.407 0.26,-0.434 0.277,-0.447C0.295,-0.46 0.325,-0.466 0.367,-0.466C0.394,-0.466 0.418,-0.463 0.44,-0.455C0.462,-0.448 0.482,-0.436 0.5,-0.419C0.519,-0.402 0.534,-0.381 0.544,-0.356C0.555,-0.331 0.561,-0.302 0.561,-0.269C0.561,-0.245 0.557,-0.221 0.549,-0.197C0.542,-0.173 0.532,-0.151 0.52,-0.13C0.508,-0.11 0.498,-0.096 0.49,-0.09C0.483,-0.083 0.468,-0.073 0.445,-0.06C0.425,-0.047 0.404,-0.034 0.384,-0.02C0.37,-0.009 0.361,-0.003 0.355,-0C0.349,0.003 0.34,0.006 0.327,0.009C0.314,0.012 0.3,0.013 0.286,0.013C0.252,0.013 0.218,0.005 0.185,-0.013L0.185,0.091C0.185,0.098 0.185,0.122 0.187,0.16C0.188,0.199 0.189,0.222 0.191,0.229C0.192,0.235 0.194,0.24 0.197,0.243C0.2,0.246 0.204,0.247 0.208,0.248C0.212,0.249 0.23,0.25 0.261,0.252L0.265,0.256L0.265,0.277L0.261,0.281C0.221,0.279 0.181,0.277 0.144,0.277C0.107,0.277 0.068,0.279 0.027,0.281L0.022,0.277L0.022,0.256L0.027,0.252C0.058,0.25 0.076,0.249 0.08,0.248C0.084,0.247 0.088,0.245 0.091,0.242C0.094,0.239 0.096,0.234 0.097,0.227C0.099,0.22 0.1,0.198 0.101,0.162C0.103,0.125 0.104,0.097 0.104,0.079L0.104,-0.295C0.104,-0.312 0.103,-0.332 0.101,-0.354C0.1,-0.377 0.099,-0.389 0.098,-0.393C0.097,-0.397 0.094,-0.4 0.091,-0.402C0.087,-0.404 0.078,-0.405 0.065,-0.405L0.024,-0.406L0.02,-0.41L0.02,-0.431L0.024,-0.435C0.086,-0.442 0.138,-0.454 0.181,-0.471ZM0.185,-0.097C0.2,-0.081 0.218,-0.068 0.24,-0.057C0.262,-0.046 0.287,-0.04 0.313,-0.04C0.345,-0.04 0.373,-0.048 0.397,-0.064C0.421,-0.08 0.44,-0.103 0.454,-0.134C0.467,-0.165 0.474,-0.199 0.474,-0.236C0.474,-0.267 0.468,-0.295 0.456,-0.321C0.444,-0.347 0.426,-0.367 0.401,-0.382C0.376,-0.397 0.349,-0.405 0.321,-0.405C0.304,-0.405 0.287,-0.402 0.271,-0.396C0.255,-0.39 0.24,-0.381 0.225,-0.369C0.211,-0.357 0.201,-0.346 0.195,-0.336C0.189,-0.325 0.185,-0.316 0.185,-0.309C0.185,-0.302 0.185,-0.295 0.185,-0.286L0.185,-0.097Z" style="fill:rgb(35,31,32);fill-rule:nonzero;"/>
            </g>
            <g transform="matrix(37.5,0,0,37.5,319.065,594.704)">
                <path d="M0.183,-0.723L0.192,-0.717C0.188,-0.68 0.187,-0.605 0.187,-0.492L0.187,-0.186C0.187,-0.179 0.187,-0.156 0.188,-0.117C0.19,-0.078 0.191,-0.055 0.193,-0.049C0.194,-0.042 0.196,-0.038 0.199,-0.035C0.202,-0.032 0.206,-0.03 0.21,-0.029C0.214,-0.028 0.232,-0.027 0.263,-0.025L0.267,-0.021L0.267,-0L0.263,0.004C0.222,0.001 0.183,-0 0.146,-0C0.108,-0 0.069,0.001 0.028,0.004L0.024,-0L0.024,-0.021L0.028,-0.025C0.06,-0.027 0.078,-0.028 0.082,-0.029C0.086,-0.03 0.089,-0.032 0.093,-0.035C0.096,-0.038 0.098,-0.043 0.099,-0.05C0.1,-0.056 0.101,-0.077 0.103,-0.113C0.104,-0.148 0.105,-0.175 0.105,-0.193L0.105,-0.446L0.103,-0.55C0.102,-0.586 0.101,-0.611 0.1,-0.625C0.099,-0.639 0.097,-0.647 0.095,-0.65C0.093,-0.653 0.09,-0.654 0.085,-0.656C0.08,-0.657 0.06,-0.658 0.026,-0.658L0.021,-0.662L0.021,-0.683L0.025,-0.687C0.088,-0.694 0.14,-0.706 0.183,-0.723Z" style="fill:rgb(35,31,32);fill-rule:nonzero;"/>
            </g>
            <g transform="matrix(37.5,0,0,37.5,329.978,594.704)">
                <path d="M0.432,-0.072L0.416,-0.037C0.382,-0.015 0.352,-0.001 0.325,0.006C0.299,0.012 0.275,0.016 0.254,0.016C0.215,0.016 0.178,0.008 0.143,-0.007C0.108,-0.023 0.08,-0.049 0.058,-0.085C0.036,-0.121 0.025,-0.165 0.025,-0.217C0.025,-0.251 0.029,-0.282 0.038,-0.309C0.046,-0.337 0.055,-0.357 0.064,-0.371C0.073,-0.384 0.089,-0.399 0.111,-0.415C0.133,-0.431 0.157,-0.444 0.182,-0.454C0.206,-0.464 0.233,-0.469 0.262,-0.469C0.301,-0.469 0.335,-0.46 0.365,-0.441C0.395,-0.423 0.416,-0.399 0.428,-0.371C0.44,-0.342 0.446,-0.312 0.446,-0.279C0.446,-0.269 0.445,-0.259 0.444,-0.25L0.439,-0.245C0.417,-0.24 0.387,-0.236 0.35,-0.235C0.312,-0.233 0.287,-0.232 0.275,-0.232L0.119,-0.232C0.119,-0.165 0.136,-0.115 0.169,-0.083C0.203,-0.052 0.243,-0.036 0.292,-0.036C0.314,-0.036 0.336,-0.04 0.357,-0.047C0.378,-0.055 0.4,-0.066 0.424,-0.08L0.432,-0.072ZM0.119,-0.271C0.125,-0.271 0.147,-0.269 0.186,-0.268C0.226,-0.267 0.255,-0.266 0.273,-0.266C0.319,-0.266 0.346,-0.267 0.356,-0.269C0.356,-0.276 0.356,-0.282 0.356,-0.287C0.356,-0.337 0.346,-0.375 0.326,-0.399C0.305,-0.424 0.277,-0.436 0.242,-0.436C0.203,-0.436 0.173,-0.422 0.151,-0.395C0.129,-0.367 0.119,-0.326 0.119,-0.271Z" style="fill:rgb(35,31,32);fill-rule:nonzero;"/>
            </g>
            <g transform="matrix(37.5,0,0,37.5,357.315,594.704)">
                <path d="M0.178,-0.723L0.187,-0.717C0.183,-0.68 0.182,-0.605 0.182,-0.492L0.182,-0.263C0.193,-0.27 0.215,-0.286 0.247,-0.312C0.28,-0.338 0.314,-0.368 0.35,-0.402C0.387,-0.436 0.405,-0.454 0.406,-0.457C0.434,-0.456 0.451,-0.456 0.456,-0.456C0.464,-0.456 0.479,-0.456 0.501,-0.457L0.506,-0.453L0.506,-0.434L0.502,-0.429C0.486,-0.428 0.473,-0.426 0.465,-0.423C0.456,-0.42 0.438,-0.409 0.412,-0.391C0.385,-0.372 0.354,-0.348 0.318,-0.319L0.271,-0.28C0.288,-0.26 0.318,-0.228 0.361,-0.185C0.404,-0.142 0.439,-0.109 0.466,-0.085C0.493,-0.061 0.51,-0.048 0.518,-0.044C0.526,-0.041 0.535,-0.039 0.544,-0.039L0.544,-0.018C0.532,-0.016 0.501,-0.006 0.451,0.012C0.417,-0.018 0.395,-0.037 0.386,-0.046L0.35,-0.083L0.307,-0.127C0.294,-0.14 0.276,-0.157 0.253,-0.178L0.182,-0.244L0.182,-0.186C0.182,-0.179 0.182,-0.156 0.184,-0.117C0.185,-0.078 0.186,-0.055 0.188,-0.049C0.189,-0.042 0.191,-0.038 0.194,-0.035C0.197,-0.032 0.201,-0.03 0.205,-0.029C0.209,-0.028 0.227,-0.027 0.258,-0.025L0.262,-0.021L0.262,-0L0.258,0.004C0.218,0.001 0.178,-0 0.141,-0C0.103,-0 0.064,0.001 0.023,0.004L0.019,-0L0.019,-0.021L0.023,-0.025C0.055,-0.027 0.073,-0.028 0.077,-0.029C0.081,-0.03 0.085,-0.032 0.088,-0.035C0.091,-0.038 0.093,-0.043 0.094,-0.05C0.095,-0.056 0.096,-0.077 0.098,-0.113C0.099,-0.148 0.1,-0.175 0.1,-0.193L0.1,-0.446L0.098,-0.55C0.097,-0.586 0.096,-0.611 0.095,-0.625C0.094,-0.639 0.092,-0.647 0.09,-0.65C0.088,-0.653 0.085,-0.654 0.08,-0.656C0.075,-0.657 0.056,-0.658 0.021,-0.658L0.017,-0.662L0.017,-0.683L0.021,-0.687C0.083,-0.694 0.135,-0.706 0.178,-0.723Z" style="fill:rgb(35,31,32);fill-rule:nonzero;"/>
            </g>
            <g transform="matrix(37.5,0,0,37.5,378.171,594.704)">
                <path d="M0.432,-0.072L0.416,-0.037C0.382,-0.015 0.352,-0.001 0.325,0.006C0.299,0.012 0.275,0.016 0.254,0.016C0.215,0.016 0.178,0.008 0.143,-0.007C0.108,-0.023 0.08,-0.049 0.058,-0.085C0.036,-0.121 0.025,-0.165 0.025,-0.217C0.025,-0.251 0.029,-0.282 0.038,-0.309C0.046,-0.337 0.055,-0.357 0.064,-0.371C0.073,-0.384 0.089,-0.399 0.111,-0.415C0.133,-0.431 0.157,-0.444 0.182,-0.454C0.206,-0.464 0.233,-0.469 0.262,-0.469C0.301,-0.469 0.335,-0.46 0.365,-0.441C0.395,-0.423 0.416,-0.399 0.428,-0.371C0.44,-0.342 0.446,-0.312 0.446,-0.279C0.446,-0.269 0.445,-0.259 0.444,-0.25L0.439,-0.245C0.417,-0.24 0.387,-0.236 0.35,-0.235C0.312,-0.233 0.287,-0.232 0.275,-0.232L0.119,-0.232C0.119,-0.165 0.136,-0.115 0.169,-0.083C0.203,-0.052 0.243,-0.036 0.292,-0.036C0.314,-0.036 0.336,-0.04 0.357,-0.047C0.378,-0.055 0.4,-0.066 0.424,-0.08L0.432,-0.072ZM0.119,-0.271C0.125,-0.271 0.147,-0.269 0.186,-0.268C0.226,-0.267 0.255,-0.266 0.273,-0.266C0.319,-0.266 0.346,-0.267 0.356,-0.269C0.356,-0.276 0.356,-0.282 0.356,-0.287C0.356,-0.337 0.346,-0.375 0.326,-0.399C0.305,-0.424 0.277,-0.436 0.242,-0.436C0.203,-0.436 0.173,-0.422 0.151,-0.395C0.129,-0.367 0.119,-0.326 0.119,-0.271Z" style="fill:rgb(35,31,32);fill-rule:nonzero;"/>
            </g>
            <g transform="matrix(37.5,0,0,37.5,396.134,594.704)">
                <path d="M0.188,-0.465L0.197,-0.459C0.195,-0.44 0.193,-0.407 0.192,-0.358L0.229,-0.405C0.241,-0.42 0.252,-0.432 0.261,-0.44C0.27,-0.448 0.281,-0.455 0.293,-0.459C0.306,-0.464 0.319,-0.466 0.332,-0.466C0.346,-0.466 0.359,-0.463 0.372,-0.458L0.375,-0.451C0.37,-0.407 0.367,-0.369 0.367,-0.336L0.345,-0.336C0.332,-0.366 0.311,-0.381 0.282,-0.381C0.262,-0.381 0.244,-0.375 0.229,-0.362C0.214,-0.349 0.204,-0.333 0.199,-0.314C0.194,-0.294 0.191,-0.27 0.191,-0.24L0.191,-0.186C0.191,-0.176 0.192,-0.152 0.193,-0.114C0.195,-0.076 0.196,-0.054 0.198,-0.048C0.199,-0.042 0.201,-0.038 0.204,-0.035C0.207,-0.033 0.212,-0.031 0.217,-0.03C0.222,-0.029 0.245,-0.027 0.286,-0.025L0.291,-0.021L0.291,-0L0.286,0.004C0.243,0.001 0.198,-0 0.15,-0C0.113,-0 0.074,0.001 0.033,0.004L0.029,-0L0.029,-0.021L0.033,-0.025C0.065,-0.027 0.083,-0.028 0.087,-0.029C0.091,-0.03 0.094,-0.032 0.097,-0.035C0.101,-0.038 0.103,-0.043 0.104,-0.05C0.105,-0.056 0.106,-0.077 0.108,-0.113C0.109,-0.148 0.11,-0.175 0.11,-0.193L0.11,-0.29C0.11,-0.303 0.109,-0.32 0.108,-0.343C0.107,-0.365 0.106,-0.379 0.105,-0.384C0.104,-0.389 0.101,-0.393 0.097,-0.396C0.093,-0.398 0.084,-0.399 0.072,-0.399L0.031,-0.4L0.026,-0.404L0.026,-0.425L0.03,-0.429C0.092,-0.436 0.145,-0.448 0.188,-0.465Z" style="fill:rgb(35,31,32);fill-rule:nonzero;"/>
            </g>
            <g transform="matrix(37.5,0,0,37.5,410.947,594.704)">
                <path d="M0.167,-0.465L0.176,-0.459C0.174,-0.437 0.173,-0.409 0.172,-0.373C0.198,-0.395 0.223,-0.416 0.247,-0.438C0.253,-0.445 0.26,-0.449 0.266,-0.452C0.272,-0.455 0.282,-0.458 0.296,-0.461C0.31,-0.465 0.324,-0.466 0.339,-0.466C0.364,-0.466 0.388,-0.461 0.411,-0.451C0.434,-0.441 0.452,-0.429 0.464,-0.415C0.476,-0.401 0.484,-0.385 0.488,-0.366C0.493,-0.347 0.495,-0.324 0.495,-0.296L0.495,-0.21C0.495,-0.205 0.496,-0.164 0.498,-0.089C0.498,-0.058 0.502,-0.04 0.508,-0.034C0.514,-0.028 0.534,-0.025 0.568,-0.025L0.572,-0.021L0.572,-0L0.568,0.004C0.527,0.001 0.499,-0 0.484,-0C0.476,-0 0.452,0.001 0.413,0.004L0.407,-0.001C0.411,-0.044 0.414,-0.099 0.414,-0.167L0.414,-0.231C0.414,-0.269 0.413,-0.297 0.411,-0.314C0.409,-0.331 0.404,-0.346 0.395,-0.36C0.385,-0.374 0.373,-0.385 0.358,-0.392C0.343,-0.4 0.324,-0.404 0.303,-0.404C0.286,-0.404 0.272,-0.402 0.26,-0.399C0.248,-0.395 0.234,-0.388 0.219,-0.378C0.204,-0.367 0.193,-0.357 0.186,-0.348C0.179,-0.339 0.175,-0.33 0.173,-0.322C0.172,-0.314 0.171,-0.297 0.171,-0.271L0.171,-0.186C0.171,-0.179 0.172,-0.156 0.173,-0.117C0.174,-0.078 0.176,-0.055 0.177,-0.049C0.178,-0.042 0.181,-0.038 0.184,-0.035C0.187,-0.032 0.19,-0.03 0.194,-0.029C0.199,-0.028 0.216,-0.027 0.247,-0.025L0.251,-0.021L0.251,-0L0.248,0.004C0.207,0.001 0.168,-0 0.13,-0C0.092,-0 0.053,0.001 0.013,0.004L0.008,-0L0.008,-0.021L0.013,-0.025C0.044,-0.027 0.062,-0.028 0.066,-0.029C0.07,-0.03 0.074,-0.032 0.077,-0.035C0.08,-0.038 0.082,-0.043 0.083,-0.05C0.084,-0.056 0.086,-0.077 0.087,-0.113C0.089,-0.148 0.089,-0.175 0.089,-0.193L0.089,-0.29C0.089,-0.303 0.089,-0.32 0.087,-0.343C0.086,-0.365 0.085,-0.379 0.084,-0.384C0.083,-0.389 0.081,-0.393 0.077,-0.396C0.072,-0.398 0.064,-0.399 0.051,-0.399L0.01,-0.4L0.006,-0.404L0.006,-0.425L0.01,-0.429C0.072,-0.436 0.124,-0.448 0.167,-0.465Z" style="fill:rgb(35,31,32);fill-rule:nonzero;"/>
            </g>
            <g transform="matrix(37.5,0,0,37.5,432.773,594.704)">
                <path d="M0.432,-0.072L0.416,-0.037C0.382,-0.015 0.352,-0.001 0.325,0.006C0.299,0.012 0.275,0.016 0.254,0.016C0.215,0.016 0.178,0.008 0.143,-0.007C0.108,-0.023 0.08,-0.049 0.058,-0.085C0.036,-0.121 0.025,-0.165 0.025,-0.217C0.025,-0.251 0.029,-0.282 0.038,-0.309C0.046,-0.337 0.055,-0.357 0.064,-0.371C0.073,-0.384 0.089,-0.399 0.111,-0.415C0.133,-0.431 0.157,-0.444 0.182,-0.454C0.206,-0.464 0.233,-0.469 0.262,-0.469C0.301,-0.469 0.335,-0.46 0.365,-0.441C0.395,-0.423 0.416,-0.399 0.428,-0.371C0.44,-0.342 0.446,-0.312 0.446,-0.279C0.446,-0.269 0.445,-0.259 0.444,-0.25L0.439,-0.245C0.417,-0.24 0.387,-0.236 0.35,-0.235C0.312,-0.233 0.287,-0.232 0.275,-0.232L0.119,-0.232C0.119,-0.165 0.136,-0.115 0.169,-0.083C0.203,-0.052 0.243,-0.036 0.292,-0.036C0.314,-0.036 0.336,-0.04 0.357,-0.047C0.378,-0.055 0.4,-0.066 0.424,-0.08L0.432,-0.072ZM0.119,-0.271C0.125,-0.271 0.147,-0.269 0.186,-0.268C0.226,-0.267 0.255,-0.266 0.273,-0.266C0.319,-0.266 0.346,-0.267 0.356,-0.269C0.356,-0.276 0.356,-0.282 0.356,-0.287C0.356,-0.337 0.346,-0.375 0.326,-0.399C0.305,-0.424 0.277,-0.436 0.242,-0.436C0.203,-0.436 0.173,-0.422 0.151,-0.395C0.129,-0.367 0.119,-0.326 0.119,-0.271Z" style="fill:rgb(35,31,32);fill-rule:nonzero;"/>
            </g>
            <g transform="matrix(37.5,0,0,37.5,450.736,594.704)">
                <path d="M0.183,-0.723L0.192,-0.717C0.188,-0.68 0.187,-0.605 0.187,-0.492L0.187,-0.186C0.187,-0.179 0.187,-0.156 0.188,-0.117C0.19,-0.078 0.191,-0.055 0.193,-0.049C0.194,-0.042 0.196,-0.038 0.199,-0.035C0.202,-0.032 0.206,-0.03 0.21,-0.029C0.214,-0.028 0.232,-0.027 0.263,-0.025L0.267,-0.021L0.267,-0L0.263,0.004C0.222,0.001 0.183,-0 0.146,-0C0.108,-0 0.069,0.001 0.028,0.004L0.024,-0L0.024,-0.021L0.028,-0.025C0.06,-0.027 0.078,-0.028 0.082,-0.029C0.086,-0.03 0.089,-0.032 0.093,-0.035C0.096,-0.038 0.098,-0.043 0.099,-0.05C0.1,-0.056 0.101,-0.077 0.103,-0.113C0.104,-0.148 0.105,-0.175 0.105,-0.193L0.105,-0.446L0.103,-0.55C0.102,-0.586 0.101,-0.611 0.1,-0.625C0.099,-0.639 0.097,-0.647 0.095,-0.65C0.093,-0.653 0.09,-0.654 0.085,-0.656C0.08,-0.657 0.06,-0.658 0.026,-0.658L0.021,-0.662L0.021,-0.683L0.025,-0.687C0.088,-0.694 0.14,-0.706 0.183,-0.723Z" style="fill:rgb(35,31,32);fill-rule:nonzero;"/>
            </g>
            <g transform="matrix(37.5,0,0,37.5,461.649,594.704)">
                <path d="M0.049,-0.144L0.07,-0.144L0.075,-0.139C0.075,-0.112 0.077,-0.088 0.08,-0.069C0.09,-0.054 0.107,-0.041 0.132,-0.031C0.157,-0.022 0.181,-0.017 0.205,-0.017C0.24,-0.017 0.267,-0.026 0.288,-0.045C0.309,-0.063 0.319,-0.086 0.319,-0.111C0.319,-0.125 0.315,-0.137 0.308,-0.148C0.3,-0.158 0.289,-0.166 0.274,-0.173C0.259,-0.18 0.231,-0.188 0.192,-0.197C0.159,-0.205 0.135,-0.211 0.122,-0.215C0.109,-0.219 0.096,-0.227 0.083,-0.237C0.071,-0.248 0.062,-0.26 0.055,-0.276C0.049,-0.291 0.045,-0.307 0.045,-0.326C0.045,-0.369 0.063,-0.404 0.097,-0.43C0.132,-0.457 0.175,-0.47 0.227,-0.47C0.249,-0.47 0.273,-0.467 0.298,-0.461C0.324,-0.455 0.344,-0.449 0.357,-0.443L0.361,-0.437C0.359,-0.424 0.357,-0.389 0.356,-0.334L0.352,-0.33L0.333,-0.33L0.328,-0.334C0.327,-0.354 0.325,-0.368 0.323,-0.376C0.32,-0.384 0.315,-0.392 0.305,-0.402C0.296,-0.411 0.282,-0.419 0.265,-0.425C0.248,-0.431 0.23,-0.435 0.21,-0.435C0.191,-0.435 0.174,-0.432 0.16,-0.426C0.147,-0.42 0.136,-0.411 0.128,-0.399C0.119,-0.387 0.115,-0.373 0.115,-0.356C0.115,-0.344 0.118,-0.333 0.123,-0.323C0.128,-0.313 0.136,-0.305 0.146,-0.299C0.156,-0.293 0.167,-0.289 0.179,-0.286L0.232,-0.272C0.278,-0.261 0.31,-0.252 0.33,-0.244C0.35,-0.236 0.365,-0.223 0.375,-0.207C0.386,-0.19 0.392,-0.17 0.392,-0.147C0.392,-0.102 0.373,-0.063 0.336,-0.031C0.299,0.001 0.251,0.017 0.193,0.017C0.172,0.017 0.147,0.015 0.116,0.01C0.086,0.006 0.06,0.001 0.039,-0.005L0.036,-0.011L0.041,-0.044C0.043,-0.054 0.044,-0.064 0.044,-0.074C0.044,-0.085 0.045,-0.106 0.045,-0.139L0.049,-0.144Z" style="fill:rgb(35,31,32);fill-rule:nonzero;"/>
            </g>
        </g>
    </g>
</svg>
