<?xml version="1.0" encoding="UTF-8" standalone="no"?>
<!DOCTYPE svg PUBLIC "-//W3C//DTD SVG 1.1//EN" "http://www.w3.org/Graphics/SVG/1.1/DTD/svg11.dtd">
<svg width="100%" height="100%" viewBox="0 0 721 485" version="1.1" xmlns="http://www.w3.org/2000/svg" xmlns:xlink="http://www.w3.org/1999/xlink" xml:space="preserve" xmlns:serif="http://www.serif.com/" style="fill-rule:evenodd;clip-rule:evenodd;stroke-linecap:round;stroke-miterlimit:1.5;">
    <g transform="matrix(1,0,0,1,-146.367,-41.1683)">
        <g transform="matrix(0.648069,0,0,0.648069,51.5112,44.3569)">
            <rect x="146.367" y="126.038" width="118.415" height="118.415" style="fill:none;stroke:black;stroke-width:3.18px;"/>
        </g>
        <g transform="matrix(0.648069,0,0,0.648069,51.5112,121.098)">
            <rect x="146.367" y="126.038" width="118.415" height="118.415" style="fill:none;stroke:black;stroke-width:3.18px;"/>
        </g>
        <g transform="matrix(0.648069,0,0,0.648069,51.5112,197.839)">
            <rect x="146.367" y="126.038" width="118.415" height="118.415" style="fill:none;stroke:black;stroke-width:3.18px;"/>
        </g>
        <g transform="matrix(0.648069,0,0,0.648069,51.5112,274.58)">
            <rect x="146.367" y="126.038" width="118.415" height="118.415" style="fill:none;stroke:black;stroke-width:3.18px;"/>
        </g>
        <g transform="matrix(0.648069,0,0,0.648069,128.252,44.3569)">
            <rect x="146.367" y="126.038" width="118.415" height="118.415" style="fill:none;stroke:black;stroke-width:3.18px;"/>
        </g>
        <g transform="matrix(0.648069,0,0,0.648069,128.252,121.098)">
            <rect x="146.367" y="126.038" width="118.415" height="118.415" style="fill:none;stroke:black;stroke-width:3.18px;"/>
        </g>
        <g transform="matrix(0.648069,0,0,0.648069,128.252,197.839)">
            <rect x="146.367" y="126.038" width="118.415" height="118.415" style="fill:none;stroke:black;stroke-width:3.18px;"/>
        </g>
        <g transform="matrix(0.648069,0,0,0.648069,128.252,274.58)">
            <rect x="146.367" y="126.038" width="118.415" height="118.415" style="fill:none;stroke:black;stroke-width:3.18px;"/>
        </g>
        <g transform="matrix(0.648069,0,0,0.648069,204.994,44.3569)">
            <rect x="146.367" y="126.038" width="118.415" height="118.415" style="fill:none;stroke:black;stroke-width:3.18px;"/>
        </g>
        <g transform="matrix(0.648069,0,0,0.648069,204.994,121.098)">
            <rect x="146.367" y="126.038" width="118.415" height="118.415" style="fill:none;stroke:black;stroke-width:3.18px;"/>
        </g>
        <g transform="matrix(0.648069,0,0,0.648069,204.994,197.839)">
            <rect x="146.367" y="126.038" width="118.415" height="118.415" style="fill:none;stroke:black;stroke-width:3.18px;"/>
        </g>
        <g transform="matrix(0.648069,0,0,0.648069,204.994,274.58)">
            <rect x="146.367" y="126.038" width="118.415" height="118.415" style="fill:none;stroke:black;stroke-width:3.18px;"/>
        </g>
        <g transform="matrix(0.648069,0,0,0.648069,281.735,44.3569)">
            <rect x="146.367" y="126.038" width="118.415" height="118.415" style="fill:none;stroke:black;stroke-width:3.18px;"/>
        </g>
        <g transform="matrix(0.648069,0,0,0.648069,281.735,121.098)">
            <rect x="146.367" y="126.038" width="118.415" height="118.415" style="fill:none;stroke:black;stroke-width:3.18px;"/>
        </g>
        <g transform="matrix(0.648069,0,0,0.648069,281.735,197.839)">
            <rect x="146.367" y="126.038" width="118.415" height="118.415" style="fill:none;stroke:black;stroke-width:3.18px;"/>
        </g>
        <g transform="matrix(0.648069,0,0,0.648069,281.735,274.58)">
            <rect x="146.367" y="126.038" width="118.415" height="118.415" style="fill:none;stroke:black;stroke-width:3.18px;"/>
        </g>
    </g>
    <g transform="matrix(0.648069,0,0,0.648069,469.827,79.9298)">
        <rect x="146.367" y="126.038" width="118.415" height="118.415" style="fill:none;stroke:black;stroke-width:3.18px;"/>
    </g>
    <g transform="matrix(0.648069,0,0,0.648069,546.568,3.18863)">
        <rect x="146.367" y="126.038" width="118.415" height="118.415" style="fill:none;stroke:black;stroke-width:3.18px;"/>
    </g>
    <g transform="matrix(0.648069,0,0,0.648069,546.568,79.9298)">
        <rect x="146.367" y="126.038" width="118.415" height="118.415" style="fill:none;stroke:black;stroke-width:3.18px;"/>
    </g>
    <g transform="matrix(0.648069,0,0,0.648069,469.827,3.18863)">
        <rect x="146.367" y="126.038" width="118.415" height="118.415" style="fill:none;stroke:black;stroke-width:3.18px;"/>
    </g>
    <g id="Step4">
        <g transform="matrix(0.648069,0,0,0.648069,546.568,3.18863)">
            <rect x="146.367" y="126.038" width="118.415" height="118.415" style="fill:rgb(0,174,239);stroke:black;stroke-width:3.18px;"/>
        </g>
        <g transform="matrix(0.975308,0,0,0.976107,-140.805,-36.4107)">
            <rect x="146.367" y="126.038" width="153.482" height="153.482" style="fill:none;stroke:rgb(236,0,140);stroke-width:2.11px;"/>
        </g>
        <g transform="matrix(0.648069,0,0,0.648069,469.827,3.18863)">
            <rect x="146.367" y="126.038" width="118.415" height="118.415" style="fill:rgb(236,0,140);stroke:black;stroke-width:3.18px;"/>
        </g>
        <g transform="matrix(1,0,0,1,32.5707,-6.82076)">
            <g transform="matrix(37.5,0,0,37.5,376.591,33.9387)">
                <path d="M0.18,-0.465L0.189,-0.459C0.187,-0.438 0.186,-0.412 0.185,-0.382L0.231,-0.424C0.244,-0.436 0.253,-0.444 0.257,-0.448C0.262,-0.451 0.271,-0.455 0.287,-0.459C0.303,-0.464 0.319,-0.466 0.336,-0.466C0.369,-0.466 0.397,-0.458 0.422,-0.442C0.446,-0.426 0.464,-0.404 0.476,-0.375C0.52,-0.417 0.546,-0.44 0.553,-0.445C0.56,-0.449 0.572,-0.454 0.588,-0.459C0.604,-0.463 0.62,-0.466 0.636,-0.466C0.661,-0.466 0.685,-0.46 0.707,-0.449C0.728,-0.438 0.745,-0.424 0.758,-0.406C0.771,-0.388 0.778,-0.368 0.78,-0.348C0.782,-0.327 0.783,-0.298 0.783,-0.262L0.783,-0.21C0.783,-0.205 0.784,-0.164 0.786,-0.089C0.787,-0.058 0.79,-0.04 0.796,-0.034C0.803,-0.028 0.823,-0.025 0.856,-0.025L0.86,-0.021L0.86,-0L0.856,0.004C0.815,0.001 0.787,-0 0.772,-0C0.764,-0 0.741,0.001 0.702,0.004L0.695,-0.001C0.7,-0.044 0.702,-0.099 0.702,-0.167L0.702,-0.226C0.702,-0.277 0.699,-0.314 0.694,-0.334C0.689,-0.355 0.678,-0.372 0.66,-0.385C0.642,-0.398 0.621,-0.405 0.596,-0.405C0.579,-0.405 0.562,-0.401 0.547,-0.394C0.532,-0.387 0.518,-0.377 0.506,-0.363C0.493,-0.349 0.487,-0.336 0.485,-0.324C0.484,-0.313 0.483,-0.291 0.483,-0.259L0.483,-0.198C0.483,-0.183 0.484,-0.157 0.485,-0.117C0.487,-0.078 0.488,-0.055 0.49,-0.048C0.491,-0.042 0.493,-0.037 0.496,-0.034C0.499,-0.032 0.503,-0.03 0.507,-0.029C0.511,-0.028 0.529,-0.027 0.56,-0.025L0.564,-0.021L0.564,-0L0.56,0.004C0.519,0.001 0.48,-0 0.442,-0C0.408,-0 0.368,0.001 0.325,0.004L0.321,-0L0.321,-0.021L0.325,-0.025C0.357,-0.027 0.375,-0.028 0.379,-0.029C0.383,-0.03 0.386,-0.032 0.389,-0.035C0.392,-0.038 0.395,-0.043 0.396,-0.05C0.397,-0.056 0.398,-0.077 0.4,-0.113C0.401,-0.148 0.402,-0.175 0.402,-0.193L0.402,-0.249C0.402,-0.286 0.399,-0.314 0.394,-0.334C0.389,-0.354 0.378,-0.371 0.362,-0.384C0.345,-0.398 0.324,-0.405 0.299,-0.405C0.28,-0.405 0.262,-0.401 0.246,-0.393C0.23,-0.386 0.217,-0.376 0.206,-0.365C0.196,-0.354 0.19,-0.343 0.187,-0.333C0.185,-0.324 0.184,-0.303 0.184,-0.27L0.184,-0.198C0.184,-0.183 0.184,-0.157 0.186,-0.117C0.187,-0.078 0.188,-0.055 0.19,-0.048C0.191,-0.042 0.193,-0.037 0.197,-0.034C0.2,-0.032 0.203,-0.03 0.207,-0.029C0.211,-0.028 0.229,-0.027 0.26,-0.025L0.264,-0.021L0.264,-0L0.26,0.004C0.22,0.001 0.18,-0 0.143,-0C0.105,-0 0.066,0.001 0.025,0.004L0.021,-0L0.021,-0.021L0.025,-0.025C0.057,-0.027 0.075,-0.028 0.079,-0.029C0.083,-0.03 0.087,-0.032 0.09,-0.035C0.093,-0.038 0.095,-0.043 0.096,-0.05C0.097,-0.056 0.098,-0.077 0.1,-0.113C0.101,-0.148 0.102,-0.175 0.102,-0.193L0.102,-0.29C0.102,-0.303 0.101,-0.32 0.1,-0.343C0.099,-0.365 0.098,-0.379 0.097,-0.384C0.096,-0.389 0.094,-0.393 0.089,-0.396C0.085,-0.398 0.077,-0.399 0.064,-0.399L0.023,-0.4L0.019,-0.404L0.019,-0.425L0.022,-0.429C0.085,-0.436 0.137,-0.448 0.18,-0.465Z" style="fill-rule:nonzero;"/>
            </g>
            <g transform="matrix(37.5,0,0,37.5,409.696,33.9387)">
                <path d="M0.104,-0.331L0.084,-0.336L0.081,-0.341L0.081,-0.401C0.139,-0.444 0.195,-0.466 0.25,-0.466C0.287,-0.466 0.318,-0.459 0.343,-0.445C0.368,-0.431 0.385,-0.413 0.396,-0.392C0.408,-0.371 0.413,-0.347 0.413,-0.319L0.411,-0.221L0.411,-0.075C0.411,-0.055 0.412,-0.043 0.415,-0.039C0.418,-0.035 0.421,-0.032 0.424,-0.031C0.428,-0.029 0.435,-0.028 0.444,-0.027L0.472,-0.024L0.476,-0.02L0.476,-0L0.472,0.003C0.448,0.001 0.426,0 0.406,0C0.386,0 0.363,0.001 0.335,0.003L0.328,-0.003L0.33,-0.082L0.224,0.001C0.206,0.008 0.186,0.012 0.165,0.012C0.139,0.012 0.117,0.007 0.098,-0.002C0.079,-0.011 0.065,-0.025 0.055,-0.042C0.045,-0.058 0.04,-0.079 0.04,-0.103C0.04,-0.151 0.055,-0.188 0.085,-0.215C0.115,-0.242 0.197,-0.265 0.33,-0.284C0.33,-0.332 0.319,-0.366 0.298,-0.385C0.276,-0.405 0.248,-0.415 0.211,-0.415C0.193,-0.415 0.175,-0.412 0.16,-0.407C0.144,-0.401 0.136,-0.397 0.133,-0.393C0.131,-0.39 0.122,-0.37 0.107,-0.333L0.104,-0.331ZM0.33,-0.254C0.239,-0.239 0.182,-0.222 0.16,-0.205C0.137,-0.187 0.126,-0.16 0.126,-0.123C0.126,-0.072 0.151,-0.047 0.202,-0.047C0.245,-0.047 0.288,-0.072 0.33,-0.122L0.33,-0.254Z" style="fill-rule:nonzero;"/>
            </g>
            <g transform="matrix(37.5,0,0,37.5,428.446,33.9387)">
                <path d="M0.021,0.003L0.018,-0.001L0.018,-0.021L0.022,-0.024C0.034,-0.025 0.044,-0.027 0.052,-0.03C0.059,-0.033 0.068,-0.041 0.079,-0.052C0.09,-0.062 0.11,-0.085 0.137,-0.119L0.216,-0.216L0.174,-0.278C0.168,-0.287 0.155,-0.305 0.136,-0.332C0.117,-0.358 0.1,-0.378 0.087,-0.392C0.074,-0.405 0.065,-0.414 0.058,-0.417C0.052,-0.42 0.046,-0.422 0.039,-0.422C0.036,-0.422 0.032,-0.422 0.027,-0.421L0.022,-0.425L0.019,-0.444L0.022,-0.449C0.056,-0.453 0.092,-0.459 0.132,-0.468C0.155,-0.449 0.188,-0.406 0.232,-0.337L0.268,-0.28L0.299,-0.319C0.323,-0.35 0.356,-0.397 0.399,-0.458C0.414,-0.456 0.426,-0.455 0.436,-0.455C0.444,-0.455 0.455,-0.456 0.47,-0.458L0.474,-0.455L0.474,-0.435L0.47,-0.431C0.459,-0.43 0.451,-0.429 0.446,-0.426C0.441,-0.424 0.432,-0.417 0.419,-0.404C0.406,-0.391 0.389,-0.372 0.367,-0.345L0.338,-0.31C0.332,-0.303 0.326,-0.296 0.321,-0.289L0.291,-0.25L0.309,-0.222C0.317,-0.21 0.336,-0.183 0.367,-0.14C0.399,-0.097 0.42,-0.068 0.433,-0.053C0.445,-0.039 0.454,-0.031 0.46,-0.028C0.465,-0.026 0.474,-0.024 0.486,-0.024L0.49,-0.021L0.49,-0L0.486,0.003C0.462,0.001 0.444,-0 0.431,-0C0.427,-0 0.406,0.001 0.368,0.003C0.341,-0.03 0.315,-0.068 0.288,-0.109L0.238,-0.185C0.204,-0.146 0.159,-0.084 0.103,0.003C0.081,0.001 0.068,-0 0.063,-0C0.057,-0 0.043,0.001 0.021,0.003Z" style="fill-rule:nonzero;"/>
            </g>
            <g transform="matrix(37.5,0,0,37.5,447.8,33.9387)">
                <path d="M0.289,0.174C0.226,0.174 0.184,0.163 0.164,0.141C0.145,0.121 0.135,0.079 0.135,0.017L0.135,-0.152C0.135,-0.181 0.133,-0.202 0.129,-0.215C0.125,-0.229 0.117,-0.241 0.106,-0.251C0.093,-0.263 0.077,-0.269 0.058,-0.269L0.058,-0.281C0.088,-0.281 0.11,-0.293 0.122,-0.318C0.131,-0.336 0.135,-0.362 0.135,-0.394L0.135,-0.579C0.135,-0.607 0.138,-0.631 0.144,-0.65C0.153,-0.682 0.172,-0.703 0.2,-0.715C0.22,-0.723 0.25,-0.727 0.289,-0.727L0.289,-0.714C0.261,-0.714 0.241,-0.705 0.228,-0.687C0.215,-0.668 0.208,-0.637 0.208,-0.595L0.208,-0.41C0.208,-0.372 0.203,-0.343 0.193,-0.324C0.181,-0.301 0.158,-0.284 0.125,-0.274C0.159,-0.264 0.182,-0.248 0.194,-0.225C0.203,-0.206 0.208,-0.177 0.208,-0.137L0.208,0.044C0.208,0.105 0.222,0.143 0.25,0.156C0.259,0.16 0.272,0.162 0.289,0.162L0.289,0.174Z" style="fill-rule:nonzero;"/>
            </g>
            <g transform="matrix(37.5,0,0,37.5,488.413,33.9387)">
                <path d="M0.275,-0.269C0.257,-0.269 0.241,-0.263 0.228,-0.251C0.216,-0.241 0.208,-0.229 0.204,-0.215C0.2,-0.202 0.198,-0.181 0.198,-0.152L0.198,0.017C0.198,0.079 0.189,0.121 0.17,0.141C0.149,0.163 0.108,0.174 0.044,0.174L0.044,0.162C0.074,0.162 0.095,0.153 0.106,0.134C0.119,0.113 0.125,0.083 0.125,0.044L0.125,-0.137C0.125,-0.177 0.13,-0.206 0.14,-0.225C0.151,-0.248 0.174,-0.264 0.208,-0.274C0.175,-0.284 0.153,-0.301 0.14,-0.324C0.13,-0.343 0.125,-0.372 0.125,-0.41L0.125,-0.595C0.125,-0.637 0.119,-0.668 0.106,-0.687C0.093,-0.705 0.072,-0.714 0.044,-0.714L0.044,-0.727C0.084,-0.727 0.113,-0.723 0.133,-0.715C0.162,-0.703 0.181,-0.682 0.19,-0.65C0.195,-0.631 0.198,-0.607 0.198,-0.579L0.198,-0.394C0.198,-0.362 0.203,-0.336 0.212,-0.318C0.224,-0.293 0.245,-0.281 0.275,-0.281L0.275,-0.269Z" style="fill-rule:nonzero;"/>
            </g>
            <g transform="matrix(0.220791,0,0,0.220791,429.729,-18.0075)">
                <rect x="146.367" y="126.038" width="118.415" height="118.415" style="fill:none;stroke:rgb(0,174,239);stroke-width:9.32px;"/>
            </g>
        </g>
        <g transform="matrix(0.862495,0,0,1,37.7935,-41.1683)">
            <g transform="matrix(1.15943,-0,-0,1,-43.8188,41.1683)">
                <path d="M675.925,75.369L684.165,84.87L671.62,85.761L675.925,75.369Z" style="fill:rgb(0,174,239);"/>
                <path d="M230.223,84.87C230.223,84.87 483.958,4.61 675.851,81.426" style="fill:none;stroke:rgb(0,174,239);stroke-width:2.06px;"/>
            </g>
        </g>
        <g transform="matrix(0.975308,0,0,0.976107,12.625,-36.4107)">
            <rect x="146.367" y="126.038" width="153.482" height="153.482" style="fill:none;stroke:rgb(0,174,239);stroke-width:2.11px;"/>
        </g>
    </g>
    <g transform="matrix(1,0,0,1,-146.367,-94.0231)">
        <g transform="matrix(37.5,0,0,37.5,253.927,544.716)">
            <path d="M0.029,-0.69L0.09,-0.688C0.13,-0.687 0.156,-0.686 0.168,-0.686C0.18,-0.686 0.226,-0.687 0.309,-0.69L0.313,-0.687L0.313,-0.662L0.309,-0.659C0.286,-0.658 0.269,-0.657 0.257,-0.656C0.244,-0.654 0.236,-0.652 0.23,-0.648C0.224,-0.645 0.221,-0.636 0.219,-0.623C0.217,-0.61 0.216,-0.592 0.216,-0.568L0.215,-0.456L0.215,-0.23L0.216,-0.135C0.216,-0.098 0.217,-0.074 0.219,-0.063C0.22,-0.053 0.223,-0.046 0.226,-0.042C0.229,-0.038 0.235,-0.035 0.244,-0.033C0.252,-0.031 0.274,-0.029 0.309,-0.027L0.313,-0.024L0.313,-0L0.309,0.004C0.307,0.004 0.278,0.003 0.223,0.001C0.2,0 0.181,-0 0.168,-0C0.158,-0 0.112,0.001 0.029,0.004L0.025,-0L0.025,-0.024L0.029,-0.027C0.059,-0.029 0.079,-0.03 0.089,-0.032C0.099,-0.034 0.106,-0.037 0.11,-0.04C0.113,-0.043 0.116,-0.049 0.118,-0.06C0.12,-0.07 0.121,-0.092 0.122,-0.127L0.122,-0.23L0.122,-0.456L0.121,-0.551C0.121,-0.588 0.12,-0.612 0.118,-0.623C0.117,-0.634 0.115,-0.641 0.112,-0.645C0.108,-0.648 0.103,-0.651 0.094,-0.653C0.085,-0.656 0.063,-0.657 0.029,-0.659L0.025,-0.662L0.025,-0.687L0.029,-0.69Z" style="fill:rgb(35,31,32);fill-rule:nonzero;"/>
        </g>
        <g transform="matrix(37.5,0,0,37.5,266.561,544.716)">
            <path d="M0.167,-0.465L0.176,-0.459C0.174,-0.437 0.173,-0.409 0.172,-0.373C0.198,-0.395 0.223,-0.416 0.247,-0.438C0.253,-0.445 0.26,-0.449 0.266,-0.452C0.272,-0.455 0.282,-0.458 0.296,-0.461C0.31,-0.465 0.324,-0.466 0.339,-0.466C0.364,-0.466 0.388,-0.461 0.411,-0.451C0.434,-0.441 0.452,-0.429 0.464,-0.415C0.476,-0.401 0.484,-0.385 0.488,-0.366C0.493,-0.347 0.495,-0.324 0.495,-0.296L0.495,-0.21C0.495,-0.205 0.496,-0.164 0.498,-0.089C0.498,-0.058 0.502,-0.04 0.508,-0.034C0.514,-0.028 0.534,-0.025 0.568,-0.025L0.572,-0.021L0.572,-0L0.568,0.004C0.527,0.001 0.499,-0 0.484,-0C0.476,-0 0.452,0.001 0.413,0.004L0.407,-0.001C0.411,-0.044 0.414,-0.099 0.414,-0.167L0.414,-0.231C0.414,-0.269 0.413,-0.297 0.411,-0.314C0.409,-0.331 0.404,-0.346 0.395,-0.36C0.385,-0.374 0.373,-0.385 0.358,-0.392C0.343,-0.4 0.324,-0.404 0.303,-0.404C0.286,-0.404 0.272,-0.402 0.26,-0.399C0.248,-0.395 0.234,-0.388 0.219,-0.378C0.204,-0.367 0.193,-0.357 0.186,-0.348C0.179,-0.339 0.175,-0.33 0.173,-0.322C0.172,-0.314 0.171,-0.297 0.171,-0.271L0.171,-0.186C0.171,-0.179 0.172,-0.156 0.173,-0.117C0.174,-0.078 0.176,-0.055 0.177,-0.049C0.178,-0.042 0.181,-0.038 0.184,-0.035C0.187,-0.032 0.19,-0.03 0.194,-0.029C0.199,-0.028 0.216,-0.027 0.247,-0.025L0.251,-0.021L0.251,-0L0.248,0.004C0.207,0.001 0.168,-0 0.13,-0C0.092,-0 0.053,0.001 0.013,0.004L0.008,-0L0.008,-0.021L0.013,-0.025C0.044,-0.027 0.062,-0.028 0.066,-0.029C0.07,-0.03 0.074,-0.032 0.077,-0.035C0.08,-0.038 0.082,-0.043 0.083,-0.05C0.084,-0.056 0.086,-0.077 0.087,-0.113C0.089,-0.148 0.089,-0.175 0.089,-0.193L0.089,-0.29C0.089,-0.303 0.089,-0.32 0.087,-0.343C0.086,-0.365 0.085,-0.379 0.084,-0.384C0.083,-0.389 0.081,-0.393 0.077,-0.396C0.072,-0.398 0.064,-0.399 0.051,-0.399L0.01,-0.4L0.006,-0.404L0.006,-0.425L0.01,-0.429C0.072,-0.436 0.124,-0.448 0.167,-0.465Z" style="fill:rgb(35,31,32);fill-rule:nonzero;"/>
        </g>
        <g transform="matrix(37.5,0,0,37.5,288.387,544.716)">
            <path d="M0.181,-0.471L0.19,-0.465C0.187,-0.428 0.185,-0.395 0.185,-0.367C0.229,-0.407 0.26,-0.434 0.277,-0.447C0.295,-0.46 0.325,-0.466 0.367,-0.466C0.394,-0.466 0.418,-0.463 0.44,-0.455C0.462,-0.448 0.482,-0.436 0.5,-0.419C0.519,-0.402 0.534,-0.381 0.544,-0.356C0.555,-0.331 0.561,-0.302 0.561,-0.269C0.561,-0.245 0.557,-0.221 0.549,-0.197C0.542,-0.173 0.532,-0.151 0.52,-0.13C0.508,-0.11 0.498,-0.096 0.49,-0.09C0.483,-0.083 0.468,-0.073 0.445,-0.06C0.425,-0.047 0.404,-0.034 0.384,-0.02C0.37,-0.009 0.361,-0.003 0.355,-0C0.349,0.003 0.34,0.006 0.327,0.009C0.314,0.012 0.3,0.013 0.286,0.013C0.252,0.013 0.218,0.005 0.185,-0.013L0.185,0.091C0.185,0.098 0.185,0.122 0.187,0.16C0.188,0.199 0.189,0.222 0.191,0.229C0.192,0.235 0.194,0.24 0.197,0.243C0.2,0.246 0.204,0.247 0.208,0.248C0.212,0.249 0.23,0.25 0.261,0.252L0.265,0.256L0.265,0.277L0.261,0.281C0.221,0.279 0.181,0.277 0.144,0.277C0.107,0.277 0.068,0.279 0.027,0.281L0.022,0.277L0.022,0.256L0.027,0.252C0.058,0.25 0.076,0.249 0.08,0.248C0.084,0.247 0.088,0.245 0.091,0.242C0.094,0.239 0.096,0.234 0.097,0.227C0.099,0.22 0.1,0.198 0.101,0.162C0.103,0.125 0.104,0.097 0.104,0.079L0.104,-0.295C0.104,-0.312 0.103,-0.332 0.101,-0.354C0.1,-0.377 0.099,-0.389 0.098,-0.393C0.097,-0.397 0.094,-0.4 0.091,-0.402C0.087,-0.404 0.078,-0.405 0.065,-0.405L0.024,-0.406L0.02,-0.41L0.02,-0.431L0.024,-0.435C0.086,-0.442 0.138,-0.454 0.181,-0.471ZM0.185,-0.097C0.2,-0.081 0.218,-0.068 0.24,-0.057C0.262,-0.046 0.287,-0.04 0.313,-0.04C0.345,-0.04 0.373,-0.048 0.397,-0.064C0.421,-0.08 0.44,-0.103 0.454,-0.134C0.467,-0.165 0.474,-0.199 0.474,-0.236C0.474,-0.267 0.468,-0.295 0.456,-0.321C0.444,-0.347 0.426,-0.367 0.401,-0.382C0.376,-0.397 0.349,-0.405 0.321,-0.405C0.304,-0.405 0.287,-0.402 0.271,-0.396C0.255,-0.39 0.24,-0.381 0.225,-0.369C0.211,-0.357 0.201,-0.346 0.195,-0.336C0.189,-0.325 0.185,-0.316 0.185,-0.309C0.185,-0.302 0.185,-0.295 0.185,-0.286L0.185,-0.097Z" style="fill:rgb(35,31,32);fill-rule:nonzero;"/>
        </g>
        <g transform="matrix(37.5,0,0,37.5,310.927,544.716)">
            <path d="M0.169,-0.465L0.178,-0.459C0.175,-0.416 0.173,-0.362 0.173,-0.296L0.173,-0.183C0.173,-0.141 0.176,-0.112 0.182,-0.096C0.189,-0.079 0.2,-0.067 0.215,-0.058C0.231,-0.05 0.25,-0.045 0.271,-0.045C0.295,-0.045 0.316,-0.05 0.336,-0.059C0.355,-0.069 0.372,-0.082 0.385,-0.099C0.398,-0.116 0.406,-0.127 0.408,-0.133C0.41,-0.139 0.411,-0.155 0.412,-0.182L0.413,-0.237L0.413,-0.29C0.413,-0.303 0.412,-0.32 0.411,-0.343C0.41,-0.365 0.409,-0.379 0.408,-0.384C0.407,-0.389 0.405,-0.393 0.4,-0.396C0.396,-0.398 0.388,-0.399 0.375,-0.399L0.334,-0.4L0.33,-0.404L0.33,-0.425L0.333,-0.429C0.396,-0.436 0.448,-0.448 0.491,-0.465L0.5,-0.459C0.496,-0.416 0.495,-0.362 0.495,-0.296L0.495,-0.21C0.495,-0.206 0.495,-0.166 0.497,-0.091C0.498,-0.063 0.499,-0.046 0.502,-0.04C0.505,-0.034 0.509,-0.03 0.514,-0.028C0.519,-0.025 0.533,-0.024 0.557,-0.024L0.571,-0.024L0.575,-0.02L0.575,-0L0.571,0.004C0.525,0.001 0.495,-0 0.479,-0C0.459,-0 0.436,0.001 0.41,0.003L0.406,-0C0.408,-0.034 0.409,-0.062 0.41,-0.085C0.39,-0.069 0.366,-0.048 0.34,-0.021C0.33,-0.011 0.315,-0.002 0.296,0.004C0.278,0.011 0.256,0.015 0.232,0.015C0.195,0.015 0.167,0.009 0.147,-0.003C0.126,-0.014 0.112,-0.03 0.104,-0.051C0.095,-0.071 0.091,-0.106 0.091,-0.156L0.091,-0.194L0.091,-0.29C0.091,-0.303 0.091,-0.32 0.089,-0.343C0.088,-0.365 0.087,-0.379 0.086,-0.384C0.085,-0.389 0.083,-0.393 0.079,-0.396C0.074,-0.398 0.066,-0.399 0.053,-0.399L0.012,-0.4L0.008,-0.404L0.008,-0.425L0.012,-0.429C0.074,-0.436 0.126,-0.448 0.169,-0.465Z" style="fill:rgb(35,31,32);fill-rule:nonzero;"/>
        </g>
        <g transform="matrix(37.5,0,0,37.5,333.541,544.716)">
            <path d="M0.022,-0.383L0.022,-0.396L0.026,-0.401C0.056,-0.412 0.081,-0.423 0.1,-0.433C0.1,-0.518 0.099,-0.567 0.097,-0.581C0.131,-0.593 0.158,-0.605 0.18,-0.619L0.191,-0.609C0.188,-0.588 0.184,-0.529 0.18,-0.43C0.196,-0.43 0.214,-0.43 0.232,-0.43C0.271,-0.43 0.298,-0.431 0.315,-0.433L0.318,-0.429L0.309,-0.388L0.305,-0.384C0.289,-0.384 0.27,-0.384 0.25,-0.384C0.232,-0.384 0.208,-0.384 0.18,-0.384L0.177,-0.185C0.177,-0.139 0.178,-0.109 0.18,-0.095C0.182,-0.081 0.188,-0.07 0.198,-0.062C0.207,-0.054 0.221,-0.05 0.24,-0.05C0.262,-0.05 0.282,-0.056 0.301,-0.067L0.313,-0.049C0.305,-0.044 0.286,-0.028 0.256,-0C0.239,0.007 0.222,0.011 0.205,0.011C0.131,0.011 0.095,-0.024 0.095,-0.095C0.095,-0.121 0.095,-0.143 0.097,-0.162C0.097,-0.167 0.097,-0.173 0.097,-0.179L0.097,-0.381L0.077,-0.381C0.063,-0.381 0.046,-0.381 0.027,-0.379L0.022,-0.383Z" style="fill:rgb(35,31,32);fill-rule:nonzero;"/>
        </g>
    </g>
    <g transform="matrix(1,0,0,1,418.316,-94.0231)">
        <g transform="matrix(37.5,0,0,37.5,162.253,544.716)">
            <path d="M0.023,-0.336C0.023,-0.385 0.03,-0.431 0.044,-0.473C0.058,-0.515 0.082,-0.555 0.116,-0.591C0.15,-0.627 0.19,-0.654 0.238,-0.674C0.285,-0.694 0.339,-0.704 0.399,-0.704C0.51,-0.704 0.598,-0.673 0.664,-0.613C0.73,-0.553 0.763,-0.47 0.763,-0.366C0.763,-0.292 0.747,-0.226 0.714,-0.167C0.682,-0.109 0.636,-0.063 0.576,-0.031C0.516,0.002 0.448,0.018 0.374,0.018C0.32,0.018 0.272,0.009 0.227,-0.009C0.182,-0.026 0.144,-0.053 0.113,-0.088C0.082,-0.123 0.059,-0.164 0.045,-0.21C0.031,-0.256 0.023,-0.298 0.023,-0.336ZM0.125,-0.369C0.125,-0.329 0.131,-0.286 0.144,-0.24C0.157,-0.195 0.176,-0.156 0.202,-0.123C0.227,-0.09 0.257,-0.066 0.29,-0.05C0.324,-0.034 0.362,-0.026 0.404,-0.026C0.455,-0.026 0.5,-0.037 0.539,-0.061C0.578,-0.084 0.608,-0.12 0.629,-0.168C0.649,-0.217 0.66,-0.271 0.66,-0.332C0.66,-0.398 0.648,-0.457 0.625,-0.51C0.601,-0.563 0.568,-0.602 0.524,-0.626C0.481,-0.65 0.433,-0.662 0.38,-0.662C0.301,-0.662 0.239,-0.637 0.193,-0.588C0.148,-0.538 0.125,-0.465 0.125,-0.369Z" style="fill:rgb(35,31,32);fill-rule:nonzero;"/>
        </g>
        <g transform="matrix(37.5,0,0,37.5,191.733,544.716)">
            <path d="M0.169,-0.465L0.178,-0.459C0.175,-0.416 0.173,-0.362 0.173,-0.296L0.173,-0.183C0.173,-0.141 0.176,-0.112 0.182,-0.096C0.189,-0.079 0.2,-0.067 0.215,-0.058C0.231,-0.05 0.25,-0.045 0.271,-0.045C0.295,-0.045 0.316,-0.05 0.336,-0.059C0.355,-0.069 0.372,-0.082 0.385,-0.099C0.398,-0.116 0.406,-0.127 0.408,-0.133C0.41,-0.139 0.411,-0.155 0.412,-0.182L0.413,-0.237L0.413,-0.29C0.413,-0.303 0.412,-0.32 0.411,-0.343C0.41,-0.365 0.409,-0.379 0.408,-0.384C0.407,-0.389 0.405,-0.393 0.4,-0.396C0.396,-0.398 0.388,-0.399 0.375,-0.399L0.334,-0.4L0.33,-0.404L0.33,-0.425L0.333,-0.429C0.396,-0.436 0.448,-0.448 0.491,-0.465L0.5,-0.459C0.496,-0.416 0.495,-0.362 0.495,-0.296L0.495,-0.21C0.495,-0.206 0.495,-0.166 0.497,-0.091C0.498,-0.063 0.499,-0.046 0.502,-0.04C0.505,-0.034 0.509,-0.03 0.514,-0.028C0.519,-0.025 0.533,-0.024 0.557,-0.024L0.571,-0.024L0.575,-0.02L0.575,-0L0.571,0.004C0.525,0.001 0.495,-0 0.479,-0C0.459,-0 0.436,0.001 0.41,0.003L0.406,-0C0.408,-0.034 0.409,-0.062 0.41,-0.085C0.39,-0.069 0.366,-0.048 0.34,-0.021C0.33,-0.011 0.315,-0.002 0.296,0.004C0.278,0.011 0.256,0.015 0.232,0.015C0.195,0.015 0.167,0.009 0.147,-0.003C0.126,-0.014 0.112,-0.03 0.104,-0.051C0.095,-0.071 0.091,-0.106 0.091,-0.156L0.091,-0.194L0.091,-0.29C0.091,-0.303 0.091,-0.32 0.089,-0.343C0.088,-0.365 0.087,-0.379 0.086,-0.384C0.085,-0.389 0.083,-0.393 0.079,-0.396C0.074,-0.398 0.066,-0.399 0.053,-0.399L0.012,-0.4L0.008,-0.404L0.008,-0.425L0.012,-0.429C0.074,-0.436 0.126,-0.448 0.169,-0.465Z" style="fill:rgb(35,31,32);fill-rule:nonzero;"/>
        </g>
        <g transform="matrix(37.5,0,0,37.5,214.347,544.716)">
            <path d="M0.022,-0.383L0.022,-0.396L0.026,-0.401C0.056,-0.412 0.081,-0.423 0.1,-0.433C0.1,-0.518 0.099,-0.567 0.097,-0.581C0.131,-0.593 0.158,-0.605 0.18,-0.619L0.191,-0.609C0.188,-0.588 0.184,-0.529 0.18,-0.43C0.196,-0.43 0.214,-0.43 0.232,-0.43C0.271,-0.43 0.298,-0.431 0.315,-0.433L0.318,-0.429L0.309,-0.388L0.305,-0.384C0.289,-0.384 0.27,-0.384 0.25,-0.384C0.232,-0.384 0.208,-0.384 0.18,-0.384L0.177,-0.185C0.177,-0.139 0.178,-0.109 0.18,-0.095C0.182,-0.081 0.188,-0.07 0.198,-0.062C0.207,-0.054 0.221,-0.05 0.24,-0.05C0.262,-0.05 0.282,-0.056 0.301,-0.067L0.313,-0.049C0.305,-0.044 0.286,-0.028 0.256,-0C0.239,0.007 0.222,0.011 0.205,0.011C0.131,0.011 0.095,-0.024 0.095,-0.095C0.095,-0.121 0.095,-0.143 0.097,-0.162C0.097,-0.167 0.097,-0.173 0.097,-0.179L0.097,-0.381L0.077,-0.381C0.063,-0.381 0.046,-0.381 0.027,-0.379L0.022,-0.383Z" style="fill:rgb(35,31,32);fill-rule:nonzero;"/>
        </g>
        <g transform="matrix(37.5,0,0,37.5,226.578,544.716)">
            <path d="M0.181,-0.471L0.19,-0.465C0.187,-0.428 0.185,-0.395 0.185,-0.367C0.229,-0.407 0.26,-0.434 0.277,-0.447C0.295,-0.46 0.325,-0.466 0.367,-0.466C0.394,-0.466 0.418,-0.463 0.44,-0.455C0.462,-0.448 0.482,-0.436 0.5,-0.419C0.519,-0.402 0.534,-0.381 0.544,-0.356C0.555,-0.331 0.561,-0.302 0.561,-0.269C0.561,-0.245 0.557,-0.221 0.549,-0.197C0.542,-0.173 0.532,-0.151 0.52,-0.13C0.508,-0.11 0.498,-0.096 0.49,-0.09C0.483,-0.083 0.468,-0.073 0.445,-0.06C0.425,-0.047 0.404,-0.034 0.384,-0.02C0.37,-0.009 0.361,-0.003 0.355,-0C0.349,0.003 0.34,0.006 0.327,0.009C0.314,0.012 0.3,0.013 0.286,0.013C0.252,0.013 0.218,0.005 0.185,-0.013L0.185,0.091C0.185,0.098 0.185,0.122 0.187,0.16C0.188,0.199 0.189,0.222 0.191,0.229C0.192,0.235 0.194,0.24 0.197,0.243C0.2,0.246 0.204,0.247 0.208,0.248C0.212,0.249 0.23,0.25 0.261,0.252L0.265,0.256L0.265,0.277L0.261,0.281C0.221,0.279 0.181,0.277 0.144,0.277C0.107,0.277 0.068,0.279 0.027,0.281L0.022,0.277L0.022,0.256L0.027,0.252C0.058,0.25 0.076,0.249 0.08,0.248C0.084,0.247 0.088,0.245 0.091,0.242C0.094,0.239 0.096,0.234 0.097,0.227C0.099,0.22 0.1,0.198 0.101,0.162C0.103,0.125 0.104,0.097 0.104,0.079L0.104,-0.295C0.104,-0.312 0.103,-0.332 0.101,-0.354C0.1,-0.377 0.099,-0.389 0.098,-0.393C0.097,-0.397 0.094,-0.4 0.091,-0.402C0.087,-0.404 0.078,-0.405 0.065,-0.405L0.024,-0.406L0.02,-0.41L0.02,-0.431L0.024,-0.435C0.086,-0.442 0.138,-0.454 0.181,-0.471ZM0.185,-0.097C0.2,-0.081 0.218,-0.068 0.24,-0.057C0.262,-0.046 0.287,-0.04 0.313,-0.04C0.345,-0.04 0.373,-0.048 0.397,-0.064C0.421,-0.08 0.44,-0.103 0.454,-0.134C0.467,-0.165 0.474,-0.199 0.474,-0.236C0.474,-0.267 0.468,-0.295 0.456,-0.321C0.444,-0.347 0.426,-0.367 0.401,-0.382C0.376,-0.397 0.349,-0.405 0.321,-0.405C0.304,-0.405 0.287,-0.402 0.271,-0.396C0.255,-0.39 0.24,-0.381 0.225,-0.369C0.211,-0.357 0.201,-0.346 0.195,-0.336C0.189,-0.325 0.185,-0.316 0.185,-0.309C0.185,-0.302 0.185,-0.295 0.185,-0.286L0.185,-0.097Z" style="fill:rgb(35,31,32);fill-rule:nonzero;"/>
        </g>
        <g transform="matrix(37.5,0,0,37.5,249.119,544.716)">
            <path d="M0.169,-0.465L0.178,-0.459C0.175,-0.416 0.173,-0.362 0.173,-0.296L0.173,-0.183C0.173,-0.141 0.176,-0.112 0.182,-0.096C0.189,-0.079 0.2,-0.067 0.215,-0.058C0.231,-0.05 0.25,-0.045 0.271,-0.045C0.295,-0.045 0.316,-0.05 0.336,-0.059C0.355,-0.069 0.372,-0.082 0.385,-0.099C0.398,-0.116 0.406,-0.127 0.408,-0.133C0.41,-0.139 0.411,-0.155 0.412,-0.182L0.413,-0.237L0.413,-0.29C0.413,-0.303 0.412,-0.32 0.411,-0.343C0.41,-0.365 0.409,-0.379 0.408,-0.384C0.407,-0.389 0.405,-0.393 0.4,-0.396C0.396,-0.398 0.388,-0.399 0.375,-0.399L0.334,-0.4L0.33,-0.404L0.33,-0.425L0.333,-0.429C0.396,-0.436 0.448,-0.448 0.491,-0.465L0.5,-0.459C0.496,-0.416 0.495,-0.362 0.495,-0.296L0.495,-0.21C0.495,-0.206 0.495,-0.166 0.497,-0.091C0.498,-0.063 0.499,-0.046 0.502,-0.04C0.505,-0.034 0.509,-0.03 0.514,-0.028C0.519,-0.025 0.533,-0.024 0.557,-0.024L0.571,-0.024L0.575,-0.02L0.575,-0L0.571,0.004C0.525,0.001 0.495,-0 0.479,-0C0.459,-0 0.436,0.001 0.41,0.003L0.406,-0C0.408,-0.034 0.409,-0.062 0.41,-0.085C0.39,-0.069 0.366,-0.048 0.34,-0.021C0.33,-0.011 0.315,-0.002 0.296,0.004C0.278,0.011 0.256,0.015 0.232,0.015C0.195,0.015 0.167,0.009 0.147,-0.003C0.126,-0.014 0.112,-0.03 0.104,-0.051C0.095,-0.071 0.091,-0.106 0.091,-0.156L0.091,-0.194L0.091,-0.29C0.091,-0.303 0.091,-0.32 0.089,-0.343C0.088,-0.365 0.087,-0.379 0.086,-0.384C0.085,-0.389 0.083,-0.393 0.079,-0.396C0.074,-0.398 0.066,-0.399 0.053,-0.399L0.012,-0.4L0.008,-0.404L0.008,-0.425L0.012,-0.429C0.074,-0.436 0.126,-0.448 0.169,-0.465Z" style="fill:rgb(35,31,32);fill-rule:nonzero;"/>
        </g>
        <g transform="matrix(37.5,0,0,37.5,271.732,544.716)">
            <path d="M0.022,-0.383L0.022,-0.396L0.026,-0.401C0.056,-0.412 0.081,-0.423 0.1,-0.433C0.1,-0.518 0.099,-0.567 0.097,-0.581C0.131,-0.593 0.158,-0.605 0.18,-0.619L0.191,-0.609C0.188,-0.588 0.184,-0.529 0.18,-0.43C0.196,-0.43 0.214,-0.43 0.232,-0.43C0.271,-0.43 0.298,-0.431 0.315,-0.433L0.318,-0.429L0.309,-0.388L0.305,-0.384C0.289,-0.384 0.27,-0.384 0.25,-0.384C0.232,-0.384 0.208,-0.384 0.18,-0.384L0.177,-0.185C0.177,-0.139 0.178,-0.109 0.18,-0.095C0.182,-0.081 0.188,-0.07 0.198,-0.062C0.207,-0.054 0.221,-0.05 0.24,-0.05C0.262,-0.05 0.282,-0.056 0.301,-0.067L0.313,-0.049C0.305,-0.044 0.286,-0.028 0.256,-0C0.239,0.007 0.222,0.011 0.205,0.011C0.131,0.011 0.095,-0.024 0.095,-0.095C0.095,-0.121 0.095,-0.143 0.097,-0.162C0.097,-0.167 0.097,-0.173 0.097,-0.179L0.097,-0.381L0.077,-0.381C0.063,-0.381 0.046,-0.381 0.027,-0.379L0.022,-0.383Z" style="fill:rgb(35,31,32);fill-rule:nonzero;"/>
        </g>
    </g>
</svg>
