<?xml version="1.0" encoding="UTF-8" standalone="no"?>
<!DOCTYPE svg PUBLIC "-//W3C//DTD SVG 1.1//EN" "http://www.w3.org/Graphics/SVG/1.1/DTD/svg11.dtd">
<svg width="100%" height="100%" viewBox="0 0 449 455" version="1.1" xmlns="http://www.w3.org/2000/svg" xmlns:xlink="http://www.w3.org/1999/xlink" xml:space="preserve" xmlns:serif="http://www.serif.com/" style="fill-rule:evenodd;clip-rule:evenodd;stroke-linecap:round;stroke-linejoin:round;stroke-miterlimit:1.5;">
    <rect x="148.96" y="62.613" width="235.052" height="52.093" style="fill:none;stroke:black;stroke-width:2.21px;"/>
    <rect x="148.96" y="259.851" width="235.052" height="52.093" style="fill:none;stroke:black;stroke-width:2.21px;"/>
    <g transform="matrix(1,0,0,1,-129.799,-80.9594)">
        <g transform="matrix(37.5,0,0,37.5,339.064,182.136)">
            <path d="M0.018,-0.687l0.004,-0.003c0.081,0.003 0.127,0.004 0.14,0.004c0.011,-0 0.057,-0.001 0.14,-0.004l0.004,0.003l-0,0.025l-0.004,0.003c-0.023,0.001 -0.04,0.002 -0.052,0.003c-0.012,0.002 -0.021,0.004 -0.027,0.008c-0.005,0.003 -0.009,0.012 -0.011,0.025c-0.002,0.013 -0.003,0.031 -0.003,0.055l-0.001,0.112l0,0.216c0,0.054 0.001,0.092 0.001,0.113l0.003,0.085l0.1,-0c0.079,-0 0.129,-0.001 0.148,-0.003c0.02,-0.002 0.039,-0.007 0.057,-0.015c0.004,-0.008 0.009,-0.026 0.015,-0.056c0.007,-0.029 0.011,-0.046 0.011,-0.051l0.004,-0.003l0.024,-0l0.004,0.003c-0.003,0.014 -0.006,0.039 -0.008,0.076c-0.003,0.038 -0.005,0.068 -0.005,0.091l-0.003,0.004c-0.062,-0.002 -0.143,-0.003 -0.244,-0.003l-0.143,-0.001c-0.032,-0 -0.065,0.001 -0.099,0.004l-0.004,-0.004l-0,-0.016l0.004,-0.005c0.02,-0.01 0.031,-0.017 0.033,-0.019c0.002,-0.002 0.004,-0.023 0.006,-0.063c0.002,-0.04 0.003,-0.088 0.003,-0.144l0,-0.209l-0.001,-0.095c-0,-0.037 -0.001,-0.061 -0.002,-0.072c-0.002,-0.011 -0.004,-0.018 -0.007,-0.022c-0.003,-0.003 -0.009,-0.006 -0.018,-0.008c-0.009,-0.003 -0.031,-0.004 -0.065,-0.006l-0.004,-0.003l0,-0.025Z" style="fill-rule:nonzero;"/>
        </g>
        <g transform="matrix(37.5,0,0,37.5,361.97,182.136)">
            <path d="M0.104,-0.331l-0.02,-0.005l-0.003,-0.005l-0,-0.06c0.058,-0.043 0.114,-0.065 0.169,-0.065c0.037,0 0.068,0.007 0.093,0.021c0.025,0.014 0.042,0.032 0.053,0.053c0.012,0.021 0.017,0.045 0.017,0.073l-0.002,0.098l-0,0.146c-0,0.02 0.001,0.032 0.004,0.036c0.003,0.004 0.006,0.007 0.009,0.008c0.004,0.002 0.011,0.003 0.02,0.004l0.028,0.003l0.004,0.004l0,0.02l-0.004,0.003c-0.024,-0.002 -0.046,-0.003 -0.066,-0.003c-0.02,0 -0.043,0.001 -0.071,0.003l-0.007,-0.006l0.002,-0.079l-0.106,0.083c-0.018,0.007 -0.038,0.011 -0.059,0.011c-0.026,0 -0.048,-0.005 -0.067,-0.014c-0.019,-0.009 -0.033,-0.023 -0.043,-0.04c-0.01,-0.016 -0.015,-0.037 -0.015,-0.061c0,-0.048 0.015,-0.085 0.045,-0.112c0.03,-0.027 0.112,-0.05 0.245,-0.069c0,-0.048 -0.011,-0.082 -0.032,-0.101c-0.022,-0.02 -0.05,-0.03 -0.087,-0.03c-0.018,-0 -0.036,0.003 -0.051,0.008c-0.016,0.006 -0.024,0.01 -0.027,0.014c-0.002,0.003 -0.011,0.023 -0.026,0.06l-0.003,0.002Zm0.226,0.077c-0.091,0.015 -0.148,0.032 -0.17,0.049c-0.023,0.018 -0.034,0.045 -0.034,0.082c-0,0.051 0.025,0.076 0.076,0.076c0.043,0 0.086,-0.025 0.128,-0.075l0,-0.132Z" style="fill-rule:nonzero;"/>
        </g>
        <g transform="matrix(37.5,0,0,37.5,380.72,182.136)">
            <path d="M0.022,0.265c0.011,-0.027 0.019,-0.052 0.025,-0.075l0.012,-0c0.016,0.017 0.033,0.026 0.051,0.026c0.023,-0 0.044,-0.012 0.061,-0.035c0.017,-0.023 0.041,-0.073 0.072,-0.152c-0.012,-0.035 -0.025,-0.067 -0.037,-0.098l-0.078,-0.193c-0.008,-0.02 -0.02,-0.048 -0.036,-0.085c-0.016,-0.037 -0.026,-0.057 -0.029,-0.061c-0.003,-0.004 -0.007,-0.007 -0.012,-0.01c-0.005,-0.004 -0.018,-0.007 -0.039,-0.01l-0.004,-0.004l-0,-0.019l0.004,-0.004c0.038,0.002 0.076,0.003 0.115,0.003c0.047,0 0.082,-0.001 0.107,-0.003l0.004,0.004l0,0.019l-0.003,0.004c-0.004,0.001 -0.014,0.001 -0.03,0.002c-0.017,0.002 -0.027,0.004 -0.031,0.008c-0.004,0.004 -0.006,0.009 -0.006,0.014c-0,0.006 0.005,0.024 0.015,0.054c0.01,0.031 0.02,0.058 0.029,0.081l0.031,0.076c0.02,0.05 0.036,0.087 0.047,0.111l0.026,-0.057c0.009,-0.021 0.022,-0.053 0.039,-0.095l0.041,-0.103c0.01,-0.027 0.016,-0.044 0.017,-0.05c0.002,-0.007 0.003,-0.011 0.003,-0.014c-0,-0.008 -0.003,-0.012 -0.008,-0.015c-0.005,-0.003 -0.017,-0.005 -0.035,-0.007l-0.02,-0.003l-0.004,-0.004l0,-0.021l0.004,-0.004c0.027,0.002 0.06,0.003 0.097,0.003c0.034,0 0.062,-0.001 0.082,-0.003l0.004,0.004l0,0.021l-0.004,0.004c-0.012,0.001 -0.021,0.002 -0.029,0.005c-0.007,0.003 -0.014,0.008 -0.02,0.016c-0.007,0.007 -0.018,0.028 -0.035,0.063c-0.017,0.035 -0.034,0.071 -0.051,0.108l-0.048,0.105l-0.113,0.263c-0.009,0.023 -0.022,0.047 -0.036,0.074c-0.015,0.026 -0.032,0.044 -0.053,0.056c-0.021,0.011 -0.043,0.017 -0.067,0.017c-0.02,0 -0.04,-0.005 -0.058,-0.016Z" style="fill-rule:nonzero;"/>
        </g>
        <g transform="matrix(37.5,0,0,37.5,400.935,182.136)">
            <path d="M0.432,-0.072l-0.016,0.035c-0.034,0.022 -0.064,0.036 -0.091,0.043c-0.026,0.006 -0.05,0.01 -0.071,0.01c-0.039,-0 -0.076,-0.008 -0.111,-0.023c-0.035,-0.016 -0.063,-0.042 -0.085,-0.078c-0.022,-0.036 -0.033,-0.08 -0.033,-0.132c-0,-0.034 0.004,-0.065 0.013,-0.092c0.008,-0.028 0.017,-0.048 0.026,-0.062c0.009,-0.013 0.025,-0.028 0.047,-0.044c0.022,-0.016 0.046,-0.029 0.071,-0.039c0.024,-0.01 0.051,-0.015 0.08,-0.015c0.039,0 0.073,0.009 0.103,0.028c0.03,0.018 0.051,0.042 0.063,0.07c0.012,0.029 0.018,0.059 0.018,0.092c-0,0.01 -0.001,0.02 -0.002,0.029l-0.005,0.005c-0.022,0.005 -0.052,0.009 -0.089,0.01c-0.038,0.002 -0.063,0.003 -0.075,0.003l-0.156,-0c0,0.067 0.017,0.117 0.05,0.149c0.034,0.031 0.074,0.047 0.123,0.047c0.022,0 0.044,-0.004 0.065,-0.011c0.021,-0.008 0.043,-0.019 0.067,-0.033l0.008,0.008Zm-0.313,-0.199c0.006,0 0.028,0.002 0.067,0.003c0.04,0.001 0.069,0.002 0.087,0.002c0.046,-0 0.073,-0.001 0.083,-0.003c0,-0.007 0,-0.013 0,-0.018c0,-0.05 -0.01,-0.088 -0.03,-0.112c-0.021,-0.025 -0.049,-0.037 -0.084,-0.037c-0.039,-0 -0.069,0.014 -0.091,0.041c-0.022,0.028 -0.032,0.069 -0.032,0.124Z" style="fill-rule:nonzero;"/>
        </g>
        <g transform="matrix(37.5,0,0,37.5,418.898,182.136)">
            <path d="M0.188,-0.465l0.009,0.006c-0.002,0.019 -0.004,0.052 -0.005,0.101l0.037,-0.047c0.012,-0.015 0.023,-0.027 0.032,-0.035c0.009,-0.008 0.02,-0.015 0.032,-0.019c0.013,-0.005 0.026,-0.007 0.039,-0.007c0.014,-0 0.027,0.003 0.04,0.008l0.003,0.007c-0.005,0.044 -0.008,0.082 -0.008,0.115l-0.022,-0c-0.013,-0.03 -0.034,-0.045 -0.063,-0.045c-0.02,-0 -0.038,0.006 -0.053,0.019c-0.015,0.013 -0.025,0.029 -0.03,0.048c-0.005,0.02 -0.008,0.044 -0.008,0.074l0,0.054c0,0.01 0.001,0.034 0.002,0.072c0.002,0.038 0.003,0.06 0.005,0.066c0.001,0.006 0.003,0.01 0.006,0.013c0.003,0.002 0.008,0.004 0.013,0.005c0.005,0.001 0.028,0.003 0.069,0.005l0.005,0.004l-0,0.021l-0.005,0.004c-0.043,-0.003 -0.088,-0.004 -0.136,-0.004c-0.037,-0 -0.076,0.001 -0.117,0.004l-0.004,-0.004l-0,-0.021l0.004,-0.004c0.032,-0.002 0.05,-0.003 0.054,-0.004c0.004,-0.001 0.007,-0.003 0.01,-0.006c0.004,-0.003 0.006,-0.008 0.007,-0.015c0.001,-0.006 0.002,-0.027 0.004,-0.063c0.001,-0.035 0.002,-0.062 0.002,-0.08l-0,-0.097c-0,-0.013 -0.001,-0.03 -0.002,-0.053c-0.001,-0.022 -0.002,-0.036 -0.003,-0.041c-0.001,-0.005 -0.004,-0.009 -0.008,-0.012c-0.004,-0.002 -0.013,-0.003 -0.025,-0.003l-0.041,-0.001l-0.005,-0.004l0,-0.021l0.004,-0.004c0.062,-0.007 0.115,-0.019 0.157,-0.036Z" style="fill-rule:nonzero;"/>
        </g>
        <g transform="matrix(37.5,0,0,37.5,443.086,182.136)">
            <path d="M0.169,-0.636c0,-0.017 0.006,-0.033 0.017,-0.046c0.011,-0.013 0.024,-0.02 0.04,-0.02c0.011,0 0.02,0.004 0.026,0.011c0.007,0.006 0.011,0.016 0.011,0.029c-0,0.017 -0.005,0.033 -0.015,0.047c-0.011,0.014 -0.023,0.021 -0.039,0.021c-0.011,-0 -0.02,-0.004 -0.028,-0.012c-0.008,-0.008 -0.012,-0.018 -0.012,-0.03Zm-0.127,0.272l-0.005,-0.011l0.002,-0.006c0.044,-0.032 0.078,-0.055 0.102,-0.067c0.024,-0.013 0.043,-0.02 0.056,-0.02c0.014,0 0.02,0.01 0.02,0.029c0,0.009 -0.001,0.021 -0.005,0.037c-0.003,0.017 -0.011,0.049 -0.024,0.098c-0.036,0.131 -0.054,0.209 -0.054,0.233c0,0.013 0.005,0.02 0.014,0.02c0.014,-0 0.039,-0.014 0.076,-0.042l0.005,0.002l0.005,0.012l-0.001,0.006c-0.022,0.018 -0.046,0.035 -0.07,0.051c-0.024,0.016 -0.041,0.027 -0.051,0.031c-0.011,0.004 -0.019,0.007 -0.026,0.007c-0.01,-0 -0.017,-0.005 -0.023,-0.013c-0.006,-0.009 -0.008,-0.018 -0.008,-0.03c-0,-0.015 0.002,-0.03 0.006,-0.047c0.004,-0.017 0.009,-0.035 0.015,-0.056c0.021,-0.075 0.036,-0.134 0.045,-0.177c0.009,-0.042 0.013,-0.068 0.013,-0.077c0,-0.011 -0.003,-0.017 -0.011,-0.017c-0.005,0 -0.01,0.001 -0.014,0.004c-0.005,0.002 -0.025,0.014 -0.062,0.035l-0.005,-0.002Z" style="fill-rule:nonzero;"/>
        </g>
    </g>
    <g transform="matrix(1,0,0,1,-129.799,116.279)">
        <g transform="matrix(37.5,0,0,37.5,310.939,182.136)">
            <path d="M0.018,-0.687l0.004,-0.003c0.081,0.003 0.127,0.004 0.14,0.004c0.011,-0 0.057,-0.001 0.14,-0.004l0.004,0.003l-0,0.025l-0.004,0.003c-0.023,0.001 -0.04,0.002 -0.052,0.003c-0.012,0.002 -0.021,0.004 -0.027,0.008c-0.005,0.003 -0.009,0.012 -0.011,0.025c-0.002,0.013 -0.003,0.031 -0.003,0.055l-0.001,0.112l0,0.216c0,0.054 0.001,0.092 0.001,0.113l0.003,0.085l0.1,-0c0.079,-0 0.129,-0.001 0.148,-0.003c0.02,-0.002 0.039,-0.007 0.057,-0.015c0.004,-0.008 0.009,-0.026 0.015,-0.056c0.007,-0.029 0.011,-0.046 0.011,-0.051l0.004,-0.003l0.024,-0l0.004,0.003c-0.003,0.014 -0.006,0.039 -0.008,0.076c-0.003,0.038 -0.005,0.068 -0.005,0.091l-0.003,0.004c-0.062,-0.002 -0.143,-0.003 -0.244,-0.003l-0.143,-0.001c-0.032,-0 -0.065,0.001 -0.099,0.004l-0.004,-0.004l-0,-0.016l0.004,-0.005c0.02,-0.01 0.031,-0.017 0.033,-0.019c0.002,-0.002 0.004,-0.023 0.006,-0.063c0.002,-0.04 0.003,-0.088 0.003,-0.144l0,-0.209l-0.001,-0.095c-0,-0.037 -0.001,-0.061 -0.002,-0.072c-0.002,-0.011 -0.004,-0.018 -0.007,-0.022c-0.003,-0.003 -0.009,-0.006 -0.018,-0.008c-0.009,-0.003 -0.031,-0.004 -0.065,-0.006l-0.004,-0.003l0,-0.025Z" style="fill-rule:nonzero;"/>
        </g>
        <g transform="matrix(37.5,0,0,37.5,333.845,182.136)">
            <path d="M0.104,-0.331l-0.02,-0.005l-0.003,-0.005l-0,-0.06c0.058,-0.043 0.114,-0.065 0.169,-0.065c0.037,0 0.068,0.007 0.093,0.021c0.025,0.014 0.042,0.032 0.053,0.053c0.012,0.021 0.017,0.045 0.017,0.073l-0.002,0.098l-0,0.146c-0,0.02 0.001,0.032 0.004,0.036c0.003,0.004 0.006,0.007 0.009,0.008c0.004,0.002 0.011,0.003 0.02,0.004l0.028,0.003l0.004,0.004l0,0.02l-0.004,0.003c-0.024,-0.002 -0.046,-0.003 -0.066,-0.003c-0.02,0 -0.043,0.001 -0.071,0.003l-0.007,-0.006l0.002,-0.079l-0.106,0.083c-0.018,0.007 -0.038,0.011 -0.059,0.011c-0.026,0 -0.048,-0.005 -0.067,-0.014c-0.019,-0.009 -0.033,-0.023 -0.043,-0.04c-0.01,-0.016 -0.015,-0.037 -0.015,-0.061c0,-0.048 0.015,-0.085 0.045,-0.112c0.03,-0.027 0.112,-0.05 0.245,-0.069c0,-0.048 -0.011,-0.082 -0.032,-0.101c-0.022,-0.02 -0.05,-0.03 -0.087,-0.03c-0.018,-0 -0.036,0.003 -0.051,0.008c-0.016,0.006 -0.024,0.01 -0.027,0.014c-0.002,0.003 -0.011,0.023 -0.026,0.06l-0.003,0.002Zm0.226,0.077c-0.091,0.015 -0.148,0.032 -0.17,0.049c-0.023,0.018 -0.034,0.045 -0.034,0.082c-0,0.051 0.025,0.076 0.076,0.076c0.043,0 0.086,-0.025 0.128,-0.075l0,-0.132Z" style="fill-rule:nonzero;"/>
        </g>
        <g transform="matrix(37.5,0,0,37.5,352.595,182.136)">
            <path d="M0.022,0.265c0.011,-0.027 0.019,-0.052 0.025,-0.075l0.012,-0c0.016,0.017 0.033,0.026 0.051,0.026c0.023,-0 0.044,-0.012 0.061,-0.035c0.017,-0.023 0.041,-0.073 0.072,-0.152c-0.012,-0.035 -0.025,-0.067 -0.037,-0.098l-0.078,-0.193c-0.008,-0.02 -0.02,-0.048 -0.036,-0.085c-0.016,-0.037 -0.026,-0.057 -0.029,-0.061c-0.003,-0.004 -0.007,-0.007 -0.012,-0.01c-0.005,-0.004 -0.018,-0.007 -0.039,-0.01l-0.004,-0.004l-0,-0.019l0.004,-0.004c0.038,0.002 0.076,0.003 0.115,0.003c0.047,0 0.082,-0.001 0.107,-0.003l0.004,0.004l0,0.019l-0.003,0.004c-0.004,0.001 -0.014,0.001 -0.03,0.002c-0.017,0.002 -0.027,0.004 -0.031,0.008c-0.004,0.004 -0.006,0.009 -0.006,0.014c-0,0.006 0.005,0.024 0.015,0.054c0.01,0.031 0.02,0.058 0.029,0.081l0.031,0.076c0.02,0.05 0.036,0.087 0.047,0.111l0.026,-0.057c0.009,-0.021 0.022,-0.053 0.039,-0.095l0.041,-0.103c0.01,-0.027 0.016,-0.044 0.017,-0.05c0.002,-0.007 0.003,-0.011 0.003,-0.014c-0,-0.008 -0.003,-0.012 -0.008,-0.015c-0.005,-0.003 -0.017,-0.005 -0.035,-0.007l-0.02,-0.003l-0.004,-0.004l0,-0.021l0.004,-0.004c0.027,0.002 0.06,0.003 0.097,0.003c0.034,0 0.062,-0.001 0.082,-0.003l0.004,0.004l0,0.021l-0.004,0.004c-0.012,0.001 -0.021,0.002 -0.029,0.005c-0.007,0.003 -0.014,0.008 -0.02,0.016c-0.007,0.007 -0.018,0.028 -0.035,0.063c-0.017,0.035 -0.034,0.071 -0.051,0.108l-0.048,0.105l-0.113,0.263c-0.009,0.023 -0.022,0.047 -0.036,0.074c-0.015,0.026 -0.032,0.044 -0.053,0.056c-0.021,0.011 -0.043,0.017 -0.067,0.017c-0.02,0 -0.04,-0.005 -0.058,-0.016Z" style="fill-rule:nonzero;"/>
        </g>
        <g transform="matrix(37.5,0,0,37.5,372.81,182.136)">
            <path d="M0.432,-0.072l-0.016,0.035c-0.034,0.022 -0.064,0.036 -0.091,0.043c-0.026,0.006 -0.05,0.01 -0.071,0.01c-0.039,-0 -0.076,-0.008 -0.111,-0.023c-0.035,-0.016 -0.063,-0.042 -0.085,-0.078c-0.022,-0.036 -0.033,-0.08 -0.033,-0.132c-0,-0.034 0.004,-0.065 0.013,-0.092c0.008,-0.028 0.017,-0.048 0.026,-0.062c0.009,-0.013 0.025,-0.028 0.047,-0.044c0.022,-0.016 0.046,-0.029 0.071,-0.039c0.024,-0.01 0.051,-0.015 0.08,-0.015c0.039,0 0.073,0.009 0.103,0.028c0.03,0.018 0.051,0.042 0.063,0.07c0.012,0.029 0.018,0.059 0.018,0.092c-0,0.01 -0.001,0.02 -0.002,0.029l-0.005,0.005c-0.022,0.005 -0.052,0.009 -0.089,0.01c-0.038,0.002 -0.063,0.003 -0.075,0.003l-0.156,-0c0,0.067 0.017,0.117 0.05,0.149c0.034,0.031 0.074,0.047 0.123,0.047c0.022,0 0.044,-0.004 0.065,-0.011c0.021,-0.008 0.043,-0.019 0.067,-0.033l0.008,0.008Zm-0.313,-0.199c0.006,0 0.028,0.002 0.067,0.003c0.04,0.001 0.069,0.002 0.087,0.002c0.046,-0 0.073,-0.001 0.083,-0.003c0,-0.007 0,-0.013 0,-0.018c0,-0.05 -0.01,-0.088 -0.03,-0.112c-0.021,-0.025 -0.049,-0.037 -0.084,-0.037c-0.039,-0 -0.069,0.014 -0.091,0.041c-0.022,0.028 -0.032,0.069 -0.032,0.124Z" style="fill-rule:nonzero;"/>
        </g>
        <g transform="matrix(37.5,0,0,37.5,390.773,182.136)">
            <path d="M0.188,-0.465l0.009,0.006c-0.002,0.019 -0.004,0.052 -0.005,0.101l0.037,-0.047c0.012,-0.015 0.023,-0.027 0.032,-0.035c0.009,-0.008 0.02,-0.015 0.032,-0.019c0.013,-0.005 0.026,-0.007 0.039,-0.007c0.014,-0 0.027,0.003 0.04,0.008l0.003,0.007c-0.005,0.044 -0.008,0.082 -0.008,0.115l-0.022,-0c-0.013,-0.03 -0.034,-0.045 -0.063,-0.045c-0.02,-0 -0.038,0.006 -0.053,0.019c-0.015,0.013 -0.025,0.029 -0.03,0.048c-0.005,0.02 -0.008,0.044 -0.008,0.074l0,0.054c0,0.01 0.001,0.034 0.002,0.072c0.002,0.038 0.003,0.06 0.005,0.066c0.001,0.006 0.003,0.01 0.006,0.013c0.003,0.002 0.008,0.004 0.013,0.005c0.005,0.001 0.028,0.003 0.069,0.005l0.005,0.004l-0,0.021l-0.005,0.004c-0.043,-0.003 -0.088,-0.004 -0.136,-0.004c-0.037,-0 -0.076,0.001 -0.117,0.004l-0.004,-0.004l-0,-0.021l0.004,-0.004c0.032,-0.002 0.05,-0.003 0.054,-0.004c0.004,-0.001 0.007,-0.003 0.01,-0.006c0.004,-0.003 0.006,-0.008 0.007,-0.015c0.001,-0.006 0.002,-0.027 0.004,-0.063c0.001,-0.035 0.002,-0.062 0.002,-0.08l-0,-0.097c-0,-0.013 -0.001,-0.03 -0.002,-0.053c-0.001,-0.022 -0.002,-0.036 -0.003,-0.041c-0.001,-0.005 -0.004,-0.009 -0.008,-0.012c-0.004,-0.002 -0.013,-0.003 -0.025,-0.003l-0.041,-0.001l-0.005,-0.004l0,-0.021l0.004,-0.004c0.062,-0.007 0.115,-0.019 0.157,-0.036Z" style="fill-rule:nonzero;"/>
        </g>
        <g transform="matrix(37.5,0,0,37.5,414.961,182.136)">
            <path d="M0.169,-0.636c0,-0.017 0.006,-0.033 0.017,-0.046c0.011,-0.013 0.024,-0.02 0.04,-0.02c0.011,0 0.02,0.004 0.026,0.011c0.007,0.006 0.011,0.016 0.011,0.029c-0,0.017 -0.005,0.033 -0.015,0.047c-0.011,0.014 -0.023,0.021 -0.039,0.021c-0.011,-0 -0.02,-0.004 -0.028,-0.012c-0.008,-0.008 -0.012,-0.018 -0.012,-0.03Zm-0.127,0.272l-0.005,-0.011l0.002,-0.006c0.044,-0.032 0.078,-0.055 0.102,-0.067c0.024,-0.013 0.043,-0.02 0.056,-0.02c0.014,0 0.02,0.01 0.02,0.029c0,0.009 -0.001,0.021 -0.005,0.037c-0.003,0.017 -0.011,0.049 -0.024,0.098c-0.036,0.131 -0.054,0.209 -0.054,0.233c0,0.013 0.005,0.02 0.014,0.02c0.014,-0 0.039,-0.014 0.076,-0.042l0.005,0.002l0.005,0.012l-0.001,0.006c-0.022,0.018 -0.046,0.035 -0.07,0.051c-0.024,0.016 -0.041,0.027 -0.051,0.031c-0.011,0.004 -0.019,0.007 -0.026,0.007c-0.01,-0 -0.017,-0.005 -0.023,-0.013c-0.006,-0.009 -0.008,-0.018 -0.008,-0.03c-0,-0.015 0.002,-0.03 0.006,-0.047c0.004,-0.017 0.009,-0.035 0.015,-0.056c0.021,-0.075 0.036,-0.134 0.045,-0.177c0.009,-0.042 0.013,-0.068 0.013,-0.077c0,-0.011 -0.003,-0.017 -0.011,-0.017c-0.005,0 -0.01,0.001 -0.014,0.004c-0.005,0.002 -0.025,0.014 -0.062,0.035l-0.005,-0.002Z" style="fill-rule:nonzero;"/>
        </g>
        <g transform="matrix(37.5,0,0,37.5,434.755,182.136)">
            <path d="M0.485,-0.284l-0.209,0l-0,0.21l-0.052,-0l0,-0.21l-0.209,0l-0,-0.049l0.209,-0l0,-0.21l0.052,0l-0,0.21l0.209,-0l0,0.049Z" style="fill-rule:nonzero;"/>
        </g>
        <g transform="matrix(37.5,0,0,37.5,462.88,182.136)">
            <path d="M0.075,-0.552l-0.009,-0.003l-0.005,-0.04l0.005,-0.005c0.032,-0.009 0.074,-0.024 0.123,-0.045c0.05,-0.021 0.086,-0.037 0.107,-0.048l0.013,0.005c-0.005,0.143 -0.008,0.228 -0.008,0.257l0,0.181c0,0.045 0.001,0.087 0.002,0.126c0.001,0.039 0.002,0.062 0.004,0.069c0.002,0.007 0.005,0.013 0.01,0.016c0.005,0.004 0.011,0.007 0.02,0.008c0.008,0.001 0.034,0.003 0.076,0.005l0.003,0.004l0,0.022l-0.003,0.004c-0.072,-0.003 -0.122,-0.004 -0.151,-0.004c-0.022,0 -0.077,0.001 -0.163,0.004l-0.003,-0.004l-0,-0.022l0.004,-0.004c0.048,-0.003 0.076,-0.006 0.083,-0.008c0.007,-0.001 0.013,-0.004 0.016,-0.008c0.004,-0.004 0.007,-0.012 0.009,-0.023c0.003,-0.012 0.005,-0.046 0.006,-0.102c0.002,-0.055 0.002,-0.084 0.002,-0.085l0,-0.193c0,-0.094 0,-0.145 -0,-0.154c-0.001,-0.008 -0.004,-0.012 -0.009,-0.012c-0.001,0 -0.003,0 -0.005,0.001c-0.003,0.001 -0.01,0.004 -0.022,0.009l-0.048,0.021c-0.02,0.009 -0.039,0.018 -0.057,0.028Z" style="fill-rule:nonzero;"/>
        </g>
    </g>
    <path d="M273.124,246.575l-6.638,13.276l-6.638,-13.276l13.276,-0Z"/>
    <path d="M266.486,114.705l-0,134.525" style="fill:none;stroke:black;stroke-width:2.21px;"/>
    <path d="M273.124,49.337l-6.638,13.276l-6.638,-13.276l13.276,-0Z"/>
    <path d="M266.486,0l-0,51.992" style="fill:none;stroke:black;stroke-width:2.21px;"/>
    <path d="M273.124,346.235l-6.638,13.275l-6.638,-13.275l13.276,-0Z"/>
    <path d="M266.486,311.943l-0,36.947" style="fill:none;stroke:black;stroke-width:2.21px;"/>
    <path d="M273.124,440.351l-6.638,13.276l-6.638,-13.276l13.276,-0Z"/>
    <path d="M266.486,406.059l-0,36.947" style="fill:none;stroke:black;stroke-width:2.21px;"/>
    <g>
        <circle cx="266.486" cy="382.785" r="23.274" style="fill:none;stroke:rgb(35,31,32);stroke-width:2.11px;stroke-linecap:butt;"/>
        <path d="M252.572,382.785l27.827,-0" style="fill:none;stroke:rgb(35,31,32);stroke-width:2.11px;stroke-linecap:butt;"/>
        <path d="M266.486,396.698l-0,-27.826" style="fill:none;stroke:rgb(35,31,32);stroke-width:2.11px;stroke-linecap:butt;"/>
    </g>
    <path d="M302.404,389.107l-12.644,-6.322l12.644,-6.322l-0,12.644Z"/>
    <path d="M266.486,25.005l151.965,0l-0,357.78l-118.576,-0" style="fill:none;stroke:black;stroke-width:2.11px;"/>
    <g>
        <path d="M87.702,414.418c0,-1.233 -1.383,-1.421 -2.987,-1.421l-14.946,0c-0.634,0 -3.588,-0.295 -6.125,2.242c-0.225,0.225 -0.488,0.562 -0.488,0.9c0,0.112 0.113,0.221 0.3,0.221c1.084,-0 2.242,-0.896 2.65,-1.229c0.45,-0.038 1.571,-0.038 2.729,-0.038l3.138,0c-0.933,4.779 -2.467,10.013 -4.633,15.092c-1.084,2.542 -2.95,6.65 -3.621,7.433c-2.579,0 -3.325,-1.716 -3.775,-2.5c-0.075,-0.15 -0.188,-0.225 -0.338,-0.225c-0.858,0 -2.95,1.159 -2.95,1.829c0,0.188 0.188,0.488 0.263,0.638c0.746,1.492 2.429,2.35 4.108,2.35c2.242,-0 4.183,-1.304 5.679,-3.025c0.746,-0.859 3.809,-7.396 4.484,-9.488l7.433,0c-0,0.371 0.037,0.334 0.337,0.334c0.934,-0 2.505,-0.971 2.8,-1.604c0.075,-0.15 0.188,-0.413 0.188,-0.6c-0,-0.151 -0.038,-0.221 -0.633,-0.221l-9.305,-0c0.784,-1.946 2.542,-8.221 2.913,-10.013l7.475,0c0.633,0 2.054,0.071 2.054,0.971c0,0.333 -0.15,0.521 0.375,0.521c0.408,-0 2.875,-0.896 2.875,-2.167Z" style="fill:rgb(35,31,32);fill-rule:nonzero;"/>
        <path d="M99.756,447.41c0,-0.188 -0.112,-0.3 -0.333,-0.563c-4.821,-4.408 -6.279,-11.133 -6.279,-17.67c-0,-5.792 1.121,-12.817 6.387,-17.821c0.15,-0.15 0.225,-0.263 0.225,-0.45c0,-0.259 -0.187,-0.409 -0.446,-0.409c-0.45,0 -3.812,2.688 -5.829,6.763c-1.791,3.583 -2.691,7.433 -2.691,11.879c-0,2.692 0.337,6.95 2.391,11.358c2.204,4.596 5.679,7.321 6.129,7.321c0.259,0 0.446,-0.15 0.446,-0.408Z" style="fill:rgb(35,31,32);fill-rule:nonzero;"/>
        <path d="M115.298,429.364l4.558,-4.896c0.413,-0.446 0.675,-0.708 3.663,-0.708l-0,-1.834c-1.271,0.113 -2.242,0.113 -3.475,0.113c-0.671,0 -2.129,0 -3.813,-0.113l0,1.834c0.825,-0 1.013,0.15 1.271,0.408l-3.475,3.775l-3.696,-4.183l1.346,-0l0,-1.834c-2.242,0.076 -3.217,0.113 -4.483,0.113c-0.75,0 -2.204,0 -4.113,-0.113l0,1.834l2.617,-0l5.942,6.762l-5.046,5.455c-0.671,0.708 -1.979,0.708 -3.7,0.708l-0,1.833c1.271,-0.112 2.241,-0.112 3.475,-0.112c0.675,-0 2.129,-0 3.812,0.112l0,-1.833c-0.562,-0 -1.196,-0.15 -1.196,-0.409c0,-0.149 0.225,-0.374 0.263,-0.412l3.658,-3.925l4.15,4.746l-1.308,-0l-0,1.833c2.354,-0.075 3.212,-0.112 4.446,-0.112c0.858,-0 2.241,-0 4.146,0.112l-0,-1.833l-2.613,-0l-6.429,-7.321Z" style="fill:rgb(35,31,32);fill-rule:nonzero;"/>
        <path d="M136.369,429.139c-0,-3.062 -0.446,-7.175 -2.392,-11.321c-2.204,-4.596 -5.675,-7.321 -6.125,-7.321c-0.375,0 -0.45,0.296 -0.45,0.409c0,0.187 0.075,0.3 0.338,0.562c2.166,1.942 6.275,7.025 6.275,17.671c-0,5.342 -0.971,12.775 -6.388,17.821c-0.075,0.112 -0.225,0.262 -0.225,0.45c0,0.108 0.075,0.408 0.45,0.408c0.45,0 3.813,-2.687 5.829,-6.762c1.792,-3.588 2.688,-7.434 2.688,-11.917Z" style="fill:rgb(35,31,32);fill-rule:nonzero;"/>
        <path d="M175.019,429.96c0.525,-0 1.308,-0 1.308,-0.783c0,-0.821 -0.708,-0.821 -1.308,-0.821l-10.646,-0l-0,-10.688c-0,-0.596 -0,-1.308 -0.821,-1.308c-0.787,-0 -0.787,0.787 -0.787,1.308l-0,10.688l-10.684,-0c-0.525,-0 -1.308,-0 -1.308,0.783c-0,0.821 0.708,0.821 1.308,0.821l10.684,-0l-0,10.687c-0,0.596 -0,1.304 0.82,1.304c0.788,0 0.788,-0.783 0.788,-1.304l-0,-10.687l10.646,-0Z" style="fill:rgb(35,31,32);fill-rule:nonzero;"/>
        <path d="M200.369,429.364l4.558,-4.896c0.413,-0.446 0.671,-0.708 3.663,-0.708l-0,-1.829c-1.271,0.108 -2.242,0.108 -3.475,0.108c-0.675,0 -2.13,0 -3.813,-0.108l0,1.829c0.821,-0 1.008,0.15 1.271,0.408l-3.475,3.775l-3.696,-4.183l1.342,-0l-0,-1.829c-2.242,0.071 -3.213,0.108 -4.484,0.108c-0.745,0 -2.204,0 -4.108,-0.108l0,1.829l2.617,-0l5.937,6.762l-5.041,5.455c-0.675,0.708 -1.98,0.708 -3.7,0.708l-0,1.833c1.27,-0.112 2.241,-0.112 3.475,-0.112c0.67,-0 2.129,-0 3.812,0.112l0,-1.833c-0.562,-0 -1.196,-0.15 -1.196,-0.409c0,-0.149 0.225,-0.374 0.259,-0.412l3.662,-3.925l4.146,4.746l-1.304,-0l-0,1.833c2.354,-0.075 3.212,-0.112 4.446,-0.112c0.858,-0 2.241,-0 4.145,0.112l0,-1.833l-2.616,-0l-6.425,-7.321Z" style="fill:rgb(35,31,32);fill-rule:nonzero;"/>
    </g>
    <path d="M31.046,173.755c-0,-1.234 -1.383,-1.421 -2.988,-1.421l-14.945,-0c-0.634,-0 -3.588,-0.296 -6.125,2.241c-0.225,0.225 -0.488,0.563 -0.488,0.9c-0,0.113 0.112,0.221 0.3,0.221c1.083,0 2.242,-0.896 2.65,-1.229c0.45,-0.037 1.571,-0.037 2.729,-0.037l3.138,-0c-0.934,4.779 -2.467,10.012 -4.634,15.091c-1.083,2.542 -2.95,6.65 -3.621,7.434c-2.579,-0 -3.324,-1.717 -3.774,-2.5c-0.076,-0.15 -0.188,-0.225 -0.338,-0.225c-0.858,-0 -2.95,1.158 -2.95,1.829c0,0.187 0.187,0.487 0.262,0.637c0.746,1.492 2.43,2.35 4.109,2.35c2.241,0 4.183,-1.304 5.679,-3.025c0.746,-0.858 3.808,-7.396 4.483,-9.487l7.434,-0c-0,0.371 0.037,0.333 0.337,0.333c0.933,0 2.504,-0.971 2.8,-1.604c0.075,-0.15 0.188,-0.413 0.188,-0.6c-0,-0.15 -0.038,-0.221 -0.634,-0.221l-9.304,0c0.784,-1.946 2.542,-8.221 2.913,-10.012l7.475,-0c0.633,-0 2.054,0.07 2.054,0.97c-0,0.334 -0.15,0.521 0.375,0.521c0.408,0 2.875,-0.896 2.875,-2.166Z" style="fill:rgb(35,31,32);fill-rule:nonzero;"/>
    <path d="M43.1,206.746c0,-0.187 -0.112,-0.3 -0.333,-0.562c-4.821,-4.409 -6.28,-11.134 -6.28,-17.671c0,-5.792 1.121,-12.817 6.388,-17.821c0.15,-0.15 0.225,-0.262 0.225,-0.45c0,-0.258 -0.188,-0.408 -0.446,-0.408c-0.45,-0 -3.812,2.687 -5.829,6.762c-1.792,3.584 -2.692,7.434 -2.692,11.879c0,2.692 0.338,6.95 2.392,11.359c2.204,4.596 5.679,7.321 6.129,7.321c0.258,-0 0.446,-0.15 0.446,-0.409Z" style="fill:rgb(35,31,32);fill-rule:nonzero;"/>
    <path d="M58.642,188.7l4.558,-4.895c0.412,-0.446 0.675,-0.709 3.662,-0.709l0,-1.833c-1.27,0.112 -2.241,0.112 -3.475,0.112c-0.67,0 -2.129,0 -3.812,-0.112l-0,1.833c0.825,0 1.013,0.15 1.271,0.409l-3.475,3.775l-3.696,-4.184l1.346,0l-0,-1.833c-2.242,0.075 -3.217,0.112 -4.484,0.112c-0.75,0 -2.204,0 -4.112,-0.112l-0,1.833l2.617,0l5.941,6.763l-5.045,5.454c-0.671,0.708 -1.98,0.708 -3.7,0.708l-0,1.834c1.27,-0.113 2.241,-0.113 3.474,-0.113c0.676,0 2.13,0 3.813,0.113l0,-1.834c-0.563,0 -1.196,-0.15 -1.196,-0.408c0,-0.15 0.225,-0.375 0.263,-0.413l3.658,-3.925l4.15,4.746l-1.308,0l-0,1.834c2.354,-0.075 3.212,-0.113 4.446,-0.113c0.858,0 2.241,0 4.145,0.113l0,-1.834l-2.612,0l-6.429,-7.321Z" style="fill:rgb(35,31,32);fill-rule:nonzero;"/>
    <path d="M246.48,23.951l4.558,-4.896c0.412,-0.446 0.675,-0.708 3.662,-0.708l0,-1.834c-1.27,0.113 -2.241,0.113 -3.475,0.113c-0.67,-0 -2.129,-0 -3.812,-0.113l-0,1.834c0.825,-0 1.012,0.15 1.271,0.408l-3.475,3.775l-3.696,-4.183l1.346,-0l-0,-1.834c-2.242,0.075 -3.217,0.113 -4.484,0.113c-0.75,-0 -2.204,-0 -4.112,-0.113l-0,1.834l2.617,-0l5.941,6.762l-5.046,5.454c-0.67,0.709 -1.979,0.709 -3.7,0.709l0,1.833c1.271,-0.112 2.242,-0.112 3.475,-0.112c0.675,-0 2.13,-0 3.813,0.112l-0,-1.833c-0.563,-0 -1.196,-0.15 -1.196,-0.409c0,-0.15 0.225,-0.375 0.263,-0.412l3.658,-3.925l4.15,4.746l-1.308,-0l-0,1.833c2.354,-0.075 3.212,-0.112 4.445,-0.112c0.859,-0 2.242,-0 4.146,0.112l0,-1.833l-2.612,-0l-6.429,-7.321Z" style="fill:rgb(35,31,32);fill-rule:nonzero;"/>
    <path d="M435.883,187.636l4.558,-4.896c0.413,-0.446 0.675,-0.708 3.663,-0.708l-0,-1.834c-1.271,0.113 -2.242,0.113 -3.475,0.113c-0.671,-0 -2.129,-0 -3.813,-0.113l0,1.834c0.825,-0 1.013,0.15 1.271,0.408l-3.475,3.775l-3.696,-4.183l1.346,-0l0,-1.834c-2.242,0.075 -3.217,0.113 -4.483,0.113c-0.75,-0 -2.204,-0 -4.113,-0.113l0,1.834l2.617,-0l5.942,6.762l-5.046,5.454c-0.671,0.709 -1.979,0.709 -3.7,0.709l-0,1.833c1.271,-0.112 2.241,-0.112 3.475,-0.112c0.675,-0 2.129,-0 3.812,0.112l0,-1.833c-0.562,-0 -1.196,-0.15 -1.196,-0.409c0,-0.15 0.225,-0.375 0.263,-0.412l3.658,-3.925l4.15,4.746l-1.308,-0l-0,1.833c2.354,-0.075 3.212,-0.112 4.446,-0.112c0.858,-0 2.241,-0 4.146,0.112l-0,-1.833l-2.613,-0l-6.429,-7.321Z" style="fill:rgb(35,31,32);fill-rule:nonzero;"/>
    <path d="M79.712,188.475c0,-3.062 -0.445,-7.175 -2.391,-11.32c-2.204,-4.596 -5.675,-7.321 -6.125,-7.321c-0.375,-0 -0.45,0.296 -0.45,0.408c-0,0.188 0.075,0.3 0.337,0.563c2.167,1.941 6.275,7.025 6.275,17.67c0,5.342 -0.97,12.775 -6.387,17.821c-0.075,0.113 -0.225,0.263 -0.225,0.45c-0,0.109 0.075,0.409 0.45,0.409c0.45,-0 3.812,-2.688 5.829,-6.763c1.792,-3.587 2.687,-7.433 2.687,-11.917Z" style="fill:rgb(35,31,32);fill-rule:nonzero;"/>
    <g>
        <path d="M133.033,328.138c-4.513,-2.277 -13.249,6.82 -13.249,-111.08c-0,-31.537 -18.883,-27.263 -18.883,-27.263" style="fill:none;stroke:black;stroke-width:2.11px;"/>
        <path d="M133.033,51.063c-4.513,2.278 -13.249,-6.82 -13.249,111.081c-0,31.537 -18.883,27.262 -18.883,27.262" style="fill:none;stroke:black;stroke-width:2.11px;"/>
    </g>
</svg>
