<?xml version="1.0" encoding="UTF-8" standalone="no"?>
<!DOCTYPE svg PUBLIC "-//W3C//DTD SVG 1.1//EN" "http://www.w3.org/Graphics/SVG/1.1/DTD/svg11.dtd">
<svg width="100%" height="100%" viewBox="0 0 402 166" version="1.1" xmlns="http://www.w3.org/2000/svg" xmlns:xlink="http://www.w3.org/1999/xlink" xml:space="preserve" xmlns:serif="http://www.serif.com/" style="fill-rule:evenodd;clip-rule:evenodd;stroke-linecap:round;stroke-linejoin:round;stroke-miterlimit:1.5;">
    <circle cx="257.656" cy="81.728" r="49.302" style="fill:none;stroke:rgb(35,31,32);stroke-width:2.62px;"/>
    <path d="M256.162,82.363c0.371,-0.412 0.371,-0.521 0.371,-0.633c0,-0.038 0,-0.225 -0.296,-0.6l-12.404,-16.475l15.092,-0c2.804,-0 5.604,0.15 8.333,0.896c3.475,1.008 6.312,3.25 7.471,6.354l1.046,-0l-3.288,-8.858l-31.866,-0c-1.046,-0 -1.084,0.037 -1.084,1.27l14.008,18.684l-13.637,16.325c-0.333,0.37 -0.371,0.483 -0.371,0.596c0,0.487 0.408,0.487 1.084,0.487l31.866,-0l3.288,-9.417l-1.046,0c-1.046,2.954 -3.7,5.234 -7.1,6.279c-0.521,0.151 -3.213,0.971 -8.479,0.971l-16.25,0l13.262,-15.879Z" style="fill:rgb(35,31,32);fill-rule:nonzero;"/>
    <g>
        <g>
            <g>
                <path d="M21.29,1.421c-1.384,0.262 -1.792,1.458 -1.792,2.017c-0,0.712 0.521,1.345 1.454,1.345c1.046,0 2.054,-0.895 2.054,-2.204c0,-1.716 -1.866,-2.579 -3.621,-2.579c-2.241,-0 -3.55,1.983 -4,2.767c-0.708,-1.829 -2.354,-2.767 -4.145,-2.767c-3.996,-0 -6.163,4.783 -6.163,5.754c0,0.338 0.258,0.45 0.521,0.45c0.337,0 0.45,-0.187 0.525,-0.412c1.158,-3.7 3.621,-4.854 5.042,-4.854c1.083,-0 2.054,0.708 2.054,2.462c-0,1.346 -1.604,7.325 -2.092,9.117c-0.3,1.158 -1.421,3.475 -3.475,3.475c-0.746,-0 -1.529,-0.263 -1.904,-0.488c1.008,-0.183 1.754,-1.046 1.754,-2.017c0,-0.933 -0.708,-1.345 -1.417,-1.345c-1.083,-0 -2.058,0.937 -2.058,2.204c0,1.833 2.021,2.579 3.588,2.579c2.166,0 3.437,-1.792 4,-2.8c0.933,2.463 3.137,2.8 4.145,2.8c4.034,0 6.163,-4.858 6.163,-5.754c-0,-0.188 -0.113,-0.446 -0.483,-0.446c-0.413,0 -0.45,0.15 -0.638,0.708c-0.821,2.692 -2.987,4.559 -4.929,4.559c-1.083,-0 -2.092,-0.671 -2.092,-2.467c0,-0.821 0.521,-2.875 0.859,-4.296c0.15,-0.671 1.158,-4.708 1.233,-4.966c0.446,-1.346 1.567,-3.325 3.475,-3.325c0.671,-0 1.379,0.108 1.942,0.483Z" style="fill:rgb(35,31,32);fill-rule:nonzero;"/>
            </g>
            <path d="M33.848,4.7c-0,-0.75 -0.096,-0.75 -0.846,-0.75c-1.642,1.596 -4.183,1.596 -5.079,1.596l-0,0.971c0.646,-0 2.292,-0 3.783,-0.696l0,12.575c0,0.825 0,1.146 -2.562,1.146l-1.071,-0l-0,0.971c1.367,-0.096 3.312,-0.096 4.704,-0.096c1.396,-0 3.338,-0 4.708,0.096l0,-0.971l-1.07,-0c-2.567,-0 -2.567,-0.321 -2.567,-1.146l-0,-13.696Z" style="fill:rgb(35,31,32);fill-rule:nonzero;"/>
        </g>
        <g>
            <path d="M17.263,101.887c-1.384,0.263 -1.792,1.459 -1.792,2.017c-0,0.712 0.521,1.346 1.454,1.346c1.046,-0 2.054,-0.896 2.054,-2.204c0,-1.717 -1.866,-2.58 -3.621,-2.58c-2.241,0 -3.55,1.984 -4,2.767c-0.708,-1.829 -2.354,-2.767 -4.145,-2.767c-3.996,0 -6.163,4.784 -6.163,5.755c-0,0.337 0.258,0.45 0.521,0.45c0.337,-0 0.45,-0.188 0.525,-0.413c1.158,-3.7 3.621,-4.854 5.042,-4.854c1.083,-0 2.054,0.708 2.054,2.463c-0,1.345 -1.605,7.324 -2.092,9.116c-0.3,1.159 -1.421,3.475 -3.475,3.475c-0.746,0 -1.529,-0.262 -1.904,-0.487c1.008,-0.184 1.754,-1.046 1.754,-2.017c-0,-0.933 -0.708,-1.346 -1.417,-1.346c-1.083,0 -2.058,0.938 -2.058,2.204c-0,1.834 2.021,2.58 3.588,2.58c2.166,-0 3.437,-1.792 3.999,-2.8c0.934,2.462 3.138,2.8 4.146,2.8c4.034,-0 6.163,-4.859 6.163,-5.755c-0,-0.187 -0.113,-0.446 -0.483,-0.446c-0.413,0 -0.451,0.151 -0.638,0.709c-0.821,2.692 -2.988,4.558 -4.929,4.558c-1.083,0 -2.092,-0.671 -2.092,-2.467c0,-0.82 0.521,-2.875 0.859,-4.295c0.15,-0.671 1.158,-4.709 1.233,-4.967c0.446,-1.346 1.567,-3.325 3.475,-3.325c0.671,-0 1.379,0.108 1.942,0.483Z" style="fill:rgb(35,31,32);fill-rule:nonzero;"/>
            <path d="M42.8,106.708c0.275,-1.046 0.771,-1.667 2.663,-1.741c0.149,-0 0.549,-0.026 0.549,-0.601c0,-0.245 -0.149,-0.395 -0.4,-0.395c-0.595,-0 -2.066,0.1 -2.662,0.1l-1.371,-0.025c-0.45,-0 -0.971,-0.075 -1.396,-0.075c-0.421,-0 -0.545,0.325 -0.545,0.62c-0,0.376 0.395,0.376 0.595,0.376c1.171,0.024 1.646,0.349 1.646,0.995c0,0.1 -0.025,0.25 -0.05,0.4l-2.741,10.934l-6.8,-12.88c-0.25,-0.42 -0.276,-0.445 -0.871,-0.445l-3.588,-0c-0.471,-0 -0.846,-0 -0.846,0.62c0,0.376 0.35,0.376 0.921,0.376c0.15,-0 0.996,-0 1.596,0.125l-3.287,13.125c-0.25,0.945 -0.626,1.691 -2.692,1.766c-0.325,0 -0.546,0.175 -0.546,0.65c0.025,0.1 0.05,0.346 0.421,0.346c0.6,-0 2.067,-0.096 2.667,-0.096l1.37,0.025c0.446,0 0.971,0.071 1.392,0.071c0.525,-0 0.55,-0.521 0.55,-0.646c-0.075,-0.35 -0.325,-0.35 -0.625,-0.35c-1.146,-0.025 -1.642,-0.346 -1.642,-0.996c0,-0.15 0.025,-0.245 0.1,-0.52l3.188,-12.73l7.821,14.821c0.175,0.35 0.225,0.421 0.57,0.421c0.426,-0 0.476,-0.121 0.575,-0.571l3.438,-13.7Z" style="fill:rgb(35,31,32);fill-rule:nonzero;"/>
        </g>
        <path d="M24.556,139.585c0,-0.934 -0.037,-1.009 -0.971,-1.009c-2.316,2.392 -5.754,2.392 -6.912,2.392l-0,1.158c0.712,0 2.992,0 5.008,-0.971l0,19.313c0,1.383 -0.112,1.833 -3.587,1.833l-1.196,0l-0,1.154c1.346,-0.108 4.671,-0.108 6.204,-0.108c1.529,0 4.892,0 6.238,0.108l-0,-1.154l-1.196,0c-3.475,0 -3.588,-0.45 -3.588,-1.833l0,-20.883Z" style="fill:rgb(35,31,32);fill-rule:nonzero;"/>
        <path d="M22.941,37.114c0,0.586 -0.207,1.095 -0.622,1.529c-0.415,0.433 -0.94,0.65 -1.575,0.65c-0.598,-0 -1.111,-0.214 -1.538,-0.641c-0.427,-0.428 -0.641,-0.94 -0.641,-1.538c-0,-0.611 0.211,-1.129 0.632,-1.557c0.421,-0.427 0.937,-0.641 1.547,-0.641c0.61,0 1.129,0.214 1.556,0.641c0.428,0.428 0.641,0.946 0.641,1.557Z" style="fill-rule:nonzero;"/>
        <path d="M22.941,55.864c0,0.586 -0.207,1.095 -0.622,1.529c-0.415,0.433 -0.94,0.65 -1.575,0.65c-0.598,-0 -1.111,-0.214 -1.538,-0.641c-0.427,-0.428 -0.641,-0.94 -0.641,-1.538c-0,-0.611 0.211,-1.129 0.632,-1.557c0.421,-0.427 0.937,-0.641 1.547,-0.641c0.61,0 1.129,0.214 1.556,0.641c0.428,0.428 0.641,0.946 0.641,1.557Z" style="fill-rule:nonzero;"/>
        <path d="M22.941,74.614c0,0.586 -0.207,1.095 -0.622,1.529c-0.415,0.433 -0.94,0.65 -1.575,0.65c-0.598,-0 -1.111,-0.214 -1.538,-0.641c-0.427,-0.428 -0.641,-0.94 -0.641,-1.538c-0,-0.611 0.211,-1.129 0.632,-1.557c0.421,-0.427 0.937,-0.641 1.547,-0.641c0.61,0 1.129,0.214 1.556,0.641c0.428,0.428 0.641,0.946 0.641,1.557Z" style="fill-rule:nonzero;"/>
    </g>
    <path d="M121.604,14.856c0,0.586 -0.207,1.096 -0.622,1.529c-0.415,0.434 -0.94,0.65 -1.575,0.65c-0.598,0 -1.111,-0.213 -1.538,-0.641c-0.427,-0.427 -0.641,-0.94 -0.641,-1.538c0,-0.61 0.211,-1.129 0.632,-1.556c0.421,-0.427 0.937,-0.641 1.547,-0.641c0.611,0 1.129,0.214 1.557,0.641c0.427,0.427 0.64,0.946 0.64,1.556Z" style="fill-rule:nonzero;"/>
    <path d="M117.102,81.828c0,0.586 -0.207,1.096 -0.622,1.529c-0.415,0.434 -0.94,0.65 -1.575,0.65c-0.598,0 -1.111,-0.213 -1.538,-0.641c-0.427,-0.427 -0.641,-0.94 -0.641,-1.538c0,-0.61 0.211,-1.129 0.632,-1.556c0.421,-0.427 0.937,-0.641 1.547,-0.641c0.61,0 1.129,0.214 1.556,0.641c0.428,0.427 0.641,0.946 0.641,1.556Z" style="fill-rule:nonzero;"/>
    <path d="M126.468,151.164c-0,0.586 -0.208,1.096 -0.623,1.529c-0.415,0.434 -0.94,0.65 -1.574,0.65c-0.598,0 -1.111,-0.213 -1.538,-0.641c-0.428,-0.427 -0.641,-0.939 -0.641,-1.538c-0,-0.61 0.21,-1.129 0.631,-1.556c0.422,-0.427 0.937,-0.641 1.548,-0.641c0.61,0 1.129,0.214 1.556,0.641c0.427,0.427 0.641,0.946 0.641,1.556Z" style="fill-rule:nonzero;"/>
    <g>
        <path d="M146.862,8.256c0.188,-0.746 0.525,-2.092 0.525,-2.242c0,-0.487 -0.337,-1.083 -1.158,-1.083c-0.488,-0 -1.159,0.3 -1.459,1.008c-0.075,0.225 -1.866,7.433 -2.091,8.408c-0.225,0.896 -0.338,1.492 -0.375,2.388c0.15,0.937 -0.409,1.758 -0.971,2.504c-0.821,1.008 -1.642,1.271 -2.429,1.271c-1.342,-0 -3.063,-0.563 -3.063,-3.363c0,-1.941 0.971,-4.595 2.129,-7.658c0.188,-0.487 0.45,-1.121 0.45,-1.829c0,-1.833 -1.383,-3.142 -3.212,-3.142c-3.588,0 -5.083,5.309 -5.083,5.754c-0,0.338 0.262,0.45 0.525,0.45c0.408,0 0.445,-0.225 0.595,-0.712c0.788,-2.725 2.28,-4.554 3.85,-4.554c0.746,-0 0.896,0.483 0.896,1.229c0,0.637 -0.15,1.308 -0.487,2.204c-1.829,4.783 -2.204,6.167 -2.204,7.733c-0,4.263 3.625,4.821 5.491,4.821c1.459,0 2.842,-0.596 3.925,-2.541c1.121,2.204 3.475,2.541 4.859,2.541c2.65,0 4.258,-1.941 5.454,-4.408c1.046,-2.204 2.5,-7.508 2.5,-9.788c-0,-2.616 -1.379,-2.766 -1.717,-2.766c-0.933,-0 -1.904,1.012 -1.904,1.871c-0,0.558 0.333,0.858 0.596,1.083c1.008,0.933 1.346,2.129 1.346,3.1c-0,1.121 -0.934,4.558 -2.055,6.725c-0.82,1.604 -2.091,3.25 -4.112,3.25c-2.8,-0 -2.8,-2.617 -2.8,-3.288c-0,-1.008 0.187,-1.791 0.525,-3.1l1.454,-5.866Z" style="fill:rgb(35,31,32);fill-rule:nonzero;"/>
        <path d="M165.316,9.218c0,-0.75 -0.096,-0.75 -0.846,-0.75c-1.641,1.596 -4.183,1.596 -5.079,1.596l0,0.971c0.646,-0 2.292,-0 3.784,-0.696l-0,12.575c-0,0.825 -0,1.146 -2.563,1.146l-1.071,-0l0,0.971c1.367,-0.096 3.313,-0.096 4.704,-0.096c1.396,-0 3.338,-0 4.709,0.096l-0,-0.971l-1.071,-0c-2.567,-0 -2.567,-0.321 -2.567,-1.146l0,-13.696Z" style="fill:rgb(35,31,32);fill-rule:nonzero;"/>
    </g>
    <g>
        <path d="M140.5,75.228c0.187,-0.746 0.525,-2.092 0.525,-2.242c-0,-0.487 -0.338,-1.083 -1.159,-1.083c-0.487,-0 -1.158,0.3 -1.458,1.008c-0.075,0.225 -1.867,7.433 -2.092,8.408c-0.225,0.896 -0.333,1.492 -0.371,2.388c0.146,0.937 -0.412,1.758 -0.975,2.504c-0.82,1.008 -1.641,1.271 -2.425,1.271c-1.345,-0 -3.066,-0.563 -3.066,-3.363c-0,-1.941 0.975,-4.595 2.129,-7.658c0.187,-0.487 0.45,-1.121 0.45,-1.829c-0,-1.833 -1.383,-3.142 -3.213,-3.142c-3.587,0 -5.079,5.309 -5.079,5.754c0,0.338 0.259,0.45 0.521,0.45c0.413,0 0.45,-0.225 0.6,-0.712c0.783,-2.725 2.275,-4.554 3.846,-4.554c0.746,-0 0.896,0.483 0.896,1.229c-0,0.637 -0.15,1.308 -0.484,2.204c-1.833,4.783 -2.204,6.167 -2.204,7.733c0,4.263 3.621,4.821 5.492,4.821c1.454,0 2.837,-0.596 3.921,-2.541c1.121,2.204 3.475,2.541 4.858,2.541c2.65,0 4.258,-1.941 5.454,-4.408c1.046,-2.204 2.504,-7.508 2.504,-9.788c0,-2.616 -1.383,-2.766 -1.72,-2.766c-0.934,-0 -1.905,1.008 -1.905,1.871c0,0.558 0.338,0.858 0.596,1.083c1.009,0.933 1.346,2.129 1.346,3.1c0,1.121 -0.933,4.558 -2.054,6.725c-0.821,1.604 -2.092,3.25 -4.108,3.25c-2.805,-0 -2.805,-2.617 -2.805,-3.288c0,-1.008 0.188,-1.791 0.525,-3.1l1.455,-5.866Z" style="fill:rgb(35,31,32);fill-rule:nonzero;"/>
        <path d="M172.1,77.732c0.275,-1.046 0.77,-1.667 2.662,-1.742c0.15,0 0.55,-0.025 0.55,-0.6c0,-0.246 -0.15,-0.396 -0.4,-0.396c-0.596,0 -2.067,0.1 -2.662,0.1l-1.371,-0.025c-0.45,0 -0.971,-0.075 -1.396,-0.075c-0.421,0 -0.546,0.325 -0.546,0.621c0,0.375 0.396,0.375 0.596,0.375c1.171,0.025 1.646,0.35 1.646,0.996c-0,0.1 -0.025,0.25 -0.05,0.4l-2.742,10.933l-6.8,-12.879c-0.25,-0.421 -0.275,-0.446 -0.871,-0.446l-3.587,0c-0.471,0 -0.846,0 -0.846,0.621c-0,0.375 0.35,0.375 0.921,0.375c0.15,0 0.996,0 1.596,0.125l-3.288,13.125c-0.25,0.946 -0.625,1.692 -2.692,1.767c-0.325,-0 -0.545,0.175 -0.545,0.65c0.025,0.1 0.05,0.346 0.42,0.346c0.6,-0 2.067,-0.096 2.667,-0.096l1.371,0.025c0.446,-0 0.971,0.071 1.392,0.071c0.525,-0 0.55,-0.521 0.55,-0.646c-0.075,-0.35 -0.325,-0.35 -0.625,-0.35c-1.146,-0.025 -1.642,-0.346 -1.642,-0.996c-0,-0.15 0.025,-0.246 0.1,-0.521l3.187,-12.729l7.821,14.821c0.175,0.35 0.225,0.421 0.571,0.421c0.425,-0 0.475,-0.121 0.575,-0.571l3.438,-13.7Z" style="fill:rgb(35,31,32);fill-rule:nonzero;"/>
    </g>
    <path d="M144.767,136.272c0.15,-0.525 0.15,-0.6 0.15,-0.75c0,-0.333 -0.22,-0.521 -0.558,-0.521c-0.525,0 -3.812,0.3 -4.558,0.371c-0.375,0.038 -0.784,0.075 -0.784,0.713c0,0.483 0.409,0.483 1.009,0.483c1.754,-0 1.754,0.262 1.754,0.6c-0,0.225 -0,0.3 -0.263,1.308l-1.979,7.884c-0.521,2.091 -1.008,3.995 -1.421,5.75c-0.258,0.937 -0.52,2.058 -0.52,3.25c-0,3.216 1.791,5.979 5.004,5.979c4.371,-0 9.154,-5.267 9.154,-10.871c-0,-3.813 -2.354,-6.054 -5.154,-6.054c-1.904,-0 -3.55,1.308 -4.409,2.129l2.575,-10.271Zm-3.1,12.404c1.046,-1.496 2.955,-3.325 4.859,-3.325c1.754,0 2.466,1.754 2.466,3.509c0,1.683 -1.045,6.316 -2.204,8.296c-1.383,2.391 -3.029,3.249 -4.187,3.249c-1.867,0 -2.613,-1.866 -2.613,-3.775c0,-1.304 0.263,-2.316 1.121,-5.716l0.558,-2.238Z" style="fill:rgb(35,31,32);fill-rule:nonzero;"/>
    <path d="M400.747,71.769c0.038,-0.183 0.113,-0.408 0.113,-0.633c0,-0.487 -0.337,-1.083 -1.158,-1.083c-0.488,-0 -1.159,0.3 -1.459,1.008c-0.037,0.15 -0.408,1.683 -0.633,2.504l-1.867,7.471c-0.3,1.083 -0.3,1.158 -0.375,1.496c-0.037,0.15 -1.608,3.1 -4.295,3.1c-2.317,-0 -2.317,-2.354 -2.317,-3.063c-0,-1.683 0.483,-3.512 2.092,-7.695c0.3,-0.863 0.524,-1.384 0.524,-2.092c0,-1.833 -1.383,-3.142 -3.216,-3.142c-3.583,0 -5.079,5.309 -5.079,5.754c-0,0.338 0.262,0.45 0.525,0.45c0.408,0 0.445,-0.225 0.595,-0.712c0.784,-2.763 2.28,-4.554 3.851,-4.554c0.895,-0 0.895,0.708 0.895,1.229c0,0.637 -0.15,1.308 -0.487,2.204c-1.754,4.633 -2.242,6.204 -2.242,7.996c0,4.15 3.363,4.558 4.746,4.558c1.829,0 3.138,-0.971 3.808,-1.641c-0.483,1.904 -0.895,3.583 -2.35,5.454c-1.12,1.491 -2.616,2.5 -4.262,2.5c-1.046,-0 -2.279,-0.371 -2.8,-1.417c1.979,0 2.242,-1.646 2.242,-2.017c-0,-0.825 -0.6,-1.345 -1.421,-1.345c-0.896,-0 -2.092,0.708 -2.092,2.429c0,1.941 1.721,3.287 4.071,3.287c3.812,0 7.883,-3.25 8.967,-7.625l3.624,-14.421Z" style="fill:rgb(35,31,32);fill-rule:nonzero;"/>
    <path d="M206.807,43.57l10.722,9.377l-13.935,2.952l3.213,-12.329Z" style="fill:rgb(35,31,32);"/>
    <path d="M51.382,9.652c-0,0 120.557,31.415 156.284,40.725" style="fill:none;stroke:rgb(35,31,32);stroke-width:2.62px;"/>
    <path d="M195.414,86.528l13.453,4.68l-11.815,7.955l-1.638,-12.635Z" style="fill:rgb(35,31,32);"/>
    <path d="M51.382,111.623c-0,0 112.6,-14.597 147.378,-19.105" style="fill:none;stroke:rgb(35,31,32);stroke-width:2.62px;"/>
    <path d="M201.314,104.974l13.888,3.163l-10.864,9.213l-3.024,-12.376Z" style="fill:rgb(35,31,32);"/>
    <path d="M51.382,148.17c-0,0 118.474,-28.952 153.919,-37.613" style="fill:none;stroke:rgb(35,31,32);stroke-width:2.62px;"/>
    <path d="M366.083,75.358l12.74,6.37l-12.74,6.37l0,-12.74Z" style="fill:rgb(35,31,32);"/>
    <path d="M306.957,81.728l61.674,-0" style="fill:none;stroke:rgb(35,31,32);stroke-width:2.62px;"/>
</svg>
