<?xml version="1.0" encoding="UTF-8" standalone="no"?>
<!DOCTYPE svg PUBLIC "-//W3C//DTD SVG 1.1//EN" "http://www.w3.org/Graphics/SVG/1.1/DTD/svg11.dtd">
<svg width="100%" height="100%" viewBox="0 0 438 319" version="1.1" xmlns="http://www.w3.org/2000/svg" xmlns:xlink="http://www.w3.org/1999/xlink" xml:space="preserve" xmlns:serif="http://www.serif.com/" style="fill-rule:evenodd;clip-rule:evenodd;stroke-linecap:round;stroke-linejoin:round;stroke-miterlimit:1.5;">
    <circle cx="257.656" cy="51.113" r="49.302" style="fill:none;stroke:rgb(35,31,32);stroke-width:2.62px;"/>
    <circle cx="257.656" cy="264.661" r="49.302" style="fill:none;stroke:rgb(35,31,32);stroke-width:2.62px;"/>
    <path d="M256.162,51.748c0.371,-0.412 0.371,-0.52 0.371,-0.633c0,-0.037 0,-0.225 -0.296,-0.6l-12.404,-16.475l15.092,0c2.804,0 5.604,0.15 8.333,0.896c3.475,1.008 6.312,3.25 7.471,6.354l1.046,0l-3.288,-8.858l-31.866,-0c-1.046,-0 -1.084,0.037 -1.084,1.271l14.008,18.683l-13.637,16.325c-0.333,0.371 -0.371,0.483 -0.371,0.596c0,0.487 0.408,0.487 1.084,0.487l31.866,0l3.288,-9.416l-1.046,-0c-1.046,2.954 -3.7,5.233 -7.1,6.279c-0.521,0.15 -3.213,0.971 -8.479,0.971l-16.25,-0l13.262,-15.88Z" style="fill:rgb(35,31,32);fill-rule:nonzero;"/>
    <path d="M256.162,265.296c0.371,-0.412 0.371,-0.521 0.371,-0.633c0,-0.037 0,-0.225 -0.296,-0.6l-12.404,-16.475l15.092,-0c2.804,-0 5.604,0.15 8.333,0.896c3.475,1.008 6.312,3.25 7.471,6.354l1.046,0l-3.288,-8.858l-31.866,-0c-1.046,-0 -1.084,0.037 -1.084,1.271l14.008,18.683l-13.637,16.325c-0.333,0.371 -0.371,0.483 -0.371,0.596c0,0.487 0.408,0.487 1.084,0.487l31.866,0l3.288,-9.416l-1.046,-0c-1.046,2.954 -3.7,5.233 -7.1,6.279c-0.521,0.15 -3.213,0.971 -8.479,0.971l-16.25,-0l13.262,-15.88Z" style="fill:rgb(35,31,32);fill-rule:nonzero;"/>
    <g>
        <g>
            <g>
                <path d="M21.29,51.251c-1.384,0.263 -1.792,1.459 -1.792,2.017c-0,0.712 0.521,1.346 1.454,1.346c1.046,-0 2.054,-0.896 2.054,-2.204c0,-1.717 -1.866,-2.58 -3.621,-2.58c-2.241,0 -3.55,1.984 -4,2.767c-0.708,-1.829 -2.354,-2.767 -4.145,-2.767c-3.996,0 -6.163,4.784 -6.163,5.755c0,0.337 0.258,0.45 0.521,0.45c0.337,-0 0.45,-0.188 0.525,-0.413c1.158,-3.7 3.621,-4.854 5.042,-4.854c1.083,-0 2.054,0.708 2.054,2.462c-0,1.346 -1.604,7.325 -2.092,9.117c-0.3,1.158 -1.421,3.475 -3.475,3.475c-0.746,0 -1.529,-0.263 -1.904,-0.487c1.008,-0.184 1.754,-1.046 1.754,-2.017c0,-0.933 -0.708,-1.346 -1.417,-1.346c-1.083,0 -2.058,0.938 -2.058,2.204c0,1.833 2.021,2.579 3.588,2.579c2.166,0 3.437,-1.791 4,-2.8c0.933,2.463 3.137,2.8 4.145,2.8c4.034,0 6.163,-4.858 6.163,-5.754c-0,-0.187 -0.113,-0.446 -0.483,-0.446c-0.413,0 -0.45,0.15 -0.638,0.709c-0.821,2.691 -2.987,4.558 -4.929,4.558c-1.083,0 -2.092,-0.671 -2.092,-2.467c0,-0.82 0.521,-2.875 0.859,-4.296c0.15,-0.67 1.158,-4.708 1.233,-4.966c0.446,-1.346 1.567,-3.325 3.475,-3.325c0.671,-0 1.379,0.108 1.942,0.483Z" style="fill:rgb(35,31,32);fill-rule:nonzero;"/>
            </g>
            <path d="M33.848,54.53c-0,-0.75 -0.096,-0.75 -0.846,-0.75c-1.642,1.596 -4.183,1.596 -5.079,1.596l-0,0.971c0.646,-0 2.292,-0 3.783,-0.696l0,12.575c0,0.825 0,1.146 -2.562,1.146l-1.071,0l-0,0.971c1.367,-0.096 3.312,-0.096 4.704,-0.096c1.396,-0 3.338,-0 4.708,0.096l0,-0.971l-1.07,0c-2.567,0 -2.567,-0.321 -2.567,-1.146l-0,-13.696Z" style="fill:rgb(35,31,32);fill-rule:nonzero;"/>
        </g>
        <g>
            <path d="M17.263,175.109c-1.384,0.262 -1.792,1.458 -1.792,2.017c-0,0.712 0.521,1.346 1.454,1.346c1.046,-0 2.054,-0.896 2.054,-2.205c0,-1.716 -1.866,-2.579 -3.621,-2.579c-2.241,0 -3.55,1.984 -4,2.767c-0.708,-1.829 -2.354,-2.767 -4.145,-2.767c-3.996,0 -6.163,4.784 -6.163,5.754c-0,0.338 0.258,0.45 0.521,0.45c0.337,0 0.45,-0.187 0.525,-0.412c1.158,-3.7 3.621,-4.854 5.042,-4.854c1.083,-0 2.054,0.708 2.054,2.462c-0,1.346 -1.605,7.325 -2.092,9.117c-0.3,1.158 -1.421,3.475 -3.475,3.475c-0.746,-0 -1.529,-0.263 -1.904,-0.488c1.008,-0.183 1.754,-1.046 1.754,-2.016c-0,-0.934 -0.708,-1.346 -1.417,-1.346c-1.083,-0 -2.058,0.937 -2.058,2.204c-0,1.833 2.021,2.579 3.588,2.579c2.166,0 3.437,-1.791 3.999,-2.8c0.934,2.463 3.138,2.8 4.146,2.8c4.034,0 6.163,-4.858 6.163,-5.754c-0,-0.187 -0.113,-0.446 -0.483,-0.446c-0.413,0 -0.451,0.15 -0.638,0.709c-0.821,2.691 -2.988,4.558 -4.929,4.558c-1.083,-0 -2.092,-0.671 -2.092,-2.467c0,-0.821 0.521,-2.875 0.859,-4.296c0.15,-0.67 1.158,-4.708 1.233,-4.966c0.446,-1.346 1.567,-3.325 3.475,-3.325c0.671,-0 1.379,0.108 1.942,0.483Z" style="fill:rgb(35,31,32);fill-rule:nonzero;"/>
            <path d="M42.8,179.93c0.275,-1.046 0.771,-1.667 2.663,-1.742c0.149,0 0.549,-0.025 0.549,-0.6c0,-0.246 -0.149,-0.396 -0.4,-0.396c-0.595,0 -2.066,0.1 -2.662,0.1l-1.371,-0.025c-0.45,0 -0.971,-0.075 -1.396,-0.075c-0.421,0 -0.545,0.325 -0.545,0.621c-0,0.375 0.395,0.375 0.595,0.375c1.171,0.025 1.646,0.35 1.646,0.996c0,0.1 -0.025,0.25 -0.05,0.4l-2.741,10.933l-6.8,-12.879c-0.25,-0.421 -0.276,-0.446 -0.871,-0.446l-3.588,0c-0.471,0 -0.846,0 -0.846,0.621c0,0.375 0.35,0.375 0.921,0.375c0.15,0 0.996,0 1.596,0.125l-3.287,13.125c-0.25,0.946 -0.626,1.692 -2.692,1.767c-0.325,-0 -0.546,0.175 -0.546,0.65c0.025,0.1 0.05,0.346 0.421,0.346c0.6,-0 2.067,-0.096 2.667,-0.096l1.37,0.025c0.446,-0 0.971,0.071 1.392,0.071c0.525,-0 0.55,-0.521 0.55,-0.646c-0.075,-0.35 -0.325,-0.35 -0.625,-0.35c-1.146,-0.025 -1.642,-0.346 -1.642,-0.996c0,-0.15 0.025,-0.246 0.1,-0.521l3.188,-12.729l7.821,14.821c0.175,0.35 0.225,0.421 0.57,0.421c0.426,-0 0.476,-0.121 0.575,-0.571l3.438,-13.7Z" style="fill:rgb(35,31,32);fill-rule:nonzero;"/>
        </g>
        <path d="M24.556,229.959c0,-0.934 -0.037,-1.009 -0.971,-1.009c-2.316,2.392 -5.754,2.392 -6.912,2.392l-0,1.158c0.712,0 2.992,0 5.008,-0.971l0,19.313c0,1.383 -0.112,1.833 -3.587,1.833l-1.196,0l-0,1.155c1.346,-0.109 4.671,-0.109 6.204,-0.109c1.529,0 4.892,0 6.238,0.109l-0,-1.155l-1.196,0c-3.475,0 -3.588,-0.45 -3.588,-1.833l0,-20.883Z" style="fill:rgb(35,31,32);fill-rule:nonzero;"/>
        <path d="M22.941,99.205c0,0.586 -0.207,1.096 -0.622,1.529c-0.415,0.434 -0.94,0.65 -1.575,0.65c-0.598,0 -1.111,-0.213 -1.538,-0.641c-0.427,-0.427 -0.641,-0.939 -0.641,-1.538c-0,-0.61 0.211,-1.129 0.632,-1.556c0.421,-0.427 0.937,-0.641 1.547,-0.641c0.61,0 1.129,0.214 1.556,0.641c0.428,0.427 0.641,0.946 0.641,1.556Z" style="fill-rule:nonzero;"/>
        <path d="M22.941,117.955c0,0.586 -0.207,1.096 -0.622,1.529c-0.415,0.434 -0.94,0.65 -1.575,0.65c-0.598,0 -1.111,-0.213 -1.538,-0.641c-0.427,-0.427 -0.641,-0.939 -0.641,-1.538c-0,-0.61 0.211,-1.129 0.632,-1.556c0.421,-0.427 0.937,-0.641 1.547,-0.641c0.61,0 1.129,0.214 1.556,0.641c0.428,0.427 0.641,0.946 0.641,1.556Z" style="fill-rule:nonzero;"/>
        <path d="M22.941,136.705c0,0.586 -0.207,1.096 -0.622,1.529c-0.415,0.434 -0.94,0.65 -1.575,0.65c-0.598,0 -1.111,-0.213 -1.538,-0.641c-0.427,-0.427 -0.641,-0.939 -0.641,-1.538c-0,-0.61 0.211,-1.129 0.632,-1.556c0.421,-0.427 0.937,-0.641 1.547,-0.641c0.61,0 1.129,0.214 1.556,0.641c0.428,0.427 0.641,0.946 0.641,1.556Z" style="fill-rule:nonzero;"/>
    </g>
    <path d="M194.97,37.154l13.384,4.872l-11.928,7.784l-1.456,-12.656Z" style="fill:rgb(35,31,32);"/>
    <path d="M51.382,60.087c-0,-0 112.124,-12.901 146.847,-16.896" style="fill:none;stroke:rgb(35,31,32);stroke-width:2.62px;"/>
    <path d="M229.319,206.799l5.416,13.174l-13.789,-3.572l8.373,-9.602Z" style="fill:rgb(35,31,32);"/>
    <path d="M51.382,60.087c-0,-0 140.907,122.873 175.671,153.188" style="fill:none;stroke:rgb(35,31,32);stroke-width:2.62px;"/>
    <path d="M196.593,70.563l14.051,-2.337l-6.561,12.643l-7.49,-10.306Z" style="fill:rgb(35,31,32);"/>
    <path d="M51.382,183.965c-0,0 118.38,-86.029 151.017,-109.747" style="fill:none;stroke:rgb(35,31,32);stroke-width:2.62px;"/>
    <path d="M199.431,244.879l8.923,11.103l-14.236,0.477l5.313,-11.58Z" style="fill:rgb(35,31,32);"/>
    <path d="M51.382,183.965c-0,0 114.022,52.312 147.709,67.767" style="fill:none;stroke:rgb(35,31,32);stroke-width:2.62px;"/>
    <path d="M201.545,82.901l13.571,-4.326l-4.682,13.453l-8.889,-9.127Z" style="fill:rgb(35,31,32);"/>
    <path d="M51.382,238.04c-0,-0 124.657,-121.406 156.433,-152.354" style="fill:none;stroke:rgb(35,31,32);stroke-width:2.62px;"/>
    <path d="M366.083,44.743l12.74,6.37l-12.74,6.37l0,-12.74Z" style="fill:rgb(35,31,32);"/>
    <path d="M306.957,51.113l61.674,0" style="fill:none;stroke:rgb(35,31,32);stroke-width:2.62px;"/>
    <path d="M366.083,258.291l12.74,6.37l-12.74,6.37l0,-12.74Z" style="fill:rgb(35,31,32);"/>
    <path d="M306.957,264.661l61.674,-0" style="fill:none;stroke:rgb(35,31,32);stroke-width:2.62px;"/>
    <g>
        <path d="M231.945,180.444c0.187,-0.745 0.524,-2.091 0.524,-2.241c0,-0.488 -0.337,-1.084 -1.158,-1.084c-0.487,0 -1.158,0.3 -1.458,1.009c-0.075,0.225 -1.867,7.433 -2.092,8.408c-0.225,0.896 -0.337,1.492 -0.375,2.387c0.15,0.938 -0.408,1.759 -0.971,2.505c-0.821,1.008 -1.641,1.271 -2.429,1.271c-1.342,-0 -3.062,-0.563 -3.062,-3.363c-0,-1.942 0.97,-4.596 2.129,-7.658c0.187,-0.488 0.45,-1.121 0.45,-1.83c-0,-1.833 -1.383,-3.141 -3.213,-3.141c-3.587,-0 -5.083,5.308 -5.083,5.754c-0,0.337 0.262,0.45 0.525,0.45c0.408,0 0.446,-0.225 0.596,-0.713c0.787,-2.725 2.279,-4.554 3.85,-4.554c0.746,0 0.896,0.484 0.896,1.229c-0,0.638 -0.15,1.309 -0.488,2.205c-1.829,4.783 -2.204,6.166 -2.204,7.733c-0,4.263 3.625,4.821 5.492,4.821c1.458,-0 2.841,-0.596 3.925,-2.542c1.121,2.204 3.475,2.542 4.858,2.542c2.65,-0 4.258,-1.942 5.454,-4.409c1.046,-2.204 2.5,-7.508 2.5,-9.787c0,-2.617 -1.379,-2.767 -1.716,-2.767c-0.934,0 -1.905,1.013 -1.905,1.871c0,0.558 0.334,0.858 0.596,1.084c1.008,0.933 1.346,2.129 1.346,3.099c0,1.121 -0.933,4.559 -2.054,6.726c-0.821,1.604 -2.092,3.25 -4.113,3.25c-2.8,-0 -2.8,-2.617 -2.8,-3.288c0,-1.008 0.188,-1.792 0.525,-3.1l1.455,-5.867Z" style="fill:rgb(35,31,32);fill-rule:nonzero;"/>
        <path d="M257.578,167.207c-0.025,-0.021 -0.15,-0.271 -0.15,-0.296c-0,-0.025 0.025,-0.05 0.425,-0.325c2.537,-1.742 5.9,-4.033 7.296,-4.708c0.845,-0.396 1.545,-0.621 2.366,-0.671c0.25,-0.025 0.571,-0.05 0.571,-0.625c0,-0.171 -0.146,-0.346 -0.346,-0.346c-0.55,-0 -1.246,0.075 -1.846,0.075c-0.37,-0 -1.216,-0 -1.591,-0.025c-0.3,-0.025 -1.221,-0.075 -1.471,-0.075c-0.15,0 -0.571,0 -0.571,0.621c0,0.35 0.346,0.375 0.421,0.375c0.575,0.025 0.575,0.2 0.575,0.325c0,0.321 -0.525,0.721 -0.625,0.796c-0.075,0.05 -0.1,0.075 -0.125,0.1c-0.025,0.025 -0.246,0.175 -0.321,0.225l-10.833,7.32l1.941,-7.745c0.2,-0.821 0.25,-1.021 2.242,-1.021c0.446,-0 0.796,-0 0.796,-0.625c-0,-0.121 -0.075,-0.371 -0.425,-0.371c-0.521,0 -1.121,0.075 -1.667,0.075c-0.55,-0 -1.12,0.025 -1.671,0.025c-0.57,-0 -1.145,-0.025 -1.716,-0.025c-0.55,-0 -1.171,-0.075 -1.717,-0.075c-0.15,0 -0.55,0 -0.55,0.621c0,0.375 0.325,0.375 0.796,0.375c0.45,-0 1.071,-0 1.596,0.175c-0,0.25 -0,0.396 -0.1,0.796l-3.263,12.975c-0.225,0.9 -0.275,1.07 -2.141,1.07c-0.575,0 -0.896,0 -0.896,0.625c-0,0.2 0.146,0.371 0.421,0.371c0.525,0 1.12,-0.07 1.67,-0.07c0.571,-0 1.121,-0.026 1.667,-0.026c0.575,0 1.146,0.026 1.721,0.026c0.546,-0 1.171,0.07 1.692,0.07c0.175,0 0.575,0 0.575,-0.621c-0,-0.375 -0.3,-0.375 -0.825,-0.375c-0.05,0 -0.496,0 -0.946,-0.049c-0.496,-0.05 -0.646,-0.05 -0.646,-0.321c0,-0.1 0.175,-0.725 0.25,-1.096c0.121,-0.425 0.121,-0.475 0.271,-1.071c0.35,-1.296 0.35,-1.346 0.625,-2.542l4.333,-2.912l4.084,7.271c-0,0.325 -0,0.695 -1.121,0.72c-0.3,0 -0.671,0 -0.671,0.625c-0,0.2 0.15,0.371 0.421,0.371c0.725,0 2.566,-0.096 3.287,-0.096c0.425,0 0.85,0.026 1.271,0.026c0.425,-0 0.9,0.07 1.296,0.07c0.275,0 0.55,-0.145 0.55,-0.621c-0,-0.375 -0.4,-0.375 -0.6,-0.375c-1.296,-0.025 -1.492,-0.37 -1.792,-0.92l-4.533,-8.096Z" style="fill:rgb(35,31,32);fill-rule:nonzero;"/>
        <path d="M250.399,183.907c-0,-0.75 -0.096,-0.75 -0.846,-0.75c-1.642,1.596 -4.183,1.596 -5.079,1.596l-0,0.97c0.646,0 2.291,0 3.783,-0.695l-0,12.575c-0,0.825 -0,1.146 -2.562,1.146l-1.071,-0l-0,0.97c1.366,-0.096 3.312,-0.096 4.704,-0.096c1.396,0 3.337,0 4.708,0.096l0,-0.97l-1.071,-0c-2.566,-0 -2.566,-0.321 -2.566,-1.146l-0,-13.696Z" style="fill:rgb(35,31,32);fill-rule:nonzero;"/>
    </g>
    <g>
        <path d="M170.048,217.765c0.187,-0.746 0.525,-2.092 0.525,-2.242c-0,-0.487 -0.338,-1.083 -1.159,-1.083c-0.487,-0 -1.158,0.3 -1.458,1.008c-0.075,0.225 -1.867,7.433 -2.092,8.408c-0.225,0.896 -0.333,1.492 -0.371,2.388c0.146,0.937 -0.412,1.758 -0.975,2.504c-0.82,1.008 -1.641,1.271 -2.425,1.271c-1.345,-0 -3.066,-0.563 -3.066,-3.363c-0,-1.941 0.975,-4.595 2.129,-7.658c0.187,-0.488 0.45,-1.121 0.45,-1.829c-0,-1.834 -1.383,-3.142 -3.213,-3.142c-3.587,0 -5.079,5.309 -5.079,5.754c0,0.338 0.259,0.45 0.521,0.45c0.413,0 0.45,-0.225 0.6,-0.712c0.783,-2.725 2.275,-4.554 3.846,-4.554c0.746,-0 0.896,0.483 0.896,1.229c-0,0.637 -0.15,1.308 -0.484,2.204c-1.833,4.783 -2.204,6.167 -2.204,7.733c0,4.263 3.621,4.821 5.492,4.821c1.454,0 2.837,-0.596 3.921,-2.542c1.121,2.205 3.475,2.542 4.858,2.542c2.65,0 4.258,-1.941 5.454,-4.408c1.046,-2.204 2.504,-7.509 2.504,-9.788c0,-2.616 -1.383,-2.766 -1.72,-2.766c-0.934,-0 -1.905,1.008 -1.905,1.871c0,0.558 0.338,0.858 0.596,1.083c1.009,0.933 1.346,2.129 1.346,3.1c0,1.121 -0.933,4.558 -2.054,6.725c-0.821,1.604 -2.092,3.25 -4.108,3.25c-2.805,-0 -2.805,-2.617 -2.805,-3.288c0,-1.008 0.188,-1.791 0.525,-3.1l1.455,-5.866Z" style="fill:rgb(35,31,32);fill-rule:nonzero;"/>
        <path d="M195.848,204.527c-0.025,-0.021 -0.15,-0.271 -0.15,-0.296c-0,-0.025 0.025,-0.05 0.425,-0.325c2.537,-1.741 5.9,-4.033 7.295,-4.708c0.846,-0.396 1.546,-0.621 2.367,-0.671c0.25,-0.025 0.571,-0.05 0.571,-0.625c-0,-0.171 -0.146,-0.346 -0.346,-0.346c-0.55,0 -1.246,0.075 -1.846,0.075c-0.371,0 -1.216,0 -1.591,-0.025c-0.3,-0.025 -1.221,-0.075 -1.471,-0.075c-0.15,0 -0.571,0 -0.571,0.621c-0,0.35 0.346,0.375 0.421,0.375c0.575,0.025 0.575,0.2 0.575,0.325c-0,0.321 -0.525,0.721 -0.625,0.796c-0.075,0.05 -0.1,0.075 -0.125,0.1c-0.025,0.025 -0.246,0.175 -0.321,0.225l-10.833,7.321l1.941,-7.746c0.2,-0.821 0.25,-1.021 2.242,-1.021c0.446,0 0.796,0 0.796,-0.625c-0,-0.121 -0.075,-0.371 -0.425,-0.371c-0.521,0 -1.121,0.075 -1.667,0.075c-0.55,0 -1.121,0.025 -1.671,0.025c-0.571,0 -1.146,-0.025 -1.716,-0.025c-0.55,0 -1.171,-0.075 -1.717,-0.075c-0.15,0 -0.55,0 -0.55,0.621c-0,0.375 0.325,0.375 0.796,0.375c0.45,0 1.071,0 1.596,0.175c-0,0.25 -0,0.396 -0.1,0.796l-3.263,12.975c-0.225,0.9 -0.275,1.071 -2.142,1.071c-0.575,-0 -0.895,-0 -0.895,0.625c-0,0.2 0.145,0.371 0.42,0.371c0.525,-0 1.121,-0.071 1.671,-0.071c0.571,-0 1.121,-0.025 1.667,-0.025c0.575,-0 1.146,0.025 1.721,0.025c0.546,-0 1.171,0.071 1.691,0.071c0.175,-0 0.575,-0 0.575,-0.621c0,-0.375 -0.3,-0.375 -0.825,-0.375c-0.05,-0 -0.495,-0 -0.945,-0.05c-0.496,-0.05 -0.646,-0.05 -0.646,-0.321c-0,-0.1 0.175,-0.725 0.25,-1.096c0.121,-0.425 0.121,-0.475 0.271,-1.071c0.35,-1.296 0.35,-1.346 0.625,-2.541l4.333,-2.913l4.083,7.271c0,0.325 0,0.696 -1.121,0.721c-0.3,-0 -0.67,-0 -0.67,0.625c-0,0.2 0.15,0.371 0.42,0.371c0.725,-0 2.567,-0.096 3.288,-0.096c0.425,-0 0.85,0.025 1.271,0.025c0.425,-0 0.9,0.071 1.296,0.071c0.275,-0 0.55,-0.146 0.55,-0.621c-0,-0.375 -0.4,-0.375 -0.6,-0.375c-1.296,-0.025 -1.492,-0.371 -1.792,-0.921l-4.533,-8.096Z" style="fill:rgb(35,31,32);fill-rule:nonzero;"/>
        <path d="M201.648,223.769c0.275,-1.046 0.77,-1.667 2.662,-1.742c0.15,0 0.55,-0.025 0.55,-0.6c0,-0.246 -0.15,-0.396 -0.4,-0.396c-0.596,0 -2.067,0.1 -2.662,0.1l-1.371,-0.025c-0.45,0 -0.971,-0.075 -1.396,-0.075c-0.421,0 -0.546,0.325 -0.546,0.621c0,0.375 0.396,0.375 0.596,0.375c1.171,0.025 1.646,0.35 1.646,0.996c-0,0.1 -0.025,0.25 -0.05,0.4l-2.742,10.933l-6.8,-12.879c-0.25,-0.421 -0.275,-0.446 -0.871,-0.446l-3.587,0c-0.471,0 -0.846,0 -0.846,0.621c-0,0.375 0.35,0.375 0.921,0.375c0.15,0 0.996,0 1.596,0.125l-3.288,13.125c-0.25,0.946 -0.625,1.692 -2.692,1.767c-0.325,-0 -0.545,0.175 -0.545,0.65c0.025,0.1 0.05,0.346 0.42,0.346c0.6,-0 2.067,-0.096 2.667,-0.096l1.371,0.025c0.446,-0 0.971,0.071 1.392,0.071c0.525,-0 0.55,-0.521 0.55,-0.646c-0.075,-0.35 -0.325,-0.35 -0.625,-0.35c-1.146,-0.025 -1.642,-0.346 -1.642,-0.996c-0,-0.15 0.025,-0.246 0.1,-0.521l3.187,-12.729l7.821,14.821c0.175,0.35 0.225,0.421 0.571,0.421c0.425,-0 0.475,-0.121 0.575,-0.571l3.438,-13.7Z" style="fill:rgb(35,31,32);fill-rule:nonzero;"/>
    </g>
    <g>
        <path d="M153.178,284.525c0.15,-0.525 0.15,-0.6 0.15,-0.75c-0,-0.333 -0.221,-0.521 -0.559,-0.521c-0.525,0 -3.812,0.3 -4.558,0.371c-0.375,0.038 -0.783,0.075 -0.783,0.713c-0,0.483 0.408,0.483 1.008,0.483c1.754,-0 1.754,0.262 1.754,0.6c0,0.225 0,0.3 -0.262,1.308l-1.979,7.884c-0.521,2.091 -1.009,3.995 -1.421,5.75c-0.259,0.937 -0.521,2.058 -0.521,3.25c-0,3.216 1.792,5.979 5.004,5.979c4.371,-0 9.154,-5.267 9.154,-10.871c0,-3.813 -2.354,-6.054 -5.154,-6.054c-1.904,-0 -3.55,1.308 -4.408,2.129l2.575,-10.271Zm-3.1,12.404c1.046,-1.496 2.954,-3.325 4.858,-3.325c1.754,0 2.467,1.754 2.467,3.509c-0,1.683 -1.046,6.316 -2.204,8.296c-1.384,2.391 -3.03,3.25 -4.188,3.25c-1.867,-0 -2.612,-1.867 -2.612,-3.775c-0,-1.305 0.262,-2.317 1.12,-5.717l0.559,-2.238Z" style="fill:rgb(35,31,32);fill-rule:nonzero;"/>
        <path d="M175.869,283.167c-0.025,-0.021 -0.15,-0.271 -0.15,-0.296c0,-0.025 0.025,-0.05 0.425,-0.325c2.538,-1.742 5.9,-4.033 7.296,-4.708c0.846,-0.396 1.546,-0.621 2.367,-0.671c0.25,-0.025 0.571,-0.05 0.571,-0.625c-0,-0.171 -0.146,-0.346 -0.346,-0.346c-0.55,-0 -1.246,0.075 -1.846,0.075c-0.371,-0 -1.217,-0 -1.592,-0.025c-0.3,-0.025 -1.22,-0.075 -1.47,-0.075c-0.15,0 -0.571,0 -0.571,0.621c-0,0.35 0.346,0.375 0.421,0.375c0.575,0.025 0.575,0.2 0.575,0.325c-0,0.321 -0.525,0.721 -0.625,0.796c-0.075,0.05 -0.1,0.075 -0.125,0.1c-0.025,0.025 -0.246,0.175 -0.321,0.225l-10.834,7.32l1.942,-7.745c0.2,-0.821 0.25,-1.021 2.242,-1.021c0.446,-0 0.796,-0 0.796,-0.625c-0,-0.121 -0.075,-0.371 -0.425,-0.371c-0.521,0 -1.121,0.075 -1.667,0.075c-0.55,-0 -1.121,0.025 -1.671,0.025c-0.571,-0 -1.146,-0.025 -1.717,-0.025c-0.55,-0 -1.17,-0.075 -1.716,-0.075c-0.15,0 -0.55,0 -0.55,0.621c-0,0.375 0.325,0.375 0.796,0.375c0.45,-0 1.07,-0 1.595,0.175c0,0.25 0,0.396 -0.1,0.796l-3.262,12.975c-0.225,0.9 -0.275,1.07 -2.142,1.07c-0.575,0 -0.896,0 -0.896,0.625c0,0.2 0.146,0.371 0.421,0.371c0.525,0 1.121,-0.07 1.671,-0.07c0.571,-0 1.121,-0.026 1.667,-0.026c0.575,0 1.146,0.026 1.721,0.026c0.545,-0 1.17,0.07 1.691,0.07c0.175,0 0.575,0 0.575,-0.621c0,-0.375 -0.3,-0.375 -0.825,-0.375c-0.05,0 -0.496,0 -0.946,-0.049c-0.495,-0.05 -0.645,-0.05 -0.645,-0.321c-0,-0.1 0.175,-0.725 0.25,-1.096c0.12,-0.425 0.12,-0.475 0.27,-1.071c0.35,-1.296 0.35,-1.346 0.625,-2.542l4.334,-2.912l4.083,7.271c0,0.325 0,0.695 -1.121,0.72c-0.3,0 -0.671,0 -0.671,0.625c0,0.2 0.15,0.371 0.421,0.371c0.725,0 2.567,-0.096 3.288,-0.096c0.425,0 0.85,0.026 1.271,0.026c0.425,-0 0.9,0.07 1.295,0.07c0.275,0 0.55,-0.145 0.55,-0.621c0,-0.375 -0.4,-0.375 -0.6,-0.375c-1.295,-0.025 -1.491,-0.37 -1.791,-0.92l-4.534,-8.096Z" style="fill:rgb(35,31,32);fill-rule:nonzero;"/>
    </g>
    <g>
        <path d="M405.676,42.614c0.037,-0.183 0.112,-0.408 0.112,-0.633c0,-0.488 -0.337,-1.084 -1.158,-1.084c-0.487,0 -1.158,0.3 -1.458,1.009c-0.038,0.15 -0.409,1.683 -0.634,2.504l-1.866,7.471c-0.3,1.083 -0.3,1.158 -0.375,1.496c-0.038,0.15 -1.609,3.1 -4.296,3.1c-2.317,-0 -2.317,-2.354 -2.317,-3.063c0,-1.683 0.484,-3.512 2.092,-7.696c0.3,-0.862 0.525,-1.383 0.525,-2.091c-0,-1.834 -1.383,-3.142 -3.217,-3.142c-3.583,-0 -5.079,5.308 -5.079,5.754c0,0.338 0.263,0.45 0.525,0.45c0.408,0 0.446,-0.225 0.596,-0.712c0.783,-2.763 2.279,-4.555 3.85,-4.555c0.896,0 0.896,0.709 0.896,1.23c-0,0.637 -0.15,1.308 -0.488,2.204c-1.754,4.633 -2.241,6.204 -2.241,7.996c-0,4.15 3.362,4.558 4.745,4.558c1.83,0 3.138,-0.971 3.809,-1.642c-0.484,1.904 -0.896,3.584 -2.35,5.454c-1.121,1.492 -2.617,2.5 -4.263,2.5c-1.046,0 -2.279,-0.37 -2.8,-1.416c1.979,-0 2.242,-1.646 2.242,-2.017c-0,-0.825 -0.6,-1.346 -1.421,-1.346c-0.896,0 -2.092,0.709 -2.092,2.429c0,1.942 1.721,3.288 4.071,3.288c3.813,-0 7.884,-3.25 8.967,-7.625l3.625,-14.421Z" style="fill:rgb(35,31,32);fill-rule:nonzero;"/>
        <path d="M414.83,45.185c0,-0.75 -0.096,-0.75 -0.846,-0.75c-1.641,1.596 -4.183,1.596 -5.079,1.596l0,0.971c0.646,-0 2.292,-0 3.783,-0.696l0,12.575c0,0.825 0,1.146 -2.562,1.146l-1.071,-0l0,0.97c1.367,-0.095 3.313,-0.095 4.704,-0.095c1.396,-0 3.338,-0 4.709,0.095l-0,-0.97l-1.071,-0c-2.567,-0 -2.567,-0.321 -2.567,-1.146l0,-13.696Z" style="fill:rgb(35,31,32);fill-rule:nonzero;"/>
    </g>
    <g>
        <path d="M408.6,254.703c0.037,-0.184 0.112,-0.409 0.112,-0.634c0,-0.487 -0.337,-1.083 -1.158,-1.083c-0.488,-0 -1.159,0.3 -1.459,1.008c-0.037,0.15 -0.412,1.684 -0.637,2.504l-1.867,7.471c-0.3,1.084 -0.3,1.159 -0.375,1.496c-0.033,0.15 -1.604,3.1 -4.296,3.1c-2.316,0 -2.316,-2.354 -2.316,-3.062c-0,-1.684 0.487,-3.513 2.096,-7.696c0.295,-0.863 0.52,-1.384 0.52,-2.092c0,-1.833 -1.383,-3.142 -3.212,-3.142c-3.588,0 -5.079,5.309 -5.079,5.755c-0,0.337 0.258,0.45 0.521,0.45c0.412,-0 0.45,-0.225 0.6,-0.713c0.783,-2.762 2.275,-4.554 3.845,-4.554c0.896,-0 0.896,0.708 0.896,1.229c0,0.638 -0.15,1.308 -0.483,2.204c-1.758,4.634 -2.242,6.204 -2.242,7.996c0,4.146 3.363,4.558 4.742,4.558c1.833,0 3.141,-0.97 3.812,-1.641c-0.487,1.904 -0.895,3.583 -2.354,5.454c-1.121,1.492 -2.616,2.5 -4.258,2.5c-1.046,-0 -2.279,-0.371 -2.804,-1.417c1.983,0 2.241,-1.646 2.241,-2.016c0,-0.825 -0.595,-1.346 -1.416,-1.346c-0.896,-0 -2.092,0.708 -2.092,2.429c-0,1.942 1.717,3.287 4.071,3.287c3.812,0 7.883,-3.25 8.967,-7.625l3.625,-14.42Z" style="fill:rgb(35,31,32);fill-rule:nonzero;"/>
        <path d="M423.962,263.073c-0.025,-0.02 -0.15,-0.27 -0.15,-0.295c0,-0.025 0.025,-0.05 0.425,-0.325c2.538,-1.742 5.9,-4.034 7.296,-4.709c0.846,-0.396 1.546,-0.621 2.367,-0.671c0.249,-0.025 0.57,-0.05 0.57,-0.625c0,-0.17 -0.145,-0.345 -0.345,-0.345c-0.55,-0 -1.246,0.075 -1.846,0.075c-0.371,-0 -1.217,-0 -1.592,-0.025c-0.3,-0.025 -1.221,-0.075 -1.471,-0.075c-0.15,-0 -0.571,-0 -0.571,0.62c0,0.35 0.346,0.375 0.421,0.375c0.575,0.025 0.575,0.2 0.575,0.325c0,0.321 -0.525,0.721 -0.625,0.796c-0.075,0.05 -0.1,0.075 -0.125,0.1c-0.025,0.025 -0.246,0.175 -0.321,0.225l-10.833,7.321l1.942,-7.746c0.2,-0.821 0.25,-1.021 2.241,-1.021c0.446,0 0.796,0 0.796,-0.625c0,-0.12 -0.075,-0.37 -0.425,-0.37c-0.521,-0 -1.121,0.075 -1.666,0.075c-0.55,-0 -1.121,0.025 -1.671,0.025c-0.571,-0 -1.146,-0.025 -1.717,-0.025c-0.55,-0 -1.171,-0.075 -1.717,-0.075c-0.15,-0 -0.55,-0 -0.55,0.62c0,0.375 0.325,0.375 0.796,0.375c0.45,0 1.071,0 1.596,0.175c0,0.25 0,0.396 -0.1,0.796l-3.262,12.975c-0.225,0.9 -0.275,1.071 -2.142,1.071c-0.575,0 -0.896,0 -0.896,0.625c0,0.2 0.146,0.371 0.421,0.371c0.525,-0 1.121,-0.071 1.671,-0.071c0.571,0 1.121,-0.025 1.666,-0.025c0.575,0 1.146,0.025 1.721,0.025c0.546,0 1.171,0.071 1.692,0.071c0.175,-0 0.575,-0 0.575,-0.621c-0,-0.375 -0.3,-0.375 -0.825,-0.375c-0.05,0 -0.496,0 -0.946,-0.05c-0.496,-0.05 -0.646,-0.05 -0.646,-0.321c0,-0.1 0.175,-0.725 0.25,-1.096c0.121,-0.425 0.121,-0.475 0.271,-1.07c0.35,-1.296 0.35,-1.346 0.625,-2.542l4.333,-2.913l4.084,7.271c-0,0.325 -0,0.696 -1.121,0.721c-0.3,0 -0.671,0 -0.671,0.625c0,0.2 0.15,0.371 0.421,0.371c0.725,-0 2.567,-0.096 3.287,-0.096c0.425,0 0.85,0.025 1.271,0.025c0.425,0 0.9,0.071 1.296,0.071c0.275,-0 0.55,-0.146 0.55,-0.621c0,-0.375 -0.4,-0.375 -0.6,-0.375c-1.296,-0.025 -1.492,-0.371 -1.792,-0.921l-4.533,-8.096Z" style="fill:rgb(35,31,32);fill-rule:nonzero;"/>
    </g>
    <g>
        <path d="M171.092,19.787c0.187,-0.745 0.525,-2.091 0.525,-2.241c-0,-0.488 -0.338,-1.084 -1.159,-1.084c-0.487,0 -1.158,0.3 -1.458,1.009c-0.075,0.225 -1.867,7.433 -2.092,8.408c-0.225,0.896 -0.333,1.492 -0.37,2.388c0.145,0.937 -0.413,1.758 -0.975,2.504c-0.821,1.008 -1.642,1.271 -2.425,1.271c-1.346,-0 -3.067,-0.563 -3.067,-3.363c-0,-1.942 0.975,-4.596 2.129,-7.658c0.188,-0.488 0.45,-1.121 0.45,-1.829c0,-1.834 -1.383,-3.142 -3.212,-3.142c-3.588,-0 -5.08,5.308 -5.08,5.754c0,0.338 0.259,0.45 0.521,0.45c0.413,0 0.45,-0.225 0.6,-0.712c0.784,-2.725 2.275,-4.555 3.846,-4.555c0.746,0 0.896,0.484 0.896,1.23c-0,0.637 -0.15,1.308 -0.483,2.204c-1.834,4.783 -2.205,6.166 -2.205,7.733c0,4.263 3.621,4.821 5.492,4.821c1.454,0 2.838,-0.596 3.921,-2.542c1.121,2.205 3.475,2.542 4.858,2.542c2.65,0 4.259,-1.942 5.454,-4.408c1.046,-2.205 2.505,-7.509 2.505,-9.788c-0,-2.617 -1.384,-2.767 -1.721,-2.767c-0.934,0 -1.904,1.009 -1.904,1.871c-0,0.559 0.337,0.859 0.595,1.084c1.009,0.933 1.346,2.129 1.346,3.1c0,1.121 -0.933,4.558 -2.054,6.725c-0.821,1.604 -2.092,3.25 -4.108,3.25c-2.804,-0 -2.804,-2.617 -2.804,-3.288c-0,-1.008 0.187,-1.791 0.525,-3.1l1.454,-5.867Z" style="fill:rgb(35,31,32);fill-rule:nonzero;"/>
        <path d="M190.713,0.75c-0,-0.75 -0.096,-0.75 -0.846,-0.75c-1.642,1.596 -4.184,1.596 -5.079,1.596l-0,0.971c0.645,-0 2.291,-0 3.783,-0.696l-0,12.575c-0,0.825 -0,1.146 -2.563,1.146l-1.07,-0l-0,0.971c1.366,-0.096 3.312,-0.096 4.704,-0.096c1.396,-0 3.337,-0 4.708,0.096l0,-0.971l-1.071,-0c-2.566,-0 -2.566,-0.321 -2.566,-1.146l-0,-13.696Z" style="fill:rgb(35,31,32);fill-rule:nonzero;"/>
        <path d="M189.713,23.25c-0,-0.75 -0.096,-0.75 -0.846,-0.75c-1.642,1.596 -4.184,1.596 -5.079,1.596l-0,0.971c0.645,-0 2.291,-0 3.783,-0.696l-0,12.575c-0,0.825 -0,1.146 -2.563,1.146l-1.07,-0l-0,0.971c1.366,-0.096 3.312,-0.096 4.704,-0.096c1.396,-0 3.337,-0 4.708,0.096l0,-0.971l-1.071,-0c-2.566,-0 -2.566,-0.321 -2.566,-1.146l-0,-13.696Z" style="fill:rgb(35,31,32);fill-rule:nonzero;"/>
    </g>
    <g>
        <path d="M146.277,70.901c0.187,-0.746 0.525,-2.092 0.525,-2.242c-0,-0.488 -0.338,-1.083 -1.159,-1.083c-0.487,-0 -1.158,0.299 -1.458,1.008c-0.075,0.225 -1.867,7.433 -2.092,8.408c-0.225,0.896 -0.333,1.492 -0.37,2.388c0.145,0.937 -0.413,1.758 -0.975,2.504c-0.821,1.008 -1.642,1.271 -2.425,1.271c-1.346,-0 -3.067,-0.563 -3.067,-3.363c-0,-1.941 0.975,-4.596 2.129,-7.658c0.188,-0.488 0.45,-1.121 0.45,-1.829c0,-1.834 -1.383,-3.142 -3.212,-3.142c-3.588,0 -5.08,5.308 -5.08,5.754c0,0.338 0.259,0.45 0.521,0.45c0.413,0 0.45,-0.225 0.6,-0.712c0.784,-2.725 2.275,-4.554 3.846,-4.554c0.746,-0 0.896,0.483 0.896,1.229c-0,0.637 -0.15,1.308 -0.483,2.204c-1.834,4.783 -2.205,6.166 -2.205,7.733c0,4.263 3.621,4.821 5.492,4.821c1.454,0 2.838,-0.596 3.921,-2.542c1.121,2.205 3.475,2.542 4.858,2.542c2.65,0 4.259,-1.942 5.454,-4.408c1.046,-2.204 2.505,-7.509 2.505,-9.788c-0,-2.616 -1.384,-2.766 -1.721,-2.766c-0.934,-0 -1.904,1.008 -1.904,1.87c-0,0.559 0.337,0.859 0.595,1.084c1.009,0.933 1.346,2.129 1.346,3.1c0,1.121 -0.933,4.558 -2.054,6.725c-0.821,1.604 -2.092,3.25 -4.108,3.25c-2.804,-0 -2.804,-2.617 -2.804,-3.288c-0,-1.008 0.187,-1.791 0.525,-3.1l1.454,-5.866Z" style="fill:rgb(35,31,32);fill-rule:nonzero;"/>
        <path d="M165.898,51.863c-0,-0.75 -0.096,-0.75 -0.846,-0.75c-1.642,1.596 -4.184,1.596 -5.079,1.596l-0,0.971c0.645,-0 2.291,-0 3.783,-0.696l-0,12.575c-0,0.825 -0,1.146 -2.563,1.146l-1.07,-0l-0,0.971c1.366,-0.096 3.312,-0.096 4.704,-0.096c1.396,-0 3.337,-0 4.708,0.096l0,-0.971l-1.071,-0c-2.566,-0 -2.566,-0.321 -2.566,-1.146l-0,-13.696Z" style="fill:rgb(35,31,32);fill-rule:nonzero;"/>
        <path d="M177.877,76.905c0.275,-1.046 0.771,-1.667 2.662,-1.742c0.15,0 0.55,-0.025 0.55,-0.6c0,-0.246 -0.15,-0.396 -0.4,-0.396c-0.596,0 -2.066,0.1 -2.662,0.1l-1.371,-0.025c-0.45,0 -0.971,-0.075 -1.396,-0.075c-0.421,0 -0.546,0.325 -0.546,0.621c0,0.375 0.396,0.375 0.596,0.375c1.171,0.025 1.646,0.35 1.646,0.996c-0,0.1 -0.025,0.25 -0.05,0.4l-2.742,10.933l-6.8,-12.879c-0.25,-0.421 -0.275,-0.446 -0.871,-0.446l-3.587,0c-0.471,0 -0.846,0 -0.846,0.621c0,0.375 0.35,0.375 0.921,0.375c0.15,0 0.996,0 1.596,0.125l-3.288,13.125c-0.25,0.946 -0.625,1.692 -2.691,1.767c-0.325,-0 -0.546,0.175 -0.546,0.65c0.025,0.1 0.05,0.346 0.421,0.346c0.6,-0 2.066,-0.096 2.666,-0.096l1.371,0.025c0.446,-0 0.971,0.071 1.392,0.071c0.525,-0 0.55,-0.521 0.55,-0.646c-0.075,-0.35 -0.325,-0.35 -0.625,-0.35c-1.146,-0.025 -1.642,-0.346 -1.642,-0.996c0,-0.15 0.025,-0.246 0.1,-0.521l3.188,-12.729l7.82,14.821c0.175,0.35 0.225,0.421 0.571,0.421c0.425,-0 0.475,-0.121 0.575,-0.571l3.438,-13.7Z" style="fill:rgb(35,31,32);fill-rule:nonzero;"/>
    </g>
    <g>
        <path d="M197.102,107.682c0.15,-0.525 0.15,-0.6 0.15,-0.75c0,-0.333 -0.221,-0.521 -0.558,-0.521c-0.525,0 -3.813,0.301 -4.559,0.371c-0.375,0.038 -0.783,0.075 -0.783,0.713c0,0.483 0.408,0.483 1.008,0.483c1.755,0 1.755,0.263 1.755,0.6c-0,0.225 -0,0.3 -0.263,1.308l-1.979,7.884c-0.521,2.091 -1.008,3.996 -1.421,5.75c-0.258,0.937 -0.521,2.058 -0.521,3.25c0,3.217 1.792,5.979 5.004,5.979c4.371,-0 9.155,-5.267 9.155,-10.871c-0,-3.812 -2.355,-6.054 -5.155,-6.054c-1.904,-0 -3.55,1.308 -4.408,2.129l2.575,-10.271Zm-3.1,12.404c1.046,-1.495 2.954,-3.325 4.858,-3.325c1.755,0 2.467,1.755 2.467,3.509c0,1.683 -1.046,6.316 -2.204,8.296c-1.383,2.391 -3.029,3.25 -4.188,3.25c-1.866,-0 -2.612,-1.867 -2.612,-3.775c-0,-1.304 0.262,-2.317 1.121,-5.717l0.558,-2.238Z" style="fill:rgb(35,31,32);fill-rule:nonzero;"/>
        <path d="M213.615,100.524c-0,-0.75 -0.096,-0.75 -0.846,-0.75c-1.642,1.596 -4.184,1.596 -5.079,1.596l-0,0.971c0.645,-0 2.291,-0 3.783,-0.696l-0,12.575c-0,0.825 -0,1.146 -2.563,1.146l-1.07,-0l-0,0.971c1.366,-0.096 3.312,-0.096 4.704,-0.096c1.396,-0 3.337,-0 4.708,0.096l0,-0.971l-1.071,-0c-2.566,-0 -2.566,-0.321 -2.566,-1.146l-0,-13.696Z" style="fill:rgb(35,31,32);fill-rule:nonzero;"/>
    </g>
    <path d="M197.478,266.974l10.876,9.197l-13.884,3.183l3.008,-12.38Z" style="fill:rgb(35,31,32);"/>
    <path d="M51.382,238.04c-0,-0 112.603,27.353 147.068,35.725" style="fill:none;stroke:rgb(35,31,32);stroke-width:2.62px;"/>
    <path d="M401.318,131.284c-0,0.586 -0.208,1.096 -0.623,1.529c-0.415,0.434 -0.94,0.65 -1.575,0.65c-0.598,0 -1.111,-0.213 -1.538,-0.641c-0.427,-0.427 -0.641,-0.939 -0.641,-1.538c0,-0.61 0.211,-1.129 0.632,-1.556c0.421,-0.427 0.937,-0.641 1.547,-0.641c0.611,0 1.129,0.214 1.557,0.641c0.427,0.427 0.641,0.946 0.641,1.556Z" style="fill-rule:nonzero;"/>
    <path d="M401.318,150.034c-0,0.586 -0.208,1.096 -0.623,1.529c-0.415,0.434 -0.94,0.65 -1.575,0.65c-0.598,0 -1.111,-0.213 -1.538,-0.641c-0.427,-0.427 -0.641,-0.939 -0.641,-1.538c0,-0.61 0.211,-1.129 0.632,-1.556c0.421,-0.427 0.937,-0.641 1.547,-0.641c0.611,0 1.129,0.214 1.557,0.641c0.427,0.427 0.641,0.946 0.641,1.556Z" style="fill-rule:nonzero;"/>
    <path d="M401.318,168.784c-0,0.586 -0.208,1.096 -0.623,1.529c-0.415,0.434 -0.94,0.65 -1.575,0.65c-0.598,0 -1.111,-0.213 -1.538,-0.641c-0.427,-0.427 -0.641,-0.939 -0.641,-1.538c0,-0.61 0.211,-1.129 0.632,-1.556c0.421,-0.427 0.937,-0.641 1.547,-0.641c0.611,0 1.129,0.214 1.557,0.641c0.427,0.427 0.641,0.946 0.641,1.556Z" style="fill-rule:nonzero;"/>
</svg>
