<?xml version="1.0" encoding="UTF-8" standalone="no"?>
<!DOCTYPE svg PUBLIC "-//W3C//DTD SVG 1.1//EN" "http://www.w3.org/Graphics/SVG/1.1/DTD/svg11.dtd">
<svg width="100%" height="100%" viewBox="0 0 615 414" version="1.1" xmlns="http://www.w3.org/2000/svg" xmlns:xlink="http://www.w3.org/1999/xlink" xml:space="preserve" xmlns:serif="http://www.serif.com/" style="fill-rule:evenodd;clip-rule:evenodd;stroke-linecap:round;stroke-linejoin:round;stroke-miterlimit:1.5;">
    <g transform="matrix(0.399506,0,0,0.399506,-53.1236,-151.882)">
        <circle cx="777.909" cy="508.114" r="123.406" style="fill:none;stroke:rgb(35,31,32);stroke-width:6.56px;"/>
    </g>
    <g transform="matrix(0.399506,0,0,0.399506,-53.1236,61.6662)">
        <circle cx="777.909" cy="508.114" r="123.406" style="fill:none;stroke:rgb(35,31,32);stroke-width:6.56px;"/>
    </g>
    <g transform="matrix(0.399506,0,0,0.399506,117.346,-151.882)">
        <circle cx="777.909" cy="508.114" r="123.406" style="fill:none;stroke:rgb(35,31,32);stroke-width:6.56px;"/>
    </g>
    <g transform="matrix(0.399506,0,0,0.399506,117.346,61.6662)">
        <circle cx="777.909" cy="508.114" r="123.406" style="fill:none;stroke:rgb(35,31,32);stroke-width:6.56px;"/>
    </g>
    <g transform="matrix(4.16667,0,0,4.16667,-219.592,29.2485)">
        <path d="M114.181,5.4C114.27,5.301 114.27,5.275 114.27,5.248C114.27,5.239 114.27,5.194 114.199,5.104L111.222,1.15L114.844,1.15C115.517,1.15 116.189,1.186 116.844,1.365C117.678,1.607 118.359,2.145 118.637,2.89L118.888,2.89L118.099,0.764L110.451,0.764C110.2,0.764 110.191,0.773 110.191,1.069L113.553,5.553L110.28,9.471C110.2,9.56 110.191,9.587 110.191,9.614C110.191,9.731 110.289,9.731 110.451,9.731L118.099,9.731L118.888,7.471L118.637,7.471C118.386,8.18 117.749,8.727 116.933,8.978C116.808,9.014 116.162,9.211 114.898,9.211L110.998,9.211L114.181,5.4Z" style="fill:rgb(35,31,32);fill-rule:nonzero;"/>
    </g>
    <g transform="matrix(4.16667,0,0,4.16667,-219.592,242.796)">
        <path d="M114.181,5.4C114.27,5.301 114.27,5.275 114.27,5.248C114.27,5.239 114.27,5.194 114.199,5.104L111.222,1.15L114.844,1.15C115.517,1.15 116.189,1.186 116.844,1.365C117.678,1.607 118.359,2.145 118.637,2.89L118.888,2.89L118.099,0.764L110.451,0.764C110.2,0.764 110.191,0.773 110.191,1.069L113.553,5.553L110.28,9.471C110.2,9.56 110.191,9.587 110.191,9.614C110.191,9.731 110.289,9.731 110.451,9.731L118.099,9.731L118.888,7.471L118.637,7.471C118.386,8.18 117.749,8.727 116.933,8.978C116.808,9.014 116.162,9.211 114.898,9.211L110.998,9.211L114.181,5.4Z" style="fill:rgb(35,31,32);fill-rule:nonzero;"/>
    </g>
    <g transform="matrix(1,0,0,1,1.42109e-14,-0.756777)">
        <g transform="matrix(1,0,0,1,-230.912,-64.0078)">
            <g transform="matrix(4.16667,0,0,4.16667,233.822,99.9241)">
                <path d="M4.411,3.862C4.079,3.925 3.981,4.212 3.981,4.346C3.981,4.517 4.106,4.669 4.33,4.669C4.581,4.669 4.823,4.454 4.823,4.14C4.823,3.728 4.375,3.521 3.954,3.521C3.416,3.521 3.102,3.997 2.994,4.185C2.824,3.746 2.429,3.521 1.999,3.521C1.04,3.521 0.52,4.669 0.52,4.902C0.52,4.983 0.582,5.01 0.645,5.01C0.726,5.01 0.753,4.965 0.771,4.911C1.049,4.023 1.64,3.746 1.981,3.746C2.241,3.746 2.474,3.916 2.474,4.337C2.474,4.66 2.089,6.095 1.972,6.525C1.9,6.803 1.631,7.359 1.138,7.359C0.959,7.359 0.771,7.296 0.681,7.242C0.923,7.198 1.102,6.991 1.102,6.758C1.102,6.534 0.932,6.435 0.762,6.435C0.502,6.435 0.268,6.66 0.268,6.964C0.268,7.404 0.753,7.583 1.129,7.583C1.649,7.583 1.954,7.153 2.089,6.911C2.313,7.502 2.842,7.583 3.084,7.583C4.052,7.583 4.563,6.417 4.563,6.202C4.563,6.157 4.536,6.095 4.447,6.095C4.348,6.095 4.339,6.131 4.294,6.265C4.097,6.911 3.577,7.359 3.111,7.359C2.851,7.359 2.609,7.198 2.609,6.767C2.609,6.57 2.734,6.077 2.815,5.736C2.851,5.575 3.093,4.606 3.111,4.544C3.218,4.221 3.487,3.746 3.945,3.746C4.106,3.746 4.276,3.772 4.411,3.862Z" style="fill:rgb(35,31,32);fill-rule:nonzero;"/>
            </g>
            <g transform="matrix(4.16667,0,0,4.16667,233.822,99.9241)">
                <path d="M7.425,4.649C7.425,4.469 7.402,4.469 7.222,4.469C6.828,4.852 6.218,4.852 6.003,4.852L6.003,5.085C6.158,5.085 6.553,5.085 6.911,4.918L6.911,7.936C6.911,8.134 6.911,8.211 6.296,8.211L6.039,8.211L6.039,8.444C6.367,8.421 6.834,8.421 7.168,8.421C7.503,8.421 7.969,8.421 8.298,8.444L8.298,8.211L8.041,8.211C7.425,8.211 7.425,8.134 7.425,7.936L7.425,4.649Z" style="fill:rgb(35,31,32);fill-rule:nonzero;"/>
            </g>
        </g>
        <g transform="matrix(1,0,0,1,-311.439,59.8501)">
            <g transform="matrix(4.16667,0,0,4.16667,233.822,99.9241)">
                <path d="M22.771,3.862C22.439,3.925 22.341,4.212 22.341,4.346C22.341,4.517 22.466,4.669 22.69,4.669C22.941,4.669 23.183,4.454 23.183,4.14C23.183,3.728 22.735,3.521 22.314,3.521C21.776,3.521 21.462,3.997 21.354,4.185C21.184,3.746 20.789,3.521 20.359,3.521C19.4,3.521 18.88,4.669 18.88,4.902C18.88,4.983 18.942,5.01 19.005,5.01C19.086,5.01 19.113,4.965 19.131,4.911C19.409,4.023 20,3.746 20.341,3.746C20.601,3.746 20.834,3.916 20.834,4.337C20.834,4.66 20.449,6.095 20.332,6.525C20.26,6.803 19.991,7.359 19.498,7.359C19.319,7.359 19.131,7.296 19.041,7.242C19.283,7.198 19.462,6.991 19.462,6.758C19.462,6.534 19.292,6.435 19.122,6.435C18.862,6.435 18.628,6.66 18.628,6.964C18.628,7.404 19.113,7.583 19.489,7.583C20.009,7.583 20.314,7.153 20.449,6.911C20.673,7.502 21.202,7.583 21.444,7.583C22.412,7.583 22.923,6.417 22.923,6.202C22.923,6.157 22.896,6.095 22.807,6.095C22.708,6.095 22.699,6.131 22.654,6.265C22.457,6.911 21.937,7.359 21.471,7.359C21.211,7.359 20.969,7.198 20.969,6.767C20.969,6.57 21.094,6.077 21.175,5.736C21.211,5.575 21.453,4.606 21.471,4.544C21.578,4.221 21.847,3.746 22.305,3.746C22.466,3.746 22.636,3.772 22.771,3.862Z" style="fill:rgb(35,31,32);fill-rule:nonzero;"/>
            </g>
            <g transform="matrix(4.16667,0,0,4.16667,233.822,99.9241)">
                <path d="M28.9,5.019C28.966,4.768 29.085,4.619 29.539,4.601C29.575,4.601 29.671,4.595 29.671,4.457C29.671,4.398 29.635,4.362 29.575,4.362C29.432,4.362 29.079,4.386 28.936,4.386L28.607,4.38C28.499,4.38 28.374,4.362 28.272,4.362C28.171,4.362 28.141,4.44 28.141,4.511C28.141,4.601 28.236,4.601 28.284,4.601C28.565,4.607 28.679,4.685 28.679,4.84C28.679,4.864 28.673,4.9 28.667,4.936L28.009,7.56L26.377,4.469C26.317,4.368 26.311,4.362 26.168,4.362L25.307,4.362C25.194,4.362 25.104,4.362 25.104,4.511C25.104,4.601 25.188,4.601 25.325,4.601C25.361,4.601 25.564,4.601 25.708,4.631L24.919,7.781C24.859,8.008 24.769,8.187 24.273,8.205C24.195,8.205 24.142,8.247 24.142,8.361C24.148,8.385 24.154,8.444 24.243,8.444C24.387,8.444 24.739,8.421 24.883,8.421L25.212,8.427C25.319,8.427 25.445,8.444 25.546,8.444C25.672,8.444 25.678,8.319 25.678,8.289C25.66,8.205 25.6,8.205 25.528,8.205C25.253,8.199 25.134,8.122 25.134,7.966C25.134,7.93 25.14,7.907 25.158,7.841L25.923,4.786L27.8,8.343C27.842,8.427 27.854,8.444 27.937,8.444C28.039,8.444 28.051,8.415 28.075,8.307L28.9,5.019Z" style="fill:rgb(35,31,32);fill-rule:nonzero;"/>
            </g>
        </g>
        <g transform="matrix(4.16667,0,0,4.16667,-151.298,223.403)">
            <path d="M42.205,1.755C42.205,1.531 42.196,1.513 41.972,1.513C41.416,2.087 40.591,2.087 40.313,2.087L40.313,2.365C40.484,2.365 41.031,2.365 41.515,2.132L41.515,6.767C41.515,7.099 41.488,7.207 40.654,7.207L40.367,7.207L40.367,7.484C40.69,7.458 41.488,7.458 41.856,7.458C42.223,7.458 43.03,7.458 43.353,7.484L43.353,7.207L43.066,7.207C42.232,7.207 42.205,7.099 42.205,6.767L42.205,1.755Z" style="fill:rgb(35,31,32);fill-rule:nonzero;"/>
        </g>
        <g transform="matrix(6.12323e-17,1,-1,6.12323e-17,416.08,-1.80231)">
            <g transform="matrix(37.5,0,0,37.5,97.077,397.185)">
                <path d="M0.125,-0.108C0.141,-0.108 0.154,-0.102 0.166,-0.091C0.177,-0.08 0.183,-0.066 0.183,-0.049C0.183,-0.033 0.177,-0.02 0.166,-0.008C0.155,0.003 0.141,0.009 0.125,0.009C0.109,0.009 0.095,0.003 0.083,-0.008C0.072,-0.019 0.066,-0.033 0.066,-0.049C0.066,-0.066 0.072,-0.079 0.083,-0.091C0.095,-0.102 0.109,-0.108 0.125,-0.108Z" style="fill-rule:nonzero;"/>
            </g>
            <g transform="matrix(37.5,0,0,37.5,115.827,397.185)">
                <path d="M0.125,-0.108C0.141,-0.108 0.154,-0.102 0.166,-0.091C0.177,-0.08 0.183,-0.066 0.183,-0.049C0.183,-0.033 0.177,-0.02 0.166,-0.008C0.155,0.003 0.141,0.009 0.125,0.009C0.109,0.009 0.095,0.003 0.083,-0.008C0.072,-0.019 0.066,-0.033 0.066,-0.049C0.066,-0.066 0.072,-0.079 0.083,-0.091C0.095,-0.102 0.109,-0.108 0.125,-0.108Z" style="fill-rule:nonzero;"/>
            </g>
            <g transform="matrix(37.5,0,0,37.5,134.577,397.185)">
                <path d="M0.125,-0.108C0.141,-0.108 0.154,-0.102 0.166,-0.091C0.177,-0.08 0.183,-0.066 0.183,-0.049C0.183,-0.033 0.177,-0.02 0.166,-0.008C0.155,0.003 0.141,0.009 0.125,0.009C0.109,0.009 0.095,0.003 0.083,-0.008C0.072,-0.019 0.066,-0.033 0.066,-0.049C0.066,-0.066 0.072,-0.079 0.083,-0.091C0.095,-0.102 0.109,-0.108 0.125,-0.108Z" style="fill-rule:nonzero;"/>
            </g>
        </g>
    </g>
    <g transform="matrix(4.16667,0,0,4.16667,-126.096,29.061)">
        <path d="M134.416,1.36C134.416,1.351 134.416,1.262 134.299,1.262C134.192,1.262 134.183,1.307 134.147,1.45L132.676,7.341C132.031,7.26 131.627,6.964 131.627,6.346C131.627,6.157 131.654,5.888 132.085,4.777C132.156,4.579 132.21,4.445 132.21,4.275C132.21,3.835 131.878,3.521 131.439,3.521C130.578,3.521 130.22,4.795 130.22,4.902C130.22,4.983 130.282,5.01 130.345,5.01C130.444,5.01 130.453,4.956 130.489,4.839C130.677,4.185 131.035,3.746 131.412,3.746C131.591,3.746 131.627,3.862 131.627,4.041C131.627,4.248 131.564,4.436 131.493,4.633C131.053,5.754 131,6.059 131,6.283C131,6.929 131.439,7.484 132.614,7.565L132.21,9.224C132.21,9.233 132.21,9.323 132.327,9.323C132.434,9.323 132.443,9.296 132.488,9.098C132.614,8.596 132.748,8.094 132.865,7.583C133.187,7.583 134.12,7.583 135.017,6.462C135.447,5.924 135.599,5.476 135.761,4.66C135.806,4.4 135.806,4.266 135.806,4.176C135.806,3.548 135.474,3.512 135.393,3.512C135.169,3.512 134.936,3.754 134.936,3.961C134.936,4.095 135.017,4.167 135.079,4.221C135.321,4.445 135.402,4.732 135.402,4.965C135.402,5.342 135.151,6.032 134.55,6.624C133.842,7.332 133.25,7.359 132.927,7.359L134.416,1.36Z" style="fill:rgb(35,31,32);fill-rule:nonzero;"/>
    </g>
    <g transform="matrix(4.16667,0,0,4.16667,-126.096,242.609)">
        <path d="M134.416,1.36C134.416,1.351 134.416,1.262 134.299,1.262C134.192,1.262 134.183,1.307 134.147,1.45L132.676,7.341C132.031,7.26 131.627,6.964 131.627,6.346C131.627,6.157 131.654,5.888 132.085,4.777C132.156,4.579 132.21,4.445 132.21,4.275C132.21,3.835 131.878,3.521 131.439,3.521C130.578,3.521 130.22,4.795 130.22,4.902C130.22,4.983 130.282,5.01 130.345,5.01C130.444,5.01 130.453,4.956 130.489,4.839C130.677,4.185 131.035,3.746 131.412,3.746C131.591,3.746 131.627,3.862 131.627,4.041C131.627,4.248 131.564,4.436 131.493,4.633C131.053,5.754 131,6.059 131,6.283C131,6.929 131.439,7.484 132.614,7.565L132.21,9.224C132.21,9.233 132.21,9.323 132.327,9.323C132.434,9.323 132.443,9.296 132.488,9.098C132.614,8.596 132.748,8.094 132.865,7.583C133.187,7.583 134.12,7.583 135.017,6.462C135.447,5.924 135.599,5.476 135.761,4.66C135.806,4.4 135.806,4.266 135.806,4.176C135.806,3.548 135.474,3.512 135.393,3.512C135.169,3.512 134.936,3.754 134.936,3.961C134.936,4.095 135.017,4.167 135.079,4.221C135.321,4.445 135.402,4.732 135.402,4.965C135.402,5.342 135.151,6.032 134.55,6.624C133.842,7.332 133.25,7.359 132.927,7.359L134.416,1.36Z" style="fill:rgb(35,31,32);fill-rule:nonzero;"/>
    </g>
    <g transform="matrix(0.964203,0.00524578,0.0056444,1.00147,-56.4305,-83.9398)">
        <g transform="matrix(1.03716,-0.00543272,-0.00584554,0.998562,58.0366,83.5126)">
            <path d="M194.97,37.154L208.354,42.026L196.426,49.81L194.97,37.154Z" style="fill:rgb(35,31,32);"/>
            <path d="M51.382,60.087C51.382,60.087 163.506,47.186 198.229,43.191" style="fill:none;stroke:rgb(35,31,32);stroke-width:2.62px;"/>
        </g>
    </g>
    <g transform="matrix(0.951651,-0.00734949,-0.00743975,0.988341,-53.3004,-70.2521)">
        <g transform="matrix(1.05087,0.00781444,0.00791041,1.01185,56.5674,71.5015)">
            <path d="M229.319,206.799L234.735,219.973L220.946,216.401L229.319,206.799Z" style="fill:rgb(35,31,32);"/>
            <path d="M51.382,60.087C51.382,60.087 192.289,182.96 227.053,213.275" style="fill:none;stroke:rgb(35,31,32);stroke-width:2.62px;"/>
        </g>
    </g>
    <g transform="matrix(0.964203,0.00524578,0.0056444,1.00147,-56.4305,39.9387)">
        <g transform="matrix(1.03716,-0.00543272,-0.00584554,0.998562,58.7608,-40.1878)">
            <path d="M196.593,70.563L210.644,68.226L204.083,80.869L196.593,70.563Z" style="fill:rgb(35,31,32);"/>
            <path d="M51.382,183.965C51.382,183.965 169.762,97.936 202.399,74.218" style="fill:none;stroke:rgb(35,31,32);stroke-width:2.62px;"/>
        </g>
    </g>
    <g transform="matrix(0.964203,0.00524578,0.0056444,1.00147,-56.4305,59.372)">
        <g transform="matrix(1.03716,-0.00543272,-0.00584554,0.998562,58.8744,-59.5932)">
            <path d="M199.431,244.879L208.354,255.982L194.118,256.459L199.431,244.879Z" style="fill:rgb(35,31,32);"/>
            <path d="M51.382,183.965C51.382,183.965 165.404,236.277 199.091,251.732" style="fill:none;stroke:rgb(35,31,32);stroke-width:2.62px;"/>
        </g>
    </g>
    <g transform="matrix(0.964203,0.00524578,0.0056444,1.00147,-56.4305,94.0132)">
        <g transform="matrix(1.03716,-0.00543272,-0.00584554,0.998562,59.0769,-94.1846)">
            <path d="M201.545,82.901L215.116,78.575L210.434,92.028L201.545,82.901Z" style="fill:rgb(35,31,32);"/>
            <path d="M51.382,238.04C51.382,238.04 176.039,116.634 207.815,85.686" style="fill:none;stroke:rgb(35,31,32);stroke-width:2.62px;"/>
        </g>
    </g>
    <g transform="matrix(1,0,0,1,-65.4377,-82.163)">
        <g transform="matrix(1,-0,-0,1,65.4377,82.163)">
            <path d="M366.083,44.743L378.823,51.113L366.083,57.483L366.083,44.743Z" style="fill:rgb(35,31,32);"/>
            <path d="M306.957,51.113L368.631,51.113" style="fill:none;stroke:rgb(35,31,32);stroke-width:2.62px;"/>
        </g>
    </g>
    <g transform="matrix(1,0,0,1,-65.4377,131.385)">
        <g transform="matrix(1,-0,-0,1,65.4377,-131.385)">
            <path d="M366.083,258.291L378.823,264.661L366.083,271.031L366.083,258.291Z" style="fill:rgb(35,31,32);"/>
            <path d="M306.957,264.661L368.631,264.661" style="fill:none;stroke:rgb(35,31,32);stroke-width:2.62px;"/>
        </g>
    </g>
    <g transform="matrix(1,0,0,1,105.031,-82.163)">
        <g transform="matrix(1,-0,-0,1,-105.031,82.163)">
            <path d="M536.552,44.743L549.293,51.113L536.552,57.483L536.552,44.743Z" style="fill:rgb(35,31,32);"/>
            <path d="M477.427,51.113L539.1,51.113" style="fill:none;stroke:rgb(35,31,32);stroke-width:2.62px;"/>
        </g>
    </g>
    <g transform="matrix(1,0,0,1,105.031,131.385)">
        <g transform="matrix(1,-0,-0,1,-105.031,-131.385)">
            <path d="M536.552,258.291L549.293,264.661L536.552,271.031L536.552,258.291Z" style="fill:rgb(35,31,32);"/>
            <path d="M477.427,264.661L539.1,264.661" style="fill:none;stroke:rgb(35,31,32);stroke-width:2.62px;"/>
        </g>
    </g>
    <g transform="matrix(1,0,0,1,54.3614,157.808)">
        <g transform="matrix(37.5,0,0,37.5,70.0472,235.652)">
            <path d="M0.018,-0.687L0.022,-0.69C0.103,-0.687 0.149,-0.686 0.162,-0.686C0.173,-0.686 0.219,-0.687 0.302,-0.69L0.306,-0.687L0.306,-0.662L0.302,-0.659C0.279,-0.658 0.262,-0.657 0.25,-0.656C0.238,-0.654 0.229,-0.652 0.223,-0.648C0.218,-0.645 0.214,-0.636 0.212,-0.623C0.21,-0.61 0.209,-0.592 0.209,-0.568L0.208,-0.456L0.208,-0.24C0.208,-0.186 0.209,-0.148 0.209,-0.127L0.212,-0.042L0.312,-0.042C0.391,-0.042 0.441,-0.043 0.46,-0.045C0.48,-0.047 0.499,-0.052 0.517,-0.06C0.521,-0.068 0.526,-0.086 0.532,-0.116C0.539,-0.145 0.543,-0.162 0.543,-0.167L0.547,-0.17L0.571,-0.17L0.575,-0.167C0.572,-0.153 0.569,-0.128 0.567,-0.091C0.564,-0.053 0.563,-0.023 0.563,-0L0.559,0.004C0.497,0.002 0.416,0.001 0.315,0.001L0.172,-0C0.14,-0 0.107,0.001 0.073,0.004L0.069,-0L0.069,-0.016L0.073,-0.021C0.093,-0.031 0.104,-0.038 0.106,-0.04C0.108,-0.042 0.11,-0.063 0.112,-0.103C0.114,-0.143 0.115,-0.191 0.115,-0.247L0.115,-0.456L0.114,-0.551C0.114,-0.588 0.113,-0.612 0.112,-0.623C0.11,-0.634 0.108,-0.641 0.105,-0.645C0.102,-0.648 0.096,-0.651 0.087,-0.653C0.078,-0.656 0.056,-0.657 0.022,-0.659L0.018,-0.662L0.018,-0.687Z" style="fill-rule:nonzero;"/>
        </g>
        <g transform="matrix(37.5,0,0,37.5,92.9537,235.652)">
            <path d="M0.141,-0.684C0.156,-0.684 0.169,-0.678 0.18,-0.667C0.19,-0.657 0.196,-0.644 0.196,-0.628C0.196,-0.613 0.19,-0.601 0.18,-0.59C0.169,-0.579 0.156,-0.574 0.141,-0.574C0.126,-0.574 0.113,-0.579 0.102,-0.59C0.091,-0.6 0.085,-0.613 0.085,-0.628C0.085,-0.644 0.091,-0.657 0.102,-0.667C0.113,-0.678 0.126,-0.684 0.141,-0.684ZM0.182,-0.465L0.191,-0.459C0.188,-0.416 0.186,-0.362 0.186,-0.296L0.186,-0.186C0.186,-0.179 0.187,-0.156 0.188,-0.117C0.189,-0.078 0.191,-0.055 0.192,-0.049C0.194,-0.042 0.196,-0.038 0.199,-0.035C0.202,-0.032 0.205,-0.03 0.209,-0.029C0.214,-0.028 0.231,-0.027 0.262,-0.025L0.267,-0.021L0.267,-0L0.263,0.004C0.222,0.001 0.183,-0 0.145,-0C0.108,-0 0.069,0.001 0.028,0.004L0.023,-0L0.023,-0.021L0.028,-0.025C0.059,-0.027 0.077,-0.028 0.081,-0.029C0.085,-0.03 0.089,-0.032 0.092,-0.035C0.095,-0.038 0.097,-0.043 0.098,-0.05C0.1,-0.056 0.101,-0.077 0.102,-0.113C0.104,-0.148 0.104,-0.175 0.104,-0.193L0.104,-0.29C0.104,-0.303 0.104,-0.32 0.103,-0.343C0.101,-0.365 0.1,-0.379 0.099,-0.384C0.099,-0.389 0.096,-0.393 0.092,-0.396C0.088,-0.398 0.079,-0.399 0.066,-0.399L0.025,-0.4L0.021,-0.404L0.021,-0.425L0.025,-0.429C0.087,-0.436 0.139,-0.448 0.182,-0.465Z" style="fill-rule:nonzero;"/>
        </g>
        <g transform="matrix(37.5,0,0,37.5,103.867,235.652)">
            <path d="M0.167,-0.465L0.176,-0.459C0.174,-0.437 0.173,-0.409 0.172,-0.373C0.198,-0.395 0.223,-0.416 0.247,-0.438C0.253,-0.445 0.26,-0.449 0.266,-0.452C0.272,-0.455 0.282,-0.458 0.296,-0.461C0.31,-0.465 0.324,-0.466 0.339,-0.466C0.364,-0.466 0.388,-0.461 0.411,-0.451C0.434,-0.441 0.452,-0.429 0.464,-0.415C0.476,-0.401 0.484,-0.385 0.488,-0.366C0.493,-0.347 0.495,-0.324 0.495,-0.296L0.495,-0.21C0.495,-0.205 0.496,-0.164 0.498,-0.089C0.498,-0.058 0.502,-0.04 0.508,-0.034C0.514,-0.028 0.534,-0.025 0.568,-0.025L0.572,-0.021L0.572,-0L0.568,0.004C0.527,0.001 0.499,-0 0.484,-0C0.476,-0 0.452,0.001 0.413,0.004L0.407,-0.001C0.411,-0.044 0.414,-0.099 0.414,-0.167L0.414,-0.231C0.414,-0.269 0.413,-0.297 0.411,-0.314C0.409,-0.331 0.404,-0.346 0.395,-0.36C0.385,-0.374 0.373,-0.385 0.358,-0.392C0.343,-0.4 0.324,-0.404 0.303,-0.404C0.286,-0.404 0.272,-0.402 0.26,-0.399C0.248,-0.395 0.234,-0.388 0.219,-0.378C0.204,-0.367 0.193,-0.357 0.186,-0.348C0.179,-0.339 0.175,-0.33 0.173,-0.322C0.172,-0.314 0.171,-0.297 0.171,-0.271L0.171,-0.186C0.171,-0.179 0.172,-0.156 0.173,-0.117C0.174,-0.078 0.176,-0.055 0.177,-0.049C0.178,-0.042 0.181,-0.038 0.184,-0.035C0.187,-0.032 0.19,-0.03 0.194,-0.029C0.199,-0.028 0.216,-0.027 0.247,-0.025L0.251,-0.021L0.251,-0L0.248,0.004C0.207,0.001 0.168,-0 0.13,-0C0.092,-0 0.053,0.001 0.013,0.004L0.008,-0L0.008,-0.021L0.013,-0.025C0.044,-0.027 0.062,-0.028 0.066,-0.029C0.07,-0.03 0.074,-0.032 0.077,-0.035C0.08,-0.038 0.082,-0.043 0.083,-0.05C0.084,-0.056 0.086,-0.077 0.087,-0.113C0.089,-0.148 0.089,-0.175 0.089,-0.193L0.089,-0.29C0.089,-0.303 0.089,-0.32 0.087,-0.343C0.086,-0.365 0.085,-0.379 0.084,-0.384C0.083,-0.389 0.081,-0.393 0.077,-0.396C0.072,-0.398 0.064,-0.399 0.051,-0.399L0.01,-0.4L0.006,-0.404L0.006,-0.425L0.01,-0.429C0.072,-0.436 0.124,-0.448 0.167,-0.465Z" style="fill-rule:nonzero;"/>
        </g>
        <g transform="matrix(37.5,0,0,37.5,125.693,235.652)">
            <path d="M0.432,-0.072L0.416,-0.037C0.382,-0.015 0.352,-0.001 0.325,0.006C0.299,0.012 0.275,0.016 0.254,0.016C0.215,0.016 0.178,0.008 0.143,-0.007C0.108,-0.023 0.08,-0.049 0.058,-0.085C0.036,-0.121 0.025,-0.165 0.025,-0.217C0.025,-0.251 0.029,-0.282 0.038,-0.309C0.046,-0.337 0.055,-0.357 0.064,-0.371C0.073,-0.384 0.089,-0.399 0.111,-0.415C0.133,-0.431 0.157,-0.444 0.182,-0.454C0.206,-0.464 0.233,-0.469 0.262,-0.469C0.301,-0.469 0.335,-0.46 0.365,-0.441C0.395,-0.423 0.416,-0.399 0.428,-0.371C0.44,-0.342 0.446,-0.312 0.446,-0.279C0.446,-0.269 0.445,-0.259 0.444,-0.25L0.439,-0.245C0.417,-0.24 0.387,-0.236 0.35,-0.235C0.312,-0.233 0.287,-0.232 0.275,-0.232L0.119,-0.232C0.119,-0.165 0.136,-0.115 0.169,-0.083C0.203,-0.052 0.243,-0.036 0.292,-0.036C0.314,-0.036 0.336,-0.04 0.357,-0.047C0.378,-0.055 0.4,-0.066 0.424,-0.08L0.432,-0.072ZM0.119,-0.271C0.125,-0.271 0.147,-0.269 0.186,-0.268C0.226,-0.267 0.255,-0.266 0.273,-0.266C0.319,-0.266 0.346,-0.267 0.356,-0.269C0.356,-0.276 0.356,-0.282 0.356,-0.287C0.356,-0.337 0.346,-0.375 0.326,-0.399C0.305,-0.424 0.277,-0.436 0.242,-0.436C0.203,-0.436 0.173,-0.422 0.151,-0.395C0.129,-0.367 0.119,-0.326 0.119,-0.271Z" style="fill-rule:nonzero;"/>
        </g>
        <g transform="matrix(37.5,0,0,37.5,143.656,235.652)">
            <path d="M0.104,-0.331L0.084,-0.336L0.081,-0.341L0.081,-0.401C0.139,-0.444 0.195,-0.466 0.25,-0.466C0.287,-0.466 0.318,-0.459 0.343,-0.445C0.368,-0.431 0.385,-0.413 0.396,-0.392C0.408,-0.371 0.413,-0.347 0.413,-0.319L0.411,-0.221L0.411,-0.075C0.411,-0.055 0.412,-0.043 0.415,-0.039C0.418,-0.035 0.421,-0.032 0.424,-0.031C0.428,-0.029 0.435,-0.028 0.444,-0.027L0.472,-0.024L0.476,-0.02L0.476,-0L0.472,0.003C0.448,0.001 0.426,0 0.406,0C0.386,0 0.363,0.001 0.335,0.003L0.328,-0.003L0.33,-0.082L0.224,0.001C0.206,0.008 0.186,0.012 0.165,0.012C0.139,0.012 0.117,0.007 0.098,-0.002C0.079,-0.011 0.065,-0.025 0.055,-0.042C0.045,-0.058 0.04,-0.079 0.04,-0.103C0.04,-0.151 0.055,-0.188 0.085,-0.215C0.115,-0.242 0.197,-0.265 0.33,-0.284C0.33,-0.332 0.319,-0.366 0.298,-0.385C0.276,-0.405 0.248,-0.415 0.211,-0.415C0.193,-0.415 0.175,-0.412 0.16,-0.407C0.144,-0.401 0.136,-0.397 0.133,-0.393C0.131,-0.39 0.122,-0.37 0.107,-0.333L0.104,-0.331ZM0.33,-0.254C0.239,-0.239 0.182,-0.222 0.16,-0.205C0.137,-0.187 0.126,-0.16 0.126,-0.123C0.126,-0.072 0.151,-0.047 0.202,-0.047C0.245,-0.047 0.288,-0.072 0.33,-0.122L0.33,-0.254Z" style="fill-rule:nonzero;"/>
        </g>
        <g transform="matrix(37.5,0,0,37.5,162.406,235.652)">
            <path d="M0.188,-0.465L0.197,-0.459C0.195,-0.44 0.193,-0.407 0.192,-0.358L0.229,-0.405C0.241,-0.42 0.252,-0.432 0.261,-0.44C0.27,-0.448 0.281,-0.455 0.293,-0.459C0.306,-0.464 0.319,-0.466 0.332,-0.466C0.346,-0.466 0.359,-0.463 0.372,-0.458L0.375,-0.451C0.37,-0.407 0.367,-0.369 0.367,-0.336L0.345,-0.336C0.332,-0.366 0.311,-0.381 0.282,-0.381C0.262,-0.381 0.244,-0.375 0.229,-0.362C0.214,-0.349 0.204,-0.333 0.199,-0.314C0.194,-0.294 0.191,-0.27 0.191,-0.24L0.191,-0.186C0.191,-0.176 0.192,-0.152 0.193,-0.114C0.195,-0.076 0.196,-0.054 0.198,-0.048C0.199,-0.042 0.201,-0.038 0.204,-0.035C0.207,-0.033 0.212,-0.031 0.217,-0.03C0.222,-0.029 0.245,-0.027 0.286,-0.025L0.291,-0.021L0.291,-0L0.286,0.004C0.243,0.001 0.198,-0 0.15,-0C0.113,-0 0.074,0.001 0.033,0.004L0.029,-0L0.029,-0.021L0.033,-0.025C0.065,-0.027 0.083,-0.028 0.087,-0.029C0.091,-0.03 0.094,-0.032 0.097,-0.035C0.101,-0.038 0.103,-0.043 0.104,-0.05C0.105,-0.056 0.106,-0.077 0.108,-0.113C0.109,-0.148 0.11,-0.175 0.11,-0.193L0.11,-0.29C0.11,-0.303 0.109,-0.32 0.108,-0.343C0.107,-0.365 0.106,-0.379 0.105,-0.384C0.104,-0.389 0.101,-0.393 0.097,-0.396C0.093,-0.398 0.084,-0.399 0.072,-0.399L0.031,-0.4L0.026,-0.404L0.026,-0.425L0.03,-0.429C0.092,-0.436 0.145,-0.448 0.188,-0.465Z" style="fill-rule:nonzero;"/>
        </g>
    </g>
    <g transform="matrix(1,0,0,1,271.684,157.808)">
        <g transform="matrix(37.5,0,0,37.5,65.8774,235.652)">
            <path d="M0.032,0.003L0.028,-0.001L0.028,-0.023L0.032,-0.027C0.052,-0.028 0.068,-0.029 0.08,-0.031C0.092,-0.033 0.099,-0.036 0.103,-0.041C0.106,-0.045 0.108,-0.052 0.11,-0.063C0.111,-0.073 0.112,-0.095 0.113,-0.131C0.114,-0.166 0.115,-0.192 0.115,-0.207L0.115,-0.602C0.115,-0.618 0.112,-0.63 0.106,-0.638C0.1,-0.646 0.091,-0.651 0.081,-0.654C0.071,-0.656 0.053,-0.657 0.028,-0.657L0.024,-0.661L0.024,-0.684L0.028,-0.688C0.073,-0.687 0.102,-0.686 0.116,-0.686C0.149,-0.686 0.176,-0.687 0.197,-0.688L0.353,-0.486L0.582,-0.199C0.61,-0.164 0.638,-0.131 0.667,-0.1L0.667,-0.478C0.667,-0.49 0.666,-0.515 0.665,-0.553C0.664,-0.591 0.662,-0.615 0.661,-0.626C0.659,-0.636 0.656,-0.643 0.652,-0.646C0.648,-0.65 0.64,-0.653 0.629,-0.655C0.618,-0.656 0.603,-0.657 0.583,-0.658L0.58,-0.662L0.58,-0.684L0.583,-0.688C0.61,-0.687 0.647,-0.686 0.696,-0.686C0.741,-0.686 0.773,-0.687 0.793,-0.688L0.798,-0.684L0.798,-0.662L0.794,-0.658C0.772,-0.657 0.756,-0.656 0.744,-0.654C0.732,-0.652 0.725,-0.648 0.722,-0.644C0.719,-0.639 0.717,-0.632 0.716,-0.622C0.715,-0.613 0.714,-0.59 0.713,-0.555C0.712,-0.519 0.711,-0.494 0.711,-0.478L0.711,-0.246L0.711,-0.112C0.712,-0.068 0.713,-0.024 0.713,0.021C0.697,0.015 0.669,0.008 0.629,-0L0.594,-0.041L0.49,-0.168L0.159,-0.582L0.159,-0.207C0.159,-0.192 0.16,-0.165 0.161,-0.127C0.162,-0.089 0.163,-0.065 0.165,-0.057C0.167,-0.049 0.169,-0.043 0.171,-0.04C0.174,-0.037 0.18,-0.034 0.188,-0.032C0.197,-0.029 0.215,-0.028 0.242,-0.027L0.246,-0.023L0.246,-0L0.242,0.003C0.225,0.001 0.197,-0 0.16,-0C0.111,-0 0.069,0.001 0.032,0.003Z" style="fill-rule:nonzero;"/>
        </g>
        <g transform="matrix(37.5,0,0,37.5,97.042,235.652)">
            <path d="M0.033,-0.224C0.033,-0.262 0.041,-0.3 0.057,-0.336C0.073,-0.372 0.101,-0.403 0.14,-0.429C0.18,-0.455 0.227,-0.468 0.281,-0.468C0.35,-0.468 0.405,-0.447 0.448,-0.404C0.491,-0.36 0.513,-0.305 0.513,-0.237C0.513,-0.163 0.488,-0.101 0.439,-0.053C0.389,-0.005 0.33,0.019 0.26,0.019C0.215,0.019 0.174,0.007 0.138,-0.018C0.102,-0.042 0.076,-0.072 0.059,-0.108C0.042,-0.143 0.033,-0.182 0.033,-0.224ZM0.125,-0.257C0.125,-0.212 0.131,-0.171 0.143,-0.135C0.155,-0.099 0.173,-0.07 0.199,-0.048C0.224,-0.027 0.253,-0.016 0.286,-0.016C0.324,-0.016 0.356,-0.031 0.381,-0.061C0.406,-0.092 0.418,-0.138 0.418,-0.199C0.418,-0.268 0.405,-0.325 0.378,-0.369C0.351,-0.413 0.311,-0.436 0.26,-0.436C0.218,-0.436 0.185,-0.42 0.161,-0.39C0.137,-0.359 0.125,-0.315 0.125,-0.257Z" style="fill-rule:nonzero;"/>
        </g>
        <g transform="matrix(37.5,0,0,37.5,117.513,235.652)">
            <path d="M0.167,-0.465L0.176,-0.459C0.174,-0.437 0.173,-0.409 0.172,-0.373C0.198,-0.395 0.223,-0.416 0.247,-0.438C0.253,-0.445 0.26,-0.449 0.266,-0.452C0.272,-0.455 0.282,-0.458 0.296,-0.461C0.31,-0.465 0.324,-0.466 0.339,-0.466C0.364,-0.466 0.388,-0.461 0.411,-0.451C0.434,-0.441 0.452,-0.429 0.464,-0.415C0.476,-0.401 0.484,-0.385 0.488,-0.366C0.493,-0.347 0.495,-0.324 0.495,-0.296L0.495,-0.21C0.495,-0.205 0.496,-0.164 0.498,-0.089C0.498,-0.058 0.502,-0.04 0.508,-0.034C0.514,-0.028 0.534,-0.025 0.568,-0.025L0.572,-0.021L0.572,-0L0.568,0.004C0.527,0.001 0.499,-0 0.484,-0C0.476,-0 0.452,0.001 0.413,0.004L0.407,-0.001C0.411,-0.044 0.414,-0.099 0.414,-0.167L0.414,-0.231C0.414,-0.269 0.413,-0.297 0.411,-0.314C0.409,-0.331 0.404,-0.346 0.395,-0.36C0.385,-0.374 0.373,-0.385 0.358,-0.392C0.343,-0.4 0.324,-0.404 0.303,-0.404C0.286,-0.404 0.272,-0.402 0.26,-0.399C0.248,-0.395 0.234,-0.388 0.219,-0.378C0.204,-0.367 0.193,-0.357 0.186,-0.348C0.179,-0.339 0.175,-0.33 0.173,-0.322C0.172,-0.314 0.171,-0.297 0.171,-0.271L0.171,-0.186C0.171,-0.179 0.172,-0.156 0.173,-0.117C0.174,-0.078 0.176,-0.055 0.177,-0.049C0.178,-0.042 0.181,-0.038 0.184,-0.035C0.187,-0.032 0.19,-0.03 0.194,-0.029C0.199,-0.028 0.216,-0.027 0.247,-0.025L0.251,-0.021L0.251,-0L0.248,0.004C0.207,0.001 0.168,-0 0.13,-0C0.092,-0 0.053,0.001 0.013,0.004L0.008,-0L0.008,-0.021L0.013,-0.025C0.044,-0.027 0.062,-0.028 0.066,-0.029C0.07,-0.03 0.074,-0.032 0.077,-0.035C0.08,-0.038 0.082,-0.043 0.083,-0.05C0.084,-0.056 0.086,-0.077 0.087,-0.113C0.089,-0.148 0.089,-0.175 0.089,-0.193L0.089,-0.29C0.089,-0.303 0.089,-0.32 0.087,-0.343C0.086,-0.365 0.085,-0.379 0.084,-0.384C0.083,-0.389 0.081,-0.393 0.077,-0.396C0.072,-0.398 0.064,-0.399 0.051,-0.399L0.01,-0.4L0.006,-0.404L0.006,-0.425L0.01,-0.429C0.072,-0.436 0.124,-0.448 0.167,-0.465Z" style="fill-rule:nonzero;"/>
        </g>
        <g transform="matrix(37.5,0,0,37.5,139.339,235.652)">
            <path d="M0.022,-0.21L0.022,-0.217L0.044,-0.282L0.305,-0.282L0.305,-0.275L0.282,-0.21L0.022,-0.21Z" style="fill-rule:nonzero;"/>
        </g>
        <g transform="matrix(37.5,0,0,37.5,151.827,235.652)">
            <path d="M0.183,-0.723L0.192,-0.717C0.188,-0.68 0.187,-0.605 0.187,-0.492L0.187,-0.186C0.187,-0.179 0.187,-0.156 0.188,-0.117C0.19,-0.078 0.191,-0.055 0.193,-0.049C0.194,-0.042 0.196,-0.038 0.199,-0.035C0.202,-0.032 0.206,-0.03 0.21,-0.029C0.214,-0.028 0.232,-0.027 0.263,-0.025L0.267,-0.021L0.267,-0L0.263,0.004C0.222,0.001 0.183,-0 0.146,-0C0.108,-0 0.069,0.001 0.028,0.004L0.024,-0L0.024,-0.021L0.028,-0.025C0.06,-0.027 0.078,-0.028 0.082,-0.029C0.086,-0.03 0.089,-0.032 0.093,-0.035C0.096,-0.038 0.098,-0.043 0.099,-0.05C0.1,-0.056 0.101,-0.077 0.103,-0.113C0.104,-0.148 0.105,-0.175 0.105,-0.193L0.105,-0.446L0.103,-0.55C0.102,-0.586 0.101,-0.611 0.1,-0.625C0.099,-0.639 0.097,-0.647 0.095,-0.65C0.093,-0.653 0.09,-0.654 0.085,-0.656C0.08,-0.657 0.06,-0.658 0.026,-0.658L0.021,-0.662L0.021,-0.683L0.025,-0.687C0.088,-0.694 0.14,-0.706 0.183,-0.723Z" style="fill-rule:nonzero;"/>
        </g>
        <g transform="matrix(37.5,0,0,37.5,162.74,235.652)">
            <path d="M0.141,-0.684C0.156,-0.684 0.169,-0.678 0.18,-0.667C0.19,-0.657 0.196,-0.644 0.196,-0.628C0.196,-0.613 0.19,-0.601 0.18,-0.59C0.169,-0.579 0.156,-0.574 0.141,-0.574C0.126,-0.574 0.113,-0.579 0.102,-0.59C0.091,-0.6 0.085,-0.613 0.085,-0.628C0.085,-0.644 0.091,-0.657 0.102,-0.667C0.113,-0.678 0.126,-0.684 0.141,-0.684ZM0.182,-0.465L0.191,-0.459C0.188,-0.416 0.186,-0.362 0.186,-0.296L0.186,-0.186C0.186,-0.179 0.187,-0.156 0.188,-0.117C0.189,-0.078 0.191,-0.055 0.192,-0.049C0.194,-0.042 0.196,-0.038 0.199,-0.035C0.202,-0.032 0.205,-0.03 0.209,-0.029C0.214,-0.028 0.231,-0.027 0.262,-0.025L0.267,-0.021L0.267,-0L0.263,0.004C0.222,0.001 0.183,-0 0.145,-0C0.108,-0 0.069,0.001 0.028,0.004L0.023,-0L0.023,-0.021L0.028,-0.025C0.059,-0.027 0.077,-0.028 0.081,-0.029C0.085,-0.03 0.089,-0.032 0.092,-0.035C0.095,-0.038 0.097,-0.043 0.098,-0.05C0.1,-0.056 0.101,-0.077 0.102,-0.113C0.104,-0.148 0.104,-0.175 0.104,-0.193L0.104,-0.29C0.104,-0.303 0.104,-0.32 0.103,-0.343C0.101,-0.365 0.1,-0.379 0.099,-0.384C0.099,-0.389 0.096,-0.393 0.092,-0.396C0.088,-0.398 0.079,-0.399 0.066,-0.399L0.025,-0.4L0.021,-0.404L0.021,-0.425L0.025,-0.429C0.087,-0.436 0.139,-0.448 0.182,-0.465Z" style="fill-rule:nonzero;"/>
        </g>
        <g transform="matrix(37.5,0,0,37.5,173.653,235.652)">
            <path d="M0.167,-0.465L0.176,-0.459C0.174,-0.437 0.173,-0.409 0.172,-0.373C0.198,-0.395 0.223,-0.416 0.247,-0.438C0.253,-0.445 0.26,-0.449 0.266,-0.452C0.272,-0.455 0.282,-0.458 0.296,-0.461C0.31,-0.465 0.324,-0.466 0.339,-0.466C0.364,-0.466 0.388,-0.461 0.411,-0.451C0.434,-0.441 0.452,-0.429 0.464,-0.415C0.476,-0.401 0.484,-0.385 0.488,-0.366C0.493,-0.347 0.495,-0.324 0.495,-0.296L0.495,-0.21C0.495,-0.205 0.496,-0.164 0.498,-0.089C0.498,-0.058 0.502,-0.04 0.508,-0.034C0.514,-0.028 0.534,-0.025 0.568,-0.025L0.572,-0.021L0.572,-0L0.568,0.004C0.527,0.001 0.499,-0 0.484,-0C0.476,-0 0.452,0.001 0.413,0.004L0.407,-0.001C0.411,-0.044 0.414,-0.099 0.414,-0.167L0.414,-0.231C0.414,-0.269 0.413,-0.297 0.411,-0.314C0.409,-0.331 0.404,-0.346 0.395,-0.36C0.385,-0.374 0.373,-0.385 0.358,-0.392C0.343,-0.4 0.324,-0.404 0.303,-0.404C0.286,-0.404 0.272,-0.402 0.26,-0.399C0.248,-0.395 0.234,-0.388 0.219,-0.378C0.204,-0.367 0.193,-0.357 0.186,-0.348C0.179,-0.339 0.175,-0.33 0.173,-0.322C0.172,-0.314 0.171,-0.297 0.171,-0.271L0.171,-0.186C0.171,-0.179 0.172,-0.156 0.173,-0.117C0.174,-0.078 0.176,-0.055 0.177,-0.049C0.178,-0.042 0.181,-0.038 0.184,-0.035C0.187,-0.032 0.19,-0.03 0.194,-0.029C0.199,-0.028 0.216,-0.027 0.247,-0.025L0.251,-0.021L0.251,-0L0.248,0.004C0.207,0.001 0.168,-0 0.13,-0C0.092,-0 0.053,0.001 0.013,0.004L0.008,-0L0.008,-0.021L0.013,-0.025C0.044,-0.027 0.062,-0.028 0.066,-0.029C0.07,-0.03 0.074,-0.032 0.077,-0.035C0.08,-0.038 0.082,-0.043 0.083,-0.05C0.084,-0.056 0.086,-0.077 0.087,-0.113C0.089,-0.148 0.089,-0.175 0.089,-0.193L0.089,-0.29C0.089,-0.303 0.089,-0.32 0.087,-0.343C0.086,-0.365 0.085,-0.379 0.084,-0.384C0.083,-0.389 0.081,-0.393 0.077,-0.396C0.072,-0.398 0.064,-0.399 0.051,-0.399L0.01,-0.4L0.006,-0.404L0.006,-0.425L0.01,-0.429C0.072,-0.436 0.124,-0.448 0.167,-0.465Z" style="fill-rule:nonzero;"/>
        </g>
        <g transform="matrix(37.5,0,0,37.5,195.479,235.652)">
            <path d="M0.432,-0.072L0.416,-0.037C0.382,-0.015 0.352,-0.001 0.325,0.006C0.299,0.012 0.275,0.016 0.254,0.016C0.215,0.016 0.178,0.008 0.143,-0.007C0.108,-0.023 0.08,-0.049 0.058,-0.085C0.036,-0.121 0.025,-0.165 0.025,-0.217C0.025,-0.251 0.029,-0.282 0.038,-0.309C0.046,-0.337 0.055,-0.357 0.064,-0.371C0.073,-0.384 0.089,-0.399 0.111,-0.415C0.133,-0.431 0.157,-0.444 0.182,-0.454C0.206,-0.464 0.233,-0.469 0.262,-0.469C0.301,-0.469 0.335,-0.46 0.365,-0.441C0.395,-0.423 0.416,-0.399 0.428,-0.371C0.44,-0.342 0.446,-0.312 0.446,-0.279C0.446,-0.269 0.445,-0.259 0.444,-0.25L0.439,-0.245C0.417,-0.24 0.387,-0.236 0.35,-0.235C0.312,-0.233 0.287,-0.232 0.275,-0.232L0.119,-0.232C0.119,-0.165 0.136,-0.115 0.169,-0.083C0.203,-0.052 0.243,-0.036 0.292,-0.036C0.314,-0.036 0.336,-0.04 0.357,-0.047C0.378,-0.055 0.4,-0.066 0.424,-0.08L0.432,-0.072ZM0.119,-0.271C0.125,-0.271 0.147,-0.269 0.186,-0.268C0.226,-0.267 0.255,-0.266 0.273,-0.266C0.319,-0.266 0.346,-0.267 0.356,-0.269C0.356,-0.276 0.356,-0.282 0.356,-0.287C0.356,-0.337 0.346,-0.375 0.326,-0.399C0.305,-0.424 0.277,-0.436 0.242,-0.436C0.203,-0.436 0.173,-0.422 0.151,-0.395C0.129,-0.367 0.119,-0.326 0.119,-0.271Z" style="fill-rule:nonzero;"/>
        </g>
        <g transform="matrix(37.5,0,0,37.5,213.442,235.652)">
            <path d="M0.104,-0.331L0.084,-0.336L0.081,-0.341L0.081,-0.401C0.139,-0.444 0.195,-0.466 0.25,-0.466C0.287,-0.466 0.318,-0.459 0.343,-0.445C0.368,-0.431 0.385,-0.413 0.396,-0.392C0.408,-0.371 0.413,-0.347 0.413,-0.319L0.411,-0.221L0.411,-0.075C0.411,-0.055 0.412,-0.043 0.415,-0.039C0.418,-0.035 0.421,-0.032 0.424,-0.031C0.428,-0.029 0.435,-0.028 0.444,-0.027L0.472,-0.024L0.476,-0.02L0.476,-0L0.472,0.003C0.448,0.001 0.426,0 0.406,0C0.386,0 0.363,0.001 0.335,0.003L0.328,-0.003L0.33,-0.082L0.224,0.001C0.206,0.008 0.186,0.012 0.165,0.012C0.139,0.012 0.117,0.007 0.098,-0.002C0.079,-0.011 0.065,-0.025 0.055,-0.042C0.045,-0.058 0.04,-0.079 0.04,-0.103C0.04,-0.151 0.055,-0.188 0.085,-0.215C0.115,-0.242 0.197,-0.265 0.33,-0.284C0.33,-0.332 0.319,-0.366 0.298,-0.385C0.276,-0.405 0.248,-0.415 0.211,-0.415C0.193,-0.415 0.175,-0.412 0.16,-0.407C0.144,-0.401 0.136,-0.397 0.133,-0.393C0.131,-0.39 0.122,-0.37 0.107,-0.333L0.104,-0.331ZM0.33,-0.254C0.239,-0.239 0.182,-0.222 0.16,-0.205C0.137,-0.187 0.126,-0.16 0.126,-0.123C0.126,-0.072 0.151,-0.047 0.202,-0.047C0.245,-0.047 0.288,-0.072 0.33,-0.122L0.33,-0.254Z" style="fill-rule:nonzero;"/>
        </g>
        <g transform="matrix(37.5,0,0,37.5,232.192,235.652)">
            <path d="M0.188,-0.465L0.197,-0.459C0.195,-0.44 0.193,-0.407 0.192,-0.358L0.229,-0.405C0.241,-0.42 0.252,-0.432 0.261,-0.44C0.27,-0.448 0.281,-0.455 0.293,-0.459C0.306,-0.464 0.319,-0.466 0.332,-0.466C0.346,-0.466 0.359,-0.463 0.372,-0.458L0.375,-0.451C0.37,-0.407 0.367,-0.369 0.367,-0.336L0.345,-0.336C0.332,-0.366 0.311,-0.381 0.282,-0.381C0.262,-0.381 0.244,-0.375 0.229,-0.362C0.214,-0.349 0.204,-0.333 0.199,-0.314C0.194,-0.294 0.191,-0.27 0.191,-0.24L0.191,-0.186C0.191,-0.176 0.192,-0.152 0.193,-0.114C0.195,-0.076 0.196,-0.054 0.198,-0.048C0.199,-0.042 0.201,-0.038 0.204,-0.035C0.207,-0.033 0.212,-0.031 0.217,-0.03C0.222,-0.029 0.245,-0.027 0.286,-0.025L0.291,-0.021L0.291,-0L0.286,0.004C0.243,0.001 0.198,-0 0.15,-0C0.113,-0 0.074,0.001 0.033,0.004L0.029,-0L0.029,-0.021L0.033,-0.025C0.065,-0.027 0.083,-0.028 0.087,-0.029C0.091,-0.03 0.094,-0.032 0.097,-0.035C0.101,-0.038 0.103,-0.043 0.104,-0.05C0.105,-0.056 0.106,-0.077 0.108,-0.113C0.109,-0.148 0.11,-0.175 0.11,-0.193L0.11,-0.29C0.11,-0.303 0.109,-0.32 0.108,-0.343C0.107,-0.365 0.106,-0.379 0.105,-0.384C0.104,-0.389 0.101,-0.393 0.097,-0.396C0.093,-0.398 0.084,-0.399 0.072,-0.399L0.031,-0.4L0.026,-0.404L0.026,-0.425L0.03,-0.429C0.092,-0.436 0.145,-0.448 0.188,-0.465Z" style="fill-rule:nonzero;"/>
        </g>
    </g>
    <g transform="matrix(1,0,0,1,-130.917,-36.5247)">
        <g transform="matrix(4.16667,0,0,4.16667,123.879,194.394)">
            <path d="M57.356,5.418C57.401,5.239 57.482,4.916 57.482,4.88C57.482,4.763 57.401,4.62 57.204,4.62C57.087,4.62 56.926,4.692 56.854,4.862C56.836,4.916 56.406,6.646 56.352,6.88C56.298,7.095 56.271,7.238 56.262,7.453C56.298,7.678 56.164,7.875 56.029,8.054C55.832,8.296 55.635,8.359 55.446,8.359C55.124,8.359 54.711,8.224 54.711,7.552C54.711,7.086 54.944,6.449 55.222,5.714C55.267,5.597 55.33,5.445 55.33,5.275C55.33,4.835 54.998,4.521 54.559,4.521C53.698,4.521 53.339,5.795 53.339,5.902C53.339,5.983 53.402,6.01 53.465,6.01C53.563,6.01 53.572,5.956 53.608,5.839C53.797,5.185 54.155,4.746 54.532,4.746C54.711,4.746 54.747,4.862 54.747,5.041C54.747,5.194 54.711,5.355 54.63,5.57C54.191,6.718 54.101,7.05 54.101,7.426C54.101,8.449 54.971,8.583 55.419,8.583C55.769,8.583 56.101,8.44 56.361,7.973C56.63,8.502 57.195,8.583 57.527,8.583C58.163,8.583 58.549,8.117 58.836,7.525C59.087,6.996 59.436,5.723 59.436,5.176C59.436,4.548 59.105,4.512 59.024,4.512C58.8,4.512 58.567,4.755 58.567,4.961C58.567,5.095 58.647,5.167 58.71,5.221C58.952,5.445 59.033,5.732 59.033,5.965C59.033,6.234 58.809,7.059 58.54,7.579C58.343,7.964 58.038,8.359 57.553,8.359C56.881,8.359 56.881,7.731 56.881,7.57C56.881,7.328 56.926,7.14 57.007,6.826L57.356,5.418Z" style="fill:rgb(35,31,32);fill-rule:nonzero;"/>
        </g>
        <g transform="matrix(4.16667,0,0,4.16667,123.879,194.394)">
            <path d="M63.508,2.241C63.502,2.236 63.472,2.176 63.472,2.17C63.472,2.164 63.478,2.158 63.574,2.092C64.183,1.674 64.99,1.124 65.325,0.962C65.528,0.867 65.696,0.813 65.893,0.801C65.953,0.795 66.03,0.789 66.03,0.651C66.03,0.61 65.995,0.568 65.947,0.568C65.815,0.568 65.648,0.586 65.504,0.586C65.415,0.586 65.212,0.586 65.122,0.58C65.05,0.574 64.829,0.562 64.769,0.562C64.733,0.562 64.632,0.562 64.632,0.711C64.632,0.795 64.715,0.801 64.733,0.801C64.871,0.807 64.871,0.849 64.871,0.879C64.871,0.956 64.745,1.052 64.721,1.07C64.703,1.082 64.697,1.088 64.691,1.094C64.685,1.1 64.632,1.136 64.614,1.148L62.014,2.905L62.48,1.046C62.528,0.849 62.54,0.801 63.018,0.801C63.125,0.801 63.209,0.801 63.209,0.651C63.209,0.622 63.191,0.562 63.107,0.562C62.982,0.562 62.838,0.58 62.707,0.58C62.575,0.58 62.438,0.586 62.306,0.586C62.169,0.586 62.031,0.58 61.894,0.58C61.762,0.58 61.613,0.562 61.482,0.562C61.446,0.562 61.35,0.562 61.35,0.711C61.35,0.801 61.428,0.801 61.541,0.801C61.649,0.801 61.798,0.801 61.924,0.843C61.924,0.903 61.924,0.938 61.9,1.034L61.117,4.148C61.063,4.364 61.051,4.405 60.603,4.405C60.465,4.405 60.388,4.405 60.388,4.555C60.388,4.603 60.423,4.644 60.489,4.644C60.615,4.644 60.758,4.627 60.89,4.627C61.027,4.627 61.159,4.621 61.29,4.621C61.428,4.621 61.565,4.627 61.703,4.627C61.834,4.627 61.984,4.644 62.109,4.644C62.151,4.644 62.247,4.644 62.247,4.495C62.247,4.405 62.175,4.405 62.049,4.405C62.037,4.405 61.93,4.405 61.822,4.393C61.703,4.381 61.667,4.381 61.667,4.316C61.667,4.292 61.709,4.142 61.727,4.053C61.756,3.951 61.756,3.939 61.792,3.796C61.876,3.485 61.876,3.473 61.942,3.186L62.982,2.487L63.962,4.232C63.962,4.31 63.962,4.399 63.693,4.405C63.621,4.405 63.532,4.405 63.532,4.555C63.532,4.603 63.568,4.644 63.633,4.644C63.807,4.644 64.249,4.621 64.422,4.621C64.524,4.621 64.626,4.627 64.727,4.627C64.829,4.627 64.943,4.644 65.038,4.644C65.104,4.644 65.17,4.609 65.17,4.495C65.17,4.405 65.074,4.405 65.026,4.405C64.715,4.399 64.668,4.316 64.596,4.184L63.508,2.241Z" style="fill:rgb(35,31,32);fill-rule:nonzero;"/>
        </g>
        <g transform="matrix(4.16667,0,0,4.16667,123.879,194.394)">
            <path d="M61.785,6.249C61.785,6.069 61.762,6.069 61.582,6.069C61.188,6.452 60.578,6.452 60.363,6.452L60.363,6.685C60.518,6.685 60.913,6.685 61.271,6.518L61.271,9.536C61.271,9.734 61.271,9.811 60.656,9.811L60.399,9.811L60.399,10.044C60.727,10.021 61.194,10.021 61.528,10.021C61.863,10.021 62.329,10.021 62.658,10.044L62.658,9.811L62.401,9.811C61.785,9.811 61.785,9.734 61.785,9.536L61.785,6.249Z" style="fill:rgb(35,31,32);fill-rule:nonzero;"/>
        </g>
    </g>
    <g transform="matrix(1,0,0,1,-287.648,0.795683)">
        <g transform="matrix(4.16667,0,0,4.16667,123.879,194.394)">
            <path d="M80.116,5.418C80.161,5.239 80.242,4.916 80.242,4.88C80.242,4.763 80.161,4.62 79.964,4.62C79.847,4.62 79.686,4.692 79.614,4.862C79.596,4.916 79.166,6.646 79.112,6.88C79.058,7.095 79.032,7.238 79.023,7.453C79.058,7.678 78.924,7.875 78.789,8.054C78.592,8.296 78.395,8.359 78.207,8.359C77.884,8.359 77.471,8.224 77.471,7.552C77.471,7.086 77.705,6.449 77.982,5.714C78.027,5.597 78.09,5.445 78.09,5.275C78.09,4.835 77.758,4.521 77.319,4.521C76.458,4.521 76.1,5.795 76.1,5.902C76.1,5.983 76.162,6.01 76.225,6.01C76.324,6.01 76.333,5.956 76.369,5.839C76.557,5.185 76.915,4.746 77.292,4.746C77.471,4.746 77.507,4.862 77.507,5.041C77.507,5.194 77.471,5.355 77.391,5.57C76.951,6.718 76.862,7.05 76.862,7.426C76.862,8.449 77.731,8.583 78.18,8.583C78.529,8.583 78.861,8.44 79.121,7.973C79.39,8.502 79.955,8.583 80.287,8.583C80.923,8.583 81.309,8.117 81.596,7.525C81.847,6.996 82.197,5.723 82.197,5.176C82.197,4.548 81.865,4.512 81.784,4.512C81.56,4.512 81.327,4.754 81.327,4.961C81.327,5.095 81.408,5.167 81.47,5.221C81.712,5.445 81.793,5.732 81.793,5.965C81.793,6.234 81.569,7.059 81.3,7.579C81.103,7.964 80.798,8.359 80.314,8.359C79.641,8.359 79.641,7.731 79.641,7.57C79.641,7.328 79.686,7.14 79.767,6.826L80.116,5.418Z" style="fill:rgb(35,31,32);fill-rule:nonzero;"/>
        </g>
        <g transform="matrix(4.16667,0,0,4.16667,123.879,194.394)">
            <path d="M86.308,2.241C86.302,2.236 86.272,2.176 86.272,2.17C86.272,2.164 86.278,2.158 86.374,2.092C86.983,1.674 87.79,1.124 88.125,0.962C88.328,0.867 88.496,0.813 88.693,0.801C88.753,0.795 88.83,0.789 88.83,0.651C88.83,0.61 88.795,0.568 88.747,0.568C88.615,0.568 88.448,0.586 88.304,0.586C88.215,0.586 88.012,0.586 87.922,0.58C87.85,0.574 87.629,0.562 87.569,0.562C87.533,0.562 87.432,0.562 87.432,0.711C87.432,0.795 87.515,0.801 87.533,0.801C87.671,0.807 87.671,0.849 87.671,0.879C87.671,0.956 87.545,1.052 87.521,1.07C87.503,1.082 87.497,1.088 87.491,1.094C87.485,1.1 87.432,1.136 87.414,1.148L84.814,2.905L85.28,1.046C85.328,0.849 85.34,0.801 85.818,0.801C85.925,0.801 86.009,0.801 86.009,0.651C86.009,0.622 85.991,0.562 85.907,0.562C85.782,0.562 85.638,0.58 85.507,0.58C85.375,0.58 85.238,0.586 85.106,0.586C84.969,0.586 84.831,0.58 84.694,0.58C84.562,0.58 84.413,0.562 84.282,0.562C84.246,0.562 84.15,0.562 84.15,0.711C84.15,0.801 84.228,0.801 84.341,0.801C84.449,0.801 84.598,0.801 84.724,0.843C84.724,0.903 84.724,0.938 84.7,1.034L83.917,4.148C83.863,4.364 83.851,4.405 83.403,4.405C83.265,4.405 83.188,4.405 83.188,4.555C83.188,4.603 83.223,4.644 83.289,4.644C83.415,4.644 83.558,4.627 83.69,4.627C83.827,4.627 83.959,4.621 84.09,4.621C84.228,4.621 84.365,4.627 84.503,4.627C84.634,4.627 84.784,4.644 84.909,4.644C84.951,4.644 85.047,4.644 85.047,4.495C85.047,4.405 84.975,4.405 84.849,4.405C84.837,4.405 84.73,4.405 84.622,4.393C84.503,4.381 84.467,4.381 84.467,4.316C84.467,4.292 84.509,4.142 84.527,4.053C84.556,3.951 84.556,3.939 84.592,3.796C84.676,3.485 84.676,3.473 84.742,3.186L85.782,2.487L86.762,4.232C86.762,4.31 86.762,4.399 86.493,4.405C86.421,4.405 86.332,4.405 86.332,4.555C86.332,4.603 86.368,4.644 86.433,4.644C86.607,4.644 87.049,4.621 87.222,4.621C87.324,4.621 87.426,4.627 87.527,4.627C87.629,4.627 87.743,4.644 87.838,4.644C87.904,4.644 87.97,4.609 87.97,4.495C87.97,4.405 87.874,4.405 87.826,4.405C87.515,4.399 87.468,4.316 87.396,4.184L86.308,2.241Z" style="fill:rgb(35,31,32);fill-rule:nonzero;"/>
        </g>
        <g transform="matrix(4.16667,0,0,4.16667,123.879,194.394)">
            <path d="M87.7,6.859C87.766,6.608 87.885,6.459 88.339,6.441C88.375,6.441 88.471,6.435 88.471,6.297C88.471,6.238 88.435,6.202 88.375,6.202C88.232,6.202 87.879,6.226 87.736,6.226L87.407,6.22C87.299,6.22 87.174,6.202 87.072,6.202C86.971,6.202 86.941,6.28 86.941,6.351C86.941,6.441 87.036,6.441 87.084,6.441C87.365,6.447 87.479,6.525 87.479,6.68C87.479,6.704 87.473,6.74 87.467,6.776L86.809,9.4L85.177,6.309C85.117,6.208 85.111,6.202 84.968,6.202L84.107,6.202C83.994,6.202 83.904,6.202 83.904,6.351C83.904,6.441 83.988,6.441 84.125,6.441C84.161,6.441 84.364,6.441 84.508,6.471L83.719,9.621C83.659,9.848 83.569,10.027 83.073,10.045C82.995,10.045 82.942,10.087 82.942,10.201C82.948,10.225 82.954,10.284 83.043,10.284C83.187,10.284 83.539,10.261 83.683,10.261L84.012,10.267C84.119,10.267 84.245,10.284 84.346,10.284C84.472,10.284 84.478,10.159 84.478,10.129C84.46,10.045 84.4,10.045 84.328,10.045C84.053,10.039 83.934,9.962 83.934,9.806C83.934,9.77 83.94,9.747 83.958,9.681L84.723,6.626L86.6,10.183C86.642,10.267 86.654,10.284 86.737,10.284C86.839,10.284 86.851,10.255 86.875,10.147L87.7,6.859Z" style="fill:rgb(35,31,32);fill-rule:nonzero;"/>
        </g>
    </g>
    <g transform="matrix(1,0,0,1,-391.126,79.4353)">
        <g transform="matrix(4.16667,0,0,4.16667,123.879,194.394)">
            <path d="M100.902,2.567C100.938,2.441 100.938,2.423 100.938,2.387C100.938,2.307 100.885,2.262 100.804,2.262C100.678,2.262 99.889,2.334 99.71,2.351C99.62,2.36 99.522,2.369 99.522,2.522C99.522,2.638 99.62,2.638 99.764,2.638C100.185,2.638 100.185,2.701 100.185,2.782C100.185,2.836 100.185,2.854 100.122,3.096L99.647,4.988C99.522,5.49 99.405,5.947 99.306,6.368C99.244,6.593 99.181,6.862 99.181,7.148C99.181,7.92 99.611,8.583 100.382,8.583C101.431,8.583 102.579,7.319 102.579,5.974C102.579,5.059 102.014,4.521 101.342,4.521C100.885,4.521 100.49,4.835 100.284,5.032L100.902,2.567ZM100.158,5.544C100.409,5.185 100.867,4.746 101.324,4.746C101.745,4.746 101.916,5.167 101.916,5.588C101.916,5.992 101.665,7.104 101.387,7.579C101.055,8.153 100.66,8.359 100.382,8.359C99.934,8.359 99.755,7.911 99.755,7.453C99.755,7.14 99.818,6.897 100.024,6.081L100.158,5.544Z" style="fill:rgb(35,31,32);fill-rule:nonzero;"/>
        </g>
        <g transform="matrix(4.16667,0,0,4.16667,123.879,194.394)">
            <path d="M106.348,2.241C106.342,2.236 106.312,2.176 106.312,2.17C106.312,2.164 106.318,2.158 106.414,2.092C107.023,1.674 107.83,1.124 108.165,0.962C108.368,0.867 108.536,0.813 108.733,0.801C108.793,0.795 108.87,0.789 108.87,0.651C108.87,0.61 108.835,0.568 108.787,0.568C108.655,0.568 108.488,0.586 108.344,0.586C108.255,0.586 108.052,0.586 107.962,0.58C107.89,0.574 107.669,0.562 107.609,0.562C107.573,0.562 107.472,0.562 107.472,0.711C107.472,0.795 107.555,0.801 107.573,0.801C107.711,0.807 107.711,0.849 107.711,0.879C107.711,0.956 107.585,1.052 107.561,1.07C107.543,1.082 107.537,1.088 107.531,1.094C107.525,1.1 107.472,1.136 107.454,1.148L104.854,2.905L105.32,1.046C105.368,0.849 105.38,0.801 105.858,0.801C105.965,0.801 106.049,0.801 106.049,0.651C106.049,0.622 106.031,0.562 105.947,0.562C105.822,0.562 105.678,0.58 105.547,0.58C105.415,0.58 105.278,0.586 105.146,0.586C105.009,0.586 104.871,0.58 104.734,0.58C104.602,0.58 104.453,0.562 104.322,0.562C104.286,0.562 104.19,0.562 104.19,0.711C104.19,0.801 104.268,0.801 104.381,0.801C104.489,0.801 104.638,0.801 104.764,0.843C104.764,0.903 104.764,0.938 104.74,1.034L103.957,4.148C103.903,4.364 103.891,4.405 103.443,4.405C103.305,4.405 103.228,4.405 103.228,4.555C103.228,4.603 103.263,4.644 103.329,4.644C103.455,4.644 103.598,4.627 103.73,4.627C103.867,4.627 103.999,4.621 104.13,4.621C104.268,4.621 104.405,4.627 104.543,4.627C104.674,4.627 104.824,4.644 104.949,4.644C104.991,4.644 105.087,4.644 105.087,4.495C105.087,4.405 105.015,4.405 104.889,4.405C104.877,4.405 104.77,4.405 104.662,4.393C104.543,4.381 104.507,4.381 104.507,4.316C104.507,4.292 104.549,4.142 104.567,4.053C104.596,3.951 104.596,3.939 104.632,3.796C104.716,3.485 104.716,3.473 104.782,3.186L105.822,2.487L106.802,4.232C106.802,4.31 106.802,4.399 106.533,4.405C106.461,4.405 106.372,4.405 106.372,4.555C106.372,4.603 106.408,4.644 106.473,4.644C106.647,4.644 107.089,4.621 107.262,4.621C107.364,4.621 107.466,4.627 107.567,4.627C107.669,4.627 107.783,4.644 107.878,4.644C107.944,4.644 108.01,4.609 108.01,4.495C108.01,4.405 107.914,4.405 107.866,4.405C107.555,4.399 107.508,4.316 107.436,4.184L106.348,2.241Z" style="fill:rgb(35,31,32);fill-rule:nonzero;"/>
        </g>
    </g>
    <g transform="matrix(1,0,0,1,358.803,-339.824)">
        <g transform="matrix(4.16667,0,0,4.16667,-453.586,361.471)">
            <path d="M160.268,5.032C160.277,4.988 160.295,4.934 160.295,4.88C160.295,4.763 160.214,4.62 160.017,4.62C159.9,4.62 159.739,4.692 159.667,4.862C159.658,4.898 159.569,5.266 159.515,5.463L159.067,7.256C158.995,7.516 158.995,7.534 158.977,7.615C158.968,7.651 158.591,8.359 157.946,8.359C157.39,8.359 157.39,7.794 157.39,7.624C157.39,7.22 157.506,6.781 157.892,5.777C157.964,5.57 158.018,5.445 158.018,5.275C158.018,4.835 157.686,4.521 157.246,4.521C156.386,4.521 156.027,5.795 156.027,5.902C156.027,5.983 156.09,6.01 156.153,6.01C156.251,6.01 156.26,5.956 156.296,5.839C156.484,5.176 156.843,4.746 157.22,4.746C157.435,4.746 157.435,4.916 157.435,5.041C157.435,5.194 157.399,5.355 157.318,5.57C156.897,6.682 156.78,7.059 156.78,7.489C156.78,8.485 157.587,8.583 157.919,8.583C158.358,8.583 158.672,8.35 158.833,8.189C158.717,8.646 158.618,9.049 158.269,9.498C158,9.856 157.641,10.098 157.246,10.098C156.995,10.098 156.699,10.009 156.574,9.758C157.049,9.758 157.112,9.363 157.112,9.274C157.112,9.076 156.968,8.951 156.771,8.951C156.556,8.951 156.269,9.121 156.269,9.534C156.269,10 156.682,10.323 157.246,10.323C158.161,10.323 159.138,9.543 159.398,8.493L160.268,5.032Z" style="fill:rgb(35,31,32);fill-rule:nonzero;"/>
        </g>
        <g transform="matrix(4.16667,0,0,4.16667,-453.586,361.471)">
            <path d="M162.465,5.649C162.465,5.469 162.442,5.469 162.262,5.469C161.868,5.852 161.258,5.852 161.043,5.852L161.043,6.085C161.198,6.085 161.593,6.085 161.951,5.918L161.951,8.936C161.951,9.134 161.951,9.211 161.336,9.211L161.079,9.211L161.079,9.444C161.407,9.421 161.874,9.421 162.208,9.421C162.543,9.421 163.009,9.421 163.338,9.444L163.338,9.211L163.081,9.211C162.465,9.211 162.465,9.134 162.465,8.936L162.465,5.649Z" style="fill:rgb(35,31,32);fill-rule:nonzero;"/>
        </g>
    </g>
    <g transform="matrix(1,0,0,1,288.256,-127.735)">
        <g transform="matrix(4.16667,0,0,4.16667,-453.586,361.471)">
            <path d="M177.901,5.032C177.91,4.988 177.928,4.934 177.928,4.88C177.928,4.763 177.847,4.62 177.65,4.62C177.533,4.62 177.372,4.692 177.3,4.862C177.291,4.898 177.201,5.266 177.147,5.463L176.699,7.256C176.627,7.516 176.627,7.534 176.609,7.615C176.601,7.651 176.224,8.359 175.578,8.359C175.022,8.359 175.022,7.794 175.022,7.624C175.022,7.22 175.139,6.781 175.525,5.777C175.596,5.57 175.65,5.445 175.65,5.275C175.65,4.835 175.318,4.521 174.879,4.521C174.018,4.521 173.66,5.795 173.66,5.902C173.66,5.983 173.722,6.01 173.785,6.01C173.884,6.01 173.893,5.956 173.929,5.839C174.117,5.176 174.475,4.746 174.852,4.746C175.067,4.746 175.067,4.916 175.067,5.041C175.067,5.194 175.031,5.355 174.951,5.57C174.529,6.682 174.413,7.059 174.413,7.489C174.413,8.484 175.22,8.583 175.551,8.583C175.991,8.583 176.305,8.35 176.466,8.189C176.349,8.646 176.251,9.049 175.901,9.498C175.632,9.856 175.273,10.098 174.879,10.098C174.628,10.098 174.332,10.009 174.206,9.758C174.682,9.758 174.744,9.363 174.744,9.274C174.744,9.076 174.601,8.951 174.404,8.951C174.189,8.951 173.902,9.121 173.902,9.534C173.902,10 174.314,10.323 174.879,10.323C175.794,10.323 176.771,9.543 177.031,8.493L177.901,5.032Z" style="fill:rgb(35,31,32);fill-rule:nonzero;"/>
        </g>
        <g transform="matrix(4.16667,0,0,4.16667,-453.586,361.471)">
            <path d="M181.588,7.041C181.582,7.036 181.552,6.976 181.552,6.97C181.552,6.964 181.558,6.958 181.654,6.892C182.263,6.474 183.07,5.924 183.405,5.762C183.608,5.667 183.776,5.613 183.973,5.601C184.033,5.595 184.11,5.589 184.11,5.451C184.11,5.41 184.075,5.368 184.027,5.368C183.895,5.368 183.728,5.386 183.584,5.386C183.495,5.386 183.292,5.386 183.202,5.38C183.13,5.374 182.909,5.362 182.849,5.362C182.813,5.362 182.712,5.362 182.712,5.511C182.712,5.595 182.795,5.601 182.813,5.601C182.951,5.607 182.951,5.649 182.951,5.679C182.951,5.756 182.825,5.852 182.801,5.87C182.783,5.882 182.777,5.888 182.771,5.894C182.765,5.9 182.712,5.936 182.694,5.948L180.094,7.705L180.56,5.846C180.608,5.649 180.62,5.601 181.098,5.601C181.205,5.601 181.289,5.601 181.289,5.451C181.289,5.422 181.271,5.362 181.187,5.362C181.062,5.362 180.918,5.38 180.787,5.38C180.655,5.38 180.518,5.386 180.386,5.386C180.249,5.386 180.111,5.38 179.974,5.38C179.842,5.38 179.693,5.362 179.562,5.362C179.526,5.362 179.43,5.362 179.43,5.511C179.43,5.601 179.508,5.601 179.621,5.601C179.729,5.601 179.878,5.601 180.004,5.643C180.004,5.703 180.004,5.738 179.98,5.834L179.197,8.948C179.143,9.164 179.131,9.205 178.683,9.205C178.545,9.205 178.468,9.205 178.468,9.355C178.468,9.403 178.503,9.444 178.569,9.444C178.695,9.444 178.838,9.427 178.97,9.427C179.107,9.427 179.239,9.421 179.37,9.421C179.508,9.421 179.645,9.427 179.783,9.427C179.914,9.427 180.064,9.444 180.189,9.444C180.231,9.444 180.327,9.444 180.327,9.295C180.327,9.205 180.255,9.205 180.129,9.205C180.117,9.205 180.01,9.205 179.902,9.193C179.783,9.181 179.747,9.181 179.747,9.116C179.747,9.092 179.789,8.942 179.807,8.853C179.836,8.751 179.836,8.739 179.872,8.596C179.956,8.285 179.956,8.273 180.022,7.986L181.062,7.287L182.042,9.032C182.042,9.11 182.042,9.199 181.773,9.205C181.701,9.205 181.612,9.205 181.612,9.355C181.612,9.403 181.648,9.444 181.713,9.444C181.887,9.444 182.329,9.421 182.502,9.421C182.604,9.421 182.706,9.427 182.807,9.427C182.909,9.427 183.023,9.444 183.118,9.444C183.184,9.444 183.25,9.409 183.25,9.295C183.25,9.205 183.154,9.205 183.106,9.205C182.795,9.199 182.748,9.116 182.676,8.984L181.588,7.041Z" style="fill:rgb(35,31,32);fill-rule:nonzero;"/>
        </g>
    </g>
    <g transform="matrix(1,0,0,1,-206.29,-391.576)">
        <g transform="matrix(4.16667,0,0,4.16667,359.565,388.788)">
            <path d="M4.276,5.418C4.321,5.239 4.402,4.916 4.402,4.88C4.402,4.763 4.321,4.62 4.124,4.62C4.007,4.62 3.846,4.692 3.774,4.862C3.756,4.916 3.326,6.646 3.272,6.88C3.218,7.095 3.192,7.238 3.183,7.453C3.218,7.678 3.084,7.875 2.949,8.054C2.752,8.296 2.555,8.359 2.367,8.359C2.044,8.359 1.631,8.224 1.631,7.552C1.631,7.086 1.865,6.449 2.142,5.714C2.187,5.597 2.25,5.445 2.25,5.275C2.25,4.835 1.918,4.521 1.479,4.521C0.618,4.521 0.26,5.795 0.26,5.902C0.26,5.983 0.322,6.01 0.385,6.01C0.484,6.01 0.493,5.956 0.529,5.839C0.717,5.185 1.075,4.746 1.452,4.746C1.631,4.746 1.667,4.862 1.667,5.041C1.667,5.194 1.631,5.355 1.551,5.57C1.111,6.718 1.022,7.05 1.022,7.426C1.022,8.449 1.891,8.583 2.34,8.583C2.689,8.583 3.021,8.44 3.281,7.973C3.55,8.502 4.115,8.583 4.447,8.583C5.083,8.583 5.469,8.117 5.756,7.525C6.007,6.996 6.357,5.723 6.357,5.176C6.357,4.548 6.025,4.512 5.944,4.512C5.72,4.512 5.487,4.754 5.487,4.961C5.487,5.095 5.568,5.167 5.63,5.221C5.872,5.445 5.953,5.732 5.953,5.965C5.953,6.234 5.729,7.059 5.46,7.579C5.263,7.964 4.958,8.359 4.474,8.359C3.801,8.359 3.801,7.731 3.801,7.57C3.801,7.328 3.846,7.14 3.927,6.826L4.276,5.418Z" style="fill:rgb(35,31,32);fill-rule:nonzero;"/>
        </g>
        <g transform="matrix(4.16667,0,0,4.16667,359.565,388.788)">
            <path d="M8.985,0.849C8.985,0.669 8.962,0.669 8.782,0.669C8.388,1.052 7.778,1.052 7.563,1.052L7.563,1.285C7.718,1.285 8.113,1.285 8.471,1.118L8.471,4.136C8.471,4.334 8.471,4.411 7.856,4.411L7.599,4.411L7.599,4.644C7.927,4.621 8.394,4.621 8.728,4.621C9.063,4.621 9.529,4.621 9.858,4.644L9.858,4.411L9.601,4.411C8.985,4.411 8.985,4.334 8.985,4.136L8.985,0.849Z" style="fill:rgb(35,31,32);fill-rule:nonzero;"/>
        </g>
        <g transform="matrix(4.16667,0,0,4.16667,359.565,388.788)">
            <path d="M8.745,6.249C8.745,6.069 8.722,6.069 8.542,6.069C8.148,6.452 7.538,6.452 7.323,6.452L7.323,6.685C7.478,6.685 7.873,6.685 8.231,6.518L8.231,9.536C8.231,9.734 8.231,9.811 7.616,9.811L7.359,9.811L7.359,10.044C7.687,10.021 8.154,10.021 8.488,10.021C8.823,10.021 9.289,10.021 9.618,10.044L9.618,9.811L9.361,9.811C8.745,9.811 8.745,9.734 8.745,9.536L8.745,6.249Z" style="fill:rgb(35,31,32);fill-rule:nonzero;"/>
        </g>
    </g>
    <g transform="matrix(1,0,0,1,-314.105,-340.462)">
        <g transform="matrix(4.16667,0,0,4.16667,359.565,388.788)">
            <path d="M24.196,5.418C24.241,5.239 24.322,4.916 24.322,4.88C24.322,4.763 24.241,4.62 24.044,4.62C23.927,4.62 23.766,4.692 23.694,4.862C23.676,4.916 23.246,6.646 23.192,6.88C23.138,7.095 23.112,7.238 23.103,7.453C23.138,7.678 23.004,7.875 22.869,8.054C22.672,8.296 22.475,8.359 22.287,8.359C21.964,8.359 21.551,8.224 21.551,7.552C21.551,7.086 21.785,6.449 22.062,5.714C22.107,5.597 22.17,5.445 22.17,5.275C22.17,4.835 21.838,4.521 21.399,4.521C20.538,4.521 20.18,5.795 20.18,5.902C20.18,5.983 20.242,6.01 20.305,6.01C20.404,6.01 20.413,5.956 20.449,5.839C20.637,5.185 20.995,4.746 21.372,4.746C21.551,4.746 21.587,4.862 21.587,5.041C21.587,5.194 21.551,5.355 21.471,5.57C21.031,6.718 20.942,7.05 20.942,7.426C20.942,8.449 21.811,8.583 22.26,8.583C22.609,8.583 22.941,8.44 23.201,7.973C23.47,8.502 24.035,8.583 24.367,8.583C25.003,8.583 25.389,8.117 25.676,7.525C25.927,6.996 26.277,5.723 26.277,5.176C26.277,4.548 25.945,4.512 25.864,4.512C25.64,4.512 25.407,4.754 25.407,4.961C25.407,5.095 25.488,5.167 25.55,5.221C25.792,5.445 25.873,5.732 25.873,5.965C25.873,6.234 25.649,7.059 25.38,7.579C25.183,7.964 24.878,8.359 24.394,8.359C23.721,8.359 23.721,7.731 23.721,7.57C23.721,7.328 23.766,7.14 23.847,6.826L24.196,5.418Z" style="fill:rgb(35,31,32);fill-rule:nonzero;"/>
        </g>
        <g transform="matrix(4.16667,0,0,4.16667,359.565,388.788)">
            <path d="M28.905,0.849C28.905,0.669 28.882,0.669 28.702,0.669C28.308,1.052 27.698,1.052 27.483,1.052L27.483,1.285C27.638,1.285 28.033,1.285 28.391,1.118L28.391,4.136C28.391,4.334 28.391,4.411 27.776,4.411L27.519,4.411L27.519,4.644C27.847,4.621 28.314,4.621 28.648,4.621C28.983,4.621 29.449,4.621 29.778,4.644L29.778,4.411L29.521,4.411C28.905,4.411 28.905,4.334 28.905,4.136L28.905,0.849Z" style="fill:rgb(35,31,32);fill-rule:nonzero;"/>
        </g>
        <g transform="matrix(4.16667,0,0,4.16667,359.565,388.788)">
            <path d="M31.78,6.859C31.846,6.608 31.965,6.459 32.419,6.441C32.455,6.441 32.551,6.435 32.551,6.297C32.551,6.238 32.515,6.202 32.455,6.202C32.312,6.202 31.959,6.226 31.816,6.226L31.487,6.22C31.379,6.22 31.254,6.202 31.152,6.202C31.051,6.202 31.021,6.28 31.021,6.351C31.021,6.441 31.116,6.441 31.164,6.441C31.445,6.447 31.559,6.525 31.559,6.68C31.559,6.704 31.553,6.74 31.547,6.776L30.889,9.4L29.257,6.309C29.197,6.208 29.191,6.202 29.048,6.202L28.187,6.202C28.074,6.202 27.984,6.202 27.984,6.351C27.984,6.441 28.068,6.441 28.205,6.441C28.241,6.441 28.444,6.441 28.588,6.471L27.799,9.621C27.739,9.848 27.649,10.027 27.153,10.045C27.075,10.045 27.022,10.087 27.022,10.201C27.028,10.225 27.034,10.284 27.123,10.284C27.267,10.284 27.619,10.261 27.763,10.261L28.092,10.267C28.199,10.267 28.325,10.284 28.426,10.284C28.552,10.284 28.558,10.159 28.558,10.129C28.54,10.045 28.48,10.045 28.408,10.045C28.133,10.039 28.014,9.962 28.014,9.806C28.014,9.77 28.02,9.747 28.038,9.681L28.803,6.626L30.68,10.183C30.722,10.267 30.734,10.284 30.817,10.284C30.919,10.284 30.931,10.255 30.955,10.147L31.78,6.859Z" style="fill:rgb(35,31,32);fill-rule:nonzero;"/>
        </g>
    </g>
    <g transform="matrix(1,0,0,1,-348.388,-291.802)">
        <g transform="matrix(4.16667,0,0,4.16667,359.565,388.788)">
            <path d="M44.622,2.567C44.658,2.441 44.658,2.423 44.658,2.387C44.658,2.307 44.605,2.262 44.524,2.262C44.398,2.262 43.609,2.334 43.43,2.351C43.34,2.36 43.242,2.369 43.242,2.522C43.242,2.638 43.34,2.638 43.484,2.638C43.905,2.638 43.905,2.701 43.905,2.782C43.905,2.836 43.905,2.854 43.842,3.096L43.367,4.988C43.242,5.49 43.125,5.947 43.026,6.368C42.964,6.593 42.901,6.862 42.901,7.148C42.901,7.92 43.331,8.583 44.102,8.583C45.151,8.583 46.299,7.319 46.299,5.974C46.299,5.059 45.734,4.521 45.062,4.521C44.605,4.521 44.21,4.835 44.004,5.032L44.622,2.567ZM43.878,5.544C44.129,5.185 44.587,4.746 45.044,4.746C45.465,4.746 45.636,5.167 45.636,5.588C45.636,5.992 45.385,7.104 45.107,7.579C44.775,8.153 44.38,8.359 44.102,8.359C43.654,8.359 43.475,7.911 43.475,7.453C43.475,7.14 43.538,6.897 43.744,6.081L43.878,5.544Z" style="fill:rgb(35,31,32);fill-rule:nonzero;"/>
        </g>
        <g transform="matrix(4.16667,0,0,4.16667,359.565,388.788)">
            <path d="M48.585,0.849C48.585,0.669 48.562,0.669 48.382,0.669C47.988,1.052 47.378,1.052 47.163,1.052L47.163,1.285C47.318,1.285 47.713,1.285 48.071,1.118L48.071,4.136C48.071,4.334 48.071,4.411 47.456,4.411L47.199,4.411L47.199,4.644C47.527,4.621 47.994,4.621 48.328,4.621C48.663,4.621 49.129,4.621 49.458,4.644L49.458,4.411L49.201,4.411C48.585,4.411 48.585,4.334 48.585,4.136L48.585,0.849Z" style="fill:rgb(35,31,32);fill-rule:nonzero;"/>
        </g>
    </g>
    <g transform="matrix(0.964203,0.00524578,0.0056444,1.00147,-56.4305,94.0132)">
        <g transform="matrix(1.03716,-0.00543272,-0.00584554,0.998562,59.0769,-94.1846)">
            <path d="M197.478,266.974L208.354,276.171L194.47,279.354L197.478,266.974Z" style="fill:rgb(35,31,32);"/>
            <path d="M51.382,238.04C51.382,238.04 163.985,265.393 198.45,273.765" style="fill:none;stroke:rgb(35,31,32);stroke-width:2.62px;"/>
        </g>
    </g>
    <g transform="matrix(6.12323e-17,1,-1,6.12323e-17,753.411,29.5199)">
        <g transform="matrix(37.5,0,0,37.5,97.077,397.185)">
            <path d="M0.125,-0.108C0.141,-0.108 0.154,-0.102 0.166,-0.091C0.177,-0.08 0.183,-0.066 0.183,-0.049C0.183,-0.033 0.177,-0.02 0.166,-0.008C0.155,0.003 0.141,0.009 0.125,0.009C0.109,0.009 0.095,0.003 0.083,-0.008C0.072,-0.019 0.066,-0.033 0.066,-0.049C0.066,-0.066 0.072,-0.079 0.083,-0.091C0.095,-0.102 0.109,-0.108 0.125,-0.108Z" style="fill-rule:nonzero;"/>
        </g>
        <g transform="matrix(37.5,0,0,37.5,115.827,397.185)">
            <path d="M0.125,-0.108C0.141,-0.108 0.154,-0.102 0.166,-0.091C0.177,-0.08 0.183,-0.066 0.183,-0.049C0.183,-0.033 0.177,-0.02 0.166,-0.008C0.155,0.003 0.141,0.009 0.125,0.009C0.109,0.009 0.095,0.003 0.083,-0.008C0.072,-0.019 0.066,-0.033 0.066,-0.049C0.066,-0.066 0.072,-0.079 0.083,-0.091C0.095,-0.102 0.109,-0.108 0.125,-0.108Z" style="fill-rule:nonzero;"/>
        </g>
        <g transform="matrix(37.5,0,0,37.5,134.577,397.185)">
            <path d="M0.125,-0.108C0.141,-0.108 0.154,-0.102 0.166,-0.091C0.177,-0.08 0.183,-0.066 0.183,-0.049C0.183,-0.033 0.177,-0.02 0.166,-0.008C0.155,0.003 0.141,0.009 0.125,0.009C0.109,0.009 0.095,0.003 0.083,-0.008C0.072,-0.019 0.066,-0.033 0.066,-0.049C0.066,-0.066 0.072,-0.079 0.083,-0.091C0.095,-0.102 0.109,-0.108 0.125,-0.108Z" style="fill-rule:nonzero;"/>
        </g>
    </g>
    <g transform="matrix(6.12323e-17,1,-1,6.12323e-17,961.781,29.5199)">
        <g transform="matrix(37.5,0,0,37.5,97.077,397.185)">
            <path d="M0.125,-0.108C0.141,-0.108 0.154,-0.102 0.166,-0.091C0.177,-0.08 0.183,-0.066 0.183,-0.049C0.183,-0.033 0.177,-0.02 0.166,-0.008C0.155,0.003 0.141,0.009 0.125,0.009C0.109,0.009 0.095,0.003 0.083,-0.008C0.072,-0.019 0.066,-0.033 0.066,-0.049C0.066,-0.066 0.072,-0.079 0.083,-0.091C0.095,-0.102 0.109,-0.108 0.125,-0.108Z" style="fill-rule:nonzero;"/>
        </g>
        <g transform="matrix(37.5,0,0,37.5,115.827,397.185)">
            <path d="M0.125,-0.108C0.141,-0.108 0.154,-0.102 0.166,-0.091C0.177,-0.08 0.183,-0.066 0.183,-0.049C0.183,-0.033 0.177,-0.02 0.166,-0.008C0.155,0.003 0.141,0.009 0.125,0.009C0.109,0.009 0.095,0.003 0.083,-0.008C0.072,-0.019 0.066,-0.033 0.066,-0.049C0.066,-0.066 0.072,-0.079 0.083,-0.091C0.095,-0.102 0.109,-0.108 0.125,-0.108Z" style="fill-rule:nonzero;"/>
        </g>
        <g transform="matrix(37.5,0,0,37.5,134.577,397.185)">
            <path d="M0.125,-0.108C0.141,-0.108 0.154,-0.102 0.166,-0.091C0.177,-0.08 0.183,-0.066 0.183,-0.049C0.183,-0.033 0.177,-0.02 0.166,-0.008C0.155,0.003 0.141,0.009 0.125,0.009C0.109,0.009 0.095,0.003 0.083,-0.008C0.072,-0.019 0.066,-0.033 0.066,-0.049C0.066,-0.066 0.072,-0.079 0.083,-0.091C0.095,-0.102 0.109,-0.108 0.125,-0.108Z" style="fill-rule:nonzero;"/>
        </g>
    </g>
    <g transform="matrix(3.92361e-19,0.00640774,-0.0157341,9.63434e-19,308.398,335.369)">
        <path d="M-8,24C801,24 1456,707 1456,1548L1456,6756C1456,7598 2112,8280 2920,8280C2112,8280 1456,8963 1456,9804L1456,15012C1456,15854 801,16536 -8,16536" style="fill:none;stroke:black;stroke-width:134.6px;stroke-linecap:butt;stroke-linejoin:miter;stroke-miterlimit:8;"/>
    </g>
    <g transform="matrix(3.92361e-19,0.00640774,-0.0112041,6.86056e-19,520.895,335.369)">
        <path d="M-8,24C801,24 1456,707 1456,1548L1456,6756C1456,7598 2112,8280 2920,8280C2112,8280 1456,8963 1456,9804L1456,15012C1456,15854 801,16536 -8,16536" style="fill:none;stroke:black;stroke-width:134.6px;stroke-linecap:butt;stroke-linejoin:miter;stroke-miterlimit:8;"/>
    </g>
</svg>
