<?xml version="1.0" encoding="UTF-8" standalone="no"?>
<!DOCTYPE svg PUBLIC "-//W3C//DTD SVG 1.1//EN" "http://www.w3.org/Graphics/SVG/1.1/DTD/svg11.dtd">
<svg width="100%" height="100%" viewBox="0 0 591 249" version="1.1" xmlns="http://www.w3.org/2000/svg" xmlns:xlink="http://www.w3.org/1999/xlink" xml:space="preserve" xmlns:serif="http://www.serif.com/" style="fill-rule:evenodd;clip-rule:evenodd;stroke-linecap:round;stroke-linejoin:round;stroke-miterlimit:1.5;">
    <g transform="matrix(0.399506,0,0,0.399506,-53.1236,-121.267)">
        <circle cx="777.909" cy="508.114" r="123.406" style="fill:none;stroke:rgb(35,31,32);stroke-width:6.56px;"/>
    </g>
    <g transform="matrix(0.399506,0,0,0.399506,117.346,-121.267)">
        <circle cx="777.909" cy="508.114" r="123.406" style="fill:none;stroke:rgb(35,31,32);stroke-width:6.56px;"/>
    </g>
    <g transform="matrix(4.16667,0,0,4.16667,-219.592,59.8632)">
        <path d="M114.181,5.4C114.27,5.301 114.27,5.275 114.27,5.248C114.27,5.239 114.27,5.194 114.199,5.104L111.222,1.15L114.844,1.15C115.517,1.15 116.189,1.186 116.844,1.365C117.678,1.607 118.359,2.145 118.637,2.89L118.888,2.89L118.099,0.764L110.451,0.764C110.2,0.764 110.191,0.773 110.191,1.069L113.553,5.553L110.28,9.471C110.2,9.56 110.191,9.587 110.191,9.614C110.191,9.731 110.289,9.731 110.451,9.731L118.099,9.731L118.888,7.471L118.637,7.471C118.386,8.18 117.749,8.727 116.933,8.978C116.808,9.014 116.162,9.211 114.898,9.211L110.998,9.211L114.181,5.4Z" style="fill:rgb(35,31,32);fill-rule:nonzero;"/>
    </g>
    <g transform="matrix(1,0,0,1,-230.912,-114.595)">
        <g>
            <g transform="matrix(4.16667,0,0,4.16667,233.822,99.9241)">
                <path d="M4.411,3.862C4.079,3.925 3.981,4.212 3.981,4.346C3.981,4.517 4.106,4.669 4.33,4.669C4.581,4.669 4.823,4.454 4.823,4.14C4.823,3.728 4.375,3.521 3.954,3.521C3.416,3.521 3.102,3.997 2.994,4.185C2.824,3.746 2.429,3.521 1.999,3.521C1.04,3.521 0.52,4.669 0.52,4.902C0.52,4.983 0.582,5.01 0.645,5.01C0.726,5.01 0.753,4.965 0.771,4.911C1.049,4.023 1.64,3.746 1.981,3.746C2.241,3.746 2.474,3.916 2.474,4.337C2.474,4.66 2.089,6.095 1.972,6.525C1.9,6.803 1.631,7.359 1.138,7.359C0.959,7.359 0.771,7.296 0.681,7.242C0.923,7.198 1.102,6.991 1.102,6.758C1.102,6.534 0.932,6.435 0.762,6.435C0.502,6.435 0.268,6.66 0.268,6.964C0.268,7.404 0.753,7.583 1.129,7.583C1.649,7.583 1.954,7.153 2.089,6.911C2.313,7.502 2.842,7.583 3.084,7.583C4.052,7.583 4.563,6.417 4.563,6.202C4.563,6.157 4.536,6.095 4.447,6.095C4.348,6.095 4.339,6.131 4.294,6.265C4.097,6.911 3.577,7.359 3.111,7.359C2.851,7.359 2.609,7.198 2.609,6.767C2.609,6.57 2.734,6.077 2.815,5.736C2.851,5.575 3.093,4.606 3.111,4.544C3.218,4.221 3.487,3.746 3.945,3.746C4.106,3.746 4.276,3.772 4.411,3.862Z" style="fill:rgb(35,31,32);fill-rule:nonzero;"/>
            </g>
            <g transform="matrix(4.16667,0,0,4.16667,233.822,99.9241)">
                <path d="M7.425,4.649C7.425,4.469 7.402,4.469 7.222,4.469C6.828,4.852 6.218,4.852 6.003,4.852L6.003,5.085C6.158,5.085 6.553,5.085 6.911,4.918L6.911,7.936C6.911,8.134 6.911,8.211 6.296,8.211L6.039,8.211L6.039,8.444C6.367,8.421 6.834,8.421 7.168,8.421C7.503,8.421 7.969,8.421 8.298,8.444L8.298,8.211L8.041,8.211C7.425,8.211 7.425,8.134 7.425,7.936L7.425,4.649Z" style="fill:rgb(35,31,32);fill-rule:nonzero;"/>
            </g>
        </g>
        <g transform="matrix(1,0,0,1,-80.5271,100.466)">
            <g transform="matrix(4.16667,0,0,4.16667,233.822,99.9241)">
                <path d="M22.771,3.862C22.439,3.925 22.341,4.212 22.341,4.346C22.341,4.517 22.466,4.669 22.69,4.669C22.941,4.669 23.183,4.454 23.183,4.14C23.183,3.728 22.735,3.521 22.314,3.521C21.776,3.521 21.462,3.997 21.354,4.185C21.184,3.746 20.789,3.521 20.359,3.521C19.4,3.521 18.88,4.669 18.88,4.902C18.88,4.983 18.942,5.01 19.005,5.01C19.086,5.01 19.113,4.965 19.131,4.911C19.409,4.023 20,3.746 20.341,3.746C20.601,3.746 20.834,3.916 20.834,4.337C20.834,4.66 20.449,6.095 20.332,6.525C20.26,6.803 19.991,7.359 19.498,7.359C19.319,7.359 19.131,7.296 19.041,7.242C19.283,7.198 19.462,6.991 19.462,6.758C19.462,6.534 19.292,6.435 19.122,6.435C18.862,6.435 18.628,6.66 18.628,6.964C18.628,7.404 19.113,7.583 19.489,7.583C20.009,7.583 20.314,7.153 20.449,6.911C20.673,7.502 21.202,7.583 21.444,7.583C22.412,7.583 22.923,6.417 22.923,6.202C22.923,6.157 22.896,6.095 22.807,6.095C22.708,6.095 22.699,6.131 22.654,6.265C22.457,6.911 21.937,7.359 21.471,7.359C21.211,7.359 20.969,7.198 20.969,6.767C20.969,6.57 21.094,6.077 21.175,5.736C21.211,5.575 21.453,4.606 21.471,4.544C21.578,4.221 21.847,3.746 22.305,3.746C22.466,3.746 22.636,3.772 22.771,3.862Z" style="fill:rgb(35,31,32);fill-rule:nonzero;"/>
            </g>
            <g transform="matrix(4.16667,0,0,4.16667,233.822,99.9241)">
                <path d="M28.9,5.019C28.966,4.768 29.085,4.619 29.539,4.601C29.575,4.601 29.671,4.595 29.671,4.457C29.671,4.398 29.635,4.362 29.575,4.362C29.432,4.362 29.079,4.386 28.936,4.386L28.607,4.38C28.499,4.38 28.374,4.362 28.272,4.362C28.171,4.362 28.141,4.44 28.141,4.511C28.141,4.601 28.236,4.601 28.284,4.601C28.565,4.607 28.679,4.685 28.679,4.84C28.679,4.864 28.673,4.9 28.667,4.936L28.009,7.56L26.377,4.469C26.317,4.368 26.311,4.362 26.168,4.362L25.307,4.362C25.194,4.362 25.104,4.362 25.104,4.511C25.104,4.601 25.188,4.601 25.325,4.601C25.361,4.601 25.564,4.601 25.708,4.631L24.919,7.781C24.859,8.008 24.769,8.187 24.273,8.205C24.195,8.205 24.142,8.247 24.142,8.361C24.148,8.385 24.154,8.444 24.243,8.444C24.387,8.444 24.739,8.421 24.883,8.421L25.212,8.427C25.319,8.427 25.445,8.444 25.546,8.444C25.672,8.444 25.678,8.319 25.678,8.289C25.66,8.205 25.6,8.205 25.528,8.205C25.253,8.199 25.134,8.122 25.134,7.966C25.134,7.93 25.14,7.907 25.158,7.841L25.923,4.786L27.8,8.343C27.842,8.427 27.854,8.444 27.937,8.444C28.039,8.444 28.051,8.415 28.075,8.307L28.9,5.019Z" style="fill:rgb(35,31,32);fill-rule:nonzero;"/>
            </g>
        </g>
        <g transform="matrix(4.16667,0,0,4.16667,79.614,246.867)">
            <path d="M42.205,1.755C42.205,1.531 42.196,1.513 41.972,1.513C41.416,2.087 40.591,2.087 40.313,2.087L40.313,2.365C40.484,2.365 41.031,2.365 41.515,2.132L41.515,6.767C41.515,7.099 41.488,7.207 40.654,7.207L40.367,7.207L40.367,7.484C40.69,7.458 41.488,7.458 41.856,7.458C42.223,7.458 43.03,7.458 43.353,7.484L43.353,7.207L43.066,7.207C42.232,7.207 42.205,7.099 42.205,6.767L42.205,1.755Z" style="fill:rgb(35,31,32);fill-rule:nonzero;"/>
        </g>
        <g transform="matrix(6.12323e-17,1,-1,6.12323e-17,646.992,49.9441)">
            <g transform="matrix(37.5,0,0,37.5,97.077,397.185)">
                <path d="M0.125,-0.108C0.141,-0.108 0.154,-0.102 0.166,-0.091C0.177,-0.08 0.183,-0.066 0.183,-0.049C0.183,-0.033 0.177,-0.02 0.166,-0.008C0.155,0.003 0.141,0.009 0.125,0.009C0.109,0.009 0.095,0.003 0.083,-0.008C0.072,-0.019 0.066,-0.033 0.066,-0.049C0.066,-0.066 0.072,-0.079 0.083,-0.091C0.095,-0.102 0.109,-0.108 0.125,-0.108Z" style="fill-rule:nonzero;"/>
            </g>
            <g transform="matrix(37.5,0,0,37.5,115.827,397.185)">
                <path d="M0.125,-0.108C0.141,-0.108 0.154,-0.102 0.166,-0.091C0.177,-0.08 0.183,-0.066 0.183,-0.049C0.183,-0.033 0.177,-0.02 0.166,-0.008C0.155,0.003 0.141,0.009 0.125,0.009C0.109,0.009 0.095,0.003 0.083,-0.008C0.072,-0.019 0.066,-0.033 0.066,-0.049C0.066,-0.066 0.072,-0.079 0.083,-0.091C0.095,-0.102 0.109,-0.108 0.125,-0.108Z" style="fill-rule:nonzero;"/>
            </g>
            <g transform="matrix(37.5,0,0,37.5,134.577,397.185)">
                <path d="M0.125,-0.108C0.141,-0.108 0.154,-0.102 0.166,-0.091C0.177,-0.08 0.183,-0.066 0.183,-0.049C0.183,-0.033 0.177,-0.02 0.166,-0.008C0.155,0.003 0.141,0.009 0.125,0.009C0.109,0.009 0.095,0.003 0.083,-0.008C0.072,-0.019 0.066,-0.033 0.066,-0.049C0.066,-0.066 0.072,-0.079 0.083,-0.091C0.095,-0.102 0.109,-0.108 0.125,-0.108Z" style="fill-rule:nonzero;"/>
            </g>
        </g>
    </g>
    <g transform="matrix(6.12323e-17,1,-1,6.12323e-17,514.743,-86.9082)">
        <g transform="matrix(37.5,0,0,37.5,97.077,397.185)">
            <path d="M0.125,-0.108C0.141,-0.108 0.154,-0.102 0.166,-0.091C0.177,-0.08 0.183,-0.066 0.183,-0.049C0.183,-0.033 0.177,-0.02 0.166,-0.008C0.155,0.003 0.141,0.009 0.125,0.009C0.109,0.009 0.095,0.003 0.083,-0.008C0.072,-0.019 0.066,-0.033 0.066,-0.049C0.066,-0.066 0.072,-0.079 0.083,-0.091C0.095,-0.102 0.109,-0.108 0.125,-0.108Z" style="fill-rule:nonzero;"/>
        </g>
    </g>
    <g transform="matrix(6.12323e-17,1,-1,6.12323e-17,510.241,-19.9362)">
        <g transform="matrix(37.5,0,0,37.5,97.077,397.185)">
            <path d="M0.125,-0.108C0.141,-0.108 0.154,-0.102 0.166,-0.091C0.177,-0.08 0.183,-0.066 0.183,-0.049C0.183,-0.033 0.177,-0.02 0.166,-0.008C0.155,0.003 0.141,0.009 0.125,0.009C0.109,0.009 0.095,0.003 0.083,-0.008C0.072,-0.019 0.066,-0.033 0.066,-0.049C0.066,-0.066 0.072,-0.079 0.083,-0.091C0.095,-0.102 0.109,-0.108 0.125,-0.108Z" style="fill-rule:nonzero;"/>
        </g>
    </g>
    <g transform="matrix(6.12323e-17,1,-1,6.12323e-17,519.607,49.3999)">
        <g transform="matrix(37.5,0,0,37.5,97.077,397.185)">
            <path d="M0.125,-0.108C0.141,-0.108 0.154,-0.102 0.166,-0.091C0.177,-0.08 0.183,-0.066 0.183,-0.049C0.183,-0.033 0.177,-0.02 0.166,-0.008C0.155,0.003 0.141,0.009 0.125,0.009C0.109,0.009 0.095,0.003 0.083,-0.008C0.072,-0.019 0.066,-0.033 0.066,-0.049C0.066,-0.066 0.072,-0.079 0.083,-0.091C0.095,-0.102 0.109,-0.108 0.125,-0.108Z" style="fill-rule:nonzero;"/>
        </g>
    </g>
    <g transform="matrix(1,0,0,1,-325.944,-110.077)">
        <g transform="matrix(4.16667,0,0,4.16667,233.822,99.9241)">
            <path d="M57.356,4.418C57.401,4.239 57.482,3.916 57.482,3.88C57.482,3.763 57.401,3.62 57.204,3.62C57.087,3.62 56.926,3.692 56.854,3.862C56.836,3.916 56.406,5.646 56.352,5.88C56.298,6.095 56.271,6.238 56.262,6.453C56.298,6.678 56.164,6.875 56.029,7.054C55.832,7.296 55.635,7.359 55.446,7.359C55.124,7.359 54.711,7.224 54.711,6.552C54.711,6.086 54.944,5.449 55.222,4.714C55.267,4.597 55.33,4.445 55.33,4.275C55.33,3.835 54.998,3.521 54.559,3.521C53.698,3.521 53.339,4.795 53.339,4.902C53.339,4.983 53.402,5.01 53.465,5.01C53.563,5.01 53.572,4.956 53.608,4.839C53.797,4.185 54.155,3.746 54.532,3.746C54.711,3.746 54.747,3.862 54.747,4.041C54.747,4.194 54.711,4.355 54.63,4.57C54.191,5.718 54.101,6.05 54.101,6.426C54.101,7.449 54.971,7.583 55.419,7.583C55.769,7.583 56.101,7.44 56.361,6.973C56.63,7.502 57.195,7.583 57.527,7.583C58.163,7.583 58.549,7.117 58.836,6.525C59.087,5.996 59.436,4.723 59.436,4.176C59.436,3.548 59.105,3.512 59.024,3.512C58.8,3.512 58.567,3.755 58.567,3.961C58.567,4.095 58.647,4.167 58.71,4.221C58.952,4.445 59.033,4.732 59.033,4.965C59.033,5.234 58.809,6.059 58.54,6.579C58.343,6.964 58.038,7.359 57.553,7.359C56.881,7.359 56.881,6.731 56.881,6.57C56.881,6.328 56.926,6.14 57.007,5.826L57.356,4.418Z" style="fill:rgb(35,31,32);fill-rule:nonzero;"/>
        </g>
        <g transform="matrix(4.16667,0,0,4.16667,233.822,99.9241)">
            <path d="M61.785,4.649C61.785,4.469 61.762,4.469 61.582,4.469C61.188,4.852 60.578,4.852 60.363,4.852L60.363,5.085C60.518,5.085 60.913,5.085 61.271,4.918L61.271,7.936C61.271,8.134 61.271,8.211 60.656,8.211L60.399,8.211L60.399,8.444C60.727,8.421 61.194,8.421 61.528,8.421C61.863,8.421 62.329,8.421 62.658,8.444L62.658,8.211L62.401,8.211C61.785,8.211 61.785,8.134 61.785,7.936L61.785,4.649Z" style="fill:rgb(35,31,32);fill-rule:nonzero;"/>
        </g>
    </g>
    <g transform="matrix(1,0,0,1,-414.139,-43.1046)">
        <g transform="matrix(4.16667,0,0,4.16667,233.822,99.9241)">
            <path d="M76.996,4.418C77.041,4.239 77.122,3.916 77.122,3.88C77.122,3.763 77.041,3.62 76.844,3.62C76.727,3.62 76.566,3.692 76.494,3.862C76.476,3.916 76.046,5.646 75.992,5.88C75.938,6.095 75.912,6.238 75.903,6.453C75.938,6.678 75.804,6.875 75.669,7.054C75.472,7.296 75.275,7.359 75.087,7.359C74.764,7.359 74.351,7.224 74.351,6.552C74.351,6.086 74.585,5.449 74.862,4.714C74.907,4.597 74.97,4.445 74.97,4.275C74.97,3.835 74.638,3.521 74.199,3.521C73.338,3.521 72.98,4.795 72.98,4.902C72.98,4.983 73.042,5.01 73.105,5.01C73.204,5.01 73.213,4.956 73.249,4.839C73.437,4.185 73.795,3.746 74.172,3.746C74.351,3.746 74.387,3.862 74.387,4.041C74.387,4.194 74.351,4.355 74.271,4.57C73.831,5.718 73.742,6.05 73.742,6.426C73.742,7.449 74.611,7.583 75.06,7.583C75.409,7.583 75.741,7.44 76.001,6.973C76.27,7.502 76.835,7.583 77.167,7.583C77.803,7.583 78.189,7.117 78.476,6.525C78.727,5.996 79.077,4.723 79.077,4.176C79.077,3.548 78.745,3.512 78.664,3.512C78.44,3.512 78.207,3.754 78.207,3.961C78.207,4.095 78.288,4.167 78.35,4.221C78.592,4.445 78.673,4.732 78.673,4.965C78.673,5.234 78.449,6.059 78.18,6.579C77.983,6.964 77.678,7.359 77.194,7.359C76.521,7.359 76.521,6.731 76.521,6.57C76.521,6.328 76.566,6.14 76.647,5.826L76.996,4.418Z" style="fill:rgb(35,31,32);fill-rule:nonzero;"/>
        </g>
        <g transform="matrix(4.16667,0,0,4.16667,233.822,99.9241)">
            <path d="M84.58,5.019C84.646,4.768 84.765,4.619 85.219,4.601C85.255,4.601 85.351,4.595 85.351,4.457C85.351,4.398 85.315,4.362 85.255,4.362C85.112,4.362 84.759,4.386 84.616,4.386L84.287,4.38C84.179,4.38 84.054,4.362 83.952,4.362C83.851,4.362 83.821,4.44 83.821,4.511C83.821,4.601 83.916,4.601 83.964,4.601C84.245,4.607 84.359,4.685 84.359,4.84C84.359,4.864 84.353,4.9 84.347,4.936L83.689,7.56L82.057,4.469C81.997,4.368 81.991,4.362 81.848,4.362L80.987,4.362C80.874,4.362 80.784,4.362 80.784,4.511C80.784,4.601 80.868,4.601 81.005,4.601C81.041,4.601 81.244,4.601 81.388,4.631L80.599,7.781C80.539,8.008 80.449,8.187 79.953,8.205C79.875,8.205 79.822,8.247 79.822,8.361C79.828,8.385 79.834,8.444 79.923,8.444C80.067,8.444 80.419,8.421 80.563,8.421L80.892,8.427C80.999,8.427 81.125,8.444 81.226,8.444C81.352,8.444 81.358,8.319 81.358,8.289C81.34,8.205 81.28,8.205 81.208,8.205C80.933,8.199 80.814,8.122 80.814,7.966C80.814,7.93 80.82,7.907 80.838,7.841L81.603,4.786L83.48,8.343C83.522,8.427 83.534,8.444 83.617,8.444C83.719,8.444 83.731,8.415 83.755,8.307L84.58,5.019Z" style="fill:rgb(35,31,32);fill-rule:nonzero;"/>
        </g>
    </g>
    <g transform="matrix(4.16667,0,0,4.16667,-261.158,129.743)">
        <path d="M97.422,1.567C97.458,1.441 97.458,1.423 97.458,1.387C97.458,1.307 97.405,1.262 97.324,1.262C97.198,1.262 96.409,1.334 96.23,1.351C96.14,1.36 96.042,1.369 96.042,1.522C96.042,1.638 96.14,1.638 96.284,1.638C96.705,1.638 96.705,1.701 96.705,1.782C96.705,1.836 96.705,1.854 96.642,2.096L96.167,3.988C96.042,4.49 95.925,4.947 95.826,5.368C95.764,5.593 95.701,5.862 95.701,6.148C95.701,6.92 96.131,7.583 96.902,7.583C97.951,7.583 99.099,6.319 99.099,4.974C99.099,4.059 98.534,3.521 97.862,3.521C97.405,3.521 97.01,3.835 96.804,4.032L97.422,1.567ZM96.678,4.544C96.929,4.185 97.387,3.746 97.844,3.746C98.265,3.746 98.436,4.167 98.436,4.588C98.436,4.992 98.185,6.104 97.907,6.579C97.575,7.153 97.18,7.359 96.902,7.359C96.454,7.359 96.275,6.911 96.275,6.453C96.275,6.14 96.338,5.897 96.544,5.081L96.678,4.544Z" style="fill:rgb(35,31,32);fill-rule:nonzero;"/>
    </g>
    <g transform="matrix(4.16667,0,0,4.16667,-126.096,59.6757)">
        <path d="M134.416,1.36C134.416,1.351 134.416,1.262 134.299,1.262C134.192,1.262 134.183,1.307 134.147,1.45L132.676,7.341C132.031,7.26 131.627,6.964 131.627,6.346C131.627,6.157 131.654,5.888 132.085,4.777C132.156,4.579 132.21,4.445 132.21,4.275C132.21,3.835 131.878,3.521 131.439,3.521C130.578,3.521 130.22,4.795 130.22,4.902C130.22,4.983 130.282,5.01 130.345,5.01C130.444,5.01 130.453,4.956 130.489,4.839C130.677,4.185 131.035,3.746 131.412,3.746C131.591,3.746 131.627,3.862 131.627,4.041C131.627,4.248 131.564,4.436 131.493,4.633C131.053,5.754 131,6.059 131,6.283C131,6.929 131.439,7.484 132.614,7.565L132.21,9.224C132.21,9.233 132.21,9.323 132.327,9.323C132.434,9.323 132.443,9.296 132.488,9.098C132.614,8.596 132.748,8.094 132.865,7.583C133.187,7.583 134.12,7.583 135.017,6.462C135.447,5.924 135.599,5.476 135.761,4.66C135.806,4.4 135.806,4.266 135.806,4.176C135.806,3.548 135.474,3.512 135.393,3.512C135.169,3.512 134.936,3.754 134.936,3.961C134.936,4.095 135.017,4.167 135.079,4.221C135.321,4.445 135.402,4.732 135.402,4.965C135.402,5.342 135.151,6.032 134.55,6.624C133.842,7.332 133.25,7.359 132.927,7.359L134.416,1.36Z" style="fill:rgb(35,31,32);fill-rule:nonzero;"/>
    </g>
    <g transform="matrix(4.16667,0,0,4.16667,-42.8083,54.9694)">
        <path d="M149.708,4.032C149.717,3.988 149.735,3.934 149.735,3.88C149.735,3.763 149.654,3.62 149.457,3.62C149.34,3.62 149.179,3.692 149.107,3.862C149.098,3.898 149.009,4.266 148.955,4.463L148.507,6.256C148.435,6.516 148.435,6.534 148.417,6.615C148.408,6.651 148.031,7.359 147.386,7.359C146.83,7.359 146.83,6.794 146.83,6.624C146.83,6.22 146.946,5.781 147.332,4.777C147.404,4.57 147.458,4.445 147.458,4.275C147.458,3.835 147.126,3.521 146.686,3.521C145.826,3.521 145.467,4.795 145.467,4.902C145.467,4.983 145.53,5.01 145.593,5.01C145.691,5.01 145.7,4.956 145.736,4.839C145.924,4.176 146.283,3.746 146.66,3.746C146.875,3.746 146.875,3.916 146.875,4.041C146.875,4.194 146.839,4.355 146.758,4.57C146.337,5.682 146.22,6.059 146.22,6.489C146.22,7.485 147.027,7.583 147.359,7.583C147.798,7.583 148.112,7.35 148.273,7.189C148.157,7.646 148.058,8.049 147.709,8.498C147.44,8.856 147.081,9.098 146.686,9.098C146.435,9.098 146.139,9.009 146.014,8.758C146.489,8.758 146.552,8.363 146.552,8.274C146.552,8.076 146.408,7.951 146.211,7.951C145.996,7.951 145.709,8.121 145.709,8.534C145.709,9 146.122,9.323 146.686,9.323C147.601,9.323 148.578,8.543 148.838,7.493L149.708,4.032Z" style="fill:rgb(35,31,32);fill-rule:nonzero;"/>
    </g>
    <g transform="matrix(0.964203,0.00524578,0.0056444,1.00147,-56.4305,-53.3252)">
        <g transform="matrix(1.03716,-0.00543272,-0.00584554,0.998562,58.2156,52.9419)">
            <path d="M206.807,43.57L217.529,52.947L203.594,55.899L206.807,43.57Z" style="fill:rgb(35,31,32);"/>
            <path d="M51.382,9.652C51.382,9.652 171.939,41.067 207.666,50.377" style="fill:none;stroke:rgb(35,31,32);stroke-width:2.62px;"/>
        </g>
    </g>
    <g transform="matrix(0.944071,0,0,1,-49.6117,-51.5484)">
        <g transform="matrix(1.05924,-0,-0,1,52.5508,51.5484)">
            <path d="M195.414,86.528L208.867,91.208L197.052,99.163L195.414,86.528Z" style="fill:rgb(35,31,32);"/>
            <path d="M51.382,111.623C51.382,111.623 163.982,97.026 198.76,92.518" style="fill:none;stroke:rgb(35,31,32);stroke-width:2.62px;"/>
        </g>
    </g>
    <g transform="matrix(0.986784,0.00322953,0.00322953,0.999211,-64.5388,-51.768)">
        <g transform="matrix(1.0134,-0.0032754,-0.0032754,1.0008,65.2343,51.5981)">
            <path d="M201.314,104.974L215.202,108.137L204.338,117.35L201.314,104.974Z" style="fill:rgb(35,31,32);"/>
            <path d="M51.382,148.17C51.382,148.17 169.856,119.218 205.301,110.557" style="fill:none;stroke:rgb(35,31,32);stroke-width:2.62px;"/>
        </g>
    </g>
    <g transform="matrix(1,0,0,1,-65.4377,-51.5484)">
        <g transform="matrix(1,-0,-0,1,65.4377,51.5484)">
            <path d="M366.083,75.358L378.823,81.728L366.083,88.098L366.083,75.358Z" style="fill:rgb(35,31,32);"/>
            <path d="M306.957,81.728L368.631,81.728" style="fill:none;stroke:rgb(35,31,32);stroke-width:2.62px;"/>
        </g>
    </g>
    <g transform="matrix(1,0,0,1,105.031,-51.5484)">
        <g transform="matrix(1,-0,-0,1,-105.031,51.5484)">
            <path d="M536.552,75.358L549.293,81.728L536.552,88.098L536.552,75.358Z" style="fill:rgb(35,31,32);"/>
            <path d="M477.427,81.728L539.1,81.728" style="fill:none;stroke:rgb(35,31,32);stroke-width:2.62px;"/>
        </g>
    </g>
    <g transform="matrix(1,0,0,1,54.3614,0)">
        <g transform="matrix(37.5,0,0,37.5,70.0472,235.652)">
            <path d="M0.018,-0.687L0.022,-0.69C0.103,-0.687 0.149,-0.686 0.162,-0.686C0.173,-0.686 0.219,-0.687 0.302,-0.69L0.306,-0.687L0.306,-0.662L0.302,-0.659C0.279,-0.658 0.262,-0.657 0.25,-0.656C0.238,-0.654 0.229,-0.652 0.223,-0.648C0.218,-0.645 0.214,-0.636 0.212,-0.623C0.21,-0.61 0.209,-0.592 0.209,-0.568L0.208,-0.456L0.208,-0.24C0.208,-0.186 0.209,-0.148 0.209,-0.127L0.212,-0.042L0.312,-0.042C0.391,-0.042 0.441,-0.043 0.46,-0.045C0.48,-0.047 0.499,-0.052 0.517,-0.06C0.521,-0.068 0.526,-0.086 0.532,-0.116C0.539,-0.145 0.543,-0.162 0.543,-0.167L0.547,-0.17L0.571,-0.17L0.575,-0.167C0.572,-0.153 0.569,-0.128 0.567,-0.091C0.564,-0.053 0.563,-0.023 0.563,-0L0.559,0.004C0.497,0.002 0.416,0.001 0.315,0.001L0.172,-0C0.14,-0 0.107,0.001 0.073,0.004L0.069,-0L0.069,-0.016L0.073,-0.021C0.093,-0.031 0.104,-0.038 0.106,-0.04C0.108,-0.042 0.11,-0.063 0.112,-0.103C0.114,-0.143 0.115,-0.191 0.115,-0.247L0.115,-0.456L0.114,-0.551C0.114,-0.588 0.113,-0.612 0.112,-0.623C0.11,-0.634 0.108,-0.641 0.105,-0.645C0.102,-0.648 0.096,-0.651 0.087,-0.653C0.078,-0.656 0.056,-0.657 0.022,-0.659L0.018,-0.662L0.018,-0.687Z" style="fill-rule:nonzero;"/>
        </g>
        <g transform="matrix(37.5,0,0,37.5,92.9537,235.652)">
            <path d="M0.141,-0.684C0.156,-0.684 0.169,-0.678 0.18,-0.667C0.19,-0.657 0.196,-0.644 0.196,-0.628C0.196,-0.613 0.19,-0.601 0.18,-0.59C0.169,-0.579 0.156,-0.574 0.141,-0.574C0.126,-0.574 0.113,-0.579 0.102,-0.59C0.091,-0.6 0.085,-0.613 0.085,-0.628C0.085,-0.644 0.091,-0.657 0.102,-0.667C0.113,-0.678 0.126,-0.684 0.141,-0.684ZM0.182,-0.465L0.191,-0.459C0.188,-0.416 0.186,-0.362 0.186,-0.296L0.186,-0.186C0.186,-0.179 0.187,-0.156 0.188,-0.117C0.189,-0.078 0.191,-0.055 0.192,-0.049C0.194,-0.042 0.196,-0.038 0.199,-0.035C0.202,-0.032 0.205,-0.03 0.209,-0.029C0.214,-0.028 0.231,-0.027 0.262,-0.025L0.267,-0.021L0.267,-0L0.263,0.004C0.222,0.001 0.183,-0 0.145,-0C0.108,-0 0.069,0.001 0.028,0.004L0.023,-0L0.023,-0.021L0.028,-0.025C0.059,-0.027 0.077,-0.028 0.081,-0.029C0.085,-0.03 0.089,-0.032 0.092,-0.035C0.095,-0.038 0.097,-0.043 0.098,-0.05C0.1,-0.056 0.101,-0.077 0.102,-0.113C0.104,-0.148 0.104,-0.175 0.104,-0.193L0.104,-0.29C0.104,-0.303 0.104,-0.32 0.103,-0.343C0.101,-0.365 0.1,-0.379 0.099,-0.384C0.099,-0.389 0.096,-0.393 0.092,-0.396C0.088,-0.398 0.079,-0.399 0.066,-0.399L0.025,-0.4L0.021,-0.404L0.021,-0.425L0.025,-0.429C0.087,-0.436 0.139,-0.448 0.182,-0.465Z" style="fill-rule:nonzero;"/>
        </g>
        <g transform="matrix(37.5,0,0,37.5,103.867,235.652)">
            <path d="M0.167,-0.465L0.176,-0.459C0.174,-0.437 0.173,-0.409 0.172,-0.373C0.198,-0.395 0.223,-0.416 0.247,-0.438C0.253,-0.445 0.26,-0.449 0.266,-0.452C0.272,-0.455 0.282,-0.458 0.296,-0.461C0.31,-0.465 0.324,-0.466 0.339,-0.466C0.364,-0.466 0.388,-0.461 0.411,-0.451C0.434,-0.441 0.452,-0.429 0.464,-0.415C0.476,-0.401 0.484,-0.385 0.488,-0.366C0.493,-0.347 0.495,-0.324 0.495,-0.296L0.495,-0.21C0.495,-0.205 0.496,-0.164 0.498,-0.089C0.498,-0.058 0.502,-0.04 0.508,-0.034C0.514,-0.028 0.534,-0.025 0.568,-0.025L0.572,-0.021L0.572,-0L0.568,0.004C0.527,0.001 0.499,-0 0.484,-0C0.476,-0 0.452,0.001 0.413,0.004L0.407,-0.001C0.411,-0.044 0.414,-0.099 0.414,-0.167L0.414,-0.231C0.414,-0.269 0.413,-0.297 0.411,-0.314C0.409,-0.331 0.404,-0.346 0.395,-0.36C0.385,-0.374 0.373,-0.385 0.358,-0.392C0.343,-0.4 0.324,-0.404 0.303,-0.404C0.286,-0.404 0.272,-0.402 0.26,-0.399C0.248,-0.395 0.234,-0.388 0.219,-0.378C0.204,-0.367 0.193,-0.357 0.186,-0.348C0.179,-0.339 0.175,-0.33 0.173,-0.322C0.172,-0.314 0.171,-0.297 0.171,-0.271L0.171,-0.186C0.171,-0.179 0.172,-0.156 0.173,-0.117C0.174,-0.078 0.176,-0.055 0.177,-0.049C0.178,-0.042 0.181,-0.038 0.184,-0.035C0.187,-0.032 0.19,-0.03 0.194,-0.029C0.199,-0.028 0.216,-0.027 0.247,-0.025L0.251,-0.021L0.251,-0L0.248,0.004C0.207,0.001 0.168,-0 0.13,-0C0.092,-0 0.053,0.001 0.013,0.004L0.008,-0L0.008,-0.021L0.013,-0.025C0.044,-0.027 0.062,-0.028 0.066,-0.029C0.07,-0.03 0.074,-0.032 0.077,-0.035C0.08,-0.038 0.082,-0.043 0.083,-0.05C0.084,-0.056 0.086,-0.077 0.087,-0.113C0.089,-0.148 0.089,-0.175 0.089,-0.193L0.089,-0.29C0.089,-0.303 0.089,-0.32 0.087,-0.343C0.086,-0.365 0.085,-0.379 0.084,-0.384C0.083,-0.389 0.081,-0.393 0.077,-0.396C0.072,-0.398 0.064,-0.399 0.051,-0.399L0.01,-0.4L0.006,-0.404L0.006,-0.425L0.01,-0.429C0.072,-0.436 0.124,-0.448 0.167,-0.465Z" style="fill-rule:nonzero;"/>
        </g>
        <g transform="matrix(37.5,0,0,37.5,125.693,235.652)">
            <path d="M0.432,-0.072L0.416,-0.037C0.382,-0.015 0.352,-0.001 0.325,0.006C0.299,0.012 0.275,0.016 0.254,0.016C0.215,0.016 0.178,0.008 0.143,-0.007C0.108,-0.023 0.08,-0.049 0.058,-0.085C0.036,-0.121 0.025,-0.165 0.025,-0.217C0.025,-0.251 0.029,-0.282 0.038,-0.309C0.046,-0.337 0.055,-0.357 0.064,-0.371C0.073,-0.384 0.089,-0.399 0.111,-0.415C0.133,-0.431 0.157,-0.444 0.182,-0.454C0.206,-0.464 0.233,-0.469 0.262,-0.469C0.301,-0.469 0.335,-0.46 0.365,-0.441C0.395,-0.423 0.416,-0.399 0.428,-0.371C0.44,-0.342 0.446,-0.312 0.446,-0.279C0.446,-0.269 0.445,-0.259 0.444,-0.25L0.439,-0.245C0.417,-0.24 0.387,-0.236 0.35,-0.235C0.312,-0.233 0.287,-0.232 0.275,-0.232L0.119,-0.232C0.119,-0.165 0.136,-0.115 0.169,-0.083C0.203,-0.052 0.243,-0.036 0.292,-0.036C0.314,-0.036 0.336,-0.04 0.357,-0.047C0.378,-0.055 0.4,-0.066 0.424,-0.08L0.432,-0.072ZM0.119,-0.271C0.125,-0.271 0.147,-0.269 0.186,-0.268C0.226,-0.267 0.255,-0.266 0.273,-0.266C0.319,-0.266 0.346,-0.267 0.356,-0.269C0.356,-0.276 0.356,-0.282 0.356,-0.287C0.356,-0.337 0.346,-0.375 0.326,-0.399C0.305,-0.424 0.277,-0.436 0.242,-0.436C0.203,-0.436 0.173,-0.422 0.151,-0.395C0.129,-0.367 0.119,-0.326 0.119,-0.271Z" style="fill-rule:nonzero;"/>
        </g>
        <g transform="matrix(37.5,0,0,37.5,143.656,235.652)">
            <path d="M0.104,-0.331L0.084,-0.336L0.081,-0.341L0.081,-0.401C0.139,-0.444 0.195,-0.466 0.25,-0.466C0.287,-0.466 0.318,-0.459 0.343,-0.445C0.368,-0.431 0.385,-0.413 0.396,-0.392C0.408,-0.371 0.413,-0.347 0.413,-0.319L0.411,-0.221L0.411,-0.075C0.411,-0.055 0.412,-0.043 0.415,-0.039C0.418,-0.035 0.421,-0.032 0.424,-0.031C0.428,-0.029 0.435,-0.028 0.444,-0.027L0.472,-0.024L0.476,-0.02L0.476,-0L0.472,0.003C0.448,0.001 0.426,0 0.406,0C0.386,0 0.363,0.001 0.335,0.003L0.328,-0.003L0.33,-0.082L0.224,0.001C0.206,0.008 0.186,0.012 0.165,0.012C0.139,0.012 0.117,0.007 0.098,-0.002C0.079,-0.011 0.065,-0.025 0.055,-0.042C0.045,-0.058 0.04,-0.079 0.04,-0.103C0.04,-0.151 0.055,-0.188 0.085,-0.215C0.115,-0.242 0.197,-0.265 0.33,-0.284C0.33,-0.332 0.319,-0.366 0.298,-0.385C0.276,-0.405 0.248,-0.415 0.211,-0.415C0.193,-0.415 0.175,-0.412 0.16,-0.407C0.144,-0.401 0.136,-0.397 0.133,-0.393C0.131,-0.39 0.122,-0.37 0.107,-0.333L0.104,-0.331ZM0.33,-0.254C0.239,-0.239 0.182,-0.222 0.16,-0.205C0.137,-0.187 0.126,-0.16 0.126,-0.123C0.126,-0.072 0.151,-0.047 0.202,-0.047C0.245,-0.047 0.288,-0.072 0.33,-0.122L0.33,-0.254Z" style="fill-rule:nonzero;"/>
        </g>
        <g transform="matrix(37.5,0,0,37.5,162.406,235.652)">
            <path d="M0.188,-0.465L0.197,-0.459C0.195,-0.44 0.193,-0.407 0.192,-0.358L0.229,-0.405C0.241,-0.42 0.252,-0.432 0.261,-0.44C0.27,-0.448 0.281,-0.455 0.293,-0.459C0.306,-0.464 0.319,-0.466 0.332,-0.466C0.346,-0.466 0.359,-0.463 0.372,-0.458L0.375,-0.451C0.37,-0.407 0.367,-0.369 0.367,-0.336L0.345,-0.336C0.332,-0.366 0.311,-0.381 0.282,-0.381C0.262,-0.381 0.244,-0.375 0.229,-0.362C0.214,-0.349 0.204,-0.333 0.199,-0.314C0.194,-0.294 0.191,-0.27 0.191,-0.24L0.191,-0.186C0.191,-0.176 0.192,-0.152 0.193,-0.114C0.195,-0.076 0.196,-0.054 0.198,-0.048C0.199,-0.042 0.201,-0.038 0.204,-0.035C0.207,-0.033 0.212,-0.031 0.217,-0.03C0.222,-0.029 0.245,-0.027 0.286,-0.025L0.291,-0.021L0.291,-0L0.286,0.004C0.243,0.001 0.198,-0 0.15,-0C0.113,-0 0.074,0.001 0.033,0.004L0.029,-0L0.029,-0.021L0.033,-0.025C0.065,-0.027 0.083,-0.028 0.087,-0.029C0.091,-0.03 0.094,-0.032 0.097,-0.035C0.101,-0.038 0.103,-0.043 0.104,-0.05C0.105,-0.056 0.106,-0.077 0.108,-0.113C0.109,-0.148 0.11,-0.175 0.11,-0.193L0.11,-0.29C0.11,-0.303 0.109,-0.32 0.108,-0.343C0.107,-0.365 0.106,-0.379 0.105,-0.384C0.104,-0.389 0.101,-0.393 0.097,-0.396C0.093,-0.398 0.084,-0.399 0.072,-0.399L0.031,-0.4L0.026,-0.404L0.026,-0.425L0.03,-0.429C0.092,-0.436 0.145,-0.448 0.188,-0.465Z" style="fill-rule:nonzero;"/>
        </g>
    </g>
    <g transform="matrix(1,0,0,1,271.684,0)">
        <g transform="matrix(37.5,0,0,37.5,65.8774,235.652)">
            <path d="M0.032,0.003L0.028,-0.001L0.028,-0.023L0.032,-0.027C0.052,-0.028 0.068,-0.029 0.08,-0.031C0.092,-0.033 0.099,-0.036 0.103,-0.041C0.106,-0.045 0.108,-0.052 0.11,-0.063C0.111,-0.073 0.112,-0.095 0.113,-0.131C0.114,-0.166 0.115,-0.192 0.115,-0.207L0.115,-0.602C0.115,-0.618 0.112,-0.63 0.106,-0.638C0.1,-0.646 0.091,-0.651 0.081,-0.654C0.071,-0.656 0.053,-0.657 0.028,-0.657L0.024,-0.661L0.024,-0.684L0.028,-0.688C0.073,-0.687 0.102,-0.686 0.116,-0.686C0.149,-0.686 0.176,-0.687 0.197,-0.688L0.353,-0.486L0.582,-0.199C0.61,-0.164 0.638,-0.131 0.667,-0.1L0.667,-0.478C0.667,-0.49 0.666,-0.515 0.665,-0.553C0.664,-0.591 0.662,-0.615 0.661,-0.626C0.659,-0.636 0.656,-0.643 0.652,-0.646C0.648,-0.65 0.64,-0.653 0.629,-0.655C0.618,-0.656 0.603,-0.657 0.583,-0.658L0.58,-0.662L0.58,-0.684L0.583,-0.688C0.61,-0.687 0.647,-0.686 0.696,-0.686C0.741,-0.686 0.773,-0.687 0.793,-0.688L0.798,-0.684L0.798,-0.662L0.794,-0.658C0.772,-0.657 0.756,-0.656 0.744,-0.654C0.732,-0.652 0.725,-0.648 0.722,-0.644C0.719,-0.639 0.717,-0.632 0.716,-0.622C0.715,-0.613 0.714,-0.59 0.713,-0.555C0.712,-0.519 0.711,-0.494 0.711,-0.478L0.711,-0.246L0.711,-0.112C0.712,-0.068 0.713,-0.024 0.713,0.021C0.697,0.015 0.669,0.008 0.629,-0L0.594,-0.041L0.49,-0.168L0.159,-0.582L0.159,-0.207C0.159,-0.192 0.16,-0.165 0.161,-0.127C0.162,-0.089 0.163,-0.065 0.165,-0.057C0.167,-0.049 0.169,-0.043 0.171,-0.04C0.174,-0.037 0.18,-0.034 0.188,-0.032C0.197,-0.029 0.215,-0.028 0.242,-0.027L0.246,-0.023L0.246,-0L0.242,0.003C0.225,0.001 0.197,-0 0.16,-0C0.111,-0 0.069,0.001 0.032,0.003Z" style="fill-rule:nonzero;"/>
        </g>
        <g transform="matrix(37.5,0,0,37.5,97.042,235.652)">
            <path d="M0.033,-0.224C0.033,-0.262 0.041,-0.3 0.057,-0.336C0.073,-0.372 0.101,-0.403 0.14,-0.429C0.18,-0.455 0.227,-0.468 0.281,-0.468C0.35,-0.468 0.405,-0.447 0.448,-0.404C0.491,-0.36 0.513,-0.305 0.513,-0.237C0.513,-0.163 0.488,-0.101 0.439,-0.053C0.389,-0.005 0.33,0.019 0.26,0.019C0.215,0.019 0.174,0.007 0.138,-0.018C0.102,-0.042 0.076,-0.072 0.059,-0.108C0.042,-0.143 0.033,-0.182 0.033,-0.224ZM0.125,-0.257C0.125,-0.212 0.131,-0.171 0.143,-0.135C0.155,-0.099 0.173,-0.07 0.199,-0.048C0.224,-0.027 0.253,-0.016 0.286,-0.016C0.324,-0.016 0.356,-0.031 0.381,-0.061C0.406,-0.092 0.418,-0.138 0.418,-0.199C0.418,-0.268 0.405,-0.325 0.378,-0.369C0.351,-0.413 0.311,-0.436 0.26,-0.436C0.218,-0.436 0.185,-0.42 0.161,-0.39C0.137,-0.359 0.125,-0.315 0.125,-0.257Z" style="fill-rule:nonzero;"/>
        </g>
        <g transform="matrix(37.5,0,0,37.5,117.513,235.652)">
            <path d="M0.167,-0.465L0.176,-0.459C0.174,-0.437 0.173,-0.409 0.172,-0.373C0.198,-0.395 0.223,-0.416 0.247,-0.438C0.253,-0.445 0.26,-0.449 0.266,-0.452C0.272,-0.455 0.282,-0.458 0.296,-0.461C0.31,-0.465 0.324,-0.466 0.339,-0.466C0.364,-0.466 0.388,-0.461 0.411,-0.451C0.434,-0.441 0.452,-0.429 0.464,-0.415C0.476,-0.401 0.484,-0.385 0.488,-0.366C0.493,-0.347 0.495,-0.324 0.495,-0.296L0.495,-0.21C0.495,-0.205 0.496,-0.164 0.498,-0.089C0.498,-0.058 0.502,-0.04 0.508,-0.034C0.514,-0.028 0.534,-0.025 0.568,-0.025L0.572,-0.021L0.572,-0L0.568,0.004C0.527,0.001 0.499,-0 0.484,-0C0.476,-0 0.452,0.001 0.413,0.004L0.407,-0.001C0.411,-0.044 0.414,-0.099 0.414,-0.167L0.414,-0.231C0.414,-0.269 0.413,-0.297 0.411,-0.314C0.409,-0.331 0.404,-0.346 0.395,-0.36C0.385,-0.374 0.373,-0.385 0.358,-0.392C0.343,-0.4 0.324,-0.404 0.303,-0.404C0.286,-0.404 0.272,-0.402 0.26,-0.399C0.248,-0.395 0.234,-0.388 0.219,-0.378C0.204,-0.367 0.193,-0.357 0.186,-0.348C0.179,-0.339 0.175,-0.33 0.173,-0.322C0.172,-0.314 0.171,-0.297 0.171,-0.271L0.171,-0.186C0.171,-0.179 0.172,-0.156 0.173,-0.117C0.174,-0.078 0.176,-0.055 0.177,-0.049C0.178,-0.042 0.181,-0.038 0.184,-0.035C0.187,-0.032 0.19,-0.03 0.194,-0.029C0.199,-0.028 0.216,-0.027 0.247,-0.025L0.251,-0.021L0.251,-0L0.248,0.004C0.207,0.001 0.168,-0 0.13,-0C0.092,-0 0.053,0.001 0.013,0.004L0.008,-0L0.008,-0.021L0.013,-0.025C0.044,-0.027 0.062,-0.028 0.066,-0.029C0.07,-0.03 0.074,-0.032 0.077,-0.035C0.08,-0.038 0.082,-0.043 0.083,-0.05C0.084,-0.056 0.086,-0.077 0.087,-0.113C0.089,-0.148 0.089,-0.175 0.089,-0.193L0.089,-0.29C0.089,-0.303 0.089,-0.32 0.087,-0.343C0.086,-0.365 0.085,-0.379 0.084,-0.384C0.083,-0.389 0.081,-0.393 0.077,-0.396C0.072,-0.398 0.064,-0.399 0.051,-0.399L0.01,-0.4L0.006,-0.404L0.006,-0.425L0.01,-0.429C0.072,-0.436 0.124,-0.448 0.167,-0.465Z" style="fill-rule:nonzero;"/>
        </g>
        <g transform="matrix(37.5,0,0,37.5,139.339,235.652)">
            <path d="M0.022,-0.21L0.022,-0.217L0.044,-0.282L0.305,-0.282L0.305,-0.275L0.282,-0.21L0.022,-0.21Z" style="fill-rule:nonzero;"/>
        </g>
        <g transform="matrix(37.5,0,0,37.5,151.827,235.652)">
            <path d="M0.183,-0.723L0.192,-0.717C0.188,-0.68 0.187,-0.605 0.187,-0.492L0.187,-0.186C0.187,-0.179 0.187,-0.156 0.188,-0.117C0.19,-0.078 0.191,-0.055 0.193,-0.049C0.194,-0.042 0.196,-0.038 0.199,-0.035C0.202,-0.032 0.206,-0.03 0.21,-0.029C0.214,-0.028 0.232,-0.027 0.263,-0.025L0.267,-0.021L0.267,-0L0.263,0.004C0.222,0.001 0.183,-0 0.146,-0C0.108,-0 0.069,0.001 0.028,0.004L0.024,-0L0.024,-0.021L0.028,-0.025C0.06,-0.027 0.078,-0.028 0.082,-0.029C0.086,-0.03 0.089,-0.032 0.093,-0.035C0.096,-0.038 0.098,-0.043 0.099,-0.05C0.1,-0.056 0.101,-0.077 0.103,-0.113C0.104,-0.148 0.105,-0.175 0.105,-0.193L0.105,-0.446L0.103,-0.55C0.102,-0.586 0.101,-0.611 0.1,-0.625C0.099,-0.639 0.097,-0.647 0.095,-0.65C0.093,-0.653 0.09,-0.654 0.085,-0.656C0.08,-0.657 0.06,-0.658 0.026,-0.658L0.021,-0.662L0.021,-0.683L0.025,-0.687C0.088,-0.694 0.14,-0.706 0.183,-0.723Z" style="fill-rule:nonzero;"/>
        </g>
        <g transform="matrix(37.5,0,0,37.5,162.74,235.652)">
            <path d="M0.141,-0.684C0.156,-0.684 0.169,-0.678 0.18,-0.667C0.19,-0.657 0.196,-0.644 0.196,-0.628C0.196,-0.613 0.19,-0.601 0.18,-0.59C0.169,-0.579 0.156,-0.574 0.141,-0.574C0.126,-0.574 0.113,-0.579 0.102,-0.59C0.091,-0.6 0.085,-0.613 0.085,-0.628C0.085,-0.644 0.091,-0.657 0.102,-0.667C0.113,-0.678 0.126,-0.684 0.141,-0.684ZM0.182,-0.465L0.191,-0.459C0.188,-0.416 0.186,-0.362 0.186,-0.296L0.186,-0.186C0.186,-0.179 0.187,-0.156 0.188,-0.117C0.189,-0.078 0.191,-0.055 0.192,-0.049C0.194,-0.042 0.196,-0.038 0.199,-0.035C0.202,-0.032 0.205,-0.03 0.209,-0.029C0.214,-0.028 0.231,-0.027 0.262,-0.025L0.267,-0.021L0.267,-0L0.263,0.004C0.222,0.001 0.183,-0 0.145,-0C0.108,-0 0.069,0.001 0.028,0.004L0.023,-0L0.023,-0.021L0.028,-0.025C0.059,-0.027 0.077,-0.028 0.081,-0.029C0.085,-0.03 0.089,-0.032 0.092,-0.035C0.095,-0.038 0.097,-0.043 0.098,-0.05C0.1,-0.056 0.101,-0.077 0.102,-0.113C0.104,-0.148 0.104,-0.175 0.104,-0.193L0.104,-0.29C0.104,-0.303 0.104,-0.32 0.103,-0.343C0.101,-0.365 0.1,-0.379 0.099,-0.384C0.099,-0.389 0.096,-0.393 0.092,-0.396C0.088,-0.398 0.079,-0.399 0.066,-0.399L0.025,-0.4L0.021,-0.404L0.021,-0.425L0.025,-0.429C0.087,-0.436 0.139,-0.448 0.182,-0.465Z" style="fill-rule:nonzero;"/>
        </g>
        <g transform="matrix(37.5,0,0,37.5,173.653,235.652)">
            <path d="M0.167,-0.465L0.176,-0.459C0.174,-0.437 0.173,-0.409 0.172,-0.373C0.198,-0.395 0.223,-0.416 0.247,-0.438C0.253,-0.445 0.26,-0.449 0.266,-0.452C0.272,-0.455 0.282,-0.458 0.296,-0.461C0.31,-0.465 0.324,-0.466 0.339,-0.466C0.364,-0.466 0.388,-0.461 0.411,-0.451C0.434,-0.441 0.452,-0.429 0.464,-0.415C0.476,-0.401 0.484,-0.385 0.488,-0.366C0.493,-0.347 0.495,-0.324 0.495,-0.296L0.495,-0.21C0.495,-0.205 0.496,-0.164 0.498,-0.089C0.498,-0.058 0.502,-0.04 0.508,-0.034C0.514,-0.028 0.534,-0.025 0.568,-0.025L0.572,-0.021L0.572,-0L0.568,0.004C0.527,0.001 0.499,-0 0.484,-0C0.476,-0 0.452,0.001 0.413,0.004L0.407,-0.001C0.411,-0.044 0.414,-0.099 0.414,-0.167L0.414,-0.231C0.414,-0.269 0.413,-0.297 0.411,-0.314C0.409,-0.331 0.404,-0.346 0.395,-0.36C0.385,-0.374 0.373,-0.385 0.358,-0.392C0.343,-0.4 0.324,-0.404 0.303,-0.404C0.286,-0.404 0.272,-0.402 0.26,-0.399C0.248,-0.395 0.234,-0.388 0.219,-0.378C0.204,-0.367 0.193,-0.357 0.186,-0.348C0.179,-0.339 0.175,-0.33 0.173,-0.322C0.172,-0.314 0.171,-0.297 0.171,-0.271L0.171,-0.186C0.171,-0.179 0.172,-0.156 0.173,-0.117C0.174,-0.078 0.176,-0.055 0.177,-0.049C0.178,-0.042 0.181,-0.038 0.184,-0.035C0.187,-0.032 0.19,-0.03 0.194,-0.029C0.199,-0.028 0.216,-0.027 0.247,-0.025L0.251,-0.021L0.251,-0L0.248,0.004C0.207,0.001 0.168,-0 0.13,-0C0.092,-0 0.053,0.001 0.013,0.004L0.008,-0L0.008,-0.021L0.013,-0.025C0.044,-0.027 0.062,-0.028 0.066,-0.029C0.07,-0.03 0.074,-0.032 0.077,-0.035C0.08,-0.038 0.082,-0.043 0.083,-0.05C0.084,-0.056 0.086,-0.077 0.087,-0.113C0.089,-0.148 0.089,-0.175 0.089,-0.193L0.089,-0.29C0.089,-0.303 0.089,-0.32 0.087,-0.343C0.086,-0.365 0.085,-0.379 0.084,-0.384C0.083,-0.389 0.081,-0.393 0.077,-0.396C0.072,-0.398 0.064,-0.399 0.051,-0.399L0.01,-0.4L0.006,-0.404L0.006,-0.425L0.01,-0.429C0.072,-0.436 0.124,-0.448 0.167,-0.465Z" style="fill-rule:nonzero;"/>
        </g>
        <g transform="matrix(37.5,0,0,37.5,195.479,235.652)">
            <path d="M0.432,-0.072L0.416,-0.037C0.382,-0.015 0.352,-0.001 0.325,0.006C0.299,0.012 0.275,0.016 0.254,0.016C0.215,0.016 0.178,0.008 0.143,-0.007C0.108,-0.023 0.08,-0.049 0.058,-0.085C0.036,-0.121 0.025,-0.165 0.025,-0.217C0.025,-0.251 0.029,-0.282 0.038,-0.309C0.046,-0.337 0.055,-0.357 0.064,-0.371C0.073,-0.384 0.089,-0.399 0.111,-0.415C0.133,-0.431 0.157,-0.444 0.182,-0.454C0.206,-0.464 0.233,-0.469 0.262,-0.469C0.301,-0.469 0.335,-0.46 0.365,-0.441C0.395,-0.423 0.416,-0.399 0.428,-0.371C0.44,-0.342 0.446,-0.312 0.446,-0.279C0.446,-0.269 0.445,-0.259 0.444,-0.25L0.439,-0.245C0.417,-0.24 0.387,-0.236 0.35,-0.235C0.312,-0.233 0.287,-0.232 0.275,-0.232L0.119,-0.232C0.119,-0.165 0.136,-0.115 0.169,-0.083C0.203,-0.052 0.243,-0.036 0.292,-0.036C0.314,-0.036 0.336,-0.04 0.357,-0.047C0.378,-0.055 0.4,-0.066 0.424,-0.08L0.432,-0.072ZM0.119,-0.271C0.125,-0.271 0.147,-0.269 0.186,-0.268C0.226,-0.267 0.255,-0.266 0.273,-0.266C0.319,-0.266 0.346,-0.267 0.356,-0.269C0.356,-0.276 0.356,-0.282 0.356,-0.287C0.356,-0.337 0.346,-0.375 0.326,-0.399C0.305,-0.424 0.277,-0.436 0.242,-0.436C0.203,-0.436 0.173,-0.422 0.151,-0.395C0.129,-0.367 0.119,-0.326 0.119,-0.271Z" style="fill-rule:nonzero;"/>
        </g>
        <g transform="matrix(37.5,0,0,37.5,213.442,235.652)">
            <path d="M0.104,-0.331L0.084,-0.336L0.081,-0.341L0.081,-0.401C0.139,-0.444 0.195,-0.466 0.25,-0.466C0.287,-0.466 0.318,-0.459 0.343,-0.445C0.368,-0.431 0.385,-0.413 0.396,-0.392C0.408,-0.371 0.413,-0.347 0.413,-0.319L0.411,-0.221L0.411,-0.075C0.411,-0.055 0.412,-0.043 0.415,-0.039C0.418,-0.035 0.421,-0.032 0.424,-0.031C0.428,-0.029 0.435,-0.028 0.444,-0.027L0.472,-0.024L0.476,-0.02L0.476,-0L0.472,0.003C0.448,0.001 0.426,0 0.406,0C0.386,0 0.363,0.001 0.335,0.003L0.328,-0.003L0.33,-0.082L0.224,0.001C0.206,0.008 0.186,0.012 0.165,0.012C0.139,0.012 0.117,0.007 0.098,-0.002C0.079,-0.011 0.065,-0.025 0.055,-0.042C0.045,-0.058 0.04,-0.079 0.04,-0.103C0.04,-0.151 0.055,-0.188 0.085,-0.215C0.115,-0.242 0.197,-0.265 0.33,-0.284C0.33,-0.332 0.319,-0.366 0.298,-0.385C0.276,-0.405 0.248,-0.415 0.211,-0.415C0.193,-0.415 0.175,-0.412 0.16,-0.407C0.144,-0.401 0.136,-0.397 0.133,-0.393C0.131,-0.39 0.122,-0.37 0.107,-0.333L0.104,-0.331ZM0.33,-0.254C0.239,-0.239 0.182,-0.222 0.16,-0.205C0.137,-0.187 0.126,-0.16 0.126,-0.123C0.126,-0.072 0.151,-0.047 0.202,-0.047C0.245,-0.047 0.288,-0.072 0.33,-0.122L0.33,-0.254Z" style="fill-rule:nonzero;"/>
        </g>
        <g transform="matrix(37.5,0,0,37.5,232.192,235.652)">
            <path d="M0.188,-0.465L0.197,-0.459C0.195,-0.44 0.193,-0.407 0.192,-0.358L0.229,-0.405C0.241,-0.42 0.252,-0.432 0.261,-0.44C0.27,-0.448 0.281,-0.455 0.293,-0.459C0.306,-0.464 0.319,-0.466 0.332,-0.466C0.346,-0.466 0.359,-0.463 0.372,-0.458L0.375,-0.451C0.37,-0.407 0.367,-0.369 0.367,-0.336L0.345,-0.336C0.332,-0.366 0.311,-0.381 0.282,-0.381C0.262,-0.381 0.244,-0.375 0.229,-0.362C0.214,-0.349 0.204,-0.333 0.199,-0.314C0.194,-0.294 0.191,-0.27 0.191,-0.24L0.191,-0.186C0.191,-0.176 0.192,-0.152 0.193,-0.114C0.195,-0.076 0.196,-0.054 0.198,-0.048C0.199,-0.042 0.201,-0.038 0.204,-0.035C0.207,-0.033 0.212,-0.031 0.217,-0.03C0.222,-0.029 0.245,-0.027 0.286,-0.025L0.291,-0.021L0.291,-0L0.286,0.004C0.243,0.001 0.198,-0 0.15,-0C0.113,-0 0.074,0.001 0.033,0.004L0.029,-0L0.029,-0.021L0.033,-0.025C0.065,-0.027 0.083,-0.028 0.087,-0.029C0.091,-0.03 0.094,-0.032 0.097,-0.035C0.101,-0.038 0.103,-0.043 0.104,-0.05C0.105,-0.056 0.106,-0.077 0.108,-0.113C0.109,-0.148 0.11,-0.175 0.11,-0.193L0.11,-0.29C0.11,-0.303 0.109,-0.32 0.108,-0.343C0.107,-0.365 0.106,-0.379 0.105,-0.384C0.104,-0.389 0.101,-0.393 0.097,-0.396C0.093,-0.398 0.084,-0.399 0.072,-0.399L0.031,-0.4L0.026,-0.404L0.026,-0.425L0.03,-0.429C0.092,-0.436 0.145,-0.448 0.188,-0.465Z" style="fill-rule:nonzero;"/>
        </g>
    </g>
    <g transform="matrix(1.25565e-17,0.205063,-0.503508,3.0831e-17,308.398,177.51)">
        <rect x="0" y="0" width="98.993" height="517.981" style="fill:none;"/>
        <clipPath id="_clip1">
            <rect x="0" y="0" width="98.993" height="517.981"/>
        </clipPath>
        <g clip-path="url(#_clip1)">
            <g transform="matrix(0.0312477,0,0,0.0312489,0,0)">
                <path d="M-8,24C801,24 1456,707 1456,1548L1456,6756C1456,7598 2112,8280 2920,8280C2112,8280 1456,8963 1456,9804L1456,15012C1456,15854 801,16536 -8,16536" style="fill:none;stroke:black;stroke-width:134.6px;stroke-linecap:butt;stroke-linejoin:miter;stroke-miterlimit:8;"/>
            </g>
        </g>
    </g>
    <g transform="matrix(1.25565e-17,0.205063,-0.249273,1.52636e-17,492.684,177.51)">
        <rect x="0" y="0" width="98.993" height="517.981" style="fill:none;"/>
        <clipPath id="_clip2">
            <rect x="0" y="0" width="98.993" height="517.981"/>
        </clipPath>
        <g clip-path="url(#_clip2)">
            <g transform="matrix(0.0312477,0,0,0.0312489,0,0)">
                <path d="M-8,24C801,24 1456,707 1456,1548L1456,6756C1456,7598 2112,8280 2920,8280C2112,8280 1456,8963 1456,9804L1456,15012C1456,15854 801,16536 -8,16536" style="fill:none;stroke:black;stroke-width:134.6px;stroke-linecap:butt;stroke-linejoin:miter;stroke-miterlimit:8;"/>
            </g>
        </g>
    </g>
</svg>
