<?xml version="1.0" encoding="UTF-8" standalone="no"?>
<!DOCTYPE svg PUBLIC "-//W3C//DTD SVG 1.1//EN" "http://www.w3.org/Graphics/SVG/1.1/DTD/svg11.dtd">
<svg width="100%" height="100%" viewBox="0 0 1382 556" version="1.1" xmlns="http://www.w3.org/2000/svg" xmlns:xlink="http://www.w3.org/1999/xlink" xml:space="preserve" xmlns:serif="http://www.serif.com/" style="fill-rule:evenodd;clip-rule:evenodd;stroke-linecap:round;stroke-miterlimit:1.5;">
    <g transform="matrix(1,0,0,1,-186.059,-126.867)">
        <g transform="matrix(0.648069,0,0,0.648069,167.944,243.576)">
            <rect x="146.367" y="126.038" width="118.415" height="118.415" style="fill:none;stroke:black;stroke-width:3.18px;"/>
        </g>
        <g transform="matrix(0.648069,0,0,0.648069,244.686,166.835)">
            <rect x="146.367" y="126.038" width="118.415" height="118.415" style="fill:none;stroke:black;stroke-width:3.18px;"/>
        </g>
        <g transform="matrix(0.648069,0,0,0.648069,244.686,243.576)">
            <rect x="146.367" y="126.038" width="118.415" height="118.415" style="fill:none;stroke:black;stroke-width:3.18px;"/>
        </g>
        <g transform="matrix(0.648069,0,0,0.648069,167.944,166.835)">
            <rect x="146.367" y="126.038" width="118.415" height="118.415" style="fill:none;stroke:black;stroke-width:3.18px;"/>
        </g>
        <g transform="matrix(0.648069,0,0,0.648069,244.381,166.835)">
            <rect x="146.367" y="126.038" width="118.415" height="118.415" style="fill:none;stroke:black;stroke-width:3.18px;"/>
        </g>
        <g transform="matrix(0.648069,0,0,0.648069,244.381,243.576)">
            <rect x="146.367" y="126.038" width="118.415" height="118.415" style="fill:none;stroke:black;stroke-width:3.18px;"/>
        </g>
        <g transform="matrix(0.648069,0,0,0.648069,167.944,166.835)">
            <rect x="146.367" y="126.038" width="118.415" height="118.415" style="fill:none;stroke:black;stroke-width:3.18px;"/>
        </g>
        <g transform="matrix(0.648069,0,0,0.648069,167.944,243.576)">
            <rect x="146.367" y="126.038" width="118.415" height="118.415" style="fill:none;stroke:black;stroke-width:3.18px;"/>
        </g>
    </g>
    <g transform="matrix(1,0,0,1,-98.6454,-166.508)">
        <g>
            <g>
                <g transform="matrix(0.648069,0,0,0.648069,535.895,283.218)">
                    <rect x="146.367" y="126.038" width="118.415" height="118.415" style="fill:none;stroke:black;stroke-width:3.18px;"/>
                </g>
                <g transform="matrix(0.648069,0,0,0.648069,535.895,359.959)">
                    <rect x="146.367" y="126.038" width="118.415" height="118.415" style="fill:none;stroke:black;stroke-width:3.18px;"/>
                </g>
                <g transform="matrix(0.648069,0,0,0.648069,612.636,206.476)">
                    <rect x="146.367" y="126.038" width="118.415" height="118.415" style="fill:none;stroke:black;stroke-width:3.18px;"/>
                </g>
                <g transform="matrix(0.648069,0,0,0.648069,689.683,206.476)">
                    <rect x="146.367" y="126.038" width="118.415" height="118.415" style="fill:none;stroke:black;stroke-width:3.18px;"/>
                </g>
                <g transform="matrix(0.648069,0,0,0.648069,612.636,283.218)">
                    <rect x="146.367" y="126.038" width="118.415" height="118.415" style="fill:none;stroke:black;stroke-width:3.18px;"/>
                </g>
                <g transform="matrix(0.648069,0,0,0.648069,612.636,359.959)">
                    <rect x="146.367" y="126.038" width="118.415" height="118.415" style="fill:none;stroke:black;stroke-width:3.18px;"/>
                </g>
                <g transform="matrix(0.648069,0,0,0.648069,689.683,283.218)">
                    <rect x="146.367" y="126.038" width="118.415" height="118.415" style="fill:none;stroke:black;stroke-width:3.18px;"/>
                </g>
                <g transform="matrix(0.648069,0,0,0.648069,689.683,359.959)">
                    <rect x="146.367" y="126.038" width="118.415" height="118.415" style="fill:none;stroke:black;stroke-width:3.18px;"/>
                </g>
                <g transform="matrix(0.648069,0,0,0.648069,535.895,206.476)">
                    <rect x="146.367" y="126.038" width="118.415" height="118.415" style="fill:none;stroke:black;stroke-width:3.18px;"/>
                </g>
                <g transform="matrix(0.648069,0,0,0.648069,612.332,206.476)">
                    <rect x="146.367" y="126.038" width="118.415" height="118.415" style="fill:none;stroke:black;stroke-width:3.18px;"/>
                </g>
                <g transform="matrix(0.648069,0,0,0.648069,689.378,206.476)">
                    <rect x="146.367" y="126.038" width="118.415" height="118.415" style="fill:none;stroke:black;stroke-width:3.18px;"/>
                </g>
                <g transform="matrix(0.648069,0,0,0.648069,612.332,283.218)">
                    <rect x="146.367" y="126.038" width="118.415" height="118.415" style="fill:none;stroke:black;stroke-width:3.18px;"/>
                </g>
                <g transform="matrix(0.648069,0,0,0.648069,612.332,359.959)">
                    <rect x="146.367" y="126.038" width="118.415" height="118.415" style="fill:none;stroke:black;stroke-width:3.18px;"/>
                </g>
                <g transform="matrix(0.648069,0,0,0.648069,689.378,283.218)">
                    <rect x="146.367" y="126.038" width="118.415" height="118.415" style="fill:none;stroke:black;stroke-width:3.18px;"/>
                </g>
                <g transform="matrix(0.648069,0,0,0.648069,689.378,359.959)">
                    <rect x="146.367" y="126.038" width="118.415" height="118.415" style="fill:none;stroke:black;stroke-width:3.18px;"/>
                </g>
                <g transform="matrix(0.648069,0,0,0.648069,535.895,206.476)">
                    <rect x="146.367" y="126.038" width="118.415" height="118.415" style="fill:none;stroke:black;stroke-width:3.18px;"/>
                </g>
                <g transform="matrix(0.648069,0,0,0.648069,535.895,283.218)">
                    <rect x="146.367" y="126.038" width="118.415" height="118.415" style="fill:none;stroke:black;stroke-width:3.18px;"/>
                </g>
                <g transform="matrix(0.648069,0,0,0.648069,535.895,359.959)">
                    <rect x="146.367" y="126.038" width="118.415" height="118.415" style="fill:none;stroke:black;stroke-width:3.18px;"/>
                </g>
            </g>
        </g>
    </g>
    <g transform="matrix(1,0,0,1,-186.059,-126.867)">
        <g transform="matrix(0.648069,0,0,0.648069,1115.27,243.576)">
            <rect x="146.367" y="126.038" width="118.415" height="118.415" style="fill:none;stroke:black;stroke-width:3.18px;"/>
        </g>
        <g transform="matrix(0.648069,0,0,0.648069,1115.27,397.059)">
            <rect x="146.367" y="126.038" width="118.415" height="118.415" style="fill:none;stroke:black;stroke-width:3.18px;"/>
        </g>
        <g transform="matrix(0.648069,0,0,0.648069,1115.27,320.318)">
            <rect x="146.367" y="126.038" width="118.415" height="118.415" style="fill:none;stroke:black;stroke-width:3.18px;"/>
        </g>
        <g transform="matrix(0.648069,0,0,0.648069,1192.01,166.835)">
            <rect x="146.367" y="126.038" width="118.415" height="118.415" style="fill:none;stroke:black;stroke-width:3.18px;"/>
        </g>
        <g transform="matrix(0.648069,0,0,0.648069,1269.05,166.835)">
            <rect x="146.367" y="126.038" width="118.415" height="118.415" style="fill:none;stroke:black;stroke-width:3.18px;"/>
        </g>
        <g transform="matrix(0.648069,0,0,0.648069,1346.1,166.835)">
            <rect x="146.367" y="126.038" width="118.415" height="118.415" style="fill:none;stroke:black;stroke-width:3.18px;"/>
        </g>
        <g transform="matrix(0.648069,0,0,0.648069,1192.01,243.576)">
            <rect x="146.367" y="126.038" width="118.415" height="118.415" style="fill:none;stroke:black;stroke-width:3.18px;"/>
        </g>
        <g transform="matrix(0.648069,0,0,0.648069,1192.01,397.059)">
            <rect x="146.367" y="126.038" width="118.415" height="118.415" style="fill:none;stroke:black;stroke-width:3.18px;"/>
        </g>
        <g transform="matrix(0.648069,0,0,0.648069,1192.01,320.318)">
            <rect x="146.367" y="126.038" width="118.415" height="118.415" style="fill:none;stroke:black;stroke-width:3.18px;"/>
        </g>
        <g transform="matrix(0.648069,0,0,0.648069,1269.05,243.576)">
            <rect x="146.367" y="126.038" width="118.415" height="118.415" style="fill:none;stroke:black;stroke-width:3.18px;"/>
        </g>
        <g transform="matrix(0.648069,0,0,0.648069,1269.05,397.059)">
            <rect x="146.367" y="126.038" width="118.415" height="118.415" style="fill:none;stroke:black;stroke-width:3.18px;"/>
        </g>
        <g transform="matrix(0.648069,0,0,0.648069,1346.1,243.576)">
            <rect x="146.367" y="126.038" width="118.415" height="118.415" style="fill:none;stroke:black;stroke-width:3.18px;"/>
        </g>
        <g transform="matrix(0.648069,0,0,0.648069,1346.1,397.059)">
            <rect x="146.367" y="126.038" width="118.415" height="118.415" style="fill:none;stroke:black;stroke-width:3.18px;"/>
        </g>
        <g transform="matrix(0.648069,0,0,0.648069,1269.05,320.318)">
            <rect x="146.367" y="126.038" width="118.415" height="118.415" style="fill:none;stroke:black;stroke-width:3.18px;"/>
        </g>
        <g transform="matrix(0.648069,0,0,0.648069,1346.1,320.318)">
            <rect x="146.367" y="126.038" width="118.415" height="118.415" style="fill:none;stroke:black;stroke-width:3.18px;"/>
        </g>
        <g transform="matrix(0.648069,0,0,0.648069,1115.27,166.835)">
            <rect x="146.367" y="126.038" width="118.415" height="118.415" style="fill:none;stroke:black;stroke-width:3.18px;"/>
        </g>
        <g transform="matrix(0.648069,0,0,0.648069,1191.7,166.835)">
            <rect x="146.367" y="126.038" width="118.415" height="118.415" style="fill:none;stroke:black;stroke-width:3.18px;"/>
        </g>
        <g transform="matrix(0.648069,0,0,0.648069,1268.75,166.835)">
            <rect x="146.367" y="126.038" width="118.415" height="118.415" style="fill:none;stroke:black;stroke-width:3.18px;"/>
        </g>
        <g transform="matrix(0.648069,0,0,0.648069,1345.79,166.835)">
            <rect x="146.367" y="126.038" width="118.415" height="118.415" style="fill:none;stroke:black;stroke-width:3.18px;"/>
        </g>
        <g transform="matrix(0.648069,0,0,0.648069,1191.7,243.576)">
            <rect x="146.367" y="126.038" width="118.415" height="118.415" style="fill:none;stroke:black;stroke-width:3.18px;"/>
        </g>
        <g transform="matrix(0.648069,0,0,0.648069,1191.7,397.059)">
            <rect x="146.367" y="126.038" width="118.415" height="118.415" style="fill:none;stroke:black;stroke-width:3.18px;"/>
        </g>
        <g transform="matrix(0.648069,0,0,0.648069,1191.7,320.318)">
            <rect x="146.367" y="126.038" width="118.415" height="118.415" style="fill:none;stroke:black;stroke-width:3.18px;"/>
        </g>
        <g transform="matrix(0.648069,0,0,0.648069,1268.75,243.576)">
            <rect x="146.367" y="126.038" width="118.415" height="118.415" style="fill:none;stroke:black;stroke-width:3.18px;"/>
        </g>
        <g transform="matrix(0.648069,0,0,0.648069,1268.75,397.059)">
            <rect x="146.367" y="126.038" width="118.415" height="118.415" style="fill:none;stroke:black;stroke-width:3.18px;"/>
        </g>
        <g transform="matrix(0.648069,0,0,0.648069,1345.79,243.576)">
            <rect x="146.367" y="126.038" width="118.415" height="118.415" style="fill:none;stroke:black;stroke-width:3.18px;"/>
        </g>
        <g transform="matrix(0.648069,0,0,0.648069,1345.79,397.059)">
            <rect x="146.367" y="126.038" width="118.415" height="118.415" style="fill:none;stroke:black;stroke-width:3.18px;"/>
        </g>
        <g transform="matrix(0.648069,0,0,0.648069,1268.75,320.318)">
            <rect x="146.367" y="126.038" width="118.415" height="118.415" style="fill:none;stroke:black;stroke-width:3.18px;"/>
        </g>
        <g transform="matrix(0.648069,0,0,0.648069,1345.79,320.318)">
            <rect x="146.367" y="126.038" width="118.415" height="118.415" style="fill:none;stroke:black;stroke-width:3.18px;"/>
        </g>
        <g transform="matrix(0.648069,0,0,0.648069,1115.27,166.835)">
            <rect x="146.367" y="126.038" width="118.415" height="118.415" style="fill:none;stroke:black;stroke-width:3.18px;"/>
        </g>
        <g transform="matrix(0.648069,0,0,0.648069,1115.27,243.576)">
            <rect x="146.367" y="126.038" width="118.415" height="118.415" style="fill:none;stroke:black;stroke-width:3.18px;"/>
        </g>
        <g transform="matrix(0.648069,0,0,0.648069,1115.27,397.059)">
            <rect x="146.367" y="126.038" width="118.415" height="118.415" style="fill:none;stroke:black;stroke-width:3.18px;"/>
        </g>
        <g transform="matrix(0.648069,0,0,0.648069,1115.27,320.318)">
            <rect x="146.367" y="126.038" width="118.415" height="118.415" style="fill:none;stroke:black;stroke-width:3.18px;"/>
        </g>
    </g>
    <g transform="matrix(1,0,0,1,-162.532,-308.777)">
        <g transform="matrix(4.16667,0,0,4.16667,438.085,806.036)">
            <path d="M73.844,1.549L76.39,1.549L76.39,1.719C75.691,1.764 75.565,1.854 75.565,2.526L75.565,4.364C77.592,2.544 77.843,2.302 77.843,2.006C77.843,1.764 77.655,1.737 77.233,1.719L77.233,1.549L79.573,1.549L79.573,1.719C79.035,1.764 78.865,1.791 78.228,2.419L76.516,4.113L78.605,6.355C79.197,6.991 79.493,7.341 80.022,7.323L80.022,7.485L77.278,7.485L77.278,7.323C77.646,7.296 77.915,7.323 77.915,7.099C77.915,6.83 77.135,5.978 76.758,5.602L75.808,4.651L75.565,4.84L75.565,6.498C75.565,7.207 75.709,7.26 76.354,7.323L76.354,7.485L73.844,7.485L73.844,7.323C74.516,7.278 74.651,7.144 74.651,6.445L74.651,2.526C74.651,1.827 74.454,1.764 73.844,1.719L73.844,1.549Z" style="fill:rgb(35,31,32);fill-rule:nonzero;"/>
        </g>
        <g transform="matrix(4.16667,0,0,4.16667,438.085,806.036)">
            <path d="M83.671,6.023L83.815,6.086C83.465,6.991 82.783,7.574 81.914,7.574C80.838,7.574 80.237,6.74 80.237,5.575C80.237,3.916 81.34,3.36 82.066,3.36C82.909,3.36 83.537,3.826 83.635,5.01L80.865,5.01C80.963,6.588 81.689,6.965 82.272,6.965C83.07,6.965 83.465,6.355 83.671,6.023ZM80.882,4.705L82.73,4.705C82.658,4.293 82.577,3.692 81.86,3.692C81.376,3.692 81.026,3.934 80.882,4.705Z" style="fill:rgb(35,31,32);fill-rule:nonzero;"/>
        </g>
        <g transform="matrix(4.16667,0,0,4.16667,438.085,806.036)">
            <path d="M85.393,3.36L85.411,3.378L85.411,4.185L85.446,4.185C85.653,3.889 85.966,3.36 86.486,3.36C86.818,3.36 86.998,3.575 86.998,3.844C86.998,4.024 86.917,4.248 86.648,4.248C86.343,4.248 86.235,3.934 86.029,3.934C85.868,3.934 85.411,4.319 85.411,4.696L85.411,6.722C85.411,7.189 85.599,7.35 86.173,7.35L86.173,7.485L84.039,7.485L84.039,7.35C84.639,7.26 84.666,7.117 84.666,6.696L84.666,4.436C84.666,3.889 84.397,3.943 84.335,3.943C84.236,3.943 84.164,3.961 84.048,3.988L84.048,3.844C84.397,3.737 85.393,3.36 85.393,3.36Z" style="fill:rgb(35,31,32);fill-rule:nonzero;"/>
        </g>
        <g transform="matrix(4.16667,0,0,4.16667,438.085,806.036)">
            <path d="M87.688,6.74L87.688,4.481C87.688,3.871 87.536,3.889 87.356,3.889C87.276,3.889 87.195,3.889 87.123,3.916L87.123,3.764C87.356,3.692 87.805,3.575 88.36,3.36L88.423,3.378L88.423,4.095C88.836,3.71 89.167,3.36 89.723,3.36C90.279,3.36 90.781,3.737 90.781,4.705L90.781,6.767C90.781,7.171 90.943,7.323 91.328,7.35L91.328,7.485L89.463,7.485L89.463,7.35C89.831,7.341 90.019,7.171 90.019,6.588L90.019,4.705C90.019,4.095 89.786,3.853 89.356,3.853C88.988,3.853 88.701,4.14 88.45,4.364L88.45,6.893C88.45,7.26 88.692,7.323 89.042,7.35L89.042,7.485L87.15,7.485L87.15,7.35C87.419,7.323 87.688,7.323 87.688,6.74Z" style="fill:rgb(35,31,32);fill-rule:nonzero;"/>
        </g>
        <g transform="matrix(4.16667,0,0,4.16667,438.085,806.036)">
            <path d="M95.121,6.023L95.265,6.086C94.915,6.991 94.233,7.574 93.364,7.574C92.288,7.574 91.687,6.74 91.687,5.575C91.687,3.916 92.79,3.36 93.516,3.36C94.359,3.36 94.987,3.826 95.085,5.01L92.315,5.01C92.413,6.588 93.14,6.965 93.722,6.965C94.52,6.965 94.915,6.355 95.121,6.023ZM92.333,4.705L94.18,4.705C94.108,4.293 94.027,3.692 93.31,3.692C92.826,3.692 92.476,3.934 92.333,4.705Z" style="fill:rgb(35,31,32);fill-rule:nonzero;"/>
        </g>
        <g transform="matrix(4.16667,0,0,4.16667,438.085,806.036)">
            <path d="M95.623,7.485L95.623,7.359C96.179,7.323 96.314,7.189 96.314,6.714L96.314,2.437C96.314,2.069 96.296,1.89 95.892,1.89C95.767,1.89 95.74,1.89 95.614,1.899L95.614,1.764C96.027,1.665 96.914,1.405 97.031,1.361L97.076,1.361L97.076,6.714C97.076,7.225 97.174,7.323 97.748,7.359L97.748,7.485L95.623,7.485Z" style="fill:rgb(35,31,32);fill-rule:nonzero;"/>
        </g>
        <g transform="matrix(4.16667,0,0,4.16667,438.085,806.036)">
            <path d="M104.628,6.445C104.628,6.301 104.494,6.301 104.395,6.301C104.216,6.301 104.216,6.31 104.144,6.471C103.965,6.902 103.561,7.153 103.032,7.153C101.759,7.153 101.759,5.862 101.759,5.458C101.759,4.92 101.768,3.808 102.942,3.808C103.005,3.808 103.489,3.817 103.489,3.862C103.489,3.871 103.471,3.898 103.462,3.907C103.382,4.006 103.346,4.149 103.346,4.275C103.346,4.642 103.624,4.857 103.929,4.857C104.207,4.857 104.511,4.669 104.511,4.266C104.511,3.423 103.256,3.423 102.906,3.423C101.185,3.423 100.566,4.517 100.566,5.494C100.566,6.624 101.373,7.538 102.862,7.538C103.193,7.538 103.633,7.485 104.009,7.252C104.52,6.938 104.628,6.471 104.628,6.445Z" style="fill:rgb(35,31,32);fill-rule:nonzero;"/>
        </g>
    </g>
    <g transform="matrix(1,0,0,1,-146.367,-14.6679)">
        <g transform="matrix(37.5,0,0,37.5,253.927,544.716)">
            <path d="M0.029,-0.69L0.09,-0.688C0.13,-0.687 0.156,-0.686 0.168,-0.686C0.18,-0.686 0.226,-0.687 0.309,-0.69L0.313,-0.687L0.313,-0.662L0.309,-0.659C0.286,-0.658 0.269,-0.657 0.257,-0.656C0.244,-0.654 0.236,-0.652 0.23,-0.648C0.224,-0.645 0.221,-0.636 0.219,-0.623C0.217,-0.61 0.216,-0.592 0.216,-0.568L0.215,-0.456L0.215,-0.23L0.216,-0.135C0.216,-0.098 0.217,-0.074 0.219,-0.063C0.22,-0.053 0.223,-0.046 0.226,-0.042C0.229,-0.038 0.235,-0.035 0.244,-0.033C0.252,-0.031 0.274,-0.029 0.309,-0.027L0.313,-0.024L0.313,-0L0.309,0.004C0.307,0.004 0.278,0.003 0.223,0.001C0.2,0 0.181,-0 0.168,-0C0.158,-0 0.112,0.001 0.029,0.004L0.025,-0L0.025,-0.024L0.029,-0.027C0.059,-0.029 0.079,-0.03 0.089,-0.032C0.099,-0.034 0.106,-0.037 0.11,-0.04C0.113,-0.043 0.116,-0.049 0.118,-0.06C0.12,-0.07 0.121,-0.092 0.122,-0.127L0.122,-0.23L0.122,-0.456L0.121,-0.551C0.121,-0.588 0.12,-0.612 0.118,-0.623C0.117,-0.634 0.115,-0.641 0.112,-0.645C0.108,-0.648 0.103,-0.651 0.094,-0.653C0.085,-0.656 0.063,-0.657 0.029,-0.659L0.025,-0.662L0.025,-0.687L0.029,-0.69Z" style="fill:rgb(35,31,32);fill-rule:nonzero;"/>
        </g>
        <g transform="matrix(37.5,0,0,37.5,266.561,544.716)">
            <path d="M0.167,-0.465L0.176,-0.459C0.174,-0.437 0.173,-0.409 0.172,-0.373C0.198,-0.395 0.223,-0.416 0.247,-0.438C0.253,-0.445 0.26,-0.449 0.266,-0.452C0.272,-0.455 0.282,-0.458 0.296,-0.461C0.31,-0.465 0.324,-0.466 0.339,-0.466C0.364,-0.466 0.388,-0.461 0.411,-0.451C0.434,-0.441 0.452,-0.429 0.464,-0.415C0.476,-0.401 0.484,-0.385 0.488,-0.366C0.493,-0.347 0.495,-0.324 0.495,-0.296L0.495,-0.21C0.495,-0.205 0.496,-0.164 0.498,-0.089C0.498,-0.058 0.502,-0.04 0.508,-0.034C0.514,-0.028 0.534,-0.025 0.568,-0.025L0.572,-0.021L0.572,-0L0.568,0.004C0.527,0.001 0.499,-0 0.484,-0C0.476,-0 0.452,0.001 0.413,0.004L0.407,-0.001C0.411,-0.044 0.414,-0.099 0.414,-0.167L0.414,-0.231C0.414,-0.269 0.413,-0.297 0.411,-0.314C0.409,-0.331 0.404,-0.346 0.395,-0.36C0.385,-0.374 0.373,-0.385 0.358,-0.392C0.343,-0.4 0.324,-0.404 0.303,-0.404C0.286,-0.404 0.272,-0.402 0.26,-0.399C0.248,-0.395 0.234,-0.388 0.219,-0.378C0.204,-0.367 0.193,-0.357 0.186,-0.348C0.179,-0.339 0.175,-0.33 0.173,-0.322C0.172,-0.314 0.171,-0.297 0.171,-0.271L0.171,-0.186C0.171,-0.179 0.172,-0.156 0.173,-0.117C0.174,-0.078 0.176,-0.055 0.177,-0.049C0.178,-0.042 0.181,-0.038 0.184,-0.035C0.187,-0.032 0.19,-0.03 0.194,-0.029C0.199,-0.028 0.216,-0.027 0.247,-0.025L0.251,-0.021L0.251,-0L0.248,0.004C0.207,0.001 0.168,-0 0.13,-0C0.092,-0 0.053,0.001 0.013,0.004L0.008,-0L0.008,-0.021L0.013,-0.025C0.044,-0.027 0.062,-0.028 0.066,-0.029C0.07,-0.03 0.074,-0.032 0.077,-0.035C0.08,-0.038 0.082,-0.043 0.083,-0.05C0.084,-0.056 0.086,-0.077 0.087,-0.113C0.089,-0.148 0.089,-0.175 0.089,-0.193L0.089,-0.29C0.089,-0.303 0.089,-0.32 0.087,-0.343C0.086,-0.365 0.085,-0.379 0.084,-0.384C0.083,-0.389 0.081,-0.393 0.077,-0.396C0.072,-0.398 0.064,-0.399 0.051,-0.399L0.01,-0.4L0.006,-0.404L0.006,-0.425L0.01,-0.429C0.072,-0.436 0.124,-0.448 0.167,-0.465Z" style="fill:rgb(35,31,32);fill-rule:nonzero;"/>
        </g>
        <g transform="matrix(37.5,0,0,37.5,288.387,544.716)">
            <path d="M0.181,-0.471L0.19,-0.465C0.187,-0.428 0.185,-0.395 0.185,-0.367C0.229,-0.407 0.26,-0.434 0.277,-0.447C0.295,-0.46 0.325,-0.466 0.367,-0.466C0.394,-0.466 0.418,-0.463 0.44,-0.455C0.462,-0.448 0.482,-0.436 0.5,-0.419C0.519,-0.402 0.534,-0.381 0.544,-0.356C0.555,-0.331 0.561,-0.302 0.561,-0.269C0.561,-0.245 0.557,-0.221 0.549,-0.197C0.542,-0.173 0.532,-0.151 0.52,-0.13C0.508,-0.11 0.498,-0.096 0.49,-0.09C0.483,-0.083 0.468,-0.073 0.445,-0.06C0.425,-0.047 0.404,-0.034 0.384,-0.02C0.37,-0.009 0.361,-0.003 0.355,-0C0.349,0.003 0.34,0.006 0.327,0.009C0.314,0.012 0.3,0.013 0.286,0.013C0.252,0.013 0.218,0.005 0.185,-0.013L0.185,0.091C0.185,0.098 0.185,0.122 0.187,0.16C0.188,0.199 0.189,0.222 0.191,0.229C0.192,0.235 0.194,0.24 0.197,0.243C0.2,0.246 0.204,0.247 0.208,0.248C0.212,0.249 0.23,0.25 0.261,0.252L0.265,0.256L0.265,0.277L0.261,0.281C0.221,0.279 0.181,0.277 0.144,0.277C0.107,0.277 0.068,0.279 0.027,0.281L0.022,0.277L0.022,0.256L0.027,0.252C0.058,0.25 0.076,0.249 0.08,0.248C0.084,0.247 0.088,0.245 0.091,0.242C0.094,0.239 0.096,0.234 0.097,0.227C0.099,0.22 0.1,0.198 0.101,0.162C0.103,0.125 0.104,0.097 0.104,0.079L0.104,-0.295C0.104,-0.312 0.103,-0.332 0.101,-0.354C0.1,-0.377 0.099,-0.389 0.098,-0.393C0.097,-0.397 0.094,-0.4 0.091,-0.402C0.087,-0.404 0.078,-0.405 0.065,-0.405L0.024,-0.406L0.02,-0.41L0.02,-0.431L0.024,-0.435C0.086,-0.442 0.138,-0.454 0.181,-0.471ZM0.185,-0.097C0.2,-0.081 0.218,-0.068 0.24,-0.057C0.262,-0.046 0.287,-0.04 0.313,-0.04C0.345,-0.04 0.373,-0.048 0.397,-0.064C0.421,-0.08 0.44,-0.103 0.454,-0.134C0.467,-0.165 0.474,-0.199 0.474,-0.236C0.474,-0.267 0.468,-0.295 0.456,-0.321C0.444,-0.347 0.426,-0.367 0.401,-0.382C0.376,-0.397 0.349,-0.405 0.321,-0.405C0.304,-0.405 0.287,-0.402 0.271,-0.396C0.255,-0.39 0.24,-0.381 0.225,-0.369C0.211,-0.357 0.201,-0.346 0.195,-0.336C0.189,-0.325 0.185,-0.316 0.185,-0.309C0.185,-0.302 0.185,-0.295 0.185,-0.286L0.185,-0.097Z" style="fill:rgb(35,31,32);fill-rule:nonzero;"/>
        </g>
        <g transform="matrix(37.5,0,0,37.5,310.927,544.716)">
            <path d="M0.169,-0.465L0.178,-0.459C0.175,-0.416 0.173,-0.362 0.173,-0.296L0.173,-0.183C0.173,-0.141 0.176,-0.112 0.182,-0.096C0.189,-0.079 0.2,-0.067 0.215,-0.058C0.231,-0.05 0.25,-0.045 0.271,-0.045C0.295,-0.045 0.316,-0.05 0.336,-0.059C0.355,-0.069 0.372,-0.082 0.385,-0.099C0.398,-0.116 0.406,-0.127 0.408,-0.133C0.41,-0.139 0.411,-0.155 0.412,-0.182L0.413,-0.237L0.413,-0.29C0.413,-0.303 0.412,-0.32 0.411,-0.343C0.41,-0.365 0.409,-0.379 0.408,-0.384C0.407,-0.389 0.405,-0.393 0.4,-0.396C0.396,-0.398 0.388,-0.399 0.375,-0.399L0.334,-0.4L0.33,-0.404L0.33,-0.425L0.333,-0.429C0.396,-0.436 0.448,-0.448 0.491,-0.465L0.5,-0.459C0.496,-0.416 0.495,-0.362 0.495,-0.296L0.495,-0.21C0.495,-0.206 0.495,-0.166 0.497,-0.091C0.498,-0.063 0.499,-0.046 0.502,-0.04C0.505,-0.034 0.509,-0.03 0.514,-0.028C0.519,-0.025 0.533,-0.024 0.557,-0.024L0.571,-0.024L0.575,-0.02L0.575,-0L0.571,0.004C0.525,0.001 0.495,-0 0.479,-0C0.459,-0 0.436,0.001 0.41,0.003L0.406,-0C0.408,-0.034 0.409,-0.062 0.41,-0.085C0.39,-0.069 0.366,-0.048 0.34,-0.021C0.33,-0.011 0.315,-0.002 0.296,0.004C0.278,0.011 0.256,0.015 0.232,0.015C0.195,0.015 0.167,0.009 0.147,-0.003C0.126,-0.014 0.112,-0.03 0.104,-0.051C0.095,-0.071 0.091,-0.106 0.091,-0.156L0.091,-0.194L0.091,-0.29C0.091,-0.303 0.091,-0.32 0.089,-0.343C0.088,-0.365 0.087,-0.379 0.086,-0.384C0.085,-0.389 0.083,-0.393 0.079,-0.396C0.074,-0.398 0.066,-0.399 0.053,-0.399L0.012,-0.4L0.008,-0.404L0.008,-0.425L0.012,-0.429C0.074,-0.436 0.126,-0.448 0.169,-0.465Z" style="fill:rgb(35,31,32);fill-rule:nonzero;"/>
        </g>
        <g transform="matrix(37.5,0,0,37.5,333.541,544.716)">
            <path d="M0.022,-0.383L0.022,-0.396L0.026,-0.401C0.056,-0.412 0.081,-0.423 0.1,-0.433C0.1,-0.518 0.099,-0.567 0.097,-0.581C0.131,-0.593 0.158,-0.605 0.18,-0.619L0.191,-0.609C0.188,-0.588 0.184,-0.529 0.18,-0.43C0.196,-0.43 0.214,-0.43 0.232,-0.43C0.271,-0.43 0.298,-0.431 0.315,-0.433L0.318,-0.429L0.309,-0.388L0.305,-0.384C0.289,-0.384 0.27,-0.384 0.25,-0.384C0.232,-0.384 0.208,-0.384 0.18,-0.384L0.177,-0.185C0.177,-0.139 0.178,-0.109 0.18,-0.095C0.182,-0.081 0.188,-0.07 0.198,-0.062C0.207,-0.054 0.221,-0.05 0.24,-0.05C0.262,-0.05 0.282,-0.056 0.301,-0.067L0.313,-0.049C0.305,-0.044 0.286,-0.028 0.256,-0C0.239,0.007 0.222,0.011 0.205,0.011C0.131,0.011 0.095,-0.024 0.095,-0.095C0.095,-0.121 0.095,-0.143 0.097,-0.162C0.097,-0.167 0.097,-0.173 0.097,-0.179L0.097,-0.381L0.077,-0.381C0.063,-0.381 0.046,-0.381 0.027,-0.379L0.022,-0.383Z" style="fill:rgb(35,31,32);fill-rule:nonzero;"/>
        </g>
    </g>
    <g transform="matrix(1,0,0,1,877.695,-14.6679)">
        <g transform="matrix(37.5,0,0,37.5,238.994,544.716)">
            <path d="M0.023,-0.336C0.023,-0.385 0.03,-0.431 0.044,-0.473C0.058,-0.515 0.082,-0.555 0.116,-0.591C0.15,-0.627 0.19,-0.654 0.238,-0.674C0.285,-0.694 0.339,-0.704 0.399,-0.704C0.51,-0.704 0.598,-0.673 0.664,-0.613C0.73,-0.553 0.763,-0.47 0.763,-0.366C0.763,-0.292 0.747,-0.226 0.714,-0.167C0.682,-0.109 0.636,-0.063 0.576,-0.031C0.516,0.002 0.448,0.018 0.374,0.018C0.32,0.018 0.272,0.009 0.227,-0.009C0.182,-0.026 0.144,-0.053 0.113,-0.088C0.082,-0.123 0.059,-0.164 0.045,-0.21C0.031,-0.256 0.023,-0.298 0.023,-0.336ZM0.125,-0.369C0.125,-0.329 0.131,-0.286 0.144,-0.24C0.157,-0.195 0.176,-0.156 0.202,-0.123C0.227,-0.09 0.257,-0.066 0.29,-0.05C0.324,-0.034 0.362,-0.026 0.404,-0.026C0.455,-0.026 0.5,-0.037 0.539,-0.061C0.578,-0.084 0.608,-0.12 0.629,-0.168C0.649,-0.217 0.66,-0.271 0.66,-0.332C0.66,-0.398 0.648,-0.457 0.625,-0.51C0.601,-0.563 0.568,-0.602 0.524,-0.626C0.481,-0.65 0.433,-0.662 0.38,-0.662C0.301,-0.662 0.239,-0.637 0.193,-0.588C0.148,-0.538 0.125,-0.465 0.125,-0.369Z" style="fill:rgb(35,31,32);fill-rule:nonzero;"/>
        </g>
        <g transform="matrix(37.5,0,0,37.5,268.474,544.716)">
            <path d="M0.169,-0.465L0.178,-0.459C0.175,-0.416 0.173,-0.362 0.173,-0.296L0.173,-0.183C0.173,-0.141 0.176,-0.112 0.182,-0.096C0.189,-0.079 0.2,-0.067 0.215,-0.058C0.231,-0.05 0.25,-0.045 0.271,-0.045C0.295,-0.045 0.316,-0.05 0.336,-0.059C0.355,-0.069 0.372,-0.082 0.385,-0.099C0.398,-0.116 0.406,-0.127 0.408,-0.133C0.41,-0.139 0.411,-0.155 0.412,-0.182L0.413,-0.237L0.413,-0.29C0.413,-0.303 0.412,-0.32 0.411,-0.343C0.41,-0.365 0.409,-0.379 0.408,-0.384C0.407,-0.389 0.405,-0.393 0.4,-0.396C0.396,-0.398 0.388,-0.399 0.375,-0.399L0.334,-0.4L0.33,-0.404L0.33,-0.425L0.333,-0.429C0.396,-0.436 0.448,-0.448 0.491,-0.465L0.5,-0.459C0.496,-0.416 0.495,-0.362 0.495,-0.296L0.495,-0.21C0.495,-0.206 0.495,-0.166 0.497,-0.091C0.498,-0.063 0.499,-0.046 0.502,-0.04C0.505,-0.034 0.509,-0.03 0.514,-0.028C0.519,-0.025 0.533,-0.024 0.557,-0.024L0.571,-0.024L0.575,-0.02L0.575,-0L0.571,0.004C0.525,0.001 0.495,-0 0.479,-0C0.459,-0 0.436,0.001 0.41,0.003L0.406,-0C0.408,-0.034 0.409,-0.062 0.41,-0.085C0.39,-0.069 0.366,-0.048 0.34,-0.021C0.33,-0.011 0.315,-0.002 0.296,0.004C0.278,0.011 0.256,0.015 0.232,0.015C0.195,0.015 0.167,0.009 0.147,-0.003C0.126,-0.014 0.112,-0.03 0.104,-0.051C0.095,-0.071 0.091,-0.106 0.091,-0.156L0.091,-0.194L0.091,-0.29C0.091,-0.303 0.091,-0.32 0.089,-0.343C0.088,-0.365 0.087,-0.379 0.086,-0.384C0.085,-0.389 0.083,-0.393 0.079,-0.396C0.074,-0.398 0.066,-0.399 0.053,-0.399L0.012,-0.4L0.008,-0.404L0.008,-0.425L0.012,-0.429C0.074,-0.436 0.126,-0.448 0.169,-0.465Z" style="fill:rgb(35,31,32);fill-rule:nonzero;"/>
        </g>
        <g transform="matrix(37.5,0,0,37.5,291.088,544.716)">
            <path d="M0.022,-0.383L0.022,-0.396L0.026,-0.401C0.056,-0.412 0.081,-0.423 0.1,-0.433C0.1,-0.518 0.099,-0.567 0.097,-0.581C0.131,-0.593 0.158,-0.605 0.18,-0.619L0.191,-0.609C0.188,-0.588 0.184,-0.529 0.18,-0.43C0.196,-0.43 0.214,-0.43 0.232,-0.43C0.271,-0.43 0.298,-0.431 0.315,-0.433L0.318,-0.429L0.309,-0.388L0.305,-0.384C0.289,-0.384 0.27,-0.384 0.25,-0.384C0.232,-0.384 0.208,-0.384 0.18,-0.384L0.177,-0.185C0.177,-0.139 0.178,-0.109 0.18,-0.095C0.182,-0.081 0.188,-0.07 0.198,-0.062C0.207,-0.054 0.221,-0.05 0.24,-0.05C0.262,-0.05 0.282,-0.056 0.301,-0.067L0.313,-0.049C0.305,-0.044 0.286,-0.028 0.256,-0C0.239,0.007 0.222,0.011 0.205,0.011C0.131,0.011 0.095,-0.024 0.095,-0.095C0.095,-0.121 0.095,-0.143 0.097,-0.162C0.097,-0.167 0.097,-0.173 0.097,-0.179L0.097,-0.381L0.077,-0.381C0.063,-0.381 0.046,-0.381 0.027,-0.379L0.022,-0.383Z" style="fill:rgb(35,31,32);fill-rule:nonzero;"/>
        </g>
        <g transform="matrix(37.5,0,0,37.5,303.319,544.716)">
            <path d="M0.181,-0.471L0.19,-0.465C0.187,-0.428 0.185,-0.395 0.185,-0.367C0.229,-0.407 0.26,-0.434 0.277,-0.447C0.295,-0.46 0.325,-0.466 0.367,-0.466C0.394,-0.466 0.418,-0.463 0.44,-0.455C0.462,-0.448 0.482,-0.436 0.5,-0.419C0.519,-0.402 0.534,-0.381 0.544,-0.356C0.555,-0.331 0.561,-0.302 0.561,-0.269C0.561,-0.245 0.557,-0.221 0.549,-0.197C0.542,-0.173 0.532,-0.151 0.52,-0.13C0.508,-0.11 0.498,-0.096 0.49,-0.09C0.483,-0.083 0.468,-0.073 0.445,-0.06C0.425,-0.047 0.404,-0.034 0.384,-0.02C0.37,-0.009 0.361,-0.003 0.355,-0C0.349,0.003 0.34,0.006 0.327,0.009C0.314,0.012 0.3,0.013 0.286,0.013C0.252,0.013 0.218,0.005 0.185,-0.013L0.185,0.091C0.185,0.098 0.185,0.122 0.187,0.16C0.188,0.199 0.189,0.222 0.191,0.229C0.192,0.235 0.194,0.24 0.197,0.243C0.2,0.246 0.204,0.247 0.208,0.248C0.212,0.249 0.23,0.25 0.261,0.252L0.265,0.256L0.265,0.277L0.261,0.281C0.221,0.279 0.181,0.277 0.144,0.277C0.107,0.277 0.068,0.279 0.027,0.281L0.022,0.277L0.022,0.256L0.027,0.252C0.058,0.25 0.076,0.249 0.08,0.248C0.084,0.247 0.088,0.245 0.091,0.242C0.094,0.239 0.096,0.234 0.097,0.227C0.099,0.22 0.1,0.198 0.101,0.162C0.103,0.125 0.104,0.097 0.104,0.079L0.104,-0.295C0.104,-0.312 0.103,-0.332 0.101,-0.354C0.1,-0.377 0.099,-0.389 0.098,-0.393C0.097,-0.397 0.094,-0.4 0.091,-0.402C0.087,-0.404 0.078,-0.405 0.065,-0.405L0.024,-0.406L0.02,-0.41L0.02,-0.431L0.024,-0.435C0.086,-0.442 0.138,-0.454 0.181,-0.471ZM0.185,-0.097C0.2,-0.081 0.218,-0.068 0.24,-0.057C0.262,-0.046 0.287,-0.04 0.313,-0.04C0.345,-0.04 0.373,-0.048 0.397,-0.064C0.421,-0.08 0.44,-0.103 0.454,-0.134C0.467,-0.165 0.474,-0.199 0.474,-0.236C0.474,-0.267 0.468,-0.295 0.456,-0.321C0.444,-0.347 0.426,-0.367 0.401,-0.382C0.376,-0.397 0.349,-0.405 0.321,-0.405C0.304,-0.405 0.287,-0.402 0.271,-0.396C0.255,-0.39 0.24,-0.381 0.225,-0.369C0.211,-0.357 0.201,-0.346 0.195,-0.336C0.189,-0.325 0.185,-0.316 0.185,-0.309C0.185,-0.302 0.185,-0.295 0.185,-0.286L0.185,-0.097Z" style="fill:rgb(35,31,32);fill-rule:nonzero;"/>
        </g>
        <g transform="matrix(37.5,0,0,37.5,325.86,544.716)">
            <path d="M0.169,-0.465L0.178,-0.459C0.175,-0.416 0.173,-0.362 0.173,-0.296L0.173,-0.183C0.173,-0.141 0.176,-0.112 0.182,-0.096C0.189,-0.079 0.2,-0.067 0.215,-0.058C0.231,-0.05 0.25,-0.045 0.271,-0.045C0.295,-0.045 0.316,-0.05 0.336,-0.059C0.355,-0.069 0.372,-0.082 0.385,-0.099C0.398,-0.116 0.406,-0.127 0.408,-0.133C0.41,-0.139 0.411,-0.155 0.412,-0.182L0.413,-0.237L0.413,-0.29C0.413,-0.303 0.412,-0.32 0.411,-0.343C0.41,-0.365 0.409,-0.379 0.408,-0.384C0.407,-0.389 0.405,-0.393 0.4,-0.396C0.396,-0.398 0.388,-0.399 0.375,-0.399L0.334,-0.4L0.33,-0.404L0.33,-0.425L0.333,-0.429C0.396,-0.436 0.448,-0.448 0.491,-0.465L0.5,-0.459C0.496,-0.416 0.495,-0.362 0.495,-0.296L0.495,-0.21C0.495,-0.206 0.495,-0.166 0.497,-0.091C0.498,-0.063 0.499,-0.046 0.502,-0.04C0.505,-0.034 0.509,-0.03 0.514,-0.028C0.519,-0.025 0.533,-0.024 0.557,-0.024L0.571,-0.024L0.575,-0.02L0.575,-0L0.571,0.004C0.525,0.001 0.495,-0 0.479,-0C0.459,-0 0.436,0.001 0.41,0.003L0.406,-0C0.408,-0.034 0.409,-0.062 0.41,-0.085C0.39,-0.069 0.366,-0.048 0.34,-0.021C0.33,-0.011 0.315,-0.002 0.296,0.004C0.278,0.011 0.256,0.015 0.232,0.015C0.195,0.015 0.167,0.009 0.147,-0.003C0.126,-0.014 0.112,-0.03 0.104,-0.051C0.095,-0.071 0.091,-0.106 0.091,-0.156L0.091,-0.194L0.091,-0.29C0.091,-0.303 0.091,-0.32 0.089,-0.343C0.088,-0.365 0.087,-0.379 0.086,-0.384C0.085,-0.389 0.083,-0.393 0.079,-0.396C0.074,-0.398 0.066,-0.399 0.053,-0.399L0.012,-0.4L0.008,-0.404L0.008,-0.425L0.012,-0.429C0.074,-0.436 0.126,-0.448 0.169,-0.465Z" style="fill:rgb(35,31,32);fill-rule:nonzero;"/>
        </g>
        <g transform="matrix(37.5,0,0,37.5,348.473,544.716)">
            <path d="M0.022,-0.383L0.022,-0.396L0.026,-0.401C0.056,-0.412 0.081,-0.423 0.1,-0.433C0.1,-0.518 0.099,-0.567 0.097,-0.581C0.131,-0.593 0.158,-0.605 0.18,-0.619L0.191,-0.609C0.188,-0.588 0.184,-0.529 0.18,-0.43C0.196,-0.43 0.214,-0.43 0.232,-0.43C0.271,-0.43 0.298,-0.431 0.315,-0.433L0.318,-0.429L0.309,-0.388L0.305,-0.384C0.289,-0.384 0.27,-0.384 0.25,-0.384C0.232,-0.384 0.208,-0.384 0.18,-0.384L0.177,-0.185C0.177,-0.139 0.178,-0.109 0.18,-0.095C0.182,-0.081 0.188,-0.07 0.198,-0.062C0.207,-0.054 0.221,-0.05 0.24,-0.05C0.262,-0.05 0.282,-0.056 0.301,-0.067L0.313,-0.049C0.305,-0.044 0.286,-0.028 0.256,-0C0.239,0.007 0.222,0.011 0.205,0.011C0.131,0.011 0.095,-0.024 0.095,-0.095C0.095,-0.121 0.095,-0.143 0.097,-0.162C0.097,-0.167 0.097,-0.173 0.097,-0.179L0.097,-0.381L0.077,-0.381C0.063,-0.381 0.046,-0.381 0.027,-0.379L0.022,-0.383Z" style="fill:rgb(35,31,32);fill-rule:nonzero;"/>
        </g>
    </g>
    <g id="Ebene3">
        <g transform="matrix(0.648069,0,0,0.648069,58.6263,39.9686)">
            <rect x="146.367" y="126.038" width="118.415" height="118.415" style="fill:rgb(0,174,239);stroke:black;stroke-width:3.18px;"/>
        </g>
        <g transform="matrix(0.648069,0,0,0.648069,58.6263,116.71)">
            <rect x="146.367" y="126.038" width="118.415" height="118.415" style="fill:rgb(237,28,36);stroke:black;stroke-width:3.18px;"/>
        </g>
        <g transform="matrix(1.46626,0,0,1.46626,50.3332,-240.587)">
            <rect x="718.165" y="248.517" width="153.845" height="153.845" style="fill:none;stroke:rgb(0,174,239);stroke-width:2.01px;stroke-dasharray:2.01,6.04,0,0;"/>
        </g>
        <g transform="matrix(1.46626,0,0,1.46626,50.3332,-163.398)">
            <rect x="718.165" y="248.517" width="153.845" height="153.845" style="fill:none;stroke:rgb(237,28,36);stroke-width:2.01px;stroke-dasharray:2.01,6.04,0,0;"/>
        </g>
        <g transform="matrix(1.46626,0,0,1.46626,-26.4054,-240.587)">
            <rect x="718.165" y="248.517" width="153.845" height="153.845" style="fill:none;stroke:rgb(236,0,140);stroke-width:2.01px;stroke-dasharray:2.01,6.04,0,0;"/>
        </g>
        <g transform="matrix(1.46626,0,0,1.46626,-26.4054,-163.398)">
            <rect x="718.165" y="248.517" width="153.845" height="153.845" style="fill:none;stroke:rgb(0,166,80);stroke-width:2.01px;stroke-dasharray:2.01,6.04,0,0;"/>
        </g>
        <g transform="matrix(0.648069,0,0,0.648069,-18.1149,39.9686)">
            <rect x="146.367" y="126.038" width="118.415" height="118.415" style="fill:rgb(236,0,140);stroke:black;stroke-width:3.18px;"/>
        </g>
        <g transform="matrix(0.648069,0,0,0.648069,-18.1149,116.71)">
            <rect x="146.367" y="126.038" width="118.415" height="118.415" style="fill:rgb(0,166,80);stroke:black;stroke-width:3.18px;"/>
        </g>
        <g transform="matrix(1,0,0,1,828.568,-517.598)">
            <g transform="matrix(37.5,0,0,37.5,155.558,544.716)">
                <path d="M0.021,0.004L0.017,-0L0.017,-0.025L0.021,-0.029C0.045,-0.03 0.061,-0.031 0.067,-0.033C0.074,-0.035 0.08,-0.039 0.086,-0.046C0.091,-0.052 0.102,-0.073 0.118,-0.108L0.169,-0.219L0.302,-0.52C0.327,-0.579 0.352,-0.638 0.377,-0.697L0.409,-0.697L0.617,-0.207L0.645,-0.141C0.653,-0.123 0.663,-0.102 0.673,-0.081C0.684,-0.059 0.691,-0.046 0.695,-0.042C0.699,-0.038 0.704,-0.035 0.71,-0.033C0.716,-0.031 0.73,-0.03 0.75,-0.029L0.754,-0.025L0.754,-0L0.75,0.004C0.716,0.001 0.685,-0 0.657,-0C0.603,0.001 0.549,0.003 0.495,0.004L0.491,-0L0.491,-0.025L0.495,-0.029C0.532,-0.03 0.554,-0.031 0.563,-0.034C0.573,-0.036 0.577,-0.042 0.577,-0.051C0.577,-0.058 0.575,-0.067 0.57,-0.079L0.51,-0.228L0.228,-0.228L0.174,-0.103C0.165,-0.081 0.16,-0.064 0.16,-0.054C0.16,-0.046 0.165,-0.04 0.173,-0.036C0.182,-0.032 0.204,-0.03 0.24,-0.029L0.244,-0.025L0.244,-0L0.24,0.004C0.198,0.001 0.161,-0 0.13,-0C0.094,-0 0.058,0.001 0.021,0.004ZM0.244,-0.27L0.491,-0.27L0.369,-0.564L0.244,-0.27Z" style="fill:rgb(35,31,32);fill-rule:nonzero;"/>
            </g>
            <g transform="matrix(37.5,0,0,37.5,184.727,544.716)">
                <path d="M0.329,-0.662L0.329,-0.683L0.333,-0.687C0.395,-0.694 0.447,-0.706 0.49,-0.723L0.499,-0.717C0.495,-0.68 0.494,-0.605 0.494,-0.492L0.494,-0.172C0.494,-0.139 0.494,-0.111 0.495,-0.086C0.497,-0.062 0.499,-0.047 0.501,-0.042C0.504,-0.038 0.509,-0.034 0.516,-0.031C0.523,-0.028 0.542,-0.026 0.573,-0.023L0.577,-0.019L0.577,-0L0.573,0.004C0.538,0.002 0.51,0 0.491,0C0.473,0 0.448,0.002 0.416,0.004L0.41,-0.001C0.411,-0.033 0.412,-0.056 0.412,-0.068C0.412,-0.07 0.412,-0.076 0.412,-0.087C0.394,-0.074 0.376,-0.059 0.358,-0.043C0.332,-0.02 0.315,-0.005 0.307,0C0.292,0.008 0.27,0.012 0.243,0.012C0.198,0.012 0.16,0.001 0.128,-0.021C0.097,-0.044 0.074,-0.072 0.061,-0.106C0.048,-0.141 0.041,-0.176 0.041,-0.212C0.041,-0.249 0.048,-0.284 0.062,-0.318C0.076,-0.352 0.095,-0.377 0.121,-0.393C0.146,-0.408 0.174,-0.424 0.204,-0.441C0.234,-0.458 0.264,-0.466 0.294,-0.466C0.335,-0.466 0.375,-0.456 0.412,-0.436L0.41,-0.544C0.41,-0.582 0.409,-0.608 0.407,-0.623C0.406,-0.638 0.404,-0.647 0.402,-0.65C0.4,-0.652 0.397,-0.654 0.392,-0.656C0.388,-0.657 0.368,-0.658 0.333,-0.658L0.329,-0.662ZM0.412,-0.352C0.392,-0.375 0.37,-0.392 0.345,-0.404C0.32,-0.416 0.296,-0.422 0.271,-0.422C0.244,-0.422 0.218,-0.415 0.195,-0.4C0.171,-0.385 0.154,-0.363 0.144,-0.334C0.133,-0.305 0.128,-0.273 0.128,-0.239C0.128,-0.182 0.142,-0.137 0.171,-0.102C0.2,-0.068 0.236,-0.05 0.28,-0.05C0.304,-0.05 0.325,-0.056 0.343,-0.067C0.361,-0.078 0.377,-0.092 0.388,-0.111C0.4,-0.129 0.407,-0.148 0.409,-0.167C0.411,-0.185 0.412,-0.219 0.412,-0.269L0.412,-0.352Z" style="fill:rgb(35,31,32);fill-rule:nonzero;"/>
            </g>
            <g transform="matrix(37.5,0,0,37.5,207.633,544.716)">
                <path d="M0.329,-0.662L0.329,-0.683L0.333,-0.687C0.395,-0.694 0.447,-0.706 0.49,-0.723L0.499,-0.717C0.495,-0.68 0.494,-0.605 0.494,-0.492L0.494,-0.172C0.494,-0.139 0.494,-0.111 0.495,-0.086C0.497,-0.062 0.499,-0.047 0.501,-0.042C0.504,-0.038 0.509,-0.034 0.516,-0.031C0.523,-0.028 0.542,-0.026 0.573,-0.023L0.577,-0.019L0.577,-0L0.573,0.004C0.538,0.002 0.51,0 0.491,0C0.473,0 0.448,0.002 0.416,0.004L0.41,-0.001C0.411,-0.033 0.412,-0.056 0.412,-0.068C0.412,-0.07 0.412,-0.076 0.412,-0.087C0.394,-0.074 0.376,-0.059 0.358,-0.043C0.332,-0.02 0.315,-0.005 0.307,0C0.292,0.008 0.27,0.012 0.243,0.012C0.198,0.012 0.16,0.001 0.128,-0.021C0.097,-0.044 0.074,-0.072 0.061,-0.106C0.048,-0.141 0.041,-0.176 0.041,-0.212C0.041,-0.249 0.048,-0.284 0.062,-0.318C0.076,-0.352 0.095,-0.377 0.121,-0.393C0.146,-0.408 0.174,-0.424 0.204,-0.441C0.234,-0.458 0.264,-0.466 0.294,-0.466C0.335,-0.466 0.375,-0.456 0.412,-0.436L0.41,-0.544C0.41,-0.582 0.409,-0.608 0.407,-0.623C0.406,-0.638 0.404,-0.647 0.402,-0.65C0.4,-0.652 0.397,-0.654 0.392,-0.656C0.388,-0.657 0.368,-0.658 0.333,-0.658L0.329,-0.662ZM0.412,-0.352C0.392,-0.375 0.37,-0.392 0.345,-0.404C0.32,-0.416 0.296,-0.422 0.271,-0.422C0.244,-0.422 0.218,-0.415 0.195,-0.4C0.171,-0.385 0.154,-0.363 0.144,-0.334C0.133,-0.305 0.128,-0.273 0.128,-0.239C0.128,-0.182 0.142,-0.137 0.171,-0.102C0.2,-0.068 0.236,-0.05 0.28,-0.05C0.304,-0.05 0.325,-0.056 0.343,-0.067C0.361,-0.078 0.377,-0.092 0.388,-0.111C0.4,-0.129 0.407,-0.148 0.409,-0.167C0.411,-0.185 0.412,-0.219 0.412,-0.269L0.412,-0.352Z" style="fill:rgb(35,31,32);fill-rule:nonzero;"/>
            </g>
            <g transform="matrix(37.5,0,0,37.5,230.54,544.716)">
                <path d="M0.141,-0.684C0.156,-0.684 0.169,-0.678 0.18,-0.667C0.19,-0.657 0.196,-0.644 0.196,-0.628C0.196,-0.613 0.19,-0.601 0.18,-0.59C0.169,-0.579 0.156,-0.574 0.141,-0.574C0.126,-0.574 0.113,-0.579 0.102,-0.59C0.091,-0.6 0.085,-0.613 0.085,-0.628C0.085,-0.644 0.091,-0.657 0.102,-0.667C0.113,-0.678 0.126,-0.684 0.141,-0.684ZM0.182,-0.465L0.191,-0.459C0.188,-0.416 0.186,-0.362 0.186,-0.296L0.186,-0.186C0.186,-0.179 0.187,-0.156 0.188,-0.117C0.189,-0.078 0.191,-0.055 0.192,-0.049C0.194,-0.042 0.196,-0.038 0.199,-0.035C0.202,-0.032 0.205,-0.03 0.209,-0.029C0.214,-0.028 0.231,-0.027 0.262,-0.025L0.267,-0.021L0.267,-0L0.263,0.004C0.222,0.001 0.183,-0 0.145,-0C0.108,-0 0.069,0.001 0.028,0.004L0.023,-0L0.023,-0.021L0.028,-0.025C0.059,-0.027 0.077,-0.028 0.081,-0.029C0.085,-0.03 0.089,-0.032 0.092,-0.035C0.095,-0.038 0.097,-0.043 0.098,-0.05C0.1,-0.056 0.101,-0.077 0.102,-0.113C0.104,-0.148 0.104,-0.175 0.104,-0.193L0.104,-0.29C0.104,-0.303 0.104,-0.32 0.103,-0.343C0.101,-0.365 0.1,-0.379 0.099,-0.384C0.099,-0.389 0.096,-0.393 0.092,-0.396C0.088,-0.398 0.079,-0.399 0.066,-0.399L0.025,-0.4L0.021,-0.404L0.021,-0.425L0.025,-0.429C0.087,-0.436 0.139,-0.448 0.182,-0.465Z" style="fill:rgb(35,31,32);fill-rule:nonzero;"/>
            </g>
            <g transform="matrix(37.5,0,0,37.5,241.453,544.716)">
                <path d="M0.022,-0.383L0.022,-0.396L0.026,-0.401C0.056,-0.412 0.081,-0.423 0.1,-0.433C0.1,-0.518 0.099,-0.567 0.097,-0.581C0.131,-0.593 0.158,-0.605 0.18,-0.619L0.191,-0.609C0.188,-0.588 0.184,-0.529 0.18,-0.43C0.196,-0.43 0.214,-0.43 0.232,-0.43C0.271,-0.43 0.298,-0.431 0.315,-0.433L0.318,-0.429L0.309,-0.388L0.305,-0.384C0.289,-0.384 0.27,-0.384 0.25,-0.384C0.232,-0.384 0.208,-0.384 0.18,-0.384L0.177,-0.185C0.177,-0.139 0.178,-0.109 0.18,-0.095C0.182,-0.081 0.188,-0.07 0.198,-0.062C0.207,-0.054 0.221,-0.05 0.24,-0.05C0.262,-0.05 0.282,-0.056 0.301,-0.067L0.313,-0.049C0.305,-0.044 0.286,-0.028 0.256,-0C0.239,0.007 0.222,0.011 0.205,0.011C0.131,0.011 0.095,-0.024 0.095,-0.095C0.095,-0.121 0.095,-0.143 0.097,-0.162C0.097,-0.167 0.097,-0.173 0.097,-0.179L0.097,-0.381L0.077,-0.381C0.063,-0.381 0.046,-0.381 0.027,-0.379L0.022,-0.383Z" style="fill:rgb(35,31,32);fill-rule:nonzero;"/>
            </g>
            <g transform="matrix(37.5,0,0,37.5,253.684,544.716)">
                <path d="M0.141,-0.684C0.156,-0.684 0.169,-0.678 0.18,-0.667C0.19,-0.657 0.196,-0.644 0.196,-0.628C0.196,-0.613 0.19,-0.601 0.18,-0.59C0.169,-0.579 0.156,-0.574 0.141,-0.574C0.126,-0.574 0.113,-0.579 0.102,-0.59C0.091,-0.6 0.085,-0.613 0.085,-0.628C0.085,-0.644 0.091,-0.657 0.102,-0.667C0.113,-0.678 0.126,-0.684 0.141,-0.684ZM0.182,-0.465L0.191,-0.459C0.188,-0.416 0.186,-0.362 0.186,-0.296L0.186,-0.186C0.186,-0.179 0.187,-0.156 0.188,-0.117C0.189,-0.078 0.191,-0.055 0.192,-0.049C0.194,-0.042 0.196,-0.038 0.199,-0.035C0.202,-0.032 0.205,-0.03 0.209,-0.029C0.214,-0.028 0.231,-0.027 0.262,-0.025L0.267,-0.021L0.267,-0L0.263,0.004C0.222,0.001 0.183,-0 0.145,-0C0.108,-0 0.069,0.001 0.028,0.004L0.023,-0L0.023,-0.021L0.028,-0.025C0.059,-0.027 0.077,-0.028 0.081,-0.029C0.085,-0.03 0.089,-0.032 0.092,-0.035C0.095,-0.038 0.097,-0.043 0.098,-0.05C0.1,-0.056 0.101,-0.077 0.102,-0.113C0.104,-0.148 0.104,-0.175 0.104,-0.193L0.104,-0.29C0.104,-0.303 0.104,-0.32 0.103,-0.343C0.101,-0.365 0.1,-0.379 0.099,-0.384C0.099,-0.389 0.096,-0.393 0.092,-0.396C0.088,-0.398 0.079,-0.399 0.066,-0.399L0.025,-0.4L0.021,-0.404L0.021,-0.425L0.025,-0.429C0.087,-0.436 0.139,-0.448 0.182,-0.465Z" style="fill:rgb(35,31,32);fill-rule:nonzero;"/>
            </g>
            <g transform="matrix(37.5,0,0,37.5,264.598,544.716)">
                <path d="M0.249,0.009L0.219,-0.068L0.183,-0.151L0.083,-0.384C0.076,-0.4 0.07,-0.41 0.065,-0.415C0.06,-0.419 0.055,-0.422 0.05,-0.423C0.045,-0.424 0.034,-0.425 0.019,-0.426L0.015,-0.43L0.015,-0.451L0.019,-0.455C0.065,-0.453 0.101,-0.452 0.127,-0.452C0.165,-0.452 0.203,-0.453 0.241,-0.455L0.245,-0.451L0.245,-0.43L0.241,-0.426C0.207,-0.425 0.188,-0.422 0.182,-0.419C0.177,-0.415 0.174,-0.41 0.174,-0.404C0.174,-0.395 0.18,-0.374 0.193,-0.341L0.253,-0.193L0.3,-0.082L0.349,-0.193L0.389,-0.293C0.405,-0.332 0.415,-0.359 0.419,-0.375C0.424,-0.39 0.426,-0.401 0.426,-0.406C0.426,-0.412 0.423,-0.417 0.416,-0.42C0.408,-0.422 0.39,-0.424 0.361,-0.426L0.357,-0.43L0.357,-0.451L0.362,-0.455C0.402,-0.453 0.432,-0.452 0.453,-0.452C0.47,-0.452 0.499,-0.453 0.54,-0.455L0.544,-0.451L0.544,-0.43L0.54,-0.426C0.521,-0.424 0.508,-0.421 0.502,-0.417C0.495,-0.414 0.489,-0.406 0.483,-0.395C0.477,-0.384 0.46,-0.349 0.431,-0.29L0.384,-0.19C0.376,-0.173 0.348,-0.107 0.3,0.009L0.249,0.009Z" style="fill:rgb(35,31,32);fill-rule:nonzero;"/>
            </g>
            <g transform="matrix(37.5,0,0,37.5,285.142,544.716)">
                <path d="M0.432,-0.072L0.416,-0.037C0.382,-0.015 0.352,-0.001 0.325,0.006C0.299,0.012 0.275,0.016 0.254,0.016C0.215,0.016 0.178,0.008 0.143,-0.007C0.108,-0.023 0.08,-0.049 0.058,-0.085C0.036,-0.121 0.025,-0.165 0.025,-0.217C0.025,-0.251 0.029,-0.282 0.038,-0.309C0.046,-0.337 0.055,-0.357 0.064,-0.371C0.073,-0.384 0.089,-0.399 0.111,-0.415C0.133,-0.431 0.157,-0.444 0.182,-0.454C0.206,-0.464 0.233,-0.469 0.262,-0.469C0.301,-0.469 0.335,-0.46 0.365,-0.441C0.395,-0.423 0.416,-0.399 0.428,-0.371C0.44,-0.342 0.446,-0.312 0.446,-0.279C0.446,-0.269 0.445,-0.259 0.444,-0.25L0.439,-0.245C0.417,-0.24 0.387,-0.236 0.35,-0.235C0.312,-0.233 0.287,-0.232 0.275,-0.232L0.119,-0.232C0.119,-0.165 0.136,-0.115 0.169,-0.083C0.203,-0.052 0.243,-0.036 0.292,-0.036C0.314,-0.036 0.336,-0.04 0.357,-0.047C0.378,-0.055 0.4,-0.066 0.424,-0.08L0.432,-0.072ZM0.119,-0.271C0.125,-0.271 0.147,-0.269 0.186,-0.268C0.226,-0.267 0.255,-0.266 0.273,-0.266C0.319,-0.266 0.346,-0.267 0.356,-0.269C0.356,-0.276 0.356,-0.282 0.356,-0.287C0.356,-0.337 0.346,-0.375 0.326,-0.399C0.305,-0.424 0.277,-0.436 0.242,-0.436C0.203,-0.436 0.173,-0.422 0.151,-0.395C0.129,-0.367 0.119,-0.326 0.119,-0.271Z" style="fill:rgb(35,31,32);fill-rule:nonzero;"/>
            </g>
            <g transform="matrix(37.5,0,0,37.5,312.48,544.716)">
                <path d="M0.049,-0.144L0.07,-0.144L0.075,-0.139C0.075,-0.112 0.077,-0.088 0.08,-0.069C0.09,-0.054 0.107,-0.041 0.132,-0.031C0.157,-0.022 0.181,-0.017 0.205,-0.017C0.24,-0.017 0.267,-0.026 0.288,-0.045C0.309,-0.063 0.319,-0.086 0.319,-0.111C0.319,-0.125 0.315,-0.137 0.308,-0.148C0.3,-0.158 0.289,-0.166 0.274,-0.173C0.259,-0.18 0.231,-0.188 0.192,-0.197C0.159,-0.205 0.135,-0.211 0.122,-0.215C0.109,-0.219 0.096,-0.227 0.083,-0.237C0.071,-0.248 0.062,-0.26 0.055,-0.276C0.049,-0.291 0.045,-0.307 0.045,-0.326C0.045,-0.369 0.063,-0.404 0.097,-0.43C0.132,-0.457 0.175,-0.47 0.227,-0.47C0.249,-0.47 0.273,-0.467 0.298,-0.461C0.324,-0.455 0.344,-0.449 0.357,-0.443L0.361,-0.437C0.359,-0.424 0.357,-0.389 0.356,-0.334L0.352,-0.33L0.333,-0.33L0.328,-0.334C0.327,-0.354 0.325,-0.368 0.323,-0.376C0.32,-0.384 0.315,-0.392 0.305,-0.402C0.296,-0.411 0.282,-0.419 0.265,-0.425C0.248,-0.431 0.23,-0.435 0.21,-0.435C0.191,-0.435 0.174,-0.432 0.16,-0.426C0.147,-0.42 0.136,-0.411 0.128,-0.399C0.119,-0.387 0.115,-0.373 0.115,-0.356C0.115,-0.344 0.118,-0.333 0.123,-0.323C0.128,-0.313 0.136,-0.305 0.146,-0.299C0.156,-0.293 0.167,-0.289 0.179,-0.286L0.232,-0.272C0.278,-0.261 0.31,-0.252 0.33,-0.244C0.35,-0.236 0.365,-0.223 0.375,-0.207C0.386,-0.19 0.392,-0.17 0.392,-0.147C0.392,-0.102 0.373,-0.063 0.336,-0.031C0.299,0.001 0.251,0.017 0.193,0.017C0.172,0.017 0.147,0.015 0.116,0.01C0.086,0.006 0.06,0.001 0.039,-0.005L0.036,-0.011L0.041,-0.044C0.043,-0.054 0.044,-0.064 0.044,-0.074C0.044,-0.085 0.045,-0.106 0.045,-0.139L0.049,-0.144Z" style="fill:rgb(35,31,32);fill-rule:nonzero;"/>
            </g>
            <g transform="matrix(37.5,0,0,37.5,328.373,544.716)">
                <path d="M0.169,-0.465L0.178,-0.459C0.175,-0.416 0.173,-0.362 0.173,-0.296L0.173,-0.183C0.173,-0.141 0.176,-0.112 0.182,-0.096C0.189,-0.079 0.2,-0.067 0.215,-0.058C0.231,-0.05 0.25,-0.045 0.271,-0.045C0.295,-0.045 0.316,-0.05 0.336,-0.059C0.355,-0.069 0.372,-0.082 0.385,-0.099C0.398,-0.116 0.406,-0.127 0.408,-0.133C0.41,-0.139 0.411,-0.155 0.412,-0.182L0.413,-0.237L0.413,-0.29C0.413,-0.303 0.412,-0.32 0.411,-0.343C0.41,-0.365 0.409,-0.379 0.408,-0.384C0.407,-0.389 0.405,-0.393 0.4,-0.396C0.396,-0.398 0.388,-0.399 0.375,-0.399L0.334,-0.4L0.33,-0.404L0.33,-0.425L0.333,-0.429C0.396,-0.436 0.448,-0.448 0.491,-0.465L0.5,-0.459C0.496,-0.416 0.495,-0.362 0.495,-0.296L0.495,-0.21C0.495,-0.206 0.495,-0.166 0.497,-0.091C0.498,-0.063 0.499,-0.046 0.502,-0.04C0.505,-0.034 0.509,-0.03 0.514,-0.028C0.519,-0.025 0.533,-0.024 0.557,-0.024L0.571,-0.024L0.575,-0.02L0.575,-0L0.571,0.004C0.525,0.001 0.495,-0 0.479,-0C0.459,-0 0.436,0.001 0.41,0.003L0.406,-0C0.408,-0.034 0.409,-0.062 0.41,-0.085C0.39,-0.069 0.366,-0.048 0.34,-0.021C0.33,-0.011 0.315,-0.002 0.296,0.004C0.278,0.011 0.256,0.015 0.232,0.015C0.195,0.015 0.167,0.009 0.147,-0.003C0.126,-0.014 0.112,-0.03 0.104,-0.051C0.095,-0.071 0.091,-0.106 0.091,-0.156L0.091,-0.194L0.091,-0.29C0.091,-0.303 0.091,-0.32 0.089,-0.343C0.088,-0.365 0.087,-0.379 0.086,-0.384C0.085,-0.389 0.083,-0.393 0.079,-0.396C0.074,-0.398 0.066,-0.399 0.053,-0.399L0.012,-0.4L0.008,-0.404L0.008,-0.425L0.012,-0.429C0.074,-0.436 0.126,-0.448 0.169,-0.465Z" style="fill:rgb(35,31,32);fill-rule:nonzero;"/>
            </g>
            <g transform="matrix(37.5,0,0,37.5,350.987,544.716)">
                <path d="M0.181,-0.471L0.19,-0.465C0.187,-0.428 0.185,-0.395 0.185,-0.367C0.229,-0.407 0.26,-0.434 0.277,-0.447C0.295,-0.46 0.325,-0.466 0.367,-0.466C0.394,-0.466 0.418,-0.463 0.44,-0.455C0.462,-0.448 0.482,-0.436 0.5,-0.419C0.519,-0.402 0.534,-0.381 0.544,-0.356C0.555,-0.331 0.561,-0.302 0.561,-0.269C0.561,-0.245 0.557,-0.221 0.549,-0.197C0.542,-0.173 0.532,-0.151 0.52,-0.13C0.508,-0.11 0.498,-0.096 0.49,-0.09C0.483,-0.083 0.468,-0.073 0.445,-0.06C0.425,-0.047 0.404,-0.034 0.384,-0.02C0.37,-0.009 0.361,-0.003 0.355,-0C0.349,0.003 0.34,0.006 0.327,0.009C0.314,0.012 0.3,0.013 0.286,0.013C0.252,0.013 0.218,0.005 0.185,-0.013L0.185,0.091C0.185,0.098 0.185,0.122 0.187,0.16C0.188,0.199 0.189,0.222 0.191,0.229C0.192,0.235 0.194,0.24 0.197,0.243C0.2,0.246 0.204,0.247 0.208,0.248C0.212,0.249 0.23,0.25 0.261,0.252L0.265,0.256L0.265,0.277L0.261,0.281C0.221,0.279 0.181,0.277 0.144,0.277C0.107,0.277 0.068,0.279 0.027,0.281L0.022,0.277L0.022,0.256L0.027,0.252C0.058,0.25 0.076,0.249 0.08,0.248C0.084,0.247 0.088,0.245 0.091,0.242C0.094,0.239 0.096,0.234 0.097,0.227C0.099,0.22 0.1,0.198 0.101,0.162C0.103,0.125 0.104,0.097 0.104,0.079L0.104,-0.295C0.104,-0.312 0.103,-0.332 0.101,-0.354C0.1,-0.377 0.099,-0.389 0.098,-0.393C0.097,-0.397 0.094,-0.4 0.091,-0.402C0.087,-0.404 0.078,-0.405 0.065,-0.405L0.024,-0.406L0.02,-0.41L0.02,-0.431L0.024,-0.435C0.086,-0.442 0.138,-0.454 0.181,-0.471ZM0.185,-0.097C0.2,-0.081 0.218,-0.068 0.24,-0.057C0.262,-0.046 0.287,-0.04 0.313,-0.04C0.345,-0.04 0.373,-0.048 0.397,-0.064C0.421,-0.08 0.44,-0.103 0.454,-0.134C0.467,-0.165 0.474,-0.199 0.474,-0.236C0.474,-0.267 0.468,-0.295 0.456,-0.321C0.444,-0.347 0.426,-0.367 0.401,-0.382C0.376,-0.397 0.349,-0.405 0.321,-0.405C0.304,-0.405 0.287,-0.402 0.271,-0.396C0.255,-0.39 0.24,-0.381 0.225,-0.369C0.211,-0.357 0.201,-0.346 0.195,-0.336C0.189,-0.325 0.185,-0.316 0.185,-0.309C0.185,-0.302 0.185,-0.295 0.185,-0.286L0.185,-0.097Z" style="fill:rgb(35,31,32);fill-rule:nonzero;"/>
            </g>
            <g transform="matrix(37.5,0,0,37.5,373.527,544.716)">
                <path d="M0.432,-0.072L0.416,-0.037C0.382,-0.015 0.352,-0.001 0.325,0.006C0.299,0.012 0.275,0.016 0.254,0.016C0.215,0.016 0.178,0.008 0.143,-0.007C0.108,-0.023 0.08,-0.049 0.058,-0.085C0.036,-0.121 0.025,-0.165 0.025,-0.217C0.025,-0.251 0.029,-0.282 0.038,-0.309C0.046,-0.337 0.055,-0.357 0.064,-0.371C0.073,-0.384 0.089,-0.399 0.111,-0.415C0.133,-0.431 0.157,-0.444 0.182,-0.454C0.206,-0.464 0.233,-0.469 0.262,-0.469C0.301,-0.469 0.335,-0.46 0.365,-0.441C0.395,-0.423 0.416,-0.399 0.428,-0.371C0.44,-0.342 0.446,-0.312 0.446,-0.279C0.446,-0.269 0.445,-0.259 0.444,-0.25L0.439,-0.245C0.417,-0.24 0.387,-0.236 0.35,-0.235C0.312,-0.233 0.287,-0.232 0.275,-0.232L0.119,-0.232C0.119,-0.165 0.136,-0.115 0.169,-0.083C0.203,-0.052 0.243,-0.036 0.292,-0.036C0.314,-0.036 0.336,-0.04 0.357,-0.047C0.378,-0.055 0.4,-0.066 0.424,-0.08L0.432,-0.072ZM0.119,-0.271C0.125,-0.271 0.147,-0.269 0.186,-0.268C0.226,-0.267 0.255,-0.266 0.273,-0.266C0.319,-0.266 0.346,-0.267 0.356,-0.269C0.356,-0.276 0.356,-0.282 0.356,-0.287C0.356,-0.337 0.346,-0.375 0.326,-0.399C0.305,-0.424 0.277,-0.436 0.242,-0.436C0.203,-0.436 0.173,-0.422 0.151,-0.395C0.129,-0.367 0.119,-0.326 0.119,-0.271Z" style="fill:rgb(35,31,32);fill-rule:nonzero;"/>
            </g>
            <g transform="matrix(37.5,0,0,37.5,391.49,544.716)">
                <path d="M0.188,-0.465L0.197,-0.459C0.195,-0.44 0.193,-0.407 0.192,-0.358L0.229,-0.405C0.241,-0.42 0.252,-0.432 0.261,-0.44C0.27,-0.448 0.281,-0.455 0.293,-0.459C0.306,-0.464 0.319,-0.466 0.332,-0.466C0.346,-0.466 0.359,-0.463 0.372,-0.458L0.375,-0.451C0.37,-0.407 0.367,-0.369 0.367,-0.336L0.345,-0.336C0.332,-0.366 0.311,-0.381 0.282,-0.381C0.262,-0.381 0.244,-0.375 0.229,-0.362C0.214,-0.349 0.204,-0.333 0.199,-0.314C0.194,-0.294 0.191,-0.27 0.191,-0.24L0.191,-0.186C0.191,-0.176 0.192,-0.152 0.193,-0.114C0.195,-0.076 0.196,-0.054 0.198,-0.048C0.199,-0.042 0.201,-0.038 0.204,-0.035C0.207,-0.033 0.212,-0.031 0.217,-0.03C0.222,-0.029 0.245,-0.027 0.286,-0.025L0.291,-0.021L0.291,-0L0.286,0.004C0.243,0.001 0.198,-0 0.15,-0C0.113,-0 0.074,0.001 0.033,0.004L0.029,-0L0.029,-0.021L0.033,-0.025C0.065,-0.027 0.083,-0.028 0.087,-0.029C0.091,-0.03 0.094,-0.032 0.097,-0.035C0.101,-0.038 0.103,-0.043 0.104,-0.05C0.105,-0.056 0.106,-0.077 0.108,-0.113C0.109,-0.148 0.11,-0.175 0.11,-0.193L0.11,-0.29C0.11,-0.303 0.109,-0.32 0.108,-0.343C0.107,-0.365 0.106,-0.379 0.105,-0.384C0.104,-0.389 0.101,-0.393 0.097,-0.396C0.093,-0.398 0.084,-0.399 0.072,-0.399L0.031,-0.4L0.026,-0.404L0.026,-0.425L0.03,-0.429C0.092,-0.436 0.145,-0.448 0.188,-0.465Z" style="fill:rgb(35,31,32);fill-rule:nonzero;"/>
            </g>
            <g transform="matrix(37.5,0,0,37.5,406.303,544.716)">
                <path d="M0.181,-0.471L0.19,-0.465C0.187,-0.428 0.185,-0.395 0.185,-0.367C0.229,-0.407 0.26,-0.434 0.277,-0.447C0.295,-0.46 0.325,-0.466 0.367,-0.466C0.394,-0.466 0.418,-0.463 0.44,-0.455C0.462,-0.448 0.482,-0.436 0.5,-0.419C0.519,-0.402 0.534,-0.381 0.544,-0.356C0.555,-0.331 0.561,-0.302 0.561,-0.269C0.561,-0.245 0.557,-0.221 0.549,-0.197C0.542,-0.173 0.532,-0.151 0.52,-0.13C0.508,-0.11 0.498,-0.096 0.49,-0.09C0.483,-0.083 0.468,-0.073 0.445,-0.06C0.425,-0.047 0.404,-0.034 0.384,-0.02C0.37,-0.009 0.361,-0.003 0.355,-0C0.349,0.003 0.34,0.006 0.327,0.009C0.314,0.012 0.3,0.013 0.286,0.013C0.252,0.013 0.218,0.005 0.185,-0.013L0.185,0.091C0.185,0.098 0.185,0.122 0.187,0.16C0.188,0.199 0.189,0.222 0.191,0.229C0.192,0.235 0.194,0.24 0.197,0.243C0.2,0.246 0.204,0.247 0.208,0.248C0.212,0.249 0.23,0.25 0.261,0.252L0.265,0.256L0.265,0.277L0.261,0.281C0.221,0.279 0.181,0.277 0.144,0.277C0.107,0.277 0.068,0.279 0.027,0.281L0.022,0.277L0.022,0.256L0.027,0.252C0.058,0.25 0.076,0.249 0.08,0.248C0.084,0.247 0.088,0.245 0.091,0.242C0.094,0.239 0.096,0.234 0.097,0.227C0.099,0.22 0.1,0.198 0.101,0.162C0.103,0.125 0.104,0.097 0.104,0.079L0.104,-0.295C0.104,-0.312 0.103,-0.332 0.101,-0.354C0.1,-0.377 0.099,-0.389 0.098,-0.393C0.097,-0.397 0.094,-0.4 0.091,-0.402C0.087,-0.404 0.078,-0.405 0.065,-0.405L0.024,-0.406L0.02,-0.41L0.02,-0.431L0.024,-0.435C0.086,-0.442 0.138,-0.454 0.181,-0.471ZM0.185,-0.097C0.2,-0.081 0.218,-0.068 0.24,-0.057C0.262,-0.046 0.287,-0.04 0.313,-0.04C0.345,-0.04 0.373,-0.048 0.397,-0.064C0.421,-0.08 0.44,-0.103 0.454,-0.134C0.467,-0.165 0.474,-0.199 0.474,-0.236C0.474,-0.267 0.468,-0.295 0.456,-0.321C0.444,-0.347 0.426,-0.367 0.401,-0.382C0.376,-0.397 0.349,-0.405 0.321,-0.405C0.304,-0.405 0.287,-0.402 0.271,-0.396C0.255,-0.39 0.24,-0.381 0.225,-0.369C0.211,-0.357 0.201,-0.346 0.195,-0.336C0.189,-0.325 0.185,-0.316 0.185,-0.309C0.185,-0.302 0.185,-0.295 0.185,-0.286L0.185,-0.097Z" style="fill:rgb(35,31,32);fill-rule:nonzero;"/>
            </g>
            <g transform="matrix(37.5,0,0,37.5,428.843,544.716)">
                <path d="M0.033,-0.224C0.033,-0.262 0.041,-0.3 0.057,-0.336C0.073,-0.372 0.101,-0.403 0.14,-0.429C0.18,-0.455 0.227,-0.468 0.281,-0.468C0.35,-0.468 0.405,-0.447 0.448,-0.404C0.491,-0.36 0.513,-0.305 0.513,-0.237C0.513,-0.163 0.488,-0.101 0.439,-0.053C0.389,-0.005 0.33,0.019 0.26,0.019C0.215,0.019 0.174,0.007 0.138,-0.018C0.102,-0.042 0.076,-0.072 0.059,-0.108C0.042,-0.143 0.033,-0.182 0.033,-0.224ZM0.125,-0.257C0.125,-0.212 0.131,-0.171 0.143,-0.135C0.155,-0.099 0.173,-0.07 0.199,-0.048C0.224,-0.027 0.253,-0.016 0.286,-0.016C0.324,-0.016 0.356,-0.031 0.381,-0.061C0.406,-0.092 0.418,-0.138 0.418,-0.199C0.418,-0.268 0.405,-0.325 0.378,-0.369C0.351,-0.413 0.311,-0.436 0.26,-0.436C0.218,-0.436 0.185,-0.42 0.161,-0.39C0.137,-0.359 0.125,-0.315 0.125,-0.257Z" style="fill:rgb(35,31,32);fill-rule:nonzero;"/>
            </g>
            <g transform="matrix(37.5,0,0,37.5,449.314,544.716)">
                <path d="M0.049,-0.144L0.07,-0.144L0.075,-0.139C0.075,-0.112 0.077,-0.088 0.08,-0.069C0.09,-0.054 0.107,-0.041 0.132,-0.031C0.157,-0.022 0.181,-0.017 0.205,-0.017C0.24,-0.017 0.267,-0.026 0.288,-0.045C0.309,-0.063 0.319,-0.086 0.319,-0.111C0.319,-0.125 0.315,-0.137 0.308,-0.148C0.3,-0.158 0.289,-0.166 0.274,-0.173C0.259,-0.18 0.231,-0.188 0.192,-0.197C0.159,-0.205 0.135,-0.211 0.122,-0.215C0.109,-0.219 0.096,-0.227 0.083,-0.237C0.071,-0.248 0.062,-0.26 0.055,-0.276C0.049,-0.291 0.045,-0.307 0.045,-0.326C0.045,-0.369 0.063,-0.404 0.097,-0.43C0.132,-0.457 0.175,-0.47 0.227,-0.47C0.249,-0.47 0.273,-0.467 0.298,-0.461C0.324,-0.455 0.344,-0.449 0.357,-0.443L0.361,-0.437C0.359,-0.424 0.357,-0.389 0.356,-0.334L0.352,-0.33L0.333,-0.33L0.328,-0.334C0.327,-0.354 0.325,-0.368 0.323,-0.376C0.32,-0.384 0.315,-0.392 0.305,-0.402C0.296,-0.411 0.282,-0.419 0.265,-0.425C0.248,-0.431 0.23,-0.435 0.21,-0.435C0.191,-0.435 0.174,-0.432 0.16,-0.426C0.147,-0.42 0.136,-0.411 0.128,-0.399C0.119,-0.387 0.115,-0.373 0.115,-0.356C0.115,-0.344 0.118,-0.333 0.123,-0.323C0.128,-0.313 0.136,-0.305 0.146,-0.299C0.156,-0.293 0.167,-0.289 0.179,-0.286L0.232,-0.272C0.278,-0.261 0.31,-0.252 0.33,-0.244C0.35,-0.236 0.365,-0.223 0.375,-0.207C0.386,-0.19 0.392,-0.17 0.392,-0.147C0.392,-0.102 0.373,-0.063 0.336,-0.031C0.299,0.001 0.251,0.017 0.193,0.017C0.172,0.017 0.147,0.015 0.116,0.01C0.086,0.006 0.06,0.001 0.039,-0.005L0.036,-0.011L0.041,-0.044C0.043,-0.054 0.044,-0.064 0.044,-0.074C0.044,-0.085 0.045,-0.106 0.045,-0.139L0.049,-0.144Z" style="fill:rgb(35,31,32);fill-rule:nonzero;"/>
            </g>
            <g transform="matrix(37.5,0,0,37.5,465.208,544.716)">
                <path d="M0.141,-0.684C0.156,-0.684 0.169,-0.678 0.18,-0.667C0.19,-0.657 0.196,-0.644 0.196,-0.628C0.196,-0.613 0.19,-0.601 0.18,-0.59C0.169,-0.579 0.156,-0.574 0.141,-0.574C0.126,-0.574 0.113,-0.579 0.102,-0.59C0.091,-0.6 0.085,-0.613 0.085,-0.628C0.085,-0.644 0.091,-0.657 0.102,-0.667C0.113,-0.678 0.126,-0.684 0.141,-0.684ZM0.182,-0.465L0.191,-0.459C0.188,-0.416 0.186,-0.362 0.186,-0.296L0.186,-0.186C0.186,-0.179 0.187,-0.156 0.188,-0.117C0.189,-0.078 0.191,-0.055 0.192,-0.049C0.194,-0.042 0.196,-0.038 0.199,-0.035C0.202,-0.032 0.205,-0.03 0.209,-0.029C0.214,-0.028 0.231,-0.027 0.262,-0.025L0.267,-0.021L0.267,-0L0.263,0.004C0.222,0.001 0.183,-0 0.145,-0C0.108,-0 0.069,0.001 0.028,0.004L0.023,-0L0.023,-0.021L0.028,-0.025C0.059,-0.027 0.077,-0.028 0.081,-0.029C0.085,-0.03 0.089,-0.032 0.092,-0.035C0.095,-0.038 0.097,-0.043 0.098,-0.05C0.1,-0.056 0.101,-0.077 0.102,-0.113C0.104,-0.148 0.104,-0.175 0.104,-0.193L0.104,-0.29C0.104,-0.303 0.104,-0.32 0.103,-0.343C0.101,-0.365 0.1,-0.379 0.099,-0.384C0.099,-0.389 0.096,-0.393 0.092,-0.396C0.088,-0.398 0.079,-0.399 0.066,-0.399L0.025,-0.4L0.021,-0.404L0.021,-0.425L0.025,-0.429C0.087,-0.436 0.139,-0.448 0.182,-0.465Z" style="fill:rgb(35,31,32);fill-rule:nonzero;"/>
            </g>
            <g transform="matrix(37.5,0,0,37.5,476.121,544.716)">
                <path d="M0.022,-0.383L0.022,-0.396L0.026,-0.401C0.056,-0.412 0.081,-0.423 0.1,-0.433C0.1,-0.518 0.099,-0.567 0.097,-0.581C0.131,-0.593 0.158,-0.605 0.18,-0.619L0.191,-0.609C0.188,-0.588 0.184,-0.529 0.18,-0.43C0.196,-0.43 0.214,-0.43 0.232,-0.43C0.271,-0.43 0.298,-0.431 0.315,-0.433L0.318,-0.429L0.309,-0.388L0.305,-0.384C0.289,-0.384 0.27,-0.384 0.25,-0.384C0.232,-0.384 0.208,-0.384 0.18,-0.384L0.177,-0.185C0.177,-0.139 0.178,-0.109 0.18,-0.095C0.182,-0.081 0.188,-0.07 0.198,-0.062C0.207,-0.054 0.221,-0.05 0.24,-0.05C0.262,-0.05 0.282,-0.056 0.301,-0.067L0.313,-0.049C0.305,-0.044 0.286,-0.028 0.256,-0C0.239,0.007 0.222,0.011 0.205,0.011C0.131,0.011 0.095,-0.024 0.095,-0.095C0.095,-0.121 0.095,-0.143 0.097,-0.162C0.097,-0.167 0.097,-0.173 0.097,-0.179L0.097,-0.381L0.077,-0.381C0.063,-0.381 0.046,-0.381 0.027,-0.379L0.022,-0.383Z" style="fill:rgb(35,31,32);fill-rule:nonzero;"/>
            </g>
            <g transform="matrix(37.5,0,0,37.5,488.352,544.716)">
                <path d="M0.141,-0.684C0.156,-0.684 0.169,-0.678 0.18,-0.667C0.19,-0.657 0.196,-0.644 0.196,-0.628C0.196,-0.613 0.19,-0.601 0.18,-0.59C0.169,-0.579 0.156,-0.574 0.141,-0.574C0.126,-0.574 0.113,-0.579 0.102,-0.59C0.091,-0.6 0.085,-0.613 0.085,-0.628C0.085,-0.644 0.091,-0.657 0.102,-0.667C0.113,-0.678 0.126,-0.684 0.141,-0.684ZM0.182,-0.465L0.191,-0.459C0.188,-0.416 0.186,-0.362 0.186,-0.296L0.186,-0.186C0.186,-0.179 0.187,-0.156 0.188,-0.117C0.189,-0.078 0.191,-0.055 0.192,-0.049C0.194,-0.042 0.196,-0.038 0.199,-0.035C0.202,-0.032 0.205,-0.03 0.209,-0.029C0.214,-0.028 0.231,-0.027 0.262,-0.025L0.267,-0.021L0.267,-0L0.263,0.004C0.222,0.001 0.183,-0 0.145,-0C0.108,-0 0.069,0.001 0.028,0.004L0.023,-0L0.023,-0.021L0.028,-0.025C0.059,-0.027 0.077,-0.028 0.081,-0.029C0.085,-0.03 0.089,-0.032 0.092,-0.035C0.095,-0.038 0.097,-0.043 0.098,-0.05C0.1,-0.056 0.101,-0.077 0.102,-0.113C0.104,-0.148 0.104,-0.175 0.104,-0.193L0.104,-0.29C0.104,-0.303 0.104,-0.32 0.103,-0.343C0.101,-0.365 0.1,-0.379 0.099,-0.384C0.099,-0.389 0.096,-0.393 0.092,-0.396C0.088,-0.398 0.079,-0.399 0.066,-0.399L0.025,-0.4L0.021,-0.404L0.021,-0.425L0.025,-0.429C0.087,-0.436 0.139,-0.448 0.182,-0.465Z" style="fill:rgb(35,31,32);fill-rule:nonzero;"/>
            </g>
            <g transform="matrix(37.5,0,0,37.5,499.265,544.716)">
                <path d="M0.033,-0.224C0.033,-0.262 0.041,-0.3 0.057,-0.336C0.073,-0.372 0.101,-0.403 0.14,-0.429C0.18,-0.455 0.227,-0.468 0.281,-0.468C0.35,-0.468 0.405,-0.447 0.448,-0.404C0.491,-0.36 0.513,-0.305 0.513,-0.237C0.513,-0.163 0.488,-0.101 0.439,-0.053C0.389,-0.005 0.33,0.019 0.26,0.019C0.215,0.019 0.174,0.007 0.138,-0.018C0.102,-0.042 0.076,-0.072 0.059,-0.108C0.042,-0.143 0.033,-0.182 0.033,-0.224ZM0.125,-0.257C0.125,-0.212 0.131,-0.171 0.143,-0.135C0.155,-0.099 0.173,-0.07 0.199,-0.048C0.224,-0.027 0.253,-0.016 0.286,-0.016C0.324,-0.016 0.356,-0.031 0.381,-0.061C0.406,-0.092 0.418,-0.138 0.418,-0.199C0.418,-0.268 0.405,-0.325 0.378,-0.369C0.351,-0.413 0.311,-0.436 0.26,-0.436C0.218,-0.436 0.185,-0.42 0.161,-0.39C0.137,-0.359 0.125,-0.315 0.125,-0.257Z" style="fill:rgb(35,31,32);fill-rule:nonzero;"/>
            </g>
            <g transform="matrix(37.5,0,0,37.5,519.737,544.716)">
                <path d="M0.167,-0.465L0.176,-0.459C0.174,-0.437 0.173,-0.409 0.172,-0.373C0.198,-0.395 0.223,-0.416 0.247,-0.438C0.253,-0.445 0.26,-0.449 0.266,-0.452C0.272,-0.455 0.282,-0.458 0.296,-0.461C0.31,-0.465 0.324,-0.466 0.339,-0.466C0.364,-0.466 0.388,-0.461 0.411,-0.451C0.434,-0.441 0.452,-0.429 0.464,-0.415C0.476,-0.401 0.484,-0.385 0.488,-0.366C0.493,-0.347 0.495,-0.324 0.495,-0.296L0.495,-0.21C0.495,-0.205 0.496,-0.164 0.498,-0.089C0.498,-0.058 0.502,-0.04 0.508,-0.034C0.514,-0.028 0.534,-0.025 0.568,-0.025L0.572,-0.021L0.572,-0L0.568,0.004C0.527,0.001 0.499,-0 0.484,-0C0.476,-0 0.452,0.001 0.413,0.004L0.407,-0.001C0.411,-0.044 0.414,-0.099 0.414,-0.167L0.414,-0.231C0.414,-0.269 0.413,-0.297 0.411,-0.314C0.409,-0.331 0.404,-0.346 0.395,-0.36C0.385,-0.374 0.373,-0.385 0.358,-0.392C0.343,-0.4 0.324,-0.404 0.303,-0.404C0.286,-0.404 0.272,-0.402 0.26,-0.399C0.248,-0.395 0.234,-0.388 0.219,-0.378C0.204,-0.367 0.193,-0.357 0.186,-0.348C0.179,-0.339 0.175,-0.33 0.173,-0.322C0.172,-0.314 0.171,-0.297 0.171,-0.271L0.171,-0.186C0.171,-0.179 0.172,-0.156 0.173,-0.117C0.174,-0.078 0.176,-0.055 0.177,-0.049C0.178,-0.042 0.181,-0.038 0.184,-0.035C0.187,-0.032 0.19,-0.03 0.194,-0.029C0.199,-0.028 0.216,-0.027 0.247,-0.025L0.251,-0.021L0.251,-0L0.248,0.004C0.207,0.001 0.168,-0 0.13,-0C0.092,-0 0.053,0.001 0.013,0.004L0.008,-0L0.008,-0.021L0.013,-0.025C0.044,-0.027 0.062,-0.028 0.066,-0.029C0.07,-0.03 0.074,-0.032 0.077,-0.035C0.08,-0.038 0.082,-0.043 0.083,-0.05C0.084,-0.056 0.086,-0.077 0.087,-0.113C0.089,-0.148 0.089,-0.175 0.089,-0.193L0.089,-0.29C0.089,-0.303 0.089,-0.32 0.087,-0.343C0.086,-0.365 0.085,-0.379 0.084,-0.384C0.083,-0.389 0.081,-0.393 0.077,-0.396C0.072,-0.398 0.064,-0.399 0.051,-0.399L0.01,-0.4L0.006,-0.404L0.006,-0.425L0.01,-0.429C0.072,-0.436 0.124,-0.448 0.167,-0.465Z" style="fill:rgb(35,31,32);fill-rule:nonzero;"/>
            </g>
            <g transform="matrix(37.5,0,0,37.5,180.625,594.704)">
                <path d="M0.033,-0.224C0.033,-0.262 0.041,-0.3 0.057,-0.336C0.073,-0.372 0.101,-0.403 0.14,-0.429C0.18,-0.455 0.227,-0.468 0.281,-0.468C0.35,-0.468 0.405,-0.447 0.448,-0.404C0.491,-0.36 0.513,-0.305 0.513,-0.237C0.513,-0.163 0.488,-0.101 0.439,-0.053C0.389,-0.005 0.33,0.019 0.26,0.019C0.215,0.019 0.174,0.007 0.138,-0.018C0.102,-0.042 0.076,-0.072 0.059,-0.108C0.042,-0.143 0.033,-0.182 0.033,-0.224ZM0.125,-0.257C0.125,-0.212 0.131,-0.171 0.143,-0.135C0.155,-0.099 0.173,-0.07 0.199,-0.048C0.224,-0.027 0.253,-0.016 0.286,-0.016C0.324,-0.016 0.356,-0.031 0.381,-0.061C0.406,-0.092 0.418,-0.138 0.418,-0.199C0.418,-0.268 0.405,-0.325 0.378,-0.369C0.351,-0.413 0.311,-0.436 0.26,-0.436C0.218,-0.436 0.185,-0.42 0.161,-0.39C0.137,-0.359 0.125,-0.315 0.125,-0.257Z" style="fill:rgb(35,31,32);fill-rule:nonzero;"/>
            </g>
            <g transform="matrix(37.5,0,0,37.5,201.097,594.704)">
                <path d="M0.281,-0.025L0.285,-0.021L0.285,-0L0.281,0.004C0.271,0.004 0.252,0.003 0.224,0.002C0.199,0.001 0.173,-0 0.146,-0C0.11,-0 0.071,0.001 0.028,0.004L0.024,-0L0.024,-0.021L0.028,-0.025C0.059,-0.027 0.077,-0.028 0.082,-0.029C0.086,-0.03 0.089,-0.032 0.092,-0.035C0.095,-0.038 0.097,-0.043 0.098,-0.05C0.1,-0.056 0.101,-0.077 0.102,-0.113C0.104,-0.148 0.104,-0.175 0.104,-0.193L0.104,-0.382L0.042,-0.378L0.037,-0.382L0.037,-0.395L0.041,-0.399L0.104,-0.432L0.104,-0.461C0.104,-0.494 0.106,-0.519 0.109,-0.535C0.112,-0.552 0.117,-0.568 0.125,-0.582C0.133,-0.596 0.147,-0.614 0.167,-0.635C0.187,-0.657 0.204,-0.675 0.219,-0.689C0.234,-0.703 0.247,-0.712 0.258,-0.717C0.269,-0.721 0.282,-0.724 0.297,-0.724C0.31,-0.724 0.323,-0.721 0.337,-0.716L0.337,-0.636L0.326,-0.632C0.307,-0.648 0.286,-0.656 0.262,-0.656C0.245,-0.656 0.231,-0.653 0.218,-0.646C0.206,-0.639 0.197,-0.627 0.193,-0.612C0.188,-0.596 0.186,-0.57 0.186,-0.533L0.186,-0.432L0.238,-0.432C0.265,-0.432 0.291,-0.433 0.315,-0.435L0.319,-0.43L0.311,-0.387L0.306,-0.382C0.296,-0.382 0.29,-0.382 0.287,-0.382L0.224,-0.383L0.186,-0.383L0.186,-0.186C0.186,-0.176 0.187,-0.152 0.188,-0.115C0.19,-0.077 0.191,-0.055 0.192,-0.049C0.194,-0.042 0.196,-0.038 0.199,-0.035C0.202,-0.032 0.207,-0.03 0.214,-0.028C0.221,-0.027 0.243,-0.026 0.281,-0.025Z" style="fill:rgb(35,31,32);fill-rule:nonzero;"/>
            </g>
            <g transform="matrix(37.5,0,0,37.5,222.959,594.704)">
                <path d="M0.141,-0.684C0.156,-0.684 0.169,-0.678 0.18,-0.667C0.19,-0.657 0.196,-0.644 0.196,-0.628C0.196,-0.613 0.19,-0.601 0.18,-0.59C0.169,-0.579 0.156,-0.574 0.141,-0.574C0.126,-0.574 0.113,-0.579 0.102,-0.59C0.091,-0.6 0.085,-0.613 0.085,-0.628C0.085,-0.644 0.091,-0.657 0.102,-0.667C0.113,-0.678 0.126,-0.684 0.141,-0.684ZM0.182,-0.465L0.191,-0.459C0.188,-0.416 0.186,-0.362 0.186,-0.296L0.186,-0.186C0.186,-0.179 0.187,-0.156 0.188,-0.117C0.189,-0.078 0.191,-0.055 0.192,-0.049C0.194,-0.042 0.196,-0.038 0.199,-0.035C0.202,-0.032 0.205,-0.03 0.209,-0.029C0.214,-0.028 0.231,-0.027 0.262,-0.025L0.267,-0.021L0.267,-0L0.263,0.004C0.222,0.001 0.183,-0 0.145,-0C0.108,-0 0.069,0.001 0.028,0.004L0.023,-0L0.023,-0.021L0.028,-0.025C0.059,-0.027 0.077,-0.028 0.081,-0.029C0.085,-0.03 0.089,-0.032 0.092,-0.035C0.095,-0.038 0.097,-0.043 0.098,-0.05C0.1,-0.056 0.101,-0.077 0.102,-0.113C0.104,-0.148 0.104,-0.175 0.104,-0.193L0.104,-0.29C0.104,-0.303 0.104,-0.32 0.103,-0.343C0.101,-0.365 0.1,-0.379 0.099,-0.384C0.099,-0.389 0.096,-0.393 0.092,-0.396C0.088,-0.398 0.079,-0.399 0.066,-0.399L0.025,-0.4L0.021,-0.404L0.021,-0.425L0.025,-0.429C0.087,-0.436 0.139,-0.448 0.182,-0.465Z" style="fill:rgb(35,31,32);fill-rule:nonzero;"/>
            </g>
            <g transform="matrix(37.5,0,0,37.5,233.872,594.704)">
                <path d="M0.167,-0.465L0.176,-0.459C0.174,-0.437 0.173,-0.409 0.172,-0.373C0.198,-0.395 0.223,-0.416 0.247,-0.438C0.253,-0.445 0.26,-0.449 0.266,-0.452C0.272,-0.455 0.282,-0.458 0.296,-0.461C0.31,-0.465 0.324,-0.466 0.339,-0.466C0.364,-0.466 0.388,-0.461 0.411,-0.451C0.434,-0.441 0.452,-0.429 0.464,-0.415C0.476,-0.401 0.484,-0.385 0.488,-0.366C0.493,-0.347 0.495,-0.324 0.495,-0.296L0.495,-0.21C0.495,-0.205 0.496,-0.164 0.498,-0.089C0.498,-0.058 0.502,-0.04 0.508,-0.034C0.514,-0.028 0.534,-0.025 0.568,-0.025L0.572,-0.021L0.572,-0L0.568,0.004C0.527,0.001 0.499,-0 0.484,-0C0.476,-0 0.452,0.001 0.413,0.004L0.407,-0.001C0.411,-0.044 0.414,-0.099 0.414,-0.167L0.414,-0.231C0.414,-0.269 0.413,-0.297 0.411,-0.314C0.409,-0.331 0.404,-0.346 0.395,-0.36C0.385,-0.374 0.373,-0.385 0.358,-0.392C0.343,-0.4 0.324,-0.404 0.303,-0.404C0.286,-0.404 0.272,-0.402 0.26,-0.399C0.248,-0.395 0.234,-0.388 0.219,-0.378C0.204,-0.367 0.193,-0.357 0.186,-0.348C0.179,-0.339 0.175,-0.33 0.173,-0.322C0.172,-0.314 0.171,-0.297 0.171,-0.271L0.171,-0.186C0.171,-0.179 0.172,-0.156 0.173,-0.117C0.174,-0.078 0.176,-0.055 0.177,-0.049C0.178,-0.042 0.181,-0.038 0.184,-0.035C0.187,-0.032 0.19,-0.03 0.194,-0.029C0.199,-0.028 0.216,-0.027 0.247,-0.025L0.251,-0.021L0.251,-0L0.248,0.004C0.207,0.001 0.168,-0 0.13,-0C0.092,-0 0.053,0.001 0.013,0.004L0.008,-0L0.008,-0.021L0.013,-0.025C0.044,-0.027 0.062,-0.028 0.066,-0.029C0.07,-0.03 0.074,-0.032 0.077,-0.035C0.08,-0.038 0.082,-0.043 0.083,-0.05C0.084,-0.056 0.086,-0.077 0.087,-0.113C0.089,-0.148 0.089,-0.175 0.089,-0.193L0.089,-0.29C0.089,-0.303 0.089,-0.32 0.087,-0.343C0.086,-0.365 0.085,-0.379 0.084,-0.384C0.083,-0.389 0.081,-0.393 0.077,-0.396C0.072,-0.398 0.064,-0.399 0.051,-0.399L0.01,-0.4L0.006,-0.404L0.006,-0.425L0.01,-0.429C0.072,-0.436 0.124,-0.448 0.167,-0.465Z" style="fill:rgb(35,31,32);fill-rule:nonzero;"/>
            </g>
            <g transform="matrix(37.5,0,0,37.5,255.699,594.704)">
                <path d="M0.329,-0.662L0.329,-0.683L0.333,-0.687C0.395,-0.694 0.447,-0.706 0.49,-0.723L0.499,-0.717C0.495,-0.68 0.494,-0.605 0.494,-0.492L0.494,-0.172C0.494,-0.139 0.494,-0.111 0.495,-0.086C0.497,-0.062 0.499,-0.047 0.501,-0.042C0.504,-0.038 0.509,-0.034 0.516,-0.031C0.523,-0.028 0.542,-0.026 0.573,-0.023L0.577,-0.019L0.577,-0L0.573,0.004C0.538,0.002 0.51,0 0.491,0C0.473,0 0.448,0.002 0.416,0.004L0.41,-0.001C0.411,-0.033 0.412,-0.056 0.412,-0.068C0.412,-0.07 0.412,-0.076 0.412,-0.087C0.394,-0.074 0.376,-0.059 0.358,-0.043C0.332,-0.02 0.315,-0.005 0.307,0C0.292,0.008 0.27,0.012 0.243,0.012C0.198,0.012 0.16,0.001 0.128,-0.021C0.097,-0.044 0.074,-0.072 0.061,-0.106C0.048,-0.141 0.041,-0.176 0.041,-0.212C0.041,-0.249 0.048,-0.284 0.062,-0.318C0.076,-0.352 0.095,-0.377 0.121,-0.393C0.146,-0.408 0.174,-0.424 0.204,-0.441C0.234,-0.458 0.264,-0.466 0.294,-0.466C0.335,-0.466 0.375,-0.456 0.412,-0.436L0.41,-0.544C0.41,-0.582 0.409,-0.608 0.407,-0.623C0.406,-0.638 0.404,-0.647 0.402,-0.65C0.4,-0.652 0.397,-0.654 0.392,-0.656C0.388,-0.657 0.368,-0.658 0.333,-0.658L0.329,-0.662ZM0.412,-0.352C0.392,-0.375 0.37,-0.392 0.345,-0.404C0.32,-0.416 0.296,-0.422 0.271,-0.422C0.244,-0.422 0.218,-0.415 0.195,-0.4C0.171,-0.385 0.154,-0.363 0.144,-0.334C0.133,-0.305 0.128,-0.273 0.128,-0.239C0.128,-0.182 0.142,-0.137 0.171,-0.102C0.2,-0.068 0.236,-0.05 0.28,-0.05C0.304,-0.05 0.325,-0.056 0.343,-0.067C0.361,-0.078 0.377,-0.092 0.388,-0.111C0.4,-0.129 0.407,-0.148 0.409,-0.167C0.411,-0.185 0.412,-0.219 0.412,-0.269L0.412,-0.352Z" style="fill:rgb(35,31,32);fill-rule:nonzero;"/>
            </g>
            <g transform="matrix(37.5,0,0,37.5,278.605,594.704)">
                <path d="M0.141,-0.684C0.156,-0.684 0.169,-0.678 0.18,-0.667C0.19,-0.657 0.196,-0.644 0.196,-0.628C0.196,-0.613 0.19,-0.601 0.18,-0.59C0.169,-0.579 0.156,-0.574 0.141,-0.574C0.126,-0.574 0.113,-0.579 0.102,-0.59C0.091,-0.6 0.085,-0.613 0.085,-0.628C0.085,-0.644 0.091,-0.657 0.102,-0.667C0.113,-0.678 0.126,-0.684 0.141,-0.684ZM0.182,-0.465L0.191,-0.459C0.188,-0.416 0.186,-0.362 0.186,-0.296L0.186,-0.186C0.186,-0.179 0.187,-0.156 0.188,-0.117C0.189,-0.078 0.191,-0.055 0.192,-0.049C0.194,-0.042 0.196,-0.038 0.199,-0.035C0.202,-0.032 0.205,-0.03 0.209,-0.029C0.214,-0.028 0.231,-0.027 0.262,-0.025L0.267,-0.021L0.267,-0L0.263,0.004C0.222,0.001 0.183,-0 0.145,-0C0.108,-0 0.069,0.001 0.028,0.004L0.023,-0L0.023,-0.021L0.028,-0.025C0.059,-0.027 0.077,-0.028 0.081,-0.029C0.085,-0.03 0.089,-0.032 0.092,-0.035C0.095,-0.038 0.097,-0.043 0.098,-0.05C0.1,-0.056 0.101,-0.077 0.102,-0.113C0.104,-0.148 0.104,-0.175 0.104,-0.193L0.104,-0.29C0.104,-0.303 0.104,-0.32 0.103,-0.343C0.101,-0.365 0.1,-0.379 0.099,-0.384C0.099,-0.389 0.096,-0.393 0.092,-0.396C0.088,-0.398 0.079,-0.399 0.066,-0.399L0.025,-0.4L0.021,-0.404L0.021,-0.425L0.025,-0.429C0.087,-0.436 0.139,-0.448 0.182,-0.465Z" style="fill:rgb(35,31,32);fill-rule:nonzero;"/>
            </g>
            <g transform="matrix(37.5,0,0,37.5,289.518,594.704)">
                <path d="M0.249,0.009L0.219,-0.068L0.183,-0.151L0.083,-0.384C0.076,-0.4 0.07,-0.41 0.065,-0.415C0.06,-0.419 0.055,-0.422 0.05,-0.423C0.045,-0.424 0.034,-0.425 0.019,-0.426L0.015,-0.43L0.015,-0.451L0.019,-0.455C0.065,-0.453 0.101,-0.452 0.127,-0.452C0.165,-0.452 0.203,-0.453 0.241,-0.455L0.245,-0.451L0.245,-0.43L0.241,-0.426C0.207,-0.425 0.188,-0.422 0.182,-0.419C0.177,-0.415 0.174,-0.41 0.174,-0.404C0.174,-0.395 0.18,-0.374 0.193,-0.341L0.253,-0.193L0.3,-0.082L0.349,-0.193L0.389,-0.293C0.405,-0.332 0.415,-0.359 0.419,-0.375C0.424,-0.39 0.426,-0.401 0.426,-0.406C0.426,-0.412 0.423,-0.417 0.416,-0.42C0.408,-0.422 0.39,-0.424 0.361,-0.426L0.357,-0.43L0.357,-0.451L0.362,-0.455C0.402,-0.453 0.432,-0.452 0.453,-0.452C0.47,-0.452 0.499,-0.453 0.54,-0.455L0.544,-0.451L0.544,-0.43L0.54,-0.426C0.521,-0.424 0.508,-0.421 0.502,-0.417C0.495,-0.414 0.489,-0.406 0.483,-0.395C0.477,-0.384 0.46,-0.349 0.431,-0.29L0.384,-0.19C0.376,-0.173 0.348,-0.107 0.3,0.009L0.249,0.009Z" style="fill:rgb(35,31,32);fill-rule:nonzero;"/>
            </g>
            <g transform="matrix(37.5,0,0,37.5,310.703,594.704)">
                <path d="M0.141,-0.684C0.156,-0.684 0.169,-0.678 0.18,-0.667C0.19,-0.657 0.196,-0.644 0.196,-0.628C0.196,-0.613 0.19,-0.601 0.18,-0.59C0.169,-0.579 0.156,-0.574 0.141,-0.574C0.126,-0.574 0.113,-0.579 0.102,-0.59C0.091,-0.6 0.085,-0.613 0.085,-0.628C0.085,-0.644 0.091,-0.657 0.102,-0.667C0.113,-0.678 0.126,-0.684 0.141,-0.684ZM0.182,-0.465L0.191,-0.459C0.188,-0.416 0.186,-0.362 0.186,-0.296L0.186,-0.186C0.186,-0.179 0.187,-0.156 0.188,-0.117C0.189,-0.078 0.191,-0.055 0.192,-0.049C0.194,-0.042 0.196,-0.038 0.199,-0.035C0.202,-0.032 0.205,-0.03 0.209,-0.029C0.214,-0.028 0.231,-0.027 0.262,-0.025L0.267,-0.021L0.267,-0L0.263,0.004C0.222,0.001 0.183,-0 0.145,-0C0.108,-0 0.069,0.001 0.028,0.004L0.023,-0L0.023,-0.021L0.028,-0.025C0.059,-0.027 0.077,-0.028 0.081,-0.029C0.085,-0.03 0.089,-0.032 0.092,-0.035C0.095,-0.038 0.097,-0.043 0.098,-0.05C0.1,-0.056 0.101,-0.077 0.102,-0.113C0.104,-0.148 0.104,-0.175 0.104,-0.193L0.104,-0.29C0.104,-0.303 0.104,-0.32 0.103,-0.343C0.101,-0.365 0.1,-0.379 0.099,-0.384C0.099,-0.389 0.096,-0.393 0.092,-0.396C0.088,-0.398 0.079,-0.399 0.066,-0.399L0.025,-0.4L0.021,-0.404L0.021,-0.425L0.025,-0.429C0.087,-0.436 0.139,-0.448 0.182,-0.465Z" style="fill:rgb(35,31,32);fill-rule:nonzero;"/>
            </g>
            <g transform="matrix(37.5,0,0,37.5,321.617,594.704)">
                <path d="M0.329,-0.662L0.329,-0.683L0.333,-0.687C0.395,-0.694 0.447,-0.706 0.49,-0.723L0.499,-0.717C0.495,-0.68 0.494,-0.605 0.494,-0.492L0.494,-0.172C0.494,-0.139 0.494,-0.111 0.495,-0.086C0.497,-0.062 0.499,-0.047 0.501,-0.042C0.504,-0.038 0.509,-0.034 0.516,-0.031C0.523,-0.028 0.542,-0.026 0.573,-0.023L0.577,-0.019L0.577,-0L0.573,0.004C0.538,0.002 0.51,0 0.491,0C0.473,0 0.448,0.002 0.416,0.004L0.41,-0.001C0.411,-0.033 0.412,-0.056 0.412,-0.068C0.412,-0.07 0.412,-0.076 0.412,-0.087C0.394,-0.074 0.376,-0.059 0.358,-0.043C0.332,-0.02 0.315,-0.005 0.307,0C0.292,0.008 0.27,0.012 0.243,0.012C0.198,0.012 0.16,0.001 0.128,-0.021C0.097,-0.044 0.074,-0.072 0.061,-0.106C0.048,-0.141 0.041,-0.176 0.041,-0.212C0.041,-0.249 0.048,-0.284 0.062,-0.318C0.076,-0.352 0.095,-0.377 0.121,-0.393C0.146,-0.408 0.174,-0.424 0.204,-0.441C0.234,-0.458 0.264,-0.466 0.294,-0.466C0.335,-0.466 0.375,-0.456 0.412,-0.436L0.41,-0.544C0.41,-0.582 0.409,-0.608 0.407,-0.623C0.406,-0.638 0.404,-0.647 0.402,-0.65C0.4,-0.652 0.397,-0.654 0.392,-0.656C0.388,-0.657 0.368,-0.658 0.333,-0.658L0.329,-0.662ZM0.412,-0.352C0.392,-0.375 0.37,-0.392 0.345,-0.404C0.32,-0.416 0.296,-0.422 0.271,-0.422C0.244,-0.422 0.218,-0.415 0.195,-0.4C0.171,-0.385 0.154,-0.363 0.144,-0.334C0.133,-0.305 0.128,-0.273 0.128,-0.239C0.128,-0.182 0.142,-0.137 0.171,-0.102C0.2,-0.068 0.236,-0.05 0.28,-0.05C0.304,-0.05 0.325,-0.056 0.343,-0.067C0.361,-0.078 0.377,-0.092 0.388,-0.111C0.4,-0.129 0.407,-0.148 0.409,-0.167C0.411,-0.185 0.412,-0.219 0.412,-0.269L0.412,-0.352Z" style="fill:rgb(35,31,32);fill-rule:nonzero;"/>
            </g>
            <g transform="matrix(37.5,0,0,37.5,344.523,594.704)">
                <path d="M0.169,-0.465L0.178,-0.459C0.175,-0.416 0.173,-0.362 0.173,-0.296L0.173,-0.183C0.173,-0.141 0.176,-0.112 0.182,-0.096C0.189,-0.079 0.2,-0.067 0.215,-0.058C0.231,-0.05 0.25,-0.045 0.271,-0.045C0.295,-0.045 0.316,-0.05 0.336,-0.059C0.355,-0.069 0.372,-0.082 0.385,-0.099C0.398,-0.116 0.406,-0.127 0.408,-0.133C0.41,-0.139 0.411,-0.155 0.412,-0.182L0.413,-0.237L0.413,-0.29C0.413,-0.303 0.412,-0.32 0.411,-0.343C0.41,-0.365 0.409,-0.379 0.408,-0.384C0.407,-0.389 0.405,-0.393 0.4,-0.396C0.396,-0.398 0.388,-0.399 0.375,-0.399L0.334,-0.4L0.33,-0.404L0.33,-0.425L0.333,-0.429C0.396,-0.436 0.448,-0.448 0.491,-0.465L0.5,-0.459C0.496,-0.416 0.495,-0.362 0.495,-0.296L0.495,-0.21C0.495,-0.206 0.495,-0.166 0.497,-0.091C0.498,-0.063 0.499,-0.046 0.502,-0.04C0.505,-0.034 0.509,-0.03 0.514,-0.028C0.519,-0.025 0.533,-0.024 0.557,-0.024L0.571,-0.024L0.575,-0.02L0.575,-0L0.571,0.004C0.525,0.001 0.495,-0 0.479,-0C0.459,-0 0.436,0.001 0.41,0.003L0.406,-0C0.408,-0.034 0.409,-0.062 0.41,-0.085C0.39,-0.069 0.366,-0.048 0.34,-0.021C0.33,-0.011 0.315,-0.002 0.296,0.004C0.278,0.011 0.256,0.015 0.232,0.015C0.195,0.015 0.167,0.009 0.147,-0.003C0.126,-0.014 0.112,-0.03 0.104,-0.051C0.095,-0.071 0.091,-0.106 0.091,-0.156L0.091,-0.194L0.091,-0.29C0.091,-0.303 0.091,-0.32 0.089,-0.343C0.088,-0.365 0.087,-0.379 0.086,-0.384C0.085,-0.389 0.083,-0.393 0.079,-0.396C0.074,-0.398 0.066,-0.399 0.053,-0.399L0.012,-0.4L0.008,-0.404L0.008,-0.425L0.012,-0.429C0.074,-0.436 0.126,-0.448 0.169,-0.465Z" style="fill:rgb(35,31,32);fill-rule:nonzero;"/>
            </g>
            <g transform="matrix(37.5,0,0,37.5,367.137,594.704)">
                <path d="M0.104,-0.331L0.084,-0.336L0.081,-0.341L0.081,-0.401C0.139,-0.444 0.195,-0.466 0.25,-0.466C0.287,-0.466 0.318,-0.459 0.343,-0.445C0.368,-0.431 0.385,-0.413 0.396,-0.392C0.408,-0.371 0.413,-0.347 0.413,-0.319L0.411,-0.221L0.411,-0.075C0.411,-0.055 0.412,-0.043 0.415,-0.039C0.418,-0.035 0.421,-0.032 0.424,-0.031C0.428,-0.029 0.435,-0.028 0.444,-0.027L0.472,-0.024L0.476,-0.02L0.476,-0L0.472,0.003C0.448,0.001 0.426,0 0.406,0C0.386,0 0.363,0.001 0.335,0.003L0.328,-0.003L0.33,-0.082L0.224,0.001C0.206,0.008 0.186,0.012 0.165,0.012C0.139,0.012 0.117,0.007 0.098,-0.002C0.079,-0.011 0.065,-0.025 0.055,-0.042C0.045,-0.058 0.04,-0.079 0.04,-0.103C0.04,-0.151 0.055,-0.188 0.085,-0.215C0.115,-0.242 0.197,-0.265 0.33,-0.284C0.33,-0.332 0.319,-0.366 0.298,-0.385C0.276,-0.405 0.248,-0.415 0.211,-0.415C0.193,-0.415 0.175,-0.412 0.16,-0.407C0.144,-0.401 0.136,-0.397 0.133,-0.393C0.131,-0.39 0.122,-0.37 0.107,-0.333L0.104,-0.331ZM0.33,-0.254C0.239,-0.239 0.182,-0.222 0.16,-0.205C0.137,-0.187 0.126,-0.16 0.126,-0.123C0.126,-0.072 0.151,-0.047 0.202,-0.047C0.245,-0.047 0.288,-0.072 0.33,-0.122L0.33,-0.254Z" style="fill:rgb(35,31,32);fill-rule:nonzero;"/>
            </g>
            <g transform="matrix(37.5,0,0,37.5,385.887,594.704)">
                <path d="M0.183,-0.723L0.192,-0.717C0.188,-0.68 0.187,-0.605 0.187,-0.492L0.187,-0.186C0.187,-0.179 0.187,-0.156 0.188,-0.117C0.19,-0.078 0.191,-0.055 0.193,-0.049C0.194,-0.042 0.196,-0.038 0.199,-0.035C0.202,-0.032 0.206,-0.03 0.21,-0.029C0.214,-0.028 0.232,-0.027 0.263,-0.025L0.267,-0.021L0.267,-0L0.263,0.004C0.222,0.001 0.183,-0 0.146,-0C0.108,-0 0.069,0.001 0.028,0.004L0.024,-0L0.024,-0.021L0.028,-0.025C0.06,-0.027 0.078,-0.028 0.082,-0.029C0.086,-0.03 0.089,-0.032 0.093,-0.035C0.096,-0.038 0.098,-0.043 0.099,-0.05C0.1,-0.056 0.101,-0.077 0.103,-0.113C0.104,-0.148 0.105,-0.175 0.105,-0.193L0.105,-0.446L0.103,-0.55C0.102,-0.586 0.101,-0.611 0.1,-0.625C0.099,-0.639 0.097,-0.647 0.095,-0.65C0.093,-0.653 0.09,-0.654 0.085,-0.656C0.08,-0.657 0.06,-0.658 0.026,-0.658L0.021,-0.662L0.021,-0.683L0.025,-0.687C0.088,-0.694 0.14,-0.706 0.183,-0.723Z" style="fill:rgb(35,31,32);fill-rule:nonzero;"/>
            </g>
            <g transform="matrix(37.5,0,0,37.5,406.175,594.704)">
                <path d="M0.188,-0.465L0.197,-0.459C0.195,-0.44 0.193,-0.407 0.192,-0.358L0.229,-0.405C0.241,-0.42 0.252,-0.432 0.261,-0.44C0.27,-0.448 0.281,-0.455 0.293,-0.459C0.306,-0.464 0.319,-0.466 0.332,-0.466C0.346,-0.466 0.359,-0.463 0.372,-0.458L0.375,-0.451C0.37,-0.407 0.367,-0.369 0.367,-0.336L0.345,-0.336C0.332,-0.366 0.311,-0.381 0.282,-0.381C0.262,-0.381 0.244,-0.375 0.229,-0.362C0.214,-0.349 0.204,-0.333 0.199,-0.314C0.194,-0.294 0.191,-0.27 0.191,-0.24L0.191,-0.186C0.191,-0.176 0.192,-0.152 0.193,-0.114C0.195,-0.076 0.196,-0.054 0.198,-0.048C0.199,-0.042 0.201,-0.038 0.204,-0.035C0.207,-0.033 0.212,-0.031 0.217,-0.03C0.222,-0.029 0.245,-0.027 0.286,-0.025L0.291,-0.021L0.291,-0L0.286,0.004C0.243,0.001 0.198,-0 0.15,-0C0.113,-0 0.074,0.001 0.033,0.004L0.029,-0L0.029,-0.021L0.033,-0.025C0.065,-0.027 0.083,-0.028 0.087,-0.029C0.091,-0.03 0.094,-0.032 0.097,-0.035C0.101,-0.038 0.103,-0.043 0.104,-0.05C0.105,-0.056 0.106,-0.077 0.108,-0.113C0.109,-0.148 0.11,-0.175 0.11,-0.193L0.11,-0.29C0.11,-0.303 0.109,-0.32 0.108,-0.343C0.107,-0.365 0.106,-0.379 0.105,-0.384C0.104,-0.389 0.101,-0.393 0.097,-0.396C0.093,-0.398 0.084,-0.399 0.072,-0.399L0.031,-0.4L0.026,-0.404L0.026,-0.425L0.03,-0.429C0.092,-0.436 0.145,-0.448 0.188,-0.465Z" style="fill:rgb(35,31,32);fill-rule:nonzero;"/>
            </g>
            <g transform="matrix(37.5,0,0,37.5,420.988,594.704)">
                <path d="M0.432,-0.072L0.416,-0.037C0.382,-0.015 0.352,-0.001 0.325,0.006C0.299,0.012 0.275,0.016 0.254,0.016C0.215,0.016 0.178,0.008 0.143,-0.007C0.108,-0.023 0.08,-0.049 0.058,-0.085C0.036,-0.121 0.025,-0.165 0.025,-0.217C0.025,-0.251 0.029,-0.282 0.038,-0.309C0.046,-0.337 0.055,-0.357 0.064,-0.371C0.073,-0.384 0.089,-0.399 0.111,-0.415C0.133,-0.431 0.157,-0.444 0.182,-0.454C0.206,-0.464 0.233,-0.469 0.262,-0.469C0.301,-0.469 0.335,-0.46 0.365,-0.441C0.395,-0.423 0.416,-0.399 0.428,-0.371C0.44,-0.342 0.446,-0.312 0.446,-0.279C0.446,-0.269 0.445,-0.259 0.444,-0.25L0.439,-0.245C0.417,-0.24 0.387,-0.236 0.35,-0.235C0.312,-0.233 0.287,-0.232 0.275,-0.232L0.119,-0.232C0.119,-0.165 0.136,-0.115 0.169,-0.083C0.203,-0.052 0.243,-0.036 0.292,-0.036C0.314,-0.036 0.336,-0.04 0.357,-0.047C0.378,-0.055 0.4,-0.066 0.424,-0.08L0.432,-0.072ZM0.119,-0.271C0.125,-0.271 0.147,-0.269 0.186,-0.268C0.226,-0.267 0.255,-0.266 0.273,-0.266C0.319,-0.266 0.346,-0.267 0.356,-0.269C0.356,-0.276 0.356,-0.282 0.356,-0.287C0.356,-0.337 0.346,-0.375 0.326,-0.399C0.305,-0.424 0.277,-0.436 0.242,-0.436C0.203,-0.436 0.173,-0.422 0.151,-0.395C0.129,-0.367 0.119,-0.326 0.119,-0.271Z" style="fill:rgb(35,31,32);fill-rule:nonzero;"/>
            </g>
            <g transform="matrix(37.5,0,0,37.5,438.951,594.704)">
                <path d="M0.049,-0.144L0.07,-0.144L0.075,-0.139C0.075,-0.112 0.077,-0.088 0.08,-0.069C0.09,-0.054 0.107,-0.041 0.132,-0.031C0.157,-0.022 0.181,-0.017 0.205,-0.017C0.24,-0.017 0.267,-0.026 0.288,-0.045C0.309,-0.063 0.319,-0.086 0.319,-0.111C0.319,-0.125 0.315,-0.137 0.308,-0.148C0.3,-0.158 0.289,-0.166 0.274,-0.173C0.259,-0.18 0.231,-0.188 0.192,-0.197C0.159,-0.205 0.135,-0.211 0.122,-0.215C0.109,-0.219 0.096,-0.227 0.083,-0.237C0.071,-0.248 0.062,-0.26 0.055,-0.276C0.049,-0.291 0.045,-0.307 0.045,-0.326C0.045,-0.369 0.063,-0.404 0.097,-0.43C0.132,-0.457 0.175,-0.47 0.227,-0.47C0.249,-0.47 0.273,-0.467 0.298,-0.461C0.324,-0.455 0.344,-0.449 0.357,-0.443L0.361,-0.437C0.359,-0.424 0.357,-0.389 0.356,-0.334L0.352,-0.33L0.333,-0.33L0.328,-0.334C0.327,-0.354 0.325,-0.368 0.323,-0.376C0.32,-0.384 0.315,-0.392 0.305,-0.402C0.296,-0.411 0.282,-0.419 0.265,-0.425C0.248,-0.431 0.23,-0.435 0.21,-0.435C0.191,-0.435 0.174,-0.432 0.16,-0.426C0.147,-0.42 0.136,-0.411 0.128,-0.399C0.119,-0.387 0.115,-0.373 0.115,-0.356C0.115,-0.344 0.118,-0.333 0.123,-0.323C0.128,-0.313 0.136,-0.305 0.146,-0.299C0.156,-0.293 0.167,-0.289 0.179,-0.286L0.232,-0.272C0.278,-0.261 0.31,-0.252 0.33,-0.244C0.35,-0.236 0.365,-0.223 0.375,-0.207C0.386,-0.19 0.392,-0.17 0.392,-0.147C0.392,-0.102 0.373,-0.063 0.336,-0.031C0.299,0.001 0.251,0.017 0.193,0.017C0.172,0.017 0.147,0.015 0.116,0.01C0.086,0.006 0.06,0.001 0.039,-0.005L0.036,-0.011L0.041,-0.044C0.043,-0.054 0.044,-0.064 0.044,-0.074C0.044,-0.085 0.045,-0.106 0.045,-0.139L0.049,-0.144Z" style="fill:rgb(35,31,32);fill-rule:nonzero;"/>
            </g>
            <g transform="matrix(37.5,0,0,37.5,454.844,594.704)">
                <path d="M0.169,-0.465L0.178,-0.459C0.175,-0.416 0.173,-0.362 0.173,-0.296L0.173,-0.183C0.173,-0.141 0.176,-0.112 0.182,-0.096C0.189,-0.079 0.2,-0.067 0.215,-0.058C0.231,-0.05 0.25,-0.045 0.271,-0.045C0.295,-0.045 0.316,-0.05 0.336,-0.059C0.355,-0.069 0.372,-0.082 0.385,-0.099C0.398,-0.116 0.406,-0.127 0.408,-0.133C0.41,-0.139 0.411,-0.155 0.412,-0.182L0.413,-0.237L0.413,-0.29C0.413,-0.303 0.412,-0.32 0.411,-0.343C0.41,-0.365 0.409,-0.379 0.408,-0.384C0.407,-0.389 0.405,-0.393 0.4,-0.396C0.396,-0.398 0.388,-0.399 0.375,-0.399L0.334,-0.4L0.33,-0.404L0.33,-0.425L0.333,-0.429C0.396,-0.436 0.448,-0.448 0.491,-0.465L0.5,-0.459C0.496,-0.416 0.495,-0.362 0.495,-0.296L0.495,-0.21C0.495,-0.206 0.495,-0.166 0.497,-0.091C0.498,-0.063 0.499,-0.046 0.502,-0.04C0.505,-0.034 0.509,-0.03 0.514,-0.028C0.519,-0.025 0.533,-0.024 0.557,-0.024L0.571,-0.024L0.575,-0.02L0.575,-0L0.571,0.004C0.525,0.001 0.495,-0 0.479,-0C0.459,-0 0.436,0.001 0.41,0.003L0.406,-0C0.408,-0.034 0.409,-0.062 0.41,-0.085C0.39,-0.069 0.366,-0.048 0.34,-0.021C0.33,-0.011 0.315,-0.002 0.296,0.004C0.278,0.011 0.256,0.015 0.232,0.015C0.195,0.015 0.167,0.009 0.147,-0.003C0.126,-0.014 0.112,-0.03 0.104,-0.051C0.095,-0.071 0.091,-0.106 0.091,-0.156L0.091,-0.194L0.091,-0.29C0.091,-0.303 0.091,-0.32 0.089,-0.343C0.088,-0.365 0.087,-0.379 0.086,-0.384C0.085,-0.389 0.083,-0.393 0.079,-0.396C0.074,-0.398 0.066,-0.399 0.053,-0.399L0.012,-0.4L0.008,-0.404L0.008,-0.425L0.012,-0.429C0.074,-0.436 0.126,-0.448 0.169,-0.465Z" style="fill:rgb(35,31,32);fill-rule:nonzero;"/>
            </g>
            <g transform="matrix(37.5,0,0,37.5,477.458,594.704)">
                <path d="M0.183,-0.723L0.192,-0.717C0.188,-0.68 0.187,-0.605 0.187,-0.492L0.187,-0.186C0.187,-0.179 0.187,-0.156 0.188,-0.117C0.19,-0.078 0.191,-0.055 0.193,-0.049C0.194,-0.042 0.196,-0.038 0.199,-0.035C0.202,-0.032 0.206,-0.03 0.21,-0.029C0.214,-0.028 0.232,-0.027 0.263,-0.025L0.267,-0.021L0.267,-0L0.263,0.004C0.222,0.001 0.183,-0 0.146,-0C0.108,-0 0.069,0.001 0.028,0.004L0.024,-0L0.024,-0.021L0.028,-0.025C0.06,-0.027 0.078,-0.028 0.082,-0.029C0.086,-0.03 0.089,-0.032 0.093,-0.035C0.096,-0.038 0.098,-0.043 0.099,-0.05C0.1,-0.056 0.101,-0.077 0.103,-0.113C0.104,-0.148 0.105,-0.175 0.105,-0.193L0.105,-0.446L0.103,-0.55C0.102,-0.586 0.101,-0.611 0.1,-0.625C0.099,-0.639 0.097,-0.647 0.095,-0.65C0.093,-0.653 0.09,-0.654 0.085,-0.656C0.08,-0.657 0.06,-0.658 0.026,-0.658L0.021,-0.662L0.021,-0.683L0.025,-0.687C0.088,-0.694 0.14,-0.706 0.183,-0.723Z" style="fill:rgb(35,31,32);fill-rule:nonzero;"/>
            </g>
            <g transform="matrix(37.5,0,0,37.5,488.371,594.704)">
                <path d="M0.022,-0.383L0.022,-0.396L0.026,-0.401C0.056,-0.412 0.081,-0.423 0.1,-0.433C0.1,-0.518 0.099,-0.567 0.097,-0.581C0.131,-0.593 0.158,-0.605 0.18,-0.619L0.191,-0.609C0.188,-0.588 0.184,-0.529 0.18,-0.43C0.196,-0.43 0.214,-0.43 0.232,-0.43C0.271,-0.43 0.298,-0.431 0.315,-0.433L0.318,-0.429L0.309,-0.388L0.305,-0.384C0.289,-0.384 0.27,-0.384 0.25,-0.384C0.232,-0.384 0.208,-0.384 0.18,-0.384L0.177,-0.185C0.177,-0.139 0.178,-0.109 0.18,-0.095C0.182,-0.081 0.188,-0.07 0.198,-0.062C0.207,-0.054 0.221,-0.05 0.24,-0.05C0.262,-0.05 0.282,-0.056 0.301,-0.067L0.313,-0.049C0.305,-0.044 0.286,-0.028 0.256,-0C0.239,0.007 0.222,0.011 0.205,0.011C0.131,0.011 0.095,-0.024 0.095,-0.095C0.095,-0.121 0.095,-0.143 0.097,-0.162C0.097,-0.167 0.097,-0.173 0.097,-0.179L0.097,-0.381L0.077,-0.381C0.063,-0.381 0.046,-0.381 0.027,-0.379L0.022,-0.383Z" style="fill:rgb(35,31,32);fill-rule:nonzero;"/>
            </g>
            <g transform="matrix(37.5,0,0,37.5,500.602,594.704)">
                <path d="M0.049,-0.144L0.07,-0.144L0.075,-0.139C0.075,-0.112 0.077,-0.088 0.08,-0.069C0.09,-0.054 0.107,-0.041 0.132,-0.031C0.157,-0.022 0.181,-0.017 0.205,-0.017C0.24,-0.017 0.267,-0.026 0.288,-0.045C0.309,-0.063 0.319,-0.086 0.319,-0.111C0.319,-0.125 0.315,-0.137 0.308,-0.148C0.3,-0.158 0.289,-0.166 0.274,-0.173C0.259,-0.18 0.231,-0.188 0.192,-0.197C0.159,-0.205 0.135,-0.211 0.122,-0.215C0.109,-0.219 0.096,-0.227 0.083,-0.237C0.071,-0.248 0.062,-0.26 0.055,-0.276C0.049,-0.291 0.045,-0.307 0.045,-0.326C0.045,-0.369 0.063,-0.404 0.097,-0.43C0.132,-0.457 0.175,-0.47 0.227,-0.47C0.249,-0.47 0.273,-0.467 0.298,-0.461C0.324,-0.455 0.344,-0.449 0.357,-0.443L0.361,-0.437C0.359,-0.424 0.357,-0.389 0.356,-0.334L0.352,-0.33L0.333,-0.33L0.328,-0.334C0.327,-0.354 0.325,-0.368 0.323,-0.376C0.32,-0.384 0.315,-0.392 0.305,-0.402C0.296,-0.411 0.282,-0.419 0.265,-0.425C0.248,-0.431 0.23,-0.435 0.21,-0.435C0.191,-0.435 0.174,-0.432 0.16,-0.426C0.147,-0.42 0.136,-0.411 0.128,-0.399C0.119,-0.387 0.115,-0.373 0.115,-0.356C0.115,-0.344 0.118,-0.333 0.123,-0.323C0.128,-0.313 0.136,-0.305 0.146,-0.299C0.156,-0.293 0.167,-0.289 0.179,-0.286L0.232,-0.272C0.278,-0.261 0.31,-0.252 0.33,-0.244C0.35,-0.236 0.365,-0.223 0.375,-0.207C0.386,-0.19 0.392,-0.17 0.392,-0.147C0.392,-0.102 0.373,-0.063 0.336,-0.031C0.299,0.001 0.251,0.017 0.193,0.017C0.172,0.017 0.147,0.015 0.116,0.01C0.086,0.006 0.06,0.001 0.039,-0.005L0.036,-0.011L0.041,-0.044C0.043,-0.054 0.044,-0.064 0.044,-0.074C0.044,-0.085 0.045,-0.106 0.045,-0.139L0.049,-0.144Z" style="fill:rgb(35,31,32);fill-rule:nonzero;"/>
            </g>
        </g>
    </g>
</svg>
