<?xml version="1.0" encoding="UTF-8" standalone="no"?>
<!DOCTYPE svg PUBLIC "-//W3C//DTD SVG 1.1//EN" "http://www.w3.org/Graphics/SVG/1.1/DTD/svg11.dtd">
<svg width="100%" height="100%" viewBox="0 0 1382 556" version="1.1" xmlns="http://www.w3.org/2000/svg" xmlns:xlink="http://www.w3.org/1999/xlink" xml:space="preserve" xmlns:serif="http://www.serif.com/" style="fill-rule:evenodd;clip-rule:evenodd;stroke-linecap:round;stroke-miterlimit:1.5;">
    <g transform="matrix(1,0,0,1,-186.059,-126.867)">
        <g transform="matrix(0.648069,0,0,0.648069,167.944,243.576)">
            <rect x="146.367" y="126.038" width="118.415" height="118.415" style="fill:none;stroke:black;stroke-width:3.18px;"/>
        </g>
        <g transform="matrix(0.648069,0,0,0.648069,244.686,166.835)">
            <rect x="146.367" y="126.038" width="118.415" height="118.415" style="fill:none;stroke:black;stroke-width:3.18px;"/>
        </g>
        <g transform="matrix(0.648069,0,0,0.648069,244.686,243.576)">
            <rect x="146.367" y="126.038" width="118.415" height="118.415" style="fill:none;stroke:black;stroke-width:3.18px;"/>
        </g>
        <g transform="matrix(0.648069,0,0,0.648069,167.944,166.835)">
            <rect x="146.367" y="126.038" width="118.415" height="118.415" style="fill:none;stroke:black;stroke-width:3.18px;"/>
        </g>
        <g transform="matrix(0.648069,0,0,0.648069,244.381,166.835)">
            <rect x="146.367" y="126.038" width="118.415" height="118.415" style="fill:none;stroke:black;stroke-width:3.18px;"/>
        </g>
        <g transform="matrix(0.648069,0,0,0.648069,244.381,243.576)">
            <rect x="146.367" y="126.038" width="118.415" height="118.415" style="fill:none;stroke:black;stroke-width:3.18px;"/>
        </g>
        <g transform="matrix(0.648069,0,0,0.648069,167.944,166.835)">
            <rect x="146.367" y="126.038" width="118.415" height="118.415" style="fill:none;stroke:black;stroke-width:3.18px;"/>
        </g>
        <g transform="matrix(0.648069,0,0,0.648069,167.944,243.576)">
            <rect x="146.367" y="126.038" width="118.415" height="118.415" style="fill:none;stroke:black;stroke-width:3.18px;"/>
        </g>
    </g>
    <g transform="matrix(1,0,0,1,-98.6454,-166.508)">
        <g>
            <g>
                <g transform="matrix(0.648069,0,0,0.648069,535.895,283.218)">
                    <rect x="146.367" y="126.038" width="118.415" height="118.415" style="fill:none;stroke:black;stroke-width:3.18px;"/>
                </g>
                <g transform="matrix(0.648069,0,0,0.648069,535.895,359.959)">
                    <rect x="146.367" y="126.038" width="118.415" height="118.415" style="fill:none;stroke:black;stroke-width:3.18px;"/>
                </g>
                <g transform="matrix(0.648069,0,0,0.648069,612.636,206.476)">
                    <rect x="146.367" y="126.038" width="118.415" height="118.415" style="fill:none;stroke:black;stroke-width:3.18px;"/>
                </g>
                <g transform="matrix(0.648069,0,0,0.648069,689.683,206.476)">
                    <rect x="146.367" y="126.038" width="118.415" height="118.415" style="fill:none;stroke:black;stroke-width:3.18px;"/>
                </g>
                <g transform="matrix(0.648069,0,0,0.648069,612.636,283.218)">
                    <rect x="146.367" y="126.038" width="118.415" height="118.415" style="fill:none;stroke:black;stroke-width:3.18px;"/>
                </g>
                <g transform="matrix(0.648069,0,0,0.648069,612.636,359.959)">
                    <rect x="146.367" y="126.038" width="118.415" height="118.415" style="fill:none;stroke:black;stroke-width:3.18px;"/>
                </g>
                <g transform="matrix(0.648069,0,0,0.648069,689.683,283.218)">
                    <rect x="146.367" y="126.038" width="118.415" height="118.415" style="fill:none;stroke:black;stroke-width:3.18px;"/>
                </g>
                <g transform="matrix(0.648069,0,0,0.648069,689.683,359.959)">
                    <rect x="146.367" y="126.038" width="118.415" height="118.415" style="fill:none;stroke:black;stroke-width:3.18px;"/>
                </g>
                <g transform="matrix(0.648069,0,0,0.648069,535.895,206.476)">
                    <rect x="146.367" y="126.038" width="118.415" height="118.415" style="fill:none;stroke:black;stroke-width:3.18px;"/>
                </g>
                <g transform="matrix(0.648069,0,0,0.648069,612.332,206.476)">
                    <rect x="146.367" y="126.038" width="118.415" height="118.415" style="fill:none;stroke:black;stroke-width:3.18px;"/>
                </g>
                <g transform="matrix(0.648069,0,0,0.648069,689.378,206.476)">
                    <rect x="146.367" y="126.038" width="118.415" height="118.415" style="fill:none;stroke:black;stroke-width:3.18px;"/>
                </g>
                <g transform="matrix(0.648069,0,0,0.648069,612.332,283.218)">
                    <rect x="146.367" y="126.038" width="118.415" height="118.415" style="fill:none;stroke:black;stroke-width:3.18px;"/>
                </g>
                <g transform="matrix(0.648069,0,0,0.648069,612.332,359.959)">
                    <rect x="146.367" y="126.038" width="118.415" height="118.415" style="fill:none;stroke:black;stroke-width:3.18px;"/>
                </g>
                <g transform="matrix(0.648069,0,0,0.648069,689.378,283.218)">
                    <rect x="146.367" y="126.038" width="118.415" height="118.415" style="fill:none;stroke:black;stroke-width:3.18px;"/>
                </g>
                <g transform="matrix(0.648069,0,0,0.648069,689.378,359.959)">
                    <rect x="146.367" y="126.038" width="118.415" height="118.415" style="fill:none;stroke:black;stroke-width:3.18px;"/>
                </g>
                <g transform="matrix(0.648069,0,0,0.648069,535.895,206.476)">
                    <rect x="146.367" y="126.038" width="118.415" height="118.415" style="fill:none;stroke:black;stroke-width:3.18px;"/>
                </g>
                <g transform="matrix(0.648069,0,0,0.648069,535.895,283.218)">
                    <rect x="146.367" y="126.038" width="118.415" height="118.415" style="fill:none;stroke:black;stroke-width:3.18px;"/>
                </g>
                <g transform="matrix(0.648069,0,0,0.648069,535.895,359.959)">
                    <rect x="146.367" y="126.038" width="118.415" height="118.415" style="fill:none;stroke:black;stroke-width:3.18px;"/>
                </g>
            </g>
        </g>
    </g>
    <g transform="matrix(1,0,0,1,-186.059,-126.867)">
        <g transform="matrix(0.648069,0,0,0.648069,1115.27,243.576)">
            <rect x="146.367" y="126.038" width="118.415" height="118.415" style="fill:none;stroke:black;stroke-width:3.18px;"/>
        </g>
        <g transform="matrix(0.648069,0,0,0.648069,1115.27,397.059)">
            <rect x="146.367" y="126.038" width="118.415" height="118.415" style="fill:none;stroke:black;stroke-width:3.18px;"/>
        </g>
        <g transform="matrix(0.648069,0,0,0.648069,1115.27,320.318)">
            <rect x="146.367" y="126.038" width="118.415" height="118.415" style="fill:none;stroke:black;stroke-width:3.18px;"/>
        </g>
        <g transform="matrix(0.648069,0,0,0.648069,1192.01,166.835)">
            <rect x="146.367" y="126.038" width="118.415" height="118.415" style="fill:none;stroke:black;stroke-width:3.18px;"/>
        </g>
        <g transform="matrix(0.648069,0,0,0.648069,1269.05,166.835)">
            <rect x="146.367" y="126.038" width="118.415" height="118.415" style="fill:none;stroke:black;stroke-width:3.18px;"/>
        </g>
        <g transform="matrix(0.648069,0,0,0.648069,1346.1,166.835)">
            <rect x="146.367" y="126.038" width="118.415" height="118.415" style="fill:none;stroke:black;stroke-width:3.18px;"/>
        </g>
        <g transform="matrix(0.648069,0,0,0.648069,1192.01,243.576)">
            <rect x="146.367" y="126.038" width="118.415" height="118.415" style="fill:none;stroke:black;stroke-width:3.18px;"/>
        </g>
        <g transform="matrix(0.648069,0,0,0.648069,1192.01,397.059)">
            <rect x="146.367" y="126.038" width="118.415" height="118.415" style="fill:none;stroke:black;stroke-width:3.18px;"/>
        </g>
        <g transform="matrix(0.648069,0,0,0.648069,1192.01,320.318)">
            <rect x="146.367" y="126.038" width="118.415" height="118.415" style="fill:none;stroke:black;stroke-width:3.18px;"/>
        </g>
        <g transform="matrix(0.648069,0,0,0.648069,1269.05,243.576)">
            <rect x="146.367" y="126.038" width="118.415" height="118.415" style="fill:none;stroke:black;stroke-width:3.18px;"/>
        </g>
        <g transform="matrix(0.648069,0,0,0.648069,1269.05,397.059)">
            <rect x="146.367" y="126.038" width="118.415" height="118.415" style="fill:none;stroke:black;stroke-width:3.18px;"/>
        </g>
        <g transform="matrix(0.648069,0,0,0.648069,1346.1,243.576)">
            <rect x="146.367" y="126.038" width="118.415" height="118.415" style="fill:none;stroke:black;stroke-width:3.18px;"/>
        </g>
        <g transform="matrix(0.648069,0,0,0.648069,1346.1,397.059)">
            <rect x="146.367" y="126.038" width="118.415" height="118.415" style="fill:none;stroke:black;stroke-width:3.18px;"/>
        </g>
        <g transform="matrix(0.648069,0,0,0.648069,1269.05,320.318)">
            <rect x="146.367" y="126.038" width="118.415" height="118.415" style="fill:none;stroke:black;stroke-width:3.18px;"/>
        </g>
        <g transform="matrix(0.648069,0,0,0.648069,1346.1,320.318)">
            <rect x="146.367" y="126.038" width="118.415" height="118.415" style="fill:none;stroke:black;stroke-width:3.18px;"/>
        </g>
        <g transform="matrix(0.648069,0,0,0.648069,1115.27,166.835)">
            <rect x="146.367" y="126.038" width="118.415" height="118.415" style="fill:none;stroke:black;stroke-width:3.18px;"/>
        </g>
        <g transform="matrix(0.648069,0,0,0.648069,1191.7,166.835)">
            <rect x="146.367" y="126.038" width="118.415" height="118.415" style="fill:none;stroke:black;stroke-width:3.18px;"/>
        </g>
        <g transform="matrix(0.648069,0,0,0.648069,1268.75,166.835)">
            <rect x="146.367" y="126.038" width="118.415" height="118.415" style="fill:none;stroke:black;stroke-width:3.18px;"/>
        </g>
        <g transform="matrix(0.648069,0,0,0.648069,1345.79,166.835)">
            <rect x="146.367" y="126.038" width="118.415" height="118.415" style="fill:none;stroke:black;stroke-width:3.18px;"/>
        </g>
        <g transform="matrix(0.648069,0,0,0.648069,1191.7,243.576)">
            <rect x="146.367" y="126.038" width="118.415" height="118.415" style="fill:none;stroke:black;stroke-width:3.18px;"/>
        </g>
        <g transform="matrix(0.648069,0,0,0.648069,1191.7,397.059)">
            <rect x="146.367" y="126.038" width="118.415" height="118.415" style="fill:none;stroke:black;stroke-width:3.18px;"/>
        </g>
        <g transform="matrix(0.648069,0,0,0.648069,1191.7,320.318)">
            <rect x="146.367" y="126.038" width="118.415" height="118.415" style="fill:none;stroke:black;stroke-width:3.18px;"/>
        </g>
        <g transform="matrix(0.648069,0,0,0.648069,1268.75,243.576)">
            <rect x="146.367" y="126.038" width="118.415" height="118.415" style="fill:none;stroke:black;stroke-width:3.18px;"/>
        </g>
        <g transform="matrix(0.648069,0,0,0.648069,1268.75,397.059)">
            <rect x="146.367" y="126.038" width="118.415" height="118.415" style="fill:none;stroke:black;stroke-width:3.18px;"/>
        </g>
        <g transform="matrix(0.648069,0,0,0.648069,1345.79,243.576)">
            <rect x="146.367" y="126.038" width="118.415" height="118.415" style="fill:none;stroke:black;stroke-width:3.18px;"/>
        </g>
        <g transform="matrix(0.648069,0,0,0.648069,1345.79,397.059)">
            <rect x="146.367" y="126.038" width="118.415" height="118.415" style="fill:none;stroke:black;stroke-width:3.18px;"/>
        </g>
        <g transform="matrix(0.648069,0,0,0.648069,1268.75,320.318)">
            <rect x="146.367" y="126.038" width="118.415" height="118.415" style="fill:none;stroke:black;stroke-width:3.18px;"/>
        </g>
        <g transform="matrix(0.648069,0,0,0.648069,1345.79,320.318)">
            <rect x="146.367" y="126.038" width="118.415" height="118.415" style="fill:none;stroke:black;stroke-width:3.18px;"/>
        </g>
        <g transform="matrix(0.648069,0,0,0.648069,1115.27,166.835)">
            <rect x="146.367" y="126.038" width="118.415" height="118.415" style="fill:none;stroke:black;stroke-width:3.18px;"/>
        </g>
        <g transform="matrix(0.648069,0,0,0.648069,1115.27,243.576)">
            <rect x="146.367" y="126.038" width="118.415" height="118.415" style="fill:none;stroke:black;stroke-width:3.18px;"/>
        </g>
        <g transform="matrix(0.648069,0,0,0.648069,1115.27,397.059)">
            <rect x="146.367" y="126.038" width="118.415" height="118.415" style="fill:none;stroke:black;stroke-width:3.18px;"/>
        </g>
        <g transform="matrix(0.648069,0,0,0.648069,1115.27,320.318)">
            <rect x="146.367" y="126.038" width="118.415" height="118.415" style="fill:none;stroke:black;stroke-width:3.18px;"/>
        </g>
    </g>
    <g transform="matrix(1,0,0,1,-162.532,-308.777)">
        <g transform="matrix(4.16667,0,0,4.16667,438.085,806.036)">
            <path d="M73.844,1.549L76.39,1.549L76.39,1.719C75.691,1.764 75.565,1.854 75.565,2.526L75.565,4.364C77.592,2.544 77.843,2.302 77.843,2.006C77.843,1.764 77.655,1.737 77.233,1.719L77.233,1.549L79.573,1.549L79.573,1.719C79.035,1.764 78.865,1.791 78.228,2.419L76.516,4.113L78.605,6.355C79.197,6.991 79.493,7.341 80.022,7.323L80.022,7.485L77.278,7.485L77.278,7.323C77.646,7.296 77.915,7.323 77.915,7.099C77.915,6.83 77.135,5.978 76.758,5.602L75.808,4.651L75.565,4.84L75.565,6.498C75.565,7.207 75.709,7.26 76.354,7.323L76.354,7.485L73.844,7.485L73.844,7.323C74.516,7.278 74.651,7.144 74.651,6.445L74.651,2.526C74.651,1.827 74.454,1.764 73.844,1.719L73.844,1.549Z" style="fill:rgb(35,31,32);fill-rule:nonzero;"/>
        </g>
        <g transform="matrix(4.16667,0,0,4.16667,438.085,806.036)">
            <path d="M83.671,6.023L83.815,6.086C83.465,6.991 82.783,7.574 81.914,7.574C80.838,7.574 80.237,6.74 80.237,5.575C80.237,3.916 81.34,3.36 82.066,3.36C82.909,3.36 83.537,3.826 83.635,5.01L80.865,5.01C80.963,6.588 81.689,6.965 82.272,6.965C83.07,6.965 83.465,6.355 83.671,6.023ZM80.882,4.705L82.73,4.705C82.658,4.293 82.577,3.692 81.86,3.692C81.376,3.692 81.026,3.934 80.882,4.705Z" style="fill:rgb(35,31,32);fill-rule:nonzero;"/>
        </g>
        <g transform="matrix(4.16667,0,0,4.16667,438.085,806.036)">
            <path d="M85.393,3.36L85.411,3.378L85.411,4.185L85.446,4.185C85.653,3.889 85.966,3.36 86.486,3.36C86.818,3.36 86.998,3.575 86.998,3.844C86.998,4.024 86.917,4.248 86.648,4.248C86.343,4.248 86.235,3.934 86.029,3.934C85.868,3.934 85.411,4.319 85.411,4.696L85.411,6.722C85.411,7.189 85.599,7.35 86.173,7.35L86.173,7.485L84.039,7.485L84.039,7.35C84.639,7.26 84.666,7.117 84.666,6.696L84.666,4.436C84.666,3.889 84.397,3.943 84.335,3.943C84.236,3.943 84.164,3.961 84.048,3.988L84.048,3.844C84.397,3.737 85.393,3.36 85.393,3.36Z" style="fill:rgb(35,31,32);fill-rule:nonzero;"/>
        </g>
        <g transform="matrix(4.16667,0,0,4.16667,438.085,806.036)">
            <path d="M87.688,6.74L87.688,4.481C87.688,3.871 87.536,3.889 87.356,3.889C87.276,3.889 87.195,3.889 87.123,3.916L87.123,3.764C87.356,3.692 87.805,3.575 88.36,3.36L88.423,3.378L88.423,4.095C88.836,3.71 89.167,3.36 89.723,3.36C90.279,3.36 90.781,3.737 90.781,4.705L90.781,6.767C90.781,7.171 90.943,7.323 91.328,7.35L91.328,7.485L89.463,7.485L89.463,7.35C89.831,7.341 90.019,7.171 90.019,6.588L90.019,4.705C90.019,4.095 89.786,3.853 89.356,3.853C88.988,3.853 88.701,4.14 88.45,4.364L88.45,6.893C88.45,7.26 88.692,7.323 89.042,7.35L89.042,7.485L87.15,7.485L87.15,7.35C87.419,7.323 87.688,7.323 87.688,6.74Z" style="fill:rgb(35,31,32);fill-rule:nonzero;"/>
        </g>
        <g transform="matrix(4.16667,0,0,4.16667,438.085,806.036)">
            <path d="M95.121,6.023L95.265,6.086C94.915,6.991 94.233,7.574 93.364,7.574C92.288,7.574 91.687,6.74 91.687,5.575C91.687,3.916 92.79,3.36 93.516,3.36C94.359,3.36 94.987,3.826 95.085,5.01L92.315,5.01C92.413,6.588 93.14,6.965 93.722,6.965C94.52,6.965 94.915,6.355 95.121,6.023ZM92.333,4.705L94.18,4.705C94.108,4.293 94.027,3.692 93.31,3.692C92.826,3.692 92.476,3.934 92.333,4.705Z" style="fill:rgb(35,31,32);fill-rule:nonzero;"/>
        </g>
        <g transform="matrix(4.16667,0,0,4.16667,438.085,806.036)">
            <path d="M95.623,7.485L95.623,7.359C96.179,7.323 96.314,7.189 96.314,6.714L96.314,2.437C96.314,2.069 96.296,1.89 95.892,1.89C95.767,1.89 95.74,1.89 95.614,1.899L95.614,1.764C96.027,1.665 96.914,1.405 97.031,1.361L97.076,1.361L97.076,6.714C97.076,7.225 97.174,7.323 97.748,7.359L97.748,7.485L95.623,7.485Z" style="fill:rgb(35,31,32);fill-rule:nonzero;"/>
        </g>
        <g transform="matrix(4.16667,0,0,4.16667,438.085,806.036)">
            <path d="M104.628,6.445C104.628,6.301 104.494,6.301 104.395,6.301C104.216,6.301 104.216,6.31 104.144,6.471C103.965,6.902 103.561,7.153 103.032,7.153C101.759,7.153 101.759,5.862 101.759,5.458C101.759,4.92 101.768,3.808 102.942,3.808C103.005,3.808 103.489,3.817 103.489,3.862C103.489,3.871 103.471,3.898 103.462,3.907C103.382,4.006 103.346,4.149 103.346,4.275C103.346,4.642 103.624,4.857 103.929,4.857C104.207,4.857 104.511,4.669 104.511,4.266C104.511,3.423 103.256,3.423 102.906,3.423C101.185,3.423 100.566,4.517 100.566,5.494C100.566,6.624 101.373,7.538 102.862,7.538C103.193,7.538 103.633,7.485 104.009,7.252C104.52,6.938 104.628,6.471 104.628,6.445Z" style="fill:rgb(35,31,32);fill-rule:nonzero;"/>
        </g>
    </g>
    <g transform="matrix(1,0,0,1,-146.367,-14.6679)">
        <g transform="matrix(37.5,0,0,37.5,253.927,544.716)">
            <path d="M0.029,-0.69L0.09,-0.688C0.13,-0.687 0.156,-0.686 0.168,-0.686C0.18,-0.686 0.226,-0.687 0.309,-0.69L0.313,-0.687L0.313,-0.662L0.309,-0.659C0.286,-0.658 0.269,-0.657 0.257,-0.656C0.244,-0.654 0.236,-0.652 0.23,-0.648C0.224,-0.645 0.221,-0.636 0.219,-0.623C0.217,-0.61 0.216,-0.592 0.216,-0.568L0.215,-0.456L0.215,-0.23L0.216,-0.135C0.216,-0.098 0.217,-0.074 0.219,-0.063C0.22,-0.053 0.223,-0.046 0.226,-0.042C0.229,-0.038 0.235,-0.035 0.244,-0.033C0.252,-0.031 0.274,-0.029 0.309,-0.027L0.313,-0.024L0.313,-0L0.309,0.004C0.307,0.004 0.278,0.003 0.223,0.001C0.2,0 0.181,-0 0.168,-0C0.158,-0 0.112,0.001 0.029,0.004L0.025,-0L0.025,-0.024L0.029,-0.027C0.059,-0.029 0.079,-0.03 0.089,-0.032C0.099,-0.034 0.106,-0.037 0.11,-0.04C0.113,-0.043 0.116,-0.049 0.118,-0.06C0.12,-0.07 0.121,-0.092 0.122,-0.127L0.122,-0.23L0.122,-0.456L0.121,-0.551C0.121,-0.588 0.12,-0.612 0.118,-0.623C0.117,-0.634 0.115,-0.641 0.112,-0.645C0.108,-0.648 0.103,-0.651 0.094,-0.653C0.085,-0.656 0.063,-0.657 0.029,-0.659L0.025,-0.662L0.025,-0.687L0.029,-0.69Z" style="fill:rgb(35,31,32);fill-rule:nonzero;"/>
        </g>
        <g transform="matrix(37.5,0,0,37.5,266.561,544.716)">
            <path d="M0.167,-0.465L0.176,-0.459C0.174,-0.437 0.173,-0.409 0.172,-0.373C0.198,-0.395 0.223,-0.416 0.247,-0.438C0.253,-0.445 0.26,-0.449 0.266,-0.452C0.272,-0.455 0.282,-0.458 0.296,-0.461C0.31,-0.465 0.324,-0.466 0.339,-0.466C0.364,-0.466 0.388,-0.461 0.411,-0.451C0.434,-0.441 0.452,-0.429 0.464,-0.415C0.476,-0.401 0.484,-0.385 0.488,-0.366C0.493,-0.347 0.495,-0.324 0.495,-0.296L0.495,-0.21C0.495,-0.205 0.496,-0.164 0.498,-0.089C0.498,-0.058 0.502,-0.04 0.508,-0.034C0.514,-0.028 0.534,-0.025 0.568,-0.025L0.572,-0.021L0.572,-0L0.568,0.004C0.527,0.001 0.499,-0 0.484,-0C0.476,-0 0.452,0.001 0.413,0.004L0.407,-0.001C0.411,-0.044 0.414,-0.099 0.414,-0.167L0.414,-0.231C0.414,-0.269 0.413,-0.297 0.411,-0.314C0.409,-0.331 0.404,-0.346 0.395,-0.36C0.385,-0.374 0.373,-0.385 0.358,-0.392C0.343,-0.4 0.324,-0.404 0.303,-0.404C0.286,-0.404 0.272,-0.402 0.26,-0.399C0.248,-0.395 0.234,-0.388 0.219,-0.378C0.204,-0.367 0.193,-0.357 0.186,-0.348C0.179,-0.339 0.175,-0.33 0.173,-0.322C0.172,-0.314 0.171,-0.297 0.171,-0.271L0.171,-0.186C0.171,-0.179 0.172,-0.156 0.173,-0.117C0.174,-0.078 0.176,-0.055 0.177,-0.049C0.178,-0.042 0.181,-0.038 0.184,-0.035C0.187,-0.032 0.19,-0.03 0.194,-0.029C0.199,-0.028 0.216,-0.027 0.247,-0.025L0.251,-0.021L0.251,-0L0.248,0.004C0.207,0.001 0.168,-0 0.13,-0C0.092,-0 0.053,0.001 0.013,0.004L0.008,-0L0.008,-0.021L0.013,-0.025C0.044,-0.027 0.062,-0.028 0.066,-0.029C0.07,-0.03 0.074,-0.032 0.077,-0.035C0.08,-0.038 0.082,-0.043 0.083,-0.05C0.084,-0.056 0.086,-0.077 0.087,-0.113C0.089,-0.148 0.089,-0.175 0.089,-0.193L0.089,-0.29C0.089,-0.303 0.089,-0.32 0.087,-0.343C0.086,-0.365 0.085,-0.379 0.084,-0.384C0.083,-0.389 0.081,-0.393 0.077,-0.396C0.072,-0.398 0.064,-0.399 0.051,-0.399L0.01,-0.4L0.006,-0.404L0.006,-0.425L0.01,-0.429C0.072,-0.436 0.124,-0.448 0.167,-0.465Z" style="fill:rgb(35,31,32);fill-rule:nonzero;"/>
        </g>
        <g transform="matrix(37.5,0,0,37.5,288.387,544.716)">
            <path d="M0.181,-0.471L0.19,-0.465C0.187,-0.428 0.185,-0.395 0.185,-0.367C0.229,-0.407 0.26,-0.434 0.277,-0.447C0.295,-0.46 0.325,-0.466 0.367,-0.466C0.394,-0.466 0.418,-0.463 0.44,-0.455C0.462,-0.448 0.482,-0.436 0.5,-0.419C0.519,-0.402 0.534,-0.381 0.544,-0.356C0.555,-0.331 0.561,-0.302 0.561,-0.269C0.561,-0.245 0.557,-0.221 0.549,-0.197C0.542,-0.173 0.532,-0.151 0.52,-0.13C0.508,-0.11 0.498,-0.096 0.49,-0.09C0.483,-0.083 0.468,-0.073 0.445,-0.06C0.425,-0.047 0.404,-0.034 0.384,-0.02C0.37,-0.009 0.361,-0.003 0.355,-0C0.349,0.003 0.34,0.006 0.327,0.009C0.314,0.012 0.3,0.013 0.286,0.013C0.252,0.013 0.218,0.005 0.185,-0.013L0.185,0.091C0.185,0.098 0.185,0.122 0.187,0.16C0.188,0.199 0.189,0.222 0.191,0.229C0.192,0.235 0.194,0.24 0.197,0.243C0.2,0.246 0.204,0.247 0.208,0.248C0.212,0.249 0.23,0.25 0.261,0.252L0.265,0.256L0.265,0.277L0.261,0.281C0.221,0.279 0.181,0.277 0.144,0.277C0.107,0.277 0.068,0.279 0.027,0.281L0.022,0.277L0.022,0.256L0.027,0.252C0.058,0.25 0.076,0.249 0.08,0.248C0.084,0.247 0.088,0.245 0.091,0.242C0.094,0.239 0.096,0.234 0.097,0.227C0.099,0.22 0.1,0.198 0.101,0.162C0.103,0.125 0.104,0.097 0.104,0.079L0.104,-0.295C0.104,-0.312 0.103,-0.332 0.101,-0.354C0.1,-0.377 0.099,-0.389 0.098,-0.393C0.097,-0.397 0.094,-0.4 0.091,-0.402C0.087,-0.404 0.078,-0.405 0.065,-0.405L0.024,-0.406L0.02,-0.41L0.02,-0.431L0.024,-0.435C0.086,-0.442 0.138,-0.454 0.181,-0.471ZM0.185,-0.097C0.2,-0.081 0.218,-0.068 0.24,-0.057C0.262,-0.046 0.287,-0.04 0.313,-0.04C0.345,-0.04 0.373,-0.048 0.397,-0.064C0.421,-0.08 0.44,-0.103 0.454,-0.134C0.467,-0.165 0.474,-0.199 0.474,-0.236C0.474,-0.267 0.468,-0.295 0.456,-0.321C0.444,-0.347 0.426,-0.367 0.401,-0.382C0.376,-0.397 0.349,-0.405 0.321,-0.405C0.304,-0.405 0.287,-0.402 0.271,-0.396C0.255,-0.39 0.24,-0.381 0.225,-0.369C0.211,-0.357 0.201,-0.346 0.195,-0.336C0.189,-0.325 0.185,-0.316 0.185,-0.309C0.185,-0.302 0.185,-0.295 0.185,-0.286L0.185,-0.097Z" style="fill:rgb(35,31,32);fill-rule:nonzero;"/>
        </g>
        <g transform="matrix(37.5,0,0,37.5,310.927,544.716)">
            <path d="M0.169,-0.465L0.178,-0.459C0.175,-0.416 0.173,-0.362 0.173,-0.296L0.173,-0.183C0.173,-0.141 0.176,-0.112 0.182,-0.096C0.189,-0.079 0.2,-0.067 0.215,-0.058C0.231,-0.05 0.25,-0.045 0.271,-0.045C0.295,-0.045 0.316,-0.05 0.336,-0.059C0.355,-0.069 0.372,-0.082 0.385,-0.099C0.398,-0.116 0.406,-0.127 0.408,-0.133C0.41,-0.139 0.411,-0.155 0.412,-0.182L0.413,-0.237L0.413,-0.29C0.413,-0.303 0.412,-0.32 0.411,-0.343C0.41,-0.365 0.409,-0.379 0.408,-0.384C0.407,-0.389 0.405,-0.393 0.4,-0.396C0.396,-0.398 0.388,-0.399 0.375,-0.399L0.334,-0.4L0.33,-0.404L0.33,-0.425L0.333,-0.429C0.396,-0.436 0.448,-0.448 0.491,-0.465L0.5,-0.459C0.496,-0.416 0.495,-0.362 0.495,-0.296L0.495,-0.21C0.495,-0.206 0.495,-0.166 0.497,-0.091C0.498,-0.063 0.499,-0.046 0.502,-0.04C0.505,-0.034 0.509,-0.03 0.514,-0.028C0.519,-0.025 0.533,-0.024 0.557,-0.024L0.571,-0.024L0.575,-0.02L0.575,-0L0.571,0.004C0.525,0.001 0.495,-0 0.479,-0C0.459,-0 0.436,0.001 0.41,0.003L0.406,-0C0.408,-0.034 0.409,-0.062 0.41,-0.085C0.39,-0.069 0.366,-0.048 0.34,-0.021C0.33,-0.011 0.315,-0.002 0.296,0.004C0.278,0.011 0.256,0.015 0.232,0.015C0.195,0.015 0.167,0.009 0.147,-0.003C0.126,-0.014 0.112,-0.03 0.104,-0.051C0.095,-0.071 0.091,-0.106 0.091,-0.156L0.091,-0.194L0.091,-0.29C0.091,-0.303 0.091,-0.32 0.089,-0.343C0.088,-0.365 0.087,-0.379 0.086,-0.384C0.085,-0.389 0.083,-0.393 0.079,-0.396C0.074,-0.398 0.066,-0.399 0.053,-0.399L0.012,-0.4L0.008,-0.404L0.008,-0.425L0.012,-0.429C0.074,-0.436 0.126,-0.448 0.169,-0.465Z" style="fill:rgb(35,31,32);fill-rule:nonzero;"/>
        </g>
        <g transform="matrix(37.5,0,0,37.5,333.541,544.716)">
            <path d="M0.022,-0.383L0.022,-0.396L0.026,-0.401C0.056,-0.412 0.081,-0.423 0.1,-0.433C0.1,-0.518 0.099,-0.567 0.097,-0.581C0.131,-0.593 0.158,-0.605 0.18,-0.619L0.191,-0.609C0.188,-0.588 0.184,-0.529 0.18,-0.43C0.196,-0.43 0.214,-0.43 0.232,-0.43C0.271,-0.43 0.298,-0.431 0.315,-0.433L0.318,-0.429L0.309,-0.388L0.305,-0.384C0.289,-0.384 0.27,-0.384 0.25,-0.384C0.232,-0.384 0.208,-0.384 0.18,-0.384L0.177,-0.185C0.177,-0.139 0.178,-0.109 0.18,-0.095C0.182,-0.081 0.188,-0.07 0.198,-0.062C0.207,-0.054 0.221,-0.05 0.24,-0.05C0.262,-0.05 0.282,-0.056 0.301,-0.067L0.313,-0.049C0.305,-0.044 0.286,-0.028 0.256,-0C0.239,0.007 0.222,0.011 0.205,0.011C0.131,0.011 0.095,-0.024 0.095,-0.095C0.095,-0.121 0.095,-0.143 0.097,-0.162C0.097,-0.167 0.097,-0.173 0.097,-0.179L0.097,-0.381L0.077,-0.381C0.063,-0.381 0.046,-0.381 0.027,-0.379L0.022,-0.383Z" style="fill:rgb(35,31,32);fill-rule:nonzero;"/>
        </g>
    </g>
    <g transform="matrix(1,0,0,1,877.695,-14.6679)">
        <g transform="matrix(37.5,0,0,37.5,238.994,544.716)">
            <path d="M0.023,-0.336C0.023,-0.385 0.03,-0.431 0.044,-0.473C0.058,-0.515 0.082,-0.555 0.116,-0.591C0.15,-0.627 0.19,-0.654 0.238,-0.674C0.285,-0.694 0.339,-0.704 0.399,-0.704C0.51,-0.704 0.598,-0.673 0.664,-0.613C0.73,-0.553 0.763,-0.47 0.763,-0.366C0.763,-0.292 0.747,-0.226 0.714,-0.167C0.682,-0.109 0.636,-0.063 0.576,-0.031C0.516,0.002 0.448,0.018 0.374,0.018C0.32,0.018 0.272,0.009 0.227,-0.009C0.182,-0.026 0.144,-0.053 0.113,-0.088C0.082,-0.123 0.059,-0.164 0.045,-0.21C0.031,-0.256 0.023,-0.298 0.023,-0.336ZM0.125,-0.369C0.125,-0.329 0.131,-0.286 0.144,-0.24C0.157,-0.195 0.176,-0.156 0.202,-0.123C0.227,-0.09 0.257,-0.066 0.29,-0.05C0.324,-0.034 0.362,-0.026 0.404,-0.026C0.455,-0.026 0.5,-0.037 0.539,-0.061C0.578,-0.084 0.608,-0.12 0.629,-0.168C0.649,-0.217 0.66,-0.271 0.66,-0.332C0.66,-0.398 0.648,-0.457 0.625,-0.51C0.601,-0.563 0.568,-0.602 0.524,-0.626C0.481,-0.65 0.433,-0.662 0.38,-0.662C0.301,-0.662 0.239,-0.637 0.193,-0.588C0.148,-0.538 0.125,-0.465 0.125,-0.369Z" style="fill:rgb(35,31,32);fill-rule:nonzero;"/>
        </g>
        <g transform="matrix(37.5,0,0,37.5,268.474,544.716)">
            <path d="M0.169,-0.465L0.178,-0.459C0.175,-0.416 0.173,-0.362 0.173,-0.296L0.173,-0.183C0.173,-0.141 0.176,-0.112 0.182,-0.096C0.189,-0.079 0.2,-0.067 0.215,-0.058C0.231,-0.05 0.25,-0.045 0.271,-0.045C0.295,-0.045 0.316,-0.05 0.336,-0.059C0.355,-0.069 0.372,-0.082 0.385,-0.099C0.398,-0.116 0.406,-0.127 0.408,-0.133C0.41,-0.139 0.411,-0.155 0.412,-0.182L0.413,-0.237L0.413,-0.29C0.413,-0.303 0.412,-0.32 0.411,-0.343C0.41,-0.365 0.409,-0.379 0.408,-0.384C0.407,-0.389 0.405,-0.393 0.4,-0.396C0.396,-0.398 0.388,-0.399 0.375,-0.399L0.334,-0.4L0.33,-0.404L0.33,-0.425L0.333,-0.429C0.396,-0.436 0.448,-0.448 0.491,-0.465L0.5,-0.459C0.496,-0.416 0.495,-0.362 0.495,-0.296L0.495,-0.21C0.495,-0.206 0.495,-0.166 0.497,-0.091C0.498,-0.063 0.499,-0.046 0.502,-0.04C0.505,-0.034 0.509,-0.03 0.514,-0.028C0.519,-0.025 0.533,-0.024 0.557,-0.024L0.571,-0.024L0.575,-0.02L0.575,-0L0.571,0.004C0.525,0.001 0.495,-0 0.479,-0C0.459,-0 0.436,0.001 0.41,0.003L0.406,-0C0.408,-0.034 0.409,-0.062 0.41,-0.085C0.39,-0.069 0.366,-0.048 0.34,-0.021C0.33,-0.011 0.315,-0.002 0.296,0.004C0.278,0.011 0.256,0.015 0.232,0.015C0.195,0.015 0.167,0.009 0.147,-0.003C0.126,-0.014 0.112,-0.03 0.104,-0.051C0.095,-0.071 0.091,-0.106 0.091,-0.156L0.091,-0.194L0.091,-0.29C0.091,-0.303 0.091,-0.32 0.089,-0.343C0.088,-0.365 0.087,-0.379 0.086,-0.384C0.085,-0.389 0.083,-0.393 0.079,-0.396C0.074,-0.398 0.066,-0.399 0.053,-0.399L0.012,-0.4L0.008,-0.404L0.008,-0.425L0.012,-0.429C0.074,-0.436 0.126,-0.448 0.169,-0.465Z" style="fill:rgb(35,31,32);fill-rule:nonzero;"/>
        </g>
        <g transform="matrix(37.5,0,0,37.5,291.088,544.716)">
            <path d="M0.022,-0.383L0.022,-0.396L0.026,-0.401C0.056,-0.412 0.081,-0.423 0.1,-0.433C0.1,-0.518 0.099,-0.567 0.097,-0.581C0.131,-0.593 0.158,-0.605 0.18,-0.619L0.191,-0.609C0.188,-0.588 0.184,-0.529 0.18,-0.43C0.196,-0.43 0.214,-0.43 0.232,-0.43C0.271,-0.43 0.298,-0.431 0.315,-0.433L0.318,-0.429L0.309,-0.388L0.305,-0.384C0.289,-0.384 0.27,-0.384 0.25,-0.384C0.232,-0.384 0.208,-0.384 0.18,-0.384L0.177,-0.185C0.177,-0.139 0.178,-0.109 0.18,-0.095C0.182,-0.081 0.188,-0.07 0.198,-0.062C0.207,-0.054 0.221,-0.05 0.24,-0.05C0.262,-0.05 0.282,-0.056 0.301,-0.067L0.313,-0.049C0.305,-0.044 0.286,-0.028 0.256,-0C0.239,0.007 0.222,0.011 0.205,0.011C0.131,0.011 0.095,-0.024 0.095,-0.095C0.095,-0.121 0.095,-0.143 0.097,-0.162C0.097,-0.167 0.097,-0.173 0.097,-0.179L0.097,-0.381L0.077,-0.381C0.063,-0.381 0.046,-0.381 0.027,-0.379L0.022,-0.383Z" style="fill:rgb(35,31,32);fill-rule:nonzero;"/>
        </g>
        <g transform="matrix(37.5,0,0,37.5,303.319,544.716)">
            <path d="M0.181,-0.471L0.19,-0.465C0.187,-0.428 0.185,-0.395 0.185,-0.367C0.229,-0.407 0.26,-0.434 0.277,-0.447C0.295,-0.46 0.325,-0.466 0.367,-0.466C0.394,-0.466 0.418,-0.463 0.44,-0.455C0.462,-0.448 0.482,-0.436 0.5,-0.419C0.519,-0.402 0.534,-0.381 0.544,-0.356C0.555,-0.331 0.561,-0.302 0.561,-0.269C0.561,-0.245 0.557,-0.221 0.549,-0.197C0.542,-0.173 0.532,-0.151 0.52,-0.13C0.508,-0.11 0.498,-0.096 0.49,-0.09C0.483,-0.083 0.468,-0.073 0.445,-0.06C0.425,-0.047 0.404,-0.034 0.384,-0.02C0.37,-0.009 0.361,-0.003 0.355,-0C0.349,0.003 0.34,0.006 0.327,0.009C0.314,0.012 0.3,0.013 0.286,0.013C0.252,0.013 0.218,0.005 0.185,-0.013L0.185,0.091C0.185,0.098 0.185,0.122 0.187,0.16C0.188,0.199 0.189,0.222 0.191,0.229C0.192,0.235 0.194,0.24 0.197,0.243C0.2,0.246 0.204,0.247 0.208,0.248C0.212,0.249 0.23,0.25 0.261,0.252L0.265,0.256L0.265,0.277L0.261,0.281C0.221,0.279 0.181,0.277 0.144,0.277C0.107,0.277 0.068,0.279 0.027,0.281L0.022,0.277L0.022,0.256L0.027,0.252C0.058,0.25 0.076,0.249 0.08,0.248C0.084,0.247 0.088,0.245 0.091,0.242C0.094,0.239 0.096,0.234 0.097,0.227C0.099,0.22 0.1,0.198 0.101,0.162C0.103,0.125 0.104,0.097 0.104,0.079L0.104,-0.295C0.104,-0.312 0.103,-0.332 0.101,-0.354C0.1,-0.377 0.099,-0.389 0.098,-0.393C0.097,-0.397 0.094,-0.4 0.091,-0.402C0.087,-0.404 0.078,-0.405 0.065,-0.405L0.024,-0.406L0.02,-0.41L0.02,-0.431L0.024,-0.435C0.086,-0.442 0.138,-0.454 0.181,-0.471ZM0.185,-0.097C0.2,-0.081 0.218,-0.068 0.24,-0.057C0.262,-0.046 0.287,-0.04 0.313,-0.04C0.345,-0.04 0.373,-0.048 0.397,-0.064C0.421,-0.08 0.44,-0.103 0.454,-0.134C0.467,-0.165 0.474,-0.199 0.474,-0.236C0.474,-0.267 0.468,-0.295 0.456,-0.321C0.444,-0.347 0.426,-0.367 0.401,-0.382C0.376,-0.397 0.349,-0.405 0.321,-0.405C0.304,-0.405 0.287,-0.402 0.271,-0.396C0.255,-0.39 0.24,-0.381 0.225,-0.369C0.211,-0.357 0.201,-0.346 0.195,-0.336C0.189,-0.325 0.185,-0.316 0.185,-0.309C0.185,-0.302 0.185,-0.295 0.185,-0.286L0.185,-0.097Z" style="fill:rgb(35,31,32);fill-rule:nonzero;"/>
        </g>
        <g transform="matrix(37.5,0,0,37.5,325.86,544.716)">
            <path d="M0.169,-0.465L0.178,-0.459C0.175,-0.416 0.173,-0.362 0.173,-0.296L0.173,-0.183C0.173,-0.141 0.176,-0.112 0.182,-0.096C0.189,-0.079 0.2,-0.067 0.215,-0.058C0.231,-0.05 0.25,-0.045 0.271,-0.045C0.295,-0.045 0.316,-0.05 0.336,-0.059C0.355,-0.069 0.372,-0.082 0.385,-0.099C0.398,-0.116 0.406,-0.127 0.408,-0.133C0.41,-0.139 0.411,-0.155 0.412,-0.182L0.413,-0.237L0.413,-0.29C0.413,-0.303 0.412,-0.32 0.411,-0.343C0.41,-0.365 0.409,-0.379 0.408,-0.384C0.407,-0.389 0.405,-0.393 0.4,-0.396C0.396,-0.398 0.388,-0.399 0.375,-0.399L0.334,-0.4L0.33,-0.404L0.33,-0.425L0.333,-0.429C0.396,-0.436 0.448,-0.448 0.491,-0.465L0.5,-0.459C0.496,-0.416 0.495,-0.362 0.495,-0.296L0.495,-0.21C0.495,-0.206 0.495,-0.166 0.497,-0.091C0.498,-0.063 0.499,-0.046 0.502,-0.04C0.505,-0.034 0.509,-0.03 0.514,-0.028C0.519,-0.025 0.533,-0.024 0.557,-0.024L0.571,-0.024L0.575,-0.02L0.575,-0L0.571,0.004C0.525,0.001 0.495,-0 0.479,-0C0.459,-0 0.436,0.001 0.41,0.003L0.406,-0C0.408,-0.034 0.409,-0.062 0.41,-0.085C0.39,-0.069 0.366,-0.048 0.34,-0.021C0.33,-0.011 0.315,-0.002 0.296,0.004C0.278,0.011 0.256,0.015 0.232,0.015C0.195,0.015 0.167,0.009 0.147,-0.003C0.126,-0.014 0.112,-0.03 0.104,-0.051C0.095,-0.071 0.091,-0.106 0.091,-0.156L0.091,-0.194L0.091,-0.29C0.091,-0.303 0.091,-0.32 0.089,-0.343C0.088,-0.365 0.087,-0.379 0.086,-0.384C0.085,-0.389 0.083,-0.393 0.079,-0.396C0.074,-0.398 0.066,-0.399 0.053,-0.399L0.012,-0.4L0.008,-0.404L0.008,-0.425L0.012,-0.429C0.074,-0.436 0.126,-0.448 0.169,-0.465Z" style="fill:rgb(35,31,32);fill-rule:nonzero;"/>
        </g>
        <g transform="matrix(37.5,0,0,37.5,348.473,544.716)">
            <path d="M0.022,-0.383L0.022,-0.396L0.026,-0.401C0.056,-0.412 0.081,-0.423 0.1,-0.433C0.1,-0.518 0.099,-0.567 0.097,-0.581C0.131,-0.593 0.158,-0.605 0.18,-0.619L0.191,-0.609C0.188,-0.588 0.184,-0.529 0.18,-0.43C0.196,-0.43 0.214,-0.43 0.232,-0.43C0.271,-0.43 0.298,-0.431 0.315,-0.433L0.318,-0.429L0.309,-0.388L0.305,-0.384C0.289,-0.384 0.27,-0.384 0.25,-0.384C0.232,-0.384 0.208,-0.384 0.18,-0.384L0.177,-0.185C0.177,-0.139 0.178,-0.109 0.18,-0.095C0.182,-0.081 0.188,-0.07 0.198,-0.062C0.207,-0.054 0.221,-0.05 0.24,-0.05C0.262,-0.05 0.282,-0.056 0.301,-0.067L0.313,-0.049C0.305,-0.044 0.286,-0.028 0.256,-0C0.239,0.007 0.222,0.011 0.205,0.011C0.131,0.011 0.095,-0.024 0.095,-0.095C0.095,-0.121 0.095,-0.143 0.097,-0.162C0.097,-0.167 0.097,-0.173 0.097,-0.179L0.097,-0.381L0.077,-0.381C0.063,-0.381 0.046,-0.381 0.027,-0.379L0.022,-0.383Z" style="fill:rgb(35,31,32);fill-rule:nonzero;"/>
        </g>
    </g>
    <g id="Ebene1">
        <g transform="matrix(1.0113,0,0,1,-110.517,-4.38825)">
            <g transform="matrix(0.988828,-0,-0,1,109.283,4.38825)">
                <path d="M638.65,112.587L647.37,121.65L634.888,123.189L638.65,112.587Z" style="fill:rgb(236,0,140);"/>
                <path d="M115.112,121.65C115.112,121.65 413.741,41.088 638.889,118.641" style="fill:none;stroke:rgb(236,0,140);stroke-width:2.06px;"/>
            </g>
        </g>
        <g transform="matrix(0.910565,0,0,1,456.473,-4.38825)">
            <g transform="matrix(1.09822,-0,-0,1,-501.307,4.38825)">
                <path d="M1130.46,112.301L1138.87,121.65L1126.34,122.771L1130.46,112.301Z" style="fill:rgb(236,0,140);"/>
                <path d="M659.628,121.65C659.628,121.65 927.859,41.284 1130.49,118.359" style="fill:none;stroke:rgb(236,0,140);stroke-width:2.06px;"/>
            </g>
        </g>
        <g transform="matrix(0.648069,0,0,0.648069,-18.1149,39.9686)">
            <rect x="146.367" y="126.038" width="118.415" height="118.415" style="fill:rgb(236,0,140);stroke:black;stroke-width:3.18px;"/>
        </g>
        <g transform="matrix(1.46626,0,0,1.46626,-26.4054,-240.587)">
            <rect x="718.165" y="248.517" width="153.845" height="153.845" style="fill:none;stroke:rgb(236,0,140);stroke-width:2.01px;"/>
        </g>
        <g transform="matrix(1,0,0,1,-186.059,-126.867)">
            <g transform="matrix(4.16667,0,0,4.16667,502.906,163.125)">
                <path d="M2.241,1.423C2.815,1.423 3.236,1.737 3.496,1.737C3.73,1.737 3.783,1.576 3.81,1.423L3.999,1.423L4.196,3.342L3.972,3.342C3.81,2.58 3.227,1.8 2.322,1.8C1.802,1.8 1.398,2.114 1.398,2.625C1.398,3.055 1.703,3.369 2.098,3.638C2.609,3.97 2.761,4.023 3.335,4.4C3.712,4.651 4.402,5.144 4.402,5.996C4.402,6.66 3.873,7.61 2.51,7.61C1.784,7.61 1.398,7.314 1.129,7.314C0.914,7.314 0.851,7.476 0.851,7.61L0.645,7.61L0.376,5.718L0.573,5.718C0.923,6.597 1.452,7.296 2.402,7.296C3.03,7.296 3.478,6.893 3.478,6.283C3.478,5.906 3.38,5.539 2.465,4.983L1.533,4.418C0.977,4.023 0.645,3.656 0.645,2.947C0.645,2.051 1.327,1.423 2.241,1.423Z" style="fill:rgb(236,0,140);fill-rule:nonzero;"/>
            </g>
            <g transform="matrix(4.16667,0,0,4.16667,502.906,163.125)">
                <path d="M8.544,6.086L8.679,6.175C8.195,7.189 7.612,7.574 6.886,7.574C6.168,7.574 5.209,6.991 5.209,5.575C5.209,4.023 6.33,3.36 7.2,3.36C7.612,3.36 7.98,3.53 8.15,3.629C8.392,3.781 8.544,4.077 8.544,4.257C8.544,4.472 8.392,4.66 8.123,4.66C7.818,4.66 7.72,4.337 7.675,4.158C7.585,3.799 7.549,3.62 7.074,3.62C6.662,3.62 5.899,3.943 5.899,5.198C5.899,6.265 6.518,6.938 7.262,6.938C7.917,6.938 8.249,6.543 8.544,6.086Z" style="fill:rgb(236,0,140);fill-rule:nonzero;"/>
            </g>
            <g transform="matrix(4.16667,0,0,4.16667,502.906,163.125)">
                <path d="M12.929,6.893L12.929,7.126C12.669,7.413 12.445,7.574 12.131,7.574C11.674,7.574 11.575,7.26 11.548,6.92C11.199,7.215 10.768,7.574 10.248,7.574C9.674,7.574 9.298,7.171 9.298,6.651C9.298,5.727 10.132,5.422 11.53,4.875L11.53,4.364C11.53,4.203 11.548,3.575 10.849,3.575C10.598,3.575 10.212,3.71 10.212,4.032C10.212,4.14 10.257,4.257 10.257,4.364C10.257,4.606 10.042,4.75 9.836,4.75C9.611,4.75 9.468,4.544 9.468,4.346C9.468,4.023 9.863,3.36 10.93,3.36C11.862,3.36 12.257,3.799 12.257,4.66L12.257,6.561C12.257,6.83 12.257,7.072 12.526,7.072C12.75,7.072 12.929,6.893 12.929,6.893ZM11.53,5.081C10.93,5.306 10.087,5.602 10.087,6.355C10.087,6.722 10.293,7.054 10.669,7.054C10.992,7.054 11.45,6.803 11.485,6.695C11.494,6.651 11.53,6.624 11.53,6.409L11.53,5.081Z" style="fill:rgb(236,0,140);fill-rule:nonzero;"/>
            </g>
            <g transform="matrix(4.16667,0,0,4.16667,502.906,163.125)">
                <path d="M13.126,7.484L13.126,7.359C13.682,7.323 13.817,7.189 13.817,6.713L13.817,2.436C13.817,2.069 13.799,1.889 13.395,1.889C13.27,1.889 13.243,1.889 13.117,1.898L13.117,1.764C13.53,1.665 14.417,1.405 14.534,1.36L14.579,1.36L14.579,6.713C14.579,7.224 14.677,7.323 15.251,7.359L15.251,7.484L13.126,7.484Z" style="fill:rgb(236,0,140);fill-rule:nonzero;"/>
            </g>
            <g transform="matrix(4.16667,0,0,4.16667,502.906,163.125)">
                <path d="M19.403,6.893L19.403,7.126C19.143,7.413 18.919,7.574 18.605,7.574C18.147,7.574 18.049,7.26 18.022,6.92C17.672,7.215 17.242,7.574 16.722,7.574C16.148,7.574 15.771,7.171 15.771,6.651C15.771,5.727 16.605,5.422 18.004,4.875L18.004,4.364C18.004,4.203 18.022,3.575 17.323,3.575C17.071,3.575 16.686,3.71 16.686,4.032C16.686,4.14 16.731,4.257 16.731,4.364C16.731,4.606 16.516,4.75 16.309,4.75C16.085,4.75 15.942,4.544 15.942,4.346C15.942,4.023 16.336,3.36 17.403,3.36C18.336,3.36 18.73,3.799 18.73,4.66L18.73,6.561C18.73,6.83 18.73,7.072 18.999,7.072C19.223,7.072 19.403,6.893 19.403,6.893ZM18.004,5.081C17.403,5.306 16.56,5.602 16.56,6.355C16.56,6.722 16.767,7.054 17.143,7.054C17.466,7.054 17.923,6.803 17.959,6.695C17.968,6.651 18.004,6.624 18.004,6.409L18.004,5.081Z" style="fill:rgb(236,0,140);fill-rule:nonzero;"/>
            </g>
            <g transform="matrix(4.16667,0,0,4.16667,502.906,163.125)">
                <path d="M20.819,3.36L20.837,3.378L20.837,4.185L20.873,4.185C21.079,3.889 21.393,3.36 21.913,3.36C22.245,3.36 22.424,3.575 22.424,3.844C22.424,4.023 22.344,4.248 22.075,4.248C21.77,4.248 21.662,3.934 21.456,3.934C21.295,3.934 20.837,4.319 20.837,4.696L20.837,6.722C20.837,7.189 21.026,7.35 21.6,7.35L21.6,7.484L19.466,7.484L19.466,7.35C20.066,7.26 20.093,7.117 20.093,6.695L20.093,4.436C20.093,3.889 19.824,3.943 19.761,3.943C19.663,3.943 19.591,3.961 19.474,3.988L19.474,3.844C19.824,3.737 20.819,3.36 20.819,3.36Z" style="fill:rgb(236,0,140);fill-rule:nonzero;"/>
            </g>
        </g>
        <g transform="matrix(1,0,0,1,23.7338,-126.867)">
            <g transform="matrix(4.16667,0,0,4.16667,502.906,163.125)">
                <path d="M27.816,3.306C28.354,3.306 29.026,3.746 29.026,4.544C29.026,5.117 28.515,5.727 27.816,5.727C27.143,5.727 26.605,5.189 26.605,4.579C26.605,3.997 26.991,3.306 27.816,3.306Z" style="fill:rgb(35,31,32);fill-rule:nonzero;"/>
            </g>
            <g transform="matrix(4.16667,0,0,4.16667,399.348,163.125)">
                <path d="M62.083,6.444C62.083,6.301 61.949,6.301 61.85,6.301C61.671,6.301 61.671,6.31 61.599,6.471C61.42,6.902 61.016,7.153 60.487,7.153C59.214,7.153 59.214,5.862 59.214,5.458C59.214,4.92 59.223,3.808 60.397,3.808C60.46,3.808 60.944,3.817 60.944,3.862C60.944,3.871 60.926,3.898 60.918,3.907C60.837,4.006 60.801,4.149 60.801,4.275C60.801,4.642 61.079,4.857 61.384,4.857C61.662,4.857 61.967,4.669 61.967,4.266C61.967,3.423 60.711,3.423 60.362,3.423C58.64,3.423 58.021,4.517 58.021,5.494C58.021,6.624 58.828,7.538 60.317,7.538C60.649,7.538 61.088,7.485 61.464,7.251C61.976,6.938 62.083,6.471 62.083,6.444Z" style="fill:rgb(35,31,32);fill-rule:nonzero;"/>
            </g>
        </g>
    </g>
</svg>
