<?xml version="1.0" encoding="UTF-8" standalone="no"?>
<!DOCTYPE svg PUBLIC "-//W3C//DTD SVG 1.1//EN" "http://www.w3.org/Graphics/SVG/1.1/DTD/svg11.dtd">
<svg width="100%" height="100%" viewBox="0 0 605 189" version="1.1" xmlns="http://www.w3.org/2000/svg" xmlns:xlink="http://www.w3.org/1999/xlink" xml:space="preserve" xmlns:serif="http://www.serif.com/" style="fill-rule:evenodd;clip-rule:evenodd;stroke-linejoin:round;stroke-miterlimit:2;">
    <g id="_3" serif:id="3" transform="matrix(0.808622,0,0,0.808622,183.796,4.28182)">
        <g transform="matrix(4.16667,0,0,4.16667,-574.538,-2004.4)">
            <rect x="257.084" y="488.426" width="5.514" height="44.092" style="fill:white;"/>
        </g>
        <g transform="matrix(4.16667,0,0,4.16667,-574.538,-2004.4)">
            <path d="M262.599,532.519L262.599,532.296L257.307,532.296L257.307,488.649L262.377,488.649L262.377,532.519L262.599,532.519L262.599,532.296L262.599,532.519L262.821,532.519L262.821,488.204L256.862,488.204L256.862,532.741L262.821,532.741L262.821,532.519L262.599,532.519" style="fill:rgb(3,4,4);fill-rule:nonzero;"/>
        </g>
        <g transform="matrix(4.16667,0,0,4.16667,-574.538,-1843.22)">
            <rect x="159.966" y="488.373" width="5.515" height="5.515" style="fill:white;"/>
        </g>
        <g transform="matrix(4.16667,0,0,4.16667,-574.538,-1843.22)">
            <path d="M165.48,493.889L165.48,493.74L160.114,493.74L160.114,488.522L165.332,488.522L165.332,493.889L165.48,493.889L165.48,493.74L165.48,493.889L165.629,493.889L165.629,488.374L165.585,488.269L165.48,488.225L159.966,488.225L159.861,488.269L159.818,488.374L159.818,493.889L159.861,493.993L159.966,494.037L165.48,494.037L165.585,493.993L165.629,493.889L165.48,493.889" style="fill:rgb(3,4,4);fill-rule:nonzero;"/>
        </g>
        <g transform="matrix(4.16667,0,0,4.16667,-574.538,-1889.18)">
            <path d="M165.48,499.404L165.48,499.255L160.114,499.255L160.114,494.037L165.332,494.037L165.332,499.404L165.48,499.404L165.48,499.255L165.48,499.404L165.629,499.404L165.629,493.74L159.818,493.74L159.818,499.552L165.629,499.552L165.629,499.404L165.48,499.404" style="fill:rgb(3,4,4);fill-rule:nonzero;"/>
        </g>
        <g transform="matrix(4.16667,0,0,4.16667,-574.538,-1935.13)">
            <rect x="159.966" y="499.403" width="5.515" height="5.515" style="fill:white;"/>
        </g>
        <g transform="matrix(4.16667,0,0,4.16667,-574.538,-1935.13)">
            <path d="M165.48,504.918L165.48,504.769L160.114,504.769L160.114,499.551L165.332,499.551L165.332,504.918L165.48,504.918L165.48,504.769L165.48,504.918L165.629,504.918L165.629,499.403L165.585,499.298L165.48,499.255L159.966,499.255L159.861,499.298L159.818,499.403L159.818,504.918L159.861,505.023L159.966,505.066L165.48,505.066L165.585,505.023L165.629,504.918L165.48,504.918" style="fill:rgb(3,4,4);fill-rule:nonzero;"/>
        </g>
        <g transform="matrix(4.16667,0,0,4.16667,-574.538,-1981.09)">
            <rect x="159.966" y="504.918" width="5.515" height="5.514" style="fill:white;"/>
        </g>
        <g transform="matrix(4.16667,0,0,4.16667,-574.538,-1981.09)">
            <path d="M165.48,510.432L165.48,510.284L160.114,510.284L160.114,505.066L165.332,505.066L165.332,510.432L165.48,510.432L165.48,510.284L165.48,510.432L165.629,510.432L165.629,504.918L165.585,504.813L165.48,504.77L159.966,504.77L159.861,504.813L159.818,504.918L159.818,510.432L159.861,510.537L159.966,510.58L165.48,510.58L165.585,510.537L165.629,510.432L165.48,510.432" style="fill:rgb(3,4,4);fill-rule:nonzero;"/>
        </g>
        <g transform="matrix(4.16667,0,0,4.16667,-574.538,-2072.79)">
            <rect x="159.966" y="515.922" width="5.515" height="5.514" style="fill:white;"/>
        </g>
        <g transform="matrix(4.16667,0,0,4.16667,-574.538,-2072.79)">
            <path d="M165.48,521.437L165.48,521.289L160.114,521.289L160.114,516.071L165.332,516.071L165.332,521.437L165.48,521.437L165.48,521.289L165.48,521.437L165.629,521.437L165.629,515.923L165.585,515.818L165.48,515.774L159.966,515.774L159.861,515.818L159.818,515.923L159.818,521.437L159.861,521.541L159.966,521.585L165.48,521.585L165.585,521.541L165.629,521.437L165.48,521.437" style="fill:rgb(3,4,4);fill-rule:nonzero;"/>
        </g>
        <g transform="matrix(4.16667,0,0,4.16667,-574.538,-2118.74)">
            <rect x="159.966" y="521.436" width="5.515" height="5.515" style="fill:white;"/>
        </g>
        <g transform="matrix(4.16667,0,0,4.16667,-574.538,-2118.75)">
            <path d="M165.48,526.952L165.48,526.803L160.114,526.803L160.114,521.585L165.332,521.585L165.332,526.952L165.48,526.952L165.48,526.803L165.48,526.952L165.629,526.952L165.629,521.437L165.585,521.332L165.48,521.288L159.966,521.288L159.861,521.332L159.818,521.437L159.818,526.952L159.861,527.056L159.966,527.1L165.48,527.1L165.585,527.056L165.629,526.952L165.48,526.952" style="fill:rgb(3,4,4);fill-rule:nonzero;"/>
        </g>
        <g transform="matrix(4.16667,0,0,4.16667,-574.538,-2164.7)">
            <rect x="159.966" y="526.951" width="5.515" height="5.514" style="fill:white;"/>
        </g>
        <g transform="matrix(4.16667,0,0,4.16667,-574.538,-2164.7)">
            <path d="M165.48,532.466L165.48,532.317L160.114,532.317L160.114,527.1L165.332,527.1L165.332,532.466L165.48,532.466L165.48,532.317L165.48,532.466L165.629,532.466L165.629,526.951L165.585,526.847L165.48,526.803L159.966,526.803L159.861,526.847L159.818,526.951L159.818,532.466L159.861,532.571L159.966,532.614L165.48,532.614L165.585,532.571L165.629,532.466L165.48,532.466" style="fill:rgb(3,4,4);fill-rule:nonzero;"/>
        </g>
        <g transform="matrix(4.16667,0,0,4.16667,-574.538,-1843.33)">
            <rect x="154.353" y="488.386" width="5.514" height="5.515" style="fill:white;"/>
        </g>
        <g transform="matrix(4.16667,0,0,4.16667,-574.538,-1843.33)">
            <path d="M159.867,493.902L159.867,493.753L154.501,493.753L154.501,488.535L159.719,488.535L159.719,493.902L159.867,493.902L159.867,493.753L159.867,493.902L160.015,493.902L160.015,488.387L159.972,488.282L159.867,488.238L154.353,488.238L154.248,488.282L154.205,488.387L154.205,493.902L154.248,494.006L154.353,494.05L159.867,494.05L159.972,494.006L160.015,493.902L159.867,493.902" style="fill:rgb(34,30,31);fill-rule:nonzero;"/>
        </g>
        <g transform="matrix(4.16667,0,0,4.16667,-574.538,-1889.28)">
            <rect x="154.353" y="493.901" width="5.514" height="5.515" style="fill:white;"/>
        </g>
        <g transform="matrix(4.16667,0,0,4.16667,-574.538,-1889.28)">
            <path d="M159.867,499.416L159.867,499.267L154.501,499.267L154.501,494.049L159.719,494.049L159.719,499.416L159.867,499.416L159.867,499.267L159.867,499.416L160.015,499.416L160.015,493.901L159.972,493.796L159.867,493.753L154.353,493.753L154.248,493.796L154.205,493.901L154.205,499.416L154.248,499.521L154.353,499.564L159.867,499.564L159.972,499.521L160.015,499.416L159.867,499.416" style="fill:rgb(34,30,31);fill-rule:nonzero;"/>
        </g>
        <g transform="matrix(4.16667,0,0,4.16667,-574.538,-1935.24)">
            <rect x="154.353" y="499.416" width="5.514" height="5.515" style="fill:white;"/>
        </g>
        <g transform="matrix(4.16667,0,0,4.16667,-574.538,-1935.24)">
            <path d="M159.867,504.931L159.867,504.783L154.501,504.783L154.501,499.565L159.719,499.565L159.719,504.931L159.867,504.931L159.867,504.783L159.867,504.931L160.015,504.931L160.015,499.416L159.972,499.311L159.867,499.268L154.353,499.268L154.248,499.311L154.205,499.416L154.205,504.931L154.248,505.036L154.353,505.079L159.867,505.079L159.972,505.036L160.015,504.931L159.867,504.931" style="fill:rgb(34,30,31);fill-rule:nonzero;"/>
        </g>
        <g transform="matrix(4.16667,0,0,4.16667,-574.538,-1981.2)">
            <rect x="154.353" y="504.931" width="5.514" height="5.515" style="fill:white;"/>
        </g>
        <g transform="matrix(4.16667,0,0,4.16667,-574.538,-1981.2)">
            <path d="M159.867,510.445L159.867,510.297L154.501,510.297L154.501,505.079L159.719,505.079L159.719,510.445L159.867,510.445L159.867,510.297L159.867,510.445L160.015,510.445L160.015,504.93L159.972,504.826L159.867,504.782L154.353,504.782L154.248,504.826L154.205,504.93L154.205,510.445L154.248,510.55L154.353,510.594L159.867,510.594L159.972,510.55L160.015,510.445L159.867,510.445" style="fill:rgb(34,30,31);fill-rule:nonzero;"/>
        </g>
        <g transform="matrix(4.16667,0,0,4.16667,-574.538,-2026.94)">
            <rect x="154.353" y="510.42" width="5.514" height="5.514" style="fill:white;"/>
        </g>
        <g transform="matrix(4.16667,0,0,4.16667,-574.538,-2026.94)">
            <path d="M159.867,515.935L159.867,515.787L154.501,515.787L154.501,510.568L159.719,510.568L159.719,515.935L159.867,515.935L159.867,515.787L159.867,515.935L160.015,515.935L160.015,510.42L159.972,510.315L159.867,510.272L154.353,510.272L154.248,510.315L154.205,510.42L154.205,515.935L154.248,516.04L154.353,516.083L159.867,516.083L159.972,516.04L160.015,515.935L159.867,515.935" style="fill:rgb(34,30,31);fill-rule:nonzero;"/>
        </g>
        <g transform="matrix(4.16667,0,0,4.16667,-574.538,-2118.86)">
            <rect x="154.353" y="521.45" width="5.514" height="5.515" style="fill:white;"/>
        </g>
        <g transform="matrix(4.16667,0,0,4.16667,-574.538,-2118.86)">
            <path d="M159.867,526.965L159.867,526.817L154.501,526.817L154.501,521.599L159.719,521.599L159.719,526.965L159.867,526.965L159.867,526.817L159.867,526.965L160.015,526.965L160.015,521.451L159.972,521.345L159.867,521.302L154.353,521.302L154.248,521.345L154.205,521.451L154.205,526.965L154.248,527.07L154.353,527.113L159.867,527.113L159.972,527.07L160.015,526.965L159.867,526.965" style="fill:rgb(34,30,31);fill-rule:nonzero;"/>
        </g>
        <g transform="matrix(4.16667,0,0,4.16667,-574.538,-2164.81)">
            <path d="M159.867,532.479L159.867,532.33L154.501,532.33L154.501,527.113L159.719,527.113L159.719,532.479L159.867,532.479L159.867,532.33L159.867,532.479L160.015,532.479L160.015,526.816L154.205,526.816L154.205,532.627L160.015,532.627L160.015,532.479L159.867,532.479" style="fill:rgb(3,4,4);fill-rule:nonzero;"/>
        </g>
        <g transform="matrix(4.16667,0,0,4.16667,-574.538,-1843.44)">
            <rect x="148.937" y="488.4" width="5.514" height="5.515" style="fill:white;"/>
        </g>
        <g transform="matrix(4.16667,0,0,4.16667,-574.538,-1843.44)">
            <path d="M154.452,493.915L154.452,493.767L149.086,493.767L149.086,488.549L154.303,488.549L154.303,493.915L154.452,493.915L154.452,493.767L154.452,493.915L154.6,493.915L154.6,488.401L154.556,488.296L154.452,488.252L148.937,488.252L148.832,488.296L148.789,488.401L148.789,493.915L148.832,494.02L148.937,494.063L154.452,494.063L154.556,494.02L154.6,493.915L154.452,493.915" style="fill:rgb(34,30,31);fill-rule:nonzero;"/>
        </g>
        <g transform="matrix(4.16667,0,0,4.16667,-574.538,-1889.39)">
            <rect x="148.937" y="493.914" width="5.514" height="5.515" style="fill:white;"/>
        </g>
        <g transform="matrix(4.16667,0,0,4.16667,-574.538,-1889.4)">
            <path d="M154.452,499.43L154.452,499.281L149.086,499.281L149.086,494.063L154.303,494.063L154.303,499.43L154.452,499.43L154.452,499.281L154.452,499.43L154.6,499.43L154.6,493.915L154.556,493.81L154.452,493.766L148.937,493.766L148.832,493.81L148.789,493.915L148.789,499.43L148.832,499.534L148.937,499.578L154.452,499.578L154.556,499.534L154.6,499.43L154.452,499.43" style="fill:rgb(34,30,31);fill-rule:nonzero;"/>
        </g>
        <g transform="matrix(4.16667,0,0,4.16667,-574.538,-1935.35)">
            <rect x="148.937" y="499.429" width="5.514" height="5.515" style="fill:white;"/>
        </g>
        <g transform="matrix(4.16667,0,0,4.16667,-574.538,-1935.35)">
            <path d="M154.452,504.944L154.452,504.795L149.086,504.795L149.086,499.577L154.303,499.577L154.303,504.944L154.452,504.944L154.452,504.795L154.452,504.944L154.6,504.944L154.6,499.429L154.556,499.324L154.452,499.281L148.937,499.281L148.832,499.324L148.789,499.429L148.789,504.944L148.832,505.048L148.937,505.092L154.452,505.092L154.556,505.048L154.6,504.944L154.452,504.944" style="fill:rgb(34,30,31);fill-rule:nonzero;"/>
        </g>
        <g transform="matrix(4.16667,0,0,4.16667,-574.538,-1981.31)">
            <rect x="148.937" y="504.944" width="5.514" height="5.515" style="fill:white;"/>
        </g>
        <g transform="matrix(4.16667,0,0,4.16667,-574.538,-1981.31)">
            <path d="M154.452,510.459L154.452,510.311L149.086,510.311L149.086,505.092L154.303,505.092L154.303,510.459L154.452,510.459L154.452,510.311L154.452,510.459L154.6,510.459L154.6,504.944L154.556,504.839L154.452,504.796L148.937,504.796L148.832,504.839L148.789,504.944L148.789,510.459L148.832,510.564L148.937,510.607L154.452,510.607L154.556,510.564L154.6,510.459L154.452,510.459" style="fill:rgb(34,30,31);fill-rule:nonzero;"/>
        </g>
        <g transform="matrix(4.16667,0,0,4.16667,-574.538,-2027.06)">
            <rect x="148.937" y="510.434" width="5.514" height="5.515" style="fill:white;"/>
        </g>
        <g transform="matrix(4.16667,0,0,4.16667,-574.538,-2027.05)">
            <path d="M154.452,515.947L154.452,515.799L149.086,515.799L149.086,510.581L154.303,510.581L154.303,515.947L154.452,515.947L154.452,515.799L154.452,515.947L154.6,515.947L154.6,510.433L154.556,510.328L154.452,510.285L148.937,510.285L148.832,510.328L148.789,510.433L148.789,515.947L148.832,516.052L148.937,516.096L154.452,516.096L154.556,516.052L154.6,515.947L154.452,515.947" style="fill:rgb(34,30,31);fill-rule:nonzero;"/>
        </g>
        <g transform="matrix(4.16667,0,0,4.16667,-574.538,-2073.01)">
            <rect x="148.937" y="515.948" width="5.514" height="5.514" style="fill:white;"/>
        </g>
        <g transform="matrix(4.16667,0,0,4.16667,-574.538,-2073.01)">
            <path d="M154.452,521.463L154.452,521.315L149.086,521.315L149.086,516.096L154.303,516.096L154.303,521.463L154.452,521.463L154.452,521.315L154.452,521.463L154.6,521.463L154.6,515.948L154.556,515.843L154.452,515.8L148.937,515.8L148.832,515.843L148.789,515.948L148.789,521.463L148.832,521.568L148.937,521.611L154.452,521.611L154.556,521.568L154.6,521.463L154.452,521.463" style="fill:rgb(34,30,31);fill-rule:nonzero;"/>
        </g>
        <g transform="matrix(4.16667,0,0,4.16667,-574.538,-2164.92)">
            <rect x="148.937" y="526.978" width="5.514" height="5.514" style="fill:white;"/>
        </g>
        <g transform="matrix(4.16667,0,0,4.16667,-574.538,-2164.92)">
            <path d="M154.452,532.492L154.452,532.344L149.086,532.344L149.086,527.127L154.303,527.127L154.303,532.492L154.452,532.492L154.452,532.344L154.452,532.492L154.6,532.492L154.6,526.979L154.556,526.874L154.452,526.83L148.937,526.83L148.832,526.874L148.789,526.979L148.789,532.492L148.832,532.597L148.937,532.64L154.452,532.64L154.556,532.597L154.6,532.492L154.452,532.492" style="fill:rgb(34,30,31);fill-rule:nonzero;"/>
        </g>
        <g transform="matrix(4.16667,0,0,4.16667,-574.538,-1843.55)">
            <rect x="143.423" y="488.413" width="5.515" height="5.515" style="fill:white;"/>
        </g>
        <g transform="matrix(4.16667,0,0,4.16667,-574.538,-1843.55)">
            <path d="M148.938,493.928L148.938,493.78L143.571,493.78L143.571,488.561L148.789,488.561L148.789,493.928L148.938,493.928L148.938,493.78L148.938,493.928L149.086,493.928L149.086,488.413L149.043,488.308L148.938,488.265L143.423,488.265L143.318,488.308L143.275,488.413L143.275,493.928L143.318,494.033L143.423,494.076L148.938,494.076L149.043,494.033L149.086,493.928L148.938,493.928" style="fill:rgb(34,30,31);fill-rule:nonzero;"/>
        </g>
        <g transform="matrix(4.16667,0,0,4.16667,-574.538,-1889.51)">
            <rect x="143.423" y="493.928" width="5.515" height="5.515" style="fill:white;"/>
        </g>
        <g transform="matrix(4.16667,0,0,4.16667,-574.538,-1889.51)">
            <path d="M148.938,499.443L148.938,499.295L143.571,499.295L143.571,494.076L148.789,494.076L148.789,499.443L148.938,499.443L148.938,499.295L148.938,499.443L149.086,499.443L149.086,493.928L149.043,493.824L148.938,493.78L143.423,493.78L143.318,493.824L143.275,493.928L143.275,499.443L143.318,499.548L143.423,499.591L148.938,499.591L149.043,499.548L149.086,499.443L148.938,499.443" style="fill:rgb(34,30,31);fill-rule:nonzero;"/>
        </g>
        <g transform="matrix(4.16667,0,0,4.16667,-574.538,-1935.47)">
            <rect x="143.423" y="499.443" width="5.515" height="5.515" style="fill:white;"/>
        </g>
        <g transform="matrix(4.16667,0,0,4.16667,-574.538,-1935.46)">
            <path d="M148.938,504.957L148.938,504.809L143.571,504.809L143.571,499.591L148.789,499.591L148.789,504.957L148.938,504.957L148.938,504.809L148.938,504.957L149.086,504.957L149.086,499.443L149.043,499.338L148.938,499.295L143.423,499.295L143.318,499.338L143.275,499.443L143.275,504.957L143.318,505.062L143.423,505.105L148.938,505.105L149.043,505.062L149.086,504.957L148.938,504.957" style="fill:rgb(34,30,31);fill-rule:nonzero;"/>
        </g>
        <g transform="matrix(4.16667,0,0,4.16667,-574.538,-1981.42)">
            <path d="M148.938,510.472L148.938,510.324L143.571,510.324L143.571,505.105L148.789,505.105L148.789,510.472L148.938,510.472L148.938,510.324L148.938,510.472L149.086,510.472L149.086,504.809L143.275,504.809L143.275,510.62L149.086,510.62L149.086,510.472L148.938,510.472" style="fill:rgb(3,4,4);fill-rule:nonzero;"/>
        </g>
        <g transform="matrix(4.16667,0,0,4.16667,-574.538,-2027.17)">
            <rect x="143.423" y="510.447" width="5.515" height="5.515" style="fill:white;"/>
        </g>
        <g transform="matrix(4.16667,0,0,4.16667,-574.538,-2027.16)">
            <path d="M148.938,515.961L148.938,515.813L143.571,515.813L143.571,510.595L148.789,510.595L148.789,515.961L148.938,515.961L148.938,515.813L148.938,515.961L149.086,515.961L149.086,510.446L149.043,510.342L148.938,510.298L143.423,510.298L143.318,510.342L143.275,510.446L143.275,515.961L143.318,516.066L143.423,516.11L148.938,516.11L149.043,516.066L149.086,515.961L148.938,515.961" style="fill:rgb(34,30,31);fill-rule:nonzero;"/>
        </g>
        <g transform="matrix(4.16667,0,0,4.16667,-574.538,-2073.13)">
            <rect x="143.423" y="515.962" width="5.515" height="5.515" style="fill:white;"/>
        </g>
        <g transform="matrix(4.16667,0,0,4.16667,-574.538,-2073.12)">
            <path d="M148.938,521.476L148.938,521.328L143.571,521.328L143.571,516.11L148.789,516.11L148.789,521.476L148.938,521.476L148.938,521.328L148.938,521.476L149.086,521.476L149.086,515.961L149.043,515.857L148.938,515.813L143.423,515.813L143.318,515.857L143.275,515.961L143.275,521.476L143.318,521.581L143.423,521.625L148.938,521.625L149.043,521.581L149.086,521.476L148.938,521.476" style="fill:rgb(34,30,31);fill-rule:nonzero;"/>
        </g>
        <g transform="matrix(4.16667,0,0,4.16667,-574.538,-2119.08)">
            <rect x="143.423" y="521.477" width="5.515" height="5.515" style="fill:white;"/>
        </g>
        <g transform="matrix(4.16667,0,0,4.16667,-574.538,-2119.08)">
            <path d="M148.938,526.99L148.938,526.842L143.571,526.842L143.571,521.624L148.789,521.624L148.789,526.99L148.938,526.99L148.938,526.842L148.938,526.99L149.086,526.99L149.086,521.476L149.043,521.371L148.938,521.328L143.423,521.328L143.318,521.371L143.275,521.476L143.275,526.99L143.318,527.096L143.423,527.139L148.938,527.139L149.043,527.096L149.086,526.99L148.938,526.99" style="fill:rgb(34,30,31);fill-rule:nonzero;"/>
        </g>
        <g transform="matrix(4.16667,0,0,4.16667,-574.538,-1888.65)">
            <rect x="182.024" y="493.825" width="5.514" height="5.515" style="fill:white;"/>
        </g>
        <g transform="matrix(4.16667,0,0,4.16667,-574.538,-1888.65)">
            <path d="M187.538,499.34L187.538,499.192L182.172,499.192L182.172,493.973L187.389,493.973L187.389,499.34L187.538,499.34L187.538,499.192L187.538,499.34L187.686,499.34L187.686,493.825L187.642,493.72L187.538,493.677L182.024,493.677L181.919,493.72L181.875,493.825L181.875,499.34L181.919,499.444L182.024,499.488L187.538,499.488L187.642,499.444L187.686,499.34L187.538,499.34" style="fill:rgb(3,4,4);fill-rule:nonzero;"/>
        </g>
        <g transform="matrix(4.16667,0,0,4.16667,-574.538,-1934.61)">
            <path d="M187.538,504.855L187.538,504.707L182.172,504.707L182.172,499.488L187.389,499.488L187.389,504.855L187.538,504.855L187.538,504.707L187.538,504.855L187.686,504.855L187.686,499.192L181.875,499.192L181.875,505.003L187.686,505.003L187.686,504.855L187.538,504.855" style="fill:rgb(3,4,4);fill-rule:nonzero;"/>
        </g>
        <g transform="matrix(4.16667,0,0,4.16667,-574.538,-1980.56)">
            <rect x="182.024" y="504.855" width="5.514" height="5.514" style="fill:white;"/>
        </g>
        <g transform="matrix(4.16667,0,0,4.16667,-574.538,-1980.57)">
            <path d="M187.538,510.37L187.538,510.222L182.172,510.222L182.172,505.004L187.389,505.004L187.389,510.37L187.538,510.37L187.538,510.222L187.538,510.37L187.686,510.37L187.686,504.856L187.642,504.751L187.538,504.707L182.024,504.707L181.919,504.751L181.875,504.856L181.875,510.37L181.919,510.475L182.024,510.518L187.538,510.518L187.642,510.475L187.686,510.37L187.538,510.37" style="fill:rgb(3,4,4);fill-rule:nonzero;"/>
        </g>
        <g transform="matrix(4.16667,0,0,4.16667,-574.538,-2026.31)">
            <rect x="182.024" y="510.344" width="5.514" height="5.515" style="fill:white;"/>
        </g>
        <g transform="matrix(4.16667,0,0,4.16667,-574.538,-2026.31)">
            <path d="M187.538,515.859L187.538,515.71L182.172,515.71L182.172,510.492L187.389,510.492L187.389,515.859L187.538,515.859L187.538,515.71L187.538,515.859L187.686,515.859L187.686,510.344L187.642,510.239L187.538,510.196L182.024,510.196L181.919,510.239L181.875,510.344L181.875,515.859L181.919,515.964L182.024,516.007L187.538,516.007L187.642,515.964L187.686,515.859L187.538,515.859" style="fill:rgb(3,4,4);fill-rule:nonzero;"/>
        </g>
        <g transform="matrix(4.16667,0,0,4.16667,-574.538,-2072.27)">
            <rect x="182.024" y="515.859" width="5.514" height="5.514" style="fill:white;"/>
        </g>
        <g transform="matrix(4.16667,0,0,4.16667,-574.538,-2072.26)">
            <path d="M187.538,521.373L187.538,521.225L182.172,521.225L182.172,516.007L187.389,516.007L187.389,521.373L187.538,521.373L187.538,521.225L187.538,521.373L187.686,521.373L187.686,515.859L187.642,515.754L187.538,515.711L182.024,515.711L181.919,515.754L181.875,515.859L181.875,521.373L181.919,521.478L182.024,521.521L187.538,521.521L187.642,521.478L187.686,521.373L187.538,521.373" style="fill:rgb(3,4,4);fill-rule:nonzero;"/>
        </g>
        <g transform="matrix(4.16667,0,0,4.16667,-574.538,-2118.22)">
            <rect x="182.024" y="521.373" width="5.514" height="5.515" style="fill:white;"/>
        </g>
        <g transform="matrix(4.16667,0,0,4.16667,-574.538,-2118.22)">
            <path d="M187.538,526.888L187.538,526.74L182.172,526.74L182.172,521.521L187.389,521.521L187.389,526.888L187.538,526.888L187.538,526.74L187.538,526.888L187.686,526.888L187.686,521.373L187.642,521.268L187.538,521.225L182.024,521.225L181.919,521.268L181.875,521.373L181.875,526.888L181.919,526.993L182.024,527.036L187.538,527.036L187.642,526.993L187.686,526.888L187.538,526.888" style="fill:rgb(3,4,4);fill-rule:nonzero;"/>
        </g>
        <g transform="matrix(4.16667,0,0,4.16667,-574.538,-2164.17)">
            <rect x="182.024" y="526.888" width="5.514" height="5.514" style="fill:white;"/>
        </g>
        <g transform="matrix(4.16667,0,0,4.16667,-574.538,-2164.18)">
            <path d="M187.538,532.403L187.538,532.255L182.172,532.255L182.172,527.037L187.389,527.037L187.389,532.403L187.538,532.403L187.538,532.255L187.538,532.403L187.686,532.403L187.686,526.889L187.642,526.784L187.538,526.74L182.024,526.74L181.919,526.784L181.875,526.889L181.875,532.403L181.919,532.508L182.024,532.551L187.538,532.551L187.642,532.508L187.686,532.403L187.538,532.403" style="fill:rgb(3,4,4);fill-rule:nonzero;"/>
        </g>
        <g transform="matrix(4.16667,0,0,4.16667,-574.538,-1842.8)">
            <rect x="176.411" y="488.323" width="5.515" height="5.515" style="fill:white;"/>
        </g>
        <g transform="matrix(4.16667,0,0,4.16667,-574.538,-1842.8)">
            <path d="M181.925,493.838L181.925,493.69L176.559,493.69L176.559,488.471L181.777,488.471L181.777,493.838L181.925,493.838L181.925,493.69L181.925,493.838L182.073,493.838L182.073,488.323L182.03,488.218L181.925,488.175L176.411,488.175L176.305,488.218L176.262,488.323L176.262,493.838L176.305,493.943L176.411,493.986L181.925,493.986L182.03,493.943L182.073,493.838L181.925,493.838" style="fill:rgb(34,30,31);fill-rule:nonzero;"/>
        </g>
        <g transform="matrix(4.16667,0,0,4.16667,-574.538,-1888.76)">
            <rect x="176.411" y="493.838" width="5.515" height="5.515" style="fill:white;"/>
        </g>
        <g transform="matrix(4.16667,0,0,4.16667,-574.538,-1888.76)">
            <path d="M181.925,499.353L181.925,499.205L176.559,499.205L176.559,493.986L181.777,493.986L181.777,499.353L181.925,499.353L181.925,499.205L181.925,499.353L182.073,499.353L182.073,493.838L182.03,493.733L181.925,493.69L176.411,493.69L176.305,493.733L176.262,493.838L176.262,499.353L176.305,499.458L176.411,499.501L181.925,499.501L182.03,499.458L182.073,499.353L181.925,499.353" style="fill:rgb(3,4,4);fill-rule:nonzero;"/>
        </g>
        <g transform="matrix(4.16667,0,0,4.16667,-574.538,-1934.72)">
            <rect x="176.411" y="499.353" width="5.515" height="5.515" style="fill:white;"/>
        </g>
        <g transform="matrix(4.16667,0,0,4.16667,-574.538,-1934.72)">
            <path d="M181.925,504.868L181.925,504.72L176.559,504.72L176.559,499.501L181.777,499.501L181.777,504.868L181.925,504.868L181.925,504.72L181.925,504.868L182.073,504.868L182.073,499.353L182.03,499.248L181.925,499.205L176.411,499.205L176.305,499.248L176.262,499.353L176.262,504.868L176.305,504.973L176.411,505.016L181.925,505.016L182.03,504.973L182.073,504.868L181.925,504.868" style="fill:rgb(34,30,31);fill-rule:nonzero;"/>
        </g>
        <g transform="matrix(4.16667,0,0,4.16667,-574.538,-1980.68)">
            <rect x="176.411" y="504.868" width="5.515" height="5.515" style="fill:white;"/>
        </g>
        <g transform="matrix(4.16667,0,0,4.16667,-574.538,-1980.68)">
            <path d="M181.925,510.383L181.925,510.235L176.559,510.235L176.559,505.017L181.777,505.017L181.777,510.383L181.925,510.383L181.925,510.235L181.925,510.383L182.073,510.383L182.073,504.869L182.03,504.763L181.925,504.72L176.411,504.72L176.305,504.763L176.262,504.869L176.262,510.383L176.305,510.488L176.411,510.531L181.925,510.531L182.03,510.488L182.073,510.383L181.925,510.383" style="fill:rgb(34,30,31);fill-rule:nonzero;"/>
        </g>
        <g transform="matrix(4.16667,0,0,4.16667,-574.538,-2026.42)">
            <rect x="176.411" y="510.357" width="5.515" height="5.515" style="fill:white;"/>
        </g>
        <g transform="matrix(4.16667,0,0,4.16667,-574.538,-2026.42)">
            <path d="M181.925,515.872L181.925,515.724L176.559,515.724L176.559,510.506L181.777,510.506L181.777,515.872L181.925,515.872L181.925,515.724L181.925,515.872L182.073,515.872L182.073,510.357L182.03,510.252L181.925,510.209L176.411,510.209L176.305,510.252L176.262,510.357L176.262,515.872L176.305,515.977L176.411,516.02L181.925,516.02L182.03,515.977L182.073,515.872L181.925,515.872" style="fill:rgb(34,30,31);fill-rule:nonzero;"/>
        </g>
        <g transform="matrix(4.16667,0,0,4.16667,-574.538,-2072.38)">
            <rect x="176.411" y="515.872" width="5.515" height="5.515" style="fill:white;"/>
        </g>
        <g transform="matrix(4.16667,0,0,4.16667,-574.538,-2072.37)">
            <path d="M181.925,521.386L181.925,521.238L176.559,521.238L176.559,516.02L181.777,516.02L181.777,521.386L181.925,521.386L181.925,521.238L181.925,521.386L182.073,521.386L182.073,515.871L182.03,515.767L181.925,515.723L176.411,515.723L176.305,515.767L176.262,515.871L176.262,521.386L176.305,521.491L176.411,521.535L181.925,521.535L182.03,521.491L182.073,521.386L181.925,521.386" style="fill:rgb(34,30,31);fill-rule:nonzero;"/>
        </g>
        <g transform="matrix(4.16667,0,0,4.16667,-574.538,-2118.33)">
            <path d="M181.925,526.901L181.925,526.753L176.559,526.753L176.559,521.535L181.777,521.535L181.777,526.901L181.925,526.901L181.925,526.753L181.925,526.901L182.073,526.901L182.073,521.238L176.262,521.238L176.262,527.05L182.073,527.05L182.073,526.901L181.925,526.901" style="fill:rgb(3,4,4);fill-rule:nonzero;"/>
        </g>
        <g transform="matrix(4.16667,0,0,4.16667,-574.538,-2164.29)">
            <rect x="176.411" y="526.902" width="5.515" height="5.514" style="fill:white;"/>
        </g>
        <g transform="matrix(4.16667,0,0,4.16667,-574.538,-2164.28)">
            <path d="M181.925,532.414L181.925,532.266L176.559,532.266L176.559,527.049L181.777,527.049L181.777,532.414L181.925,532.414L181.925,532.266L181.925,532.414L182.073,532.414L182.073,526.901L182.03,526.796L181.925,526.753L176.411,526.753L176.305,526.796L176.262,526.901L176.262,532.414L176.305,532.52L176.411,532.563L181.925,532.563L182.03,532.52L182.073,532.414L181.925,532.414" style="fill:rgb(34,30,31);fill-rule:nonzero;"/>
        </g>
        <g transform="matrix(4.16667,0,0,4.16667,-574.538,-1842.92)">
            <rect x="170.994" y="488.337" width="5.515" height="5.515" style="fill:white;"/>
        </g>
        <g transform="matrix(4.16667,0,0,4.16667,-574.538,-1842.91)">
            <path d="M176.509,493.851L176.509,493.703L171.142,493.703L171.142,488.485L176.361,488.485L176.361,493.851L176.509,493.851L176.509,493.703L176.509,493.851L176.657,493.851L176.657,488.336L176.614,488.232L176.509,488.188L170.994,488.188L170.889,488.232L170.846,488.336L170.846,493.851L170.889,493.956L170.994,494L176.509,494L176.614,493.956L176.657,493.851L176.509,493.851" style="fill:rgb(34,30,31);fill-rule:nonzero;"/>
        </g>
        <g transform="matrix(4.16667,0,0,4.16667,-574.538,-1980.78)">
            <rect x="170.994" y="504.881" width="5.515" height="5.515" style="fill:white;"/>
        </g>
        <g transform="matrix(4.16667,0,0,4.16667,-574.538,-1980.78)">
            <path d="M176.509,510.396L176.509,510.248L171.142,510.248L171.142,505.029L176.361,505.029L176.361,510.396L176.509,510.396L176.509,510.248L176.509,510.396L176.657,510.396L176.657,504.881L176.614,504.776L176.509,504.733L170.994,504.733L170.889,504.776L170.846,504.881L170.846,510.396L170.889,510.501L170.994,510.544L176.509,510.544L176.614,510.501L176.657,510.396L176.509,510.396" style="fill:rgb(34,30,31);fill-rule:nonzero;"/>
        </g>
        <g transform="matrix(4.16667,0,0,4.16667,-574.538,-2026.53)">
            <rect x="170.994" y="510.37" width="5.515" height="5.515" style="fill:white;"/>
        </g>
        <g transform="matrix(4.16667,0,0,4.16667,-574.538,-2026.53)">
            <path d="M176.509,515.885L176.509,515.737L171.142,515.737L171.142,510.518L176.361,510.518L176.361,515.885L176.509,515.885L176.509,515.737L176.509,515.885L176.657,515.885L176.657,510.37L176.614,510.265L176.509,510.222L170.994,510.222L170.889,510.265L170.846,510.37L170.846,515.885L170.889,515.989L170.994,516.033L176.509,516.033L176.614,515.989L176.657,515.885L176.509,515.885" style="fill:rgb(34,30,31);fill-rule:nonzero;"/>
        </g>
        <g transform="matrix(4.16667,0,0,4.16667,-574.538,-2072.48)">
            <rect x="170.994" y="515.885" width="5.515" height="5.515" style="fill:white;"/>
        </g>
        <g transform="matrix(4.16667,0,0,4.16667,-574.538,-2072.48)">
            <path d="M176.509,521.4L176.509,521.252L171.142,521.252L171.142,516.033L176.361,516.033L176.361,521.4L176.509,521.4L176.509,521.252L176.509,521.4L176.657,521.4L176.657,515.885L176.614,515.78L176.509,515.737L170.994,515.737L170.889,515.78L170.846,515.885L170.846,521.4L170.889,521.505L170.994,521.548L176.509,521.548L176.614,521.505L176.657,521.4L176.509,521.4" style="fill:rgb(34,30,31);fill-rule:nonzero;"/>
        </g>
        <g transform="matrix(4.16667,0,0,4.16667,-574.538,-2118.44)">
            <rect x="170.994" y="521.4" width="5.515" height="5.515" style="fill:white;"/>
        </g>
        <g transform="matrix(4.16667,0,0,4.16667,-574.538,-2118.44)">
            <path d="M176.509,526.915L176.509,526.767L171.142,526.767L171.142,521.549L176.361,521.549L176.361,526.915L176.509,526.915L176.509,526.767L176.509,526.915L176.657,526.915L176.657,521.4L176.614,521.295L176.509,521.252L170.994,521.252L170.889,521.295L170.846,521.4L170.846,526.915L170.889,527.02L170.994,527.063L176.509,527.063L176.614,527.02L176.657,526.915L176.509,526.915" style="fill:rgb(34,30,31);fill-rule:nonzero;"/>
        </g>
        <g transform="matrix(4.16667,0,0,4.16667,-574.538,-2164.4)">
            <rect x="170.994" y="526.915" width="5.515" height="5.514" style="fill:white;"/>
        </g>
        <g transform="matrix(4.16667,0,0,4.16667,-574.538,-2164.39)">
            <path d="M176.509,532.428L176.509,532.28L171.142,532.28L171.142,527.063L176.361,527.063L176.361,532.428L176.509,532.428L176.509,532.28L176.509,532.428L176.657,532.428L176.657,526.914L176.614,526.81L176.509,526.766L170.994,526.766L170.889,526.81L170.846,526.914L170.846,532.428L170.889,532.533L170.994,532.577L176.509,532.577L176.614,532.533L176.657,532.428L176.509,532.428" style="fill:rgb(34,30,31);fill-rule:nonzero;"/>
        </g>
        <g transform="matrix(4.16667,0,0,4.16667,-574.538,-1843.03)">
            <path d="M170.995,493.865L170.995,493.717L165.629,493.717L165.629,488.499L170.847,488.499L170.847,493.865L170.995,493.865L170.995,493.717L170.995,493.865L171.143,493.865L171.143,488.202L165.332,488.202L165.332,494.013L171.143,494.013L171.143,493.865L170.995,493.865" style="fill:rgb(3,4,4);fill-rule:nonzero;"/>
        </g>
        <g transform="matrix(4.16667,0,0,4.16667,-574.538,-1888.98)">
            <rect x="165.48" y="493.865" width="5.515" height="5.515" style="fill:white;"/>
        </g>
        <g transform="matrix(4.16667,0,0,4.16667,-574.538,-1888.98)">
            <path d="M170.995,499.379L170.995,499.231L165.629,499.231L165.629,494.013L170.847,494.013L170.847,499.379L170.995,499.379L170.995,499.231L170.995,499.379L171.143,499.379L171.143,493.864L171.1,493.76L170.995,493.716L165.48,493.716L165.376,493.76L165.332,493.864L165.332,499.379L165.376,499.484L165.48,499.528L170.995,499.528L171.1,499.484L171.143,499.379L170.995,499.379" style="fill:rgb(34,30,31);fill-rule:nonzero;"/>
        </g>
        <g transform="matrix(4.16667,0,0,4.16667,-574.538,-1934.94)">
            <rect x="165.48" y="499.38" width="5.515" height="5.514" style="fill:white;"/>
        </g>
        <g transform="matrix(4.16667,0,0,4.16667,-574.538,-1934.94)">
            <path d="M170.995,504.894L170.995,504.746L165.629,504.746L165.629,499.528L170.847,499.528L170.847,504.894L170.995,504.894L170.995,504.746L170.995,504.894L171.143,504.894L171.143,499.38L171.1,499.275L170.995,499.231L165.48,499.231L165.376,499.275L165.332,499.38L165.332,504.894L165.376,504.999L165.48,505.043L170.995,505.043L171.1,504.999L171.143,504.894L170.995,504.894" style="fill:rgb(34,30,31);fill-rule:nonzero;"/>
        </g>
        <g transform="matrix(4.16667,0,0,4.16667,-574.538,-2026.64)">
            <path d="M170.995,515.899L170.995,515.751L165.629,515.751L165.629,510.533L170.847,510.533L170.847,515.899L170.995,515.899L170.995,515.751L170.995,515.899L171.143,515.899L171.143,510.236L165.332,510.236L165.332,516.047L171.143,516.047L171.143,515.899L170.995,515.899" style="fill:rgb(3,4,4);fill-rule:nonzero;"/>
        </g>
        <g transform="matrix(4.16667,0,0,4.16667,-574.538,-2072.59)">
            <rect x="165.48" y="515.898" width="5.515" height="5.515" style="fill:white;"/>
        </g>
        <g transform="matrix(4.16667,0,0,4.16667,-574.538,-2072.6)">
            <path d="M170.995,521.414L170.995,521.265L165.629,521.265L165.629,516.047L170.847,516.047L170.847,521.414L170.995,521.414L170.995,521.265L170.995,521.414L171.143,521.414L171.143,515.899L171.1,515.794L170.995,515.75L165.48,515.75L165.376,515.794L165.332,515.899L165.332,521.414L165.376,521.518L165.48,521.562L170.995,521.562L171.1,521.518L171.143,521.414L170.995,521.414" style="fill:rgb(34,30,31);fill-rule:nonzero;"/>
        </g>
        <g transform="matrix(4.16667,0,0,4.16667,-574.538,-2118.55)">
            <rect x="165.48" y="521.413" width="5.515" height="5.515" style="fill:white;"/>
        </g>
        <g transform="matrix(4.16667,0,0,4.16667,-574.538,-2118.55)">
            <path d="M170.995,526.928L170.995,526.779L165.629,526.779L165.629,521.561L170.847,521.561L170.847,526.928L170.995,526.928L170.995,526.779L170.995,526.928L171.143,526.928L171.143,521.413L171.1,521.308L170.995,521.265L165.48,521.265L165.376,521.308L165.332,521.413L165.332,526.928L165.376,527.032L165.48,527.076L170.995,527.076L171.1,527.032L171.143,526.928L170.995,526.928" style="fill:rgb(34,30,31);fill-rule:nonzero;"/>
        </g>
        <g transform="matrix(4.16667,0,0,4.16667,-574.538,-2164.5)">
            <rect x="165.48" y="526.928" width="5.515" height="5.514" style="fill:white;"/>
        </g>
        <g transform="matrix(4.16667,0,0,4.16667,-574.538,-2164.5)">
            <path d="M170.995,532.442L170.995,532.294L165.629,532.294L165.629,527.077L170.847,527.077L170.847,532.442L170.995,532.442L170.995,532.294L170.995,532.442L171.143,532.442L171.143,526.928L171.1,526.824L170.995,526.78L165.48,526.78L165.376,526.824L165.332,526.928L165.332,532.442L165.376,532.547L165.48,532.59L170.995,532.59L171.1,532.547L171.143,532.442L170.995,532.442" style="fill:rgb(34,30,31);fill-rule:nonzero;"/>
        </g>
        <g transform="matrix(4.16667,0,0,4.16667,-574.538,-2026.83)">
            <rect x="159.966" y="510.407" width="5.515" height="5.515" style="fill:white;"/>
        </g>
        <g transform="matrix(4.16667,0,0,4.16667,-574.538,-2026.83)">
            <path d="M165.48,515.922L165.48,515.774L160.114,515.774L160.114,510.555L165.332,510.555L165.332,515.922L165.48,515.922L165.48,515.774L165.48,515.922L165.629,515.922L165.629,510.407L165.585,510.302L165.48,510.259L159.966,510.259L159.861,510.302L159.818,510.407L159.818,515.922L159.861,516.026L159.966,516.07L165.48,516.07L165.585,516.026L165.629,515.922L165.48,515.922" style="fill:rgb(3,4,4);fill-rule:nonzero;"/>
        </g>
        <g transform="matrix(4.16667,0,0,4.16667,-574.538,-2072.9)">
            <rect x="154.6" y="516.083" width="5.12" height="5.218" style="fill:rgb(182,193,227);"/>
        </g>
        <g transform="matrix(4.16667,0,0,4.16667,-574.538,-2072.9)">
            <rect x="154.501" y="516.083" width="0.098" height="5.218" style="fill:rgb(35,43,98);"/>
        </g>
        <g transform="matrix(4.16667,0,0,4.16667,-574.538,-2072.9)">
            <path d="M159.867,521.45L159.867,521.302L154.501,521.302L154.501,516.083L159.719,516.083L159.719,521.45L159.867,521.45L159.867,521.302L159.867,521.45L160.015,521.45L160.015,515.935L159.972,515.83L159.867,515.787L154.353,515.787L154.248,515.83L154.205,515.935L154.205,521.45L154.248,521.555L154.353,521.598L159.867,521.598L159.972,521.555L160.015,521.45L159.867,521.45" style="fill:rgb(60,90,168);fill-rule:nonzero;"/>
        </g>
        <g transform="matrix(4.16667,0,0,4.16667,-574.538,-2118.97)">
            <rect x="148.937" y="521.463" width="5.514" height="5.515" style="fill:white;"/>
        </g>
        <g transform="matrix(4.16667,0,0,4.16667,-574.538,-2118.97)">
            <path d="M154.452,526.978L154.452,526.83L149.086,526.83L149.086,521.611L154.303,521.611L154.303,526.978L154.452,526.978L154.452,526.83L154.452,526.978L154.6,526.978L154.6,521.463L154.556,521.358L154.452,521.315L148.937,521.315L148.832,521.358L148.789,521.463L148.789,526.978L148.832,527.083L148.937,527.126L154.452,527.126L154.556,527.083L154.6,526.978L154.452,526.978" style="fill:rgb(3,4,4);fill-rule:nonzero;"/>
        </g>
        <g transform="matrix(4.16667,0,0,4.16667,-574.538,-2165.03)">
            <rect x="143.423" y="526.991" width="5.515" height="5.514" style="fill:white;"/>
        </g>
        <g transform="matrix(4.16667,0,0,4.16667,-574.538,-2165.03)">
            <path d="M148.938,532.505L148.938,532.357L143.571,532.357L143.571,527.139L148.789,527.139L148.789,532.505L148.938,532.505L148.938,532.357L148.938,532.505L149.086,532.505L149.086,526.991L149.043,526.886L148.938,526.843L143.423,526.843L143.318,526.886L143.275,526.991L143.275,532.505L143.318,532.61L143.423,532.653L148.938,532.653L149.043,532.61L149.086,532.505L148.938,532.505" style="fill:rgb(3,4,4);fill-rule:nonzero;"/>
        </g>
        <g transform="matrix(4.16667,0,0,4.16667,-574.538,-1842.7)">
            <rect x="182.024" y="488.311" width="5.514" height="5.515" style="fill:white;"/>
        </g>
        <g transform="matrix(4.16667,0,0,4.16667,-574.538,-1842.69)">
            <path d="M187.538,493.824L187.538,493.676L182.172,493.676L182.172,488.458L187.389,488.458L187.389,493.824L187.538,493.824L187.538,493.676L187.538,493.824L187.686,493.824L187.686,488.31L187.642,488.205L187.538,488.162L182.024,488.162L181.919,488.205L181.875,488.31L181.875,493.824L181.919,493.93L182.024,493.973L187.538,493.973L187.642,493.93L187.686,493.824L187.538,493.824" style="fill:rgb(3,4,4);fill-rule:nonzero;"/>
        </g>
        <g transform="matrix(4.16667,0,0,4.16667,-574.538,-1888.88)">
            <rect x="170.994" y="493.852" width="5.515" height="5.515" style="fill:white;"/>
        </g>
        <g transform="matrix(4.16667,0,0,4.16667,-574.538,-1888.87)">
            <path d="M176.509,499.365L176.509,499.217L171.142,499.217L171.142,493.999L176.361,493.999L176.361,499.365L176.509,499.365L176.509,499.217L176.509,499.365L176.657,499.365L176.657,493.851L176.614,493.746L176.509,493.703L170.994,493.703L170.889,493.746L170.846,493.851L170.846,499.365L170.889,499.471L170.994,499.514L176.509,499.514L176.614,499.471L176.657,499.365L176.509,499.365" style="fill:rgb(34,30,31);fill-rule:nonzero;"/>
        </g>
        <g transform="matrix(4.16667,0,0,4.16667,-574.538,-1934.82)">
            <rect x="170.994" y="499.366" width="5.515" height="5.514" style="fill:white;"/>
        </g>
        <g transform="matrix(4.16667,0,0,4.16667,-574.538,-1934.83)">
            <path d="M176.509,504.881L176.509,504.733L171.142,504.733L171.142,499.514L176.361,499.514L176.361,504.881L176.509,504.881L176.509,504.733L176.509,504.881L176.657,504.881L176.657,499.366L176.614,499.261L176.509,499.218L170.994,499.218L170.889,499.261L170.846,499.366L170.846,504.881L170.889,504.986L170.994,505.029L176.509,505.029L176.614,504.986L176.657,504.881L176.509,504.881" style="fill:rgb(3,4,4);fill-rule:nonzero;"/>
        </g>
        <g transform="matrix(4.16667,0,0,4.16667,-574.538,-1980.89)">
            <rect x="165.48" y="504.894" width="5.515" height="5.515" style="fill:white;"/>
        </g>
        <g transform="matrix(4.16667,0,0,4.16667,-574.538,-1980.89)">
            <path d="M170.995,510.409L170.995,510.26L165.629,510.26L165.629,505.042L170.847,505.042L170.847,510.409L170.995,510.409L170.995,510.26L170.995,510.409L171.143,510.409L171.143,504.894L171.1,504.789L170.995,504.746L165.48,504.746L165.376,504.789L165.332,504.894L165.332,510.409L165.376,510.514L165.48,510.557L170.995,510.557L171.1,510.514L171.143,510.409L170.995,510.409" style="fill:rgb(3,4,4);fill-rule:nonzero;"/>
        </g>
        <g transform="matrix(1,0,0,1,-113.625,-445.628)">
            <g transform="matrix(4.16667,0,0,4.16667,-460.913,-1397.59)">
                <rect x="214.516" y="488.373" width="5.515" height="5.515" style="fill:white;"/>
            </g>
            <g transform="matrix(4.16667,0,0,4.16667,-460.913,-1397.59)">
                <path d="M220.031,493.888L220.031,493.74L214.664,493.74L214.664,488.522L219.883,488.522L219.883,493.888L220.031,493.888L220.031,493.74L220.031,493.888L220.179,493.888L220.179,488.373L220.136,488.268L220.031,488.225L214.516,488.225L214.412,488.268L214.368,488.373L214.368,493.888L214.412,493.993L214.516,494.036L220.031,494.036L220.136,493.993L220.179,493.888L220.031,493.888" style="fill:rgb(3,4,4);fill-rule:nonzero;"/>
            </g>
            <g transform="matrix(4.16667,0,0,4.16667,-460.913,-1443.54)">
                <path d="M220.031,499.402L220.031,499.254L214.664,499.254L214.664,494.036L219.883,494.036L219.883,499.402L220.031,499.402L220.031,499.254L220.031,499.402L220.179,499.402L220.179,493.739L214.368,493.739L214.368,499.551L220.179,499.551L220.179,499.402L220.031,499.402" style="fill:rgb(3,4,4);fill-rule:nonzero;"/>
            </g>
            <g transform="matrix(4.16667,0,0,4.16667,-460.913,-1489.5)">
                <rect x="214.516" y="499.403" width="5.515" height="5.515" style="fill:white;"/>
            </g>
            <g transform="matrix(4.16667,0,0,4.16667,-460.913,-1489.5)">
                <path d="M220.031,504.917L220.031,504.769L214.664,504.769L214.664,499.551L219.883,499.551L219.883,504.917L220.031,504.917L220.031,504.769L220.031,504.917L220.179,504.917L220.179,499.402L220.136,499.298L220.031,499.254L214.516,499.254L214.412,499.298L214.368,499.402L214.368,504.917L214.412,505.022L214.516,505.066L220.031,505.066L220.136,505.022L220.179,504.917L220.031,504.917" style="fill:rgb(3,4,4);fill-rule:nonzero;"/>
            </g>
            <g transform="matrix(4.16667,0,0,4.16667,-460.913,-1535.46)">
                <rect x="214.516" y="504.918" width="5.515" height="5.514" style="fill:white;"/>
            </g>
            <g transform="matrix(4.16667,0,0,4.16667,-460.913,-1535.46)">
                <path d="M220.031,510.431L220.031,510.283L214.664,510.283L214.664,505.065L219.883,505.065L219.883,510.431L220.031,510.431L220.031,510.283L220.031,510.431L220.179,510.431L220.179,504.917L220.136,504.813L220.031,504.769L214.516,504.769L214.412,504.813L214.368,504.917L214.368,510.431L214.412,510.537L214.516,510.58L220.031,510.58L220.136,510.537L220.179,510.431L220.031,510.431" style="fill:rgb(3,4,4);fill-rule:nonzero;"/>
            </g>
            <g transform="matrix(4.16667,0,0,4.16667,-460.913,-1627.15)">
                <rect x="214.516" y="515.921" width="5.515" height="5.514" style="fill:white;"/>
            </g>
            <g transform="matrix(4.16667,0,0,4.16667,-460.913,-1627.16)">
                <path d="M220.031,521.436L220.031,521.287L214.664,521.287L214.664,516.069L219.883,516.069L219.883,521.436L220.031,521.436L220.031,521.287L220.031,521.436L220.179,521.436L220.179,515.921L220.136,515.816L220.031,515.773L214.516,515.773L214.412,515.816L214.368,515.921L214.368,521.436L214.412,521.54L214.516,521.584L220.031,521.584L220.136,521.54L220.179,521.436L220.031,521.436" style="fill:rgb(3,4,4);fill-rule:nonzero;"/>
            </g>
            <g transform="matrix(4.16667,0,0,4.16667,-460.913,-1673.11)">
                <rect x="214.516" y="521.436" width="5.515" height="5.515" style="fill:white;"/>
            </g>
            <g transform="matrix(4.16667,0,0,4.16667,-460.913,-1673.11)">
                <path d="M220.031,526.951L220.031,526.803L214.664,526.803L214.664,521.585L219.883,521.585L219.883,526.951L220.031,526.951L220.031,526.803L220.031,526.951L220.179,526.951L220.179,521.436L220.136,521.332L220.031,521.288L214.516,521.288L214.412,521.332L214.368,521.436L214.368,526.951L214.412,527.056L214.516,527.099L220.031,527.099L220.136,527.056L220.179,526.951L220.031,526.951" style="fill:rgb(3,4,4);fill-rule:nonzero;"/>
            </g>
            <g transform="matrix(4.16667,0,0,4.16667,-460.913,-1719.07)">
                <rect x="214.516" y="526.951" width="5.515" height="5.514" style="fill:white;"/>
            </g>
            <g transform="matrix(4.16667,0,0,4.16667,-460.913,-1719.06)">
                <path d="M220.031,532.464L220.031,532.316L214.664,532.316L214.664,527.098L219.883,527.098L219.883,532.464L220.031,532.464L220.031,532.316L220.031,532.464L220.179,532.464L220.179,526.95L220.136,526.845L220.031,526.802L214.516,526.802L214.412,526.845L214.368,526.95L214.368,532.464L214.412,532.569L214.516,532.613L220.031,532.613L220.136,532.569L220.179,532.464L220.031,532.464" style="fill:rgb(3,4,4);fill-rule:nonzero;"/>
            </g>
            <g transform="matrix(4.16667,0,0,4.16667,-460.913,-1397.7)">
                <rect x="208.904" y="488.386" width="5.514" height="5.515" style="fill:white;"/>
            </g>
            <g transform="matrix(4.16667,0,0,4.16667,-460.913,-1397.7)">
                <path d="M214.418,493.901L214.418,493.753L209.052,493.753L209.052,488.535L214.269,488.535L214.269,493.901L214.418,493.901L214.418,493.753L214.418,493.901L214.566,493.901L214.566,488.386L214.523,488.282L214.418,488.238L208.904,488.238L208.799,488.282L208.755,488.386L208.755,493.901L208.799,494.006L208.904,494.049L214.418,494.049L214.523,494.006L214.566,493.901L214.418,493.901" style="fill:rgb(34,30,31);fill-rule:nonzero;"/>
            </g>
            <g transform="matrix(4.16667,0,0,4.16667,-460.913,-1443.65)">
                <rect x="208.904" y="493.901" width="5.514" height="5.515" style="fill:white;"/>
            </g>
            <g transform="matrix(4.16667,0,0,4.16667,-460.913,-1443.65)">
                <path d="M214.418,499.415L214.418,499.267L209.052,499.267L209.052,494.049L214.269,494.049L214.269,499.415L214.418,499.415L214.418,499.267L214.418,499.415L214.566,499.415L214.566,493.9L214.523,493.796L214.418,493.752L208.904,493.752L208.799,493.796L208.755,493.9L208.755,499.415L208.799,499.52L208.904,499.564L214.418,499.564L214.523,499.52L214.566,499.415L214.418,499.415" style="fill:rgb(34,30,31);fill-rule:nonzero;"/>
            </g>
            <g transform="matrix(4.16667,0,0,4.16667,-460.913,-1489.61)">
                <rect x="208.904" y="499.416" width="5.514" height="5.514" style="fill:white;"/>
            </g>
            <g transform="matrix(4.16667,0,0,4.16667,-460.913,-1489.61)">
                <path d="M214.418,504.93L214.418,504.782L209.052,504.782L209.052,499.564L214.269,499.564L214.269,504.93L214.418,504.93L214.418,504.782L214.418,504.93L214.566,504.93L214.566,499.416L214.523,499.311L214.418,499.267L208.904,499.267L208.799,499.311L208.755,499.416L208.755,504.93L208.799,505.035L208.904,505.079L214.418,505.079L214.523,505.035L214.566,504.93L214.418,504.93" style="fill:rgb(34,30,31);fill-rule:nonzero;"/>
            </g>
            <g transform="matrix(4.16667,0,0,4.16667,-460.913,-1535.56)">
                <rect x="208.904" y="504.93" width="5.514" height="5.515" style="fill:white;"/>
            </g>
            <g transform="matrix(4.16667,0,0,4.16667,-460.913,-1535.56)">
                <path d="M214.418,510.445L214.418,510.296L209.052,510.296L209.052,505.078L214.269,505.078L214.269,510.445L214.418,510.445L214.418,510.296L214.418,510.445L214.566,510.445L214.566,504.93L214.523,504.825L214.418,504.782L208.904,504.782L208.799,504.825L208.755,504.93L208.755,510.445L208.799,510.55L208.904,510.593L214.418,510.593L214.523,510.55L214.566,510.445L214.418,510.445" style="fill:rgb(34,30,31);fill-rule:nonzero;"/>
            </g>
            <g transform="matrix(4.16667,0,0,4.16667,-460.913,-1581.31)">
                <rect x="208.904" y="510.42" width="5.514" height="5.515" style="fill:white;"/>
            </g>
            <g transform="matrix(4.16667,0,0,4.16667,-460.913,-1581.31)">
                <path d="M214.418,515.933L214.418,515.785L209.052,515.785L209.052,510.567L214.269,510.567L214.269,515.933L214.418,515.933L214.418,515.785L214.418,515.933L214.566,515.933L214.566,510.419L214.523,510.314L214.418,510.271L208.904,510.271L208.799,510.314L208.755,510.419L208.755,515.933L208.799,516.038L208.904,516.082L214.418,516.082L214.523,516.038L214.566,515.933L214.418,515.933" style="fill:rgb(34,30,31);fill-rule:nonzero;"/>
            </g>
            <g transform="matrix(4.16667,0,0,4.16667,-460.913,-1673.22)">
                <rect x="208.904" y="521.449" width="5.514" height="5.515" style="fill:white;"/>
            </g>
            <g transform="matrix(4.16667,0,0,4.16667,-460.913,-1673.22)">
                <path d="M214.418,526.964L214.418,526.816L209.052,526.816L209.052,521.597L214.269,521.597L214.269,526.964L214.418,526.964L214.418,526.816L214.418,526.964L214.566,526.964L214.566,521.449L214.523,521.344L214.418,521.301L208.904,521.301L208.799,521.344L208.755,521.449L208.755,526.964L208.799,527.068L208.904,527.112L214.418,527.112L214.523,527.068L214.566,526.964L214.418,526.964" style="fill:rgb(34,30,31);fill-rule:nonzero;"/>
            </g>
            <g transform="matrix(4.16667,0,0,4.16667,-460.913,-1719.18)">
                <path d="M214.418,532.478L214.418,532.33L209.052,532.33L209.052,527.113L214.269,527.113L214.269,532.478L214.418,532.478L214.418,532.33L214.418,532.478L214.566,532.478L214.566,526.816L208.755,526.816L208.755,532.626L214.566,532.626L214.566,532.478L214.418,532.478" style="fill:rgb(3,4,4);fill-rule:nonzero;"/>
            </g>
            <g transform="matrix(4.16667,0,0,4.16667,-460.913,-1397.8)">
                <rect x="203.488" y="488.399" width="5.514" height="5.515" style="fill:white;"/>
            </g>
            <g transform="matrix(4.16667,0,0,4.16667,-460.913,-1397.81)">
                <path d="M209.002,493.914L209.002,493.766L203.636,493.766L203.636,488.547L208.854,488.547L208.854,493.914L209.002,493.914L209.002,493.766L209.002,493.914L209.15,493.914L209.15,488.399L209.107,488.294L209.002,488.251L203.488,488.251L203.383,488.294L203.339,488.399L203.339,493.914L203.383,494.019L203.488,494.062L209.002,494.062L209.107,494.019L209.15,493.914L209.002,493.914" style="fill:rgb(34,30,31);fill-rule:nonzero;"/>
            </g>
            <g transform="matrix(4.16667,0,0,4.16667,-460.913,-1443.76)">
                <rect x="203.488" y="493.914" width="5.514" height="5.515" style="fill:white;"/>
            </g>
            <g transform="matrix(4.16667,0,0,4.16667,-460.913,-1443.76)">
                <path d="M209.002,499.429L209.002,499.281L203.636,499.281L203.636,494.063L208.854,494.063L208.854,499.429L209.002,499.429L209.002,499.281L209.002,499.429L209.15,499.429L209.15,493.914L209.107,493.809L209.002,493.766L203.488,493.766L203.383,493.809L203.339,493.914L203.339,499.429L203.383,499.534L203.488,499.577L209.002,499.577L209.107,499.534L209.15,499.429L209.002,499.429" style="fill:rgb(34,30,31);fill-rule:nonzero;"/>
            </g>
            <g transform="matrix(4.16667,0,0,4.16667,-460.913,-1489.72)">
                <rect x="203.488" y="499.429" width="5.514" height="5.514" style="fill:white;"/>
            </g>
            <g transform="matrix(4.16667,0,0,4.16667,-460.913,-1489.72)">
                <path d="M209.002,504.943L209.002,504.795L203.636,504.795L203.636,499.577L208.854,499.577L208.854,504.943L209.002,504.943L209.002,504.795L209.002,504.943L209.15,504.943L209.15,499.429L209.107,499.324L209.002,499.28L203.488,499.28L203.383,499.324L203.339,499.429L203.339,504.943L203.383,505.048L203.488,505.092L209.002,505.092L209.107,505.048L209.15,504.943L209.002,504.943" style="fill:rgb(34,30,31);fill-rule:nonzero;"/>
            </g>
            <g transform="matrix(4.16667,0,0,4.16667,-460.913,-1535.67)">
                <rect x="203.488" y="504.943" width="5.514" height="5.515" style="fill:white;"/>
            </g>
            <g transform="matrix(4.16667,0,0,4.16667,-460.913,-1535.68)">
                <path d="M209.002,510.459L209.002,510.31L203.636,510.31L203.636,505.092L208.854,505.092L208.854,510.459L209.002,510.459L209.002,510.31L209.002,510.459L209.15,510.459L209.15,504.944L209.107,504.839L209.002,504.795L203.488,504.795L203.383,504.839L203.339,504.944L203.339,510.459L203.383,510.563L203.488,510.607L209.002,510.607L209.107,510.563L209.15,510.459L209.002,510.459" style="fill:rgb(34,30,31);fill-rule:nonzero;"/>
            </g>
            <g transform="matrix(4.16667,0,0,4.16667,-460.913,-1581.42)">
                <rect x="203.488" y="510.433" width="5.514" height="5.515" style="fill:white;"/>
            </g>
            <g transform="matrix(4.16667,0,0,4.16667,-460.913,-1581.42)">
                <path d="M209.002,515.948L209.002,515.8L203.636,515.8L203.636,510.581L208.854,510.581L208.854,515.948L209.002,515.948L209.002,515.8L209.002,515.948L209.15,515.948L209.15,510.433L209.107,510.329L209.002,510.285L203.488,510.285L203.383,510.329L203.339,510.433L203.339,515.948L203.383,516.053L203.488,516.096L209.002,516.096L209.107,516.053L209.15,515.948L209.002,515.948" style="fill:rgb(34,30,31);fill-rule:nonzero;"/>
            </g>
            <g transform="matrix(4.16667,0,0,4.16667,-460.913,-1627.38)">
                <rect x="203.488" y="515.948" width="5.514" height="5.515" style="fill:white;"/>
            </g>
            <g transform="matrix(4.16667,0,0,4.16667,-460.913,-1627.38)">
                <path d="M209.002,521.463L209.002,521.315L203.636,521.315L203.636,516.097L208.854,516.097L208.854,521.463L209.002,521.463L209.002,521.315L209.002,521.463L209.15,521.463L209.15,515.949L209.107,515.844L209.002,515.8L203.488,515.8L203.383,515.844L203.339,515.949L203.339,521.463L203.383,521.568L203.488,521.611L209.002,521.611L209.107,521.568L209.15,521.463L209.002,521.463" style="fill:rgb(34,30,31);fill-rule:nonzero;"/>
            </g>
            <g transform="matrix(4.16667,0,0,4.16667,-460.913,-1719.28)">
                <rect x="203.488" y="526.977" width="5.514" height="5.514" style="fill:white;"/>
            </g>
            <g transform="matrix(4.16667,0,0,4.16667,-460.913,-1719.28)">
                <path d="M209.002,532.491L209.002,532.342L203.636,532.342L203.636,527.125L208.854,527.125L208.854,532.491L209.002,532.491L209.002,532.342L209.002,532.491L209.15,532.491L209.15,526.977L209.107,526.872L209.002,526.829L203.488,526.829L203.383,526.872L203.339,526.977L203.339,532.491L203.383,532.595L203.488,532.639L209.002,532.639L209.107,532.595L209.15,532.491L209.002,532.491" style="fill:rgb(34,30,31);fill-rule:nonzero;"/>
            </g>
            <g transform="matrix(4.16667,0,0,4.16667,-460.913,-1397.91)">
                <rect x="197.974" y="488.412" width="5.514" height="5.515" style="fill:white;"/>
            </g>
            <g transform="matrix(4.16667,0,0,4.16667,-460.913,-1397.91)">
                <path d="M203.488,493.927L203.488,493.778L198.122,493.778L198.122,488.56L203.34,488.56L203.34,493.927L203.488,493.927L203.488,493.778L203.488,493.927L203.637,493.927L203.637,488.412L203.593,488.307L203.488,488.264L197.974,488.264L197.869,488.307L197.826,488.412L197.826,493.927L197.869,494.032L197.974,494.075L203.488,494.075L203.593,494.032L203.637,493.927L203.488,493.927" style="fill:rgb(34,30,31);fill-rule:nonzero;"/>
            </g>
            <g transform="matrix(4.16667,0,0,4.16667,-460.913,-1443.87)">
                <rect x="197.974" y="493.927" width="5.514" height="5.515" style="fill:white;"/>
            </g>
            <g transform="matrix(4.16667,0,0,4.16667,-460.913,-1443.87)">
                <path d="M203.488,499.442L203.488,499.294L198.122,499.294L198.122,494.075L203.34,494.075L203.34,499.442L203.488,499.442L203.488,499.294L203.488,499.442L203.637,499.442L203.637,493.927L203.593,493.822L203.488,493.779L197.974,493.779L197.869,493.822L197.826,493.927L197.826,499.442L197.869,499.547L197.974,499.59L203.488,499.59L203.593,499.547L203.637,499.442L203.488,499.442" style="fill:rgb(34,30,31);fill-rule:nonzero;"/>
            </g>
            <g transform="matrix(4.16667,0,0,4.16667,-460.913,-1489.83)">
                <rect x="197.974" y="499.442" width="5.514" height="5.515" style="fill:white;"/>
            </g>
            <g transform="matrix(4.16667,0,0,4.16667,-460.913,-1489.83)">
                <path d="M203.488,504.957L203.488,504.809L198.122,504.809L198.122,499.59L203.34,499.59L203.34,504.957L203.488,504.957L203.488,504.809L203.488,504.957L203.637,504.957L203.637,499.442L203.593,499.337L203.488,499.294L197.974,499.294L197.869,499.337L197.826,499.442L197.826,504.957L197.869,505.062L197.974,505.105L203.488,505.105L203.593,505.062L203.637,504.957L203.488,504.957" style="fill:rgb(34,30,31);fill-rule:nonzero;"/>
            </g>
            <g transform="matrix(4.16667,0,0,4.16667,-460.913,-1535.79)">
                <path d="M203.488,510.472L203.488,510.324L198.122,510.324L198.122,505.106L203.34,505.106L203.34,510.472L203.488,510.472L203.488,510.324L203.488,510.472L203.637,510.472L203.637,504.809L197.826,504.809L197.826,510.62L203.637,510.62L203.637,510.472L203.488,510.472" style="fill:rgb(3,4,4);fill-rule:nonzero;"/>
            </g>
            <g transform="matrix(4.16667,0,0,4.16667,-460.913,-1581.53)">
                <rect x="197.974" y="510.446" width="5.514" height="5.515" style="fill:white;"/>
            </g>
            <g transform="matrix(4.16667,0,0,4.16667,-460.913,-1581.53)">
                <path d="M203.488,515.961L203.488,515.812L198.122,515.812L198.122,510.594L203.34,510.594L203.34,515.961L203.488,515.961L203.488,515.812L203.488,515.961L203.637,515.961L203.637,510.446L203.593,510.341L203.488,510.298L197.974,510.298L197.869,510.341L197.826,510.446L197.826,515.961L197.869,516.066L197.974,516.109L203.488,516.109L203.593,516.066L203.637,515.961L203.488,515.961" style="fill:rgb(34,30,31);fill-rule:nonzero;"/>
            </g>
            <g transform="matrix(4.16667,0,0,4.16667,-460.913,-1627.49)">
                <rect x="197.974" y="515.961" width="5.514" height="5.515" style="fill:white;"/>
            </g>
            <g transform="matrix(4.16667,0,0,4.16667,-460.913,-1627.49)">
                <path d="M203.488,521.476L203.488,521.328L198.122,521.328L198.122,516.109L203.34,516.109L203.34,521.476L203.488,521.476L203.488,521.328L203.488,521.476L203.637,521.476L203.637,515.961L203.593,515.857L203.488,515.813L197.974,515.813L197.869,515.857L197.826,515.961L197.826,521.476L197.869,521.581L197.974,521.624L203.488,521.624L203.593,521.581L203.637,521.476L203.488,521.476" style="fill:rgb(34,30,31);fill-rule:nonzero;"/>
            </g>
            <g transform="matrix(4.16667,0,0,4.16667,-460.913,-1673.45)">
                <rect x="197.974" y="521.476" width="5.514" height="5.515" style="fill:white;"/>
            </g>
            <g transform="matrix(4.16667,0,0,4.16667,-460.913,-1673.45)">
                <path d="M203.488,526.991L203.488,526.843L198.122,526.843L198.122,521.624L203.34,521.624L203.34,526.991L203.488,526.991L203.488,526.843L203.488,526.991L203.637,526.991L203.637,521.476L203.593,521.372L203.488,521.328L197.974,521.328L197.869,521.372L197.826,521.476L197.826,526.991L197.869,527.096L197.974,527.139L203.488,527.139L203.593,527.096L203.637,526.991L203.488,526.991" style="fill:rgb(34,30,31);fill-rule:nonzero;"/>
            </g>
            <g transform="matrix(4.16667,0,0,4.16667,-460.913,-1443.02)">
                <rect x="236.575" y="493.825" width="5.513" height="5.515" style="fill:white;"/>
            </g>
            <g transform="matrix(4.16667,0,0,4.16667,-460.913,-1443.02)">
                <path d="M242.088,499.34L242.088,499.192L236.723,499.192L236.723,493.974L241.939,493.974L241.939,499.34L242.088,499.34L242.088,499.192L242.088,499.34L242.236,499.34L242.236,493.826L242.193,493.72L242.088,493.677L236.575,493.677L236.47,493.72L236.426,493.826L236.426,499.34L236.47,499.445L236.575,499.488L242.088,499.488L242.193,499.445L242.236,499.34L242.088,499.34" style="fill:rgb(3,4,4);fill-rule:nonzero;"/>
            </g>
            <g transform="matrix(4.16667,0,0,4.16667,-460.913,-1488.98)">
                <path d="M242.088,504.855L242.088,504.706L236.723,504.706L236.723,499.488L241.939,499.488L241.939,504.855L242.088,504.855L242.088,504.706L242.088,504.855L242.236,504.855L242.236,499.191L236.426,499.191L236.426,505.003L242.236,505.003L242.236,504.855L242.088,504.855" style="fill:rgb(3,4,4);fill-rule:nonzero;"/>
            </g>
            <g transform="matrix(4.16667,0,0,4.16667,-460.913,-1534.93)">
                <rect x="236.575" y="504.854" width="5.513" height="5.514" style="fill:white;"/>
            </g>
            <g transform="matrix(4.16667,0,0,4.16667,-460.913,-1534.93)">
                <path d="M242.088,510.369L242.088,510.22L236.723,510.22L236.723,505.003L241.939,505.003L241.939,510.369L242.088,510.369L242.088,510.22L242.088,510.369L242.236,510.369L242.236,504.854L242.193,504.75L242.088,504.706L236.575,504.706L236.47,504.75L236.426,504.854L236.426,510.369L236.47,510.473L236.575,510.517L242.088,510.517L242.193,510.473L242.236,510.369L242.088,510.369" style="fill:rgb(3,4,4);fill-rule:nonzero;"/>
            </g>
            <g transform="matrix(4.16667,0,0,4.16667,-460.913,-1580.68)">
                <rect x="236.575" y="510.344" width="5.513" height="5.515" style="fill:white;"/>
            </g>
            <g transform="matrix(4.16667,0,0,4.16667,-460.913,-1580.68)">
                <path d="M242.088,515.858L242.088,515.71L236.723,515.71L236.723,510.492L241.939,510.492L241.939,515.858L242.088,515.858L242.088,515.71L242.088,515.858L242.236,515.858L242.236,510.343L242.193,510.239L242.088,510.195L236.575,510.195L236.47,510.239L236.426,510.343L236.426,515.858L236.47,515.963L236.575,516.007L242.088,516.007L242.193,515.963L242.236,515.858L242.088,515.858" style="fill:rgb(3,4,4);fill-rule:nonzero;"/>
            </g>
            <g transform="matrix(4.16667,0,0,4.16667,-460.913,-1626.64)">
                <rect x="236.575" y="515.859" width="5.513" height="5.514" style="fill:white;"/>
            </g>
            <g transform="matrix(4.16667,0,0,4.16667,-460.913,-1626.63)">
                <path d="M242.088,521.372L242.088,521.224L236.723,521.224L236.723,516.006L241.939,516.006L241.939,521.372L242.088,521.372L242.088,521.224L242.088,521.372L242.236,521.372L242.236,515.858L242.193,515.753L242.088,515.71L236.575,515.71L236.47,515.753L236.426,515.858L236.426,521.372L236.47,521.477L236.575,521.521L242.088,521.521L242.193,521.477L242.236,521.372L242.088,521.372" style="fill:rgb(3,4,4);fill-rule:nonzero;"/>
            </g>
            <g transform="matrix(4.16667,0,0,4.16667,-460.913,-1672.59)">
                <rect x="236.575" y="521.373" width="5.513" height="5.515" style="fill:white;"/>
            </g>
            <g transform="matrix(4.16667,0,0,4.16667,-460.913,-1672.59)">
                <path d="M242.088,526.888L242.088,526.74L236.723,526.74L236.723,521.522L241.939,521.522L241.939,526.888L242.088,526.888L242.088,526.74L242.088,526.888L242.236,526.888L242.236,521.373L242.193,521.268L242.088,521.225L236.575,521.225L236.47,521.268L236.426,521.373L236.426,526.888L236.47,526.993L236.575,527.036L242.088,527.036L242.193,526.993L242.236,526.888L242.088,526.888" style="fill:rgb(3,4,4);fill-rule:nonzero;"/>
            </g>
            <g transform="matrix(4.16667,0,0,4.16667,-460.913,-1718.54)">
                <rect x="236.575" y="526.888" width="5.513" height="5.514" style="fill:white;"/>
            </g>
            <g transform="matrix(4.16667,0,0,4.16667,-460.913,-1718.54)">
                <path d="M242.088,532.401L242.088,532.253L236.723,532.253L236.723,527.035L241.939,527.035L241.939,532.401L242.088,532.401L242.088,532.253L242.088,532.401L242.236,532.401L242.236,526.887L242.193,526.782L242.088,526.739L236.575,526.739L236.47,526.782L236.426,526.887L236.426,532.401L236.47,532.506L236.575,532.55L242.088,532.55L242.193,532.506L242.236,532.401L242.088,532.401" style="fill:rgb(3,4,4);fill-rule:nonzero;"/>
            </g>
            <g transform="matrix(4.16667,0,0,4.16667,-460.913,-1397.17)">
                <rect x="230.961" y="488.323" width="5.515" height="5.515" style="fill:white;"/>
            </g>
            <g transform="matrix(4.16667,0,0,4.16667,-460.913,-1397.17)">
                <path d="M236.476,493.838L236.476,493.69L231.109,493.69L231.109,488.472L236.328,488.472L236.328,493.838L236.476,493.838L236.476,493.69L236.476,493.838L236.624,493.838L236.624,488.323L236.58,488.219L236.476,488.175L230.961,488.175L230.856,488.219L230.813,488.323L230.813,493.838L230.856,493.943L230.961,493.986L236.476,493.986L236.58,493.943L236.624,493.838L236.476,493.838" style="fill:rgb(34,30,31);fill-rule:nonzero;"/>
            </g>
            <g transform="matrix(4.16667,0,0,4.16667,-460.913,-1443.13)">
                <rect x="230.961" y="493.838" width="5.515" height="5.515" style="fill:white;"/>
            </g>
            <g transform="matrix(4.16667,0,0,4.16667,-460.913,-1443.12)">
                <path d="M236.476,499.351L236.476,499.203L231.109,499.203L231.109,493.985L236.328,493.985L236.328,499.351L236.476,499.351L236.476,499.203L236.476,499.351L236.624,499.351L236.624,493.837L236.58,493.732L236.476,493.689L230.961,493.689L230.856,493.732L230.813,493.837L230.813,499.351L230.856,499.456L230.961,499.5L236.476,499.5L236.58,499.456L236.624,499.351L236.476,499.351" style="fill:rgb(3,4,4);fill-rule:nonzero;"/>
            </g>
            <g transform="matrix(4.16667,0,0,4.16667,-460.913,-1489.08)">
                <rect x="230.961" y="499.352" width="5.515" height="5.515" style="fill:white;"/>
            </g>
            <g transform="matrix(4.16667,0,0,4.16667,-460.913,-1489.08)">
                <path d="M236.476,504.867L236.476,504.719L231.109,504.719L231.109,499.5L236.328,499.5L236.328,504.867L236.476,504.867L236.476,504.719L236.476,504.867L236.624,504.867L236.624,499.352L236.58,499.247L236.476,499.204L230.961,499.204L230.856,499.247L230.813,499.352L230.813,504.867L230.856,504.972L230.961,505.015L236.476,505.015L236.58,504.972L236.624,504.867L236.476,504.867" style="fill:rgb(34,30,31);fill-rule:nonzero;"/>
            </g>
            <g transform="matrix(4.16667,0,0,4.16667,-460.913,-1535.04)">
                <rect x="230.961" y="504.867" width="5.515" height="5.515" style="fill:white;"/>
            </g>
            <g transform="matrix(4.16667,0,0,4.16667,-460.913,-1535.04)">
                <path d="M236.476,510.382L236.476,510.234L231.109,510.234L231.109,505.015L236.328,505.015L236.328,510.382L236.476,510.382L236.476,510.234L236.476,510.382L236.624,510.382L236.624,504.867L236.58,504.762L236.476,504.719L230.961,504.719L230.856,504.762L230.813,504.867L230.813,510.382L230.856,510.487L230.961,510.53L236.476,510.53L236.58,510.487L236.624,510.382L236.476,510.382" style="fill:rgb(34,30,31);fill-rule:nonzero;"/>
            </g>
            <g transform="matrix(4.16667,0,0,4.16667,-460.913,-1580.78)">
                <rect x="230.961" y="510.356" width="5.515" height="5.515" style="fill:white;"/>
            </g>
            <g transform="matrix(4.16667,0,0,4.16667,-460.913,-1580.78)">
                <path d="M236.476,515.872L236.476,515.723L231.109,515.723L231.109,510.505L236.328,510.505L236.328,515.872L236.476,515.872L236.476,515.723L236.476,515.872L236.624,515.872L236.624,510.357L236.58,510.252L236.476,510.208L230.961,510.208L230.856,510.252L230.813,510.357L230.813,515.872L230.856,515.976L230.961,516.02L236.476,516.02L236.58,515.976L236.624,515.872L236.476,515.872" style="fill:rgb(34,30,31);fill-rule:nonzero;"/>
            </g>
            <g transform="matrix(4.16667,0,0,4.16667,-460.913,-1626.74)">
                <rect x="230.961" y="515.871" width="5.515" height="5.515" style="fill:white;"/>
            </g>
            <g transform="matrix(4.16667,0,0,4.16667,-460.913,-1626.74)">
                <path d="M236.476,521.386L236.476,521.237L231.109,521.237L231.109,516.019L236.328,516.019L236.328,521.386L236.476,521.386L236.476,521.237L236.476,521.386L236.624,521.386L236.624,515.871L236.58,515.766L236.476,515.723L230.961,515.723L230.856,515.766L230.813,515.871L230.813,521.386L230.856,521.491L230.961,521.534L236.476,521.534L236.58,521.491L236.624,521.386L236.476,521.386" style="fill:rgb(34,30,31);fill-rule:nonzero;"/>
            </g>
            <g transform="matrix(4.16667,0,0,4.16667,-460.913,-1672.7)">
                <path d="M236.476,526.901L236.476,526.753L231.109,526.753L231.109,521.534L236.328,521.534L236.328,526.901L236.476,526.901L236.476,526.753L236.476,526.901L236.624,526.901L236.624,521.238L230.813,521.238L230.813,527.049L236.624,527.049L236.624,526.901L236.476,526.901" style="fill:rgb(3,4,4);fill-rule:nonzero;"/>
            </g>
            <g transform="matrix(4.16667,0,0,4.16667,-460.913,-1718.65)">
                <rect x="230.961" y="526.901" width="5.515" height="5.514" style="fill:white;"/>
            </g>
            <g transform="matrix(4.16667,0,0,4.16667,-460.913,-1718.65)">
                <path d="M236.476,532.415L236.476,532.267L231.109,532.267L231.109,527.05L236.328,527.05L236.328,532.415L236.476,532.415L236.476,532.267L236.476,532.415L236.624,532.415L236.624,526.902L236.58,526.796L236.476,526.753L230.961,526.753L230.856,526.796L230.813,526.902L230.813,532.415L230.856,532.52L230.961,532.563L236.476,532.563L236.58,532.52L236.624,532.415L236.476,532.415" style="fill:rgb(34,30,31);fill-rule:nonzero;"/>
            </g>
            <g transform="matrix(4.16667,0,0,4.16667,-460.913,-1397.28)">
                <rect x="225.545" y="488.336" width="5.515" height="5.515" style="fill:white;"/>
            </g>
            <g transform="matrix(4.16667,0,0,4.16667,-460.913,-1397.28)">
                <path d="M231.06,493.851L231.06,493.703L225.693,493.703L225.693,488.484L230.911,488.484L230.911,493.851L231.06,493.851L231.06,493.703L231.06,493.851L231.208,493.851L231.208,488.336L231.164,488.232L231.06,488.188L225.545,488.188L225.44,488.232L225.396,488.336L225.396,493.851L225.44,493.956L225.545,493.999L231.06,493.999L231.164,493.956L231.208,493.851L231.06,493.851" style="fill:rgb(34,30,31);fill-rule:nonzero;"/>
            </g>
            <g transform="matrix(4.16667,0,0,4.16667,-460.913,-1535.15)">
                <rect x="225.545" y="504.88" width="5.515" height="5.515" style="fill:white;"/>
            </g>
            <g transform="matrix(4.16667,0,0,4.16667,-460.913,-1535.15)">
                <path d="M231.06,510.395L231.06,510.246L225.693,510.246L225.693,505.028L230.911,505.028L230.911,510.395L231.06,510.395L231.06,510.246L231.06,510.395L231.208,510.395L231.208,504.88L231.164,504.775L231.06,504.732L225.545,504.732L225.44,504.775L225.396,504.88L225.396,510.395L225.44,510.499L225.545,510.543L231.06,510.543L231.164,510.499L231.208,510.395L231.06,510.395" style="fill:rgb(34,30,31);fill-rule:nonzero;"/>
            </g>
            <g transform="matrix(4.16667,0,0,4.16667,-460.913,-1580.89)">
                <rect x="225.545" y="510.37" width="5.515" height="5.514" style="fill:white;"/>
            </g>
            <g transform="matrix(4.16667,0,0,4.16667,-460.913,-1580.89)">
                <path d="M231.06,515.884L231.06,515.736L225.693,515.736L225.693,510.518L230.911,510.518L230.911,515.884L231.06,515.884L231.06,515.736L231.06,515.884L231.208,515.884L231.208,510.37L231.164,510.265L231.06,510.221L225.545,510.221L225.44,510.265L225.396,510.37L225.396,515.884L225.44,515.989L225.545,516.033L231.06,516.033L231.164,515.989L231.208,515.884L231.06,515.884" style="fill:rgb(34,30,31);fill-rule:nonzero;"/>
            </g>
            <g transform="matrix(4.16667,0,0,4.16667,-460.913,-1626.85)">
                <rect x="225.545" y="515.884" width="5.515" height="5.515" style="fill:white;"/>
            </g>
            <g transform="matrix(4.16667,0,0,4.16667,-460.913,-1626.85)">
                <path d="M231.06,521.4L231.06,521.251L225.693,521.251L225.693,516.033L230.911,516.033L230.911,521.4L231.06,521.4L231.06,521.251L231.06,521.4L231.208,521.4L231.208,515.885L231.164,515.78L231.06,515.736L225.545,515.736L225.44,515.78L225.396,515.885L225.396,521.4L225.44,521.504L225.545,521.548L231.06,521.548L231.164,521.504L231.208,521.4L231.06,521.4" style="fill:rgb(34,30,31);fill-rule:nonzero;"/>
            </g>
            <g transform="matrix(4.16667,0,0,4.16667,-460.913,-1672.8)">
                <rect x="225.545" y="521.399" width="5.515" height="5.515" style="fill:white;"/>
            </g>
            <g transform="matrix(4.16667,0,0,4.16667,-460.913,-1672.81)">
                <path d="M231.06,526.914L231.06,526.765L225.693,526.765L225.693,521.547L230.911,521.547L230.911,526.914L231.06,526.914L231.06,526.765L231.06,526.914L231.208,526.914L231.208,521.399L231.164,521.294L231.06,521.251L225.545,521.251L225.44,521.294L225.396,521.399L225.396,526.914L225.44,527.018L225.545,527.062L231.06,527.062L231.164,527.018L231.208,526.914L231.06,526.914" style="fill:rgb(34,30,31);fill-rule:nonzero;"/>
            </g>
            <g transform="matrix(4.16667,0,0,4.16667,-460.913,-1718.76)">
                <rect x="225.545" y="526.914" width="5.515" height="5.514" style="fill:white;"/>
            </g>
            <g transform="matrix(4.16667,0,0,4.16667,-460.913,-1718.76)">
                <path d="M231.06,532.428L231.06,532.28L225.693,532.28L225.693,527.062L230.911,527.062L230.911,532.428L231.06,532.428L231.06,532.28L231.06,532.428L231.208,532.428L231.208,526.914L231.164,526.809L231.06,526.766L225.545,526.766L225.44,526.809L225.396,526.914L225.396,532.428L225.44,532.533L225.545,532.576L231.06,532.576L231.164,532.533L231.208,532.428L231.06,532.428" style="fill:rgb(34,30,31);fill-rule:nonzero;"/>
            </g>
            <g transform="matrix(4.16667,0,0,4.16667,-460.913,-1397.39)">
                <path d="M225.546,493.864L225.546,493.715L220.179,493.715L220.179,488.497L225.398,488.497L225.398,493.864L225.546,493.864L225.546,493.715L225.546,493.864L225.694,493.864L225.694,488.201L219.883,488.201L219.883,494.012L225.694,494.012L225.694,493.864L225.546,493.864" style="fill:rgb(3,4,4);fill-rule:nonzero;"/>
            </g>
            <g transform="matrix(4.16667,0,0,4.16667,-460.913,-1443.35)">
                <rect x="220.031" y="493.864" width="5.515" height="5.515" style="fill:white;"/>
            </g>
            <g transform="matrix(4.16667,0,0,4.16667,-460.913,-1443.35)">
                <path d="M225.546,499.379L225.546,499.231L220.179,499.231L220.179,494.012L225.398,494.012L225.398,499.379L225.546,499.379L225.546,499.231L225.546,499.379L225.694,499.379L225.694,493.864L225.651,493.759L225.546,493.716L220.031,493.716L219.926,493.759L219.883,493.864L219.883,499.379L219.926,499.484L220.031,499.527L225.546,499.527L225.651,499.484L225.694,499.379L225.546,499.379" style="fill:rgb(34,30,31);fill-rule:nonzero;"/>
            </g>
            <g transform="matrix(4.16667,0,0,4.16667,-460.913,-1489.3)">
                <rect x="220.031" y="499.379" width="5.515" height="5.515" style="fill:white;"/>
            </g>
            <g transform="matrix(4.16667,0,0,4.16667,-460.913,-1489.31)">
                <path d="M225.546,504.894L225.546,504.746L220.179,504.746L220.179,499.528L225.398,499.528L225.398,504.894L225.546,504.894L225.546,504.746L225.546,504.894L225.694,504.894L225.694,499.379L225.651,499.275L225.546,499.231L220.031,499.231L219.926,499.275L219.883,499.379L219.883,504.894L219.926,504.999L220.031,505.042L225.546,505.042L225.651,504.999L225.694,504.894L225.546,504.894" style="fill:rgb(34,30,31);fill-rule:nonzero;"/>
            </g>
            <g transform="matrix(4.16667,0,0,4.16667,-460.913,-1581.01)">
                <path d="M225.546,515.898L225.546,515.75L220.179,515.75L220.179,510.531L225.398,510.531L225.398,515.898L225.546,515.898L225.546,515.75L225.546,515.898L225.694,515.898L225.694,510.235L219.883,510.235L219.883,516.046L225.694,516.046L225.694,515.898L225.546,515.898" style="fill:rgb(3,4,4);fill-rule:nonzero;"/>
            </g>
            <g transform="matrix(4.16667,0,0,4.16667,-460.913,-1626.96)">
                <rect x="220.031" y="515.898" width="5.515" height="5.515" style="fill:white;"/>
            </g>
            <g transform="matrix(4.16667,0,0,4.16667,-460.913,-1626.96)">
                <path d="M225.546,521.413L225.546,521.265L220.179,521.265L220.179,516.047L225.398,516.047L225.398,521.413L225.546,521.413L225.546,521.265L225.546,521.413L225.694,521.413L225.694,515.898L225.651,515.793L225.546,515.75L220.031,515.75L219.926,515.793L219.883,515.898L219.883,521.413L219.926,521.518L220.031,521.561L225.546,521.561L225.651,521.518L225.694,521.413L225.546,521.413" style="fill:rgb(34,30,31);fill-rule:nonzero;"/>
            </g>
            <g transform="matrix(4.16667,0,0,4.16667,-460.913,-1672.92)">
                <rect x="220.031" y="521.413" width="5.515" height="5.515" style="fill:white;"/>
            </g>
            <g transform="matrix(4.16667,0,0,4.16667,-460.913,-1672.92)">
                <path d="M225.546,526.927L225.546,526.779L220.179,526.779L220.179,521.561L225.398,521.561L225.398,526.927L225.546,526.927L225.546,526.779L225.546,526.927L225.694,526.927L225.694,521.412L225.651,521.308L225.546,521.264L220.031,521.264L219.926,521.308L219.883,521.412L219.883,526.927L219.926,527.032L220.031,527.076L225.546,527.076L225.651,527.032L225.694,526.927L225.546,526.927" style="fill:rgb(34,30,31);fill-rule:nonzero;"/>
            </g>
            <g transform="matrix(4.16667,0,0,4.16667,-460.913,-1718.87)">
                <rect x="220.031" y="526.928" width="5.515" height="5.513" style="fill:white;"/>
            </g>
            <g transform="matrix(4.16667,0,0,4.16667,-460.913,-1718.87)">
                <path d="M225.546,532.44L225.546,532.292L220.179,532.292L220.179,527.075L225.398,527.075L225.398,532.44L225.546,532.44L225.546,532.292L225.546,532.44L225.694,532.44L225.694,526.927L225.651,526.822L225.546,526.779L220.031,526.779L219.926,526.822L219.883,526.927L219.883,532.44L219.926,532.545L220.031,532.589L225.546,532.589L225.651,532.545L225.694,532.44L225.546,532.44" style="fill:rgb(34,30,31);fill-rule:nonzero;"/>
            </g>
            <g transform="matrix(4.16667,0,0,4.16667,-460.913,-1581.2)">
                <rect x="214.516" y="510.407" width="5.515" height="5.514" style="fill:white;"/>
            </g>
            <g transform="matrix(4.16667,0,0,4.16667,-460.913,-1581.21)">
                <path d="M220.031,515.922L220.031,515.774L214.664,515.774L214.664,510.556L219.883,510.556L219.883,515.922L220.031,515.922L220.031,515.774L220.031,515.922L220.179,515.922L220.179,510.408L220.136,510.302L220.031,510.259L214.516,510.259L214.412,510.302L214.368,510.408L214.368,515.922L214.412,516.027L214.516,516.07L220.031,516.07L220.136,516.027L220.179,515.922L220.031,515.922" style="fill:rgb(3,4,4);fill-rule:nonzero;"/>
            </g>
            <g transform="matrix(4.16667,0,0,4.16667,-460.913,-1627.26)">
                <path d="M214.418,521.449L214.418,521.301L209.052,521.301L209.052,516.082L214.269,516.082L214.269,521.449L214.418,521.449L214.418,521.301L214.418,521.449L214.566,521.449L214.566,515.786L208.755,515.786L208.755,521.597L214.566,521.597L214.566,521.449L214.418,521.449" style="fill:rgb(3,4,4);fill-rule:nonzero;"/>
            </g>
            <g transform="matrix(4.16667,0,0,4.16667,-460.913,-1673.33)">
                <rect x="203.488" y="521.462" width="5.514" height="5.515" style="fill:white;"/>
            </g>
            <g transform="matrix(4.16667,0,0,4.16667,-460.913,-1673.33)">
                <path d="M209.002,526.978L209.002,526.829L203.636,526.829L203.636,521.611L208.854,521.611L208.854,526.978L209.002,526.978L209.002,526.829L209.002,526.978L209.15,526.978L209.15,521.463L209.107,521.358L209.002,521.314L203.488,521.314L203.383,521.358L203.339,521.463L203.339,526.978L203.383,527.082L203.488,527.126L209.002,527.126L209.107,527.082L209.15,526.978L209.002,526.978" style="fill:rgb(3,4,4);fill-rule:nonzero;"/>
            </g>
            <g transform="matrix(4.16667,0,0,4.16667,-460.913,-1719.4)">
                <rect x="197.974" y="526.991" width="5.514" height="5.514" style="fill:white;"/>
            </g>
            <g transform="matrix(4.16667,0,0,4.16667,-460.913,-1719.4)">
                <path d="M203.488,532.505L203.488,532.357L198.122,532.357L198.122,527.14L203.34,527.14L203.34,532.505L203.488,532.505L203.488,532.357L203.488,532.505L203.637,532.505L203.637,526.992L203.593,526.887L203.488,526.843L197.974,526.843L197.869,526.887L197.826,526.992L197.826,532.505L197.869,532.61L197.974,532.653L203.488,532.653L203.593,532.61L203.637,532.505L203.488,532.505" style="fill:rgb(3,4,4);fill-rule:nonzero;"/>
            </g>
            <g transform="matrix(4.16667,0,0,4.16667,-460.913,-1397.06)">
                <rect x="236.575" y="488.31" width="5.513" height="5.515" style="fill:white;"/>
            </g>
            <g transform="matrix(4.16667,0,0,4.16667,-460.913,-1397.06)">
                <path d="M242.088,493.825L242.088,493.677L236.723,493.677L236.723,488.458L241.939,488.458L241.939,493.825L242.088,493.825L242.088,493.677L242.088,493.825L242.236,493.825L242.236,488.31L242.193,488.205L242.088,488.162L236.575,488.162L236.47,488.205L236.426,488.31L236.426,493.825L236.47,493.93L236.575,493.973L242.088,493.973L242.193,493.93L242.236,493.825L242.088,493.825" style="fill:rgb(3,4,4);fill-rule:nonzero;"/>
            </g>
            <g transform="matrix(4.16667,0,0,4.16667,-460.913,-1443.24)">
                <rect x="225.545" y="493.851" width="5.515" height="5.515" style="fill:white;"/>
            </g>
            <g transform="matrix(4.16667,0,0,4.16667,-460.913,-1443.24)">
                <path d="M231.06,499.366L231.06,499.218L225.693,499.218L225.693,493.999L230.911,493.999L230.911,499.366L231.06,499.366L231.06,499.218L231.06,499.366L231.208,499.366L231.208,493.851L231.164,493.747L231.06,493.703L225.545,493.703L225.44,493.747L225.396,493.851L225.396,499.366L225.44,499.471L225.545,499.514L231.06,499.514L231.164,499.471L231.208,499.366L231.06,499.366" style="fill:rgb(34,30,31);fill-rule:nonzero;"/>
            </g>
            <g transform="matrix(4.16667,0,0,4.16667,-460.913,-1489.2)">
                <rect x="225.545" y="499.366" width="5.515" height="5.515" style="fill:white;"/>
            </g>
            <g transform="matrix(4.16667,0,0,4.16667,-460.913,-1489.2)">
                <path d="M231.06,504.881L231.06,504.733L225.693,504.733L225.693,499.515L230.911,499.515L230.911,504.881L231.06,504.881L231.06,504.733L231.06,504.881L231.208,504.881L231.208,499.367L231.164,499.262L231.06,499.218L225.545,499.218L225.44,499.262L225.396,499.367L225.396,504.881L225.44,504.986L225.545,505.029L231.06,505.029L231.164,504.986L231.208,504.881L231.06,504.881" style="fill:rgb(3,4,4);fill-rule:nonzero;"/>
            </g>
            <g transform="matrix(4.16667,0,0,4.16667,-460.913,-1535.26)">
                <rect x="220.031" y="504.894" width="5.515" height="5.515" style="fill:white;"/>
            </g>
            <g transform="matrix(4.16667,0,0,4.16667,-460.913,-1535.26)">
                <path d="M225.546,510.408L225.546,510.26L220.179,510.26L220.179,505.042L225.398,505.042L225.398,510.408L225.546,510.408L225.546,510.26L225.546,510.408L225.694,510.408L225.694,504.893L225.651,504.789L225.546,504.745L220.031,504.745L219.926,504.789L219.883,504.893L219.883,510.408L219.926,510.513L220.031,510.557L225.546,510.557L225.651,510.513L225.694,510.408L225.546,510.408" style="fill:rgb(3,4,4);fill-rule:nonzero;"/>
            </g>
        </g>
        <g transform="matrix(4.16667,0,0,4.16667,-574.538,-2003.87)">
            <path d="M140.459,534.225L139.075,534.225L139.075,486.592L140.459,486.592L140.459,485.406L137.889,485.406L137.889,535.411L140.459,535.411L140.459,534.225" style="fill:rgb(3,4,4);fill-rule:nonzero;"/>
        </g>
        <g transform="matrix(4.16667,0,0,4.16667,-574.538,-2003.87)">
            <path d="M244.831,535.411L247.4,535.411L247.4,485.406L244.831,485.406L244.831,486.592L246.214,486.592L246.214,534.225L244.831,534.225L244.831,535.411" style="fill:rgb(3,4,4);fill-rule:nonzero;"/>
        </g>
        <g transform="matrix(4.16667,0,0,4.16667,-574.538,-2164.6)">
            <rect x="143.572" y="527.139" width="5.218" height="5.114" style="fill:rgb(182,193,227);"/>
        </g>
        <g transform="matrix(4.16667,0,0,4.16667,-574.538,-2164.17)">
            <path d="M148.789,532.253L143.572,532.253L143.572,532.15L148.789,532.15L148.789,527.036L148.789,532.253" style="fill:rgb(22,26,75);fill-rule:nonzero;"/>
        </g>
        <g transform="matrix(4.16667,0,0,4.16667,-574.538,-2164.17)">
            <path d="M148.938,532.401L148.938,532.253L143.572,532.253L143.572,527.036L148.789,527.036L148.789,532.401L148.938,532.401L148.938,532.253L148.938,532.401L149.086,532.401L149.086,526.887L149.043,526.783L148.938,526.739L143.423,526.739L143.319,526.783L143.275,526.887L143.275,532.401L143.319,532.506L143.423,532.55L148.938,532.55L149.043,532.506L149.086,532.401L148.938,532.401" style="fill:rgb(60,90,168);fill-rule:nonzero;"/>
        </g>
        <g transform="matrix(4.16667,0,0,4.16667,-574.538,-2118.96)">
            <rect x="149.086" y="521.611" width="5.218" height="5.218" style="fill:rgb(182,193,227);"/>
        </g>
        <g transform="matrix(4.16667,0,0,4.16667,-574.538,-2119.08)">
            <path d="M154.452,526.99L154.452,526.856L154.452,526.99L148.937,526.99L148.937,521.728L148.938,521.728L149.043,521.684L149.086,521.579L149.086,521.477L154.452,521.477L154.452,526.99M149.086,521.637L149.086,526.856L154.303,526.856L154.303,521.637L149.086,521.637" style="fill:rgb(22,26,75);fill-rule:nonzero;"/>
        </g>
        <g transform="matrix(4.16667,0,0,4.16667,-574.538,-2141)">
            <path d="M148.938,526.99L148.937,526.99L148.937,526.739L148.938,526.739L148.938,526.841L148.938,526.739L149.086,526.739L149.086,526.841L149.043,526.946L148.938,526.99" style="fill:rgb(60,90,168);fill-rule:nonzero;"/>
        </g>
        <g transform="matrix(4.16667,0,0,4.16667,-574.538,-2119.08)">
            <path d="M154.452,526.991L154.452,526.843L149.086,526.843L149.086,521.626L154.303,521.626L154.303,526.991L154.452,526.991L154.452,526.843L154.452,526.991L154.6,526.991L154.6,521.478L154.556,521.373L154.452,521.329L148.937,521.329L148.832,521.373L148.789,521.478L148.789,526.991L148.832,527.096L148.937,527.139L154.452,527.139L154.556,527.096L154.6,526.991L154.452,526.991" style="fill:rgb(60,90,168);fill-rule:nonzero;"/>
        </g>
        <g transform="matrix(4.16667,0,0,4.16667,-574.538,-2027.01)">
            <rect x="160.114" y="510.596" width="5.218" height="5.178" style="fill:rgb(182,193,227);"/>
        </g>
        <g transform="matrix(4.16667,0,0,4.16667,-574.538,-2048.74)">
            <rect x="160.114" y="515.774" width="5.218" height="0.039" style="fill:rgb(22,26,75);"/>
        </g>
        <g transform="matrix(4.16667,0,0,4.16667,-574.538,-2027.16)">
            <path d="M165.48,515.961L165.48,515.812L160.114,515.812L160.114,510.596L165.332,510.596L165.332,515.961L165.48,515.961L165.48,515.812L165.48,515.961L165.629,515.961L165.629,510.447L165.585,510.342L165.48,510.299L159.966,510.299L159.861,510.342L159.818,510.447L159.818,515.961L159.861,516.065L159.966,516.109L165.48,516.109L165.585,516.065L165.629,515.961L165.48,515.961" style="fill:rgb(60,90,168);fill-rule:nonzero;"/>
        </g>
        <g transform="matrix(4.16667,0,0,4.16667,-574.538,-1981.16)">
            <rect x="165.629" y="505.107" width="5.217" height="5.154" style="fill:rgb(182,193,227);"/>
        </g>
        <g transform="matrix(4.16667,0,0,4.16667,-574.538,-2002.9)">
            <rect x="165.629" y="510.261" width="5.217" height="0.062" style="fill:rgb(22,26,75);"/>
        </g>
        <g transform="matrix(4.16667,0,0,4.16667,-574.538,-1981.42)">
            <path d="M170.995,510.472L170.995,510.323L165.629,510.323L165.629,505.107L170.846,505.107L170.846,510.472L170.995,510.472L170.995,510.323L170.995,510.472L171.143,510.472L171.143,504.959L171.1,504.854L170.995,504.81L165.481,504.81L165.376,504.854L165.333,504.959L165.333,510.472L165.376,510.576L165.481,510.62L170.995,510.62L171.1,510.576L171.143,510.472L170.995,510.472" style="fill:rgb(60,90,168);fill-rule:nonzero;"/>
        </g>
        <g transform="matrix(4.16667,0,0,4.16667,-574.538,-1934.71)">
            <rect x="171.143" y="499.514" width="5.217" height="5.191" style="fill:rgb(182,193,227);"/>
        </g>
        <g transform="matrix(4.16667,0,0,4.16667,-574.538,-1912.98)">
            <rect x="171.143" y="499.489" width="5.217" height="0.025" style="fill:rgb(22,26,75);"/>
        </g>
        <g transform="matrix(4.16667,0,0,4.16667,-574.538,-1934.61)">
            <path d="M176.508,504.854L176.508,504.706L171.143,504.706L171.143,499.49L176.36,499.49L176.36,504.854L176.508,504.854L176.508,504.706L176.508,504.854L176.657,504.854L176.657,499.341L176.613,499.237L176.508,499.193L170.995,499.193L170.89,499.237L170.846,499.341L170.846,504.854L170.89,504.959L170.995,505.002L176.508,505.002L176.613,504.959L176.657,504.854L176.508,504.854" style="fill:rgb(60,90,168);fill-rule:nonzero;"/>
        </g>
        <g transform="matrix(4.16667,0,0,4.16667,-574.538,-1888.7)">
            <rect x="176.657" y="493.986" width="5.12" height="5.204" style="fill:rgb(182,193,227);"/>
        </g>
        <g transform="matrix(4.16667,0,0,4.16667,-574.538,-1866.96)">
            <rect x="176.657" y="493.974" width="5.12" height="0.012" style="fill:rgb(22,26,75);"/>
        </g>
        <g transform="matrix(-4.16667,0,0,4.16667,897.196,-1888.65)">
            <path d="M176.559,499.19L176.657,499.19L176.657,493.974L176.559,493.974L176.559,499.19" style="fill:rgb(35,43,98);fill-rule:nonzero;"/>
        </g>
        <g transform="matrix(4.16667,0,0,4.16667,-574.538,-1888.65)">
            <path d="M181.925,499.339L181.925,499.191L176.559,499.191L176.559,493.975L181.777,493.975L181.777,499.339L181.925,499.339L181.925,499.191L181.925,499.339L182.073,499.339L182.073,493.827L182.03,493.722L181.925,493.678L176.411,493.678L176.306,493.722L176.263,493.827L176.263,499.339L176.306,499.444L176.411,499.487L181.925,499.487L182.03,499.444L182.073,499.339L181.925,499.339" style="fill:rgb(60,90,168);fill-rule:nonzero;"/>
        </g>
        <g transform="matrix(4.16667,0,0,4.16667,-574.538,-1842.7)">
            <rect x="182.172" y="488.459" width="5.217" height="5.218" style="fill:rgb(182,193,227);"/>
        </g>
        <g transform="matrix(4.16667,0,0,4.16667,-574.538,-1843.55)">
            <path d="M187.538,493.927L187.538,493.882L187.538,493.927L182.024,493.927L182.024,488.622L182.03,488.62L182.073,488.515L182.073,488.414L187.538,488.414L187.538,493.927M182.172,488.664L182.172,493.882L187.389,493.882L187.389,488.664L182.172,488.664" style="fill:rgb(22,26,75);fill-rule:nonzero;"/>
        </g>
        <g transform="matrix(4.16667,0,0,4.16667,-574.538,-1865.65)">
            <path d="M182.024,493.927L182.024,493.719L182.073,493.719L182.073,493.82L182.03,493.925L182.024,493.927" style="fill:rgb(60,90,168);fill-rule:nonzero;"/>
        </g>
        <g transform="matrix(4.16667,0,0,4.16667,-574.538,-1843.55)">
            <path d="M187.538,493.927L187.538,493.779L182.172,493.779L182.172,488.562L187.389,488.562L187.389,493.927L187.538,493.927L187.538,493.779L187.538,493.927L187.686,493.927L187.686,488.414L187.642,488.309L187.538,488.266L182.024,488.266L181.919,488.309L181.875,488.414L181.875,493.927L181.919,494.032L182.024,494.075L187.538,494.075L187.642,494.032L187.686,493.927L187.538,493.927" style="fill:rgb(60,90,168);fill-rule:nonzero;"/>
        </g>
        <g transform="matrix(4.16667,0,0,4.16667,214.019,109.347)">
            <g>
                <path d="M6.644,3.243C6.644,1.53 5.263,0.167 3.577,0.167C1.873,0.167 0.511,1.557 0.511,3.234C0.511,4.947 1.891,6.309 3.577,6.309C5.281,6.309 6.644,4.92 6.644,3.243ZM3.577,6.058C1.999,6.058 0.762,4.785 0.762,3.243C0.762,1.665 2.026,0.418 3.577,0.418C5.155,0.418 6.393,1.692 6.393,3.234C6.393,4.812 5.128,6.058 3.577,6.058ZM4.205,3.243C4.205,2.875 3.9,2.606 3.577,2.606C3.227,2.606 2.949,2.902 2.949,3.234C2.949,3.602 3.254,3.871 3.577,3.871C3.927,3.871 4.205,3.575 4.205,3.243Z" style="fill:rgb(35,31,32);fill-rule:nonzero;"/>
            </g>
        </g>
        <g transform="matrix(1.23667,0,0,1.23667,431.984,36.3835)">
            <g transform="matrix(24,0,0,24,56.555,78.3207)">
                <path d="M0.456,-0.001L0.451,0.004C0.405,0.001 0.349,-0 0.284,-0C0.22,-0 0.152,0.001 0.081,0.004L0.076,-0.001L0.076,-0.031L0.082,-0.036C0.098,-0.038 0.114,-0.039 0.13,-0.041C0.158,-0.043 0.176,-0.046 0.184,-0.049C0.189,-0.051 0.194,-0.057 0.198,-0.067C0.204,-0.082 0.207,-0.144 0.207,-0.252L0.207,-0.374C0.207,-0.41 0.206,-0.457 0.205,-0.513L0.204,-0.549C0.204,-0.566 0.201,-0.574 0.194,-0.574C0.191,-0.574 0.181,-0.57 0.165,-0.563C0.12,-0.542 0.082,-0.524 0.05,-0.508L0.044,-0.512C0.042,-0.53 0.039,-0.551 0.034,-0.574L0.035,-0.578C0.125,-0.603 0.225,-0.637 0.336,-0.68L0.346,-0.672C0.345,-0.653 0.343,-0.625 0.341,-0.587C0.34,-0.573 0.339,-0.534 0.338,-0.472L0.336,-0.28C0.336,-0.142 0.339,-0.069 0.343,-0.059C0.347,-0.051 0.351,-0.047 0.358,-0.045C0.37,-0.042 0.4,-0.039 0.45,-0.036L0.456,-0.031L0.456,-0.001Z" style="fill:rgb(35,31,32);fill-rule:nonzero;"/>
            </g>
        </g>
        <g transform="matrix(2.65028,0,0,2.65028,473.214,121.47)">
            <path d="M1.129,-0.694C1.667,-0.694 2.339,-0.254 2.339,0.544C2.339,1.117 1.828,1.727 1.129,1.727C0.456,1.727 -0.082,1.189 -0.082,0.579C-0.082,-0.003 0.304,-0.694 1.129,-0.694Z" style="fill:rgb(35,31,32);fill-rule:nonzero;"/>
        </g>
        <g transform="matrix(1.23667,0,0,1.23667,264.248,-72.5484)">
            <g transform="matrix(24,0,0,24,56.555,78.3207)">
                <path d="M0.647,-0.686C0.643,-0.662 0.641,-0.637 0.641,-0.611L0.64,-0.53L0.635,-0.525L0.604,-0.525L0.599,-0.529C0.597,-0.571 0.595,-0.595 0.593,-0.603C0.589,-0.616 0.579,-0.623 0.562,-0.625C0.556,-0.626 0.525,-0.627 0.47,-0.627L0.405,-0.627C0.404,-0.616 0.404,-0.57 0.404,-0.491L0.404,-0.214C0.404,-0.136 0.406,-0.086 0.41,-0.063C0.412,-0.053 0.417,-0.047 0.427,-0.044C0.432,-0.043 0.451,-0.042 0.484,-0.04L0.489,-0.035L0.489,-0.002L0.484,0.003C0.452,0.001 0.402,-0 0.333,-0C0.264,-0 0.214,0.001 0.183,0.003L0.179,-0.001L0.179,-0.035L0.184,-0.04C0.217,-0.042 0.236,-0.043 0.241,-0.044C0.25,-0.047 0.256,-0.053 0.257,-0.063C0.262,-0.086 0.264,-0.136 0.264,-0.214L0.264,-0.491C0.264,-0.572 0.263,-0.617 0.262,-0.627L0.192,-0.627C0.134,-0.627 0.1,-0.625 0.09,-0.622C0.085,-0.62 0.082,-0.617 0.08,-0.614C0.077,-0.609 0.074,-0.599 0.072,-0.583C0.07,-0.566 0.069,-0.548 0.068,-0.53L0.063,-0.525L0.032,-0.525L0.027,-0.53L0.026,-0.613C0.026,-0.637 0.024,-0.661 0.02,-0.686L0.024,-0.691C0.044,-0.688 0.114,-0.686 0.234,-0.686L0.432,-0.686C0.543,-0.686 0.613,-0.688 0.642,-0.691L0.647,-0.686Z" style="fill:rgb(35,31,32);fill-rule:nonzero;"/>
            </g>
        </g>
        <g transform="matrix(2.93439,0,0,2.93439,99.877,3.55659)">
            <path d="M6.931,0.827L7.899,0.827L7.899,0.387L0.376,0.387L0.376,0.827L1.344,0.827L1.344,6.045L0.376,6.045L0.376,6.484C0.69,6.458 1.622,6.458 1.99,6.458C2.358,6.458 3.299,6.458 3.613,6.484L3.613,6.045L2.645,6.045L2.645,0.827L5.63,0.827L5.63,6.045L4.662,6.045L4.662,6.484C4.976,6.458 5.908,6.458 6.276,6.458C6.644,6.458 7.585,6.458 7.899,6.484L7.899,6.045L6.931,6.045L6.931,0.827Z" style="fill:rgb(35,31,32);fill-rule:nonzero;"/>
        </g>
    </g>
</svg>
