<?xml version="1.0" encoding="UTF-8" standalone="no"?>
<!DOCTYPE svg PUBLIC "-//W3C//DTD SVG 1.1//EN" "http://www.w3.org/Graphics/SVG/1.1/DTD/svg11.dtd">
<svg width="100%" height="100%" viewBox="0 0 605 189" version="1.1" xmlns="http://www.w3.org/2000/svg" xmlns:xlink="http://www.w3.org/1999/xlink" xml:space="preserve" xmlns:serif="http://www.serif.com/" style="fill-rule:evenodd;clip-rule:evenodd;stroke-linejoin:round;stroke-miterlimit:2;">
    <g id="_4" serif:id="4" transform="matrix(0.808622,0,0,0.808622,183.796,4.28182)">
        <g transform="matrix(4.16667,0,0,4.16667,-574.538,-1773.55)">
            <rect x="257.084" y="433.022" width="5.514" height="44.092" style="fill:white;"/>
        </g>
        <g transform="matrix(4.16667,0,0,4.16667,-574.538,-1773.55)">
            <path d="M262.599,477.115L262.599,476.892L257.307,476.892L257.307,433.245L262.377,433.245L262.377,477.115L262.599,477.115L262.599,476.892L262.599,477.115L262.821,477.115L262.821,432.8L256.862,432.8L256.862,477.337L262.821,477.337L262.821,477.115L262.599,477.115" style="fill:rgb(3,4,4);fill-rule:nonzero;"/>
        </g>
        <g transform="matrix(4.16667,0,0,4.16667,-574.538,-1612.38)">
            <rect x="159.966" y="432.97" width="5.515" height="5.515" style="fill:white;"/>
        </g>
        <g transform="matrix(4.16667,0,0,4.16667,-574.538,-1612.37)">
            <path d="M165.48,438.484L165.48,438.336L160.114,438.336L160.114,433.118L165.332,433.118L165.332,438.484L165.48,438.484L165.48,438.336L165.48,438.484L165.629,438.484L165.629,432.97L165.585,432.865L165.48,432.821L159.966,432.821L159.861,432.865L159.818,432.97L159.818,438.484L159.861,438.589L159.966,438.633L165.48,438.633L165.585,438.589L165.629,438.484L165.48,438.484" style="fill:rgb(3,4,4);fill-rule:nonzero;"/>
        </g>
        <g transform="matrix(4.16667,0,0,4.16667,-574.538,-1658.33)">
            <path d="M165.48,443.999L165.48,443.85L160.114,443.85L160.114,438.632L165.332,438.632L165.332,443.999L165.48,443.999L165.48,443.85L165.48,443.999L165.629,443.999L165.629,438.336L159.818,438.336L159.818,444.147L165.629,444.147L165.629,443.999L165.48,443.999" style="fill:rgb(3,4,4);fill-rule:nonzero;"/>
        </g>
        <g transform="matrix(4.16667,0,0,4.16667,-574.538,-1704.28)">
            <rect x="159.966" y="443.999" width="5.515" height="5.515" style="fill:white;"/>
        </g>
        <g transform="matrix(4.16667,0,0,4.16667,-574.538,-1704.28)">
            <path d="M165.48,449.514L165.48,449.366L160.114,449.366L160.114,444.147L165.332,444.147L165.332,449.514L165.48,449.514L165.48,449.366L165.48,449.514L165.629,449.514L165.629,443.999L165.585,443.894L165.48,443.851L159.966,443.851L159.861,443.894L159.818,443.999L159.818,449.514L159.861,449.618L159.966,449.662L165.48,449.662L165.585,449.618L165.629,449.514L165.48,449.514" style="fill:rgb(3,4,4);fill-rule:nonzero;"/>
        </g>
        <g transform="matrix(4.16667,0,0,4.16667,-574.538,-1750.24)">
            <rect x="159.966" y="449.514" width="5.515" height="5.514" style="fill:white;"/>
        </g>
        <g transform="matrix(4.16667,0,0,4.16667,-574.538,-1750.24)">
            <path d="M165.48,455.029L165.48,454.881L160.114,454.881L160.114,449.663L165.332,449.663L165.332,455.029L165.48,455.029L165.48,454.881L165.48,455.029L165.629,455.029L165.629,449.515L165.585,449.41L165.48,449.366L159.966,449.366L159.861,449.41L159.818,449.515L159.818,455.029L159.861,455.134L159.966,455.177L165.48,455.177L165.585,455.134L165.629,455.029L165.48,455.029" style="fill:rgb(3,4,4);fill-rule:nonzero;"/>
        </g>
        <g transform="matrix(4.16667,0,0,4.16667,-574.538,-1841.94)">
            <rect x="159.966" y="460.518" width="5.515" height="5.514" style="fill:white;"/>
        </g>
        <g transform="matrix(4.16667,0,0,4.16667,-574.538,-1841.94)">
            <path d="M165.48,466.033L165.48,465.885L160.114,465.885L160.114,460.667L165.332,460.667L165.332,466.033L165.48,466.033L165.48,465.885L165.48,466.033L165.629,466.033L165.629,460.519L165.585,460.414L165.48,460.37L159.966,460.37L159.861,460.414L159.818,460.519L159.818,466.033L159.861,466.138L159.966,466.181L165.48,466.181L165.585,466.138L165.629,466.033L165.48,466.033" style="fill:rgb(3,4,4);fill-rule:nonzero;"/>
        </g>
        <g transform="matrix(4.16667,0,0,4.16667,-574.538,-1887.89)">
            <rect x="159.966" y="466.032" width="5.515" height="5.515" style="fill:white;"/>
        </g>
        <g transform="matrix(4.16667,0,0,4.16667,-574.538,-1887.89)">
            <path d="M165.48,471.547L165.48,471.398L160.114,471.398L160.114,466.18L165.332,466.18L165.332,471.547L165.48,471.547L165.48,471.398L165.48,471.547L165.629,471.547L165.629,466.032L165.585,465.927L165.48,465.884L159.966,465.884L159.861,465.927L159.818,466.032L159.818,471.547L159.861,471.651L159.966,471.695L165.48,471.695L165.585,471.651L165.629,471.547L165.48,471.547" style="fill:rgb(3,4,4);fill-rule:nonzero;"/>
        </g>
        <g transform="matrix(4.16667,0,0,4.16667,-574.538,-1933.85)">
            <rect x="159.966" y="471.547" width="5.515" height="5.514" style="fill:white;"/>
        </g>
        <g transform="matrix(4.16667,0,0,4.16667,-574.538,-1933.85)">
            <path d="M165.48,477.062L165.48,476.914L160.114,476.914L160.114,471.696L165.332,471.696L165.332,477.062L165.48,477.062L165.48,476.914L165.48,477.062L165.629,477.062L165.629,471.548L165.585,471.443L165.48,471.399L159.966,471.399L159.861,471.443L159.818,471.548L159.818,477.062L159.861,477.166L159.966,477.21L165.48,477.21L165.585,477.166L165.629,477.062L165.48,477.062" style="fill:rgb(3,4,4);fill-rule:nonzero;"/>
        </g>
        <g transform="matrix(4.16667,0,0,4.16667,-574.538,-1612.48)">
            <rect x="154.353" y="432.982" width="5.514" height="5.515" style="fill:white;"/>
        </g>
        <g transform="matrix(4.16667,0,0,4.16667,-574.538,-1612.48)">
            <path d="M159.867,438.497L159.867,438.349L154.501,438.349L154.501,433.13L159.719,433.13L159.719,438.497L159.867,438.497L159.867,438.349L159.867,438.497L160.015,438.497L160.015,432.982L159.972,432.877L159.867,432.834L154.353,432.834L154.248,432.877L154.205,432.982L154.205,438.497L154.248,438.602L154.353,438.645L159.867,438.645L159.972,438.602L160.015,438.497L159.867,438.497" style="fill:rgb(34,30,31);fill-rule:nonzero;"/>
        </g>
        <g transform="matrix(4.16667,0,0,4.16667,-574.538,-1658.43)">
            <rect x="154.353" y="438.497" width="5.514" height="5.515" style="fill:white;"/>
        </g>
        <g transform="matrix(4.16667,0,0,4.16667,-574.538,-1658.43)">
            <path d="M159.867,444.012L159.867,443.864L154.501,443.864L154.501,438.645L159.719,438.645L159.719,444.012L159.867,444.012L159.867,443.864L159.867,444.012L160.015,444.012L160.015,438.497L159.972,438.392L159.867,438.349L154.353,438.349L154.248,438.392L154.205,438.497L154.205,444.012L154.248,444.117L154.353,444.16L159.867,444.16L159.972,444.117L160.015,444.012L159.867,444.012" style="fill:rgb(34,30,31);fill-rule:nonzero;"/>
        </g>
        <g transform="matrix(4.16667,0,0,4.16667,-574.538,-1704.39)">
            <rect x="154.353" y="444.012" width="5.514" height="5.515" style="fill:white;"/>
        </g>
        <g transform="matrix(4.16667,0,0,4.16667,-574.538,-1704.39)">
            <path d="M159.867,449.527L159.867,449.379L154.501,449.379L154.501,444.16L159.719,444.16L159.719,449.527L159.867,449.527L159.867,449.379L159.867,449.527L160.015,449.527L160.015,444.012L159.972,443.907L159.867,443.864L154.353,443.864L154.248,443.907L154.205,444.012L154.205,449.527L154.248,449.632L154.353,449.675L159.867,449.675L159.972,449.632L160.015,449.527L159.867,449.527" style="fill:rgb(34,30,31);fill-rule:nonzero;"/>
        </g>
        <g transform="matrix(4.16667,0,0,4.16667,-574.538,-1750.35)">
            <rect x="154.353" y="449.527" width="5.514" height="5.515" style="fill:white;"/>
        </g>
        <g transform="matrix(4.16667,0,0,4.16667,-574.538,-1750.35)">
            <path d="M159.867,455.042L159.867,454.894L154.501,454.894L154.501,449.676L159.719,449.676L159.719,455.042L159.867,455.042L159.867,454.894L159.867,455.042L160.015,455.042L160.015,449.527L159.972,449.423L159.867,449.379L154.353,449.379L154.248,449.423L154.205,449.527L154.205,455.042L154.248,455.147L154.353,455.19L159.867,455.19L159.972,455.147L160.015,455.042L159.867,455.042" style="fill:rgb(34,30,31);fill-rule:nonzero;"/>
        </g>
        <g transform="matrix(4.16667,0,0,4.16667,-574.538,-1796.09)">
            <rect x="154.353" y="455.016" width="5.514" height="5.515" style="fill:white;"/>
        </g>
        <g transform="matrix(4.16667,0,0,4.16667,-574.538,-1796.09)">
            <path d="M159.867,460.531L159.867,460.383L154.501,460.383L154.501,455.164L159.719,455.164L159.719,460.531L159.867,460.531L159.867,460.383L159.867,460.531L160.015,460.531L160.015,455.016L159.972,454.911L159.867,454.868L154.353,454.868L154.248,454.911L154.205,455.016L154.205,460.531L154.248,460.636L154.353,460.679L159.867,460.679L159.972,460.636L160.015,460.531L159.867,460.531" style="fill:rgb(34,30,31);fill-rule:nonzero;"/>
        </g>
        <g transform="matrix(4.16667,0,0,4.16667,-574.538,-1888.01)">
            <rect x="154.353" y="466.046" width="5.514" height="5.515" style="fill:white;"/>
        </g>
        <g transform="matrix(4.16667,0,0,4.16667,-574.538,-1888.01)">
            <path d="M159.867,471.561L159.867,471.413L154.501,471.413L154.501,466.195L159.719,466.195L159.719,471.561L159.867,471.561L159.867,471.413L159.867,471.561L160.015,471.561L160.015,466.046L159.972,465.942L159.867,465.898L154.353,465.898L154.248,465.942L154.205,466.046L154.205,471.561L154.248,471.666L154.353,471.709L159.867,471.709L159.972,471.666L160.015,471.561L159.867,471.561" style="fill:rgb(34,30,31);fill-rule:nonzero;"/>
        </g>
        <g transform="matrix(4.16667,0,0,4.16667,-574.538,-1933.96)">
            <path d="M159.867,477.074L159.867,476.926L154.501,476.926L154.501,471.709L159.719,471.709L159.719,477.074L159.867,477.074L159.867,476.926L159.867,477.074L160.015,477.074L160.015,471.412L154.205,471.412L154.205,477.223L160.015,477.223L160.015,477.074L159.867,477.074" style="fill:rgb(3,4,4);fill-rule:nonzero;"/>
        </g>
        <g transform="matrix(4.16667,0,0,4.16667,-574.538,-1612.59)">
            <rect x="148.937" y="432.996" width="5.514" height="5.515" style="fill:white;"/>
        </g>
        <g transform="matrix(4.16667,0,0,4.16667,-574.538,-1612.59)">
            <path d="M154.452,438.51L154.452,438.362L149.086,438.362L149.086,433.144L154.303,433.144L154.303,438.51L154.452,438.51L154.452,438.362L154.452,438.51L154.6,438.51L154.6,432.995L154.556,432.891L154.452,432.847L148.937,432.847L148.832,432.891L148.789,432.995L148.789,438.51L148.832,438.615L148.937,438.659L154.452,438.659L154.556,438.615L154.6,438.51L154.452,438.51" style="fill:rgb(34,30,31);fill-rule:nonzero;"/>
        </g>
        <g transform="matrix(4.16667,0,0,4.16667,-574.538,-1658.55)">
            <rect x="148.937" y="438.511" width="5.514" height="5.515" style="fill:white;"/>
        </g>
        <g transform="matrix(4.16667,0,0,4.16667,-574.538,-1658.54)">
            <path d="M154.452,444.024L154.452,443.876L149.086,443.876L149.086,438.658L154.303,438.658L154.303,444.024L154.452,444.024L154.452,443.876L154.452,444.024L154.6,444.024L154.6,438.51L154.556,438.405L154.452,438.362L148.937,438.362L148.832,438.405L148.789,438.51L148.789,444.024L148.832,444.13L148.937,444.173L154.452,444.173L154.556,444.13L154.6,444.024L154.452,444.024" style="fill:rgb(34,30,31);fill-rule:nonzero;"/>
        </g>
        <g transform="matrix(4.16667,0,0,4.16667,-574.538,-1704.5)">
            <rect x="148.937" y="444.025" width="5.514" height="5.515" style="fill:white;"/>
        </g>
        <g transform="matrix(4.16667,0,0,4.16667,-574.538,-1704.5)">
            <path d="M154.452,449.54L154.452,449.392L149.086,449.392L149.086,444.173L154.303,444.173L154.303,449.54L154.452,449.54L154.452,449.392L154.452,449.54L154.6,449.54L154.6,444.025L154.556,443.92L154.452,443.877L148.937,443.877L148.832,443.92L148.789,444.025L148.789,449.54L148.832,449.645L148.937,449.688L154.452,449.688L154.556,449.645L154.6,449.54L154.452,449.54" style="fill:rgb(34,30,31);fill-rule:nonzero;"/>
        </g>
        <g transform="matrix(4.16667,0,0,4.16667,-574.538,-1750.46)">
            <rect x="148.937" y="449.54" width="5.514" height="5.515" style="fill:white;"/>
        </g>
        <g transform="matrix(4.16667,0,0,4.16667,-574.538,-1750.46)">
            <path d="M154.452,455.055L154.452,454.907L149.086,454.907L149.086,449.688L154.303,449.688L154.303,455.055L154.452,455.055L154.452,454.907L154.452,455.055L154.6,455.055L154.6,449.54L154.556,449.435L154.452,449.392L148.937,449.392L148.832,449.435L148.789,449.54L148.789,455.055L148.832,455.16L148.937,455.203L154.452,455.203L154.556,455.16L154.6,455.055L154.452,455.055" style="fill:rgb(34,30,31);fill-rule:nonzero;"/>
        </g>
        <g transform="matrix(4.16667,0,0,4.16667,-574.538,-1796.2)">
            <rect x="148.937" y="455.029" width="5.514" height="5.515" style="fill:white;"/>
        </g>
        <g transform="matrix(4.16667,0,0,4.16667,-574.538,-1796.2)">
            <path d="M154.452,460.545L154.452,460.396L149.086,460.396L149.086,455.178L154.303,455.178L154.303,460.545L154.452,460.545L154.452,460.396L154.452,460.545L154.6,460.545L154.6,455.03L154.556,454.925L154.452,454.881L148.937,454.881L148.832,454.925L148.789,455.03L148.789,460.545L148.832,460.649L148.937,460.693L154.452,460.693L154.556,460.649L154.6,460.545L154.452,460.545" style="fill:rgb(34,30,31);fill-rule:nonzero;"/>
        </g>
        <g transform="matrix(4.16667,0,0,4.16667,-574.538,-1842.16)">
            <rect x="148.937" y="460.544" width="5.514" height="5.515" style="fill:white;"/>
        </g>
        <g transform="matrix(4.16667,0,0,4.16667,-574.538,-1842.16)">
            <path d="M154.452,466.059L154.452,465.91L149.086,465.91L149.086,460.692L154.303,460.692L154.303,466.059L154.452,466.059L154.452,465.91L154.452,466.059L154.6,466.059L154.6,460.544L154.556,460.439L154.452,460.396L148.937,460.396L148.832,460.439L148.789,460.544L148.789,466.059L148.832,466.164L148.937,466.207L154.452,466.207L154.556,466.164L154.6,466.059L154.452,466.059" style="fill:rgb(34,30,31);fill-rule:nonzero;"/>
        </g>
        <g transform="matrix(4.16667,0,0,4.16667,-574.538,-1934.07)">
            <rect x="148.937" y="471.574" width="5.514" height="5.514" style="fill:white;"/>
        </g>
        <g transform="matrix(4.16667,0,0,4.16667,-574.538,-1934.07)">
            <path d="M154.452,477.088L154.452,476.94L149.086,476.94L149.086,471.723L154.303,471.723L154.303,477.088L154.452,477.088L154.452,476.94L154.452,477.088L154.6,477.088L154.6,471.574L154.556,471.47L154.452,471.426L148.937,471.426L148.832,471.47L148.789,471.574L148.789,477.088L148.832,477.193L148.937,477.236L154.452,477.236L154.556,477.193L154.6,477.088L154.452,477.088" style="fill:rgb(34,30,31);fill-rule:nonzero;"/>
        </g>
        <g transform="matrix(4.16667,0,0,4.16667,-574.538,-1612.7)">
            <rect x="143.423" y="433.009" width="5.515" height="5.515" style="fill:white;"/>
        </g>
        <g transform="matrix(4.16667,0,0,4.16667,-574.538,-1612.7)">
            <path d="M148.938,438.524L148.938,438.376L143.571,438.376L143.571,433.158L148.789,433.158L148.789,438.524L148.938,438.524L148.938,438.376L148.938,438.524L149.086,438.524L149.086,433.009L149.043,432.904L148.938,432.861L143.423,432.861L143.318,432.904L143.275,433.009L143.275,438.524L143.318,438.629L143.423,438.672L148.938,438.672L149.043,438.629L149.086,438.524L148.938,438.524" style="fill:rgb(34,30,31);fill-rule:nonzero;"/>
        </g>
        <g transform="matrix(4.16667,0,0,4.16667,-574.538,-1658.66)">
            <rect x="143.423" y="438.524" width="5.515" height="5.515" style="fill:white;"/>
        </g>
        <g transform="matrix(4.16667,0,0,4.16667,-574.538,-1658.65)">
            <path d="M148.938,444.038L148.938,443.89L143.571,443.89L143.571,438.672L148.789,438.672L148.789,444.038L148.938,444.038L148.938,443.89L148.938,444.038L149.086,444.038L149.086,438.523L149.043,438.419L148.938,438.375L143.423,438.375L143.318,438.419L143.275,438.523L143.275,444.038L143.318,444.143L143.423,444.187L148.938,444.187L149.043,444.143L149.086,444.038L148.938,444.038" style="fill:rgb(34,30,31);fill-rule:nonzero;"/>
        </g>
        <g transform="matrix(4.16667,0,0,4.16667,-574.538,-1704.62)">
            <rect x="143.423" y="444.039" width="5.515" height="5.515" style="fill:white;"/>
        </g>
        <g transform="matrix(4.16667,0,0,4.16667,-574.538,-1704.61)">
            <path d="M148.938,449.553L148.938,449.405L143.571,449.405L143.571,444.187L148.789,444.187L148.789,449.553L148.938,449.553L148.938,449.405L148.938,449.553L149.086,449.553L149.086,444.038L149.043,443.934L148.938,443.89L143.423,443.89L143.318,443.934L143.275,444.038L143.275,449.553L143.318,449.658L143.423,449.702L148.938,449.702L149.043,449.658L149.086,449.553L148.938,449.553" style="fill:rgb(34,30,31);fill-rule:nonzero;"/>
        </g>
        <g transform="matrix(4.16667,0,0,4.16667,-574.538,-1750.57)">
            <path d="M148.938,455.067L148.938,454.919L143.571,454.919L143.571,449.701L148.789,449.701L148.789,455.067L148.938,455.067L148.938,454.919L148.938,455.067L149.086,455.067L149.086,449.405L143.275,449.405L143.275,455.216L149.086,455.216L149.086,455.067L148.938,455.067" style="fill:rgb(3,4,4);fill-rule:nonzero;"/>
        </g>
        <g transform="matrix(4.16667,0,0,4.16667,-574.538,-1796.32)">
            <rect x="143.423" y="455.043" width="5.515" height="5.515" style="fill:white;"/>
        </g>
        <g transform="matrix(4.16667,0,0,4.16667,-574.538,-1796.32)">
            <path d="M148.938,460.558L148.938,460.41L143.571,460.41L143.571,455.192L148.789,455.192L148.789,460.558L148.938,460.558L148.938,460.41L148.938,460.558L149.086,460.558L149.086,455.044L149.043,454.939L148.938,454.895L143.423,454.895L143.318,454.939L143.275,455.044L143.275,460.558L143.318,460.663L143.423,460.706L148.938,460.706L149.043,460.663L149.086,460.558L148.938,460.558" style="fill:rgb(34,30,31);fill-rule:nonzero;"/>
        </g>
        <g transform="matrix(4.16667,0,0,4.16667,-574.538,-1842.27)">
            <rect x="143.423" y="460.557" width="5.515" height="5.515" style="fill:white;"/>
        </g>
        <g transform="matrix(4.16667,0,0,4.16667,-574.538,-1842.27)">
            <path d="M148.938,466.073L148.938,465.924L143.571,465.924L143.571,460.706L148.789,460.706L148.789,466.073L148.938,466.073L148.938,465.924L148.938,466.073L149.086,466.073L149.086,460.558L149.043,460.453L148.938,460.409L143.423,460.409L143.318,460.453L143.275,460.558L143.275,466.073L143.318,466.177L143.423,466.221L148.938,466.221L149.043,466.177L149.086,466.073L148.938,466.073" style="fill:rgb(34,30,31);fill-rule:nonzero;"/>
        </g>
        <g transform="matrix(4.16667,0,0,4.16667,-574.538,-1888.23)">
            <rect x="143.423" y="466.072" width="5.515" height="5.515" style="fill:white;"/>
        </g>
        <g transform="matrix(4.16667,0,0,4.16667,-574.538,-1888.23)">
            <path d="M148.938,471.588L148.938,471.439L143.571,471.439L143.571,466.221L148.789,466.221L148.789,471.588L148.938,471.588L148.938,471.439L148.938,471.588L149.086,471.588L149.086,466.073L149.043,465.968L148.938,465.924L143.423,465.924L143.318,465.968L143.275,466.073L143.275,471.588L143.318,471.692L143.423,471.736L148.938,471.736L149.043,471.692L149.086,471.588L148.938,471.588" style="fill:rgb(34,30,31);fill-rule:nonzero;"/>
        </g>
        <g transform="matrix(4.16667,0,0,4.16667,-574.538,-1657.8)">
            <rect x="182.024" y="438.421" width="5.514" height="5.514" style="fill:white;"/>
        </g>
        <g transform="matrix(4.16667,0,0,4.16667,-574.538,-1657.8)">
            <path d="M187.538,443.936L187.538,443.787L182.172,443.787L182.172,438.569L187.389,438.569L187.389,443.936L187.538,443.936L187.538,443.787L187.538,443.936L187.686,443.936L187.686,438.421L187.642,438.316L187.538,438.273L182.024,438.273L181.919,438.316L181.875,438.421L181.875,443.936L181.919,444.041L182.024,444.084L187.538,444.084L187.642,444.041L187.686,443.936L187.538,443.936" style="fill:rgb(3,4,4);fill-rule:nonzero;"/>
        </g>
        <g transform="matrix(4.16667,0,0,4.16667,-574.538,-1703.76)">
            <path d="M187.538,449.451L187.538,449.303L182.172,449.303L182.172,444.084L187.389,444.084L187.389,449.451L187.538,449.451L187.538,449.303L187.538,449.451L187.686,449.451L187.686,443.788L181.875,443.788L181.875,449.599L187.686,449.599L187.686,449.451L187.538,449.451" style="fill:rgb(3,4,4);fill-rule:nonzero;"/>
        </g>
        <g transform="matrix(4.16667,0,0,4.16667,-574.538,-1749.72)">
            <rect x="182.024" y="449.451" width="5.514" height="5.514" style="fill:white;"/>
        </g>
        <g transform="matrix(4.16667,0,0,4.16667,-574.538,-1749.71)">
            <path d="M187.538,454.965L187.538,454.817L182.172,454.817L182.172,449.599L187.389,449.599L187.389,454.965L187.538,454.965L187.538,454.817L187.538,454.965L187.686,454.965L187.686,449.451L187.642,449.346L187.538,449.303L182.024,449.303L181.919,449.346L181.875,449.451L181.875,454.965L181.919,455.07L182.024,455.113L187.538,455.113L187.642,455.07L187.686,454.965L187.538,454.965" style="fill:rgb(3,4,4);fill-rule:nonzero;"/>
        </g>
        <g transform="matrix(4.16667,0,0,4.16667,-574.538,-1795.46)">
            <rect x="182.024" y="454.94" width="5.514" height="5.515" style="fill:white;"/>
        </g>
        <g transform="matrix(4.16667,0,0,4.16667,-574.538,-1795.46)">
            <path d="M187.538,460.456L187.538,460.307L182.172,460.307L182.172,455.089L187.389,455.089L187.389,460.456L187.538,460.456L187.538,460.307L187.538,460.456L187.686,460.456L187.686,454.941L187.642,454.836L187.538,454.792L182.024,454.792L181.919,454.836L181.875,454.941L181.875,460.456L181.919,460.56L182.024,460.604L187.538,460.604L187.642,460.56L187.686,460.456L187.538,460.456" style="fill:rgb(3,4,4);fill-rule:nonzero;"/>
        </g>
        <g transform="matrix(4.16667,0,0,4.16667,-574.538,-1841.42)">
            <rect x="182.024" y="460.455" width="5.514" height="5.514" style="fill:white;"/>
        </g>
        <g transform="matrix(4.16667,0,0,4.16667,-574.538,-1841.42)">
            <path d="M187.538,465.97L187.538,465.821L182.172,465.821L182.172,460.604L187.389,460.604L187.389,465.97L187.538,465.97L187.538,465.821L187.538,465.97L187.686,465.97L187.686,460.455L187.642,460.351L187.538,460.307L182.024,460.307L181.919,460.351L181.875,460.455L181.875,465.97L181.919,466.075L182.024,466.118L187.538,466.118L187.642,466.075L187.686,465.97L187.538,465.97" style="fill:rgb(3,4,4);fill-rule:nonzero;"/>
        </g>
        <g transform="matrix(4.16667,0,0,4.16667,-574.538,-1887.37)">
            <rect x="182.024" y="465.97" width="5.514" height="5.514" style="fill:white;"/>
        </g>
        <g transform="matrix(4.16667,0,0,4.16667,-574.538,-1887.37)">
            <path d="M187.538,471.483L187.538,471.335L182.172,471.335L182.172,466.117L187.389,466.117L187.389,471.483L187.538,471.483L187.538,471.335L187.538,471.483L187.686,471.483L187.686,465.969L187.642,465.864L187.538,465.821L182.024,465.821L181.919,465.864L181.875,465.969L181.875,471.483L181.919,471.589L182.024,471.632L187.538,471.632L187.642,471.589L187.686,471.483L187.538,471.483" style="fill:rgb(3,4,4);fill-rule:nonzero;"/>
        </g>
        <g transform="matrix(4.16667,0,0,4.16667,-574.538,-1933.32)">
            <rect x="182.024" y="471.484" width="5.514" height="5.514" style="fill:white;"/>
        </g>
        <g transform="matrix(4.16667,0,0,4.16667,-574.538,-1933.32)">
            <path d="M187.538,476.998L187.538,476.85L182.172,476.85L182.172,471.632L187.389,471.632L187.389,476.998L187.538,476.998L187.538,476.85L187.538,476.998L187.686,476.998L187.686,471.484L187.642,471.379L187.538,471.336L182.024,471.336L181.919,471.379L181.875,471.484L181.875,476.998L181.919,477.103L182.024,477.146L187.538,477.146L187.642,477.103L187.686,476.998L187.538,476.998" style="fill:rgb(3,4,4);fill-rule:nonzero;"/>
        </g>
        <g transform="matrix(4.16667,0,0,4.16667,-574.538,-1611.95)">
            <rect x="176.411" y="432.919" width="5.515" height="5.515" style="fill:white;"/>
        </g>
        <g transform="matrix(4.16667,0,0,4.16667,-574.538,-1611.95)">
            <path d="M181.925,438.434L181.925,438.285L176.559,438.285L176.559,433.067L181.777,433.067L181.777,438.434L181.925,438.434L181.925,438.285L181.925,438.434L182.073,438.434L182.073,432.919L182.03,432.814L181.925,432.771L176.411,432.771L176.305,432.814L176.262,432.919L176.262,438.434L176.305,438.539L176.411,438.582L181.925,438.582L182.03,438.539L182.073,438.434L181.925,438.434" style="fill:rgb(34,30,31);fill-rule:nonzero;"/>
        </g>
        <g transform="matrix(4.16667,0,0,4.16667,-574.538,-1657.91)">
            <rect x="176.411" y="438.434" width="5.515" height="5.515" style="fill:white;"/>
        </g>
        <g transform="matrix(4.16667,0,0,4.16667,-574.538,-1657.91)">
            <path d="M181.925,443.949L181.925,443.801L176.559,443.801L176.559,438.582L181.777,438.582L181.777,443.949L181.925,443.949L181.925,443.801L181.925,443.949L182.073,443.949L182.073,438.434L182.03,438.329L181.925,438.286L176.411,438.286L176.305,438.329L176.262,438.434L176.262,443.949L176.305,444.054L176.411,444.097L181.925,444.097L182.03,444.054L182.073,443.949L181.925,443.949" style="fill:rgb(3,4,4);fill-rule:nonzero;"/>
        </g>
        <g transform="matrix(4.16667,0,0,4.16667,-574.538,-1703.87)">
            <rect x="176.411" y="443.949" width="5.515" height="5.515" style="fill:white;"/>
        </g>
        <g transform="matrix(4.16667,0,0,4.16667,-574.538,-1703.87)">
            <path d="M181.925,449.464L181.925,449.316L176.559,449.316L176.559,444.097L181.777,444.097L181.777,449.464L181.925,449.464L181.925,449.316L181.925,449.464L182.073,449.464L182.073,443.949L182.03,443.845L181.925,443.801L176.411,443.801L176.305,443.845L176.262,443.949L176.262,449.464L176.305,449.569L176.411,449.612L181.925,449.612L182.03,449.569L182.073,449.464L181.925,449.464" style="fill:rgb(34,30,31);fill-rule:nonzero;"/>
        </g>
        <g transform="matrix(4.16667,0,0,4.16667,-574.538,-1749.83)">
            <rect x="176.411" y="449.464" width="5.515" height="5.515" style="fill:white;"/>
        </g>
        <g transform="matrix(4.16667,0,0,4.16667,-574.538,-1749.83)">
            <path d="M181.925,454.979L181.925,454.831L176.559,454.831L176.559,449.613L181.777,449.613L181.777,454.979L181.925,454.979L181.925,454.831L181.925,454.979L182.073,454.979L182.073,449.464L182.03,449.36L181.925,449.316L176.411,449.316L176.305,449.36L176.262,449.464L176.262,454.979L176.305,455.084L176.411,455.127L181.925,455.127L182.03,455.084L182.073,454.979L181.925,454.979" style="fill:rgb(34,30,31);fill-rule:nonzero;"/>
        </g>
        <g transform="matrix(4.16667,0,0,4.16667,-574.538,-1795.57)">
            <rect x="176.411" y="454.953" width="5.515" height="5.515" style="fill:white;"/>
        </g>
        <g transform="matrix(4.16667,0,0,4.16667,-574.538,-1795.57)">
            <path d="M181.925,460.468L181.925,460.32L176.559,460.32L176.559,455.101L181.777,455.101L181.777,460.468L181.925,460.468L181.925,460.32L181.925,460.468L182.073,460.468L182.073,454.953L182.03,454.848L181.925,454.805L176.411,454.805L176.305,454.848L176.262,454.953L176.262,460.468L176.305,460.573L176.411,460.616L181.925,460.616L182.03,460.573L182.073,460.468L181.925,460.468" style="fill:rgb(34,30,31);fill-rule:nonzero;"/>
        </g>
        <g transform="matrix(4.16667,0,0,4.16667,-574.538,-1841.53)">
            <rect x="176.411" y="460.468" width="5.515" height="5.515" style="fill:white;"/>
        </g>
        <g transform="matrix(4.16667,0,0,4.16667,-574.538,-1841.53)">
            <path d="M181.925,465.983L181.925,465.835L176.559,465.835L176.559,460.617L181.777,460.617L181.777,465.983L181.925,465.983L181.925,465.835L181.925,465.983L182.073,465.983L182.073,460.468L182.03,460.363L181.925,460.32L176.411,460.32L176.305,460.363L176.262,460.468L176.262,465.983L176.305,466.088L176.411,466.131L181.925,466.131L182.03,466.088L182.073,465.983L181.925,465.983" style="fill:rgb(34,30,31);fill-rule:nonzero;"/>
        </g>
        <g transform="matrix(4.16667,0,0,4.16667,-574.538,-1887.48)">
            <path d="M181.925,471.497L181.925,471.349L176.559,471.349L176.559,466.131L181.777,466.131L181.777,471.497L181.925,471.497L181.925,471.349L181.925,471.497L182.073,471.497L182.073,465.834L176.262,465.834L176.262,471.646L182.073,471.646L182.073,471.497L181.925,471.497" style="fill:rgb(3,4,4);fill-rule:nonzero;"/>
        </g>
        <g transform="matrix(4.16667,0,0,4.16667,-574.538,-1933.43)">
            <rect x="176.411" y="471.497" width="5.515" height="5.514" style="fill:white;"/>
        </g>
        <g transform="matrix(4.16667,0,0,4.16667,-574.538,-1933.43)">
            <path d="M181.925,477.011L181.925,476.862L176.559,476.862L176.559,471.645L181.777,471.645L181.777,477.011L181.925,477.011L181.925,476.862L181.925,477.011L182.073,477.011L182.073,471.497L182.03,471.392L181.925,471.349L176.411,471.349L176.305,471.392L176.262,471.497L176.262,477.011L176.305,477.115L176.411,477.159L181.925,477.159L182.03,477.115L182.073,477.011L181.925,477.011" style="fill:rgb(34,30,31);fill-rule:nonzero;"/>
        </g>
        <g transform="matrix(4.16667,0,0,4.16667,-574.538,-1612.06)">
            <rect x="170.994" y="432.932" width="5.515" height="5.515" style="fill:white;"/>
        </g>
        <g transform="matrix(4.16667,0,0,4.16667,-574.538,-1612.06)">
            <path d="M176.509,438.448L176.509,438.299L171.142,438.299L171.142,433.081L176.361,433.081L176.361,438.448L176.509,438.448L176.509,438.299L176.509,438.448L176.657,438.448L176.657,432.933L176.614,432.828L176.509,432.784L170.994,432.784L170.889,432.828L170.846,432.933L170.846,438.448L170.889,438.552L170.994,438.596L176.509,438.596L176.614,438.552L176.657,438.448L176.509,438.448" style="fill:rgb(34,30,31);fill-rule:nonzero;"/>
        </g>
        <g transform="matrix(4.16667,0,0,4.16667,-574.538,-1749.93)">
            <rect x="170.994" y="449.477" width="5.515" height="5.515" style="fill:white;"/>
        </g>
        <g transform="matrix(4.16667,0,0,4.16667,-574.538,-1749.93)">
            <path d="M176.509,454.992L176.509,454.844L171.142,454.844L171.142,449.625L176.361,449.625L176.361,454.992L176.509,454.992L176.509,454.844L176.509,454.992L176.657,454.992L176.657,449.477L176.614,449.373L176.509,449.329L170.994,449.329L170.889,449.373L170.846,449.477L170.846,454.992L170.889,455.097L170.994,455.14L176.509,455.14L176.614,455.097L176.657,454.992L176.509,454.992" style="fill:rgb(34,30,31);fill-rule:nonzero;"/>
        </g>
        <g transform="matrix(4.16667,0,0,4.16667,-574.538,-1795.68)">
            <rect x="170.994" y="454.966" width="5.515" height="5.515" style="fill:white;"/>
        </g>
        <g transform="matrix(4.16667,0,0,4.16667,-574.538,-1795.68)">
            <path d="M176.509,460.481L176.509,460.333L171.142,460.333L171.142,455.114L176.361,455.114L176.361,460.481L176.509,460.481L176.509,460.333L176.509,460.481L176.657,460.481L176.657,454.966L176.614,454.861L176.509,454.818L170.994,454.818L170.889,454.861L170.846,454.966L170.846,460.481L170.889,460.585L170.994,460.629L176.509,460.629L176.614,460.585L176.657,460.481L176.509,460.481" style="fill:rgb(34,30,31);fill-rule:nonzero;"/>
        </g>
        <g transform="matrix(4.16667,0,0,4.16667,-574.538,-1841.63)">
            <rect x="170.994" y="460.481" width="5.515" height="5.515" style="fill:white;"/>
        </g>
        <g transform="matrix(4.16667,0,0,4.16667,-574.538,-1841.63)">
            <path d="M176.509,465.996L176.509,465.848L171.142,465.848L171.142,460.629L176.361,460.629L176.361,465.996L176.509,465.996L176.509,465.848L176.509,465.996L176.657,465.996L176.657,460.481L176.614,460.376L176.509,460.333L170.994,460.333L170.889,460.376L170.846,460.481L170.846,465.996L170.889,466.1L170.994,466.144L176.509,466.144L176.614,466.1L176.657,465.996L176.509,465.996" style="fill:rgb(34,30,31);fill-rule:nonzero;"/>
        </g>
        <g transform="matrix(4.16667,0,0,4.16667,-574.538,-1887.59)">
            <rect x="170.994" y="465.996" width="5.515" height="5.515" style="fill:white;"/>
        </g>
        <g transform="matrix(4.16667,0,0,4.16667,-574.538,-1887.59)">
            <path d="M176.509,471.511L176.509,471.363L171.142,471.363L171.142,466.145L176.361,466.145L176.361,471.511L176.509,471.511L176.509,471.363L176.509,471.511L176.657,471.511L176.657,465.996L176.614,465.891L176.509,465.848L170.994,465.848L170.889,465.891L170.846,465.996L170.846,471.511L170.889,471.616L170.994,471.659L176.509,471.659L176.614,471.616L176.657,471.511L176.509,471.511" style="fill:rgb(34,30,31);fill-rule:nonzero;"/>
        </g>
        <g transform="matrix(4.16667,0,0,4.16667,-574.538,-1933.55)">
            <rect x="170.994" y="471.511" width="5.515" height="5.514" style="fill:white;"/>
        </g>
        <g transform="matrix(4.16667,0,0,4.16667,-574.538,-1933.54)">
            <path d="M176.509,477.024L176.509,476.876L171.142,476.876L171.142,471.659L176.361,471.659L176.361,477.024L176.509,477.024L176.509,476.876L176.509,477.024L176.657,477.024L176.657,471.51L176.614,471.406L176.509,471.362L170.994,471.362L170.889,471.406L170.846,471.51L170.846,477.024L170.889,477.129L170.994,477.173L176.509,477.173L176.614,477.129L176.657,477.024L176.509,477.024" style="fill:rgb(34,30,31);fill-rule:nonzero;"/>
        </g>
        <g transform="matrix(4.16667,0,0,4.16667,-574.538,-1612.18)">
            <path d="M170.995,438.461L170.995,438.313L165.629,438.313L165.629,433.095L170.847,433.095L170.847,438.461L170.995,438.461L170.995,438.313L170.995,438.461L171.143,438.461L171.143,432.798L165.332,432.798L165.332,438.609L171.143,438.609L171.143,438.461L170.995,438.461" style="fill:rgb(3,4,4);fill-rule:nonzero;"/>
        </g>
        <g transform="matrix(4.16667,0,0,4.16667,-574.538,-1658.13)">
            <rect x="165.48" y="438.461" width="5.515" height="5.515" style="fill:white;"/>
        </g>
        <g transform="matrix(4.16667,0,0,4.16667,-574.538,-1658.13)">
            <path d="M170.995,443.975L170.995,443.827L165.629,443.827L165.629,438.609L170.847,438.609L170.847,443.975L170.995,443.975L170.995,443.827L170.995,443.975L171.143,443.975L171.143,438.461L171.1,438.356L170.995,438.312L165.48,438.312L165.376,438.356L165.332,438.461L165.332,443.975L165.376,444.08L165.48,444.124L170.995,444.124L171.1,444.08L171.143,443.975L170.995,443.975" style="fill:rgb(34,30,31);fill-rule:nonzero;"/>
        </g>
        <g transform="matrix(4.16667,0,0,4.16667,-574.538,-1704.08)">
            <rect x="165.48" y="443.975" width="5.515" height="5.515" style="fill:white;"/>
        </g>
        <g transform="matrix(4.16667,0,0,4.16667,-574.538,-1704.09)">
            <path d="M170.995,449.491L170.995,449.342L165.629,449.342L165.629,444.124L170.847,444.124L170.847,449.491L170.995,449.491L170.995,449.342L170.995,449.491L171.143,449.491L171.143,443.976L171.1,443.871L170.995,443.827L165.48,443.827L165.376,443.871L165.332,443.976L165.332,449.491L165.376,449.595L165.48,449.639L170.995,449.639L171.1,449.595L171.143,449.491L170.995,449.491" style="fill:rgb(34,30,31);fill-rule:nonzero;"/>
        </g>
        <g transform="matrix(4.16667,0,0,4.16667,-574.538,-1795.79)">
            <path d="M170.995,460.494L170.995,460.346L165.629,460.346L165.629,455.128L170.847,455.128L170.847,460.494L170.995,460.494L170.995,460.346L170.995,460.494L171.143,460.494L171.143,454.831L165.332,454.831L165.332,460.643L171.143,460.643L171.143,460.494L170.995,460.494" style="fill:rgb(3,4,4);fill-rule:nonzero;"/>
        </g>
        <g transform="matrix(4.16667,0,0,4.16667,-574.538,-1841.75)">
            <rect x="165.48" y="460.495" width="5.515" height="5.515" style="fill:white;"/>
        </g>
        <g transform="matrix(4.16667,0,0,4.16667,-574.538,-1841.74)">
            <path d="M170.995,466.008L170.995,465.86L165.629,465.86L165.629,460.642L170.847,460.642L170.847,466.008L170.995,466.008L170.995,465.86L170.995,466.008L171.143,466.008L171.143,460.494L171.1,460.389L170.995,460.346L165.48,460.346L165.376,460.389L165.332,460.494L165.332,466.008L165.376,466.113L165.48,466.157L170.995,466.157L171.1,466.113L171.143,466.008L170.995,466.008" style="fill:rgb(34,30,31);fill-rule:nonzero;"/>
        </g>
        <g transform="matrix(4.16667,0,0,4.16667,-574.538,-1887.7)">
            <rect x="165.48" y="466.009" width="5.515" height="5.515" style="fill:white;"/>
        </g>
        <g transform="matrix(4.16667,0,0,4.16667,-574.538,-1887.7)">
            <path d="M170.995,471.524L170.995,471.376L165.629,471.376L165.629,466.157L170.847,466.157L170.847,471.524L170.995,471.524L170.995,471.376L170.995,471.524L171.143,471.524L171.143,466.009L171.1,465.904L170.995,465.861L165.48,465.861L165.376,465.904L165.332,466.009L165.332,471.524L165.376,471.629L165.48,471.672L170.995,471.672L171.1,471.629L171.143,471.524L170.995,471.524" style="fill:rgb(34,30,31);fill-rule:nonzero;"/>
        </g>
        <g transform="matrix(4.16667,0,0,4.16667,-574.538,-1933.65)">
            <rect x="165.48" y="471.524" width="5.515" height="5.514" style="fill:white;"/>
        </g>
        <g transform="matrix(4.16667,0,0,4.16667,-574.538,-1933.65)">
            <path d="M170.995,477.038L170.995,476.89L165.629,476.89L165.629,471.673L170.847,471.673L170.847,477.038L170.995,477.038L170.995,476.89L170.995,477.038L171.143,477.038L171.143,471.524L171.1,471.419L170.995,471.376L165.48,471.376L165.376,471.419L165.332,471.524L165.332,477.038L165.376,477.143L165.48,477.186L170.995,477.186L171.1,477.143L171.143,477.038L170.995,477.038" style="fill:rgb(34,30,31);fill-rule:nonzero;"/>
        </g>
        <g transform="matrix(4.16667,0,0,4.16667,-574.538,-1795.99)">
            <rect x="159.966" y="455.004" width="5.515" height="5.515" style="fill:white;"/>
        </g>
        <g transform="matrix(4.16667,0,0,4.16667,-574.538,-1795.98)">
            <path d="M165.48,460.517L165.48,460.369L160.114,460.369L160.114,455.151L165.332,455.151L165.332,460.517L165.48,460.517L165.48,460.369L165.48,460.517L165.629,460.517L165.629,455.003L165.585,454.898L165.48,454.855L159.966,454.855L159.861,454.898L159.818,455.003L159.818,460.517L159.861,460.623L159.966,460.666L165.48,460.666L165.585,460.623L165.629,460.517L165.48,460.517" style="fill:rgb(3,4,4);fill-rule:nonzero;"/>
        </g>
        <g transform="matrix(4.16667,0,0,4.16667,-574.538,-1888.12)">
            <rect x="148.937" y="466.059" width="5.514" height="5.515" style="fill:white;"/>
        </g>
        <g transform="matrix(4.16667,0,0,4.16667,-574.538,-1888.12)">
            <path d="M154.452,471.574L154.452,471.426L149.086,471.426L149.086,466.207L154.303,466.207L154.303,471.574L154.452,471.574L154.452,471.426L154.452,471.574L154.6,471.574L154.6,466.059L154.556,465.954L154.452,465.911L148.937,465.911L148.832,465.954L148.789,466.059L148.789,471.574L148.832,471.679L148.937,471.722L154.452,471.722L154.556,471.679L154.6,471.574L154.452,471.574" style="fill:rgb(3,4,4);fill-rule:nonzero;"/>
        </g>
        <g transform="matrix(4.16667,0,0,4.16667,-574.538,-1934.18)">
            <rect x="143.423" y="471.587" width="5.515" height="5.514" style="fill:white;"/>
        </g>
        <g transform="matrix(4.16667,0,0,4.16667,-574.538,-1934.18)">
            <path d="M148.938,477.101L148.938,476.952L143.571,476.952L143.571,471.735L148.789,471.735L148.789,477.101L148.938,477.101L148.938,476.952L148.938,477.101L149.086,477.101L149.086,471.587L149.043,471.482L148.938,471.439L143.423,471.439L143.318,471.482L143.275,471.587L143.275,477.101L143.318,477.206L143.423,477.249L148.938,477.249L149.043,477.206L149.086,477.101L148.938,477.101" style="fill:rgb(3,4,4);fill-rule:nonzero;"/>
        </g>
        <g transform="matrix(4.16667,0,0,4.16667,-574.538,-1611.85)">
            <rect x="182.024" y="432.907" width="5.514" height="5.515" style="fill:white;"/>
        </g>
        <g transform="matrix(4.16667,0,0,4.16667,-574.538,-1611.85)">
            <path d="M187.538,438.421L187.538,438.273L182.172,438.273L182.172,433.055L187.389,433.055L187.389,438.421L187.538,438.421L187.538,438.273L187.538,438.421L187.686,438.421L187.686,432.907L187.642,432.802L187.538,432.758L182.024,432.758L181.919,432.802L181.875,432.907L181.875,438.421L181.919,438.526L182.024,438.57L187.538,438.57L187.642,438.526L187.686,438.421L187.538,438.421" style="fill:rgb(3,4,4);fill-rule:nonzero;"/>
        </g>
        <g transform="matrix(4.16667,0,0,4.16667,-574.538,-1658.02)">
            <rect x="170.994" y="438.447" width="5.515" height="5.515" style="fill:white;"/>
        </g>
        <g transform="matrix(4.16667,0,0,4.16667,-574.538,-1658.02)">
            <path d="M176.509,443.963L176.509,443.814L171.142,443.814L171.142,438.596L176.361,438.596L176.361,443.963L176.509,443.963L176.509,443.814L176.509,443.963L176.657,443.963L176.657,438.448L176.614,438.343L176.509,438.299L170.994,438.299L170.889,438.343L170.846,438.448L170.846,443.963L170.889,444.067L170.994,444.111L176.509,444.111L176.614,444.067L176.657,443.963L176.509,443.963" style="fill:rgb(34,30,31);fill-rule:nonzero;"/>
        </g>
        <g transform="matrix(4.16667,0,0,4.16667,-574.538,-1703.98)">
            <rect x="170.994" y="443.962" width="5.515" height="5.515" style="fill:white;"/>
        </g>
        <g transform="matrix(4.16667,0,0,4.16667,-574.538,-1703.98)">
            <path d="M176.509,449.477L176.509,449.328L171.142,449.328L171.142,444.11L176.361,444.11L176.361,449.477L176.509,449.477L176.509,449.328L176.509,449.477L176.657,449.477L176.657,443.962L176.614,443.857L176.509,443.814L170.994,443.814L170.889,443.857L170.846,443.962L170.846,449.477L170.889,449.582L170.994,449.625L176.509,449.625L176.614,449.582L176.657,449.477L176.509,449.477" style="fill:rgb(3,4,4);fill-rule:nonzero;"/>
        </g>
        <g transform="matrix(4.16667,0,0,4.16667,-574.538,-1750.04)">
            <rect x="165.48" y="449.49" width="5.515" height="5.515" style="fill:white;"/>
        </g>
        <g transform="matrix(4.16667,0,0,4.16667,-574.538,-1750.05)">
            <path d="M170.995,455.006L170.995,454.857L165.629,454.857L165.629,449.639L170.847,449.639L170.847,455.006L170.995,455.006L170.995,454.857L170.995,455.006L171.143,455.006L171.143,449.491L171.1,449.386L170.995,449.342L165.48,449.342L165.376,449.386L165.332,449.491L165.332,455.006L165.376,455.11L165.48,455.154L170.995,455.154L171.1,455.11L171.143,455.006L170.995,455.006" style="fill:rgb(3,4,4);fill-rule:nonzero;"/>
        </g>
        <g transform="matrix(1,0,0,1,-113.625,-676.478)">
            <g transform="matrix(4.16667,0,0,4.16667,-460.913,-935.888)">
                <rect x="214.516" y="432.969" width="5.515" height="5.515" style="fill:white;"/>
            </g>
            <g transform="matrix(4.16667,0,0,4.16667,-460.913,-935.889)">
                <path d="M220.031,438.484L220.031,438.336L214.664,438.336L214.664,433.117L219.883,433.117L219.883,438.484L220.031,438.484L220.031,438.336L220.031,438.484L220.179,438.484L220.179,432.969L220.136,432.864L220.031,432.821L214.516,432.821L214.412,432.864L214.368,432.969L214.368,438.484L214.412,438.589L214.516,438.632L220.031,438.632L220.136,438.589L220.179,438.484L220.031,438.484" style="fill:rgb(3,4,4);fill-rule:nonzero;"/>
            </g>
            <g transform="matrix(4.16667,0,0,4.16667,-460.913,-981.847)">
                <path d="M220.031,443.999L220.031,443.851L214.664,443.851L214.664,438.633L219.883,438.633L219.883,443.999L220.031,443.999L220.031,443.851L220.031,443.999L220.179,443.999L220.179,438.336L214.368,438.336L214.368,444.147L220.179,444.147L220.179,443.999L220.031,443.999" style="fill:rgb(3,4,4);fill-rule:nonzero;"/>
            </g>
            <g transform="matrix(4.16667,0,0,4.16667,-460.913,-1027.8)">
                <rect x="214.516" y="443.999" width="5.515" height="5.515" style="fill:white;"/>
            </g>
            <g transform="matrix(4.16667,0,0,4.16667,-460.913,-1027.8)">
                <path d="M220.031,449.513L220.031,449.365L214.664,449.365L214.664,444.147L219.883,444.147L219.883,449.513L220.031,449.513L220.031,449.365L220.031,449.513L220.179,449.513L220.179,443.998L220.136,443.894L220.031,443.85L214.516,443.85L214.412,443.894L214.368,443.998L214.368,449.513L214.412,449.618L214.516,449.662L220.031,449.662L220.136,449.618L220.179,449.513L220.031,449.513" style="fill:rgb(3,4,4);fill-rule:nonzero;"/>
            </g>
            <g transform="matrix(4.16667,0,0,4.16667,-460.913,-1073.76)">
                <rect x="214.516" y="449.514" width="5.515" height="5.514" style="fill:white;"/>
            </g>
            <g transform="matrix(4.16667,0,0,4.16667,-460.913,-1073.76)">
                <path d="M220.031,455.027L220.031,454.879L214.664,454.879L214.664,449.661L219.883,449.661L219.883,455.027L220.031,455.027L220.031,454.879L220.031,455.027L220.179,455.027L220.179,449.513L220.136,449.409L220.031,449.365L214.516,449.365L214.412,449.409L214.368,449.513L214.368,455.027L214.412,455.132L214.516,455.176L220.031,455.176L220.136,455.132L220.179,455.027L220.031,455.027" style="fill:rgb(3,4,4);fill-rule:nonzero;"/>
            </g>
            <g transform="matrix(4.16667,0,0,4.16667,-460.913,-1165.46)">
                <rect x="214.516" y="460.518" width="5.515" height="5.514" style="fill:white;"/>
            </g>
            <g transform="matrix(4.16667,0,0,4.16667,-460.913,-1165.46)">
                <path d="M220.031,466.032L220.031,465.884L214.664,465.884L214.664,460.666L219.883,460.666L219.883,466.032L220.031,466.032L220.031,465.884L220.031,466.032L220.179,466.032L220.179,460.518L220.136,460.413L220.031,460.37L214.516,460.37L214.412,460.413L214.368,460.518L214.368,466.032L214.412,466.137L214.516,466.18L220.031,466.18L220.136,466.137L220.179,466.032L220.031,466.032" style="fill:rgb(3,4,4);fill-rule:nonzero;"/>
            </g>
            <g transform="matrix(4.16667,0,0,4.16667,-460.913,-1211.41)">
                <rect x="214.516" y="466.032" width="5.515" height="5.514" style="fill:white;"/>
            </g>
            <g transform="matrix(4.16667,0,0,4.16667,-460.913,-1211.41)">
                <path d="M220.031,471.547L220.031,471.399L214.664,471.399L214.664,466.181L219.883,466.181L219.883,471.547L220.031,471.547L220.031,471.399L220.031,471.547L220.179,471.547L220.179,466.033L220.136,465.927L220.031,465.884L214.516,465.884L214.412,465.927L214.368,466.033L214.368,471.547L214.412,471.652L214.516,471.695L220.031,471.695L220.136,471.652L220.179,471.547L220.031,471.547" style="fill:rgb(3,4,4);fill-rule:nonzero;"/>
            </g>
            <g transform="matrix(4.16667,0,0,4.16667,-460.913,-1257.36)">
                <rect x="214.516" y="471.546" width="5.515" height="5.514" style="fill:white;"/>
            </g>
            <g transform="matrix(4.16667,0,0,4.16667,-460.913,-1257.36)">
                <path d="M220.031,477.061L220.031,476.912L214.664,476.912L214.664,471.695L219.883,471.695L219.883,477.061L220.031,477.061L220.031,476.912L220.031,477.061L220.179,477.061L220.179,471.546L220.136,471.441L220.031,471.398L214.516,471.398L214.412,471.441L214.368,471.546L214.368,477.061L214.412,477.165L214.516,477.209L220.031,477.209L220.136,477.165L220.179,477.061L220.031,477.061" style="fill:rgb(3,4,4);fill-rule:nonzero;"/>
            </g>
            <g transform="matrix(4.16667,0,0,4.16667,-460.913,-935.997)">
                <rect x="208.904" y="432.982" width="5.514" height="5.515" style="fill:white;"/>
            </g>
            <g transform="matrix(4.16667,0,0,4.16667,-460.913,-935.997)">
                <path d="M214.418,438.497L214.418,438.349L209.052,438.349L209.052,433.131L214.269,433.131L214.269,438.497L214.418,438.497L214.418,438.349L214.418,438.497L214.566,438.497L214.566,432.983L214.523,432.877L214.418,432.834L208.904,432.834L208.799,432.877L208.755,432.983L208.755,438.497L208.799,438.602L208.904,438.645L214.418,438.645L214.523,438.602L214.566,438.497L214.418,438.497" style="fill:rgb(34,30,31);fill-rule:nonzero;"/>
            </g>
            <g transform="matrix(4.16667,0,0,4.16667,-460.913,-981.947)">
                <rect x="208.904" y="438.496" width="5.514" height="5.515" style="fill:white;"/>
            </g>
            <g transform="matrix(4.16667,0,0,4.16667,-460.913,-981.951)">
                <path d="M214.418,444.012L214.418,443.863L209.052,443.863L209.052,438.645L214.269,438.645L214.269,444.012L214.418,444.012L214.418,443.863L214.418,444.012L214.566,444.012L214.566,438.497L214.523,438.392L214.418,438.348L208.904,438.348L208.799,438.392L208.755,438.497L208.755,444.012L208.799,444.116L208.904,444.16L214.418,444.16L214.523,444.116L214.566,444.012L214.418,444.012" style="fill:rgb(34,30,31);fill-rule:nonzero;"/>
            </g>
            <g transform="matrix(4.16667,0,0,4.16667,-460.913,-1027.9)">
                <rect x="208.904" y="444.011" width="5.514" height="5.515" style="fill:white;"/>
            </g>
            <g transform="matrix(4.16667,0,0,4.16667,-460.913,-1027.91)">
                <path d="M214.418,449.527L214.418,449.378L209.052,449.378L209.052,444.16L214.269,444.16L214.269,449.527L214.418,449.527L214.418,449.378L214.418,449.527L214.566,449.527L214.566,444.012L214.523,443.907L214.418,443.863L208.904,443.863L208.799,443.907L208.755,444.012L208.755,449.527L208.799,449.631L208.904,449.675L214.418,449.675L214.523,449.631L214.566,449.527L214.418,449.527" style="fill:rgb(34,30,31);fill-rule:nonzero;"/>
            </g>
            <g transform="matrix(4.16667,0,0,4.16667,-460.913,-1073.86)">
                <rect x="208.904" y="449.526" width="5.514" height="5.515" style="fill:white;"/>
            </g>
            <g transform="matrix(4.16667,0,0,4.16667,-460.913,-1073.86)">
                <path d="M214.418,455.041L214.418,454.892L209.052,454.892L209.052,449.674L214.269,449.674L214.269,455.041L214.418,455.041L214.418,454.892L214.418,455.041L214.566,455.041L214.566,449.526L214.523,449.421L214.418,449.378L208.904,449.378L208.799,449.421L208.755,449.526L208.755,455.041L208.799,455.146L208.904,455.189L214.418,455.189L214.523,455.146L214.566,455.041L214.418,455.041" style="fill:rgb(34,30,31);fill-rule:nonzero;"/>
            </g>
            <g transform="matrix(4.16667,0,0,4.16667,-460.913,-1119.61)">
                <rect x="208.904" y="455.016" width="5.514" height="5.515" style="fill:white;"/>
            </g>
            <g transform="matrix(4.16667,0,0,4.16667,-460.913,-1119.61)">
                <path d="M214.418,460.53L214.418,460.382L209.052,460.382L209.052,455.164L214.269,455.164L214.269,460.53L214.418,460.53L214.418,460.382L214.418,460.53L214.566,460.53L214.566,455.016L214.523,454.911L214.418,454.867L208.904,454.867L208.799,454.911L208.755,455.016L208.755,460.53L208.799,460.635L208.904,460.679L214.418,460.679L214.523,460.635L214.566,460.53L214.418,460.53" style="fill:rgb(34,30,31);fill-rule:nonzero;"/>
            </g>
            <g transform="matrix(4.16667,0,0,4.16667,-460.913,-1211.52)">
                <rect x="208.904" y="466.045" width="5.514" height="5.515" style="fill:white;"/>
            </g>
            <g transform="matrix(4.16667,0,0,4.16667,-460.913,-1211.52)">
                <path d="M214.418,471.56L214.418,471.412L209.052,471.412L209.052,466.193L214.269,466.193L214.269,471.56L214.418,471.56L214.418,471.412L214.418,471.56L214.566,471.56L214.566,466.045L214.523,465.94L214.418,465.897L208.904,465.897L208.799,465.94L208.755,466.045L208.755,471.56L208.799,471.665L208.904,471.708L214.418,471.708L214.523,471.665L214.566,471.56L214.418,471.56" style="fill:rgb(34,30,31);fill-rule:nonzero;"/>
            </g>
            <g transform="matrix(4.16667,0,0,4.16667,-460.913,-1257.48)">
                <path d="M214.418,477.074L214.418,476.926L209.052,476.926L209.052,471.709L214.269,471.709L214.269,477.074L214.418,477.074L214.418,476.926L214.418,477.074L214.566,477.074L214.566,471.412L208.755,471.412L208.755,477.222L214.566,477.222L214.566,477.074L214.418,477.074" style="fill:rgb(3,4,4);fill-rule:nonzero;"/>
            </g>
            <g transform="matrix(4.16667,0,0,4.16667,-460.913,-936.105)">
                <rect x="203.488" y="432.995" width="5.514" height="5.515" style="fill:white;"/>
            </g>
            <g transform="matrix(4.16667,0,0,4.16667,-460.913,-936.106)">
                <path d="M209.002,438.51L209.002,438.362L203.636,438.362L203.636,433.143L208.854,433.143L208.854,438.51L209.002,438.51L209.002,438.362L209.002,438.51L209.15,438.51L209.15,432.995L209.107,432.89L209.002,432.847L203.488,432.847L203.383,432.89L203.339,432.995L203.339,438.51L203.383,438.615L203.488,438.658L209.002,438.658L209.107,438.615L209.15,438.51L209.002,438.51" style="fill:rgb(34,30,31);fill-rule:nonzero;"/>
            </g>
            <g transform="matrix(4.16667,0,0,4.16667,-460.913,-982.063)">
                <rect x="203.488" y="438.51" width="5.514" height="5.515" style="fill:white;"/>
            </g>
            <g transform="matrix(4.16667,0,0,4.16667,-460.913,-982.064)">
                <path d="M209.002,444.025L209.002,443.877L203.636,443.877L203.636,438.658L208.854,438.658L208.854,444.025L209.002,444.025L209.002,443.877L209.002,444.025L209.15,444.025L209.15,438.51L209.107,438.405L209.002,438.362L203.488,438.362L203.383,438.405L203.339,438.51L203.339,444.025L203.383,444.13L203.488,444.173L209.002,444.173L209.107,444.13L209.15,444.025L209.002,444.025" style="fill:rgb(34,30,31);fill-rule:nonzero;"/>
            </g>
            <g transform="matrix(4.16667,0,0,4.16667,-460.913,-1028.02)">
                <rect x="203.488" y="444.025" width="5.514" height="5.515" style="fill:white;"/>
            </g>
            <g transform="matrix(4.16667,0,0,4.16667,-460.913,-1028.02)">
                <path d="M209.002,449.54L209.002,449.392L203.636,449.392L203.636,444.174L208.854,444.174L208.854,449.54L209.002,449.54L209.002,449.392L209.002,449.54L209.15,449.54L209.15,444.026L209.107,443.92L209.002,443.877L203.488,443.877L203.383,443.92L203.339,444.026L203.339,449.54L203.383,449.645L203.488,449.688L209.002,449.688L209.107,449.645L209.15,449.54L209.002,449.54" style="fill:rgb(34,30,31);fill-rule:nonzero;"/>
            </g>
            <g transform="matrix(4.16667,0,0,4.16667,-460.913,-1073.97)">
                <rect x="203.488" y="449.539" width="5.514" height="5.515" style="fill:white;"/>
            </g>
            <g transform="matrix(4.16667,0,0,4.16667,-460.913,-1073.98)">
                <path d="M209.002,455.055L209.002,454.906L203.636,454.906L203.636,449.688L208.854,449.688L208.854,455.055L209.002,455.055L209.002,454.906L209.002,455.055L209.15,455.055L209.15,449.54L209.107,449.435L209.002,449.391L203.488,449.391L203.383,449.435L203.339,449.54L203.339,455.055L203.383,455.159L203.488,455.203L209.002,455.203L209.107,455.159L209.15,455.055L209.002,455.055" style="fill:rgb(34,30,31);fill-rule:nonzero;"/>
            </g>
            <g transform="matrix(4.16667,0,0,4.16667,-460.913,-1119.72)">
                <rect x="203.488" y="455.029" width="5.514" height="5.515" style="fill:white;"/>
            </g>
            <g transform="matrix(4.16667,0,0,4.16667,-460.913,-1119.72)">
                <path d="M209.002,460.543L209.002,460.395L203.636,460.395L203.636,455.177L208.854,455.177L208.854,460.543L209.002,460.543L209.002,460.395L209.002,460.543L209.15,460.543L209.15,455.028L209.107,454.924L209.002,454.88L203.488,454.88L203.383,454.924L203.339,455.028L203.339,460.543L203.383,460.648L203.488,460.692L209.002,460.692L209.107,460.648L209.15,460.543L209.002,460.543" style="fill:rgb(34,30,31);fill-rule:nonzero;"/>
            </g>
            <g transform="matrix(4.16667,0,0,4.16667,-460.913,-1165.68)">
                <rect x="203.488" y="460.544" width="5.514" height="5.515" style="fill:white;"/>
            </g>
            <g transform="matrix(4.16667,0,0,4.16667,-460.913,-1165.68)">
                <path d="M209.002,466.058L209.002,465.91L203.636,465.91L203.636,460.692L208.854,460.692L208.854,466.058L209.002,466.058L209.002,465.91L209.002,466.058L209.15,466.058L209.15,460.543L209.107,460.439L209.002,460.395L203.488,460.395L203.383,460.439L203.339,460.543L203.339,466.058L203.383,466.163L203.488,466.207L209.002,466.207L209.107,466.163L209.15,466.058L209.002,466.058" style="fill:rgb(34,30,31);fill-rule:nonzero;"/>
            </g>
            <g transform="matrix(4.16667,0,0,4.16667,-460.913,-1257.58)">
                <rect x="203.488" y="471.573" width="5.514" height="5.514" style="fill:white;"/>
            </g>
            <g transform="matrix(4.16667,0,0,4.16667,-460.913,-1257.58)">
                <path d="M209.002,477.087L209.002,476.939L203.636,476.939L203.636,471.721L208.854,471.721L208.854,477.087L209.002,477.087L209.002,476.939L209.002,477.087L209.15,477.087L209.15,471.573L209.107,471.468L209.002,471.425L203.488,471.425L203.383,471.468L203.339,471.573L203.339,477.087L203.383,477.192L203.488,477.235L209.002,477.235L209.107,477.192L209.15,477.087L209.002,477.087" style="fill:rgb(34,30,31);fill-rule:nonzero;"/>
            </g>
            <g transform="matrix(4.16667,0,0,4.16667,-460.913,-936.213)">
                <rect x="197.974" y="433.008" width="5.514" height="5.515" style="fill:white;"/>
            </g>
            <g transform="matrix(4.16667,0,0,4.16667,-460.913,-936.214)">
                <path d="M203.488,438.523L203.488,438.374L198.122,438.374L198.122,433.156L203.34,433.156L203.34,438.523L203.488,438.523L203.488,438.374L203.488,438.523L203.637,438.523L203.637,433.008L203.593,432.903L203.488,432.86L197.974,432.86L197.869,432.903L197.826,433.008L197.826,438.523L197.869,438.627L197.974,438.671L203.488,438.671L203.593,438.627L203.637,438.523L203.488,438.523" style="fill:rgb(34,30,31);fill-rule:nonzero;"/>
            </g>
            <g transform="matrix(4.16667,0,0,4.16667,-460.913,-982.172)">
                <rect x="197.974" y="438.523" width="5.514" height="5.515" style="fill:white;"/>
            </g>
            <g transform="matrix(4.16667,0,0,4.16667,-460.913,-982.172)">
                <path d="M203.488,444.038L203.488,443.89L198.122,443.89L198.122,438.671L203.34,438.671L203.34,444.038L203.488,444.038L203.488,443.89L203.488,444.038L203.637,444.038L203.637,438.523L203.593,438.418L203.488,438.375L197.974,438.375L197.869,438.418L197.826,438.523L197.826,444.038L197.869,444.143L197.974,444.186L203.488,444.186L203.593,444.143L203.637,444.038L203.488,444.038" style="fill:rgb(34,30,31);fill-rule:nonzero;"/>
            </g>
            <g transform="matrix(4.16667,0,0,4.16667,-460.913,-1028.13)">
                <rect x="197.974" y="444.038" width="5.514" height="5.515" style="fill:white;"/>
            </g>
            <g transform="matrix(4.16667,0,0,4.16667,-460.913,-1028.13)">
                <path d="M203.488,449.553L203.488,449.405L198.122,449.405L198.122,444.186L203.34,444.186L203.34,449.553L203.488,449.553L203.488,449.405L203.488,449.553L203.637,449.553L203.637,444.038L203.593,443.933L203.488,443.89L197.974,443.89L197.869,443.933L197.826,444.038L197.826,449.553L197.869,449.658L197.974,449.701L203.488,449.701L203.593,449.658L203.637,449.553L203.488,449.553" style="fill:rgb(34,30,31);fill-rule:nonzero;"/>
            </g>
            <g transform="matrix(4.16667,0,0,4.16667,-460.913,-1074.09)">
                <path d="M203.488,455.068L203.488,454.92L198.122,454.92L198.122,449.701L203.34,449.701L203.34,455.068L203.488,455.068L203.488,454.92L203.488,455.068L203.637,455.068L203.637,449.405L197.826,449.405L197.826,455.216L203.637,455.216L203.637,455.068L203.488,455.068" style="fill:rgb(3,4,4);fill-rule:nonzero;"/>
            </g>
            <g transform="matrix(4.16667,0,0,4.16667,-460.913,-1119.83)">
                <rect x="197.974" y="455.042" width="5.514" height="5.515" style="fill:white;"/>
            </g>
            <g transform="matrix(4.16667,0,0,4.16667,-460.913,-1119.83)">
                <path d="M203.488,460.557L203.488,460.408L198.122,460.408L198.122,455.19L203.34,455.19L203.34,460.557L203.488,460.557L203.488,460.408L203.488,460.557L203.637,460.557L203.637,455.042L203.593,454.937L203.488,454.894L197.974,454.894L197.869,454.937L197.826,455.042L197.826,460.557L197.869,460.661L197.974,460.705L203.488,460.705L203.593,460.661L203.637,460.557L203.488,460.557" style="fill:rgb(34,30,31);fill-rule:nonzero;"/>
            </g>
            <g transform="matrix(4.16667,0,0,4.16667,-460.913,-1165.79)">
                <rect x="197.974" y="460.557" width="5.514" height="5.515" style="fill:white;"/>
            </g>
            <g transform="matrix(4.16667,0,0,4.16667,-460.913,-1165.79)">
                <path d="M203.488,466.072L203.488,465.924L198.122,465.924L198.122,460.706L203.34,460.706L203.34,466.072L203.488,466.072L203.488,465.924L203.488,466.072L203.637,466.072L203.637,460.557L203.593,460.452L203.488,460.409L197.974,460.409L197.869,460.452L197.826,460.557L197.826,466.072L197.869,466.177L197.974,466.22L203.488,466.22L203.593,466.177L203.637,466.072L203.488,466.072" style="fill:rgb(34,30,31);fill-rule:nonzero;"/>
            </g>
            <g transform="matrix(4.16667,0,0,4.16667,-460.913,-1211.75)">
                <rect x="197.974" y="466.072" width="5.514" height="5.515" style="fill:white;"/>
            </g>
            <g transform="matrix(4.16667,0,0,4.16667,-460.913,-1211.74)">
                <path d="M203.488,471.586L203.488,471.438L198.122,471.438L198.122,466.22L203.34,466.22L203.34,471.586L203.488,471.586L203.488,471.438L203.488,471.586L203.637,471.586L203.637,466.071L203.593,465.967L203.488,465.923L197.974,465.923L197.869,465.967L197.826,466.071L197.826,471.586L197.869,471.691L197.974,471.735L203.488,471.735L203.593,471.691L203.637,471.586L203.488,471.586" style="fill:rgb(34,30,31);fill-rule:nonzero;"/>
            </g>
            <g transform="matrix(4.16667,0,0,4.16667,-460.913,-981.322)">
                <rect x="236.575" y="438.421" width="5.513" height="5.515" style="fill:white;"/>
            </g>
            <g transform="matrix(4.16667,0,0,4.16667,-460.913,-981.322)">
                <path d="M242.088,443.936L242.088,443.788L236.723,443.788L236.723,438.57L241.939,438.57L241.939,443.936L242.088,443.936L242.088,443.788L242.088,443.936L242.236,443.936L242.236,438.421L242.193,438.317L242.088,438.273L236.575,438.273L236.47,438.317L236.426,438.421L236.426,443.936L236.47,444.041L236.575,444.084L242.088,444.084L242.193,444.041L242.236,443.936L242.088,443.936" style="fill:rgb(3,4,4);fill-rule:nonzero;"/>
            </g>
            <g transform="matrix(4.16667,0,0,4.16667,-460.913,-1027.27)">
                <path d="M242.088,449.449L242.088,449.301L236.723,449.301L236.723,444.083L241.939,444.083L241.939,449.449L242.088,449.449L242.088,449.301L242.088,449.449L242.236,449.449L242.236,443.787L236.426,443.787L236.426,449.598L242.236,449.598L242.236,449.449L242.088,449.449" style="fill:rgb(3,4,4);fill-rule:nonzero;"/>
            </g>
            <g transform="matrix(4.16667,0,0,4.16667,-460.913,-1073.23)">
                <rect x="236.575" y="449.45" width="5.513" height="5.514" style="fill:white;"/>
            </g>
            <g transform="matrix(4.16667,0,0,4.16667,-460.913,-1073.23)">
                <path d="M242.088,454.965L242.088,454.817L236.723,454.817L236.723,449.599L241.939,449.599L241.939,454.965L242.088,454.965L242.088,454.817L242.088,454.965L242.236,454.965L242.236,449.451L242.193,449.345L242.088,449.302L236.575,449.302L236.47,449.345L236.426,449.451L236.426,454.965L236.47,455.069L236.575,455.113L242.088,455.113L242.193,455.069L242.236,454.965L242.088,454.965" style="fill:rgb(3,4,4);fill-rule:nonzero;"/>
            </g>
            <g transform="matrix(4.16667,0,0,4.16667,-460.913,-1118.98)">
                <rect x="236.575" y="454.94" width="5.513" height="5.515" style="fill:white;"/>
            </g>
            <g transform="matrix(4.16667,0,0,4.16667,-460.913,-1118.98)">
                <path d="M242.088,460.454L242.088,460.306L236.723,460.306L236.723,455.088L241.939,455.088L241.939,460.454L242.088,460.454L242.088,460.306L242.088,460.454L242.236,460.454L242.236,454.939L242.193,454.835L242.088,454.791L236.575,454.791L236.47,454.835L236.426,454.939L236.426,460.454L236.47,460.559L236.575,460.603L242.088,460.603L242.193,460.559L242.236,460.454L242.088,460.454" style="fill:rgb(3,4,4);fill-rule:nonzero;"/>
            </g>
            <g transform="matrix(4.16667,0,0,4.16667,-460.913,-1164.94)">
                <rect x="236.575" y="460.455" width="5.513" height="5.514" style="fill:white;"/>
            </g>
            <g transform="matrix(4.16667,0,0,4.16667,-460.913,-1164.93)">
                <path d="M242.088,465.968L242.088,465.82L236.723,465.82L236.723,460.602L241.939,460.602L241.939,465.968L242.088,465.968L242.088,465.82L242.088,465.968L242.236,465.968L242.236,460.454L242.193,460.35L242.088,460.306L236.575,460.306L236.47,460.35L236.426,460.454L236.426,465.968L236.47,466.073L236.575,466.117L242.088,466.117L242.193,466.073L242.236,465.968L242.088,465.968" style="fill:rgb(3,4,4);fill-rule:nonzero;"/>
            </g>
            <g transform="matrix(4.16667,0,0,4.16667,-460.913,-1210.89)">
                <rect x="236.575" y="465.969" width="5.513" height="5.515" style="fill:white;"/>
            </g>
            <g transform="matrix(4.16667,0,0,4.16667,-460.913,-1210.89)">
                <path d="M242.088,471.484L242.088,471.336L236.723,471.336L236.723,466.118L241.939,466.118L241.939,471.484L242.088,471.484L242.088,471.336L242.088,471.484L242.236,471.484L242.236,465.969L242.193,465.865L242.088,465.821L236.575,465.821L236.47,465.865L236.426,465.969L236.426,471.484L236.47,471.589L236.575,471.632L242.088,471.632L242.193,471.589L242.236,471.484L242.088,471.484" style="fill:rgb(3,4,4);fill-rule:nonzero;"/>
            </g>
            <g transform="matrix(4.16667,0,0,4.16667,-460.913,-1256.84)">
                <rect x="236.575" y="471.484" width="5.513" height="5.514" style="fill:white;"/>
            </g>
            <g transform="matrix(4.16667,0,0,4.16667,-460.913,-1256.84)">
                <path d="M242.088,476.997L242.088,476.849L236.723,476.849L236.723,471.631L241.939,471.631L241.939,476.997L242.088,476.997L242.088,476.849L242.088,476.997L242.236,476.997L242.236,471.483L242.193,471.378L242.088,471.335L236.575,471.335L236.47,471.378L236.426,471.483L236.426,476.997L236.47,477.102L236.575,477.146L242.088,477.146L242.193,477.102L242.236,476.997L242.088,476.997" style="fill:rgb(3,4,4);fill-rule:nonzero;"/>
            </g>
            <g transform="matrix(4.16667,0,0,4.16667,-460.913,-935.472)">
                <rect x="230.961" y="432.919" width="5.515" height="5.515" style="fill:white;"/>
            </g>
            <g transform="matrix(4.16667,0,0,4.16667,-460.913,-935.468)">
                <path d="M236.476,438.433L236.476,438.285L231.109,438.285L231.109,433.067L236.328,433.067L236.328,438.433L236.476,438.433L236.476,438.285L236.476,438.433L236.624,438.433L236.624,432.918L236.58,432.814L236.476,432.77L230.961,432.77L230.856,432.814L230.813,432.918L230.813,438.433L230.856,438.538L230.961,438.582L236.476,438.582L236.58,438.538L236.624,438.433L236.476,438.433" style="fill:rgb(34,30,31);fill-rule:nonzero;"/>
            </g>
            <g transform="matrix(4.16667,0,0,4.16667,-460.913,-981.43)">
                <rect x="230.961" y="438.434" width="5.515" height="5.515" style="fill:white;"/>
            </g>
            <g transform="matrix(4.16667,0,0,4.16667,-460.913,-981.422)">
                <path d="M236.476,443.947L236.476,443.799L231.109,443.799L231.109,438.581L236.328,438.581L236.328,443.947L236.476,443.947L236.476,443.799L236.476,443.947L236.624,443.947L236.624,438.433L236.58,438.328L236.476,438.285L230.961,438.285L230.856,438.328L230.813,438.433L230.813,443.947L230.856,444.052L230.961,444.096L236.476,444.096L236.58,444.052L236.624,443.947L236.476,443.947" style="fill:rgb(3,4,4);fill-rule:nonzero;"/>
            </g>
            <g transform="matrix(4.16667,0,0,4.16667,-460.913,-1027.38)">
                <rect x="230.961" y="443.948" width="5.515" height="5.515" style="fill:white;"/>
            </g>
            <g transform="matrix(4.16667,0,0,4.16667,-460.913,-1027.38)">
                <path d="M236.476,449.463L236.476,449.315L231.109,449.315L231.109,444.096L236.328,444.096L236.328,449.463L236.476,449.463L236.476,449.315L236.476,449.463L236.624,449.463L236.624,443.948L236.58,443.843L236.476,443.8L230.961,443.8L230.856,443.843L230.813,443.948L230.813,449.463L230.856,449.568L230.961,449.611L236.476,449.611L236.58,449.568L236.624,449.463L236.476,449.463" style="fill:rgb(34,30,31);fill-rule:nonzero;"/>
            </g>
            <g transform="matrix(4.16667,0,0,4.16667,-460.913,-1073.34)">
                <rect x="230.961" y="449.463" width="5.515" height="5.515" style="fill:white;"/>
            </g>
            <g transform="matrix(4.16667,0,0,4.16667,-460.913,-1073.34)">
                <path d="M236.476,454.978L236.476,454.83L231.109,454.83L231.109,449.611L236.328,449.611L236.328,454.978L236.476,454.978L236.476,454.83L236.476,454.978L236.624,454.978L236.624,449.463L236.58,449.358L236.476,449.315L230.961,449.315L230.856,449.358L230.813,449.463L230.813,454.978L230.856,455.083L230.961,455.126L236.476,455.126L236.58,455.083L236.624,454.978L236.476,454.978" style="fill:rgb(34,30,31);fill-rule:nonzero;"/>
            </g>
            <g transform="matrix(4.16667,0,0,4.16667,-460.913,-1119.08)">
                <rect x="230.961" y="454.952" width="5.515" height="5.515" style="fill:white;"/>
            </g>
            <g transform="matrix(4.16667,0,0,4.16667,-460.913,-1119.08)">
                <path d="M236.476,460.468L236.476,460.319L231.109,460.319L231.109,455.101L236.328,455.101L236.328,460.468L236.476,460.468L236.476,460.319L236.476,460.468L236.624,460.468L236.624,454.953L236.58,454.848L236.476,454.804L230.961,454.804L230.856,454.848L230.813,454.953L230.813,460.468L230.856,460.572L230.961,460.616L236.476,460.616L236.58,460.572L236.624,460.468L236.476,460.468" style="fill:rgb(34,30,31);fill-rule:nonzero;"/>
            </g>
            <g transform="matrix(4.16667,0,0,4.16667,-460.913,-1165.04)">
                <rect x="230.961" y="460.467" width="5.515" height="5.515" style="fill:white;"/>
            </g>
            <g transform="matrix(4.16667,0,0,4.16667,-460.913,-1165.04)">
                <path d="M236.476,465.982L236.476,465.833L231.109,465.833L231.109,460.615L236.328,460.615L236.328,465.982L236.476,465.982L236.476,465.833L236.476,465.982L236.624,465.982L236.624,460.467L236.58,460.362L236.476,460.319L230.961,460.319L230.856,460.362L230.813,460.467L230.813,465.982L230.856,466.087L230.961,466.13L236.476,466.13L236.58,466.087L236.624,465.982L236.476,465.982" style="fill:rgb(34,30,31);fill-rule:nonzero;"/>
            </g>
            <g transform="matrix(4.16667,0,0,4.16667,-460.913,-1211)">
                <path d="M236.476,471.497L236.476,471.349L231.109,471.349L231.109,466.131L236.328,466.13L236.328,471.497L236.476,471.497L236.476,471.349L236.476,471.497L236.624,471.497L236.624,465.834L230.813,465.834L230.813,471.645L236.624,471.645L236.624,471.497L236.476,471.497" style="fill:rgb(3,4,4);fill-rule:nonzero;"/>
            </g>
            <g transform="matrix(4.16667,0,0,4.16667,-460.913,-1256.95)">
                <rect x="230.961" y="471.497" width="5.515" height="5.514" style="fill:white;"/>
            </g>
            <g transform="matrix(4.16667,0,0,4.16667,-460.913,-1256.95)">
                <path d="M236.476,477.011L236.476,476.863L231.109,476.863L231.109,471.646L236.328,471.646L236.328,477.011L236.476,477.011L236.476,476.863L236.476,477.011L236.624,477.011L236.624,471.497L236.58,471.393L236.476,471.349L230.961,471.349L230.856,471.393L230.813,471.497L230.813,477.011L230.856,477.116L230.961,477.159L236.476,477.159L236.58,477.116L236.624,477.011L236.476,477.011" style="fill:rgb(34,30,31);fill-rule:nonzero;"/>
            </g>
            <g transform="matrix(4.16667,0,0,4.16667,-460.913,-935.58)">
                <rect x="225.545" y="432.932" width="5.515" height="5.515" style="fill:white;"/>
            </g>
            <g transform="matrix(4.16667,0,0,4.16667,-460.913,-935.581)">
                <path d="M231.06,438.447L231.06,438.299L225.693,438.299L225.693,433.081L230.911,433.081L230.911,438.447L231.06,438.447L231.06,438.299L231.06,438.447L231.208,438.447L231.208,432.932L231.164,432.827L231.06,432.784L225.545,432.784L225.44,432.827L225.396,432.932L225.396,438.447L225.44,438.552L225.545,438.595L231.06,438.595L231.164,438.552L231.208,438.447L231.06,438.447" style="fill:rgb(34,30,31);fill-rule:nonzero;"/>
            </g>
            <g transform="matrix(4.16667,0,0,4.16667,-460.913,-1073.45)">
                <rect x="225.545" y="449.477" width="5.515" height="5.515" style="fill:white;"/>
            </g>
            <g transform="matrix(4.16667,0,0,4.16667,-460.913,-1073.45)">
                <path d="M231.06,454.99L231.06,454.842L225.693,454.842L225.693,449.624L230.911,449.624L230.911,454.99L231.06,454.99L231.06,454.842L231.06,454.99L231.208,454.99L231.208,449.476L231.164,449.371L231.06,449.328L225.545,449.328L225.44,449.371L225.396,449.476L225.396,454.99L225.44,455.096L225.545,455.139L231.06,455.139L231.164,455.096L231.208,454.99L231.06,454.99" style="fill:rgb(34,30,31);fill-rule:nonzero;"/>
            </g>
            <g transform="matrix(4.16667,0,0,4.16667,-460.913,-1119.2)">
                <rect x="225.545" y="454.966" width="5.515" height="5.515" style="fill:white;"/>
            </g>
            <g transform="matrix(4.16667,0,0,4.16667,-460.913,-1119.2)">
                <path d="M231.06,460.481L231.06,460.333L225.693,460.333L225.693,455.115L230.911,455.115L230.911,460.481L231.06,460.481L231.06,460.333L231.06,460.481L231.208,460.481L231.208,454.967L231.164,454.861L231.06,454.818L225.545,454.818L225.44,454.861L225.396,454.967L225.396,460.481L225.44,460.586L225.545,460.629L231.06,460.629L231.164,460.586L231.208,460.481L231.06,460.481" style="fill:rgb(34,30,31);fill-rule:nonzero;"/>
            </g>
            <g transform="matrix(4.16667,0,0,4.16667,-460.913,-1165.15)">
                <rect x="225.545" y="460.48" width="5.515" height="5.515" style="fill:white;"/>
            </g>
            <g transform="matrix(4.16667,0,0,4.16667,-460.913,-1165.15)">
                <path d="M231.06,465.996L231.06,465.847L225.693,465.847L225.693,460.629L230.911,460.629L230.911,465.996L231.06,465.996L231.06,465.847L231.06,465.996L231.208,465.996L231.208,460.481L231.164,460.376L231.06,460.332L225.545,460.332L225.44,460.376L225.396,460.481L225.396,465.996L225.44,466.1L225.545,466.144L231.06,466.144L231.164,466.1L231.208,465.996L231.06,465.996" style="fill:rgb(34,30,31);fill-rule:nonzero;"/>
            </g>
            <g transform="matrix(4.16667,0,0,4.16667,-460.913,-1211.1)">
                <rect x="225.545" y="465.995" width="5.515" height="5.515" style="fill:white;"/>
            </g>
            <g transform="matrix(4.16667,0,0,4.16667,-460.913,-1211.11)">
                <path d="M231.06,471.511L231.06,471.362L225.693,471.362L225.693,466.144L230.911,466.144L230.911,471.511L231.06,471.511L231.06,471.362L231.06,471.511L231.208,471.511L231.208,465.996L231.164,465.891L231.06,465.847L225.545,465.847L225.44,465.891L225.396,465.996L225.396,471.511L225.44,471.615L225.545,471.659L231.06,471.659L231.164,471.615L231.208,471.511L231.06,471.511" style="fill:rgb(34,30,31);fill-rule:nonzero;"/>
            </g>
            <g transform="matrix(4.16667,0,0,4.16667,-460.913,-1257.06)">
                <rect x="225.545" y="471.51" width="5.515" height="5.514" style="fill:white;"/>
            </g>
            <g transform="matrix(4.16667,0,0,4.16667,-460.913,-1257.06)">
                <path d="M231.06,477.024L231.06,476.875L225.693,476.875L225.693,471.658L230.911,471.658L230.911,477.024L231.06,477.024L231.06,476.875L231.06,477.024L231.208,477.024L231.208,471.51L231.164,471.405L231.06,471.362L225.545,471.362L225.44,471.405L225.396,471.51L225.396,477.024L225.44,477.129L225.545,477.172L231.06,477.172L231.164,477.129L231.208,477.024L231.06,477.024" style="fill:rgb(34,30,31);fill-rule:nonzero;"/>
            </g>
            <g transform="matrix(4.16667,0,0,4.16667,-460.913,-935.689)">
                <path d="M225.546,438.46L225.546,438.312L220.179,438.312L220.179,433.093L225.398,433.093L225.398,438.46L225.546,438.46L225.546,438.312L225.546,438.46L225.694,438.46L225.694,432.797L219.883,432.797L219.883,438.608L225.694,438.608L225.694,438.46L225.546,438.46" style="fill:rgb(3,4,4);fill-rule:nonzero;"/>
            </g>
            <g transform="matrix(4.16667,0,0,4.16667,-460.913,-981.647)">
                <rect x="220.031" y="438.46" width="5.515" height="5.515" style="fill:white;"/>
            </g>
            <g transform="matrix(4.16667,0,0,4.16667,-460.913,-981.647)">
                <path d="M225.546,443.975L225.546,443.827L220.179,443.827L220.179,438.608L225.398,438.608L225.398,443.975L225.546,443.975L225.546,443.827L225.546,443.975L225.694,443.975L225.694,438.46L225.651,438.355L225.546,438.312L220.031,438.312L219.926,438.355L219.883,438.46L219.883,443.975L219.926,444.08L220.031,444.123L225.546,444.123L225.651,444.08L225.694,443.975L225.546,443.975" style="fill:rgb(34,30,31);fill-rule:nonzero;"/>
            </g>
            <g transform="matrix(4.16667,0,0,4.16667,-460.913,-1027.6)">
                <rect x="220.031" y="443.975" width="5.515" height="5.515" style="fill:white;"/>
            </g>
            <g transform="matrix(4.16667,0,0,4.16667,-460.913,-1027.61)">
                <path d="M225.546,449.49L225.546,449.342L220.179,449.342L220.179,444.124L225.398,444.124L225.398,449.49L225.546,449.49L225.546,449.342L225.546,449.49L225.694,449.49L225.694,443.975L225.651,443.87L225.546,443.827L220.031,443.827L219.926,443.87L219.883,443.975L219.883,449.49L219.926,449.595L220.031,449.638L225.546,449.638L225.651,449.595L225.694,449.49L225.546,449.49" style="fill:rgb(34,30,31);fill-rule:nonzero;"/>
            </g>
            <g transform="matrix(4.16667,0,0,4.16667,-460.913,-1119.31)">
                <path d="M225.546,460.494L225.546,460.346L220.179,460.346L220.179,455.127L225.398,455.127L225.398,460.494L225.546,460.494L225.546,460.346L225.546,460.494L225.694,460.494L225.694,454.831L219.883,454.831L219.883,460.642L225.694,460.642L225.694,460.494L225.546,460.494" style="fill:rgb(3,4,4);fill-rule:nonzero;"/>
            </g>
            <g transform="matrix(4.16667,0,0,4.16667,-460.913,-1165.26)">
                <rect x="220.031" y="460.494" width="5.515" height="5.515" style="fill:white;"/>
            </g>
            <g transform="matrix(4.16667,0,0,4.16667,-460.913,-1165.26)">
                <path d="M225.546,466.009L225.546,465.861L220.179,465.861L220.179,460.642L225.398,460.642L225.398,466.009L225.546,466.009L225.546,465.861L225.546,466.009L225.694,466.009L225.694,460.494L225.651,460.389L225.546,460.346L220.031,460.346L219.926,460.389L219.883,460.494L219.883,466.009L219.926,466.114L220.031,466.157L225.546,466.157L225.651,466.114L225.694,466.009L225.546,466.009" style="fill:rgb(34,30,31);fill-rule:nonzero;"/>
            </g>
            <g transform="matrix(4.16667,0,0,4.16667,-460.913,-1211.22)">
                <rect x="220.031" y="466.009" width="5.515" height="5.515" style="fill:white;"/>
            </g>
            <g transform="matrix(4.16667,0,0,4.16667,-460.913,-1211.22)">
                <path d="M225.546,471.524L225.546,471.376L220.179,471.376L220.179,466.158L225.398,466.158L225.398,471.524L225.546,471.524L225.546,471.376L225.546,471.524L225.694,471.524L225.694,466.01L225.651,465.905L225.546,465.861L220.031,465.861L219.926,465.905L219.883,466.01L219.883,471.524L219.926,471.629L220.031,471.672L225.546,471.672L225.651,471.629L225.694,471.524L225.546,471.524" style="fill:rgb(34,30,31);fill-rule:nonzero;"/>
            </g>
            <g transform="matrix(4.16667,0,0,4.16667,-460.913,-1257.17)">
                <rect x="220.031" y="471.523" width="5.515" height="5.514" style="fill:white;"/>
            </g>
            <g transform="matrix(4.16667,0,0,4.16667,-460.913,-1257.17)">
                <path d="M225.546,477.038L225.546,476.889L220.179,476.889L220.179,471.672L225.398,471.672L225.398,477.038L225.546,477.038L225.546,476.889L225.546,477.038L225.694,477.038L225.694,471.524L225.651,471.419L225.546,471.375L220.031,471.375L219.926,471.419L219.883,471.524L219.883,477.038L219.926,477.142L220.031,477.186L225.546,477.186L225.651,477.142L225.694,477.038L225.546,477.038" style="fill:rgb(34,30,31);fill-rule:nonzero;"/>
            </g>
            <g transform="matrix(4.16667,0,0,4.16667,-460.913,-1119.5)">
                <rect x="214.516" y="455.003" width="5.515" height="5.515" style="fill:white;"/>
            </g>
            <g transform="matrix(4.16667,0,0,4.16667,-460.913,-1119.51)">
                <path d="M220.031,460.518L220.031,460.37L214.664,460.37L214.664,455.151L219.883,455.151L219.883,460.518L220.031,460.518L220.031,460.37L220.031,460.518L220.179,460.518L220.179,455.003L220.136,454.899L220.031,454.855L214.516,454.855L214.412,454.899L214.368,455.003L214.368,460.518L214.412,460.623L214.516,460.666L220.031,460.666L220.136,460.623L220.179,460.518L220.031,460.518" style="fill:rgb(3,4,4);fill-rule:nonzero;"/>
            </g>
            <g transform="matrix(4.16667,0,0,4.16667,-460.913,-1165.56)">
                <path d="M214.418,466.045L214.418,465.896L209.052,465.896L209.052,460.678L214.269,460.678L214.269,466.045L214.418,466.045L214.418,465.896L214.418,466.045L214.566,466.045L214.566,460.382L208.755,460.382L208.755,466.193L214.566,466.193L214.566,466.045L214.418,466.045" style="fill:rgb(3,4,4);fill-rule:nonzero;"/>
            </g>
            <g transform="matrix(4.16667,0,0,4.16667,-460.913,-1211.64)">
                <rect x="203.488" y="466.059" width="5.514" height="5.515" style="fill:white;"/>
            </g>
            <g transform="matrix(4.16667,0,0,4.16667,-460.913,-1211.63)">
                <path d="M209.002,471.572L209.002,471.424L203.636,471.424L203.636,466.206L208.854,466.206L208.854,471.572L209.002,471.572L209.002,471.424L209.002,471.572L209.15,471.572L209.15,466.058L209.107,465.953L209.002,465.91L203.488,465.91L203.383,465.953L203.339,466.058L203.339,471.572L203.383,471.677L203.488,471.721L209.002,471.721L209.107,471.677L209.15,471.572L209.002,471.572" style="fill:rgb(3,4,4);fill-rule:nonzero;"/>
            </g>
            <g transform="matrix(4.16667,0,0,4.16667,-460.913,-1257.7)">
                <rect x="197.974" y="471.587" width="5.514" height="5.514" style="fill:white;"/>
            </g>
            <g transform="matrix(4.16667,0,0,4.16667,-460.913,-1257.69)">
                <path d="M203.488,477.099L203.488,476.951L198.122,476.951L198.122,471.734L203.34,471.734L203.34,477.099L203.488,477.099L203.488,476.951L203.488,477.099L203.637,477.099L203.637,471.586L203.593,471.481L203.488,471.438L197.974,471.438L197.869,471.481L197.826,471.586L197.826,477.099L197.869,477.204L197.974,477.248L203.488,477.248L203.593,477.204L203.637,477.099L203.488,477.099" style="fill:rgb(3,4,4);fill-rule:nonzero;"/>
            </g>
            <g transform="matrix(4.16667,0,0,4.16667,-460.913,-935.363)">
                <rect x="236.575" y="432.906" width="5.513" height="5.515" style="fill:white;"/>
            </g>
            <g transform="matrix(4.16667,0,0,4.16667,-460.913,-935.364)">
                <path d="M242.088,438.421L242.088,438.273L236.723,438.273L236.723,433.054L241.939,433.054L241.939,438.421L242.088,438.421L242.088,438.273L242.088,438.421L242.236,438.421L242.236,432.906L242.193,432.802L242.088,432.758L236.575,432.758L236.47,432.802L236.426,432.906L236.426,438.421L236.47,438.526L236.575,438.569L242.088,438.569L242.193,438.526L242.236,438.421L242.088,438.421" style="fill:rgb(3,4,4);fill-rule:nonzero;"/>
            </g>
            <g transform="matrix(4.16667,0,0,4.16667,-460.913,-981.538)">
                <rect x="225.545" y="438.447" width="5.515" height="5.515" style="fill:white;"/>
            </g>
            <g transform="matrix(4.16667,0,0,4.16667,-460.913,-981.535)">
                <path d="M231.06,443.961L231.06,443.813L225.693,443.813L225.693,438.595L230.911,438.595L230.911,443.961L231.06,443.961L231.06,443.813L231.06,443.961L231.208,443.961L231.208,438.446L231.164,438.342L231.06,438.298L225.545,438.298L225.44,438.342L225.396,438.446L225.396,443.961L225.44,444.066L225.545,444.11L231.06,444.11L231.164,444.066L231.208,443.961L231.06,443.961" style="fill:rgb(34,30,31);fill-rule:nonzero;"/>
            </g>
            <g transform="matrix(4.16667,0,0,4.16667,-460.913,-1027.5)">
                <rect x="225.545" y="443.962" width="5.515" height="5.515" style="fill:white;"/>
            </g>
            <g transform="matrix(4.16667,0,0,4.16667,-460.913,-1027.49)">
                <path d="M231.06,449.476L231.06,449.328L225.693,449.328L225.693,444.11L230.911,444.11L230.911,449.476L231.06,449.476L231.06,449.328L231.06,449.476L231.208,449.476L231.208,443.961L231.164,443.857L231.06,443.813L225.545,443.813L225.44,443.857L225.396,443.961L225.396,449.476L225.44,449.581L225.545,449.625L231.06,449.625L231.164,449.581L231.208,449.476L231.06,449.476" style="fill:rgb(3,4,4);fill-rule:nonzero;"/>
            </g>
            <g transform="matrix(4.16667,0,0,4.16667,-460.913,-1073.56)">
                <rect x="220.031" y="449.49" width="5.515" height="5.515" style="fill:white;"/>
            </g>
            <g transform="matrix(4.16667,0,0,4.16667,-460.913,-1073.56)">
                <path d="M225.546,455.004L225.546,454.856L220.179,454.856L220.179,449.638L225.398,449.638L225.398,455.004L225.546,455.004L225.546,454.856L225.546,455.004L225.694,455.004L225.694,449.489L225.651,449.385L225.546,449.341L220.031,449.341L219.926,449.385L219.883,449.489L219.883,455.004L219.926,455.109L220.031,455.153L225.546,455.153L225.651,455.109L225.694,455.004L225.546,455.004" style="fill:rgb(3,4,4);fill-rule:nonzero;"/>
            </g>
        </g>
        <g transform="matrix(4.16667,0,0,4.16667,-574.538,-1773.02)">
            <path d="M140.459,478.821L139.075,478.821L139.075,431.188L140.459,431.188L140.459,430.002L137.889,430.002L137.889,480.007L140.459,480.007L140.459,478.821" style="fill:rgb(3,4,4);fill-rule:nonzero;"/>
        </g>
        <g transform="matrix(4.16667,0,0,4.16667,-574.538,-1773.02)">
            <path d="M244.831,480.007L247.4,480.007L247.4,430.002L244.831,430.002L244.831,431.188L246.214,431.188L246.214,478.821L244.831,478.821L244.831,480.007" style="fill:rgb(3,4,4);fill-rule:nonzero;"/>
        </g>
        <g transform="matrix(4.16667,0,0,4.16667,-574.538,-1934.02)">
            <rect x="160.114" y="471.736" width="5.218" height="5.177" style="fill:rgb(182,193,227);"/>
        </g>
        <g transform="matrix(4.16667,0,0,4.16667,-574.538,-1955.75)">
            <rect x="160.114" y="476.913" width="5.218" height="0.039" style="fill:rgb(22,26,75);"/>
        </g>
        <g transform="matrix(4.16667,0,0,4.16667,-574.538,-1934.18)">
            <path d="M165.48,477.1L165.48,476.952L160.114,476.952L160.114,471.735L165.332,471.735L165.332,477.1L165.48,477.1L165.48,476.952L165.48,477.1L165.629,477.1L165.629,471.587L165.585,471.482L165.48,471.439L159.966,471.439L159.861,471.482L159.818,471.587L159.818,477.1L159.861,477.205L159.966,477.249L165.48,477.249L165.585,477.205L165.629,477.1L165.48,477.1" style="fill:rgb(60,90,168);fill-rule:nonzero;"/>
        </g>
        <g transform="matrix(4.16667,0,0,4.16667,-574.538,-1887.97)">
            <rect x="165.629" y="466.221" width="5.217" height="5.155" style="fill:rgb(182,193,227);"/>
        </g>
        <g transform="matrix(4.16667,0,0,4.16667,-574.538,-1909.71)">
            <rect x="165.629" y="471.376" width="5.217" height="0.063" style="fill:rgb(35,43,98);"/>
        </g>
        <g transform="matrix(4.16667,0,0,4.16667,-574.538,-1888.23)">
            <path d="M170.995,471.587L170.995,471.439L165.629,471.439L165.629,466.222L170.846,466.222L170.846,471.587L170.995,471.587L170.995,471.439L170.995,471.587L171.143,471.587L171.143,466.073L171.1,465.969L170.995,465.925L165.481,465.925L165.376,465.969L165.333,466.073L165.333,471.587L165.376,471.692L165.481,471.735L170.995,471.735L171.1,471.692L171.143,471.587L170.995,471.587" style="fill:rgb(60,90,168);fill-rule:nonzero;"/>
        </g>
        <g transform="matrix(4.16667,0,0,4.16667,-574.538,-1841.52)">
            <path d="M176.293,465.82L171.143,465.82L171.143,460.629L176.36,460.629L176.36,465.765L176.306,465.787L176.293,465.82" style="fill:rgb(182,193,227);fill-rule:nonzero;"/>
        </g>
        <g transform="matrix(-4.16667,0,0,4.16667,873.112,-1819.78)">
            <path d="M171.154,460.629L176.293,460.629L176.293,460.603L171.143,460.603L171.154,460.629" style="fill:rgb(35,43,98);fill-rule:nonzero;"/>
        </g>
        <g transform="matrix(4.16667,0,0,4.16667,-574.538,-1841.41)">
            <path d="M176.508,465.969L176.508,465.821L171.143,465.821L171.143,460.604L176.36,460.604L176.36,465.969L176.508,465.969L176.508,465.821L176.508,465.969L176.657,465.969L176.657,460.456L176.613,460.351L176.508,460.307L170.995,460.307L170.89,460.351L170.846,460.456L170.846,465.969L170.89,466.074L170.995,466.117L176.508,466.117L176.613,466.074L176.657,465.969L176.508,465.969" style="fill:rgb(60,90,168);fill-rule:nonzero;"/>
        </g>
        <g transform="matrix(4.16667,0,0,4.16667,-574.538,-1795.94)">
            <rect x="176.657" y="455.191" width="5.12" height="5.128" style="fill:rgb(182,193,227);"/>
        </g>
        <g transform="matrix(4.16667,0,0,4.16667,-574.538,-1817.69)">
            <rect x="176.657" y="460.32" width="5.12" height="0.089" style="fill:rgb(35,43,98);"/>
        </g>
        <g transform="matrix(4.16667,0,0,4.16667,-574.538,-1796.31)">
            <path d="M176.657,460.409L176.559,460.409L176.559,455.272L176.613,455.25L176.638,455.191L176.657,455.191L176.657,460.409" style="fill:rgb(35,43,98);fill-rule:nonzero;"/>
        </g>
        <g transform="matrix(0,-4.16667,-4.16667,0,2079.49,836.312)">
            <path d="M176.558,460.408L176.639,460.408L176.639,460.329L176.58,460.354L176.558,460.408" style="fill:rgb(60,90,168);fill-rule:nonzero;"/>
        </g>
        <g transform="matrix(4.16667,0,0,4.16667,-574.538,-1796.31)">
            <path d="M181.925,460.557L181.925,460.409L176.559,460.409L176.559,455.191L181.777,455.191L181.777,460.557L181.925,460.557L181.925,460.409L181.925,460.557L182.073,460.557L182.073,455.043L182.03,454.938L181.925,454.895L176.411,454.895L176.306,454.938L176.263,455.043L176.263,460.557L176.306,460.661L176.411,460.705L181.925,460.705L182.03,460.661L182.073,460.557L181.925,460.557" style="fill:rgb(60,90,168);fill-rule:nonzero;"/>
        </g>
        <g transform="matrix(4.16667,0,0,4.16667,-574.538,-1749.61)">
            <rect x="182.172" y="449.599" width="5.217" height="5.193" style="fill:rgb(182,193,227);"/>
        </g>
        <g transform="matrix(4.16667,0,0,4.16667,-574.538,-1748.99)">
            <path d="M187.538,454.792L182.073,454.792L182.073,449.45L182.172,449.45L182.172,454.643L187.389,454.643L187.389,449.45L187.538,449.45L187.538,454.792M187.538,454.791L187.538,454.643L187.538,454.791" style="fill:rgb(22,26,75);fill-rule:nonzero;"/>
        </g>
        <g transform="matrix(4.16667,0,0,4.16667,-574.538,-1771.96)">
            <path d="M187.538,454.964L182.073,454.964L182.073,454.792L187.538,454.792L187.538,454.816L187.538,454.792L187.538,454.964" style="fill:rgb(22,26,75);fill-rule:nonzero;"/>
        </g>
        <g transform="matrix(4.16667,0,0,4.16667,-574.538,-1726.79)">
            <path d="M182.073,449.464L182.068,449.464L182.073,449.45L182.073,449.464" style="fill:rgb(35,43,98);fill-rule:nonzero;"/>
        </g>
        <g transform="matrix(4.16667,0,0,4.16667,-574.538,-1749.66)">
            <path d="M182.068,454.953L182.024,454.953L182.024,449.557L182.03,449.555L182.073,449.45L182.073,454.939L182.068,454.953" style="fill:rgb(35,43,98);fill-rule:nonzero;"/>
        </g>
        <g transform="matrix(4.16667,0,0,4.16667,-574.538,-1772.19)">
            <path d="M182.024,454.964L182.024,454.874L182.03,454.871L182.04,454.846L182.073,454.846L182.073,454.857L182.03,454.962L182.024,454.964" style="fill:rgb(35,43,98);fill-rule:nonzero;"/>
        </g>
        <g transform="matrix(0,-4.16667,-4.16667,0,2079.55,881.528)">
            <path d="M182.018,454.958L182.046,454.958L182.046,454.942L182.021,454.952L182.018,454.958" style="fill:rgb(60,90,168);fill-rule:nonzero;"/>
        </g>
        <g transform="matrix(4.16667,0,0,4.16667,-574.538,-1749.7)">
            <path d="M187.538,454.964L187.538,454.816L182.172,454.816L182.172,449.598L187.389,449.598L187.389,454.964L187.538,454.964L187.538,454.816L187.538,454.964L187.686,454.964L187.686,449.45L187.642,449.345L187.538,449.302L182.024,449.302L181.919,449.345L181.875,449.45L181.875,454.964L181.919,455.068L182.024,455.112L187.538,455.112L187.642,455.068L187.686,454.964L187.538,454.964" style="fill:rgb(60,90,168);fill-rule:nonzero;"/>
        </g>
        <g transform="matrix(4.16667,0,0,4.16667,214.019,109.349)">
            <g>
                <path d="M6.644,3.243C6.644,1.53 5.263,0.167 3.577,0.167C1.873,0.167 0.511,1.557 0.511,3.234C0.511,4.947 1.891,6.309 3.577,6.309C5.281,6.309 6.644,4.92 6.644,3.243ZM3.577,6.058C1.999,6.058 0.762,4.785 0.762,3.243C0.762,1.665 2.026,0.418 3.577,0.418C5.155,0.418 6.393,1.692 6.393,3.234C6.393,4.812 5.128,6.058 3.577,6.058ZM4.205,3.243C4.205,2.875 3.9,2.606 3.577,2.606C3.227,2.606 2.949,2.902 2.949,3.234C2.949,3.602 3.254,3.871 3.577,3.871C3.927,3.871 4.205,3.575 4.205,3.243Z" style="fill:rgb(35,31,32);fill-rule:nonzero;"/>
            </g>
        </g>
        <g transform="matrix(1.23667,0,0,1.23667,430.937,35.3368)">
            <g transform="matrix(24,0,0,24,56.555,78.3207)">
                <path d="M0.456,-0.001L0.451,0.004C0.405,0.001 0.349,-0 0.284,-0C0.22,-0 0.152,0.001 0.081,0.004L0.076,-0.001L0.076,-0.031L0.082,-0.036C0.098,-0.038 0.114,-0.039 0.13,-0.041C0.158,-0.043 0.176,-0.046 0.184,-0.049C0.189,-0.051 0.194,-0.057 0.198,-0.067C0.204,-0.082 0.207,-0.144 0.207,-0.252L0.207,-0.374C0.207,-0.41 0.206,-0.457 0.205,-0.513L0.204,-0.549C0.204,-0.566 0.201,-0.574 0.194,-0.574C0.191,-0.574 0.181,-0.57 0.165,-0.563C0.12,-0.542 0.082,-0.524 0.05,-0.508L0.044,-0.512C0.042,-0.53 0.039,-0.551 0.034,-0.574L0.035,-0.578C0.125,-0.603 0.225,-0.637 0.336,-0.68L0.346,-0.672C0.345,-0.653 0.343,-0.625 0.341,-0.587C0.34,-0.573 0.339,-0.534 0.338,-0.472L0.336,-0.28C0.336,-0.142 0.339,-0.069 0.343,-0.059C0.347,-0.051 0.351,-0.047 0.358,-0.045C0.37,-0.042 0.4,-0.039 0.45,-0.036L0.456,-0.031L0.456,-0.001Z" style="fill:rgb(35,31,32);fill-rule:nonzero;"/>
            </g>
        </g>
        <g transform="matrix(2.65028,0,0,2.65028,473.214,121.472)">
            <path d="M1.129,-0.694C1.667,-0.694 2.339,-0.254 2.339,0.544C2.339,1.117 1.828,1.727 1.129,1.727C0.456,1.727 -0.082,1.189 -0.082,0.579C-0.082,-0.003 0.304,-0.694 1.129,-0.694Z" style="fill:rgb(35,31,32);fill-rule:nonzero;"/>
        </g>
        <g transform="matrix(1.23667,0,0,1.23667,264.248,-72.5484)">
            <g transform="matrix(24,0,0,24,56.555,78.3207)">
                <path d="M0.647,-0.686C0.643,-0.662 0.641,-0.637 0.641,-0.611L0.64,-0.53L0.635,-0.525L0.604,-0.525L0.599,-0.529C0.597,-0.571 0.595,-0.595 0.593,-0.603C0.589,-0.616 0.579,-0.623 0.562,-0.625C0.556,-0.626 0.525,-0.627 0.47,-0.627L0.405,-0.627C0.404,-0.616 0.404,-0.57 0.404,-0.491L0.404,-0.214C0.404,-0.136 0.406,-0.086 0.41,-0.063C0.412,-0.053 0.417,-0.047 0.427,-0.044C0.432,-0.043 0.451,-0.042 0.484,-0.04L0.489,-0.035L0.489,-0.002L0.484,0.003C0.452,0.001 0.402,-0 0.333,-0C0.264,-0 0.214,0.001 0.183,0.003L0.179,-0.001L0.179,-0.035L0.184,-0.04C0.217,-0.042 0.236,-0.043 0.241,-0.044C0.25,-0.047 0.256,-0.053 0.257,-0.063C0.262,-0.086 0.264,-0.136 0.264,-0.214L0.264,-0.491C0.264,-0.572 0.263,-0.617 0.262,-0.627L0.192,-0.627C0.134,-0.627 0.1,-0.625 0.09,-0.622C0.085,-0.62 0.082,-0.617 0.08,-0.614C0.077,-0.609 0.074,-0.599 0.072,-0.583C0.07,-0.566 0.069,-0.548 0.068,-0.53L0.063,-0.525L0.032,-0.525L0.027,-0.53L0.026,-0.613C0.026,-0.637 0.024,-0.661 0.02,-0.686L0.024,-0.691C0.044,-0.688 0.114,-0.686 0.234,-0.686L0.432,-0.686C0.543,-0.686 0.613,-0.688 0.642,-0.691L0.647,-0.686Z" style="fill:rgb(35,31,32);fill-rule:nonzero;"/>
            </g>
        </g>
        <g transform="matrix(2.93439,0,0,2.93439,99.877,3.55659)">
            <path d="M6.931,0.827L7.899,0.827L7.899,0.387L0.376,0.387L0.376,0.827L1.344,0.827L1.344,6.045L0.376,6.045L0.376,6.484C0.69,6.458 1.622,6.458 1.99,6.458C2.358,6.458 3.299,6.458 3.613,6.484L3.613,6.045L2.645,6.045L2.645,0.827L5.63,0.827L5.63,6.045L4.662,6.045L4.662,6.484C4.976,6.458 5.908,6.458 6.276,6.458C6.644,6.458 7.585,6.458 7.899,6.484L7.899,6.045L6.931,6.045L6.931,0.827Z" style="fill:rgb(35,31,32);fill-rule:nonzero;"/>
        </g>
    </g>
</svg>
