<?xml version="1.0" encoding="UTF-8" standalone="no"?>
<!DOCTYPE svg PUBLIC "-//W3C//DTD SVG 1.1//EN" "http://www.w3.org/Graphics/SVG/1.1/DTD/svg11.dtd">
<svg width="100%" height="100%" viewBox="0 0 605 189" version="1.1" xmlns="http://www.w3.org/2000/svg" xmlns:xlink="http://www.w3.org/1999/xlink" xml:space="preserve" xmlns:serif="http://www.serif.com/" style="fill-rule:evenodd;clip-rule:evenodd;">
    <g id="_1" serif:id="1" transform="matrix(0.808622,0,0,0.808622,183.796,4.28182)">
        <g transform="matrix(3.72406,0,0,3.72406,-499.236,-2190.77)">
            <rect x="230.247" y="596.501" width="6.167" height="49.313" style="fill:white;stroke:rgb(3,4,4);stroke-width:0.69px;"/>
        </g>
        <g transform="matrix(3.72406,0,0,3.72406,-499.236,-2029.65)">
            <rect x="182.638" y="596.441" width="6.168" height="6.168" style="fill:white;stroke:rgb(3,4,4);stroke-width:0.46px;stroke-linecap:round;stroke-linejoin:round;stroke-miterlimit:500;"/>
        </g>
        <g transform="matrix(0.372406,0,0,0.372406,-499.236,-2075.59)">
            <rect x="1826.38" y="6026.09" width="61.68" height="61.68" style="fill:none;stroke:rgb(3,4,4);stroke-width:4.59px;"/>
        </g>
        <g transform="matrix(3.72406,0,0,3.72406,-499.236,-2121.53)">
            <rect x="182.638" y="608.777" width="6.168" height="6.168" style="fill:white;stroke:rgb(3,4,4);stroke-width:0.46px;stroke-linecap:round;stroke-linejoin:round;stroke-miterlimit:500;"/>
        </g>
        <g transform="matrix(3.72406,0,0,3.72406,-499.236,-2167.47)">
            <rect x="182.638" y="614.945" width="6.168" height="6.168" style="fill:white;stroke:rgb(3,4,4);stroke-width:0.46px;stroke-linecap:round;stroke-linejoin:round;stroke-miterlimit:500;"/>
        </g>
        <g transform="matrix(3.72406,0,0,3.72406,-499.236,-2259.13)">
            <rect x="182.638" y="627.252" width="6.168" height="6.167" style="fill:white;stroke:rgb(3,4,4);stroke-width:0.46px;stroke-linecap:round;stroke-linejoin:round;stroke-miterlimit:500;"/>
        </g>
        <g transform="matrix(3.72406,0,0,3.72406,-499.236,-2305.07)">
            <rect x="182.638" y="633.42" width="6.168" height="6.168" style="fill:white;stroke:rgb(3,4,4);stroke-width:0.46px;stroke-linecap:round;stroke-linejoin:round;stroke-miterlimit:500;"/>
        </g>
        <g transform="matrix(3.72406,0,0,3.72406,-499.236,-2351.01)">
            <rect x="182.638" y="639.588" width="6.168" height="6.167" style="fill:white;stroke:rgb(3,4,4);stroke-width:0.46px;stroke-linecap:round;stroke-linejoin:round;stroke-miterlimit:500;"/>
        </g>
        <g transform="matrix(3.72406,0,0,3.72406,-499.236,-2029.75)">
            <rect x="176.361" y="596.455" width="6.167" height="6.168" style="fill:white;stroke:rgb(34,30,31);stroke-width:0.46px;stroke-linecap:round;stroke-linejoin:round;stroke-miterlimit:500;"/>
        </g>
        <g transform="matrix(3.72406,0,0,3.72406,-499.236,-2075.69)">
            <rect x="176.361" y="602.623" width="6.167" height="6.168" style="fill:white;stroke:rgb(34,30,31);stroke-width:0.46px;stroke-linecap:round;stroke-linejoin:round;stroke-miterlimit:500;"/>
        </g>
        <g transform="matrix(3.72406,0,0,3.72406,-499.236,-2121.63)">
            <rect x="176.361" y="608.791" width="6.167" height="6.168" style="fill:white;stroke:rgb(34,30,31);stroke-width:0.46px;stroke-linecap:round;stroke-linejoin:round;stroke-miterlimit:500;"/>
        </g>
        <g transform="matrix(3.72406,0,0,3.72406,-499.236,-2167.57)">
            <rect x="176.361" y="614.959" width="6.167" height="6.168" style="fill:white;stroke:rgb(34,30,31);stroke-width:0.46px;stroke-linecap:round;stroke-linejoin:round;stroke-miterlimit:500;"/>
        </g>
        <g transform="matrix(3.72406,0,0,3.72406,-499.236,-2213.3)">
            <rect x="176.361" y="621.099" width="6.167" height="6.168" style="fill:white;stroke:rgb(34,30,31);stroke-width:0.46px;stroke-linecap:round;stroke-linejoin:round;stroke-miterlimit:500;"/>
        </g>
        <g transform="matrix(3.72406,0,0,3.72406,-499.236,-2305.18)">
            <rect x="176.361" y="633.434" width="6.167" height="6.168" style="fill:white;stroke:rgb(34,30,31);stroke-width:0.46px;stroke-linecap:round;stroke-linejoin:round;stroke-miterlimit:500;"/>
        </g>
        <g transform="matrix(0.372406,0,0,0.372406,-499.236,-2351.11)">
            <rect x="1763.61" y="6396.02" width="61.672" height="61.668" style="fill:none;stroke:rgb(3,4,4);stroke-width:4.59px;"/>
        </g>
        <g transform="matrix(3.72406,0,0,3.72406,-499.236,-2029.87)">
            <rect x="170.304" y="596.471" width="6.167" height="6.168" style="fill:white;stroke:rgb(34,30,31);stroke-width:0.46px;stroke-linecap:round;stroke-linejoin:round;stroke-miterlimit:500;"/>
        </g>
        <g transform="matrix(3.72406,0,0,3.72406,-499.236,-2075.8)">
            <rect x="170.304" y="602.638" width="6.167" height="6.168" style="fill:white;stroke:rgb(34,30,31);stroke-width:0.46px;stroke-linecap:round;stroke-linejoin:round;stroke-miterlimit:500;"/>
        </g>
        <g transform="matrix(3.72406,0,0,3.72406,-499.236,-2121.74)">
            <rect x="170.304" y="608.806" width="6.167" height="6.168" style="fill:white;stroke:rgb(34,30,31);stroke-width:0.46px;stroke-linecap:round;stroke-linejoin:round;stroke-miterlimit:500;"/>
        </g>
        <g transform="matrix(3.72406,0,0,3.72406,-499.236,-2167.68)">
            <rect x="170.304" y="614.974" width="6.167" height="6.168" style="fill:white;stroke:rgb(34,30,31);stroke-width:0.46px;stroke-linecap:round;stroke-linejoin:round;stroke-miterlimit:500;"/>
        </g>
        <g transform="matrix(3.72406,0,0,3.72406,-499.236,-2213.41)">
            <rect x="170.304" y="621.114" width="6.167" height="6.168" style="fill:white;stroke:rgb(34,30,31);stroke-width:0.46px;stroke-linecap:round;stroke-linejoin:round;stroke-miterlimit:500;"/>
        </g>
        <g transform="matrix(3.72406,0,0,3.72406,-499.236,-2259.35)">
            <rect x="170.304" y="627.282" width="6.167" height="6.168" style="fill:white;stroke:rgb(34,30,31);stroke-width:0.46px;stroke-linecap:round;stroke-linejoin:round;stroke-miterlimit:500;"/>
        </g>
        <g transform="matrix(3.72406,0,0,3.72406,-499.236,-2351.22)">
            <rect x="170.304" y="639.617" width="6.167" height="6.167" style="fill:white;stroke:rgb(34,30,31);stroke-width:0.46px;stroke-linecap:round;stroke-linejoin:round;stroke-miterlimit:500;"/>
        </g>
        <g transform="matrix(3.72406,0,0,3.72406,-499.236,-2029.98)">
            <rect x="164.137" y="596.486" width="6.167" height="6.168" style="fill:white;stroke:rgb(34,30,31);stroke-width:0.46px;stroke-linecap:round;stroke-linejoin:round;stroke-miterlimit:500;"/>
        </g>
        <g transform="matrix(3.72406,0,0,3.72406,-499.236,-2075.91)">
            <rect x="164.137" y="602.653" width="6.167" height="6.168" style="fill:white;stroke:rgb(34,30,31);stroke-width:0.46px;stroke-linecap:round;stroke-linejoin:round;stroke-miterlimit:500;"/>
        </g>
        <g transform="matrix(3.72406,0,0,3.72406,-499.236,-2121.85)">
            <rect x="164.137" y="608.821" width="6.167" height="6.168" style="fill:white;stroke:rgb(34,30,31);stroke-width:0.46px;stroke-linecap:round;stroke-linejoin:round;stroke-miterlimit:500;"/>
        </g>
        <g transform="matrix(0.372406,0,0,0.372406,-499.236,-2167.8)">
            <rect x="1641.37" y="6149.89" width="61.672" height="61.68" style="fill:none;stroke:rgb(3,4,4);stroke-width:4.59px;"/>
        </g>
        <g transform="matrix(3.72406,0,0,3.72406,-499.236,-2213.53)">
            <rect x="164.137" y="621.129" width="6.167" height="6.168" style="fill:white;stroke:rgb(34,30,31);stroke-width:0.46px;stroke-linecap:round;stroke-linejoin:round;stroke-miterlimit:500;"/>
        </g>
        <g transform="matrix(3.72406,0,0,3.72406,-499.236,-2259.46)">
            <rect x="164.137" y="627.296" width="6.167" height="6.168" style="fill:white;stroke:rgb(34,30,31);stroke-width:0.46px;stroke-linecap:round;stroke-linejoin:round;stroke-miterlimit:500;"/>
        </g>
        <g transform="matrix(3.72406,0,0,3.72406,-499.236,-2305.4)">
            <rect x="164.137" y="633.464" width="6.167" height="6.168" style="fill:white;stroke:rgb(34,30,31);stroke-width:0.46px;stroke-linecap:round;stroke-linejoin:round;stroke-miterlimit:500;"/>
        </g>
        <g transform="matrix(3.72406,0,0,3.72406,-499.236,-2075.07)">
            <rect x="207.308" y="602.539" width="6.166" height="6.168" style="fill:white;stroke:rgb(3,4,4);stroke-width:0.46px;stroke-linecap:round;stroke-linejoin:round;stroke-miterlimit:500;"/>
        </g>
        <g transform="matrix(0.372406,0,0,0.372406,-499.236,-2121.01)">
            <rect x="2073.08" y="6087.07" width="61.664" height="61.68" style="fill:none;stroke:rgb(3,4,4);stroke-width:4.59px;"/>
        </g>
        <g transform="matrix(3.72406,0,0,3.72406,-499.236,-2166.94)">
            <rect x="207.308" y="614.875" width="6.166" height="6.167" style="fill:white;stroke:rgb(3,4,4);stroke-width:0.46px;stroke-linecap:round;stroke-linejoin:round;stroke-miterlimit:500;"/>
        </g>
        <g transform="matrix(3.72406,0,0,3.72406,-499.236,-2212.67)">
            <rect x="207.308" y="621.014" width="6.166" height="6.168" style="fill:white;stroke:rgb(3,4,4);stroke-width:0.46px;stroke-linecap:round;stroke-linejoin:round;stroke-miterlimit:500;"/>
        </g>
        <g transform="matrix(3.72406,0,0,3.72406,-499.236,-2258.61)">
            <rect x="207.308" y="627.182" width="6.166" height="6.167" style="fill:white;stroke:rgb(3,4,4);stroke-width:0.46px;stroke-linecap:round;stroke-linejoin:round;stroke-miterlimit:500;"/>
        </g>
        <g transform="matrix(3.72406,0,0,3.72406,-499.236,-2304.54)">
            <rect x="207.308" y="633.349" width="6.166" height="6.168" style="fill:white;stroke:rgb(3,4,4);stroke-width:0.46px;stroke-linecap:round;stroke-linejoin:round;stroke-miterlimit:500;"/>
        </g>
        <g transform="matrix(3.72406,0,0,3.72406,-499.236,-2350.48)">
            <rect x="207.308" y="639.517" width="6.166" height="6.167" style="fill:white;stroke:rgb(3,4,4);stroke-width:0.46px;stroke-linecap:round;stroke-linejoin:round;stroke-miterlimit:500;"/>
        </g>
        <g transform="matrix(3.72406,0,0,3.72406,-499.236,-2029.23)">
            <rect x="201.03" y="596.385" width="6.168" height="6.168" style="fill:white;stroke:rgb(34,30,31);stroke-width:0.46px;stroke-linecap:round;stroke-linejoin:round;stroke-miterlimit:500;"/>
        </g>
        <g transform="matrix(3.72406,0,0,3.72406,-499.236,-2075.17)">
            <rect x="201.03" y="602.553" width="6.168" height="6.168" style="fill:white;stroke:rgb(3,4,4);stroke-width:0.46px;stroke-linecap:round;stroke-linejoin:round;stroke-miterlimit:500;"/>
        </g>
        <g transform="matrix(3.72406,0,0,3.72406,-499.236,-2121.11)">
            <rect x="201.03" y="608.721" width="6.168" height="6.168" style="fill:white;stroke:rgb(34,30,31);stroke-width:0.46px;stroke-linecap:round;stroke-linejoin:round;stroke-miterlimit:500;"/>
        </g>
        <g transform="matrix(3.72406,0,0,3.72406,-499.236,-2167.05)">
            <rect x="201.03" y="614.889" width="6.168" height="6.168" style="fill:white;stroke:rgb(34,30,31);stroke-width:0.46px;stroke-linecap:round;stroke-linejoin:round;stroke-miterlimit:500;"/>
        </g>
        <g transform="matrix(3.72406,0,0,3.72406,-499.236,-2212.77)">
            <rect x="201.03" y="621.028" width="6.168" height="6.168" style="fill:white;stroke:rgb(34,30,31);stroke-width:0.46px;stroke-linecap:round;stroke-linejoin:round;stroke-miterlimit:500;"/>
        </g>
        <g transform="matrix(3.72406,0,0,3.72406,-499.236,-2258.71)">
            <rect x="201.03" y="627.196" width="6.168" height="6.168" style="fill:white;stroke:rgb(34,30,31);stroke-width:0.46px;stroke-linecap:round;stroke-linejoin:round;stroke-miterlimit:500;"/>
        </g>
        <g transform="matrix(0.372406,0,0,0.372406,-499.236,-2304.65)">
            <rect x="2010.3" y="6333.64" width="61.68" height="61.676" style="fill:none;stroke:rgb(3,4,4);stroke-width:4.59px;"/>
        </g>
        <g transform="matrix(3.72406,0,0,3.72406,-499.236,-2350.59)">
            <rect x="201.03" y="639.532" width="6.168" height="6.167" style="fill:white;stroke:rgb(34,30,31);stroke-width:0.46px;stroke-linecap:round;stroke-linejoin:round;stroke-miterlimit:500;"/>
        </g>
        <g transform="matrix(3.72406,0,0,3.72406,-499.236,-2029.34)">
            <rect x="194.972" y="596.4" width="6.168" height="6.168" style="fill:white;stroke:rgb(34,30,31);stroke-width:0.46px;stroke-linecap:round;stroke-linejoin:round;stroke-miterlimit:500;"/>
        </g>
        <g transform="matrix(3.72406,0,0,3.72406,-499.236,-2167.16)">
            <rect x="194.972" y="614.904" width="6.168" height="6.168" style="fill:white;stroke:rgb(34,30,31);stroke-width:0.46px;stroke-linecap:round;stroke-linejoin:round;stroke-miterlimit:500;"/>
        </g>
        <g transform="matrix(3.72406,0,0,3.72406,-499.236,-2212.89)">
            <rect x="194.972" y="621.043" width="6.168" height="6.168" style="fill:white;stroke:rgb(34,30,31);stroke-width:0.46px;stroke-linecap:round;stroke-linejoin:round;stroke-miterlimit:500;"/>
        </g>
        <g transform="matrix(3.72406,0,0,3.72406,-499.236,-2258.83)">
            <rect x="194.972" y="627.211" width="6.168" height="6.168" style="fill:white;stroke:rgb(34,30,31);stroke-width:0.46px;stroke-linecap:round;stroke-linejoin:round;stroke-miterlimit:500;"/>
        </g>
        <g transform="matrix(3.72406,0,0,3.72406,-499.236,-2304.76)">
            <rect x="194.972" y="633.379" width="6.168" height="6.168" style="fill:white;stroke:rgb(34,30,31);stroke-width:0.46px;stroke-linecap:round;stroke-linejoin:round;stroke-miterlimit:500;"/>
        </g>
        <g transform="matrix(3.72406,0,0,3.72406,-499.236,-2350.69)">
            <rect x="194.972" y="639.546" width="6.168" height="6.167" style="fill:white;stroke:rgb(34,30,31);stroke-width:0.46px;stroke-linecap:round;stroke-linejoin:round;stroke-miterlimit:500;"/>
        </g>
        <g transform="matrix(0.372406,0,0,0.372406,-499.236,-2029.45)">
            <rect x="1888.06" y="5964.15" width="61.68" height="61.68" style="fill:none;stroke:rgb(3,4,4);stroke-width:4.59px;"/>
        </g>
        <g transform="matrix(3.72406,0,0,3.72406,-499.236,-2075.39)">
            <rect x="188.806" y="602.583" width="6.168" height="6.168" style="fill:white;stroke:rgb(34,30,31);stroke-width:0.46px;stroke-linecap:round;stroke-linejoin:round;stroke-miterlimit:500;"/>
        </g>
        <g transform="matrix(3.72406,0,0,3.72406,-499.236,-2121.33)">
            <rect x="188.806" y="608.751" width="6.168" height="6.168" style="fill:white;stroke:rgb(34,30,31);stroke-width:0.46px;stroke-linecap:round;stroke-linejoin:round;stroke-miterlimit:500;"/>
        </g>
        <g transform="matrix(0.372406,0,0,0.372406,-499.236,-2213)">
            <rect x="1888.06" y="6210.58" width="61.68" height="61.68" style="fill:none;stroke:rgb(3,4,4);stroke-width:4.59px;"/>
        </g>
        <g transform="matrix(3.72406,0,0,3.72406,-499.236,-2258.94)">
            <rect x="188.806" y="627.226" width="6.168" height="6.168" style="fill:white;stroke:rgb(34,30,31);stroke-width:0.46px;stroke-linecap:round;stroke-linejoin:round;stroke-miterlimit:500;"/>
        </g>
        <g transform="matrix(3.72406,0,0,3.72406,-499.236,-2304.88)">
            <rect x="188.806" y="633.394" width="6.168" height="6.168" style="fill:white;stroke:rgb(34,30,31);stroke-width:0.46px;stroke-linecap:round;stroke-linejoin:round;stroke-miterlimit:500;"/>
        </g>
        <g transform="matrix(3.72406,0,0,3.72406,-499.236,-2350.81)">
            <rect x="188.806" y="639.562" width="6.168" height="6.166" style="fill:white;stroke:rgb(34,30,31);stroke-width:0.46px;stroke-linecap:round;stroke-linejoin:round;stroke-miterlimit:500;"/>
        </g>
        <g transform="matrix(3.72406,0,0,3.72406,-499.236,-2213.19)">
            <rect x="182.638" y="621.084" width="6.168" height="6.168" style="fill:white;stroke:rgb(3,4,4);stroke-width:0.46px;stroke-linecap:round;stroke-linejoin:round;stroke-miterlimit:500;"/>
        </g>
        <g transform="matrix(0.372406,0,0,0.372406,-499.236,-2259.24)">
            <rect x="1763.61" y="6272.66" width="61.672" height="61.68" style="fill:none;stroke:rgb(3,4,4);stroke-width:4.59px;"/>
        </g>
        <g transform="matrix(3.72406,0,0,3.72406,-499.236,-2305.29)">
            <rect x="170.304" y="633.449" width="6.167" height="6.168" style="fill:white;stroke:rgb(3,4,4);stroke-width:0.46px;stroke-linecap:round;stroke-linejoin:round;stroke-miterlimit:500;"/>
        </g>
        <g transform="matrix(3.72406,0,0,3.72406,-499.236,-2351.33)">
            <rect x="164.137" y="639.632" width="6.167" height="6.167" style="fill:white;stroke:rgb(3,4,4);stroke-width:0.46px;stroke-linecap:round;stroke-linejoin:round;stroke-miterlimit:500;"/>
        </g>
        <g transform="matrix(3.72406,0,0,3.72406,-499.236,-2029.13)">
            <rect x="207.308" y="596.371" width="6.166" height="6.168" style="fill:white;stroke:rgb(3,4,4);stroke-width:0.46px;stroke-linecap:round;stroke-linejoin:round;stroke-miterlimit:500;"/>
        </g>
        <g transform="matrix(3.72406,0,0,3.72406,-499.236,-2075.28)">
            <rect x="194.972" y="602.568" width="6.168" height="6.168" style="fill:white;stroke:rgb(34,30,31);stroke-width:0.46px;stroke-linecap:round;stroke-linejoin:round;stroke-miterlimit:500;"/>
        </g>
        <g transform="matrix(3.72406,0,0,3.72406,-499.236,-2121.22)">
            <rect x="194.972" y="608.736" width="6.168" height="6.168" style="fill:white;stroke:rgb(3,4,4);stroke-width:0.46px;stroke-linecap:round;stroke-linejoin:round;stroke-miterlimit:500;"/>
        </g>
        <g transform="matrix(3.72406,0,0,3.72406,-499.236,-2167.27)">
            <rect x="188.806" y="614.918" width="6.168" height="6.168" style="fill:white;stroke:rgb(3,4,4);stroke-width:0.46px;stroke-linecap:round;stroke-linejoin:round;stroke-miterlimit:500;"/>
        </g>
        <g transform="matrix(1.23667,0,0,1.23667,291.066,32.4712)">
            <g transform="matrix(24,0,0,24,56.555,78.3207)">
                <path d="M0.564,-0.283C0.564,-0.243 0.557,-0.205 0.543,-0.168C0.533,-0.142 0.519,-0.119 0.502,-0.101C0.494,-0.092 0.48,-0.081 0.46,-0.065C0.438,-0.048 0.412,-0.027 0.379,-0.003C0.36,0.01 0.336,0.016 0.306,0.016C0.278,0.016 0.25,0.011 0.221,0L0.221,0.184C0.221,0.199 0.223,0.208 0.227,0.213C0.229,0.216 0.233,0.218 0.24,0.22C0.245,0.221 0.266,0.223 0.302,0.226L0.308,0.23L0.308,0.261L0.303,0.266C0.259,0.263 0.209,0.262 0.153,0.262C0.112,0.262 0.071,0.263 0.03,0.266L0.025,0.261L0.025,0.231L0.03,0.226C0.063,0.225 0.082,0.222 0.086,0.218C0.09,0.215 0.092,0.212 0.092,0.209C0.094,0.203 0.095,0.187 0.096,0.161C0.097,0.142 0.098,0.117 0.098,0.086L0.099,0.011L0.099,-0.273C0.099,-0.276 0.098,-0.3 0.096,-0.345C0.095,-0.366 0.094,-0.38 0.091,-0.386C0.089,-0.392 0.082,-0.396 0.071,-0.397C0.067,-0.398 0.053,-0.399 0.028,-0.4L0.023,-0.405L0.023,-0.432L0.028,-0.438C0.09,-0.443 0.153,-0.457 0.217,-0.478L0.228,-0.472C0.228,-0.458 0.226,-0.43 0.223,-0.387C0.245,-0.405 0.272,-0.428 0.306,-0.455C0.322,-0.467 0.346,-0.473 0.379,-0.473C0.46,-0.473 0.515,-0.442 0.544,-0.38C0.558,-0.352 0.564,-0.32 0.564,-0.283ZM0.439,-0.223C0.439,-0.294 0.42,-0.342 0.383,-0.367C0.363,-0.38 0.342,-0.386 0.321,-0.386C0.281,-0.386 0.248,-0.37 0.221,-0.337L0.221,-0.095C0.251,-0.063 0.283,-0.048 0.319,-0.048C0.372,-0.048 0.407,-0.075 0.425,-0.13C0.434,-0.158 0.439,-0.189 0.439,-0.223Z" style="fill:rgb(35,31,32);fill-rule:nonzero;"/>
            </g>
        </g>
        <g transform="matrix(2.36876,0,0,2.36876,325.024,121.194)">
            <path d="M1.129,-0.694C1.667,-0.694 2.339,-0.254 2.339,0.544C2.339,1.117 1.828,1.727 1.129,1.727C0.456,1.727 -0.082,1.189 -0.082,0.579C-0.082,-0.003 0.304,-0.694 1.129,-0.694Z" style="fill:rgb(35,31,32);fill-rule:nonzero;"/>
        </g>
        <g transform="matrix(1.23667,0,0,1.23667,125.879,-72.5484)">
            <g transform="matrix(24,0,0,24,56.555,78.3207)">
                <path d="M0.647,-0.686C0.643,-0.662 0.641,-0.637 0.641,-0.611L0.64,-0.53L0.635,-0.525L0.604,-0.525L0.599,-0.529C0.597,-0.571 0.595,-0.595 0.593,-0.603C0.589,-0.616 0.579,-0.623 0.562,-0.625C0.556,-0.626 0.525,-0.627 0.47,-0.627L0.405,-0.627C0.404,-0.616 0.404,-0.57 0.404,-0.491L0.404,-0.214C0.404,-0.136 0.406,-0.086 0.41,-0.063C0.412,-0.053 0.417,-0.047 0.427,-0.044C0.432,-0.043 0.451,-0.042 0.484,-0.04L0.489,-0.035L0.489,-0.002L0.484,0.003C0.452,0.001 0.402,-0 0.333,-0C0.264,-0 0.214,0.001 0.183,0.003L0.179,-0.001L0.179,-0.035L0.184,-0.04C0.217,-0.042 0.236,-0.043 0.241,-0.044C0.25,-0.047 0.256,-0.053 0.257,-0.063C0.262,-0.086 0.264,-0.136 0.264,-0.214L0.264,-0.491C0.264,-0.572 0.263,-0.617 0.262,-0.627L0.192,-0.627C0.134,-0.627 0.1,-0.625 0.09,-0.622C0.085,-0.62 0.082,-0.617 0.08,-0.614C0.077,-0.609 0.074,-0.599 0.072,-0.583C0.07,-0.566 0.069,-0.548 0.068,-0.53L0.063,-0.525L0.032,-0.525L0.027,-0.53L0.026,-0.613C0.026,-0.637 0.024,-0.661 0.02,-0.686L0.024,-0.691C0.044,-0.688 0.114,-0.686 0.234,-0.686L0.432,-0.686C0.543,-0.686 0.613,-0.688 0.642,-0.691L0.647,-0.686Z" style="fill:rgb(35,31,32);fill-rule:nonzero;"/>
            </g>
        </g>
    </g>
</svg>
