<?xml version="1.0" encoding="UTF-8" standalone="no"?>
<!DOCTYPE svg PUBLIC "-//W3C//DTD SVG 1.1//EN" "http://www.w3.org/Graphics/SVG/1.1/DTD/svg11.dtd">
<svg width="100%" height="100%" viewBox="0 0 605 189" version="1.1" xmlns="http://www.w3.org/2000/svg" xmlns:xlink="http://www.w3.org/1999/xlink" xml:space="preserve" xmlns:serif="http://www.serif.com/" style="fill-rule:evenodd;clip-rule:evenodd;stroke-linejoin:round;stroke-miterlimit:2;">
    <g id="_5" serif:id="5" transform="matrix(0.808622,0,0,0.808622,183.796,4.28182)">
        <g transform="matrix(4.16667,0,0,4.16667,-574.538,-1542.7)">
            <rect x="257.084" y="377.618" width="5.514" height="44.092" style="fill:white;"/>
        </g>
        <g transform="matrix(4.16667,0,0,4.16667,-574.538,-1542.7)">
            <path d="M262.599,421.71L262.599,421.487L257.307,421.487L257.307,377.84L262.377,377.84L262.377,421.71L262.599,421.71L262.599,421.487L262.599,421.71L262.821,421.71L262.821,377.396L256.862,377.396L256.862,421.932L262.821,421.932L262.821,421.71L262.599,421.71" style="fill:rgb(3,4,4);fill-rule:nonzero;"/>
        </g>
        <g transform="matrix(4.16667,0,0,4.16667,-574.538,-1381.53)">
            <rect x="159.966" y="377.566" width="5.515" height="5.515" style="fill:white;"/>
        </g>
        <g transform="matrix(4.16667,0,0,4.16667,-574.538,-1381.53)">
            <path d="M165.48,383.081L165.48,382.933L160.114,382.933L160.114,377.715L165.332,377.715L165.332,383.081L165.48,383.081L165.48,382.933L165.48,383.081L165.629,383.081L165.629,377.567L165.585,377.462L165.48,377.418L159.966,377.418L159.861,377.462L159.818,377.567L159.818,383.081L159.861,383.186L159.966,383.229L165.48,383.229L165.585,383.186L165.629,383.081L165.48,383.081" style="fill:rgb(3,4,4);fill-rule:nonzero;"/>
        </g>
        <g transform="matrix(4.16667,0,0,4.16667,-574.538,-1427.48)">
            <path d="M165.48,388.595L165.48,388.446L160.114,388.446L160.114,383.228L165.332,383.228L165.332,388.595L165.48,388.595L165.48,388.446L165.48,388.595L165.629,388.595L165.629,382.932L159.818,382.932L159.818,388.743L165.629,388.743L165.629,388.595L165.48,388.595" style="fill:rgb(3,4,4);fill-rule:nonzero;"/>
        </g>
        <g transform="matrix(4.16667,0,0,4.16667,-574.538,-1473.43)">
            <rect x="159.966" y="388.595" width="5.515" height="5.515" style="fill:white;"/>
        </g>
        <g transform="matrix(4.16667,0,0,4.16667,-574.538,-1473.43)">
            <path d="M165.48,394.11L165.48,393.962L160.114,393.962L160.114,388.743L165.332,388.743L165.332,394.11L165.48,394.11L165.48,393.962L165.48,394.11L165.629,394.11L165.629,388.595L165.585,388.49L165.48,388.447L159.966,388.447L159.861,388.49L159.818,388.595L159.818,394.11L159.861,394.214L159.966,394.258L165.48,394.258L165.585,394.214L165.629,394.11L165.48,394.11" style="fill:rgb(3,4,4);fill-rule:nonzero;"/>
        </g>
        <g transform="matrix(4.16667,0,0,4.16667,-574.538,-1519.39)">
            <rect x="159.966" y="394.11" width="5.515" height="5.514" style="fill:white;"/>
        </g>
        <g transform="matrix(4.16667,0,0,4.16667,-574.538,-1519.39)">
            <path d="M165.48,399.625L165.48,399.477L160.114,399.477L160.114,394.259L165.332,394.259L165.332,399.625L165.48,399.625L165.48,399.477L165.48,399.625L165.629,399.625L165.629,394.111L165.585,394.006L165.48,393.962L159.966,393.962L159.861,394.006L159.818,394.111L159.818,399.625L159.861,399.73L159.966,399.773L165.48,399.773L165.585,399.73L165.629,399.625L165.48,399.625" style="fill:rgb(3,4,4);fill-rule:nonzero;"/>
        </g>
        <g transform="matrix(4.16667,0,0,4.16667,-574.538,-1611.09)">
            <rect x="159.966" y="405.114" width="5.515" height="5.514" style="fill:white;"/>
        </g>
        <g transform="matrix(4.16667,0,0,4.16667,-574.538,-1611.09)">
            <path d="M165.48,410.629L165.48,410.481L160.114,410.481L160.114,405.263L165.332,405.263L165.332,410.629L165.48,410.629L165.48,410.481L165.48,410.629L165.629,410.629L165.629,405.114L165.585,405.01L165.48,404.966L159.966,404.966L159.861,405.01L159.818,405.114L159.818,410.629L159.861,410.734L159.966,410.777L165.48,410.777L165.585,410.734L165.629,410.629L165.48,410.629" style="fill:rgb(3,4,4);fill-rule:nonzero;"/>
        </g>
        <g transform="matrix(4.16667,0,0,4.16667,-574.538,-1657.05)">
            <rect x="159.966" y="410.629" width="5.515" height="5.515" style="fill:white;"/>
        </g>
        <g transform="matrix(4.16667,0,0,4.16667,-574.538,-1657.04)">
            <path d="M165.48,416.142L165.48,415.994L160.114,415.994L160.114,410.776L165.332,410.776L165.332,416.142L165.48,416.142L165.48,415.994L165.48,416.142L165.629,416.142L165.629,410.628L165.585,410.523L165.48,410.48L159.966,410.48L159.861,410.523L159.818,410.628L159.818,416.142L159.861,416.247L159.966,416.291L165.48,416.291L165.585,416.247L165.629,416.142L165.48,416.142" style="fill:rgb(3,4,4);fill-rule:nonzero;"/>
        </g>
        <g transform="matrix(4.16667,0,0,4.16667,-574.538,-1703)">
            <rect x="159.966" y="416.143" width="5.515" height="5.514" style="fill:white;"/>
        </g>
        <g transform="matrix(4.16667,0,0,4.16667,-574.538,-1703)">
            <path d="M165.48,421.658L165.48,421.51L160.114,421.51L160.114,416.292L165.332,416.292L165.332,421.658L165.48,421.658L165.48,421.51L165.48,421.658L165.629,421.658L165.629,416.144L165.585,416.039L165.48,415.995L159.966,415.995L159.861,416.039L159.818,416.144L159.818,421.658L159.861,421.762L159.966,421.806L165.48,421.806L165.585,421.762L165.629,421.658L165.48,421.658" style="fill:rgb(3,4,4);fill-rule:nonzero;"/>
        </g>
        <g transform="matrix(4.16667,0,0,4.16667,-574.538,-1381.63)">
            <rect x="154.353" y="377.579" width="5.514" height="5.515" style="fill:white;"/>
        </g>
        <g transform="matrix(4.16667,0,0,4.16667,-574.538,-1381.63)">
            <path d="M159.867,383.092L159.867,382.944L154.501,382.944L154.501,377.726L159.719,377.726L159.719,383.092L159.867,383.092L159.867,382.944L159.867,383.092L160.015,383.092L160.015,377.578L159.972,377.473L159.867,377.43L154.353,377.43L154.248,377.473L154.205,377.578L154.205,383.092L154.248,383.198L154.353,383.241L159.867,383.241L159.972,383.198L160.015,383.092L159.867,383.092" style="fill:rgb(34,30,31);fill-rule:nonzero;"/>
        </g>
        <g transform="matrix(4.16667,0,0,4.16667,-574.538,-1427.58)">
            <rect x="154.353" y="383.093" width="5.514" height="5.514" style="fill:white;"/>
        </g>
        <g transform="matrix(4.16667,0,0,4.16667,-574.538,-1427.58)">
            <path d="M159.867,388.608L159.867,388.46L154.501,388.46L154.501,383.241L159.719,383.241L159.719,388.608L159.867,388.608L159.867,388.46L159.867,388.608L160.015,388.608L160.015,383.093L159.972,382.988L159.867,382.945L154.353,382.945L154.248,382.988L154.205,383.093L154.205,388.608L154.248,388.713L154.353,388.756L159.867,388.756L159.972,388.713L160.015,388.608L159.867,388.608" style="fill:rgb(34,30,31);fill-rule:nonzero;"/>
        </g>
        <g transform="matrix(4.16667,0,0,4.16667,-574.538,-1473.54)">
            <rect x="154.353" y="388.608" width="5.514" height="5.515" style="fill:white;"/>
        </g>
        <g transform="matrix(4.16667,0,0,4.16667,-574.538,-1473.54)">
            <path d="M159.867,394.123L159.867,393.975L154.501,393.975L154.501,388.756L159.719,388.756L159.719,394.123L159.867,394.123L159.867,393.975L159.867,394.123L160.015,394.123L160.015,388.608L159.972,388.503L159.867,388.46L154.353,388.46L154.248,388.503L154.205,388.608L154.205,394.123L154.248,394.228L154.353,394.271L159.867,394.271L159.972,394.228L160.015,394.123L159.867,394.123" style="fill:rgb(34,30,31);fill-rule:nonzero;"/>
        </g>
        <g transform="matrix(4.16667,0,0,4.16667,-574.538,-1519.5)">
            <rect x="154.353" y="394.123" width="5.514" height="5.515" style="fill:white;"/>
        </g>
        <g transform="matrix(4.16667,0,0,4.16667,-574.538,-1519.5)">
            <path d="M159.867,399.638L159.867,399.49L154.501,399.49L154.501,394.272L159.719,394.272L159.719,399.638L159.867,399.638L159.867,399.49L159.867,399.638L160.015,399.638L160.015,394.123L159.972,394.018L159.867,393.975L154.353,393.975L154.248,394.018L154.205,394.123L154.205,399.638L154.248,399.743L154.353,399.786L159.867,399.786L159.972,399.743L160.015,399.638L159.867,399.638" style="fill:rgb(34,30,31);fill-rule:nonzero;"/>
        </g>
        <g transform="matrix(4.16667,0,0,4.16667,-574.538,-1565.24)">
            <rect x="154.353" y="399.612" width="5.514" height="5.515" style="fill:white;"/>
        </g>
        <g transform="matrix(4.16667,0,0,4.16667,-574.538,-1565.24)">
            <path d="M159.867,405.127L159.867,404.978L154.501,404.978L154.501,399.76L159.719,399.76L159.719,405.127L159.867,405.127L159.867,404.978L159.867,405.127L160.015,405.127L160.015,399.612L159.972,399.507L159.867,399.464L154.353,399.464L154.248,399.507L154.205,399.612L154.205,405.127L154.248,405.232L154.353,405.275L159.867,405.275L159.972,405.232L160.015,405.127L159.867,405.127" style="fill:rgb(34,30,31);fill-rule:nonzero;"/>
        </g>
        <g transform="matrix(4.16667,0,0,4.16667,-574.538,-1657.16)">
            <rect x="154.353" y="410.642" width="5.514" height="5.515" style="fill:white;"/>
        </g>
        <g transform="matrix(4.16667,0,0,4.16667,-574.538,-1657.16)">
            <path d="M159.867,416.157L159.867,416.009L154.501,416.009L154.501,410.79L159.719,410.79L159.719,416.157L159.867,416.157L159.867,416.009L159.867,416.157L160.015,416.157L160.015,410.642L159.972,410.538L159.867,410.494L154.353,410.494L154.248,410.538L154.205,410.642L154.205,416.157L154.248,416.262L154.353,416.305L159.867,416.305L159.972,416.262L160.015,416.157L159.867,416.157" style="fill:rgb(34,30,31);fill-rule:nonzero;"/>
        </g>
        <g transform="matrix(4.16667,0,0,4.16667,-574.538,-1703.11)">
            <path d="M159.867,421.67L159.867,421.522L154.501,421.522L154.501,416.305L159.719,416.305L159.719,421.67L159.867,421.67L159.867,421.522L159.867,421.67L160.015,421.67L160.015,416.009L154.205,416.009L154.205,421.818L160.015,421.818L160.015,421.67L159.867,421.67" style="fill:rgb(3,4,4);fill-rule:nonzero;"/>
        </g>
        <g transform="matrix(4.16667,0,0,4.16667,-574.538,-1381.74)">
            <rect x="148.937" y="377.592" width="5.514" height="5.515" style="fill:white;"/>
        </g>
        <g transform="matrix(4.16667,0,0,4.16667,-574.538,-1381.74)">
            <path d="M154.452,383.106L154.452,382.958L149.086,382.958L149.086,377.74L154.303,377.74L154.303,383.106L154.452,383.106L154.452,382.958L154.452,383.106L154.6,383.106L154.6,377.591L154.556,377.487L154.452,377.443L148.937,377.443L148.832,377.487L148.789,377.591L148.789,383.106L148.832,383.211L148.937,383.255L154.452,383.255L154.556,383.211L154.6,383.106L154.452,383.106" style="fill:rgb(34,30,31);fill-rule:nonzero;"/>
        </g>
        <g transform="matrix(4.16667,0,0,4.16667,-574.538,-1427.7)">
            <rect x="148.937" y="383.107" width="5.514" height="5.515" style="fill:white;"/>
        </g>
        <g transform="matrix(4.16667,0,0,4.16667,-574.538,-1427.7)">
            <path d="M154.452,388.621L154.452,388.473L149.086,388.473L149.086,383.255L154.303,383.255L154.303,388.621L154.452,388.621L154.452,388.473L154.452,388.621L154.6,388.621L154.6,383.107L154.556,383.002L154.452,382.958L148.937,382.958L148.832,383.002L148.789,383.107L148.789,388.621L148.832,388.726L148.937,388.77L154.452,388.77L154.556,388.726L154.6,388.621L154.452,388.621" style="fill:rgb(34,30,31);fill-rule:nonzero;"/>
        </g>
        <g transform="matrix(4.16667,0,0,4.16667,-574.538,-1473.65)">
            <rect x="148.937" y="388.621" width="5.514" height="5.515" style="fill:white;"/>
        </g>
        <g transform="matrix(4.16667,0,0,4.16667,-574.538,-1473.65)">
            <path d="M154.452,394.136L154.452,393.987L149.086,393.987L149.086,388.769L154.303,388.769L154.303,394.136L154.452,394.136L154.452,393.987L154.452,394.136L154.6,394.136L154.6,388.621L154.556,388.516L154.452,388.473L148.937,388.473L148.832,388.516L148.789,388.621L148.789,394.136L148.832,394.241L148.937,394.284L154.452,394.284L154.556,394.241L154.6,394.136L154.452,394.136" style="fill:rgb(34,30,31);fill-rule:nonzero;"/>
        </g>
        <g transform="matrix(4.16667,0,0,4.16667,-574.538,-1519.61)">
            <rect x="148.937" y="394.136" width="5.514" height="5.515" style="fill:white;"/>
        </g>
        <g transform="matrix(4.16667,0,0,4.16667,-574.538,-1519.61)">
            <path d="M154.452,399.651L154.452,399.503L149.086,399.503L149.086,394.284L154.303,394.284L154.303,399.651L154.452,399.651L154.452,399.503L154.452,399.651L154.6,399.651L154.6,394.136L154.556,394.031L154.452,393.988L148.937,393.988L148.832,394.031L148.789,394.136L148.789,399.651L148.832,399.756L148.937,399.799L154.452,399.799L154.556,399.756L154.6,399.651L154.452,399.651" style="fill:rgb(34,30,31);fill-rule:nonzero;"/>
        </g>
        <g transform="matrix(4.16667,0,0,4.16667,-574.538,-1565.35)">
            <rect x="148.937" y="399.625" width="5.514" height="5.515" style="fill:white;"/>
        </g>
        <g transform="matrix(4.16667,0,0,4.16667,-574.538,-1565.35)">
            <path d="M154.452,405.141L154.452,404.992L149.086,404.992L149.086,399.774L154.303,399.774L154.303,405.141L154.452,405.141L154.452,404.992L154.452,405.141L154.6,405.141L154.6,399.626L154.556,399.521L154.452,399.477L148.937,399.477L148.832,399.521L148.789,399.626L148.789,405.141L148.832,405.245L148.937,405.289L154.452,405.289L154.556,405.245L154.6,405.141L154.452,405.141" style="fill:rgb(34,30,31);fill-rule:nonzero;"/>
        </g>
        <g transform="matrix(4.16667,0,0,4.16667,-574.538,-1611.31)">
            <rect x="148.937" y="405.14" width="5.514" height="5.515" style="fill:white;"/>
        </g>
        <g transform="matrix(4.16667,0,0,4.16667,-574.538,-1611.31)">
            <path d="M154.452,410.656L154.452,410.507L149.086,410.507L149.086,405.289L154.303,405.289L154.303,410.656L154.452,410.656L154.452,410.507L154.452,410.656L154.6,410.656L154.6,405.141L154.556,405.036L154.452,404.992L148.937,404.992L148.832,405.036L148.789,405.141L148.789,410.656L148.832,410.76L148.937,410.804L154.452,410.804L154.556,410.76L154.6,410.656L154.452,410.656" style="fill:rgb(34,30,31);fill-rule:nonzero;"/>
        </g>
        <g transform="matrix(4.16667,0,0,4.16667,-574.538,-1703.22)">
            <rect x="148.937" y="416.17" width="5.514" height="5.514" style="fill:white;"/>
        </g>
        <g transform="matrix(4.16667,0,0,4.16667,-574.538,-1703.22)">
            <path d="M154.452,421.684L154.452,421.536L149.086,421.536L149.086,416.318L154.303,416.318L154.303,421.684L154.452,421.684L154.452,421.536L154.452,421.684L154.6,421.684L154.6,416.17L154.556,416.066L154.452,416.022L148.937,416.022L148.832,416.066L148.789,416.17L148.789,421.684L148.832,421.789L148.937,421.832L154.452,421.832L154.556,421.789L154.6,421.684L154.452,421.684" style="fill:rgb(34,30,31);fill-rule:nonzero;"/>
        </g>
        <g transform="matrix(4.16667,0,0,4.16667,-574.538,-1381.85)">
            <rect x="143.423" y="377.605" width="5.515" height="5.515" style="fill:white;"/>
        </g>
        <g transform="matrix(4.16667,0,0,4.16667,-574.538,-1381.85)">
            <path d="M148.938,383.12L148.938,382.972L143.571,382.972L143.571,377.754L148.789,377.754L148.789,383.12L148.938,383.12L148.938,382.972L148.938,383.12L149.086,383.12L149.086,377.605L149.043,377.5L148.938,377.457L143.423,377.457L143.318,377.5L143.275,377.605L143.275,383.12L143.318,383.225L143.423,383.268L148.938,383.268L149.043,383.225L149.086,383.12L148.938,383.12" style="fill:rgb(34,30,31);fill-rule:nonzero;"/>
        </g>
        <g transform="matrix(4.16667,0,0,4.16667,-574.538,-1427.81)">
            <rect x="143.423" y="383.12" width="5.515" height="5.515" style="fill:white;"/>
        </g>
        <g transform="matrix(4.16667,0,0,4.16667,-574.538,-1427.8)">
            <path d="M148.938,388.634L148.938,388.486L143.571,388.486L143.571,383.268L148.789,383.268L148.789,388.634L148.938,388.634L148.938,388.486L148.938,388.634L149.086,388.634L149.086,383.119L149.043,383.015L148.938,382.971L143.423,382.971L143.318,383.015L143.275,383.119L143.275,388.634L143.318,388.739L143.423,388.783L148.938,388.783L149.043,388.739L149.086,388.634L148.938,388.634" style="fill:rgb(34,30,31);fill-rule:nonzero;"/>
        </g>
        <g transform="matrix(4.16667,0,0,4.16667,-574.538,-1473.77)">
            <rect x="143.423" y="388.635" width="5.515" height="5.515" style="fill:white;"/>
        </g>
        <g transform="matrix(4.16667,0,0,4.16667,-574.538,-1473.76)">
            <path d="M148.938,394.149L148.938,394.001L143.571,394.001L143.571,388.783L148.789,388.783L148.789,394.149L148.938,394.149L148.938,394.001L148.938,394.149L149.086,394.149L149.086,388.634L149.043,388.53L148.938,388.486L143.423,388.486L143.318,388.53L143.275,388.634L143.275,394.149L143.318,394.254L143.423,394.298L148.938,394.298L149.043,394.254L149.086,394.149L148.938,394.149" style="fill:rgb(34,30,31);fill-rule:nonzero;"/>
        </g>
        <g transform="matrix(4.16667,0,0,4.16667,-574.538,-1519.72)">
            <path d="M148.938,399.663L148.938,399.515L143.571,399.515L143.571,394.297L148.789,394.297L148.789,399.663L148.938,399.663L148.938,399.515L148.938,399.663L149.086,399.663L149.086,394.001L143.275,394.001L143.275,399.812L149.086,399.812L149.086,399.663L148.938,399.663" style="fill:rgb(3,4,4);fill-rule:nonzero;"/>
        </g>
        <g transform="matrix(4.16667,0,0,4.16667,-574.538,-1565.47)">
            <rect x="143.423" y="399.639" width="5.515" height="5.515" style="fill:white;"/>
        </g>
        <g transform="matrix(4.16667,0,0,4.16667,-574.538,-1565.47)">
            <path d="M148.938,405.154L148.938,405.006L143.571,405.006L143.571,399.788L148.789,399.788L148.789,405.154L148.938,405.154L148.938,405.006L148.938,405.154L149.086,405.154L149.086,399.639L149.043,399.534L148.938,399.491L143.423,399.491L143.318,399.534L143.275,399.639L143.275,405.154L143.318,405.259L143.423,405.302L148.938,405.302L149.043,405.259L149.086,405.154L148.938,405.154" style="fill:rgb(34,30,31);fill-rule:nonzero;"/>
        </g>
        <g transform="matrix(4.16667,0,0,4.16667,-574.538,-1611.43)">
            <rect x="143.423" y="405.154" width="5.515" height="5.515" style="fill:white;"/>
        </g>
        <g transform="matrix(4.16667,0,0,4.16667,-574.538,-1611.42)">
            <path d="M148.938,410.668L148.938,410.52L143.571,410.52L143.571,405.302L148.789,405.302L148.789,410.668L148.938,410.668L148.938,410.52L148.938,410.668L149.086,410.668L149.086,405.154L149.043,405.049L148.938,405.005L143.423,405.005L143.318,405.049L143.275,405.154L143.275,410.668L143.318,410.773L143.423,410.817L148.938,410.817L149.043,410.773L149.086,410.668L148.938,410.668" style="fill:rgb(34,30,31);fill-rule:nonzero;"/>
        </g>
        <g transform="matrix(4.16667,0,0,4.16667,-574.538,-1657.38)">
            <rect x="143.423" y="410.668" width="5.515" height="5.515" style="fill:white;"/>
        </g>
        <g transform="matrix(4.16667,0,0,4.16667,-574.538,-1657.38)">
            <path d="M148.938,416.184L148.938,416.035L143.571,416.035L143.571,410.817L148.789,410.817L148.789,416.184L148.938,416.184L148.938,416.035L148.938,416.184L149.086,416.184L149.086,410.669L149.043,410.564L148.938,410.52L143.423,410.52L143.318,410.564L143.275,410.669L143.275,416.184L143.318,416.288L143.423,416.332L148.938,416.332L149.043,416.288L149.086,416.184L148.938,416.184" style="fill:rgb(34,30,31);fill-rule:nonzero;"/>
        </g>
        <g transform="matrix(4.16667,0,0,4.16667,-574.538,-1426.95)">
            <rect x="182.024" y="383.017" width="5.514" height="5.515" style="fill:white;"/>
        </g>
        <g transform="matrix(4.16667,0,0,4.16667,-574.538,-1426.95)">
            <path d="M187.538,388.532L187.538,388.383L182.172,388.383L182.172,383.165L187.389,383.165L187.389,388.532L187.538,388.532L187.538,388.383L187.538,388.532L187.686,388.532L187.686,383.017L187.642,382.912L187.538,382.869L182.024,382.869L181.919,382.912L181.875,383.017L181.875,388.532L181.919,388.637L182.024,388.68L187.538,388.68L187.642,388.637L187.686,388.532L187.538,388.532" style="fill:rgb(3,4,4);fill-rule:nonzero;"/>
        </g>
        <g transform="matrix(4.16667,0,0,4.16667,-574.538,-1472.91)">
            <path d="M187.538,394.047L187.538,393.899L182.172,393.899L182.172,388.68L187.389,388.68L187.389,394.047L187.538,394.047L187.538,393.899L187.538,394.047L187.686,394.047L187.686,388.384L181.875,388.384L181.875,394.195L187.686,394.195L187.686,394.047L187.538,394.047" style="fill:rgb(3,4,4);fill-rule:nonzero;"/>
        </g>
        <g transform="matrix(4.16667,0,0,4.16667,-574.538,-1518.87)">
            <rect x="182.024" y="394.047" width="5.514" height="5.514" style="fill:white;"/>
        </g>
        <g transform="matrix(4.16667,0,0,4.16667,-574.538,-1518.86)">
            <path d="M187.538,399.561L187.538,399.413L182.172,399.413L182.172,394.195L187.389,394.195L187.389,399.561L187.538,399.561L187.538,399.413L187.538,399.561L187.686,399.561L187.686,394.047L187.642,393.942L187.538,393.899L182.024,393.899L181.919,393.942L181.875,394.047L181.875,399.561L181.919,399.666L182.024,399.709L187.538,399.709L187.642,399.666L187.686,399.561L187.538,399.561" style="fill:rgb(3,4,4);fill-rule:nonzero;"/>
        </g>
        <g transform="matrix(4.16667,0,0,4.16667,-574.538,-1564.61)">
            <rect x="182.024" y="399.536" width="5.514" height="5.515" style="fill:white;"/>
        </g>
        <g transform="matrix(4.16667,0,0,4.16667,-574.538,-1564.61)">
            <path d="M187.538,405.051L187.538,404.903L182.172,404.903L182.172,399.684L187.389,399.684L187.389,405.051L187.538,405.051L187.538,404.903L187.538,405.051L187.686,405.051L187.686,399.536L187.642,399.431L187.538,399.388L182.024,399.388L181.919,399.431L181.875,399.536L181.875,405.051L181.919,405.155L182.024,405.199L187.538,405.199L187.642,405.155L187.686,405.051L187.538,405.051" style="fill:rgb(3,4,4);fill-rule:nonzero;"/>
        </g>
        <g transform="matrix(4.16667,0,0,4.16667,-574.538,-1610.56)">
            <rect x="182.024" y="405.051" width="5.514" height="5.514" style="fill:white;"/>
        </g>
        <g transform="matrix(4.16667,0,0,4.16667,-574.538,-1610.57)">
            <path d="M187.538,410.566L187.538,410.418L182.172,410.418L182.172,405.2L187.389,405.2L187.389,410.566L187.538,410.566L187.538,410.418L187.538,410.566L187.686,410.566L187.686,405.052L187.642,404.947L187.538,404.903L182.024,404.903L181.919,404.947L181.875,405.052L181.875,410.566L181.919,410.671L182.024,410.714L187.538,410.714L187.642,410.671L187.686,410.566L187.538,410.566" style="fill:rgb(3,4,4);fill-rule:nonzero;"/>
        </g>
        <g transform="matrix(4.16667,0,0,4.16667,-574.538,-1656.52)">
            <rect x="182.024" y="410.565" width="5.514" height="5.515" style="fill:white;"/>
        </g>
        <g transform="matrix(4.16667,0,0,4.16667,-574.538,-1656.52)">
            <path d="M187.538,416.081L187.538,415.932L182.172,415.932L182.172,410.714L187.389,410.714L187.389,416.081L187.538,416.081L187.538,415.932L187.538,416.081L187.686,416.081L187.686,410.566L187.642,410.461L187.538,410.417L182.024,410.417L181.919,410.461L181.875,410.566L181.875,416.081L181.919,416.185L182.024,416.229L187.538,416.229L187.642,416.185L187.686,416.081L187.538,416.081" style="fill:rgb(3,4,4);fill-rule:nonzero;"/>
        </g>
        <g transform="matrix(4.16667,0,0,4.16667,-574.538,-1702.47)">
            <rect x="182.024" y="416.08" width="5.514" height="5.514" style="fill:white;"/>
        </g>
        <g transform="matrix(4.16667,0,0,4.16667,-574.538,-1702.48)">
            <path d="M187.538,421.595L187.538,421.446L182.172,421.446L182.172,416.229L187.389,416.229L187.389,421.595L187.538,421.595L187.538,421.446L187.538,421.595L187.686,421.595L187.686,416.08L187.642,415.976L187.538,415.932L182.024,415.932L181.919,415.976L181.875,416.08L181.875,421.595L181.919,421.7L182.024,421.743L187.538,421.743L187.642,421.7L187.686,421.595L187.538,421.595" style="fill:rgb(3,4,4);fill-rule:nonzero;"/>
        </g>
        <g transform="matrix(4.16667,0,0,4.16667,-574.538,-1381.1)">
            <rect x="176.411" y="377.515" width="5.515" height="5.515" style="fill:white;"/>
        </g>
        <g transform="matrix(4.16667,0,0,4.16667,-574.538,-1381.1)">
            <path d="M181.925,383.03L181.925,382.881L176.559,382.881L176.559,377.663L181.777,377.663L181.777,383.03L181.925,383.03L181.925,382.881L181.925,383.03L182.073,383.03L182.073,377.515L182.03,377.41L181.925,377.367L176.411,377.367L176.305,377.41L176.262,377.515L176.262,383.03L176.305,383.134L176.411,383.178L181.925,383.178L182.03,383.134L182.073,383.03L181.925,383.03" style="fill:rgb(34,30,31);fill-rule:nonzero;"/>
        </g>
        <g transform="matrix(4.16667,0,0,4.16667,-574.538,-1427.06)">
            <rect x="176.411" y="383.03" width="5.515" height="5.515" style="fill:white;"/>
        </g>
        <g transform="matrix(4.16667,0,0,4.16667,-574.538,-1427.06)">
            <path d="M181.925,388.545L181.925,388.397L176.559,388.397L176.559,383.179L181.777,383.179L181.777,388.545L181.925,388.545L181.925,388.397L181.925,388.545L182.073,388.545L182.073,383.03L182.03,382.925L181.925,382.882L176.411,382.882L176.305,382.925L176.262,383.03L176.262,388.545L176.305,388.65L176.411,388.693L181.925,388.693L182.03,388.65L182.073,388.545L181.925,388.545" style="fill:rgb(3,4,4);fill-rule:nonzero;"/>
        </g>
        <g transform="matrix(4.16667,0,0,4.16667,-574.538,-1473.02)">
            <rect x="176.411" y="388.545" width="5.515" height="5.515" style="fill:white;"/>
        </g>
        <g transform="matrix(4.16667,0,0,4.16667,-574.538,-1473.01)">
            <path d="M181.925,394.059L181.925,393.911L176.559,393.911L176.559,388.693L181.777,388.693L181.777,394.059L181.925,394.059L181.925,393.911L181.925,394.059L182.073,394.059L182.073,388.544L182.03,388.44L181.925,388.396L176.411,388.396L176.305,388.44L176.262,388.544L176.262,394.059L176.305,394.164L176.411,394.208L181.925,394.208L182.03,394.164L182.073,394.059L181.925,394.059" style="fill:rgb(34,30,31);fill-rule:nonzero;"/>
        </g>
        <g transform="matrix(4.16667,0,0,4.16667,-574.538,-1518.98)">
            <rect x="176.411" y="394.06" width="5.515" height="5.515" style="fill:white;"/>
        </g>
        <g transform="matrix(4.16667,0,0,4.16667,-574.538,-1518.97)">
            <path d="M181.925,399.574L181.925,399.426L176.559,399.426L176.559,394.208L181.777,394.208L181.777,399.574L181.925,399.574L181.925,399.426L181.925,399.574L182.073,399.574L182.073,394.059L182.03,393.955L181.925,393.911L176.411,393.911L176.305,393.955L176.262,394.059L176.262,399.574L176.305,399.679L176.411,399.723L181.925,399.723L182.03,399.679L182.073,399.574L181.925,399.574" style="fill:rgb(34,30,31);fill-rule:nonzero;"/>
        </g>
        <g transform="matrix(4.16667,0,0,4.16667,-574.538,-1564.72)">
            <rect x="176.411" y="399.549" width="5.515" height="5.515" style="fill:white;"/>
        </g>
        <g transform="matrix(4.16667,0,0,4.16667,-574.538,-1564.72)">
            <path d="M181.925,405.064L181.925,404.916L176.559,404.916L176.559,399.697L181.777,399.697L181.777,405.064L181.925,405.064L181.925,404.916L181.925,405.064L182.073,405.064L182.073,399.549L182.03,399.444L181.925,399.401L176.411,399.401L176.305,399.444L176.262,399.549L176.262,405.064L176.305,405.169L176.411,405.212L181.925,405.212L182.03,405.169L182.073,405.064L181.925,405.064" style="fill:rgb(34,30,31);fill-rule:nonzero;"/>
        </g>
        <g transform="matrix(4.16667,0,0,4.16667,-574.538,-1610.67)">
            <rect x="176.411" y="405.064" width="5.515" height="5.514" style="fill:white;"/>
        </g>
        <g transform="matrix(4.16667,0,0,4.16667,-574.538,-1610.68)">
            <path d="M181.925,410.579L181.925,410.431L176.559,410.431L176.559,405.213L181.777,405.213L181.777,410.579L181.925,410.579L181.925,410.431L181.925,410.579L182.073,410.579L182.073,405.064L182.03,404.959L181.925,404.916L176.411,404.916L176.305,404.959L176.262,405.064L176.262,410.579L176.305,410.684L176.411,410.727L181.925,410.727L182.03,410.684L182.073,410.579L181.925,410.579" style="fill:rgb(34,30,31);fill-rule:nonzero;"/>
        </g>
        <g transform="matrix(4.16667,0,0,4.16667,-574.538,-1656.63)">
            <path d="M181.925,416.093L181.925,415.945L176.559,415.945L176.559,410.727L181.777,410.727L181.777,416.093L181.925,416.093L181.925,415.945L181.925,416.093L182.073,416.093L182.073,410.43L176.262,410.43L176.262,416.242L182.073,416.242L182.073,416.093L181.925,416.093" style="fill:rgb(3,4,4);fill-rule:nonzero;"/>
        </g>
        <g transform="matrix(4.16667,0,0,4.16667,-574.538,-1702.58)">
            <rect x="176.411" y="416.093" width="5.515" height="5.514" style="fill:white;"/>
        </g>
        <g transform="matrix(4.16667,0,0,4.16667,-574.538,-1702.58)">
            <path d="M181.925,421.607L181.925,421.458L176.559,421.458L176.559,416.241L181.777,416.241L181.777,421.607L181.925,421.607L181.925,421.458L181.925,421.607L182.073,421.607L182.073,416.093L182.03,415.988L181.925,415.945L176.411,415.945L176.305,415.988L176.262,416.093L176.262,421.607L176.305,421.711L176.411,421.755L181.925,421.755L182.03,421.711L182.073,421.607L181.925,421.607" style="fill:rgb(34,30,31);fill-rule:nonzero;"/>
        </g>
        <g transform="matrix(4.16667,0,0,4.16667,-574.538,-1381.22)">
            <rect x="170.994" y="377.529" width="5.515" height="5.515" style="fill:white;"/>
        </g>
        <g transform="matrix(4.16667,0,0,4.16667,-574.538,-1381.21)">
            <path d="M176.509,383.043L176.509,382.895L171.142,382.895L171.142,377.677L176.361,377.677L176.361,383.043L176.509,383.043L176.509,382.895L176.509,383.043L176.657,383.043L176.657,377.529L176.614,377.424L176.509,377.38L170.994,377.38L170.889,377.424L170.846,377.529L170.846,383.043L170.889,383.148L170.994,383.192L176.509,383.192L176.614,383.148L176.657,383.043L176.509,383.043" style="fill:rgb(34,30,31);fill-rule:nonzero;"/>
        </g>
        <g transform="matrix(4.16667,0,0,4.16667,-574.538,-1519.08)">
            <rect x="170.994" y="394.073" width="5.515" height="5.515" style="fill:white;"/>
        </g>
        <g transform="matrix(4.16667,0,0,4.16667,-574.538,-1519.08)">
            <path d="M176.509,399.588L176.509,399.44L171.142,399.44L171.142,394.222L176.361,394.222L176.361,399.588L176.509,399.588L176.509,399.44L176.509,399.588L176.657,399.588L176.657,394.073L176.614,393.968L176.509,393.925L170.994,393.925L170.889,393.968L170.846,394.073L170.846,399.588L170.889,399.693L170.994,399.736L176.509,399.736L176.614,399.693L176.657,399.588L176.509,399.588" style="fill:rgb(34,30,31);fill-rule:nonzero;"/>
        </g>
        <g transform="matrix(4.16667,0,0,4.16667,-574.538,-1564.83)">
            <rect x="170.994" y="399.562" width="5.515" height="5.515" style="fill:white;"/>
        </g>
        <g transform="matrix(4.16667,0,0,4.16667,-574.538,-1564.83)">
            <path d="M176.509,405.077L176.509,404.928L171.142,404.928L171.142,399.71L176.361,399.71L176.361,405.077L176.509,405.077L176.509,404.928L176.509,405.077L176.657,405.077L176.657,399.562L176.614,399.457L176.509,399.414L170.994,399.414L170.889,399.457L170.846,399.562L170.846,405.077L170.889,405.182L170.994,405.225L176.509,405.225L176.614,405.182L176.657,405.077L176.509,405.077" style="fill:rgb(34,30,31);fill-rule:nonzero;"/>
        </g>
        <g transform="matrix(4.16667,0,0,4.16667,-574.538,-1610.78)">
            <rect x="170.994" y="405.077" width="5.515" height="5.515" style="fill:white;"/>
        </g>
        <g transform="matrix(4.16667,0,0,4.16667,-574.538,-1610.78)">
            <path d="M176.509,410.592L176.509,410.444L171.142,410.444L171.142,405.225L176.361,405.225L176.361,410.592L176.509,410.592L176.509,410.444L176.509,410.592L176.657,410.592L176.657,405.077L176.614,404.972L176.509,404.929L170.994,404.929L170.889,404.972L170.846,405.077L170.846,410.592L170.889,410.697L170.994,410.74L176.509,410.74L176.614,410.697L176.657,410.592L176.509,410.592" style="fill:rgb(34,30,31);fill-rule:nonzero;"/>
        </g>
        <g transform="matrix(4.16667,0,0,4.16667,-574.538,-1656.74)">
            <rect x="170.994" y="410.592" width="5.515" height="5.515" style="fill:white;"/>
        </g>
        <g transform="matrix(4.16667,0,0,4.16667,-574.538,-1656.74)">
            <path d="M176.509,416.107L176.509,415.959L171.142,415.959L171.142,410.74L176.361,410.74L176.361,416.107L176.509,416.107L176.509,415.959L176.509,416.107L176.657,416.107L176.657,410.592L176.614,410.487L176.509,410.444L170.994,410.444L170.889,410.487L170.846,410.592L170.846,416.107L170.889,416.212L170.994,416.255L176.509,416.255L176.614,416.212L176.657,416.107L176.509,416.107" style="fill:rgb(34,30,31);fill-rule:nonzero;"/>
        </g>
        <g transform="matrix(4.16667,0,0,4.16667,-574.538,-1702.69)">
            <rect x="170.994" y="416.107" width="5.515" height="5.513" style="fill:white;"/>
        </g>
        <g transform="matrix(4.16667,0,0,4.16667,-574.538,-1702.7)">
            <path d="M176.509,421.621L176.509,421.473L171.142,421.473L171.142,416.256L176.361,416.256L176.361,421.621L176.509,421.621L176.509,421.473L176.509,421.621L176.657,421.621L176.657,416.108L176.614,416.003L176.509,415.959L170.994,415.959L170.889,416.003L170.846,416.108L170.846,421.621L170.889,421.726L170.994,421.769L176.509,421.769L176.614,421.726L176.657,421.621L176.509,421.621" style="fill:rgb(34,30,31);fill-rule:nonzero;"/>
        </g>
        <g transform="matrix(4.16667,0,0,4.16667,-574.538,-1381.33)">
            <path d="M170.995,383.057L170.995,382.909L165.629,382.909L165.629,377.69L170.847,377.69L170.847,383.057L170.995,383.057L170.995,382.909L170.995,383.057L171.143,383.057L171.143,377.394L165.332,377.394L165.332,383.205L171.143,383.205L171.143,383.057L170.995,383.057" style="fill:rgb(3,4,4);fill-rule:nonzero;"/>
        </g>
        <g transform="matrix(4.16667,0,0,4.16667,-574.538,-1427.28)">
            <rect x="165.48" y="383.057" width="5.515" height="5.515" style="fill:white;"/>
        </g>
        <g transform="matrix(4.16667,0,0,4.16667,-574.538,-1427.28)">
            <path d="M170.995,388.572L170.995,388.424L165.629,388.424L165.629,383.206L170.847,383.206L170.847,388.572L170.995,388.572L170.995,388.424L170.995,388.572L171.143,388.572L171.143,383.058L171.1,382.953L170.995,382.909L165.48,382.909L165.376,382.953L165.332,383.058L165.332,388.572L165.376,388.677L165.48,388.72L170.995,388.72L171.1,388.677L171.143,388.572L170.995,388.572" style="fill:rgb(34,30,31);fill-rule:nonzero;"/>
        </g>
        <g transform="matrix(4.16667,0,0,4.16667,-574.538,-1473.23)">
            <rect x="165.48" y="388.571" width="5.515" height="5.515" style="fill:white;"/>
        </g>
        <g transform="matrix(4.16667,0,0,4.16667,-574.538,-1473.24)">
            <path d="M170.995,394.087L170.995,393.938L165.629,393.938L165.629,388.72L170.847,388.72L170.847,394.087L170.995,394.087L170.995,393.938L170.995,394.087L171.143,394.087L171.143,388.572L171.1,388.467L170.995,388.423L165.48,388.423L165.376,388.467L165.332,388.572L165.332,394.087L165.376,394.191L165.48,394.235L170.995,394.235L171.1,394.191L171.143,394.087L170.995,394.087" style="fill:rgb(34,30,31);fill-rule:nonzero;"/>
        </g>
        <g transform="matrix(4.16667,0,0,4.16667,-574.538,-1564.94)">
            <path d="M170.995,405.09L170.995,404.942L165.629,404.942L165.629,399.724L170.847,399.724L170.847,405.09L170.995,405.09L170.995,404.942L170.995,405.09L171.143,405.09L171.143,399.427L165.332,399.427L165.332,405.239L171.143,405.239L171.143,405.09L170.995,405.09" style="fill:rgb(3,4,4);fill-rule:nonzero;"/>
        </g>
        <g transform="matrix(4.16667,0,0,4.16667,-574.538,-1610.9)">
            <rect x="165.48" y="405.091" width="5.515" height="5.515" style="fill:white;"/>
        </g>
        <g transform="matrix(4.16667,0,0,4.16667,-574.538,-1610.9)">
            <path d="M170.995,410.605L170.995,410.457L165.629,410.457L165.629,405.239L170.847,405.239L170.847,410.605L170.995,410.605L170.995,410.457L170.995,410.605L171.143,410.605L171.143,405.091L171.1,404.986L170.995,404.942L165.48,404.942L165.376,404.986L165.332,405.091L165.332,410.605L165.376,410.71L165.48,410.754L170.995,410.754L171.1,410.71L171.143,410.605L170.995,410.605" style="fill:rgb(34,30,31);fill-rule:nonzero;"/>
        </g>
        <g transform="matrix(4.16667,0,0,4.16667,-574.538,-1656.85)">
            <rect x="165.48" y="410.605" width="5.515" height="5.515" style="fill:white;"/>
        </g>
        <g transform="matrix(4.16667,0,0,4.16667,-574.538,-1656.85)">
            <path d="M170.995,416.12L170.995,415.971L165.629,415.971L165.629,410.753L170.847,410.753L170.847,416.12L170.995,416.12L170.995,415.971L170.995,416.12L171.143,416.12L171.143,410.605L171.1,410.5L170.995,410.457L165.48,410.457L165.376,410.5L165.332,410.605L165.332,416.12L165.376,416.225L165.48,416.268L170.995,416.268L171.1,416.225L171.143,416.12L170.995,416.12" style="fill:rgb(34,30,31);fill-rule:nonzero;"/>
        </g>
        <g transform="matrix(4.16667,0,0,4.16667,-574.538,-1702.8)">
            <rect x="165.48" y="416.12" width="5.515" height="5.514" style="fill:white;"/>
        </g>
        <g transform="matrix(4.16667,0,0,4.16667,-574.538,-1702.8)">
            <path d="M170.995,421.634L170.995,421.486L165.629,421.486L165.629,416.268L170.847,416.268L170.847,421.634L170.995,421.634L170.995,421.486L170.995,421.634L171.143,421.634L171.143,416.12L171.1,416.015L170.995,415.972L165.48,415.972L165.376,416.015L165.332,416.12L165.332,421.634L165.376,421.739L165.48,421.782L170.995,421.782L171.1,421.739L171.143,421.634L170.995,421.634" style="fill:rgb(34,30,31);fill-rule:nonzero;"/>
        </g>
        <g transform="matrix(4.16667,0,0,4.16667,-574.538,-1565.14)">
            <rect x="159.966" y="399.6" width="5.515" height="5.514" style="fill:white;"/>
        </g>
        <g transform="matrix(4.16667,0,0,4.16667,-574.538,-1565.13)">
            <path d="M165.48,405.113L165.48,404.965L160.114,404.965L160.114,399.747L165.332,399.747L165.332,405.113L165.48,405.113L165.48,404.965L165.48,405.113L165.629,405.113L165.629,399.599L165.585,399.494L165.48,399.451L159.966,399.451L159.861,399.494L159.818,399.599L159.818,405.113L159.861,405.218L159.966,405.262L165.48,405.262L165.585,405.218L165.629,405.113L165.48,405.113" style="fill:rgb(3,4,4);fill-rule:nonzero;"/>
        </g>
        <g transform="matrix(4.16667,0,0,4.16667,-574.538,-1657.27)">
            <rect x="148.937" y="410.655" width="5.514" height="5.515" style="fill:white;"/>
        </g>
        <g transform="matrix(4.16667,0,0,4.16667,-574.538,-1657.27)">
            <path d="M154.452,416.17L154.452,416.021L149.086,416.021L149.086,410.803L154.303,410.803L154.303,416.17L154.452,416.17L154.452,416.021L154.452,416.17L154.6,416.17L154.6,410.655L154.556,410.55L154.452,410.507L148.937,410.507L148.832,410.55L148.789,410.655L148.789,416.17L148.832,416.275L148.937,416.318L154.452,416.318L154.556,416.275L154.6,416.17L154.452,416.17" style="fill:rgb(3,4,4);fill-rule:nonzero;"/>
        </g>
        <g transform="matrix(4.16667,0,0,4.16667,-574.538,-1703.33)">
            <rect x="143.423" y="416.183" width="5.515" height="5.514" style="fill:white;"/>
        </g>
        <g transform="matrix(4.16667,0,0,4.16667,-574.538,-1703.33)">
            <path d="M148.938,421.697L148.938,421.548L143.571,421.548L143.571,416.331L148.789,416.331L148.789,421.697L148.938,421.697L148.938,421.548L148.938,421.697L149.086,421.697L149.086,416.183L149.043,416.078L148.938,416.035L143.423,416.035L143.318,416.078L143.275,416.183L143.275,421.697L143.318,421.801L143.423,421.845L148.938,421.845L149.043,421.801L149.086,421.697L148.938,421.697" style="fill:rgb(3,4,4);fill-rule:nonzero;"/>
        </g>
        <g transform="matrix(4.16667,0,0,4.16667,-574.538,-1380.99)">
            <rect x="182.024" y="377.502" width="5.514" height="5.515" style="fill:white;"/>
        </g>
        <g transform="matrix(4.16667,0,0,4.16667,-574.538,-1381)">
            <path d="M187.538,383.018L187.538,382.869L182.172,382.869L182.172,377.651L187.389,377.651L187.389,383.018L187.538,383.018L187.538,382.869L187.538,383.018L187.686,383.018L187.686,377.503L187.642,377.398L187.538,377.354L182.024,377.354L181.919,377.398L181.875,377.503L181.875,383.018L181.919,383.122L182.024,383.166L187.538,383.166L187.642,383.122L187.686,383.018L187.538,383.018" style="fill:rgb(3,4,4);fill-rule:nonzero;"/>
        </g>
        <g transform="matrix(4.16667,0,0,4.16667,-574.538,-1427.17)">
            <rect x="170.994" y="383.043" width="5.515" height="5.515" style="fill:white;"/>
        </g>
        <g transform="matrix(4.16667,0,0,4.16667,-574.538,-1427.17)">
            <path d="M176.509,388.558L176.509,388.409L171.142,388.409L171.142,383.191L176.361,383.191L176.361,388.558L176.509,388.558L176.509,388.409L176.509,388.558L176.657,388.558L176.657,383.043L176.614,382.938L176.509,382.895L170.994,382.895L170.889,382.938L170.846,383.043L170.846,388.558L170.889,388.662L170.994,388.706L176.509,388.706L176.614,388.662L176.657,388.558L176.509,388.558" style="fill:rgb(34,30,31);fill-rule:nonzero;"/>
        </g>
        <g transform="matrix(4.16667,0,0,4.16667,-574.538,-1473.13)">
            <rect x="170.994" y="388.558" width="5.515" height="5.515" style="fill:white;"/>
        </g>
        <g transform="matrix(4.16667,0,0,4.16667,-574.538,-1473.13)">
            <path d="M176.509,394.073L176.509,393.925L171.142,393.925L171.142,388.706L176.361,388.706L176.361,394.073L176.509,394.073L176.509,393.925L176.509,394.073L176.657,394.073L176.657,388.558L176.614,388.453L176.509,388.41L170.994,388.41L170.889,388.453L170.846,388.558L170.846,394.073L170.889,394.177L170.994,394.221L176.509,394.221L176.614,394.177L176.657,394.073L176.509,394.073" style="fill:rgb(3,4,4);fill-rule:nonzero;"/>
        </g>
        <g transform="matrix(4.16667,0,0,4.16667,-574.538,-1519.19)">
            <rect x="165.48" y="394.086" width="5.515" height="5.515" style="fill:white;"/>
        </g>
        <g transform="matrix(4.16667,0,0,4.16667,-574.538,-1519.2)">
            <path d="M170.995,399.602L170.995,399.453L165.629,399.453L165.629,394.235L170.847,394.235L170.847,399.602L170.995,399.602L170.995,399.453L170.995,399.602L171.143,399.602L171.143,394.087L171.1,393.982L170.995,393.938L165.48,393.938L165.376,393.982L165.332,394.087L165.332,399.602L165.376,399.706L165.48,399.75L170.995,399.75L171.1,399.706L171.143,399.602L170.995,399.602" style="fill:rgb(3,4,4);fill-rule:nonzero;"/>
        </g>
        <g transform="matrix(1,0,0,1,-113.625,-907.328)">
            <g transform="matrix(4.16667,0,0,4.16667,-460.913,-474.188)">
                <rect x="214.516" y="377.565" width="5.515" height="5.515" style="fill:white;"/>
            </g>
            <g transform="matrix(4.16667,0,0,4.16667,-460.913,-474.189)">
                <path d="M220.031,383.08L220.031,382.932L214.664,382.932L214.664,377.713L219.883,377.713L219.883,383.08L220.031,383.08L220.031,382.932L220.031,383.08L220.179,383.08L220.179,377.565L220.136,377.46L220.031,377.417L214.516,377.417L214.412,377.46L214.368,377.565L214.368,383.08L214.412,383.185L214.516,383.228L220.031,383.228L220.136,383.185L220.179,383.08L220.031,383.08" style="fill:rgb(3,4,4);fill-rule:nonzero;"/>
            </g>
            <g transform="matrix(4.16667,0,0,4.16667,-460.913,-520.147)">
                <path d="M220.031,388.595L220.031,388.447L214.664,388.447L214.664,383.229L219.883,383.229L219.883,388.595L220.031,388.595L220.031,388.447L220.031,388.595L220.179,388.595L220.179,382.932L214.368,382.932L214.368,388.743L220.179,388.743L220.179,388.595L220.031,388.595" style="fill:rgb(3,4,4);fill-rule:nonzero;"/>
            </g>
            <g transform="matrix(4.16667,0,0,4.16667,-460.913,-566.105)">
                <rect x="214.516" y="388.595" width="5.515" height="5.515" style="fill:white;"/>
            </g>
            <g transform="matrix(4.16667,0,0,4.16667,-460.913,-566.101)">
                <path d="M220.031,394.109L220.031,393.961L214.664,393.961L214.664,388.743L219.883,388.743L219.883,394.109L220.031,394.109L220.031,393.961L220.031,394.109L220.179,394.109L220.179,388.595L220.136,388.49L220.031,388.446L214.516,388.446L214.412,388.49L214.368,388.595L214.368,394.109L214.412,394.214L214.516,394.258L220.031,394.258L220.136,394.214L220.179,394.109L220.031,394.109" style="fill:rgb(3,4,4);fill-rule:nonzero;"/>
            </g>
            <g transform="matrix(4.16667,0,0,4.16667,-460.913,-612.053)">
                <rect x="214.516" y="394.109" width="5.515" height="5.514" style="fill:white;"/>
            </g>
            <g transform="matrix(4.16667,0,0,4.16667,-460.913,-612.056)">
                <path d="M220.031,399.624L220.031,399.475L214.664,399.475L214.664,394.258L219.883,394.258L219.883,399.624L220.031,399.624L220.031,399.475L220.031,399.624L220.179,399.624L220.179,394.109L220.136,394.004L220.031,393.961L214.516,393.961L214.412,394.004L214.368,394.109L214.368,399.624L214.412,399.728L214.516,399.772L220.031,399.772L220.136,399.728L220.179,399.624L220.031,399.624" style="fill:rgb(3,4,4);fill-rule:nonzero;"/>
            </g>
            <g transform="matrix(4.16667,0,0,4.16667,-460.913,-703.762)">
                <rect x="214.516" y="405.114" width="5.515" height="5.514" style="fill:white;"/>
            </g>
            <g transform="matrix(4.16667,0,0,4.16667,-460.913,-703.76)">
                <path d="M220.031,410.628L220.031,410.48L214.664,410.48L214.664,405.262L219.883,405.262L219.883,410.628L220.031,410.628L220.031,410.48L220.031,410.628L220.179,410.628L220.179,405.114L220.136,405.009L220.031,404.966L214.516,404.966L214.412,405.009L214.368,405.114L214.368,410.628L214.412,410.733L214.516,410.776L220.031,410.776L220.136,410.733L220.179,410.628L220.031,410.628" style="fill:rgb(3,4,4);fill-rule:nonzero;"/>
            </g>
            <g transform="matrix(4.16667,0,0,4.16667,-460.913,-749.712)">
                <rect x="214.516" y="410.628" width="5.515" height="5.514" style="fill:white;"/>
            </g>
            <g transform="matrix(4.16667,0,0,4.16667,-460.913,-749.714)">
                <path d="M220.031,416.143L220.031,415.995L214.664,415.995L214.664,410.776L219.883,410.776L219.883,416.143L220.031,416.143L220.031,415.995L220.031,416.143L220.179,416.143L220.179,410.628L220.136,410.523L220.031,410.48L214.516,410.48L214.412,410.523L214.368,410.628L214.368,416.143L214.412,416.248L214.516,416.291L220.031,416.291L220.136,416.248L220.179,416.143L220.031,416.143" style="fill:rgb(3,4,4);fill-rule:nonzero;"/>
            </g>
            <g transform="matrix(4.16667,0,0,4.16667,-460.913,-795.67)">
                <rect x="214.516" y="416.143" width="5.515" height="5.514" style="fill:white;"/>
            </g>
            <g transform="matrix(4.16667,0,0,4.16667,-460.913,-795.668)">
                <path d="M220.031,421.657L220.031,421.509L214.664,421.509L214.664,416.291L219.883,416.291L219.883,421.657L220.031,421.657L220.031,421.509L220.031,421.657L220.179,421.657L220.179,416.143L220.136,416.038L220.031,415.995L214.516,415.995L214.412,416.038L214.368,416.143L214.368,421.657L214.412,421.762L214.516,421.805L220.031,421.805L220.136,421.762L220.179,421.657L220.031,421.657" style="fill:rgb(3,4,4);fill-rule:nonzero;"/>
            </g>
            <g transform="matrix(4.16667,0,0,4.16667,-460.913,-474.297)">
                <rect x="208.904" y="377.578" width="5.514" height="5.515" style="fill:white;"/>
            </g>
            <g transform="matrix(4.16667,0,0,4.16667,-460.913,-474.297)">
                <path d="M214.418,383.093L214.418,382.945L209.052,382.945L209.052,377.726L214.269,377.726L214.269,383.093L214.418,383.093L214.418,382.945L214.418,383.093L214.566,383.093L214.566,377.578L214.523,377.474L214.418,377.43L208.904,377.43L208.799,377.473L208.755,377.578L208.755,383.093L208.799,383.198L208.904,383.241L214.418,383.241L214.523,383.198L214.566,383.093L214.418,383.093" style="fill:rgb(34,30,31);fill-rule:nonzero;"/>
            </g>
            <g transform="matrix(4.16667,0,0,4.16667,-460.913,-520.255)">
                <rect x="208.904" y="383.093" width="5.514" height="5.515" style="fill:white;"/>
            </g>
            <g transform="matrix(4.16667,0,0,4.16667,-460.913,-520.256)">
                <path d="M214.418,388.608L214.418,388.46L209.052,388.46L209.052,383.242L214.269,383.242L214.269,388.608L214.418,388.608L214.418,388.46L214.418,388.608L214.566,388.608L214.566,383.094L214.523,382.989L214.418,382.945L208.904,382.945L208.799,382.989L208.755,383.094L208.755,388.608L208.799,388.713L208.904,388.756L214.418,388.756L214.523,388.713L214.566,388.608L214.418,388.608" style="fill:rgb(34,30,31);fill-rule:nonzero;"/>
            </g>
            <g transform="matrix(4.16667,0,0,4.16667,-460.913,-566.205)">
                <rect x="208.904" y="388.607" width="5.514" height="5.515" style="fill:white;"/>
            </g>
            <g transform="matrix(4.16667,0,0,4.16667,-460.913,-566.206)">
                <path d="M214.418,394.122L214.418,393.973L209.052,393.973L209.052,388.755L214.269,388.755L214.269,394.122L214.418,394.122L214.418,393.973L214.418,394.122L214.566,394.122L214.566,388.607L214.523,388.502L214.418,388.459L208.904,388.459L208.799,388.502L208.755,388.607L208.755,394.122L208.799,394.226L208.904,394.27L214.418,394.27L214.523,394.226L214.566,394.122L214.418,394.122" style="fill:rgb(34,30,31);fill-rule:nonzero;"/>
            </g>
            <g transform="matrix(4.16667,0,0,4.16667,-460.913,-612.163)">
                <rect x="208.904" y="394.122" width="5.514" height="5.515" style="fill:white;"/>
            </g>
            <g transform="matrix(4.16667,0,0,4.16667,-460.913,-612.164)">
                <path d="M214.418,399.637L214.418,399.489L209.052,399.489L209.052,394.27L214.269,394.27L214.269,399.637L214.418,399.637L214.418,399.489L214.418,399.637L214.566,399.637L214.566,394.122L214.523,394.017L214.418,393.974L208.904,393.974L208.799,394.017L208.755,394.122L208.755,399.637L208.799,399.741L208.904,399.785L214.418,399.785L214.523,399.741L214.566,399.637L214.418,399.637" style="fill:rgb(34,30,31);fill-rule:nonzero;"/>
            </g>
            <g transform="matrix(4.16667,0,0,4.16667,-460.913,-657.913)">
                <rect x="208.904" y="399.612" width="5.514" height="5.515" style="fill:white;"/>
            </g>
            <g transform="matrix(4.16667,0,0,4.16667,-460.913,-657.91)">
                <path d="M214.418,405.126L214.418,404.978L209.052,404.978L209.052,399.76L214.269,399.76L214.269,405.126L214.418,405.126L214.418,404.978L214.418,405.126L214.566,405.126L214.566,399.611L214.523,399.507L214.418,399.463L208.904,399.463L208.799,399.507L208.755,399.611L208.755,405.126L208.799,405.231L208.904,405.275L214.418,405.275L214.523,405.231L214.566,405.126L214.418,405.126" style="fill:rgb(34,30,31);fill-rule:nonzero;"/>
            </g>
            <g transform="matrix(4.16667,0,0,4.16667,-460.913,-749.82)">
                <rect x="208.904" y="410.641" width="5.514" height="5.514" style="fill:white;"/>
            </g>
            <g transform="matrix(4.16667,0,0,4.16667,-460.913,-749.822)">
                <path d="M214.418,416.156L214.418,416.008L209.052,416.008L209.052,410.789L214.269,410.789L214.269,416.156L214.418,416.156L214.418,416.008L214.418,416.156L214.566,416.156L214.566,410.641L214.523,410.536L214.418,410.493L208.904,410.493L208.799,410.536L208.755,410.641L208.755,416.156L208.799,416.261L208.904,416.304L214.418,416.304L214.523,416.261L214.566,416.156L214.418,416.156" style="fill:rgb(34,30,31);fill-rule:nonzero;"/>
            </g>
            <g transform="matrix(4.16667,0,0,4.16667,-460.913,-795.776)">
                <path d="M214.418,421.67L214.418,421.522L209.052,421.522L209.052,416.305L214.269,416.305L214.269,421.67L214.418,421.67L214.418,421.522L214.418,421.67L214.566,421.67L214.566,416.008L208.755,416.008L208.755,421.818L214.566,421.818L214.566,421.67L214.418,421.67" style="fill:rgb(3,4,4);fill-rule:nonzero;"/>
            </g>
            <g transform="matrix(4.16667,0,0,4.16667,-460.913,-474.405)">
                <rect x="203.488" y="377.591" width="5.514" height="5.515" style="fill:white;"/>
            </g>
            <g transform="matrix(4.16667,0,0,4.16667,-460.913,-474.406)">
                <path d="M209.002,383.106L209.002,382.958L203.636,382.958L203.636,377.739L208.854,377.739L208.854,383.106L209.002,383.106L209.002,382.958L209.002,383.106L209.15,383.106L209.15,377.591L209.107,377.486L209.002,377.443L203.488,377.443L203.383,377.486L203.339,377.591L203.339,383.106L203.383,383.211L203.488,383.254L209.002,383.254L209.107,383.211L209.15,383.106L209.002,383.106" style="fill:rgb(34,30,31);fill-rule:nonzero;"/>
            </g>
            <g transform="matrix(4.16667,0,0,4.16667,-460.913,-520.363)">
                <rect x="203.488" y="383.106" width="5.514" height="5.515" style="fill:white;"/>
            </g>
            <g transform="matrix(4.16667,0,0,4.16667,-460.913,-520.364)">
                <path d="M209.002,388.621L209.002,388.473L203.636,388.473L203.636,383.254L208.854,383.254L208.854,388.621L209.002,388.621L209.002,388.473L209.002,388.621L209.15,388.621L209.15,383.106L209.107,383.002L209.002,382.958L203.488,382.958L203.383,383.002L203.339,383.106L203.339,388.621L203.383,388.726L203.488,388.769L209.002,388.769L209.107,388.726L209.15,388.621L209.002,388.621" style="fill:rgb(34,30,31);fill-rule:nonzero;"/>
            </g>
            <g transform="matrix(4.16667,0,0,4.16667,-460.913,-566.322)">
                <rect x="203.488" y="388.621" width="5.514" height="5.515" style="fill:white;"/>
            </g>
            <g transform="matrix(4.16667,0,0,4.16667,-460.913,-566.322)">
                <path d="M209.002,394.136L209.002,393.988L203.636,393.988L203.636,388.769L208.854,388.769L208.854,394.136L209.002,394.136L209.002,393.988L209.002,394.136L209.15,394.136L209.15,388.621L209.107,388.517L209.002,388.473L203.488,388.473L203.383,388.517L203.339,388.621L203.339,394.136L203.383,394.241L203.488,394.284L209.002,394.284L209.107,394.241L209.15,394.136L209.002,394.136" style="fill:rgb(34,30,31);fill-rule:nonzero;"/>
            </g>
            <g transform="matrix(4.16667,0,0,4.16667,-460.913,-612.28)">
                <rect x="203.488" y="394.136" width="5.514" height="5.515" style="fill:white;"/>
            </g>
            <g transform="matrix(4.16667,0,0,4.16667,-460.913,-612.276)">
                <path d="M209.002,399.65L209.002,399.502L203.636,399.502L203.636,394.284L208.854,394.284L208.854,399.65L209.002,399.65L209.002,399.502L209.002,399.65L209.15,399.65L209.15,394.136L209.107,394.031L209.002,393.988L203.488,393.988L203.383,394.031L203.339,394.136L203.339,399.65L203.383,399.755L203.488,399.798L209.002,399.798L209.107,399.755L209.15,399.65L209.002,399.65" style="fill:rgb(34,30,31);fill-rule:nonzero;"/>
            </g>
            <g transform="matrix(4.16667,0,0,4.16667,-460.913,-658.022)">
                <rect x="203.488" y="399.625" width="5.514" height="5.515" style="fill:white;"/>
            </g>
            <g transform="matrix(4.16667,0,0,4.16667,-460.913,-658.022)">
                <path d="M209.002,405.14L209.002,404.992L203.636,404.992L203.636,399.774L208.854,399.774L208.854,405.14L209.002,405.14L209.002,404.992L209.002,405.14L209.15,405.14L209.15,399.625L209.107,399.52L209.002,399.477L203.488,399.477L203.383,399.52L203.339,399.625L203.339,405.14L203.383,405.245L203.488,405.288L209.002,405.288L209.107,405.245L209.15,405.14L209.002,405.14" style="fill:rgb(34,30,31);fill-rule:nonzero;"/>
            </g>
            <g transform="matrix(4.16667,0,0,4.16667,-460.913,-703.98)">
                <rect x="203.488" y="405.14" width="5.514" height="5.515" style="fill:white;"/>
            </g>
            <g transform="matrix(4.16667,0,0,4.16667,-460.913,-703.976)">
                <path d="M209.002,410.654L209.002,410.506L203.636,410.506L203.636,405.288L208.854,405.288L208.854,410.654L209.002,410.654L209.002,410.506L209.002,410.654L209.15,410.654L209.15,405.139L209.107,405.035L209.002,404.991L203.488,404.991L203.383,405.035L203.339,405.139L203.339,410.654L203.383,410.759L203.488,410.803L209.002,410.803L209.107,410.759L209.15,410.654L209.002,410.654" style="fill:rgb(34,30,31);fill-rule:nonzero;"/>
            </g>
            <g transform="matrix(4.16667,0,0,4.16667,-460.913,-795.892)">
                <rect x="203.488" y="416.17" width="5.514" height="5.514" style="fill:white;"/>
            </g>
            <g transform="matrix(4.16667,0,0,4.16667,-460.913,-795.885)">
                <path d="M209.002,421.682L209.002,421.534L203.636,421.534L203.636,416.317L208.854,416.317L208.854,421.682L209.002,421.682L209.002,421.534L209.002,421.682L209.15,421.682L209.15,416.169L209.107,416.064L209.002,416.021L203.488,416.021L203.383,416.064L203.339,416.169L203.339,421.682L203.383,421.788L203.488,421.831L209.002,421.831L209.107,421.788L209.15,421.682L209.002,421.682" style="fill:rgb(34,30,31);fill-rule:nonzero;"/>
            </g>
            <g transform="matrix(4.16667,0,0,4.16667,-460.913,-474.513)">
                <rect x="197.974" y="377.604" width="5.514" height="5.515" style="fill:white;"/>
            </g>
            <g transform="matrix(4.16667,0,0,4.16667,-460.913,-474.518)">
                <path d="M203.488,383.12L203.488,382.971L198.122,382.971L198.122,377.753L203.34,377.753L203.34,383.12L203.488,383.12L203.488,382.971L203.488,383.12L203.637,383.12L203.637,377.605L203.593,377.5L203.488,377.456L197.974,377.456L197.869,377.5L197.826,377.605L197.826,383.12L197.869,383.224L197.974,383.268L203.488,383.268L203.593,383.224L203.637,383.12L203.488,383.12" style="fill:rgb(34,30,31);fill-rule:nonzero;"/>
            </g>
            <g transform="matrix(4.16667,0,0,4.16667,-460.913,-520.472)">
                <rect x="197.974" y="383.119" width="5.514" height="5.515" style="fill:white;"/>
            </g>
            <g transform="matrix(4.16667,0,0,4.16667,-460.913,-520.472)">
                <path d="M203.488,388.634L203.488,388.485L198.122,388.485L198.122,383.267L203.34,383.267L203.34,388.634L203.488,388.634L203.488,388.485L203.488,388.634L203.637,388.634L203.637,383.119L203.593,383.014L203.488,382.971L197.974,382.971L197.869,383.014L197.826,383.119L197.826,388.634L197.869,388.739L197.974,388.782L203.488,388.782L203.593,388.739L203.637,388.634L203.488,388.634" style="fill:rgb(34,30,31);fill-rule:nonzero;"/>
            </g>
            <g transform="matrix(4.16667,0,0,4.16667,-460.913,-566.43)">
                <rect x="197.974" y="388.634" width="5.514" height="5.515" style="fill:white;"/>
            </g>
            <g transform="matrix(4.16667,0,0,4.16667,-460.913,-566.431)">
                <path d="M203.488,394.149L203.488,394.001L198.122,394.001L198.122,388.782L203.34,388.782L203.34,394.149L203.488,394.149L203.488,394.001L203.488,394.149L203.637,394.149L203.637,388.634L203.593,388.529L203.488,388.486L197.974,388.486L197.869,388.529L197.826,388.634L197.826,394.149L197.869,394.254L197.974,394.297L203.488,394.297L203.593,394.254L203.637,394.149L203.488,394.149" style="fill:rgb(34,30,31);fill-rule:nonzero;"/>
            </g>
            <g transform="matrix(4.16667,0,0,4.16667,-460.913,-612.389)">
                <path d="M203.488,399.664L203.488,399.516L198.122,399.516L198.122,394.297L203.34,394.297L203.34,399.664L203.488,399.664L203.488,399.516L203.488,399.664L203.637,399.664L203.637,394.001L197.826,394.001L197.826,399.812L203.637,399.812L203.637,399.664L203.488,399.664" style="fill:rgb(3,4,4);fill-rule:nonzero;"/>
            </g>
            <g transform="matrix(4.16667,0,0,4.16667,-460.913,-658.13)">
                <rect x="197.974" y="399.638" width="5.514" height="5.515" style="fill:white;"/>
            </g>
            <g transform="matrix(4.16667,0,0,4.16667,-460.913,-658.131)">
                <path d="M203.488,405.153L203.488,405.005L198.122,405.005L198.122,399.786L203.34,399.786L203.34,405.153L203.488,405.153L203.488,405.005L203.488,405.153L203.637,405.153L203.637,399.638L203.593,399.533L203.488,399.49L197.974,399.49L197.869,399.533L197.826,399.638L197.826,405.153L197.869,405.257L197.974,405.301L203.488,405.301L203.593,405.257L203.637,405.153L203.488,405.153" style="fill:rgb(34,30,31);fill-rule:nonzero;"/>
            </g>
            <g transform="matrix(4.16667,0,0,4.16667,-460.913,-704.088)">
                <rect x="197.974" y="405.153" width="5.514" height="5.515" style="fill:white;"/>
            </g>
            <g transform="matrix(4.16667,0,0,4.16667,-460.913,-704.089)">
                <path d="M203.488,410.668L203.488,410.52L198.122,410.52L198.122,405.301L203.34,405.301L203.34,410.668L203.488,410.668L203.488,410.52L203.488,410.668L203.637,410.668L203.637,405.153L203.593,405.048L203.488,405.005L197.974,405.005L197.869,405.048L197.826,405.153L197.826,410.668L197.869,410.773L197.974,410.816L203.488,410.816L203.593,410.773L203.637,410.668L203.488,410.668" style="fill:rgb(34,30,31);fill-rule:nonzero;"/>
            </g>
            <g transform="matrix(4.16667,0,0,4.16667,-460.913,-750.047)">
                <rect x="197.974" y="410.668" width="5.514" height="5.515" style="fill:white;"/>
            </g>
            <g transform="matrix(4.16667,0,0,4.16667,-460.913,-750.047)">
                <path d="M203.488,416.183L203.488,416.035L198.122,416.035L198.122,410.817L203.34,410.817L203.34,416.183L203.488,416.183L203.488,416.035L203.488,416.183L203.637,416.183L203.637,410.668L203.593,410.563L203.488,410.52L197.974,410.52L197.869,410.563L197.826,410.668L197.826,416.183L197.869,416.288L197.974,416.331L203.488,416.331L203.593,416.288L203.637,416.183L203.488,416.183" style="fill:rgb(34,30,31);fill-rule:nonzero;"/>
            </g>
            <g transform="matrix(4.16667,0,0,4.16667,-460.913,-519.622)">
                <rect x="236.575" y="383.017" width="5.513" height="5.515" style="fill:white;"/>
            </g>
            <g transform="matrix(4.16667,0,0,4.16667,-460.913,-519.618)">
                <path d="M242.088,388.531L242.088,388.383L236.723,388.383L236.723,383.165L241.939,383.165L241.939,388.531L242.088,388.531L242.088,388.383L242.088,388.531L242.236,388.531L242.236,383.016L242.193,382.912L242.088,382.868L236.575,382.868L236.47,382.912L236.426,383.016L236.426,388.531L236.47,388.636L236.575,388.68L242.088,388.68L242.193,388.636L242.236,388.531L242.088,388.531" style="fill:rgb(3,4,4);fill-rule:nonzero;"/>
            </g>
            <g transform="matrix(4.16667,0,0,4.16667,-460.913,-565.576)">
                <path d="M242.088,394.046L242.088,393.898L236.723,393.898L236.723,388.68L241.939,388.68L241.939,394.046L242.088,394.046L242.088,393.898L242.088,394.046L242.236,394.046L242.236,388.383L236.426,388.383L236.426,394.195L242.236,394.195L242.236,394.046L242.088,394.046" style="fill:rgb(3,4,4);fill-rule:nonzero;"/>
            </g>
            <g transform="matrix(4.16667,0,0,4.16667,-460.913,-611.527)">
                <rect x="236.575" y="394.046" width="5.513" height="5.514" style="fill:white;"/>
            </g>
            <g transform="matrix(4.16667,0,0,4.16667,-460.913,-611.531)">
                <path d="M242.088,399.561L242.088,399.412L236.723,399.412L236.723,394.195L241.939,394.195L241.939,399.561L242.088,399.561L242.088,399.412L242.088,399.561L242.236,399.561L242.236,394.046L242.193,393.941L242.088,393.898L236.575,393.898L236.47,393.941L236.426,394.046L236.426,399.561L236.47,399.666L236.575,399.709L242.088,399.709L242.193,399.666L242.236,399.561L242.088,399.561" style="fill:rgb(3,4,4);fill-rule:nonzero;"/>
            </g>
            <g transform="matrix(4.16667,0,0,4.16667,-460.913,-657.28)">
                <rect x="236.575" y="399.536" width="5.513" height="5.515" style="fill:white;"/>
            </g>
            <g transform="matrix(4.16667,0,0,4.16667,-460.913,-657.281)">
                <path d="M242.088,405.051L242.088,404.903L236.723,404.903L236.723,399.685L241.939,399.685L241.939,405.051L242.088,405.051L242.088,404.903L242.088,405.051L242.236,405.051L242.236,399.537L242.193,399.432L242.088,399.388L236.575,399.388L236.47,399.432L236.426,399.537L236.426,405.051L236.47,405.156L236.575,405.199L242.088,405.199L242.193,405.156L242.236,405.051L242.088,405.051" style="fill:rgb(3,4,4);fill-rule:nonzero;"/>
            </g>
            <g transform="matrix(4.16667,0,0,4.16667,-460.913,-703.228)">
                <rect x="236.575" y="405.05" width="5.513" height="5.514" style="fill:white;"/>
            </g>
            <g transform="matrix(4.16667,0,0,4.16667,-460.913,-703.231)">
                <path d="M242.088,410.565L242.088,410.416L236.723,410.416L236.723,405.199L241.939,405.199L241.939,410.565L242.088,410.565L242.088,410.416L242.088,410.565L242.236,410.565L242.236,405.05L242.193,404.945L242.088,404.902L236.575,404.902L236.47,404.945L236.426,405.05L236.426,410.565L236.47,410.669L236.575,410.713L242.088,410.713L242.193,410.669L242.236,410.565L242.088,410.565" style="fill:rgb(3,4,4);fill-rule:nonzero;"/>
            </g>
            <g transform="matrix(4.16667,0,0,4.16667,-460.913,-749.188)">
                <rect x="236.575" y="410.565" width="5.513" height="5.515" style="fill:white;"/>
            </g>
            <g transform="matrix(4.16667,0,0,4.16667,-460.913,-749.185)">
                <path d="M242.088,416.079L242.088,415.931L236.723,415.931L236.723,410.713L241.939,410.713L241.939,416.079L242.088,416.079L242.088,415.931L242.088,416.079L242.236,416.079L242.236,410.564L242.193,410.46L242.088,410.416L236.575,410.416L236.47,410.46L236.426,410.564L236.426,416.079L236.47,416.184L236.575,416.228L242.088,416.228L242.193,416.184L242.236,416.079L242.088,416.079" style="fill:rgb(3,4,4);fill-rule:nonzero;"/>
            </g>
            <g transform="matrix(4.16667,0,0,4.16667,-460.913,-795.143)">
                <rect x="236.575" y="416.08" width="5.513" height="5.514" style="fill:white;"/>
            </g>
            <g transform="matrix(4.16667,0,0,4.16667,-460.913,-795.139)">
                <path d="M242.088,421.593L242.088,421.445L236.723,421.445L236.723,416.227L241.939,416.227L241.939,421.593L242.088,421.593L242.088,421.445L242.088,421.593L242.236,421.593L242.236,416.079L242.193,415.974L242.088,415.931L236.575,415.931L236.47,415.974L236.426,416.079L236.426,421.593L236.47,421.698L236.575,421.742L242.088,421.742L242.193,421.698L242.236,421.593L242.088,421.593" style="fill:rgb(3,4,4);fill-rule:nonzero;"/>
            </g>
            <g transform="matrix(4.16667,0,0,4.16667,-460.913,-473.77)">
                <rect x="230.961" y="377.515" width="5.515" height="5.514" style="fill:white;"/>
            </g>
            <g transform="matrix(4.16667,0,0,4.16667,-460.913,-473.768)">
                <path d="M236.476,383.029L236.476,382.881L231.109,382.881L231.109,377.663L236.328,377.663L236.328,383.029L236.476,383.029L236.476,382.881L236.476,383.029L236.624,383.029L236.624,377.515L236.58,377.41L236.476,377.366L230.961,377.366L230.856,377.41L230.813,377.515L230.813,383.029L230.856,383.134L230.961,383.178L236.476,383.178L236.58,383.134L236.624,383.029L236.476,383.029" style="fill:rgb(34,30,31);fill-rule:nonzero;"/>
            </g>
            <g transform="matrix(4.16667,0,0,4.16667,-460.913,-519.722)">
                <rect x="230.961" y="383.029" width="5.515" height="5.515" style="fill:white;"/>
            </g>
            <g transform="matrix(4.16667,0,0,4.16667,-460.913,-519.726)">
                <path d="M236.476,388.545L236.476,388.396L231.109,388.396L231.109,383.178L236.328,383.178L236.328,388.545L236.476,388.545L236.476,388.396L236.476,388.545L236.624,388.545L236.624,383.03L236.58,382.925L236.476,382.881L230.961,382.881L230.856,382.925L230.813,383.03L230.813,388.545L230.856,388.649L230.961,388.693L236.476,388.693L236.58,388.649L236.624,388.545L236.476,388.545" style="fill:rgb(3,4,4);fill-rule:nonzero;"/>
            </g>
            <g transform="matrix(4.16667,0,0,4.16667,-460.913,-565.68)">
                <rect x="230.961" y="388.544" width="5.515" height="5.515" style="fill:white;"/>
            </g>
            <g transform="matrix(4.16667,0,0,4.16667,-460.913,-565.681)">
                <path d="M236.476,394.059L236.476,393.91L231.109,393.91L231.109,388.692L236.328,388.692L236.328,394.059L236.476,394.059L236.476,393.91L236.476,394.059L236.624,394.059L236.624,388.544L236.58,388.439L236.476,388.396L230.961,388.396L230.856,388.439L230.813,388.544L230.813,394.059L230.856,394.164L230.961,394.207L236.476,394.207L236.58,394.164L236.624,394.059L236.476,394.059" style="fill:rgb(34,30,31);fill-rule:nonzero;"/>
            </g>
            <g transform="matrix(4.16667,0,0,4.16667,-460.913,-611.638)">
                <rect x="230.961" y="394.059" width="5.515" height="5.515" style="fill:white;"/>
            </g>
            <g transform="matrix(4.16667,0,0,4.16667,-460.913,-611.639)">
                <path d="M236.476,399.574L236.476,399.426L231.109,399.426L231.109,394.207L236.328,394.207L236.328,399.574L236.476,399.574L236.476,399.426L236.476,399.574L236.624,399.574L236.624,394.059L236.58,393.954L236.476,393.911L230.961,393.911L230.856,393.954L230.813,394.059L230.813,399.574L230.856,399.679L230.961,399.722L236.476,399.722L236.58,399.679L236.624,399.574L236.476,399.574" style="fill:rgb(34,30,31);fill-rule:nonzero;"/>
            </g>
            <g transform="matrix(4.16667,0,0,4.16667,-460.913,-657.38)">
                <rect x="230.961" y="399.548" width="5.515" height="5.515" style="fill:white;"/>
            </g>
            <g transform="matrix(4.16667,0,0,4.16667,-460.913,-657.385)">
                <path d="M236.476,405.064L236.476,404.915L231.109,404.915L231.109,399.697L236.328,399.697L236.328,405.064L236.476,405.064L236.476,404.915L236.476,405.064L236.624,405.064L236.624,399.549L236.58,399.444L236.476,399.4L230.961,399.4L230.856,399.444L230.813,399.549L230.813,405.064L230.856,405.168L230.961,405.212L236.476,405.212L236.58,405.168L236.624,405.064L236.476,405.064" style="fill:rgb(34,30,31);fill-rule:nonzero;"/>
            </g>
            <g transform="matrix(4.16667,0,0,4.16667,-460.913,-703.338)">
                <rect x="230.961" y="405.063" width="5.515" height="5.515" style="fill:white;"/>
            </g>
            <g transform="matrix(4.16667,0,0,4.16667,-460.913,-703.343)">
                <path d="M236.476,410.579L236.476,410.43L231.109,410.43L231.109,405.212L236.328,405.212L236.328,410.579L236.476,410.579L236.476,410.43L236.476,410.579L236.624,410.579L236.624,405.064L236.58,404.959L236.476,404.915L230.961,404.915L230.856,404.959L230.813,405.064L230.813,410.579L230.856,410.683L230.961,410.727L236.476,410.727L236.58,410.683L236.624,410.579L236.476,410.579" style="fill:rgb(34,30,31);fill-rule:nonzero;"/>
            </g>
            <g transform="matrix(4.16667,0,0,4.16667,-460.913,-749.297)">
                <path d="M236.476,416.093L236.476,415.944L231.109,415.944L231.109,410.726L236.328,410.726L236.328,416.093L236.476,416.093L236.476,415.944L236.476,416.093L236.624,416.093L236.624,410.43L230.813,410.43L230.813,416.241L236.624,416.241L236.624,416.093L236.476,416.093" style="fill:rgb(3,4,4);fill-rule:nonzero;"/>
            </g>
            <g transform="matrix(4.16667,0,0,4.16667,-460.913,-795.25)">
                <rect x="230.961" y="416.093" width="5.515" height="5.514" style="fill:white;"/>
            </g>
            <g transform="matrix(4.16667,0,0,4.16667,-460.913,-795.251)">
                <path d="M236.476,421.607L236.476,421.459L231.109,421.459L231.109,416.242L236.328,416.242L236.328,421.607L236.476,421.607L236.476,421.459L236.476,421.607L236.624,421.607L236.624,416.093L236.58,415.989L236.476,415.945L230.961,415.945L230.856,415.989L230.813,416.093L230.813,421.607L230.856,421.712L230.961,421.755L236.476,421.755L236.58,421.712L236.624,421.607L236.476,421.607" style="fill:rgb(34,30,31);fill-rule:nonzero;"/>
            </g>
            <g transform="matrix(4.16667,0,0,4.16667,-460.913,-473.88)">
                <rect x="225.545" y="377.528" width="5.515" height="5.515" style="fill:white;"/>
            </g>
            <g transform="matrix(4.16667,0,0,4.16667,-460.913,-473.881)">
                <path d="M231.06,383.043L231.06,382.895L225.693,382.895L225.693,377.676L230.911,377.676L230.911,383.043L231.06,383.043L231.06,382.895L231.06,383.043L231.208,383.043L231.208,377.528L231.164,377.423L231.06,377.38L225.545,377.38L225.44,377.423L225.396,377.528L225.396,383.043L225.44,383.148L225.545,383.191L231.06,383.191L231.164,383.148L231.208,383.043L231.06,383.043" style="fill:rgb(34,30,31);fill-rule:nonzero;"/>
            </g>
            <g transform="matrix(4.16667,0,0,4.16667,-460.913,-611.753)">
                <rect x="225.545" y="394.073" width="5.515" height="5.514" style="fill:white;"/>
            </g>
            <g transform="matrix(4.16667,0,0,4.16667,-460.913,-611.751)">
                <path d="M231.06,399.587L231.06,399.439L225.693,399.439L225.693,394.221L230.911,394.221L230.911,399.587L231.06,399.587L231.06,399.439L231.06,399.587L231.208,399.587L231.208,394.073L231.164,393.968L231.06,393.924L225.545,393.924L225.44,393.968L225.396,394.073L225.396,399.587L225.44,399.692L225.545,399.736L231.06,399.736L231.164,399.692L231.208,399.587L231.06,399.587" style="fill:rgb(34,30,31);fill-rule:nonzero;"/>
            </g>
            <g transform="matrix(4.16667,0,0,4.16667,-460.913,-657.497)">
                <rect x="225.545" y="399.562" width="5.515" height="5.515" style="fill:white;"/>
            </g>
            <g transform="matrix(4.16667,0,0,4.16667,-460.913,-657.497)">
                <path d="M231.06,405.077L231.06,404.929L225.693,404.929L225.693,399.71L230.911,399.71L230.911,405.077L231.06,405.077L231.06,404.929L231.06,405.077L231.208,405.077L231.208,399.562L231.164,399.458L231.06,399.414L225.545,399.414L225.44,399.458L225.396,399.562L225.396,405.077L225.44,405.182L225.545,405.225L231.06,405.225L231.164,405.182L231.208,405.077L231.06,405.077" style="fill:rgb(34,30,31);fill-rule:nonzero;"/>
            </g>
            <g transform="matrix(4.16667,0,0,4.16667,-460.913,-703.455)">
                <rect x="225.545" y="405.077" width="5.515" height="5.515" style="fill:white;"/>
            </g>
            <g transform="matrix(4.16667,0,0,4.16667,-460.913,-703.456)">
                <path d="M231.06,410.592L231.06,410.444L225.693,410.444L225.693,405.226L230.911,405.226L230.911,410.592L231.06,410.592L231.06,410.444L231.06,410.592L231.208,410.592L231.208,405.078L231.164,404.973L231.06,404.929L225.545,404.929L225.44,404.973L225.396,405.078L225.396,410.592L225.44,410.697L225.545,410.74L231.06,410.74L231.164,410.697L231.208,410.592L231.06,410.592" style="fill:rgb(34,30,31);fill-rule:nonzero;"/>
            </g>
            <g transform="matrix(4.16667,0,0,4.16667,-460.913,-749.405)">
                <rect x="225.545" y="410.591" width="5.515" height="5.515" style="fill:white;"/>
            </g>
            <g transform="matrix(4.16667,0,0,4.16667,-460.913,-749.406)">
                <path d="M231.06,416.106L231.06,415.957L225.693,415.957L225.693,410.739L230.911,410.739L230.911,416.106L231.06,416.106L231.06,415.957L231.06,416.106L231.208,416.106L231.208,410.591L231.164,410.486L231.06,410.443L225.545,410.443L225.44,410.486L225.396,410.591L225.396,416.106L225.44,416.21L225.545,416.254L231.06,416.254L231.164,416.21L231.208,416.106L231.06,416.106" style="fill:rgb(34,30,31);fill-rule:nonzero;"/>
            </g>
            <g transform="matrix(4.16667,0,0,4.16667,-460.913,-795.358)">
                <rect x="225.545" y="416.106" width="5.515" height="5.514" style="fill:white;"/>
            </g>
            <g transform="matrix(4.16667,0,0,4.16667,-460.913,-795.36)">
                <path d="M231.06,421.62L231.06,421.472L225.693,421.472L225.693,416.255L230.911,416.255L230.911,421.62L231.06,421.62L231.06,421.472L231.06,421.62L231.208,421.62L231.208,416.106L231.164,416.001L231.06,415.958L225.545,415.958L225.44,416.001L225.396,416.106L225.396,421.62L225.44,421.724L225.545,421.768L231.06,421.768L231.164,421.724L231.208,421.62L231.06,421.62" style="fill:rgb(34,30,31);fill-rule:nonzero;"/>
            </g>
            <g transform="matrix(4.16667,0,0,4.16667,-460.913,-473.989)">
                <path d="M225.546,383.056L225.546,382.908L220.179,382.908L220.179,377.689L225.398,377.689L225.398,383.056L225.546,383.056L225.546,382.908L225.546,383.056L225.694,383.056L225.694,377.393L219.883,377.393L219.883,383.204L225.694,383.204L225.694,383.056L225.546,383.056" style="fill:rgb(3,4,4);fill-rule:nonzero;"/>
            </g>
            <g transform="matrix(4.16667,0,0,4.16667,-460.913,-519.947)">
                <rect x="220.031" y="383.056" width="5.515" height="5.515" style="fill:white;"/>
            </g>
            <g transform="matrix(4.16667,0,0,4.16667,-460.913,-519.947)">
                <path d="M225.546,388.571L225.546,388.423L220.179,388.423L220.179,383.204L225.398,383.204L225.398,388.571L225.546,388.571L225.546,388.423L225.546,388.571L225.694,388.571L225.694,383.056L225.651,382.951L225.546,382.908L220.031,382.908L219.926,382.951L219.883,383.056L219.883,388.571L219.926,388.676L220.031,388.719L225.546,388.719L225.651,388.676L225.694,388.571L225.546,388.571" style="fill:rgb(34,30,31);fill-rule:nonzero;"/>
            </g>
            <g transform="matrix(4.16667,0,0,4.16667,-460.913,-565.905)">
                <rect x="220.031" y="388.571" width="5.515" height="5.515" style="fill:white;"/>
            </g>
            <g transform="matrix(4.16667,0,0,4.16667,-460.913,-565.906)">
                <path d="M225.546,394.086L225.546,393.938L220.179,393.938L220.179,388.719L225.398,388.719L225.398,394.086L225.546,394.086L225.546,393.938L225.546,394.086L225.694,394.086L225.694,388.571L225.651,388.466L225.546,388.423L220.031,388.423L219.926,388.466L219.883,388.571L219.883,394.086L219.926,394.191L220.031,394.234L225.546,394.234L225.651,394.191L225.694,394.086L225.546,394.086" style="fill:rgb(34,30,31);fill-rule:nonzero;"/>
            </g>
            <g transform="matrix(4.16667,0,0,4.16667,-460.913,-657.606)">
                <path d="M225.546,405.09L225.546,404.942L220.179,404.942L220.179,399.723L225.398,399.723L225.398,405.09L225.546,405.09L225.546,404.942L225.546,405.09L225.694,405.09L225.694,399.427L219.883,399.427L219.883,405.238L225.694,405.238L225.694,405.09L225.546,405.09" style="fill:rgb(3,4,4);fill-rule:nonzero;"/>
            </g>
            <g transform="matrix(4.16667,0,0,4.16667,-460.913,-703.563)">
                <rect x="220.031" y="405.09" width="5.515" height="5.515" style="fill:white;"/>
            </g>
            <g transform="matrix(4.16667,0,0,4.16667,-460.913,-703.564)">
                <path d="M225.546,410.605L225.546,410.457L220.179,410.457L220.179,405.238L225.398,405.238L225.398,410.605L225.546,410.605L225.546,410.457L225.546,410.605L225.694,410.605L225.694,405.09L225.651,404.985L225.546,404.942L220.031,404.942L219.926,404.985L219.883,405.09L219.883,410.605L219.926,410.71L220.031,410.753L225.546,410.753L225.651,410.71L225.694,410.605L225.546,410.605" style="fill:rgb(34,30,31);fill-rule:nonzero;"/>
            </g>
            <g transform="matrix(4.16667,0,0,4.16667,-460.913,-749.522)">
                <rect x="220.031" y="410.605" width="5.515" height="5.515" style="fill:white;"/>
            </g>
            <g transform="matrix(4.16667,0,0,4.16667,-460.913,-749.522)">
                <path d="M225.546,416.12L225.546,415.972L220.179,415.972L220.179,410.754L225.398,410.754L225.398,416.12L225.546,416.12L225.546,415.972L225.546,416.12L225.694,416.12L225.694,410.605L225.651,410.501L225.546,410.457L220.031,410.457L219.926,410.501L219.883,410.605L219.883,416.12L219.926,416.225L220.031,416.268L225.546,416.268L225.651,416.225L225.694,416.12L225.546,416.12" style="fill:rgb(34,30,31);fill-rule:nonzero;"/>
            </g>
            <g transform="matrix(4.16667,0,0,4.16667,-460.913,-795.475)">
                <rect x="220.031" y="416.12" width="5.515" height="5.514" style="fill:white;"/>
            </g>
            <g transform="matrix(4.16667,0,0,4.16667,-460.913,-795.472)">
                <path d="M225.546,421.633L225.546,421.485L220.179,421.485L220.179,416.268L225.398,416.268L225.398,421.633L225.546,421.633L225.546,421.485L225.546,421.633L225.694,421.633L225.694,416.12L225.651,416.015L225.546,415.971L220.031,415.971L219.926,416.015L219.883,416.12L219.883,421.633L219.926,421.738L220.031,421.782L225.546,421.782L225.651,421.738L225.694,421.633L225.546,421.633" style="fill:rgb(34,30,31);fill-rule:nonzero;"/>
            </g>
            <g transform="matrix(4.16667,0,0,4.16667,-460.913,-657.805)">
                <rect x="214.516" y="399.599" width="5.515" height="5.515" style="fill:white;"/>
            </g>
            <g transform="matrix(4.16667,0,0,4.16667,-460.913,-657.806)">
                <path d="M220.031,405.114L220.031,404.966L214.664,404.966L214.664,399.747L219.883,399.747L219.883,405.114L220.031,405.114L220.031,404.966L220.031,405.114L220.179,405.114L220.179,399.599L220.136,399.495L220.031,399.451L214.516,399.451L214.412,399.495L214.368,399.599L214.368,405.114L214.412,405.219L214.516,405.262L220.031,405.262L220.136,405.219L220.179,405.114L220.031,405.114" style="fill:rgb(3,4,4);fill-rule:nonzero;"/>
            </g>
            <g transform="matrix(4.16667,0,0,4.16667,-460.913,-703.864)">
                <path d="M214.418,410.64L214.418,410.492L209.052,410.492L209.052,405.274L214.269,405.274L214.269,410.64L214.418,410.64L214.418,410.492L214.418,410.64L214.566,410.64L214.566,404.978L208.755,404.978L208.755,410.789L214.566,410.789L214.566,410.64L214.418,410.64" style="fill:rgb(3,4,4);fill-rule:nonzero;"/>
            </g>
            <g transform="matrix(4.16667,0,0,4.16667,-460.913,-749.938)">
                <rect x="203.488" y="410.655" width="5.514" height="5.515" style="fill:white;"/>
            </g>
            <g transform="matrix(4.16667,0,0,4.16667,-460.913,-749.935)">
                <path d="M209.002,416.169L209.002,416.021L203.636,416.021L203.636,410.803L208.854,410.803L208.854,416.169L209.002,416.169L209.002,416.021L209.002,416.169L209.15,416.169L209.15,410.654L209.107,410.55L209.002,410.506L203.488,410.506L203.383,410.55L203.339,410.654L203.339,416.169L203.383,416.274L203.488,416.318L209.002,416.318L209.107,416.274L209.15,416.169L209.002,416.169" style="fill:rgb(3,4,4);fill-rule:nonzero;"/>
            </g>
            <g transform="matrix(4.16667,0,0,4.16667,-460.913,-796)">
                <rect x="197.974" y="416.183" width="5.514" height="5.514" style="fill:white;"/>
            </g>
            <g transform="matrix(4.16667,0,0,4.16667,-460.913,-795.997)">
                <path d="M203.488,421.696L203.488,421.548L198.122,421.548L198.122,416.331L203.34,416.331L203.34,421.696L203.488,421.696L203.488,421.548L203.488,421.696L203.637,421.696L203.637,416.183L203.593,416.078L203.488,416.034L197.974,416.034L197.869,416.078L197.826,416.183L197.826,421.696L197.869,421.801L197.974,421.845L203.488,421.845L203.593,421.801L203.637,421.696L203.488,421.696" style="fill:rgb(3,4,4);fill-rule:nonzero;"/>
            </g>
            <g transform="matrix(4.16667,0,0,4.16667,-460.913,-473.663)">
                <rect x="236.575" y="377.502" width="5.513" height="5.515" style="fill:white;"/>
            </g>
            <g transform="matrix(4.16667,0,0,4.16667,-460.913,-473.664)">
                <path d="M242.088,383.017L242.088,382.869L236.723,382.869L236.723,377.651L241.939,377.651L241.939,383.017L242.088,383.017L242.088,382.869L242.088,383.017L242.236,383.017L242.236,377.502L242.193,377.398L242.088,377.354L236.575,377.354L236.47,377.398L236.426,377.502L236.426,383.017L236.47,383.122L236.575,383.165L242.088,383.165L242.193,383.122L242.236,383.017L242.088,383.017" style="fill:rgb(3,4,4);fill-rule:nonzero;"/>
            </g>
            <g transform="matrix(4.16667,0,0,4.16667,-460.913,-519.838)">
                <rect x="225.545" y="383.043" width="5.515" height="5.515" style="fill:white;"/>
            </g>
            <g transform="matrix(4.16667,0,0,4.16667,-460.913,-519.839)">
                <path d="M231.06,388.558L231.06,388.41L225.693,388.41L225.693,383.192L230.911,383.192L230.911,388.558L231.06,388.558L231.06,388.41L231.06,388.558L231.208,388.558L231.208,383.043L231.164,382.939L231.06,382.895L225.545,382.895L225.44,382.939L225.396,383.043L225.396,388.558L225.44,388.663L225.545,388.706L231.06,388.706L231.164,388.663L231.208,388.558L231.06,388.558" style="fill:rgb(34,30,31);fill-rule:nonzero;"/>
            </g>
            <g transform="matrix(4.16667,0,0,4.16667,-460.913,-565.797)">
                <rect x="225.545" y="388.558" width="5.515" height="5.515" style="fill:white;"/>
            </g>
            <g transform="matrix(4.16667,0,0,4.16667,-460.913,-565.793)">
                <path d="M231.06,394.072L231.06,393.924L225.693,393.924L225.693,388.706L230.911,388.706L230.911,394.072L231.06,394.072L231.06,393.924L231.06,394.072L231.208,394.072L231.208,388.557L231.164,388.453L231.06,388.409L225.545,388.409L225.44,388.453L225.396,388.557L225.396,394.072L225.44,394.177L225.545,394.221L231.06,394.221L231.164,394.177L231.208,394.072L231.06,394.072" style="fill:rgb(3,4,4);fill-rule:nonzero;"/>
            </g>
            <g transform="matrix(4.16667,0,0,4.16667,-460.913,-611.863)">
                <rect x="220.031" y="394.086" width="5.515" height="5.515" style="fill:white;"/>
            </g>
            <g transform="matrix(4.16667,0,0,4.16667,-460.913,-611.864)">
                <path d="M225.546,399.601L225.546,399.453L220.179,399.453L220.179,394.235L225.398,394.235L225.398,399.601L225.546,399.601L225.546,399.453L225.546,399.601L225.694,399.601L225.694,394.086L225.651,393.982L225.546,393.938L220.031,393.938L219.926,393.982L219.883,394.086L219.883,399.601L219.926,399.706L220.031,399.749L225.546,399.749L225.651,399.706L225.694,399.601L225.546,399.601" style="fill:rgb(3,4,4);fill-rule:nonzero;"/>
            </g>
        </g>
        <g transform="matrix(4.16667,0,0,4.16667,-574.538,-1542.17)">
            <path d="M140.459,423.417L139.075,423.417L139.075,375.784L140.459,375.784L140.459,374.598L137.889,374.598L137.889,424.603L140.459,424.603L140.459,423.417" style="fill:rgb(3,4,4);fill-rule:nonzero;"/>
        </g>
        <g transform="matrix(4.16667,0,0,4.16667,-574.538,-1542.17)">
            <path d="M244.831,424.603L247.4,424.603L247.4,374.598L244.831,374.598L244.831,375.784L246.214,375.784L246.214,423.417L244.831,423.417L244.831,424.603" style="fill:rgb(3,4,4);fill-rule:nonzero;"/>
        </g>
        <g transform="matrix(4.16667,0,0,4.16667,-574.538,-1703.22)">
            <rect x="149.086" y="416.318" width="5.217" height="5.218" style="fill:rgb(182,193,227);"/>
        </g>
        <g transform="matrix(4.16667,0,0,4.16667,-574.538,-1703.84)">
            <path d="M154.452,421.684L149.086,421.684L154.303,421.684L154.303,416.466L149.086,416.466L149.086,416.318L154.452,416.318L154.452,421.684" style="fill:rgb(35,43,98);fill-rule:nonzero;"/>
        </g>
        <g transform="matrix(4.16667,0,0,4.16667,-574.538,-1680.86)">
            <path d="M154.452,416.318L149.08,416.318L149.086,416.305L149.086,416.17L154.452,416.17L154.452,416.318" style="fill:rgb(22,26,75);fill-rule:nonzero;"/>
        </g>
        <g transform="matrix(4.16667,0,0,4.16667,-574.538,-1703.22)">
            <path d="M149.08,421.684L148.937,421.684L148.937,416.17L149.086,416.17L149.086,421.671L149.08,421.684M148.938,421.671L148.938,421.522L148.938,421.671" style="fill:rgb(22,26,75);fill-rule:nonzero;"/>
        </g>
        <g transform="matrix(4.16667,0,0,4.16667,-574.538,-1703.22)">
            <path d="M154.452,421.684L154.452,421.536L149.086,421.536L149.086,416.318L154.303,416.318L154.303,421.684L154.452,421.684L154.452,421.536L154.452,421.684L154.6,421.684L154.6,416.17L154.556,416.066L154.452,416.022L148.937,416.022L148.832,416.066L148.789,416.17L148.789,421.684L148.832,421.789L148.937,421.832L154.452,421.832L154.556,421.789L154.6,421.684L154.452,421.684" style="fill:rgb(60,90,168);fill-rule:nonzero;"/>
        </g>
        <g transform="matrix(4.16667,0,0,4.16667,-574.538,-1656.78)">
            <rect x="160.114" y="410.777" width="5.217" height="5.154" style="fill:rgb(182,193,227);"/>
        </g>
        <g transform="matrix(4.16667,0,0,4.16667,-574.538,-1635.04)">
            <rect x="160.114" y="410.714" width="5.217" height="0.063" style="fill:rgb(22,26,75);"/>
        </g>
        <g transform="matrix(4.16667,0,0,4.16667,-574.538,-1656.51)">
            <path d="M165.48,416.079L165.48,415.93L160.114,415.93L160.114,410.713L165.332,410.713L165.332,416.079L165.48,416.079L165.48,415.93L165.48,416.079L165.628,416.079L165.628,410.565L165.585,410.46L165.48,410.417L159.966,410.417L159.861,410.46L159.818,410.565L159.818,416.079L159.861,416.183L159.966,416.227L165.48,416.227L165.585,416.183L165.628,416.079L165.48,416.079" style="fill:rgb(60,90,168);fill-rule:nonzero;"/>
        </g>
        <g transform="matrix(4.16667,0,0,4.16667,-574.538,-1610.99)">
            <rect x="165.629" y="405.302" width="5.217" height="5.115" style="fill:rgb(182,193,227);"/>
        </g>
        <g transform="matrix(4.16667,0,0,4.16667,-574.538,-1610.56)">
            <path d="M170.995,410.565L170.995,410.417L165.629,410.417L165.629,405.2L170.846,405.2L170.846,410.565L170.995,410.565L170.995,410.417L170.995,410.565L171.143,410.565L171.143,405.052L171.1,404.947L170.995,404.903L165.481,404.903L165.376,404.947L165.333,405.052L165.333,410.565L165.376,410.67L165.481,410.713L170.995,410.713L171.1,410.67L171.143,410.565L170.995,410.565" style="fill:rgb(60,90,168);fill-rule:nonzero;"/>
        </g>
        <g transform="matrix(4.16667,0,0,4.16667,-574.538,-1565.14)">
            <rect x="165.629" y="399.812" width="5.216" height="5.091" style="fill:rgb(182,193,227);"/>
        </g>
        <g transform="matrix(4.16667,0,0,4.16667,-574.538,-1565.14)">
            <rect x="170.846" y="399.812" width="0.001" height="5.091" style="fill:rgb(35,43,98);"/>
        </g>
        <g transform="matrix(-4.16667,0,0,4.16667,827.442,-1586.78)">
            <path d="M165.629,405.005L170.846,405.005L170.846,404.903L165.629,404.903L165.629,405.005" style="fill:rgb(60,90,168);fill-rule:nonzero;"/>
        </g>
        <g transform="matrix(4.16667,0,0,4.16667,-574.538,-1565.47)">
            <path d="M170.995,405.154L170.995,405.005L165.629,405.005L165.629,399.788L170.846,399.788L170.846,405.154L170.995,405.154L170.995,405.005L170.995,405.154L171.143,405.154L171.143,399.639L171.1,399.535L170.995,399.491L165.481,399.491L165.376,399.535L165.333,399.639L165.333,405.154L165.376,405.258L165.481,405.302L170.995,405.302L171.1,405.258L171.143,405.154L170.995,405.154" style="fill:rgb(60,90,168);fill-rule:nonzero;"/>
        </g>
        <g transform="matrix(4.16667,0,0,4.16667,-574.538,-1519.46)">
            <rect x="165.629" y="394.298" width="5.217" height="5.155" style="fill:rgb(182,193,227);"/>
        </g>
        <g transform="matrix(4.16667,0,0,4.16667,-574.538,-1541.1)">
            <rect x="165.629" y="399.453" width="5.217" height="0.038" style="fill:rgb(22,26,75);"/>
        </g>
        <g transform="matrix(4.16667,0,0,4.16667,-574.538,-1541.36)">
            <rect x="165.629" y="399.491" width="5.217" height="0.025" style="fill:rgb(60,90,168);"/>
        </g>
        <g transform="matrix(4.16667,0,0,4.16667,-574.538,-1519.72)">
            <path d="M170.995,399.664L170.995,399.516L165.629,399.516L165.629,394.298L170.846,394.298L170.846,399.664L170.995,399.664L170.995,399.516L170.995,399.664L171.143,399.664L171.143,394.15L171.1,394.046L170.995,394.002L165.481,394.002L165.376,394.046L165.333,394.15L165.333,399.664L165.376,399.769L165.481,399.812L170.995,399.812L171.1,399.769L171.143,399.664L170.995,399.664" style="fill:rgb(60,90,168);fill-rule:nonzero;"/>
        </g>
        <g transform="matrix(4.16667,0,0,4.16667,-574.538,-1474.19)">
            <rect x="171.143" y="388.961" width="5.217" height="4.963" style="fill:rgb(182,193,227);"/>
        </g>
        <g transform="matrix(4.16667,0,0,4.16667,-574.538,-1495.93)">
            <path d="M176.36,394.179L171.143,394.179L171.143,393.925L176.36,393.925L176.36,394.179" style="fill:rgb(22,26,75);fill-rule:nonzero;"/>
        </g>
        <g transform="matrix(4.16667,0,0,4.16667,-574.538,-1475.25)">
            <path d="M176.508,394.327L176.508,394.179L171.143,394.179L171.143,388.961L176.36,388.961L176.36,394.327L176.508,394.327L176.508,394.179L176.508,394.327L176.657,394.327L176.657,388.813L176.613,388.708L176.508,388.665L170.995,388.665L170.89,388.708L170.846,388.813L170.846,394.327L170.89,394.432L170.995,394.475L176.508,394.475L176.613,394.432L176.657,394.327L176.508,394.327" style="fill:rgb(60,90,168);fill-rule:nonzero;"/>
        </g>
        <g transform="matrix(4.16667,0,0,4.16667,-574.538,-1427.43)">
            <rect x="176.657" y="383.268" width="5.12" height="5.129" style="fill:rgb(182,193,227);"/>
        </g>
        <g transform="matrix(4.16667,0,0,4.16667,-574.538,-1449.17)">
            <rect x="176.657" y="388.396" width="5.12" height="0.089" style="fill:rgb(35,43,98);"/>
        </g>
        <g transform="matrix(4.16667,0,0,4.16667,-574.538,-1427.8)">
            <path d="M176.657,388.486L176.559,388.486L176.559,383.323L176.614,383.3L176.627,383.268L176.657,383.268L176.657,388.486" style="fill:rgb(35,43,98);fill-rule:nonzero;"/>
        </g>
        <g transform="matrix(0,-4.16667,-4.16667,0,1779.84,905.064)">
            <path d="M176.565,388.493L176.621,388.493L176.621,388.425L176.589,388.438L176.565,388.493" style="fill:rgb(22,26,75);fill-rule:nonzero;"/>
        </g>
        <g transform="matrix(4.16667,0,0,4.16667,-574.538,-1427.8)">
            <path d="M181.925,388.633L181.925,388.485L176.559,388.485L176.559,383.267L181.777,383.267L181.777,388.633L181.925,388.633L181.925,388.485L181.925,388.633L182.073,388.633L182.073,383.119L182.03,383.014L181.925,382.971L176.411,382.971L176.306,383.014L176.263,383.119L176.263,388.633L176.306,388.738L176.411,388.782L181.925,388.782L182.03,388.738L182.073,388.633L181.925,388.633" style="fill:rgb(60,90,168);fill-rule:nonzero;"/>
        </g>
        <g transform="matrix(4.16667,0,0,4.16667,-574.538,-1381)">
            <rect x="182.172" y="377.651" width="5.217" height="5.218" style="fill:rgb(182,193,227);"/>
        </g>
        <g transform="matrix(4.16667,0,0,4.16667,-574.538,-1380.99)">
            <path d="M187.538,383.017L182.024,383.017L182.024,377.507L182.03,377.504L182.03,377.502L187.538,377.502L187.538,383.017M187.538,383.017L187.538,382.868L187.538,383.017M182.172,377.65L182.172,382.868L187.389,382.868L187.389,377.65L182.172,377.65" style="fill:rgb(22,26,75);fill-rule:nonzero;"/>
        </g>
        <g transform="matrix(0,-4.16667,-4.16667,0,1779.8,950.389)">
            <path d="M182.024,383.018L182.029,383.018L182.029,383.012L182.027,383.012L182.024,383.018" style="fill:rgb(60,90,168);fill-rule:nonzero;"/>
        </g>
        <g transform="matrix(4.16667,0,0,4.16667,-574.538,-1380.99)">
            <path d="M187.538,383.017L187.538,382.869L182.172,382.869L182.172,377.651L187.389,377.651L187.389,383.017L187.538,383.017L187.538,382.869L187.538,383.017L187.686,383.017L187.686,377.502L187.642,377.398L187.538,377.354L182.024,377.354L181.919,377.398L181.875,377.502L181.875,383.017L181.919,383.122L182.024,383.165L187.538,383.165L187.642,383.122L187.686,383.017L187.538,383.017" style="fill:rgb(60,90,168);fill-rule:nonzero;"/>
        </g>
        <g transform="matrix(4.16667,0,0,4.16667,214.019,109.347)">
            <g>
                <path d="M6.644,3.243C6.644,1.53 5.263,0.167 3.577,0.167C1.873,0.167 0.511,1.557 0.511,3.234C0.511,4.947 1.891,6.309 3.577,6.309C5.281,6.309 6.644,4.92 6.644,3.243ZM3.577,6.058C1.999,6.058 0.762,4.785 0.762,3.243C0.762,1.665 2.026,0.418 3.577,0.418C5.155,0.418 6.393,1.692 6.393,3.234C6.393,4.812 5.128,6.058 3.577,6.058ZM4.205,3.243C4.205,2.875 3.9,2.606 3.577,2.606C3.227,2.606 2.949,2.902 2.949,3.234C2.949,3.602 3.254,3.871 3.577,3.871C3.927,3.871 4.205,3.575 4.205,3.243Z" style="fill:rgb(35,31,32);fill-rule:nonzero;"/>
            </g>
        </g>
        <g transform="matrix(1.23667,0,0,1.23667,430.937,36.384)">
            <g transform="matrix(24,0,0,24,56.555,78.3207)">
                <path d="M0.456,-0.001L0.451,0.004C0.405,0.001 0.349,-0 0.284,-0C0.22,-0 0.152,0.001 0.081,0.004L0.076,-0.001L0.076,-0.031L0.082,-0.036C0.098,-0.038 0.114,-0.039 0.13,-0.041C0.158,-0.043 0.176,-0.046 0.184,-0.049C0.189,-0.051 0.194,-0.057 0.198,-0.067C0.204,-0.082 0.207,-0.144 0.207,-0.252L0.207,-0.374C0.207,-0.41 0.206,-0.457 0.205,-0.513L0.204,-0.549C0.204,-0.566 0.201,-0.574 0.194,-0.574C0.191,-0.574 0.181,-0.57 0.165,-0.563C0.12,-0.542 0.082,-0.524 0.05,-0.508L0.044,-0.512C0.042,-0.53 0.039,-0.551 0.034,-0.574L0.035,-0.578C0.125,-0.603 0.225,-0.637 0.336,-0.68L0.346,-0.672C0.345,-0.653 0.343,-0.625 0.341,-0.587C0.34,-0.573 0.339,-0.534 0.338,-0.472L0.336,-0.28C0.336,-0.142 0.339,-0.069 0.343,-0.059C0.347,-0.051 0.351,-0.047 0.358,-0.045C0.37,-0.042 0.4,-0.039 0.45,-0.036L0.456,-0.031L0.456,-0.001Z" style="fill:rgb(35,31,32);fill-rule:nonzero;"/>
            </g>
        </g>
        <g transform="matrix(2.65028,0,0,2.65028,473.214,121.47)">
            <path d="M1.129,-0.694C1.667,-0.694 2.339,-0.254 2.339,0.544C2.339,1.117 1.828,1.727 1.129,1.727C0.456,1.727 -0.082,1.189 -0.082,0.579C-0.082,-0.003 0.304,-0.694 1.129,-0.694Z" style="fill:rgb(35,31,32);fill-rule:nonzero;"/>
        </g>
        <g transform="matrix(1.23667,0,0,1.23667,264.248,-72.5484)">
            <g transform="matrix(24,0,0,24,56.555,78.3207)">
                <path d="M0.647,-0.686C0.643,-0.662 0.641,-0.637 0.641,-0.611L0.64,-0.53L0.635,-0.525L0.604,-0.525L0.599,-0.529C0.597,-0.571 0.595,-0.595 0.593,-0.603C0.589,-0.616 0.579,-0.623 0.562,-0.625C0.556,-0.626 0.525,-0.627 0.47,-0.627L0.405,-0.627C0.404,-0.616 0.404,-0.57 0.404,-0.491L0.404,-0.214C0.404,-0.136 0.406,-0.086 0.41,-0.063C0.412,-0.053 0.417,-0.047 0.427,-0.044C0.432,-0.043 0.451,-0.042 0.484,-0.04L0.489,-0.035L0.489,-0.002L0.484,0.003C0.452,0.001 0.402,-0 0.333,-0C0.264,-0 0.214,0.001 0.183,0.003L0.179,-0.001L0.179,-0.035L0.184,-0.04C0.217,-0.042 0.236,-0.043 0.241,-0.044C0.25,-0.047 0.256,-0.053 0.257,-0.063C0.262,-0.086 0.264,-0.136 0.264,-0.214L0.264,-0.491C0.264,-0.572 0.263,-0.617 0.262,-0.627L0.192,-0.627C0.134,-0.627 0.1,-0.625 0.09,-0.622C0.085,-0.62 0.082,-0.617 0.08,-0.614C0.077,-0.609 0.074,-0.599 0.072,-0.583C0.07,-0.566 0.069,-0.548 0.068,-0.53L0.063,-0.525L0.032,-0.525L0.027,-0.53L0.026,-0.613C0.026,-0.637 0.024,-0.661 0.02,-0.686L0.024,-0.691C0.044,-0.688 0.114,-0.686 0.234,-0.686L0.432,-0.686C0.543,-0.686 0.613,-0.688 0.642,-0.691L0.647,-0.686Z" style="fill:rgb(35,31,32);fill-rule:nonzero;"/>
            </g>
        </g>
        <g transform="matrix(2.93439,0,0,2.93439,99.877,3.55659)">
            <path d="M6.931,0.827L7.899,0.827L7.899,0.387L0.376,0.387L0.376,0.827L1.344,0.827L1.344,6.045L0.376,6.045L0.376,6.484C0.69,6.458 1.622,6.458 1.99,6.458C2.358,6.458 3.299,6.458 3.613,6.484L3.613,6.045L2.645,6.045L2.645,0.827L5.63,0.827L5.63,6.045L4.662,6.045L4.662,6.484C4.976,6.458 5.908,6.458 6.276,6.458C6.644,6.458 7.585,6.458 7.899,6.484L7.899,6.045L6.931,6.045L6.931,0.827Z" style="fill:rgb(35,31,32);fill-rule:nonzero;"/>
        </g>
    </g>
</svg>
