<?xml version="1.0" encoding="UTF-8" standalone="no"?>
<!DOCTYPE svg PUBLIC "-//W3C//DTD SVG 1.1//EN" "http://www.w3.org/Graphics/SVG/1.1/DTD/svg11.dtd">
<svg width="100%" height="100%" viewBox="0 0 792 544" version="1.1" xmlns="http://www.w3.org/2000/svg" xmlns:xlink="http://www.w3.org/1999/xlink" xml:space="preserve" xmlns:serif="http://www.serif.com/" style="fill-rule:evenodd;clip-rule:evenodd;stroke-linecap:round;stroke-linejoin:round;stroke-miterlimit:1.5;">
    <path d="M331.387,13.269c-0,-0 -616.532,236.83 -0,519.959" style="fill:none;stroke:black;stroke-width:4.12px;"/>
    <path d="M112.926,152.475c-0,0 74.815,135.773 -0,242.041" style="fill:none;stroke:black;stroke-width:1px;"/>
    <path d="M221.689,68.225c0,-0 173.743,225.222 -6.293,403.514" style="fill:none;stroke:black;stroke-width:1px;"/>
    <path d="M318.74,18.525c0,0 185.394,332.542 5.358,510.834" style="fill:none;stroke:black;stroke-width:1px;"/>
    <path d="M331.387,13.269l22.963,-9.014" style="fill:none;stroke:black;stroke-width:1px;stroke-dasharray:1,4,0,0;"/>
    <path d="M331.387,533.228l26.293,10.079" style="fill:none;stroke:black;stroke-width:1px;stroke-dasharray:1,4,0,0;"/>
    <circle cx="302.876" cy="116.508" r="5.8" style="fill:rgb(0,174,239);"/>
    <circle cx="523.072" cy="466.51" r="5.8" style="fill:rgb(0,174,239);"/>
    <circle cx="523.072" cy="518.256" r="5.8" style="fill:rgb(237,28,36);"/>
    <path d="M499.598,355.981l58.547,-0" style="fill:none;stroke:rgb(35,31,32);stroke-width:4.17px;"/>
    <path d="M499.598,418.02l58.547,0" style="fill:none;stroke:rgb(35,31,32);stroke-width:0.83px;"/>
    <g>
        <path d="M779.671,350.377l3.362,-0c0.746,-0 1.121,-0 1.121,-0.671c-0,-0.488 -0.375,-0.488 -1.083,-0.488l-3.175,0c0.408,-2.241 0.933,-5.304 1.416,-7.321c0.338,-1.458 1.234,-1.983 1.984,-1.983c0.22,0 1.083,0.075 1.716,0.525c-0.746,0.15 -1.829,0.821 -1.829,2.054c0,0.934 0.708,1.346 1.417,1.346c1.012,0 2.058,-0.821 2.058,-2.242c0,-1.683 -1.646,-2.616 -3.4,-2.616c-1.683,-0 -3.362,1.196 -4.15,2.729c-0.821,1.604 -1.083,3.062 -1.867,7.508l-2.687,0c-0.713,0 -1.158,0 -1.158,0.671c-0,0.488 0.408,0.488 1.083,0.488l2.537,-0c-1.045,5.416 -2.354,12.887 -3.175,16.775c-0.445,2.054 -1.045,4.891 -2.837,4.891c-0.563,0 -1.308,-0.221 -1.683,-0.521c0.933,-0.15 1.87,-0.933 1.87,-2.054c0,-0.933 -0.712,-1.346 -1.42,-1.346c-1.009,0 -2.055,0.821 -2.055,2.242c0,1.717 1.717,2.617 3.288,2.617c3.808,-0 5.567,-6.204 6.162,-9.417l2.505,-13.187Z" style="fill:rgb(35,31,32);fill-rule:nonzero;"/>
        <path d="M575.933,340.354l0.146,-0.128c2.112,0.097 3.553,0.146 4.322,0.146l8.569,-0.183c2.441,0 4.443,0.229 6.006,0.687c1.562,0.458 2.951,1.251 4.166,2.38c1.214,1.129 2.136,2.442 2.764,3.937c0.629,1.495 0.943,3.091 0.943,4.788c0,1.648 -0.286,3.278 -0.86,4.889c-0.574,1.611 -1.389,3.055 -2.445,4.331c-1.056,1.275 -2.258,2.304 -3.607,3.085c-1.349,0.781 -2.701,1.303 -4.056,1.565c-1.355,0.263 -2.74,0.394 -4.156,0.394c-0.952,0 -2.747,-0.037 -5.383,-0.11c-0.867,-0.024 -1.441,-0.036 -1.722,-0.036c-0.842,-0 -1.861,0.048 -3.057,0.146l-0.147,-0.146l0,-0.605l0.147,-0.183c0.72,-0.366 1.132,-0.595 1.236,-0.686c0.103,-0.092 0.189,-1.16 0.256,-3.205c0.067,-2.044 0.101,-3.604 0.101,-4.678l-0,-6.72l-0.019,-4.157c0,-0.903 -0.012,-1.638 -0.036,-2.206c-0.025,-0.568 -0.067,-0.973 -0.129,-1.218c-0.061,-0.244 -0.131,-0.415 -0.21,-0.512c-0.079,-0.098 -0.208,-0.18 -0.385,-0.248c-0.177,-0.067 -0.479,-0.125 -0.906,-0.173l-1.392,-0.11l-0.146,-0.128l-0,-0.916Zm6.775,23.895c1.245,0.244 2.679,0.366 4.303,0.366c2.844,0 5.118,-0.476 6.821,-1.428c1.702,-0.952 2.975,-2.362 3.817,-4.23c0.843,-1.867 1.264,-3.973 1.264,-6.317c-0,-3.454 -0.922,-6.134 -2.765,-8.038c-1.843,-1.904 -4.749,-2.856 -8.716,-2.856c-1.636,-0 -3.21,0.122 -4.724,0.366c-0.098,2.002 -0.147,4.26 -0.147,6.775l0,5.749l0.037,5.384c-0,1.049 0.037,2.459 0.11,4.229Z" style="fill-rule:nonzero;"/>
        <path d="M605.651,357.712c-0,-1.452 0.299,-2.853 0.897,-4.202c0.598,-1.349 1.639,-2.515 3.122,-3.497c1.483,-0.983 3.244,-1.474 5.283,-1.474c2.563,-0 4.651,0.809 6.262,2.426c1.611,1.617 2.417,3.696 2.417,6.235c-0,2.795 -0.925,5.096 -2.774,6.903c-1.849,1.806 -4.08,2.71 -6.693,2.71c-1.709,-0 -3.234,-0.461 -4.577,-1.383c-1.343,-0.921 -2.335,-2.047 -2.976,-3.378c-0.641,-1.331 -0.961,-2.777 -0.961,-4.34Zm3.461,-1.263c-0,1.709 0.219,3.238 0.659,4.587c0.439,1.349 1.135,2.432 2.087,3.25c0.952,0.818 2.039,1.227 3.26,1.227c1.44,-0 2.63,-0.571 3.57,-1.712c0.94,-1.142 1.41,-2.86 1.41,-5.155c-0,-2.6 -0.51,-4.73 -1.529,-6.39c-1.019,-1.66 -2.487,-2.49 -4.404,-2.49c-1.587,-0 -2.826,0.573 -3.717,1.721c-0.891,1.147 -1.336,2.801 -1.336,4.962Z" style="fill-rule:nonzero;"/>
        <path d="M631.615,348.649l0.348,0.238c-0.073,0.805 -0.122,1.77 -0.146,2.893l1.739,-1.593c0.489,-0.452 0.812,-0.742 0.971,-0.87c0.158,-0.128 0.531,-0.278 1.117,-0.449c0.586,-0.171 1.202,-0.256 1.849,-0.256c1.221,0 2.289,0.302 3.204,0.906c0.916,0.605 1.593,1.438 2.033,2.5c1.648,-1.563 2.609,-2.429 2.884,-2.6c0.274,-0.171 0.711,-0.345 1.309,-0.522c0.598,-0.177 1.196,-0.266 1.794,-0.266c0.965,0 1.85,0.208 2.655,0.623c0.806,0.415 1.447,0.958 1.923,1.63c0.476,0.671 0.754,1.397 0.833,2.179c0.079,0.781 0.119,1.855 0.119,3.222l0,1.923c0,0.207 0.037,1.727 0.11,4.559c0.024,1.16 0.153,1.849 0.385,2.069c0.231,0.22 0.982,0.33 2.252,0.33l0.146,0.146l0,0.788l-0.146,0.146c-1.551,-0.098 -2.6,-0.146 -3.15,-0.146c-0.305,-0 -1.19,0.048 -2.655,0.146l-0.238,-0.201c0.159,-1.587 0.238,-3.656 0.238,-6.208l0,-2.197c0,-1.941 -0.091,-3.299 -0.274,-4.074c-0.183,-0.775 -0.611,-1.41 -1.282,-1.904c-0.671,-0.495 -1.471,-0.742 -2.399,-0.742c-0.659,0 -1.275,0.131 -1.849,0.394c-0.574,0.262 -1.09,0.653 -1.547,1.172c-0.458,0.519 -0.711,1.001 -0.76,1.446c-0.049,0.446 -0.074,1.267 -0.074,2.463l0,2.289c0,0.537 0.025,1.544 0.074,3.021c0.049,1.477 0.1,2.338 0.155,2.582c0.055,0.244 0.141,0.418 0.257,0.522c0.116,0.103 0.25,0.171 0.403,0.201c0.152,0.031 0.808,0.083 1.968,0.156l0.165,0.146l-0,0.769l-0.147,0.165c-1.526,-0.098 -2.997,-0.146 -4.413,-0.146c-1.306,-0 -2.771,0.048 -4.394,0.146l-0.165,-0.165l0,-0.769l0.165,-0.146c1.184,-0.073 1.852,-0.128 2.005,-0.165c0.152,-0.037 0.287,-0.113 0.403,-0.229c0.116,-0.116 0.195,-0.293 0.238,-0.531c0.042,-0.238 0.091,-1.025 0.146,-2.362c0.055,-1.337 0.083,-2.347 0.083,-3.03l-0,-2.088c-0,-1.379 -0.095,-2.441 -0.284,-3.186c-0.189,-0.744 -0.595,-1.373 -1.218,-1.886c-0.622,-0.512 -1.404,-0.769 -2.344,-0.769c-0.732,0 -1.4,0.144 -2.005,0.43c-0.604,0.287 -1.098,0.641 -1.483,1.062c-0.384,0.422 -0.622,0.815 -0.714,1.182c-0.091,0.366 -0.137,1.159 -0.137,2.38l-0,2.71c-0,0.537 0.024,1.544 0.073,3.021c0.049,1.477 0.101,2.338 0.156,2.582c0.055,0.244 0.14,0.418 0.256,0.522c0.116,0.103 0.25,0.171 0.403,0.201c0.152,0.031 0.809,0.083 1.968,0.156l0.165,0.146l0,0.769l-0.146,0.165c-1.526,-0.098 -2.997,-0.146 -4.413,-0.146c-1.404,-0 -2.869,0.048 -4.395,0.146l-0.165,-0.165l0,-0.769l0.165,-0.146c1.184,-0.073 1.853,-0.128 2.005,-0.165c0.153,-0.037 0.287,-0.113 0.403,-0.229c0.116,-0.116 0.195,-0.293 0.238,-0.531c0.043,-0.238 0.092,-1.025 0.147,-2.362c0.054,-1.337 0.082,-2.347 0.082,-3.03l-0,-3.608c-0,-0.488 -0.024,-1.153 -0.073,-1.995c-0.049,-0.843 -0.089,-1.361 -0.119,-1.557c-0.031,-0.195 -0.125,-0.339 -0.284,-0.43c-0.159,-0.092 -0.476,-0.137 -0.952,-0.137l-1.538,-0.019l-0.165,-0.146l-0,-0.788l0.146,-0.146c2.332,-0.281 4.297,-0.739 5.896,-1.373Z" style="fill-rule:nonzero;"/>
        <path d="M661.864,353.684l-0.714,-0.183l-0.146,-0.183l-0,-2.271c2.173,-1.611 4.284,-2.417 6.335,-2.417c1.404,0 2.57,0.263 3.498,0.788c0.927,0.525 1.599,1.181 2.014,1.968c0.415,0.787 0.622,1.706 0.622,2.756l-0.091,3.68l-0,5.457c-0,0.744 0.052,1.196 0.155,1.355c0.104,0.158 0.223,0.265 0.357,0.32c0.135,0.055 0.385,0.101 0.751,0.138l1.044,0.091l0.146,0.165l0,0.732l-0.146,0.147c-0.891,-0.073 -1.721,-0.11 -2.49,-0.11c-0.733,-0 -1.612,0.037 -2.637,0.11l-0.275,-0.257l0.073,-2.948l-3.991,3.113c-0.672,0.281 -1.404,0.421 -2.198,0.421c-0.976,0 -1.815,-0.177 -2.517,-0.531c-0.702,-0.354 -1.239,-0.848 -1.612,-1.483c-0.372,-0.635 -0.558,-1.404 -0.558,-2.307c-0,-1.794 0.561,-3.195 1.685,-4.202c1.123,-1.007 4.187,-1.865 9.191,-2.573c0,-1.806 -0.402,-3.079 -1.208,-3.818c-0.806,-0.738 -1.886,-1.107 -3.241,-1.107c-0.708,-0 -1.352,0.103 -1.932,0.311c-0.58,0.207 -0.912,0.375 -0.998,0.503c-0.085,0.129 -0.415,0.876 -0.988,2.244l-0.129,0.091Zm8.496,2.893c-3.418,0.574 -5.548,1.19 -6.39,1.849c-0.842,0.66 -1.263,1.679 -1.263,3.058c-0,1.905 0.946,2.857 2.838,2.857c1.623,-0 3.229,-0.94 4.815,-2.82l0,-4.944Z" style="fill-rule:nonzero;"/>
        <path d="M682.006,340.464c0.574,-0 1.062,0.201 1.465,0.604c0.403,0.403 0.604,0.891 0.604,1.465c0,0.561 -0.201,1.044 -0.604,1.446c-0.403,0.403 -0.891,0.605 -1.465,0.605c-0.562,-0 -1.047,-0.199 -1.456,-0.595c-0.409,-0.397 -0.613,-0.882 -0.613,-1.456c-0,-0.574 0.204,-1.062 0.613,-1.465c0.409,-0.403 0.894,-0.604 1.456,-0.604Zm1.556,8.185l0.348,0.238c-0.134,1.599 -0.201,3.631 -0.201,6.097l-0,4.138c-0,0.269 0.024,1.132 0.073,2.591c0.049,1.459 0.101,2.31 0.156,2.555c0.055,0.244 0.137,0.421 0.247,0.531c0.11,0.109 0.244,0.18 0.403,0.21c0.158,0.031 0.818,0.083 1.977,0.156l0.165,0.146l0,0.769l-0.146,0.165c-1.526,-0.098 -2.997,-0.146 -4.413,-0.146c-1.404,-0 -2.869,0.048 -4.395,0.146l-0.165,-0.165l0,-0.769l0.165,-0.146c1.184,-0.073 1.853,-0.128 2.005,-0.165c0.153,-0.037 0.287,-0.113 0.403,-0.229c0.116,-0.116 0.195,-0.293 0.238,-0.531c0.043,-0.238 0.092,-1.025 0.147,-2.362c0.054,-1.337 0.082,-2.347 0.082,-3.03l-0,-3.608c-0,-0.488 -0.024,-1.153 -0.073,-1.995c-0.049,-0.843 -0.089,-1.361 -0.119,-1.557c-0.031,-0.195 -0.125,-0.339 -0.284,-0.43c-0.159,-0.092 -0.476,-0.137 -0.952,-0.137l-1.538,-0.019l-0.165,-0.146l-0,-0.788l0.146,-0.146c2.332,-0.281 4.297,-0.739 5.896,-1.373Z" style="fill-rule:nonzero;"/>
        <path d="M693.908,348.649l0.348,0.238c-0.074,0.818 -0.122,1.892 -0.147,3.222c0.977,-0.805 1.905,-1.623 2.783,-2.453c0.257,-0.232 0.498,-0.403 0.724,-0.513c0.226,-0.11 0.601,-0.226 1.126,-0.348c0.525,-0.122 1.062,-0.183 1.611,-0.183c0.928,0 1.828,0.189 2.701,0.568c0.873,0.378 1.532,0.827 1.977,1.345c0.446,0.519 0.754,1.133 0.925,1.841c0.171,0.708 0.256,1.581 0.256,2.618l0,3.223c0,0.207 0.031,1.727 0.092,4.559c0.024,1.16 0.153,1.849 0.385,2.069c0.231,0.22 0.988,0.33 2.27,0.33l0.147,0.146l-0,0.788l-0.147,0.146c-1.55,-0.098 -2.6,-0.146 -3.149,-0.146c-0.318,-0 -1.209,0.048 -2.674,0.146l-0.219,-0.201c0.158,-1.587 0.238,-3.656 0.238,-6.208l-0,-2.398c-0,-1.441 -0.034,-2.478 -0.101,-3.113c-0.067,-0.635 -0.272,-1.212 -0.613,-1.73c-0.342,-0.519 -0.8,-0.922 -1.374,-1.209c-0.574,-0.287 -1.257,-0.43 -2.051,-0.43c-0.634,-0 -1.178,0.064 -1.629,0.192c-0.452,0.128 -0.958,0.391 -1.52,0.787c-0.561,0.397 -0.977,0.769 -1.245,1.117c-0.269,0.348 -0.43,0.672 -0.485,0.971c-0.055,0.299 -0.083,0.937 -0.083,1.913l0,3.186c0,0.269 0.025,1.132 0.074,2.591c0.048,1.459 0.1,2.31 0.155,2.555c0.055,0.244 0.137,0.421 0.247,0.531c0.11,0.109 0.244,0.18 0.403,0.21c0.159,0.031 0.818,0.083 1.978,0.156l0.165,0.146l-0,0.769l-0.147,0.165c-1.526,-0.098 -2.997,-0.146 -4.413,-0.146c-1.404,-0 -2.868,0.048 -4.394,0.146l-0.165,-0.165l-0,-0.769l0.165,-0.146c1.184,-0.073 1.852,-0.128 2.005,-0.165c0.152,-0.037 0.287,-0.113 0.402,-0.229c0.116,-0.116 0.196,-0.293 0.239,-0.531c0.042,-0.238 0.091,-1.025 0.146,-2.362c0.055,-1.337 0.082,-2.347 0.082,-3.03l0,-3.608c0,-0.488 -0.024,-1.153 -0.073,-1.995c-0.049,-0.843 -0.088,-1.361 -0.119,-1.557c-0.03,-0.195 -0.125,-0.339 -0.284,-0.43c-0.158,-0.092 -0.476,-0.137 -0.952,-0.137l-1.538,-0.019l-0.165,-0.146l0,-0.788l0.147,-0.146c2.331,-0.281 4.297,-0.739 5.896,-1.373Z" style="fill-rule:nonzero;"/>
        <path d="M720.092,357.712c-0,-1.452 0.299,-2.853 0.897,-4.202c0.598,-1.349 1.639,-2.515 3.122,-3.497c1.483,-0.983 3.244,-1.474 5.283,-1.474c2.563,-0 4.651,0.809 6.262,2.426c1.611,1.617 2.417,3.696 2.417,6.235c-0,2.795 -0.925,5.096 -2.774,6.903c-1.85,1.806 -4.08,2.71 -6.693,2.71c-1.709,-0 -3.235,-0.461 -4.577,-1.383c-1.343,-0.921 -2.335,-2.047 -2.976,-3.378c-0.641,-1.331 -0.961,-2.777 -0.961,-4.34Zm3.461,-1.263c-0,1.709 0.219,3.238 0.659,4.587c0.439,1.349 1.135,2.432 2.087,3.25c0.952,0.818 2.039,1.227 3.259,1.227c1.441,-0 2.631,-0.571 3.571,-1.712c0.94,-1.142 1.41,-2.86 1.41,-5.155c-0,-2.6 -0.51,-4.73 -1.529,-6.39c-1.019,-1.66 -2.487,-2.49 -4.404,-2.49c-1.587,-0 -2.826,0.573 -3.717,1.721c-0.891,1.147 -1.336,2.801 -1.336,4.962Z" style="fill-rule:nonzero;"/>
        <path d="M749.865,365.165l0.146,0.146l0,0.769l-0.146,0.165c-0.379,0 -1.093,-0.024 -2.143,-0.073c-0.952,-0.049 -1.934,-0.073 -2.948,-0.073c-1.318,-0 -2.789,0.048 -4.412,0.146l-0.147,-0.165l0,-0.769l0.147,-0.146c1.184,-0.073 1.855,-0.128 2.014,-0.165c0.159,-0.037 0.293,-0.113 0.403,-0.229c0.11,-0.116 0.186,-0.293 0.229,-0.531c0.042,-0.238 0.091,-1.025 0.146,-2.362c0.055,-1.337 0.082,-2.347 0.082,-3.03l0,-7.068l-2.362,0.128l-0.164,-0.147l-0,-0.457l0.128,-0.183l2.398,-1.227l0,-1.099c0,-1.221 0.055,-2.145 0.165,-2.774c0.11,-0.629 0.315,-1.208 0.614,-1.739c0.299,-0.531 0.821,-1.203 1.565,-2.015c0.745,-0.811 1.398,-1.477 1.959,-1.995c0.562,-0.519 1.05,-0.867 1.465,-1.044c0.415,-0.177 0.904,-0.266 1.465,-0.266c0.464,0 0.964,0.092 1.502,0.275l-0.019,3.003l-0.421,0.165c-0.684,-0.611 -1.477,-0.916 -2.38,-0.916c-0.635,0 -1.184,0.131 -1.648,0.394c-0.464,0.262 -0.781,0.69 -0.952,1.282c-0.171,0.592 -0.257,1.571 -0.257,2.938l0,3.791l1.959,-0c1.014,-0 1.972,-0.037 2.875,-0.11l0.165,0.201l-0.33,1.612l-0.164,0.183c-0.367,-0.012 -0.605,-0.019 -0.714,-0.019l-2.381,-0.018l-1.41,0l0,7.379c0,0.391 0.028,1.285 0.083,2.683c0.055,1.397 0.106,2.218 0.155,2.463c0.049,0.244 0.132,0.421 0.247,0.531c0.116,0.109 0.306,0.189 0.568,0.238c0.263,0.048 1.102,0.091 2.518,0.128Z" style="fill-rule:nonzero;"/>
    </g>
    <g>
        <path d="M589.242,417.76c0.825,-0 1.008,-0 1.008,-0.783c0,-3.85 -2.091,-7.396 -6.871,-7.396c-4.483,-0 -7.995,3.883 -7.995,8.516c-0,4.896 3.92,8.63 8.479,8.63c4.558,-0 6.387,-3.996 6.387,-4.855c0,-0.262 -0.183,-0.487 -0.521,-0.487c-0.375,-0 -0.487,0.262 -0.525,0.412c-1.27,3.809 -4.595,3.884 -5.154,3.884c-1.791,-0 -3.325,-1.009 -4.183,-2.279c-1.233,-1.83 -1.271,-4.071 -1.271,-5.642l10.646,-0Zm-10.608,-0.896c0.337,-5.754 3.7,-6.35 4.745,-6.35c2.055,-0 4.296,1.567 4.334,6.35l-9.079,0Z" style="fill:rgb(35,31,32);fill-rule:nonzero;"/>
        <path d="M598.134,413.764c1.27,-2.167 3.325,-2.917 4.895,-2.917c2.913,0 5.155,3.363 5.155,7.4c-0,4.259 -2.538,7.546 -5.567,7.546c-1.679,0 -3.1,-0.971 -3.996,-2.279c-0.487,-0.746 -0.487,-0.821 -0.487,-1.533l-0,-8.217Zm-0,10.758c0.97,0.971 2.241,2.205 4.708,2.205c4.446,-0 8.554,-3.588 8.554,-8.48c0,-4.708 -3.658,-8.446 -8.067,-8.446c-2.02,0 -3.887,0.825 -5.308,2.355l0,-2.355l-5.529,0.413l-0,1.158c2.654,0 2.879,0.225 2.879,1.83l0,17.487c0,1.717 -0.412,1.717 -2.879,1.717l-0,1.158c1.758,-0.075 2.467,-0.113 4.262,-0.113c1.792,0 2.275,0.038 4.259,0.113l-0,-1.158c-2.467,-0 -2.879,-0 -2.879,-1.717l-0,-6.167Z" style="fill:rgb(35,31,32);fill-rule:nonzero;"/>
        <path d="M619.542,409.801l-5.379,0.413l-0,1.158c2.391,0 2.725,0.225 2.725,2.054l-0,10.013c-0,1.721 -0.409,1.721 -2.875,1.721l-0,1.158c1.679,-0.075 2.466,-0.112 4.108,-0.112c0.6,-0 2.167,-0 4,0.112l0,-1.158c-2.429,-0 -2.579,-0.188 -2.579,-1.646l-0,-13.713Zm0.112,-6.5c0,-1.12 -0.895,-2.016 -2.016,-2.016c-1.159,-0 -2.017,0.933 -2.017,2.016c0,1.084 0.858,2.017 2.017,2.017c1.121,0 2.016,-0.896 2.016,-2.017Z" style="fill:rgb(35,31,32);fill-rule:nonzero;"/>
        <path d="M629.892,426.077l2.717,-0c0.5,-0 0.845,-0 0.845,-0.621c0,-0.375 -0.32,-0.375 -0.77,-0.375l-2.542,-0l0.871,-3.438c0.1,-0.371 0.1,-0.521 0.1,-0.546c-0,-0.6 -0.471,-0.85 -0.871,-0.85c-0.3,0 -0.946,0.175 -1.171,0.975l-0.971,3.859l-2.687,-0c-0.525,-0 -0.55,0.025 -0.65,0.1c-0.125,0.1 -0.225,0.425 -0.225,0.55c0.075,0.346 0.3,0.346 0.8,0.346l2.512,-0l-1.466,5.879c-0.15,0.571 -0.35,1.42 -0.35,1.716c-0,1.446 1.295,2.392 2.812,2.392c2.867,0 4.558,-3.412 4.558,-3.833c0,-0.075 -0.05,-0.35 -0.47,-0.35c-0.325,-0 -0.375,0.125 -0.5,0.425c-0.846,1.866 -2.267,2.937 -3.488,2.937c-0.921,0 -0.946,-0.921 -0.946,-1.246c0,-0.35 0,-0.4 0.125,-0.871l1.767,-7.049Z" style="fill:rgb(35,31,32);fill-rule:nonzero;"/>
        <path d="M651.167,411.372l3.362,0c0.746,0 1.121,0 1.121,-0.671c0,-0.487 -0.375,-0.487 -1.083,-0.487l-3.175,-0c0.408,-2.242 0.933,-5.304 1.417,-7.321c0.337,-1.458 1.233,-1.983 1.983,-1.983c0.221,-0 1.083,0.075 1.717,0.525c-0.746,0.15 -1.83,0.821 -1.83,2.054c0,0.933 0.709,1.346 1.417,1.346c1.013,-0 2.058,-0.821 2.058,-2.242c0,-1.683 -1.645,-2.617 -3.4,-2.617c-1.683,0 -3.362,1.196 -4.15,2.73c-0.82,1.604 -1.083,3.062 -1.866,7.508l-2.688,-0c-0.712,-0 -1.158,-0 -1.158,0.671c-0,0.487 0.408,0.487 1.083,0.487l2.538,0c-1.046,5.417 -2.354,12.888 -3.175,16.775c-0.446,2.054 -1.046,4.892 -2.838,4.892c-0.562,-0 -1.308,-0.221 -1.683,-0.521c0.933,-0.15 1.871,-0.933 1.871,-2.054c-0,-0.933 -0.713,-1.346 -1.421,-1.346c-1.008,0 -2.054,0.821 -2.054,2.242c-0,1.716 1.716,2.616 3.287,2.616c3.809,0 5.567,-6.204 6.163,-9.416l2.504,-13.188Z" style="fill:rgb(35,31,32);fill-rule:nonzero;"/>
    </g>
    <circle cx="236.633" cy="149.034" r="5.8" style="fill:rgb(237,28,36);"/>
    <circle cx="185.242" cy="236.093" r="5.8" style="fill:rgb(237,28,36);"/>
    <circle cx="57.373" cy="273.248" r="5.8" style="fill:rgb(237,28,36);"/>
    <circle cx="79.49" cy="350.044" r="5.8" style="fill:rgb(237,28,36);"/>
    <circle cx="230.834" cy="361.644" r="5.8" style="fill:rgb(237,28,36);"/>
    <circle cx="291.277" cy="382.57" r="5.8" style="fill:rgb(0,174,239);"/>
    <circle cx="236.633" cy="225.145" r="5.8" style="fill:rgb(0,174,239);"/>
    <circle cx="63.172" cy="407.29" r="5.8" style="fill:rgb(0,174,239);"/>
    <circle cx="10.48" cy="273.248" r="5.8" style="fill:rgb(0,174,239);"/>
    <path d="M257.266,145.054l-12.346,-0.089l7.479,-9.824l4.867,9.913Z" style="fill:rgb(0,166,80);"/>
    <path d="M294.589,120.577c0,-0 -27.715,13.608 -41.739,20.494" style="fill:none;stroke:rgb(0,166,80);stroke-width:2.06px;"/>
    <path d="M205.617,237.398l-11.951,-3.1l9.65,-7.701l2.301,10.801Z" style="fill:rgb(0,166,80);"/>
    <path d="M228.21,226.939c-0,0 -15.672,3.339 -25.904,5.519" style="fill:none;stroke:rgb(0,166,80);stroke-width:2.06px;"/>
    <path d="M246.95,373.066l-8.629,-8.83l12.242,-1.605l-3.613,10.435Z" style="fill:rgb(0,166,80);"/>
    <path d="M283.789,379.978c0,0 -23.992,-8.307 -37.12,-12.852" style="fill:none;stroke:rgb(0,166,80);stroke-width:2.06px;"/>
    <path d="M68.733,367.642l8.337,-9.106l2.283,12.133l-10.62,-3.027Z" style="fill:rgb(0,166,80);"/>
    <path d="M65.593,398.799c-0,0 5.688,-19.954 9.055,-31.768" style="fill:none;stroke:rgb(0,166,80);stroke-width:2.06px;"/>
    <path d="M37.413,267.727l11.043,5.521l-11.043,5.522l0,-11.043Z" style="fill:rgb(0,166,80);"/>
    <path d="M19.397,273.248l20.225,0" style="fill:none;stroke:rgb(0,166,80);stroke-width:2.06px;"/>
    <path d="M594.748,460.739c0.262,-0.521 0.375,-0.783 2.725,-0.783l-0,-1.834c-1.046,0.113 -1.979,0.113 -3.025,0.113c-1.084,-0 -2.279,-0 -3.363,-0.113l0,1.834c1.046,-0 1.384,0.187 1.721,0.333c-0.037,0.15 -0.037,0.225 -0.225,0.525l-4.483,9.304l-4.896,-10.162l1.946,-0l-0,-1.834c-2.467,0.075 -3.217,0.113 -4.596,0.113c-1.346,-0 -2.092,-0 -4.296,-0.113l0,1.834l2.35,-0l6.688,13.896c0.337,0.712 0.637,1.045 1.57,1.045c0.934,0 1.234,-0.333 1.571,-1.045l6.313,-13.113Z" style="fill:rgb(35,31,32);fill-rule:nonzero;"/>
    <g>
        <path d="M581.021,512.422c1.271,-2.166 3.325,-2.916 4.896,-2.916c2.912,-0 5.154,3.362 5.154,7.4c0,4.258 -2.537,7.546 -5.567,7.546c-1.679,-0 -3.1,-0.971 -3.995,-2.28c-0.488,-0.745 -0.488,-0.821 -0.488,-1.533l0,-8.217Zm0,10.759c0.975,0.97 2.242,2.204 4.708,2.204c4.446,-0 8.555,-3.588 8.555,-8.479c-0,-4.709 -3.659,-8.446 -8.067,-8.446c-2.017,-0 -3.888,0.825 -5.304,2.354l-0,-2.354l-5.529,0.412l-0,1.159c2.65,-0 2.875,0.225 2.875,1.829l-0,17.487c-0,1.717 -0.413,1.717 -2.875,1.717l-0,1.158c1.754,-0.075 2.462,-0.112 4.258,-0.112c1.792,-0 2.279,0.037 4.258,0.112l0,-1.158c-2.466,0 -2.879,0 -2.879,-1.717l0,-6.166Z" style="fill:rgb(35,31,32);fill-rule:nonzero;"/>
        <path d="M602.204,516.418c0,-1.529 0.413,-7.021 4.671,-7.021l0,0.038c-0.075,0.033 -0.671,0.483 -0.671,1.379c0,1.008 0.784,1.646 1.642,1.646c0.788,-0 1.646,-0.563 1.646,-1.683c-0,-1.196 -1.121,-2.317 -2.804,-2.317c-2.242,-0 -3.809,1.571 -4.667,3.887l-0.037,0l-0,-3.887l-5.309,0.412l0,1.159c2.542,-0 2.879,0.262 2.879,2.091l0,9.975c0,1.721 -0.412,1.721 -2.879,1.721l0,1.158c1.984,-0.074 2.467,-0.112 4.371,-0.112c1.496,0 2.392,0.038 4.746,0.112l-0,-1.158l-0.746,0c-2.729,0 -2.842,-0.412 -2.842,-1.796l0,-5.604Z" style="fill:rgb(35,31,32);fill-rule:nonzero;"/>
        <path d="M628.659,517.018c-0,-4.896 -3.888,-8.779 -8.484,-8.779c-4.746,-0 -8.516,3.996 -8.516,8.779c-0,4.667 3.883,8.367 8.479,8.367c4.746,-0 8.521,-3.771 8.521,-8.367Zm-8.484,7.321c-1.866,0 -3.437,-0.933 -4.296,-2.392c-0.97,-1.566 -1.008,-3.55 -1.008,-5.266c0,-1.384 0,-3.513 0.933,-5.042c1.121,-1.908 2.988,-2.467 4.334,-2.467c2.129,0 3.662,1.196 4.408,2.467c0.858,1.567 0.896,3.471 0.896,5.042c-0,1.383 -0,3.55 -0.933,5.191c-1.046,1.721 -2.763,2.467 -4.334,2.467Z" style="fill:rgb(35,31,32);fill-rule:nonzero;"/>
        <path d="M640.134,516.568c-0.259,-0.337 -0.259,-0.375 -0.259,-0.412c0,-0.071 2.913,-3.621 3.213,-3.921c1.158,-1.271 2.425,-2.167 4.704,-2.204l-0,-1.159c-1.083,0.113 -2.092,0.113 -3.175,0.113c-1.417,-0 -2.092,-0 -3.583,-0.113l-0,1.159c0.558,0.075 1.045,0.375 1.045,1.12c0,0.596 -0.337,1.009 -0.525,1.234l-2.391,2.95l-2.913,-3.696c-0.262,-0.337 -0.337,-0.412 -0.337,-0.675c-0,-0.446 0.412,-0.896 1.271,-0.933l-0,-1.159c-1.421,0.075 -2.392,0.113 -4.071,0.113c-0.075,-0 -2.204,-0 -3.663,-0.113l0,1.159c2.579,-0 2.654,0.075 4.371,2.279l3.85,4.821c-0.825,0.97 -2.804,3.437 -3.625,4.371c-1.871,2.241 -4,2.316 -4.783,2.316l-0,1.158c1.083,-0.112 2.091,-0.112 3.175,-0.112c1.196,0 2.391,0.038 3.587,0.112l0,-1.158c-0.933,-0.112 -1.046,-0.75 -1.046,-1.121c0,-0.112 0,-0.637 0.559,-1.308c0.9,-1.158 1.871,-2.279 2.804,-3.4l2.95,3.771c0.712,0.825 0.712,0.9 0.712,1.121c0,0.412 -0.375,0.9 -1.27,0.937l-0,1.158c1.566,-0.074 2.466,-0.112 4.07,-0.112c0.075,0 2.205,0 3.663,0.112l-0,-1.158c-1.496,0 -2.617,0 -3.438,-1.046l-4.895,-6.204Z" style="fill:rgb(35,31,32);fill-rule:nonzero;"/>
        <path d="M659.684,524.735l2.541,-0c0.496,-0 0.846,-0 0.846,-0.621c0,-0.375 -0.325,-0.375 -0.775,-0.375l-2.437,-0c0.745,-4.083 0.745,-4.133 0.845,-4.583c0.125,-0.546 0.175,-0.771 0.546,-1.071c0.3,-0.225 0.525,-0.321 0.9,-0.321c0.396,0 0.796,0.046 1.146,0.221c-0.5,0.2 -0.95,0.75 -0.95,1.346c0,0.525 0.425,0.946 1.025,0.946c0.646,-0 1.417,-0.546 1.417,-1.517c-0,-1.371 -1.542,-1.821 -2.638,-1.821c-1.121,0 -2.816,0.525 -3.562,3.017c-0.2,0.62 -0.275,1.121 -0.45,2.016c-0.125,0.721 -0.175,1.046 -0.321,1.767l-2.046,-0c-0.496,-0 -0.846,-0 -0.846,0.625c0,0.371 0.325,0.371 0.771,0.371l1.946,-0c-0.971,5.579 -1.321,7.5 -1.421,7.946c-0.771,4.283 -0.896,4.533 -1.121,4.958c-0.35,0.596 -0.771,1.096 -1.396,1.096c-0.15,-0 -0.695,-0.05 -1.095,-0.225c0.5,-0.2 0.945,-0.746 0.945,-1.346c0,-0.521 -0.42,-0.946 -1.02,-0.946c-0.646,0 -1.417,0.546 -1.417,1.521c-0,1.392 1.567,1.817 2.562,1.817c1.371,-0 2.342,-1.121 2.792,-1.671c1.096,-1.467 1.617,-4.433 1.667,-4.654l1.546,-8.496Z" style="fill:rgb(35,31,32);fill-rule:nonzero;"/>
        <path d="M681.688,533.864c-0,-0.183 -0.113,-0.296 -0.338,-0.558c-4.816,-4.409 -6.275,-11.134 -6.275,-17.671c0,-5.792 1.121,-12.817 6.388,-17.821c0.15,-0.15 0.225,-0.262 0.225,-0.45c-0,-0.258 -0.188,-0.408 -0.45,-0.408c-0.446,-0 -3.809,2.687 -5.825,6.762c-1.796,3.584 -2.692,7.433 -2.692,11.879c0,2.692 0.338,6.95 2.392,11.359c2.204,4.595 5.679,7.321 6.125,7.321c0.262,-0 0.45,-0.15 0.45,-0.413Z" style="fill:rgb(35,31,32);fill-rule:nonzero;"/>
        <path d="M703.396,511.002c0.258,-0.521 0.371,-0.784 2.725,-0.784l0,-1.833c-1.046,0.112 -1.979,0.112 -3.025,0.112c-1.083,0 -2.279,0 -3.362,-0.112l-0,1.833c1.045,0 1.383,0.188 1.716,0.334c-0.037,0.149 -0.037,0.225 -0.225,0.524l-4.483,9.305l-4.892,-10.163l1.942,0l-0,-1.833c-2.467,0.075 -3.213,0.112 -4.596,0.112c-1.346,0 -2.092,0 -4.296,-0.112l0,1.833l2.354,0l6.688,13.896c0.337,0.713 0.633,1.046 1.571,1.046c0.933,-0 1.229,-0.333 1.566,-1.046l6.317,-13.112Z" style="fill:rgb(35,31,32);fill-rule:nonzero;"/>
        <path d="M718.8,515.597c0,-3.062 -0.45,-7.175 -2.391,-11.32c-2.205,-4.596 -5.68,-7.321 -6.125,-7.321c-0.375,-0 -0.45,0.296 -0.45,0.408c-0,0.188 0.075,0.3 0.337,0.563c2.167,1.941 6.275,7.024 6.275,17.67c0,5.342 -0.971,12.775 -6.387,17.821c-0.075,0.113 -0.225,0.263 -0.225,0.45c-0,0.108 0.075,0.409 0.45,0.409c0.445,-0 3.808,-2.688 5.829,-6.763c1.791,-3.587 2.687,-7.433 2.687,-11.917Z" style="fill:rgb(35,31,32);fill-rule:nonzero;"/>
    </g>
</svg>
