<?xml version="1.0" encoding="UTF-8" standalone="no"?>
<!DOCTYPE svg PUBLIC "-//W3C//DTD SVG 1.1//EN" "http://www.w3.org/Graphics/SVG/1.1/DTD/svg11.dtd">
<svg width="100%" height="100%" viewBox="0 0 1300 237" version="1.1" xmlns="http://www.w3.org/2000/svg" xmlns:xlink="http://www.w3.org/1999/xlink" xml:space="preserve" xmlns:serif="http://www.serif.com/" style="fill-rule:evenodd;clip-rule:evenodd;stroke-linejoin:round;stroke-miterlimit:2;">
    <path d="M75.826,98.798l0,90.463l804.004,-0l-0,-90.463l-804.004,-0Z" style="fill:rgb(0,174,239);"/>
    <path d="M75.826,46.959l0,51.839l63.02,-0l-0,-51.839l-63.02,0Z" style="fill:rgb(35,31,32);"/>
    <path d="M203.898,46.959l-0,51.839l138.235,-0l0,-51.839l-138.235,0Z" style="fill:rgb(35,31,32);"/>
    <path d="M363.479,46.959l-0,51.839l30.493,-0l-0,-51.839l-30.493,0Z" style="fill:rgb(35,31,32);"/>
    <path d="M427.514,46.959l0,51.839l30.494,-0l-0,-51.839l-30.494,0Z" style="fill:rgb(35,31,32);"/>
    <path d="M477.828,46.959l0,51.839l68.101,-0l0,-51.839l-68.101,0Z" style="fill:rgb(35,31,32);"/>
    <path d="M811.728,46.959l0,51.839l68.102,-0l-0,-51.839l-68.102,0Z" style="fill:rgb(35,31,32);"/>
    <path d="M625.212,46.959l-0,51.839l141.285,-0l-0,-51.839l-141.285,0Z" style="fill:rgb(35,31,32);"/>
    <path d="M933.686,144.397l0,0.549l-0.073,0.22l-0.897,0.531c-0.22,0.134 -0.348,0.238 -0.385,0.311c-0.036,0.073 -0.082,0.437 -0.137,1.09c-0.055,0.653 -0.082,1.449 -0.082,2.389c-0,1.062 0.067,2.216 0.201,3.461l-0.11,0.183c-3.344,1.282 -6.781,1.923 -10.309,1.923c-2.71,-0 -5.157,-0.513 -7.342,-1.538c-2.185,-1.026 -3.919,-2.546 -5.2,-4.56c-1.282,-2.014 -1.923,-4.407 -1.923,-7.178c0,-4.223 1.444,-7.58 4.331,-10.07c2.886,-2.491 6.655,-3.736 11.306,-3.736c3.418,0 6.488,0.58 9.21,1.74l0.129,0.201c-0.22,0.818 -0.476,2.533 -0.769,5.145l-0.147,0.129l-0.842,-0l-0.147,-0.147l-0.091,-1.941c-0.037,-0.635 -0.076,-1.007 -0.119,-1.117c-0.043,-0.11 -0.174,-0.253 -0.394,-0.43c-0.22,-0.177 -0.784,-0.458 -1.694,-0.842c-0.909,-0.385 -1.822,-0.666 -2.737,-0.843c-0.916,-0.177 -1.898,-0.265 -2.948,-0.265c-2.234,-0 -4.211,0.464 -5.933,1.392c-1.721,0.927 -3.018,2.279 -3.891,4.055c-0.872,1.776 -1.309,3.751 -1.309,5.924c0,2.246 0.47,4.336 1.41,6.271c0.94,1.935 2.289,3.446 4.047,4.532c1.758,1.086 3.802,1.63 6.134,1.63c1.013,-0 2.047,-0.101 3.103,-0.302c1.056,-0.202 1.926,-0.486 2.61,-0.852c0.109,-0.391 0.164,-1.178 0.164,-2.362l0,-2.032c0,-0.965 -0.061,-1.566 -0.183,-1.804c-0.122,-0.238 -0.424,-0.406 -0.906,-0.504c-0.482,-0.097 -1.523,-0.158 -3.122,-0.183l-0.165,-0.164l0,-0.806l0.165,-0.165l1.117,0.037c1.916,0.061 3.479,0.091 4.687,0.091c0.696,0 1.716,-0.036 3.058,-0.11l0.183,0.147Z" style="fill-rule:nonzero;"/>
    <path d="M941.725,127.258l0.348,0.22c-0.135,1.404 -0.202,4.217 -0.202,8.441l0,11.481c0,0.268 0.025,1.132 0.073,2.591c0.049,1.458 0.101,2.31 0.156,2.554c0.055,0.244 0.137,0.421 0.247,0.531c0.11,0.11 0.244,0.18 0.403,0.211c0.159,0.03 0.818,0.082 1.978,0.155l0.164,0.147l0,0.769l-0.146,0.165c-1.526,-0.098 -2.997,-0.147 -4.413,-0.147c-1.404,0 -2.869,0.049 -4.394,0.147l-0.165,-0.165l-0,-0.769l0.165,-0.147c1.184,-0.073 1.852,-0.128 2.005,-0.165c0.152,-0.036 0.286,-0.112 0.402,-0.228c0.116,-0.116 0.196,-0.293 0.238,-0.531c0.043,-0.238 0.092,-1.026 0.147,-2.362c0.055,-1.337 0.082,-2.347 0.082,-3.031l0,-9.485l-0.073,-3.882c-0.037,-1.355 -0.076,-2.294 -0.119,-2.819c-0.043,-0.525 -0.101,-0.837 -0.174,-0.934c-0.073,-0.098 -0.201,-0.171 -0.384,-0.22c-0.183,-0.049 -0.922,-0.073 -2.216,-0.073l-0.165,-0.165l0,-0.769l0.147,-0.165c2.331,-0.268 4.297,-0.72 5.896,-1.355Z" style="fill-rule:nonzero;"/>
    <path d="M949.672,141.962l-0.715,-0.184l-0.146,-0.183l-0,-2.27c2.173,-1.611 4.285,-2.417 6.335,-2.417c1.404,-0 2.57,0.262 3.498,0.787c0.927,0.525 1.599,1.181 2.014,1.969c0.415,0.787 0.622,1.706 0.622,2.755l-0.091,3.681l-0,5.456c-0,0.745 0.052,1.197 0.155,1.355c0.104,0.159 0.223,0.266 0.358,0.321c0.134,0.055 0.384,0.1 0.75,0.137l1.044,0.092l0.146,0.164l0,0.733l-0.146,0.146c-0.891,-0.073 -1.721,-0.11 -2.49,-0.11c-0.733,0 -1.612,0.037 -2.637,0.11l-0.275,-0.256l0.074,-2.948l-3.992,3.113c-0.671,0.28 -1.404,0.421 -2.197,0.421c-0.977,-0 -1.816,-0.177 -2.518,-0.531c-0.702,-0.354 -1.239,-0.849 -1.611,-1.483c-0.373,-0.635 -0.559,-1.404 -0.559,-2.307c0,-1.795 0.562,-3.196 1.685,-4.203c1.123,-1.007 4.187,-1.864 9.192,-2.572c-0,-1.807 -0.403,-3.08 -1.209,-3.818c-0.806,-0.739 -1.886,-1.108 -3.241,-1.108c-0.708,0 -1.352,0.104 -1.932,0.311c-0.579,0.208 -0.912,0.376 -0.998,0.504c-0.085,0.128 -0.415,0.876 -0.988,2.243l-0.128,0.092Zm8.496,2.893c-3.418,0.573 -5.548,1.19 -6.391,1.849c-0.842,0.659 -1.263,1.678 -1.263,3.058c-0,1.904 0.946,2.856 2.838,2.856c1.623,0 3.229,-0.94 4.816,-2.82l-0,-4.943Z" style="fill-rule:nonzero;"/>
    <path d="M966.389,148.993l0.787,-0l0.165,0.165c0.025,1.025 0.086,1.904 0.183,2.636c0.379,0.574 1.032,1.041 1.96,1.401c0.927,0.36 1.843,0.54 2.746,0.54c1.294,0 2.329,-0.348 3.104,-1.043c0.775,-0.696 1.162,-1.526 1.162,-2.491c0,-0.525 -0.14,-0.979 -0.421,-1.364c-0.28,-0.384 -0.705,-0.702 -1.272,-0.952c-0.568,-0.25 -1.584,-0.546 -3.049,-0.888c-1.257,-0.293 -2.136,-0.522 -2.637,-0.687c-0.5,-0.164 -0.982,-0.442 -1.446,-0.833c-0.464,-0.39 -0.818,-0.87 -1.062,-1.437c-0.244,-0.568 -0.366,-1.193 -0.366,-1.877c-0,-1.636 0.65,-2.945 1.95,-3.928c1.3,-0.982 2.92,-1.474 4.861,-1.474c0.818,0 1.709,0.113 2.673,0.339c0.965,0.226 1.697,0.443 2.198,0.65l0.164,0.256c-0.097,0.489 -0.158,1.77 -0.183,3.846l-0.164,0.164l-0.733,0l-0.165,-0.164c-0.048,-0.745 -0.116,-1.267 -0.201,-1.566c-0.086,-0.299 -0.305,-0.622 -0.659,-0.97c-0.354,-0.348 -0.855,-0.641 -1.502,-0.879c-0.647,-0.238 -1.33,-0.357 -2.05,-0.357c-0.745,-0 -1.371,0.11 -1.877,0.329c-0.507,0.22 -0.916,0.553 -1.227,0.998c-0.311,0.446 -0.467,0.986 -0.467,1.621c-0,0.464 0.095,0.879 0.284,1.245c0.189,0.366 0.479,0.662 0.87,0.888c0.39,0.226 0.799,0.387 1.226,0.485l1.996,0.513c1.709,0.415 2.933,0.775 3.671,1.08c0.739,0.305 1.31,0.766 1.712,1.383c0.403,0.616 0.605,1.364 0.605,2.243c-0,1.684 -0.696,3.131 -2.088,4.339c-1.391,1.209 -3.18,1.813 -5.365,1.813c-0.769,-0 -1.724,-0.085 -2.865,-0.256c-1.142,-0.171 -2.115,-0.36 -2.921,-0.568l-0.091,-0.238l0.183,-1.227c0.061,-0.378 0.097,-0.76 0.11,-1.144c0.012,-0.385 0.024,-1.193 0.036,-2.426l0.165,-0.165Z" style="fill-rule:nonzero;"/>
    <path d="M982.283,148.993l0.787,-0l0.165,0.165c0.024,1.025 0.085,1.904 0.183,2.636c0.378,0.574 1.031,1.041 1.959,1.401c0.928,0.36 1.843,0.54 2.747,0.54c1.294,0 2.328,-0.348 3.103,-1.043c0.775,-0.696 1.163,-1.526 1.163,-2.491c0,-0.525 -0.14,-0.979 -0.421,-1.364c-0.281,-0.384 -0.705,-0.702 -1.273,-0.952c-0.567,-0.25 -1.584,-0.546 -3.048,-0.888c-1.258,-0.293 -2.137,-0.522 -2.637,-0.687c-0.501,-0.164 -0.983,-0.442 -1.447,-0.833c-0.464,-0.39 -0.818,-0.87 -1.062,-1.437c-0.244,-0.568 -0.366,-1.193 -0.366,-1.877c0,-1.636 0.65,-2.945 1.95,-3.928c1.3,-0.982 2.921,-1.474 4.862,-1.474c0.818,0 1.709,0.113 2.673,0.339c0.964,0.226 1.697,0.443 2.197,0.65l0.165,0.256c-0.098,0.489 -0.159,1.77 -0.183,3.846l-0.165,0.164l-0.732,0l-0.165,-0.164c-0.049,-0.745 -0.116,-1.267 -0.202,-1.566c-0.085,-0.299 -0.305,-0.622 -0.659,-0.97c-0.354,-0.348 -0.854,-0.641 -1.501,-0.879c-0.647,-0.238 -1.331,-0.357 -2.051,-0.357c-0.745,-0 -1.37,0.11 -1.877,0.329c-0.506,0.22 -0.915,0.553 -1.227,0.998c-0.311,0.446 -0.466,0.986 -0.466,1.621c-0,0.464 0.094,0.879 0.283,1.245c0.19,0.366 0.479,0.662 0.87,0.888c0.391,0.226 0.8,0.387 1.227,0.485l1.996,0.513c1.709,0.415 2.932,0.775 3.671,1.08c0.739,0.305 1.309,0.766 1.712,1.383c0.403,0.616 0.604,1.364 0.604,2.243c0,1.684 -0.696,3.131 -2.087,4.339c-1.392,1.209 -3.18,1.813 -5.365,1.813c-0.769,-0 -1.724,-0.085 -2.866,-0.256c-1.141,-0.171 -2.115,-0.36 -2.92,-0.568l-0.092,-0.238l0.183,-1.227c0.061,-0.378 0.098,-0.76 0.11,-1.144c0.012,-0.385 0.025,-1.193 0.037,-2.426l0.165,-0.165Z" style="fill-rule:nonzero;"/>
    <path d="M931.8,80.131l-0.695,1.703c-2.71,1.379 -5.603,2.069 -8.68,2.069c-4.406,-0 -7.986,-1.251 -10.739,-3.754c-2.752,-2.502 -4.129,-5.774 -4.129,-9.814c0,-2.783 0.687,-5.216 2.06,-7.297c1.373,-2.081 3.186,-3.638 5.438,-4.669c2.253,-1.032 4.783,-1.547 7.59,-1.547c1.624,-0 3.229,0.17 4.816,0.512c1.587,0.342 2.911,0.751 3.973,1.227l0.128,0.183c-0.28,0.684 -0.543,2.374 -0.787,5.072l-0.128,0.147l-0.861,-0l-0.146,-0.147l-0.183,-3.113c-0.891,-0.708 -1.969,-1.26 -3.232,-1.657c-1.264,-0.396 -2.579,-0.595 -3.946,-0.595c-2.063,0 -3.912,0.443 -5.548,1.328c-1.636,0.885 -2.905,2.166 -3.809,3.845c-0.903,1.678 -1.355,3.732 -1.355,6.161c0,2.442 0.531,4.584 1.593,6.427c1.062,1.844 2.512,3.26 4.349,4.248c1.837,0.989 3.983,1.484 6.436,1.484c1.087,-0 2.13,-0.104 3.131,-0.312c1.001,-0.207 1.834,-0.464 2.5,-0.769c0.665,-0.305 1.303,-0.677 1.913,-1.117l0.311,0.385Z" style="fill-rule:nonzero;"/>
    <path d="M939.07,56.107l0.348,0.22c-0.135,1.404 -0.202,4.218 -0.202,8.441l0,4.523c1.026,-0.842 1.978,-1.678 2.857,-2.509c0.256,-0.231 0.5,-0.402 0.732,-0.512c0.232,-0.11 0.607,-0.226 1.126,-0.348c0.519,-0.122 1.053,-0.183 1.602,-0.183c0.928,-0 1.828,0.189 2.701,0.567c0.873,0.379 1.532,0.827 1.978,1.346c0.445,0.519 0.753,1.132 0.924,1.84c0.171,0.708 0.257,1.581 0.257,2.619l-0,3.223c-0,0.207 0.03,1.727 0.091,4.559c0.037,1.16 0.168,1.849 0.394,2.069c0.226,0.22 0.98,0.33 2.261,0.33l0.147,0.146l-0,0.787l-0.147,0.147c-1.55,-0.098 -2.6,-0.147 -3.149,-0.147c-0.281,0 -1.172,0.049 -2.673,0.147l-0.22,-0.202c0.158,-1.586 0.238,-3.656 0.238,-6.207l-0,-2.399c-0,-1.44 -0.034,-2.478 -0.101,-3.112c-0.067,-0.635 -0.271,-1.212 -0.613,-1.731c-0.342,-0.518 -0.797,-0.921 -1.364,-1.208c-0.568,-0.287 -1.255,-0.43 -2.06,-0.43c-0.83,-0 -1.523,0.112 -2.079,0.338c-0.555,0.226 -1.12,0.608 -1.693,1.145c-0.574,0.537 -0.919,0.985 -1.035,1.346c-0.116,0.36 -0.174,1.052 -0.174,2.078l0,3.259c0,0.269 0.025,1.132 0.073,2.591c0.049,1.459 0.101,2.31 0.156,2.554c0.055,0.244 0.137,0.421 0.247,0.531c0.11,0.11 0.244,0.18 0.403,0.211c0.159,0.03 0.818,0.082 1.978,0.156l0.164,0.146l0,0.769l-0.146,0.165c-1.526,-0.098 -2.997,-0.147 -4.413,-0.147c-1.404,0 -2.869,0.049 -4.394,0.147l-0.165,-0.165l-0,-0.769l0.165,-0.146c1.184,-0.074 1.852,-0.129 2.005,-0.165c0.152,-0.037 0.286,-0.113 0.402,-0.229c0.116,-0.116 0.196,-0.293 0.238,-0.531c0.043,-0.238 0.092,-1.026 0.147,-2.362c0.055,-1.337 0.082,-2.347 0.082,-3.031l0,-9.484l-0.073,-3.882c-0.037,-1.355 -0.076,-2.295 -0.119,-2.82c-0.043,-0.525 -0.101,-0.836 -0.174,-0.934c-0.073,-0.098 -0.201,-0.171 -0.384,-0.22c-0.184,-0.049 -0.922,-0.073 -2.216,-0.073l-0.165,-0.165l0,-0.769l0.147,-0.165c2.331,-0.268 4.297,-0.72 5.896,-1.355Z" style="fill-rule:nonzero;"/>
    <path d="M961.702,65.775l0.347,0.238c-0.073,0.708 -0.128,1.966 -0.164,3.772l1.373,-1.739c0.452,-0.574 0.851,-1.016 1.199,-1.328c0.348,-0.311 0.754,-0.552 1.218,-0.723c0.464,-0.171 0.94,-0.256 1.428,-0.256c0.537,-0 1.044,0.11 1.52,0.329l0.128,0.257c-0.195,1.623 -0.305,3.051 -0.329,4.284l-0.824,0c-0.489,-1.123 -1.276,-1.684 -2.363,-1.684c-0.756,-0 -1.416,0.241 -1.977,0.723c-0.562,0.482 -0.937,1.087 -1.126,1.813c-0.189,0.726 -0.284,1.645 -0.284,2.756l0,2.032c0,0.366 0.024,1.263 0.073,2.692c0.049,1.428 0.101,2.252 0.156,2.472c0.055,0.219 0.14,0.381 0.256,0.485c0.116,0.104 0.269,0.174 0.458,0.21c0.189,0.037 1.059,0.098 2.609,0.184l0.165,0.146l0,0.769l-0.165,0.165c-1.623,-0.098 -3.32,-0.147 -5.09,-0.147c-1.404,0 -2.869,0.049 -4.395,0.147l-0.164,-0.165l-0,-0.769l0.164,-0.146c1.184,-0.074 1.853,-0.129 2.005,-0.165c0.153,-0.037 0.287,-0.113 0.403,-0.229c0.116,-0.116 0.196,-0.293 0.238,-0.531c0.043,-0.238 0.092,-1.026 0.147,-2.362c0.055,-1.337 0.082,-2.347 0.082,-3.031l0,-3.607c0,-0.488 -0.024,-1.153 -0.073,-1.996c-0.049,-0.842 -0.089,-1.361 -0.119,-1.556c-0.031,-0.195 -0.125,-0.339 -0.284,-0.43c-0.159,-0.092 -0.476,-0.138 -0.952,-0.138l-1.538,-0.018l-0.165,-0.146l0,-0.788l0.147,-0.146c2.331,-0.281 4.296,-0.739 5.896,-1.374Z" style="fill-rule:nonzero;"/>
    <path d="M970.729,74.839c-0,-1.453 0.299,-2.853 0.897,-4.202c0.598,-1.349 1.639,-2.515 3.122,-3.497c1.483,-0.983 3.244,-1.474 5.282,-1.474c2.564,-0 4.651,0.808 6.263,2.426c1.611,1.617 2.417,3.695 2.417,6.234c-0,2.796 -0.925,5.097 -2.774,6.904c-1.85,1.806 -4.081,2.709 -6.693,2.709c-1.709,0 -3.235,-0.46 -4.578,-1.382c-1.342,-0.922 -2.334,-2.048 -2.975,-3.378c-0.641,-1.331 -0.961,-2.777 -0.961,-4.34Zm3.46,-1.263c0,1.709 0.22,3.238 0.66,4.586c0.439,1.349 1.135,2.433 2.087,3.251c0.952,0.817 2.038,1.226 3.259,1.226c1.441,0 2.631,-0.57 3.571,-1.712c0.94,-1.141 1.41,-2.859 1.41,-5.154c-0,-2.6 -0.51,-4.73 -1.529,-6.39c-1.02,-1.661 -2.487,-2.491 -4.404,-2.491c-1.587,0 -2.826,0.574 -3.717,1.722c-0.891,1.147 -1.337,2.801 -1.337,4.962Z" style="fill-rule:nonzero;"/>
    <path d="M996.693,65.775l0.348,0.238c-0.073,0.806 -0.122,1.77 -0.147,2.894l1.74,-1.594c0.488,-0.451 0.812,-0.741 0.97,-0.869c0.159,-0.128 0.531,-0.278 1.117,-0.449c0.586,-0.171 1.203,-0.256 1.85,-0.256c1.22,-0 2.288,0.302 3.204,0.906c0.916,0.604 1.593,1.438 2.032,2.5c1.648,-1.563 2.61,-2.43 2.884,-2.601c0.275,-0.17 0.711,-0.344 1.31,-0.521c0.598,-0.177 1.196,-0.266 1.794,-0.266c0.964,0 1.849,0.208 2.655,0.623c0.806,0.415 1.447,0.958 1.923,1.629c0.476,0.672 0.753,1.398 0.833,2.179c0.079,0.782 0.119,1.856 0.119,3.223l-0,1.923c-0,0.207 0.036,1.727 0.11,4.559c0.024,1.16 0.152,1.849 0.384,2.069c0.232,0.22 0.983,0.33 2.252,0.33l0.147,0.146l-0,0.787l-0.147,0.147c-1.55,-0.098 -2.6,-0.147 -3.149,-0.147c-0.305,0 -1.19,0.049 -2.655,0.147l-0.238,-0.202c0.159,-1.586 0.238,-3.656 0.238,-6.207l-0,-2.197c-0,-1.941 -0.092,-3.299 -0.275,-4.074c-0.183,-0.775 -0.61,-1.41 -1.281,-1.905c-0.672,-0.494 -1.471,-0.741 -2.399,-0.741c-0.659,-0 -1.276,0.131 -1.849,0.394c-0.574,0.262 -1.09,0.653 -1.548,1.171c-0.457,0.519 -0.711,1.001 -0.76,1.447c-0.048,0.446 -0.073,1.266 -0.073,2.463l0,2.289c0,0.537 0.025,1.544 0.073,3.021c0.049,1.477 0.101,2.337 0.156,2.582c0.055,0.244 0.14,0.418 0.256,0.521c0.116,0.104 0.251,0.171 0.403,0.202c0.153,0.03 0.809,0.082 1.969,0.156l0.164,0.146l0,0.769l-0.146,0.165c-1.526,-0.098 -2.997,-0.147 -4.413,-0.147c-1.306,0 -2.771,0.049 -4.394,0.147l-0.165,-0.165l-0,-0.769l0.165,-0.146c1.184,-0.074 1.852,-0.129 2.005,-0.165c0.152,-0.037 0.286,-0.113 0.402,-0.229c0.116,-0.116 0.196,-0.293 0.238,-0.531c0.043,-0.238 0.092,-1.026 0.147,-2.362c0.055,-1.337 0.082,-2.347 0.082,-3.031l0,-2.087c0,-1.379 -0.094,-2.441 -0.284,-3.186c-0.189,-0.745 -0.595,-1.373 -1.217,-1.886c-0.623,-0.513 -1.404,-0.769 -2.344,-0.769c-0.732,-0 -1.401,0.143 -2.005,0.43c-0.604,0.287 -1.099,0.641 -1.483,1.062c-0.385,0.421 -0.623,0.815 -0.714,1.181c-0.092,0.366 -0.138,1.16 -0.138,2.381l0,2.71c0,0.537 0.025,1.544 0.074,3.021c0.049,1.477 0.1,2.337 0.155,2.582c0.055,0.244 0.141,0.418 0.257,0.521c0.116,0.104 0.25,0.171 0.403,0.202c0.152,0.03 0.808,0.082 1.968,0.156l0.165,0.146l-0,0.769l-0.147,0.165c-1.526,-0.098 -2.997,-0.147 -4.413,-0.147c-1.403,0 -2.868,0.049 -4.394,0.147l-0.165,-0.165l0,-0.769l0.165,-0.146c1.184,-0.074 1.852,-0.129 2.005,-0.165c0.152,-0.037 0.287,-0.113 0.403,-0.229c0.116,-0.116 0.195,-0.293 0.238,-0.531c0.042,-0.238 0.091,-1.026 0.146,-2.362c0.055,-1.337 0.083,-2.347 0.083,-3.031l-0,-3.607c-0,-0.488 -0.025,-1.153 -0.074,-1.996c-0.048,-0.842 -0.088,-1.361 -0.119,-1.556c-0.03,-0.195 -0.125,-0.339 -0.283,-0.43c-0.159,-0.092 -0.477,-0.138 -0.953,-0.138l-1.538,-0.018l-0.164,-0.146l-0,-0.788l0.146,-0.146c2.332,-0.281 4.297,-0.739 5.896,-1.374Z" style="fill-rule:nonzero;"/>
    <path d="M1039.25,80.534l-0.586,1.318c-1.27,0.818 -2.402,1.349 -3.397,1.593c-0.995,0.244 -1.883,0.366 -2.664,0.366c-1.465,0 -2.853,-0.287 -4.166,-0.86c-1.312,-0.574 -2.38,-1.544 -3.204,-2.912c-0.824,-1.367 -1.236,-3.015 -1.236,-4.944c0,-1.281 0.159,-2.438 0.476,-3.469c0.317,-1.032 0.65,-1.798 0.998,-2.298c0.348,-0.501 0.937,-1.056 1.767,-1.667c0.83,-0.61 1.709,-1.098 2.637,-1.464c0.927,-0.367 1.928,-0.55 3.003,-0.55c1.464,0 2.755,0.345 3.872,1.035c1.117,0.689 1.902,1.571 2.353,2.646c0.452,1.074 0.678,2.215 0.678,3.424c-0,0.378 -0.019,0.744 -0.055,1.098l-0.202,0.202c-0.83,0.183 -1.947,0.305 -3.35,0.366c-1.404,0.061 -2.332,0.092 -2.784,0.092l-5.877,-0c0.024,2.526 0.659,4.388 1.904,5.584c1.245,1.197 2.771,1.795 4.578,1.795c0.854,-0 1.675,-0.147 2.462,-0.44c0.788,-0.293 1.621,-0.702 2.5,-1.227l0.293,0.312Zm-11.737,-7.489c0.219,0.036 1.065,0.079 2.536,0.128c1.471,0.049 2.56,0.073 3.268,0.073c1.697,0 2.728,-0.03 3.095,-0.091c0.012,-0.293 0.018,-0.519 0.018,-0.678c-0,-1.892 -0.385,-3.299 -1.154,-4.221c-0.769,-0.921 -1.819,-1.382 -3.149,-1.382c-1.453,0 -2.585,0.519 -3.397,1.556c-0.811,1.038 -1.217,2.576 -1.217,4.615Z" style="fill-rule:nonzero;"/>
    <path d="M1050.4,87.547l9.888,-31.44l0.183,-0.146l1.831,-0l0.11,0.183l-9.888,31.421l-0.202,0.165l-1.794,-0l-0.128,-0.183Z" style="fill-rule:nonzero;"/>
    <path d="M1084.11,58.396l-0,-0.769l0.146,-0.165c2.332,-0.268 4.297,-0.72 5.896,-1.355l0.348,0.22c-0.134,1.404 -0.201,4.218 -0.201,8.441l-0,11.994c-0,1.233 0.021,2.31 0.064,3.232c0.042,0.921 0.119,1.467 0.228,1.638c0.11,0.171 0.29,0.312 0.541,0.421c0.25,0.11 0.961,0.214 2.133,0.312l0.165,0.146l-0,0.696l-0.165,0.165c-1.319,-0.086 -2.344,-0.128 -3.076,-0.128c-0.66,-0 -1.599,0.042 -2.82,0.128l-0.202,-0.202c0.037,-1.196 0.055,-2.032 0.055,-2.508c0,-0.061 0.006,-0.293 0.019,-0.696c-0.672,0.488 -1.343,1.032 -2.015,1.63c-0.988,0.879 -1.635,1.428 -1.94,1.648c-0.562,0.28 -1.362,0.421 -2.399,0.421c-1.685,-0 -3.116,-0.415 -4.294,-1.245c-1.178,-0.83 -2.017,-1.889 -2.518,-3.177c-0.5,-1.288 -0.75,-2.609 -0.75,-3.964c-0,-1.38 0.259,-2.707 0.778,-3.983c0.519,-1.276 1.257,-2.206 2.215,-2.792c0.959,-0.586 2.002,-1.194 3.132,-1.822c1.129,-0.629 2.249,-0.943 3.359,-0.943c1.551,-0 3.028,0.384 4.432,1.153l-0.074,-4.083c-0.024,-1.416 -0.061,-2.402 -0.109,-2.957c-0.049,-0.555 -0.11,-0.885 -0.184,-0.989c-0.073,-0.104 -0.198,-0.18 -0.375,-0.229c-0.177,-0.049 -0.919,-0.073 -2.225,-0.073l-0.164,-0.165Zm3.131,11.627c-0.757,-0.854 -1.596,-1.507 -2.518,-1.959c-0.922,-0.451 -1.846,-0.677 -2.774,-0.677c-1.025,-0 -1.981,0.277 -2.866,0.833c-0.885,0.555 -1.523,1.379 -1.913,2.472c-0.391,1.092 -0.586,2.279 -0.586,3.561c-0,2.136 0.54,3.852 1.62,5.145c1.081,1.294 2.439,1.941 4.074,1.941c0.892,0 1.682,-0.204 2.372,-0.613c0.689,-0.409 1.257,-0.961 1.703,-1.657c0.445,-0.696 0.705,-1.392 0.778,-2.088c0.073,-0.695 0.11,-1.971 0.11,-3.826l-0,-3.132Z" style="fill-rule:nonzero;"/>
    <path d="M1098.57,70.811l-0.714,-0.183l-0.147,-0.183l0,-2.271c2.173,-1.611 4.285,-2.417 6.336,-2.417c1.404,0 2.569,0.263 3.497,0.787c0.928,0.525 1.599,1.181 2.014,1.969c0.415,0.787 0.623,1.706 0.623,2.756l-0.092,3.68l0,5.457c0,0.744 0.052,1.196 0.156,1.355c0.104,0.158 0.223,0.265 0.357,0.32c0.134,0.055 0.384,0.101 0.751,0.137l1.043,0.092l0.147,0.165l-0,0.732l-0.147,0.147c-0.891,-0.074 -1.721,-0.11 -2.49,-0.11c-0.732,-0 -1.611,0.036 -2.637,0.11l-0.274,-0.257l0.073,-2.948l-3.992,3.113c-0.671,0.281 -1.404,0.421 -2.197,0.421c-0.977,0 -1.816,-0.177 -2.518,-0.531c-0.702,-0.354 -1.239,-0.848 -1.611,-1.483c-0.372,-0.635 -0.558,-1.404 -0.558,-2.307c-0,-1.795 0.561,-3.195 1.684,-4.202c1.123,-1.008 4.187,-1.865 9.192,-2.573c-0,-1.807 -0.403,-3.079 -1.209,-3.818c-0.805,-0.738 -1.886,-1.108 -3.24,-1.108c-0.709,0 -1.352,0.104 -1.932,0.312c-0.58,0.207 -0.913,0.375 -0.998,0.503c-0.086,0.128 -0.415,0.876 -0.989,2.243l-0.128,0.092Zm8.496,2.893c-3.418,0.574 -5.548,1.19 -6.39,1.849c-0.843,0.659 -1.264,1.679 -1.264,3.058c0,1.904 0.946,2.857 2.838,2.857c1.624,-0 3.229,-0.94 4.816,-2.82l-0,-4.944Z" style="fill-rule:nonzero;"/>
    <path d="M1120.47,65.775l0.348,0.238c-0.073,0.708 -0.128,1.966 -0.165,3.772l1.374,-1.739c0.451,-0.574 0.851,-1.016 1.199,-1.328c0.348,-0.311 0.754,-0.552 1.218,-0.723c0.464,-0.171 0.94,-0.256 1.428,-0.256c0.537,-0 1.044,0.11 1.52,0.329l0.128,0.257c-0.195,1.623 -0.305,3.051 -0.33,4.284l-0.824,0c-0.488,-1.123 -1.275,-1.684 -2.362,-1.684c-0.757,-0 -1.416,0.241 -1.977,0.723c-0.562,0.482 -0.937,1.087 -1.126,1.813c-0.19,0.726 -0.284,1.645 -0.284,2.756l-0,2.032c-0,0.366 0.024,1.263 0.073,2.692c0.049,1.428 0.101,2.252 0.156,2.472c0.055,0.219 0.14,0.381 0.256,0.485c0.116,0.104 0.269,0.174 0.458,0.21c0.189,0.037 1.059,0.098 2.609,0.184l0.165,0.146l-0,0.769l-0.165,0.165c-1.624,-0.098 -3.32,-0.147 -5.09,-0.147c-1.404,0 -2.869,0.049 -4.395,0.147l-0.165,-0.165l0,-0.769l0.165,-0.146c1.184,-0.074 1.853,-0.129 2.005,-0.165c0.153,-0.037 0.287,-0.113 0.403,-0.229c0.116,-0.116 0.195,-0.293 0.238,-0.531c0.043,-0.238 0.092,-1.026 0.147,-2.362c0.054,-1.337 0.082,-2.347 0.082,-3.031l-0,-3.607c-0,-0.488 -0.025,-1.153 -0.073,-1.996c-0.049,-0.842 -0.089,-1.361 -0.119,-1.556c-0.031,-0.195 -0.125,-0.339 -0.284,-0.43c-0.159,-0.092 -0.476,-0.138 -0.952,-0.138l-1.538,-0.018l-0.165,-0.146l-0,-0.788l0.146,-0.146c2.332,-0.281 4.297,-0.739 5.896,-1.374Z" style="fill-rule:nonzero;"/>
    <path d="M1134.92,56.107l0.348,0.22c-0.134,1.404 -0.201,4.218 -0.201,8.441l-0,8.588c0.415,-0.244 1.233,-0.858 2.453,-1.84c1.221,-0.983 2.512,-2.106 3.873,-3.369c1.361,-1.264 2.06,-1.95 2.097,-2.06c1.037,0.036 1.66,0.055 1.867,0.055c0.281,-0 0.849,-0.019 1.703,-0.055l0.165,0.164l-0,0.715l-0.146,0.164c-0.611,0.037 -1.078,0.116 -1.401,0.238c-0.324,0.123 -0.983,0.525 -1.978,1.209c-0.995,0.684 -2.17,1.581 -3.525,2.692l-1.776,1.446c0.647,0.757 1.779,1.944 3.397,3.562c1.617,1.617 2.927,2.871 3.928,3.762c1.001,0.891 1.654,1.401 1.959,1.529c0.305,0.128 0.628,0.193 0.97,0.193l0,0.787c-0.451,0.085 -1.617,0.458 -3.497,1.117c-1.27,-1.099 -2.075,-1.825 -2.417,-2.179l-1.355,-1.392l-1.611,-1.629c-0.501,-0.501 -1.172,-1.136 -2.015,-1.905l-2.691,-2.49l-0,2.179c-0,0.269 0.024,1.132 0.073,2.591c0.049,1.459 0.101,2.31 0.156,2.554c0.055,0.244 0.137,0.421 0.247,0.531c0.11,0.11 0.244,0.18 0.403,0.211c0.158,0.03 0.818,0.082 1.977,0.156l0.165,0.146l0,0.769l-0.146,0.165c-1.526,-0.098 -2.997,-0.147 -4.413,-0.147c-1.404,0 -2.869,0.049 -4.395,0.147l-0.165,-0.165l0,-0.769l0.165,-0.146c1.184,-0.074 1.853,-0.129 2.005,-0.165c0.153,-0.037 0.287,-0.113 0.403,-0.229c0.116,-0.116 0.195,-0.293 0.238,-0.531c0.043,-0.238 0.092,-1.026 0.147,-2.362c0.054,-1.337 0.082,-2.347 0.082,-3.031l-0,-9.484l-0.073,-3.882c-0.037,-1.355 -0.077,-2.295 -0.119,-2.82c-0.043,-0.525 -0.101,-0.836 -0.174,-0.934c-0.074,-0.098 -0.202,-0.171 -0.385,-0.22c-0.183,-0.049 -0.921,-0.073 -2.215,-0.073l-0.165,-0.165l-0,-0.769l0.146,-0.165c2.332,-0.268 4.297,-0.72 5.896,-1.355Z" style="fill-rule:nonzero;"/>
    <path d="M1163.76,57.591c0.574,-0 1.062,0.201 1.465,0.604c0.403,0.403 0.605,0.891 0.605,1.465c-0,0.561 -0.202,1.043 -0.605,1.446c-0.403,0.403 -0.891,0.604 -1.465,0.604c-0.561,0 -1.046,-0.198 -1.455,-0.595c-0.409,-0.396 -0.614,-0.882 -0.614,-1.455c0,-0.574 0.205,-1.062 0.614,-1.465c0.409,-0.403 0.894,-0.604 1.455,-0.604Zm1.557,8.184l0.348,0.238c-0.135,1.6 -0.202,3.632 -0.202,6.098l0,4.138c0,0.269 0.025,1.132 0.074,2.591c0.048,1.459 0.1,2.31 0.155,2.554c0.055,0.244 0.138,0.421 0.247,0.531c0.11,0.11 0.245,0.18 0.403,0.211c0.159,0.03 0.818,0.082 1.978,0.156l0.165,0.146l-0,0.769l-0.147,0.165c-1.526,-0.098 -2.997,-0.147 -4.413,-0.147c-1.404,0 -2.868,0.049 -4.394,0.147l-0.165,-0.165l-0,-0.769l0.165,-0.146c1.184,-0.074 1.852,-0.129 2.005,-0.165c0.152,-0.037 0.287,-0.113 0.403,-0.229c0.115,-0.116 0.195,-0.293 0.238,-0.531c0.042,-0.238 0.091,-1.026 0.146,-2.362c0.055,-1.337 0.082,-2.347 0.082,-3.031l0,-3.607c0,-0.488 -0.024,-1.153 -0.073,-1.996c-0.049,-0.842 -0.088,-1.361 -0.119,-1.556c-0.03,-0.195 -0.125,-0.339 -0.284,-0.43c-0.158,-0.092 -0.476,-0.138 -0.952,-0.138l-1.538,-0.018l-0.165,-0.146l0,-0.788l0.147,-0.146c2.331,-0.281 4.297,-0.739 5.896,-1.374Z" style="fill-rule:nonzero;"/>
    <path d="M1175.66,65.775l0.348,0.238c-0.073,0.818 -0.122,1.893 -0.146,3.223c0.976,-0.806 1.904,-1.623 2.783,-2.454c0.256,-0.231 0.497,-0.402 0.723,-0.512c0.226,-0.11 0.601,-0.226 1.126,-0.348c0.525,-0.122 1.062,-0.183 1.612,-0.183c0.927,-0 1.828,0.189 2.7,0.567c0.873,0.379 1.532,0.827 1.978,1.346c0.445,0.519 0.754,1.132 0.925,1.84c0.171,0.708 0.256,1.581 0.256,2.619l-0,3.223c-0,0.207 0.03,1.727 0.092,4.559c0.024,1.16 0.152,1.849 0.384,2.069c0.232,0.22 0.989,0.33 2.271,0.33l0.146,0.146l0,0.787l-0.146,0.147c-1.551,-0.098 -2.601,-0.147 -3.15,-0.147c-0.317,0 -1.208,0.049 -2.673,0.147l-0.22,-0.202c0.159,-1.586 0.238,-3.656 0.238,-6.207l0,-2.399c0,-1.44 -0.033,-2.478 -0.101,-3.112c-0.067,-0.635 -0.271,-1.212 -0.613,-1.731c-0.342,-0.518 -0.8,-0.921 -1.373,-1.208c-0.574,-0.287 -1.258,-0.43 -2.051,-0.43c-0.635,-0 -1.178,0.064 -1.63,0.192c-0.451,0.128 -0.958,0.39 -1.519,0.787c-0.562,0.397 -0.977,0.769 -1.246,1.117c-0.268,0.348 -0.43,0.671 -0.485,0.971c-0.055,0.299 -0.082,0.936 -0.082,1.913l-0,3.186c-0,0.269 0.024,1.132 0.073,2.591c0.049,1.459 0.101,2.31 0.156,2.554c0.055,0.244 0.137,0.421 0.247,0.531c0.11,0.11 0.244,0.18 0.403,0.211c0.158,0.03 0.818,0.082 1.977,0.156l0.165,0.146l0,0.769l-0.146,0.165c-1.526,-0.098 -2.997,-0.147 -4.413,-0.147c-1.404,0 -2.869,0.049 -4.395,0.147l-0.165,-0.165l0,-0.769l0.165,-0.146c1.184,-0.074 1.853,-0.129 2.005,-0.165c0.153,-0.037 0.287,-0.113 0.403,-0.229c0.116,-0.116 0.195,-0.293 0.238,-0.531c0.043,-0.238 0.092,-1.026 0.147,-2.362c0.054,-1.337 0.082,-2.347 0.082,-3.031l-0,-3.607c-0,-0.488 -0.025,-1.153 -0.073,-1.996c-0.049,-0.842 -0.089,-1.361 -0.119,-1.556c-0.031,-0.195 -0.125,-0.339 -0.284,-0.43c-0.159,-0.092 -0.476,-0.138 -0.952,-0.138l-1.538,-0.018l-0.165,-0.146l-0,-0.788l0.146,-0.146c2.332,-0.281 4.297,-0.739 5.896,-1.374Z" style="fill-rule:nonzero;"/>
    <path d="M1197.89,56.107l0.348,0.22c-0.134,1.404 -0.201,4.218 -0.201,8.441l-0,8.588c0.415,-0.244 1.233,-0.858 2.453,-1.84c1.221,-0.983 2.512,-2.106 3.873,-3.369c1.361,-1.264 2.06,-1.95 2.097,-2.06c1.037,0.036 1.66,0.055 1.867,0.055c0.281,-0 0.849,-0.019 1.703,-0.055l0.165,0.164l-0,0.715l-0.147,0.164c-0.61,0.037 -1.077,0.116 -1.4,0.238c-0.324,0.123 -0.983,0.525 -1.978,1.209c-0.995,0.684 -2.17,1.581 -3.525,2.692l-1.776,1.446c0.647,0.757 1.779,1.944 3.397,3.562c1.617,1.617 2.927,2.871 3.928,3.762c1,0.891 1.654,1.401 1.959,1.529c0.305,0.128 0.628,0.193 0.97,0.193l0,0.787c-0.451,0.085 -1.617,0.458 -3.497,1.117c-1.27,-1.099 -2.075,-1.825 -2.417,-2.179l-1.355,-1.392l-1.611,-1.629c-0.501,-0.501 -1.172,-1.136 -2.015,-1.905l-2.691,-2.49l-0,2.179c-0,0.269 0.024,1.132 0.073,2.591c0.049,1.459 0.101,2.31 0.156,2.554c0.055,0.244 0.137,0.421 0.247,0.531c0.11,0.11 0.244,0.18 0.403,0.211c0.158,0.03 0.818,0.082 1.977,0.156l0.165,0.146l0,0.769l-0.146,0.165c-1.526,-0.098 -2.997,-0.147 -4.413,-0.147c-1.404,0 -2.869,0.049 -4.395,0.147l-0.165,-0.165l0,-0.769l0.165,-0.146c1.184,-0.074 1.853,-0.129 2.005,-0.165c0.153,-0.037 0.287,-0.113 0.403,-0.229c0.116,-0.116 0.195,-0.293 0.238,-0.531c0.043,-0.238 0.092,-1.026 0.147,-2.362c0.054,-1.337 0.082,-2.347 0.082,-3.031l-0,-9.484l-0.073,-3.882c-0.037,-1.355 -0.077,-2.295 -0.119,-2.82c-0.043,-0.525 -0.101,-0.836 -0.174,-0.934c-0.074,-0.098 -0.202,-0.171 -0.385,-0.22c-0.183,-0.049 -0.921,-0.073 -2.215,-0.073l-0.165,-0.165l-0,-0.769l0.146,-0.165c2.332,-0.268 4.297,-0.72 5.896,-1.355Z" style="fill-rule:nonzero;"/>
</svg>
