<?xml version="1.0" encoding="UTF-8" standalone="no"?>
<!DOCTYPE svg PUBLIC "-//W3C//DTD SVG 1.1//EN" "http://www.w3.org/Graphics/SVG/1.1/DTD/svg11.dtd">
<svg width="100%" height="100%" viewBox="0 0 1004 237" version="1.1" xmlns="http://www.w3.org/2000/svg" xmlns:xlink="http://www.w3.org/1999/xlink" xml:space="preserve" xmlns:serif="http://www.serif.com/" style="fill-rule:evenodd;clip-rule:evenodd;stroke-linejoin:round;stroke-miterlimit:2;">
    <path d="M30.113,98.798l0,90.463l804.004,-0l-0,-90.463l-804.004,-0Z" style="fill:rgb(0,174,239);"/>
    <path d="M904.655,118.478l-0,0.549l-0.074,0.22l-0.897,0.531c-0.22,0.134 -0.348,0.238 -0.384,0.311c-0.037,0.073 -0.083,0.436 -0.138,1.089c-0.055,0.654 -0.082,1.45 -0.082,2.39c-0,1.062 0.067,2.216 0.201,3.461l-0.11,0.183c-3.344,1.282 -6.781,1.922 -10.308,1.922c-2.71,0 -5.158,-0.512 -7.343,-1.538c-2.185,-1.025 -3.918,-2.545 -5.2,-4.559c-1.282,-2.014 -1.923,-4.407 -1.923,-7.178c0,-4.223 1.444,-7.58 4.331,-10.071c2.887,-2.49 6.656,-3.735 11.306,-3.735c3.418,0 6.489,0.58 9.211,1.74l0.128,0.201c-0.22,0.818 -0.476,2.533 -0.769,5.145l-0.147,0.128l-0.842,0l-0.146,-0.146l-0.092,-1.941c-0.037,-0.635 -0.076,-1.007 -0.119,-1.117c-0.043,-0.11 -0.174,-0.253 -0.394,-0.43c-0.219,-0.177 -0.784,-0.458 -1.693,-0.842c-0.91,-0.385 -1.822,-0.666 -2.738,-0.843c-0.915,-0.177 -1.898,-0.265 -2.948,-0.265c-2.234,-0 -4.211,0.464 -5.932,1.391c-1.722,0.928 -3.019,2.28 -3.891,4.056c-0.873,1.776 -1.31,3.751 -1.31,5.924c0,2.246 0.47,4.336 1.41,6.271c0.94,1.935 2.289,3.445 4.047,4.532c1.758,1.086 3.802,1.629 6.134,1.629c1.013,0 2.048,-0.1 3.104,-0.302c1.055,-0.201 1.925,-0.485 2.609,-0.851c0.11,-0.391 0.165,-1.178 0.165,-2.362l-0,-2.033c-0,-0.964 -0.061,-1.565 -0.183,-1.803c-0.123,-0.238 -0.425,-0.406 -0.907,-0.504c-0.482,-0.097 -1.523,-0.158 -3.122,-0.183l-0.165,-0.165l0,-0.805l0.165,-0.165l1.117,0.036c1.917,0.062 3.479,0.092 4.688,0.092c0.695,0 1.715,-0.037 3.058,-0.11l0.183,0.147Z" style="fill-rule:nonzero;"/>
    <path d="M912.693,101.339l0.348,0.22c-0.134,1.404 -0.202,4.217 -0.202,8.441l0,11.481c0,0.268 0.025,1.132 0.074,2.591c0.049,1.458 0.1,2.31 0.155,2.554c0.055,0.244 0.138,0.421 0.248,0.531c0.109,0.11 0.244,0.18 0.402,0.21c0.159,0.031 0.818,0.083 1.978,0.156l0.165,0.147l-0,0.769l-0.147,0.164c-1.526,-0.097 -2.997,-0.146 -4.413,-0.146c-1.403,-0 -2.868,0.049 -4.394,0.146l-0.165,-0.164l0,-0.769l0.165,-0.147c1.184,-0.073 1.852,-0.128 2.005,-0.165c0.152,-0.036 0.287,-0.113 0.403,-0.229c0.116,-0.116 0.195,-0.293 0.238,-0.531c0.042,-0.238 0.091,-1.025 0.146,-2.362c0.055,-1.336 0.083,-2.346 0.083,-3.03l-0,-9.485l-0.074,-3.882c-0.036,-1.355 -0.076,-2.295 -0.119,-2.82c-0.042,-0.524 -0.1,-0.836 -0.174,-0.933c-0.073,-0.098 -0.201,-0.171 -0.384,-0.22c-0.183,-0.049 -0.922,-0.073 -2.216,-0.073l-0.165,-0.165l0,-0.769l0.147,-0.165c2.331,-0.269 4.297,-0.72 5.896,-1.355Z" style="fill-rule:nonzero;"/>
    <path d="M920.64,116.042l-0.714,-0.183l-0.147,-0.183l0,-2.27c2.173,-1.612 4.285,-2.417 6.336,-2.417c1.403,-0 2.569,0.262 3.497,0.787c0.928,0.525 1.599,1.181 2.014,1.968c0.415,0.788 0.623,1.706 0.623,2.756l-0.092,3.681l0,5.456c0,0.745 0.052,1.196 0.156,1.355c0.103,0.159 0.222,0.266 0.357,0.32c0.134,0.055 0.384,0.101 0.75,0.138l1.044,0.091l0.147,0.165l-0,0.733l-0.147,0.146c-0.891,-0.073 -1.721,-0.11 -2.49,-0.11c-0.732,0 -1.611,0.037 -2.637,0.11l-0.274,-0.256l0.073,-2.948l-3.992,3.113c-0.671,0.28 -1.404,0.421 -2.197,0.421c-0.977,-0 -1.816,-0.177 -2.518,-0.531c-0.702,-0.354 -1.239,-0.849 -1.611,-1.483c-0.372,-0.635 -0.559,-1.404 -0.559,-2.308c0,-1.794 0.562,-3.195 1.685,-4.202c1.123,-1.007 4.187,-1.865 9.192,-2.573c-0,-1.806 -0.403,-3.079 -1.209,-3.817c-0.805,-0.739 -1.886,-1.108 -3.241,-1.108c-0.708,-0 -1.352,0.104 -1.931,0.311c-0.58,0.208 -0.913,0.376 -0.998,0.504c-0.086,0.128 -0.415,0.876 -0.989,2.243l-0.128,0.091Zm8.496,2.893c-3.418,0.574 -5.548,1.191 -6.391,1.85c-0.842,0.659 -1.263,1.678 -1.263,3.058c0,1.904 0.946,2.856 2.838,2.856c1.624,0 3.229,-0.94 4.816,-2.82l-0,-4.944Z" style="fill-rule:nonzero;"/>
    <path d="M937.357,123.074l0.788,-0l0.164,0.164c0.025,1.026 0.086,1.905 0.184,2.637c0.378,0.574 1.031,1.041 1.959,1.401c0.927,0.36 1.843,0.54 2.746,0.54c1.294,0 2.329,-0.348 3.104,-1.044c0.775,-0.695 1.163,-1.526 1.163,-2.49c-0,-0.525 -0.141,-0.98 -0.421,-1.364c-0.281,-0.385 -0.705,-0.702 -1.273,-0.952c-0.568,-0.25 -1.584,-0.546 -3.049,-0.888c-1.257,-0.293 -2.136,-0.522 -2.636,-0.687c-0.501,-0.165 -0.983,-0.442 -1.447,-0.833c-0.464,-0.391 -0.818,-0.87 -1.062,-1.437c-0.244,-0.568 -0.366,-1.194 -0.366,-1.877c-0,-1.636 0.65,-2.945 1.95,-3.928c1.3,-0.983 2.92,-1.474 4.861,-1.474c0.818,0 1.709,0.113 2.674,0.339c0.964,0.226 1.696,0.442 2.197,0.65l0.165,0.256c-0.098,0.489 -0.159,1.77 -0.183,3.845l-0.165,0.165l-0.733,0l-0.164,-0.165c-0.049,-0.744 -0.116,-1.266 -0.202,-1.565c-0.085,-0.299 -0.305,-0.623 -0.659,-0.971c-0.354,-0.347 -0.855,-0.64 -1.501,-0.878c-0.647,-0.238 -1.331,-0.357 -2.051,-0.357c-0.745,-0 -1.371,0.109 -1.877,0.329c-0.507,0.22 -0.916,0.552 -1.227,0.998c-0.311,0.446 -0.467,0.986 -0.467,1.621c0,0.463 0.095,0.878 0.284,1.245c0.189,0.366 0.479,0.662 0.87,0.888c0.39,0.226 0.799,0.387 1.227,0.485l1.995,0.513c1.709,0.415 2.933,0.775 3.672,1.08c0.738,0.305 1.309,0.766 1.712,1.382c0.403,0.617 0.604,1.365 0.604,2.243c-0,1.685 -0.696,3.132 -2.087,4.34c-1.392,1.209 -3.18,1.813 -5.365,1.813c-0.769,-0 -1.725,-0.086 -2.866,-0.257c-1.141,-0.17 -2.115,-0.36 -2.921,-0.567l-0.091,-0.238l0.183,-1.227c0.061,-0.378 0.098,-0.76 0.11,-1.144c0.012,-0.385 0.024,-1.194 0.036,-2.427l0.165,-0.164Z" style="fill-rule:nonzero;"/>
    <path d="M953.251,123.074l0.787,-0l0.165,0.164c0.024,1.026 0.085,1.905 0.183,2.637c0.378,0.574 1.032,1.041 1.959,1.401c0.928,0.36 1.844,0.54 2.747,0.54c1.294,0 2.328,-0.348 3.104,-1.044c0.775,-0.695 1.162,-1.526 1.162,-2.49c0,-0.525 -0.14,-0.98 -0.421,-1.364c-0.281,-0.385 -0.705,-0.702 -1.272,-0.952c-0.568,-0.25 -1.584,-0.546 -3.049,-0.888c-1.258,-0.293 -2.136,-0.522 -2.637,-0.687c-0.5,-0.165 -0.983,-0.442 -1.446,-0.833c-0.464,-0.391 -0.818,-0.87 -1.062,-1.437c-0.245,-0.568 -0.367,-1.194 -0.367,-1.877c0,-1.636 0.65,-2.945 1.95,-3.928c1.3,-0.983 2.921,-1.474 4.862,-1.474c0.818,0 1.709,0.113 2.673,0.339c0.965,0.226 1.697,0.442 2.197,0.65l0.165,0.256c-0.097,0.489 -0.158,1.77 -0.183,3.845l-0.165,0.165l-0.732,0l-0.165,-0.165c-0.049,-0.744 -0.116,-1.266 -0.201,-1.565c-0.086,-0.299 -0.305,-0.623 -0.659,-0.971c-0.354,-0.347 -0.855,-0.64 -1.502,-0.878c-0.647,-0.238 -1.33,-0.357 -2.051,-0.357c-0.744,-0 -1.37,0.109 -1.877,0.329c-0.506,0.22 -0.915,0.552 -1.226,0.998c-0.312,0.446 -0.467,0.986 -0.467,1.621c-0,0.463 0.094,0.878 0.284,1.245c0.189,0.366 0.479,0.662 0.869,0.888c0.391,0.226 0.8,0.387 1.227,0.485l1.996,0.513c1.709,0.415 2.933,0.775 3.671,1.08c0.739,0.305 1.309,0.766 1.712,1.382c0.403,0.617 0.605,1.365 0.605,2.243c-0,1.685 -0.696,3.132 -2.088,4.34c-1.392,1.209 -3.18,1.813 -5.365,1.813c-0.769,-0 -1.724,-0.086 -2.865,-0.257c-1.142,-0.17 -2.115,-0.36 -2.921,-0.567l-0.092,-0.238l0.184,-1.227c0.061,-0.378 0.097,-0.76 0.109,-1.144c0.013,-0.385 0.025,-1.194 0.037,-2.427l0.165,-0.164Z" style="fill-rule:nonzero;"/>
    <path d="M30.113,104.251l0,-26.794c0,-0 14.568,-11.981 20.951,-11.899c6.384,0.083 12.057,7.653 17.352,12.395c5.537,4.957 10.412,17.104 15.865,17.352c5.454,0.248 11.155,-11.32 16.856,-15.865c5.412,-4.314 12.147,-11.651 17.352,-11.403c5.206,0.248 9.172,13.056 13.882,12.89c4.71,-0.165 9.254,-15.451 14.377,-13.881c5.123,1.57 6.882,23.763 16.361,23.301c10.163,-0.496 34.621,-24.045 44.619,-26.276c6.526,-1.456 8.841,12.725 15.369,12.89c6.528,0.165 15.452,-13.633 23.797,-11.898c8.346,1.735 17.931,20.987 26.276,22.309c8.346,1.322 15.782,-10.907 23.797,-14.377c7.688,-3.329 17.187,-6.693 24.293,-6.445c6.658,0.232 13.127,3.79 18.343,7.932c5.619,4.462 9.833,17.435 15.369,18.84c5.536,1.404 11.32,-9.007 17.848,-10.412c6.528,-1.404 15.286,0.083 21.318,1.984c5.597,1.763 9.47,11.71 14.873,9.419c7.602,-3.222 20.244,-23.549 30.738,-28.755c9.651,-4.787 23.88,-4.379 32.225,-2.478c7.349,1.673 11.726,9.486 17.848,13.881c6.445,4.627 13.469,13.386 20.823,13.882c7.353,0.496 16.154,-6.166 23.301,-10.907c8.345,-5.536 19.087,-20.327 26.771,-22.31c7.088,-1.829 12.477,10.163 19.335,10.411c6.859,0.248 14.804,-12.469 21.814,-8.924c7.189,3.636 14.46,30.986 21.319,30.738c6.858,-0.248 12.972,-29.085 19.83,-32.225c6.859,-3.14 14.626,13.055 21.319,13.386c6.693,0.33 12.559,-13.799 18.839,-11.403c6.28,2.396 12.229,23.219 18.839,25.78c6.611,2.562 14.791,-10.163 20.823,-10.411c5.919,-0.243 10.328,8.924 15.369,8.924c5.04,0 10.821,-4.8 14.873,-8.924c4.627,-4.71 6.693,-21.07 12.89,-19.335c6.197,1.735 16.939,29.829 24.293,29.746c7.353,-0.082 12.521,-27.515 19.83,-30.242c7.31,-2.726 24.027,13.882 24.027,13.882l-0,35.222l-804.004,0Z" style="fill:rgb(0,174,239);"/>
</svg>
