<?xml version="1.0" encoding="UTF-8" standalone="no"?>
<!DOCTYPE svg PUBLIC "-//W3C//DTD SVG 1.1//EN" "http://www.w3.org/Graphics/SVG/1.1/DTD/svg11.dtd">
<svg width="100%" height="100%" viewBox="0 0 827 709" version="1.1" xmlns="http://www.w3.org/2000/svg" xmlns:xlink="http://www.w3.org/1999/xlink" xml:space="preserve" xmlns:serif="http://www.serif.com/" style="fill-rule:evenodd;clip-rule:evenodd;stroke-linecap:round;stroke-linejoin:round;stroke-miterlimit:1.5;">
    <path d="M290.005,679.446c-0,0 -4.649,-10.644 -4.617,-15.308c0.032,-4.665 2.969,-8.81 4.809,-12.679c1.924,-4.045 6.637,-7.607 6.733,-11.591c0.096,-3.985 -4.392,-8.151 -6.156,-12.317c-1.674,-3.954 -4.52,-8.875 -4.424,-12.678c0.096,-3.804 5.066,-6.702 5.001,-10.143c-0.064,-3.441 -5.995,-6.762 -5.386,-10.505c0.609,-3.743 9.221,-5.028 9.041,-11.954c-0.192,-7.426 -9.329,-25.297 -10.195,-32.602c-0.565,-4.768 4.937,-6.46 5.002,-11.23c0.064,-4.769 -5.291,-11.29 -4.617,-17.387c0.673,-6.098 8.143,-13.101 8.656,-19.199c0.513,-6.098 -4.232,-11.532 -5.578,-17.388c-1.292,-5.617 -2.597,-12.558 -2.501,-17.75c0.09,-4.864 1.47,-9.591 3.078,-13.403c1.731,-4.105 6.765,-7.184 7.31,-11.229c0.545,-4.045 -3.495,-8.272 -4.04,-13.041c-0.545,-4.77 0.032,-11.169 0.769,-15.577c0.685,-4.089 4.544,-6.919 3.655,-10.867c-1.25,-5.554 -9.137,-14.792 -11.157,-22.459c-1.858,-7.052 -1.699,-17.448 -0.962,-23.546c0.65,-5.369 3.681,-8.567 5.387,-13.041c1.795,-4.709 5.193,-9.841 5.386,-15.214c0.192,-5.373 -2.393,-11.804 -4.232,-17.025c-2.148,-6.098 -7.887,-13.947 -8.657,-19.561c-0.71,-5.179 3.944,-9.117 4.04,-14.128c0.096,-5.011 -4.838,-10.816 -3.463,-15.939c1.411,-5.252 12.023,-10.565 11.927,-15.576c-0.096,-5.011 -11.285,-9.479 -12.504,-14.49c-1.218,-5.011 5.066,-10.686 5.194,-15.576c0.128,-4.891 -5.354,-9.177 -4.424,-13.766c0.929,-4.588 9.009,-8.935 10.003,-13.765c0.994,-4.83 -3.944,-10.807 -4.04,-15.214c-0.094,-4.325 3.463,-7.547 3.463,-11.23c-0,-3.682 -1.863,-7.906 -3.463,-10.867c-1.827,-3.381 -8.176,-4.89 -7.502,-9.418c0.673,-4.528 11.574,-12.377 11.542,-17.75c-0.032,-5.374 -10.677,-9.149 -11.735,-14.49c-1.058,-5.341 5.387,-17.555 5.387,-17.555l46.652,-0l-0,587.458l-43.382,0Z" style="fill:rgb(0,174,239);stroke:black;stroke-width:2.06px;"/>
    <path d="M346.606,679.446l-0,-150.941" style="fill:none;stroke:black;stroke-width:3.55px;"/>
    <path d="M83.348,679.446l0,-587.458" style="fill:none;stroke:black;stroke-width:3.55px;"/>
    <path d="M346.606,242.929l-0,-150.941" style="fill:none;stroke:black;stroke-width:3.55px;"/>
    <path d="M29.469,41.148l0.147,-0.147l0.897,0l0.146,0.147c0.062,1.562 0.144,2.518 0.248,2.866c0.103,0.347 0.433,0.714 0.988,1.098c0.556,0.385 1.294,0.699 2.216,0.943c0.922,0.244 1.852,0.366 2.792,0.366c1.294,0 2.457,-0.238 3.489,-0.714c1.031,-0.476 1.834,-1.175 2.407,-2.096c0.574,-0.922 0.861,-1.956 0.861,-3.104c-0,-0.806 -0.137,-1.508 -0.412,-2.106c-0.275,-0.598 -0.659,-1.077 -1.154,-1.437c-0.494,-0.36 -1.059,-0.629 -1.693,-0.806c-0.635,-0.177 -1.581,-0.369 -2.838,-0.576c-1.221,-0.196 -2.176,-0.373 -2.866,-0.531c-0.69,-0.159 -1.376,-0.403 -2.06,-0.733c-0.684,-0.33 -1.254,-0.748 -1.712,-1.254c-0.458,-0.507 -0.824,-1.129 -1.099,-1.868c-0.274,-0.738 -0.412,-1.529 -0.412,-2.371c0,-2.283 0.794,-4.154 2.381,-5.612c1.587,-1.459 3.717,-2.188 6.39,-2.188c1.062,-0 2.219,0.131 3.47,0.393c1.251,0.263 2.389,0.65 3.415,1.163l0.128,0.22c-0.268,1.123 -0.433,2.722 -0.494,4.797l-0.165,0.147l-0.952,-0l-0.147,-0.129c-0.024,-1.464 -0.061,-2.386 -0.11,-2.764c-0.048,-0.379 -0.604,-0.849 -1.666,-1.41c-1.062,-0.562 -2.215,-0.843 -3.461,-0.843c-1.037,0 -2.008,0.208 -2.911,0.623c-0.903,0.415 -1.587,1.068 -2.051,1.959c-0.464,0.891 -0.696,1.801 -0.696,2.728c0,0.721 0.141,1.358 0.422,1.914c0.28,0.555 0.644,0.995 1.089,1.318c0.446,0.324 0.964,0.565 1.556,0.723c0.593,0.159 1.676,0.354 3.251,0.586c2.16,0.306 3.732,0.675 4.715,1.108c0.982,0.434 1.77,1.12 2.362,2.06c0.592,0.94 0.888,2.075 0.888,3.406c-0,2.6 -1.059,4.767 -3.177,6.5c-2.118,1.734 -4.685,2.6 -7.7,2.6c-2.527,0 -4.742,-0.451 -6.646,-1.355l-0.11,-0.238c0.122,-0.769 0.213,-2.563 0.274,-5.383Z" style="fill-rule:nonzero;"/>
    <path d="M63.893,44.755l-0.586,1.318c-1.269,0.818 -2.402,1.349 -3.396,1.593c-0.995,0.245 -1.883,0.367 -2.665,0.367c-1.464,-0 -2.853,-0.287 -4.165,-0.861c-1.313,-0.574 -2.381,-1.544 -3.205,-2.911c-0.824,-1.367 -1.236,-3.015 -1.236,-4.944c0,-1.282 0.159,-2.438 0.477,-3.47c0.317,-1.031 0.65,-1.797 0.997,-2.298c0.348,-0.5 0.937,-1.056 1.767,-1.666c0.83,-0.611 1.709,-1.099 2.637,-1.465c0.928,-0.366 1.929,-0.549 3.003,-0.549c1.465,-0 2.756,0.344 3.873,1.034c1.117,0.69 1.901,1.572 2.353,2.646c0.451,1.074 0.677,2.216 0.677,3.424c0,0.379 -0.018,0.745 -0.055,1.099l-0.201,0.201c-0.83,0.183 -1.947,0.305 -3.351,0.366c-1.404,0.061 -2.332,0.092 -2.783,0.092l-5.878,-0c0.024,2.527 0.659,4.388 1.904,5.585c1.245,1.196 2.771,1.794 4.578,1.794c0.854,0 1.675,-0.146 2.463,-0.439c0.787,-0.293 1.62,-0.702 2.499,-1.227l0.293,0.311Zm-11.737,-7.489c0.22,0.037 1.065,0.079 2.536,0.128c1.471,0.049 2.561,0.073 3.269,0.073c1.696,0 2.728,-0.03 3.094,-0.091c0.012,-0.293 0.018,-0.519 0.018,-0.678c0,-1.892 -0.384,-3.298 -1.153,-4.22c-0.769,-0.922 -1.819,-1.383 -3.15,-1.383c-1.452,0 -2.585,0.519 -3.396,1.557c-0.812,1.037 -1.218,2.576 -1.218,4.614Z" style="fill-rule:nonzero;"/>
    <path d="M71.931,29.997l0.348,0.238c-0.073,0.818 -0.122,1.892 -0.146,3.222c0.976,-0.805 1.904,-1.623 2.783,-2.453c0.256,-0.232 0.498,-0.403 0.723,-0.513c0.226,-0.11 0.602,-0.226 1.126,-0.348c0.525,-0.122 1.062,-0.183 1.612,-0.183c0.928,0 1.828,0.189 2.701,0.568c0.872,0.378 1.532,0.827 1.977,1.346c0.446,0.518 0.754,1.132 0.925,1.84c0.171,0.708 0.256,1.581 0.256,2.618l0,3.223c0,0.207 0.031,1.727 0.092,4.559c0.024,1.16 0.152,1.85 0.384,2.069c0.232,0.22 0.989,0.33 2.271,0.33l0.146,0.146l0,0.788l-0.146,0.146c-1.551,-0.097 -2.6,-0.146 -3.15,-0.146c-0.317,-0 -1.208,0.049 -2.673,0.146l-0.22,-0.201c0.159,-1.587 0.238,-3.656 0.238,-6.207l0,-2.399c0,-1.441 -0.033,-2.478 -0.1,-3.113c-0.068,-0.635 -0.272,-1.211 -0.614,-1.73c-0.342,-0.519 -0.799,-0.922 -1.373,-1.209c-0.574,-0.287 -1.257,-0.43 -2.051,-0.43c-0.635,-0 -1.178,0.064 -1.63,0.192c-0.451,0.128 -0.958,0.391 -1.519,0.788c-0.562,0.396 -0.977,0.769 -1.245,1.116c-0.269,0.348 -0.431,0.672 -0.486,0.971c-0.055,0.299 -0.082,0.937 -0.082,1.913l-0,3.186c-0,0.269 0.024,1.133 0.073,2.591c0.049,1.459 0.101,2.311 0.156,2.555c0.055,0.244 0.137,0.421 0.247,0.531c0.11,0.11 0.244,0.18 0.403,0.21c0.159,0.031 0.818,0.083 1.977,0.156l0.165,0.146l0,0.769l-0.146,0.165c-1.526,-0.097 -2.997,-0.146 -4.413,-0.146c-1.404,-0 -2.869,0.049 -4.395,0.146l-0.164,-0.165l-0,-0.769l0.164,-0.146c1.184,-0.073 1.853,-0.128 2.005,-0.165c0.153,-0.037 0.287,-0.113 0.403,-0.229c0.116,-0.116 0.195,-0.293 0.238,-0.531c0.043,-0.238 0.092,-1.025 0.147,-2.362c0.055,-1.337 0.082,-2.347 0.082,-3.03l0,-3.607c0,-0.489 -0.024,-1.154 -0.073,-1.996c-0.049,-0.843 -0.089,-1.361 -0.119,-1.557c-0.031,-0.195 -0.125,-0.338 -0.284,-0.43c-0.159,-0.092 -0.476,-0.137 -0.952,-0.137l-1.538,-0.019l-0.165,-0.146l-0,-0.787l0.146,-0.147c2.332,-0.281 4.297,-0.738 5.896,-1.373Z" style="fill-rule:nonzero;"/>
    <path d="M89.345,42.063l0.787,0l0.165,0.165c0.024,1.026 0.085,1.905 0.183,2.637c0.378,0.574 1.032,1.041 1.959,1.401c0.928,0.36 1.844,0.54 2.747,0.54c1.294,-0 2.328,-0.348 3.103,-1.044c0.776,-0.696 1.163,-1.526 1.163,-2.49c0,-0.525 -0.14,-0.98 -0.421,-1.364c-0.281,-0.385 -0.705,-0.702 -1.273,-0.952c-0.567,-0.251 -1.583,-0.547 -3.048,-0.888c-1.258,-0.293 -2.136,-0.522 -2.637,-0.687c-0.5,-0.165 -0.983,-0.443 -1.446,-0.833c-0.464,-0.391 -0.818,-0.87 -1.062,-1.438c-0.245,-0.567 -0.367,-1.193 -0.367,-1.876c0,-1.636 0.65,-2.945 1.95,-3.928c1.3,-0.983 2.921,-1.474 4.862,-1.474c0.818,0 1.709,0.113 2.673,0.339c0.965,0.226 1.697,0.442 2.197,0.65l0.165,0.256c-0.097,0.488 -0.158,1.77 -0.183,3.845l-0.165,0.165l-0.732,0l-0.165,-0.165c-0.049,-0.744 -0.116,-1.266 -0.201,-1.565c-0.086,-0.299 -0.305,-0.623 -0.659,-0.971c-0.354,-0.348 -0.855,-0.641 -1.502,-0.879c-0.647,-0.238 -1.331,-0.357 -2.051,-0.357c-0.744,0 -1.37,0.11 -1.877,0.33c-0.506,0.22 -0.915,0.552 -1.226,0.998c-0.312,0.445 -0.467,0.986 -0.467,1.62c-0,0.464 0.094,0.879 0.284,1.245c0.189,0.367 0.479,0.663 0.869,0.889c0.391,0.225 0.8,0.387 1.227,0.485l1.996,0.512c1.709,0.416 2.933,0.776 3.671,1.081c0.739,0.305 1.309,0.766 1.712,1.382c0.403,0.617 0.604,1.364 0.604,2.243c0,1.685 -0.695,3.131 -2.087,4.34c-1.392,1.208 -3.18,1.813 -5.365,1.813c-0.769,-0 -1.724,-0.086 -2.866,-0.257c-1.141,-0.171 -2.114,-0.36 -2.92,-0.567l-0.092,-0.238l0.184,-1.227c0.061,-0.379 0.097,-0.76 0.109,-1.145c0.013,-0.384 0.025,-1.193 0.037,-2.426l0.165,-0.165Z" style="fill-rule:nonzero;"/>
    <path d="M104.634,39.061c0,-1.453 0.299,-2.854 0.897,-4.203c0.598,-1.349 1.639,-2.514 3.122,-3.497c1.483,-0.983 3.244,-1.474 5.283,-1.474c2.563,-0 4.651,0.809 6.262,2.426c1.611,1.618 2.417,3.696 2.417,6.235c0,2.795 -0.925,5.096 -2.774,6.903c-1.849,1.807 -4.08,2.71 -6.693,2.71c-1.708,-0 -3.234,-0.461 -4.577,-1.383c-1.343,-0.921 -2.335,-2.047 -2.976,-3.378c-0.64,-1.33 -0.961,-2.777 -0.961,-4.339Zm3.461,-1.264c-0,1.709 0.22,3.238 0.659,4.587c0.439,1.349 1.135,2.432 2.087,3.25c0.953,0.818 2.039,1.227 3.26,1.227c1.44,-0 2.63,-0.571 3.57,-1.712c0.94,-1.142 1.41,-2.86 1.41,-5.155c0,-2.6 -0.51,-4.73 -1.529,-6.39c-1.019,-1.66 -2.487,-2.49 -4.404,-2.49c-1.586,-0 -2.825,0.573 -3.717,1.721c-0.891,1.147 -1.336,2.801 -1.336,4.962Z" style="fill-rule:nonzero;"/>
    <path d="M130.891,29.997l0.348,0.238c-0.073,0.708 -0.128,1.965 -0.164,3.772l1.373,-1.74c0.451,-0.573 0.851,-1.016 1.199,-1.327c0.348,-0.311 0.754,-0.553 1.218,-0.723c0.464,-0.171 0.94,-0.257 1.428,-0.257c0.537,0 1.044,0.11 1.52,0.33l0.128,0.256c-0.195,1.624 -0.305,3.052 -0.33,4.285l-0.824,-0c-0.488,-1.123 -1.275,-1.685 -2.362,-1.685c-0.756,0 -1.416,0.241 -1.977,0.723c-0.562,0.483 -0.937,1.087 -1.126,1.813c-0.189,0.727 -0.284,1.645 -0.284,2.756l-0,2.032c-0,0.367 0.024,1.264 0.073,2.692c0.049,1.428 0.101,2.252 0.156,2.472c0.055,0.22 0.14,0.381 0.256,0.485c0.116,0.104 0.269,0.174 0.458,0.211c0.189,0.036 1.059,0.097 2.609,0.183l0.165,0.146l-0,0.769l-0.165,0.165c-1.623,-0.097 -3.32,-0.146 -5.09,-0.146c-1.404,-0 -2.869,0.049 -4.395,0.146l-0.165,-0.165l0,-0.769l0.165,-0.146c1.184,-0.073 1.853,-0.128 2.005,-0.165c0.153,-0.037 0.287,-0.113 0.403,-0.229c0.116,-0.116 0.195,-0.293 0.238,-0.531c0.043,-0.238 0.092,-1.025 0.147,-2.362c0.055,-1.337 0.082,-2.347 0.082,-3.03l0,-3.607c0,-0.489 -0.024,-1.154 -0.073,-1.996c-0.049,-0.843 -0.089,-1.361 -0.119,-1.557c-0.031,-0.195 -0.125,-0.338 -0.284,-0.43c-0.159,-0.092 -0.476,-0.137 -0.952,-0.137l-1.538,-0.019l-0.165,-0.146l-0,-0.787l0.146,-0.147c2.332,-0.281 4.297,-0.738 5.896,-1.373Z" style="fill-rule:nonzero;"/>
    <path d="M198.31,21.702l0.146,-0.128c2.112,0.098 3.553,0.146 4.322,0.146l8.569,-0.183c2.441,0 4.443,0.229 6.006,0.687c1.562,0.458 2.951,1.251 4.166,2.38c1.214,1.129 2.136,2.442 2.764,3.937c0.629,1.495 0.943,3.092 0.943,4.788c0,1.648 -0.286,3.278 -0.86,4.889c-0.574,1.612 -1.389,3.055 -2.445,4.331c-1.056,1.275 -2.258,2.304 -3.607,3.085c-1.349,0.781 -2.701,1.303 -4.056,1.566c-1.355,0.262 -2.74,0.393 -4.156,0.393c-0.952,0 -2.747,-0.036 -5.383,-0.11c-0.867,-0.024 -1.441,-0.036 -1.722,-0.036c-0.842,-0 -1.861,0.049 -3.057,0.146l-0.147,-0.146l0,-0.605l0.147,-0.183c0.72,-0.366 1.132,-0.595 1.236,-0.686c0.103,-0.092 0.189,-1.16 0.256,-3.205c0.067,-2.044 0.101,-3.604 0.101,-4.678l-0,-6.72l-0.019,-4.156c0,-0.904 -0.012,-1.639 -0.036,-2.207c-0.025,-0.567 -0.067,-0.973 -0.129,-1.217c-0.061,-0.245 -0.131,-0.416 -0.21,-0.513c-0.079,-0.098 -0.208,-0.18 -0.385,-0.247c-0.177,-0.068 -0.479,-0.125 -0.906,-0.174l-1.392,-0.11l-0.146,-0.128l-0,-0.916Zm6.775,23.895c1.245,0.245 2.679,0.367 4.303,0.367c2.844,-0 5.118,-0.476 6.82,-1.429c1.703,-0.952 2.976,-2.362 3.818,-4.229c0.843,-1.868 1.264,-3.974 1.264,-6.318c-0,-3.454 -0.922,-6.134 -2.765,-8.038c-1.843,-1.904 -4.749,-2.856 -8.716,-2.856c-1.636,-0 -3.21,0.122 -4.724,0.366c-0.098,2.002 -0.147,4.26 -0.147,6.775l0,5.749l0.037,5.384c-0,1.049 0.037,2.459 0.11,4.229Z" style="fill-rule:nonzero;"/>
    <path d="M232.056,21.812c0.574,-0 1.062,0.201 1.465,0.604c0.403,0.403 0.604,0.891 0.604,1.465c0,0.562 -0.201,1.044 -0.604,1.447c-0.403,0.402 -0.891,0.604 -1.465,0.604c-0.561,-0 -1.046,-0.199 -1.455,-0.595c-0.409,-0.397 -0.614,-0.882 -0.614,-1.456c0,-0.574 0.205,-1.062 0.614,-1.465c0.409,-0.403 0.894,-0.604 1.455,-0.604Zm1.557,8.185l0.348,0.238c-0.135,1.599 -0.202,3.631 -0.202,6.097l0,4.138c0,0.269 0.025,1.133 0.073,2.591c0.049,1.459 0.101,2.311 0.156,2.555c0.055,0.244 0.137,0.421 0.247,0.531c0.11,0.11 0.244,0.18 0.403,0.21c0.159,0.031 0.818,0.083 1.978,0.156l0.164,0.146l0,0.769l-0.146,0.165c-1.526,-0.097 -2.997,-0.146 -4.413,-0.146c-1.404,-0 -2.869,0.049 -4.394,0.146l-0.165,-0.165l-0,-0.769l0.165,-0.146c1.184,-0.073 1.852,-0.128 2.005,-0.165c0.152,-0.037 0.286,-0.113 0.402,-0.229c0.116,-0.116 0.196,-0.293 0.238,-0.531c0.043,-0.238 0.092,-1.025 0.147,-2.362c0.055,-1.337 0.082,-2.347 0.082,-3.03l0,-3.607c0,-0.489 -0.024,-1.154 -0.073,-1.996c-0.049,-0.843 -0.088,-1.361 -0.119,-1.557c-0.03,-0.195 -0.125,-0.338 -0.284,-0.43c-0.158,-0.092 -0.476,-0.137 -0.952,-0.137l-1.538,-0.019l-0.165,-0.146l0,-0.787l0.147,-0.147c2.331,-0.281 4.297,-0.738 5.896,-1.373Z" style="fill-rule:nonzero;"/>
    <path d="M253.535,31.242l-0,-1.099c-0,-1.538 0.091,-2.639 0.274,-3.305c0.183,-0.665 0.464,-1.26 0.842,-1.785c0.379,-0.525 1.102,-1.34 2.17,-2.445c1.068,-1.104 1.853,-1.763 2.353,-1.977c0.501,-0.214 1.026,-0.32 1.575,-0.32c0.5,-0 1.001,0.091 1.501,0.274l0,3.003l-0.421,0.165c-0.683,-0.61 -1.477,-0.916 -2.38,-0.916c-0.635,0 -1.184,0.132 -1.648,0.394c-0.464,0.262 -0.781,0.69 -0.952,1.282c-0.171,0.592 -0.257,1.571 -0.257,2.939l0,3.79l1.96,-0c1.013,-0 1.965,-0.037 2.856,-0.11l0.183,0.201l-0.329,1.612l-0.165,0.183c-0.366,-0.012 -0.604,-0.018 -0.714,-0.018l-2.399,-0.019l-1.392,0l0,7.379c0,0.391 0.028,1.285 0.083,2.683c0.055,1.398 0.107,2.219 0.155,2.463c0.049,0.244 0.132,0.421 0.248,0.531c0.116,0.11 0.305,0.189 0.567,0.238c0.263,0.049 1.102,0.091 2.518,0.128l0.146,0.146l0,0.769l-0.146,0.165c-0.378,0 -1.093,-0.024 -2.142,-0.073c-0.953,-0.049 -1.935,-0.073 -2.948,-0.073c-1.404,-0 -2.875,0.049 -4.413,0.146l-0.147,-0.165l0,-0.769l0.147,-0.146c1.184,-0.073 1.855,-0.128 2.014,-0.165c0.159,-0.037 0.293,-0.113 0.403,-0.229c0.11,-0.116 0.186,-0.293 0.229,-0.531c0.042,-0.238 0.091,-1.025 0.146,-2.362c0.055,-1.337 0.083,-2.347 0.083,-3.03l-0,-7.105l-8.863,0l0,7.379c0,0.391 0.028,1.285 0.083,2.683c0.055,1.398 0.106,2.219 0.155,2.463c0.049,0.244 0.131,0.421 0.247,0.531c0.116,0.11 0.306,0.189 0.568,0.238c0.263,0.049 0.949,0.091 2.06,0.128l0.147,0.146l-0,0.769l-0.147,0.165c-0.464,-0.024 -1.099,-0.055 -1.904,-0.091c-0.806,-0.037 -1.715,-0.055 -2.729,-0.055c-1.318,-0 -2.789,0.049 -4.412,0.146l-0.147,-0.165l0,-0.769l0.147,-0.146c1.184,-0.073 1.855,-0.128 2.014,-0.165c0.158,-0.037 0.293,-0.113 0.403,-0.229c0.109,-0.116 0.186,-0.293 0.228,-0.531c0.043,-0.238 0.092,-1.025 0.147,-2.362c0.055,-1.337 0.082,-2.347 0.082,-3.03l0,-7.068l-2.362,0.128l-0.164,-0.146l-0,-0.458l0.128,-0.183l2.398,-1.227l0,-1.099c0,-1.22 0.055,-2.145 0.165,-2.774c0.11,-0.628 0.314,-1.208 0.614,-1.739c0.299,-0.531 0.82,-1.203 1.565,-2.014c0.745,-0.812 1.398,-1.477 1.959,-1.996c0.562,-0.519 1.05,-0.867 1.465,-1.044c0.415,-0.177 0.904,-0.265 1.465,-0.265c0.464,-0 0.964,0.091 1.502,0.274l-0.019,3.003l-0.421,0.165c-0.684,-0.61 -1.477,-0.916 -2.38,-0.916c-0.635,0 -1.184,0.132 -1.648,0.394c-0.464,0.262 -0.782,0.69 -0.952,1.282c-0.171,0.592 -0.257,1.571 -0.257,2.939l0,3.79l8.863,-0Z" style="fill-rule:nonzero;"/>
    <path d="M268.439,29.997l0.348,0.238c-0.134,1.599 -0.201,3.631 -0.201,6.097l-0,4.267c-0,1.562 0.119,2.649 0.357,3.259c0.238,0.61 0.65,1.077 1.236,1.401c0.586,0.323 1.282,0.485 2.087,0.485c0.891,-0 1.703,-0.174 2.436,-0.522c0.732,-0.348 1.345,-0.839 1.84,-1.474c0.494,-0.635 0.778,-1.062 0.851,-1.282c0.073,-0.219 0.122,-0.836 0.147,-1.849l0.055,-2.051l-0,-1.977c-0,-0.489 -0.025,-1.154 -0.074,-1.996c-0.048,-0.843 -0.088,-1.361 -0.119,-1.557c-0.03,-0.195 -0.125,-0.338 -0.283,-0.43c-0.159,-0.092 -0.477,-0.137 -0.953,-0.137l-1.538,-0.019l-0.165,-0.146l0,-0.787l0.147,-0.147c2.332,-0.281 4.297,-0.738 5.896,-1.373l0.348,0.238c-0.134,1.599 -0.202,3.631 -0.202,6.097l0,3.223c0,0.183 0.031,1.678 0.092,4.486c0.024,1.038 0.089,1.669 0.192,1.895c0.104,0.226 0.247,0.385 0.431,0.476c0.183,0.092 0.726,0.138 1.629,0.138l0.513,-0l0.165,0.146l-0,0.732l-0.147,0.165c-1.721,-0.097 -2.875,-0.146 -3.46,-0.146c-0.745,-0 -1.606,0.042 -2.582,0.128l-0.165,-0.147c0.073,-1.245 0.128,-2.301 0.165,-3.167c-0.769,0.598 -1.648,1.397 -2.637,2.398c-0.378,0.379 -0.922,0.696 -1.63,0.953c-0.708,0.256 -1.513,0.384 -2.417,0.384c-1.367,0 -2.432,-0.217 -3.195,-0.65c-0.763,-0.433 -1.303,-1.031 -1.62,-1.794c-0.318,-0.763 -0.476,-2.079 -0.476,-3.946l0.018,-1.447l-0,-3.57c-0,-0.489 -0.024,-1.154 -0.073,-1.996c-0.049,-0.843 -0.089,-1.361 -0.119,-1.557c-0.031,-0.195 -0.125,-0.338 -0.284,-0.43c-0.159,-0.092 -0.476,-0.137 -0.952,-0.137l-1.538,-0.019l-0.165,-0.146l-0,-0.787l0.146,-0.147c2.332,-0.281 4.297,-0.738 5.896,-1.373Z" style="fill-rule:nonzero;"/>
    <path d="M286.567,42.063l0.787,0l0.165,0.165c0.024,1.026 0.085,1.905 0.183,2.637c0.378,0.574 1.032,1.041 1.959,1.401c0.928,0.36 1.844,0.54 2.747,0.54c1.294,-0 2.328,-0.348 3.103,-1.044c0.776,-0.696 1.163,-1.526 1.163,-2.49c0,-0.525 -0.14,-0.98 -0.421,-1.364c-0.281,-0.385 -0.705,-0.702 -1.273,-0.952c-0.567,-0.251 -1.583,-0.547 -3.048,-0.888c-1.258,-0.293 -2.136,-0.522 -2.637,-0.687c-0.5,-0.165 -0.983,-0.443 -1.446,-0.833c-0.464,-0.391 -0.818,-0.87 -1.063,-1.438c-0.244,-0.567 -0.366,-1.193 -0.366,-1.876c0,-1.636 0.65,-2.945 1.95,-3.928c1.3,-0.983 2.921,-1.474 4.862,-1.474c0.818,0 1.709,0.113 2.673,0.339c0.964,0.226 1.697,0.442 2.197,0.65l0.165,0.256c-0.097,0.488 -0.158,1.77 -0.183,3.845l-0.165,0.165l-0.732,0l-0.165,-0.165c-0.049,-0.744 -0.116,-1.266 -0.201,-1.565c-0.086,-0.299 -0.306,-0.623 -0.66,-0.971c-0.354,-0.348 -0.854,-0.641 -1.501,-0.879c-0.647,-0.238 -1.331,-0.357 -2.051,-0.357c-0.744,0 -1.37,0.11 -1.877,0.33c-0.506,0.22 -0.915,0.552 -1.226,0.998c-0.312,0.445 -0.467,0.986 -0.467,1.62c-0,0.464 0.094,0.879 0.283,1.245c0.19,0.367 0.48,0.663 0.87,0.889c0.391,0.225 0.8,0.387 1.227,0.485l1.996,0.512c1.709,0.416 2.933,0.776 3.671,1.081c0.739,0.305 1.309,0.766 1.712,1.382c0.403,0.617 0.604,1.364 0.604,2.243c0,1.685 -0.695,3.131 -2.087,4.34c-1.392,1.208 -3.18,1.813 -5.365,1.813c-0.769,-0 -1.724,-0.086 -2.866,-0.257c-1.141,-0.171 -2.114,-0.36 -2.92,-0.567l-0.092,-0.238l0.183,-1.227c0.062,-0.379 0.098,-0.76 0.11,-1.145c0.013,-0.384 0.025,-1.193 0.037,-2.426l0.165,-0.165Z" style="fill-rule:nonzero;"/>
    <path d="M316.797,44.755l-0.585,1.318c-1.27,0.818 -2.402,1.349 -3.397,1.593c-0.995,0.245 -1.883,0.367 -2.664,0.367c-1.465,-0 -2.854,-0.287 -4.166,-0.861c-1.312,-0.574 -2.38,-1.544 -3.204,-2.911c-0.824,-1.367 -1.236,-3.015 -1.236,-4.944c-0,-1.282 0.158,-2.438 0.476,-3.47c0.317,-1.031 0.65,-1.797 0.998,-2.298c0.348,-0.5 0.937,-1.056 1.767,-1.666c0.83,-0.611 1.709,-1.099 2.636,-1.465c0.928,-0.366 1.929,-0.549 3.003,-0.549c1.465,-0 2.756,0.344 3.873,1.034c1.117,0.69 1.901,1.572 2.353,2.646c0.452,1.074 0.677,2.216 0.677,3.424c0,0.379 -0.018,0.745 -0.054,1.099l-0.202,0.201c-0.83,0.183 -1.947,0.305 -3.351,0.366c-1.404,0.061 -2.331,0.092 -2.783,0.092l-5.878,-0c0.025,2.527 0.66,4.388 1.905,5.585c1.245,1.196 2.771,1.794 4.577,1.794c0.855,0 1.676,-0.146 2.463,-0.439c0.787,-0.293 1.621,-0.702 2.5,-1.227l0.292,0.311Zm-11.737,-7.489c0.22,0.037 1.065,0.079 2.536,0.128c1.471,0.049 2.561,0.073 3.269,0.073c1.697,0 2.728,-0.03 3.094,-0.091c0.013,-0.293 0.019,-0.519 0.019,-0.678c-0,-1.892 -0.385,-3.298 -1.154,-4.22c-0.769,-0.922 -1.819,-1.383 -3.149,-1.383c-1.453,0 -2.585,0.519 -3.397,1.557c-0.812,1.037 -1.218,2.576 -1.218,4.614Z" style="fill-rule:nonzero;"/>
    <path d="M325.605,29.997l0.348,0.238c-0.073,0.708 -0.128,1.965 -0.165,3.772l1.373,-1.74c0.452,-0.573 0.852,-1.016 1.2,-1.327c0.347,-0.311 0.753,-0.553 1.217,-0.723c0.464,-0.171 0.94,-0.257 1.428,-0.257c0.538,0 1.044,0.11 1.52,0.33l0.128,0.256c-0.195,1.624 -0.305,3.052 -0.329,4.285l-0.824,-0c-0.488,-1.123 -1.276,-1.685 -2.362,-1.685c-0.757,0 -1.416,0.241 -1.978,0.723c-0.561,0.483 -0.937,1.087 -1.126,1.813c-0.189,0.727 -0.284,1.645 -0.284,2.756l0,2.032c0,0.367 0.025,1.264 0.074,2.692c0.048,1.428 0.1,2.252 0.155,2.472c0.055,0.22 0.141,0.381 0.257,0.485c0.116,0.104 0.268,0.174 0.457,0.211c0.19,0.036 1.059,0.097 2.61,0.183l0.164,0.146l0,0.769l-0.164,0.165c-1.624,-0.097 -3.321,-0.146 -5.091,-0.146c-1.404,-0 -2.868,0.049 -4.394,0.146l-0.165,-0.165l-0,-0.769l0.165,-0.146c1.184,-0.073 1.852,-0.128 2.005,-0.165c0.152,-0.037 0.287,-0.113 0.403,-0.229c0.116,-0.116 0.195,-0.293 0.238,-0.531c0.042,-0.238 0.091,-1.025 0.146,-2.362c0.055,-1.337 0.082,-2.347 0.082,-3.03l0,-3.607c0,-0.489 -0.024,-1.154 -0.073,-1.996c-0.049,-0.843 -0.088,-1.361 -0.119,-1.557c-0.03,-0.195 -0.125,-0.338 -0.284,-0.43c-0.158,-0.092 -0.476,-0.137 -0.952,-0.137l-1.538,-0.019l-0.165,-0.146l0,-0.787l0.147,-0.147c2.331,-0.281 4.297,-0.738 5.896,-1.373Z" style="fill-rule:nonzero;"/>
    <path d="M347.411,47.593l-0.164,-0.146l-0,-0.952l0.164,-0.147c0.892,-0.012 1.465,-0.058 1.722,-0.137c0.256,-0.08 0.485,-0.238 0.686,-0.476c0.202,-0.238 0.608,-1.017 1.218,-2.335l1.923,-4.175l4.98,-11.279c0.94,-2.209 1.874,-4.419 2.802,-6.628l1.19,-0l7.818,18.383l1.044,2.454c0.305,0.696 0.656,1.453 1.053,2.271c0.397,0.817 0.671,1.3 0.824,1.446c0.152,0.147 0.342,0.259 0.568,0.339c0.225,0.079 0.729,0.125 1.51,0.137l0.147,0.147l-0,0.952l-0.147,0.146c-1.294,-0.11 -2.46,-0.165 -3.497,-0.165c-2.027,0.061 -4.053,0.116 -6.079,0.165l-0.147,-0.146l0,-0.952l0.147,-0.147c1.367,-0.024 2.221,-0.082 2.563,-0.174c0.342,-0.091 0.513,-0.302 0.513,-0.632c-0,-0.268 -0.086,-0.622 -0.256,-1.062l-2.253,-5.584l-10.601,-0l-1.996,4.687c-0.354,0.843 -0.531,1.459 -0.531,1.85c-0,0.305 0.164,0.531 0.494,0.677c0.33,0.147 1.16,0.226 2.49,0.238l0.165,0.147l0,0.952l-0.146,0.146c-1.575,-0.097 -2.954,-0.146 -4.139,-0.146c-1.342,-0 -2.697,0.049 -4.065,0.146Zm8.35,-10.272l9.265,0l-4.596,-11.041l-4.669,11.041Z" style="fill-rule:nonzero;"/>
    <path d="M382.549,29.777l0.348,0.22c-0.122,1.391 -0.189,2.624 -0.201,3.699c1.66,-1.514 2.817,-2.515 3.47,-3.003c0.653,-0.489 1.779,-0.733 3.378,-0.733c1.001,0 1.91,0.138 2.728,0.412c0.818,0.275 1.575,0.726 2.271,1.355c0.696,0.629 1.245,1.416 1.648,2.362c0.403,0.946 0.604,2.042 0.604,3.287c0,0.879 -0.14,1.77 -0.421,2.673c-0.281,0.904 -0.65,1.74 -1.108,2.509c-0.458,0.769 -0.824,1.279 -1.099,1.529c-0.274,0.25 -0.839,0.625 -1.693,1.126c-0.769,0.464 -1.532,0.964 -2.289,1.501c-0.525,0.379 -0.891,0.623 -1.099,0.733c-0.207,0.11 -0.555,0.219 -1.043,0.329c-0.489,0.11 -1.007,0.165 -1.557,0.165c-1.269,0 -2.533,-0.323 -3.79,-0.97l-0,3.9c-0,0.268 0.024,1.132 0.073,2.591c0.049,1.459 0.101,2.31 0.156,2.554c0.055,0.244 0.137,0.421 0.247,0.531c0.11,0.11 0.244,0.18 0.403,0.211c0.158,0.03 0.818,0.082 1.977,0.155l0.165,0.147l0,0.769l-0.146,0.165c-1.526,-0.098 -2.991,-0.147 -4.395,-0.147c-1.404,0 -2.869,0.049 -4.394,0.147l-0.165,-0.165l-0,-0.769l0.165,-0.147c1.171,-0.073 1.837,-0.128 1.995,-0.164c0.159,-0.037 0.296,-0.113 0.412,-0.229c0.116,-0.116 0.196,-0.303 0.238,-0.559c0.043,-0.256 0.092,-1.074 0.147,-2.453c0.055,-1.38 0.082,-2.417 0.082,-3.113l0,-14.026c0,-0.635 -0.027,-1.37 -0.082,-2.207c-0.055,-0.836 -0.101,-1.321 -0.137,-1.455c-0.037,-0.135 -0.125,-0.244 -0.266,-0.33c-0.14,-0.085 -0.455,-0.128 -0.943,-0.128l-1.538,-0.018l-0.165,-0.147l0,-0.787l0.147,-0.147c2.331,-0.28 4.291,-0.738 5.877,-1.373Zm0.147,14.044c0.561,0.574 1.257,1.071 2.087,1.493c0.83,0.421 1.746,0.631 2.747,0.631c1.184,0 2.231,-0.299 3.14,-0.897c0.91,-0.598 1.615,-1.474 2.115,-2.627c0.501,-1.154 0.751,-2.433 0.751,-3.837c-0,-1.135 -0.223,-2.191 -0.669,-3.167c-0.445,-0.977 -1.135,-1.746 -2.069,-2.307c-0.934,-0.562 -1.925,-0.843 -2.975,-0.843c-0.647,0 -1.276,0.113 -1.886,0.339c-0.61,0.226 -1.181,0.559 -1.712,0.998c-0.531,0.439 -0.913,0.858 -1.145,1.254c-0.232,0.397 -0.354,0.727 -0.366,0.989c-0.012,0.262 -0.018,0.552 -0.018,0.87l-0,7.104Z" style="fill-rule:nonzero;"/>
    <path d="M414.501,44.755l-0.586,1.318c-1.269,0.818 -2.401,1.349 -3.396,1.593c-0.995,0.245 -1.883,0.367 -2.664,0.367c-1.465,-0 -2.854,-0.287 -4.166,-0.861c-1.312,-0.574 -2.38,-1.544 -3.204,-2.911c-0.824,-1.367 -1.236,-3.015 -1.236,-4.944c-0,-1.282 0.158,-2.438 0.476,-3.47c0.317,-1.031 0.65,-1.797 0.998,-2.298c0.348,-0.5 0.937,-1.056 1.767,-1.666c0.83,-0.611 1.709,-1.099 2.636,-1.465c0.928,-0.366 1.929,-0.549 3.003,-0.549c1.465,-0 2.756,0.344 3.873,1.034c1.117,0.69 1.901,1.572 2.353,2.646c0.451,1.074 0.677,2.216 0.677,3.424c0,0.379 -0.018,0.745 -0.055,1.099l-0.201,0.201c-0.83,0.183 -1.947,0.305 -3.351,0.366c-1.404,0.061 -2.331,0.092 -2.783,0.092l-5.878,-0c0.025,2.527 0.659,4.388 1.905,5.585c1.245,1.196 2.771,1.794 4.577,1.794c0.855,0 1.676,-0.146 2.463,-0.439c0.787,-0.293 1.62,-0.702 2.499,-1.227l0.293,0.311Zm-11.737,-7.489c0.22,0.037 1.065,0.079 2.536,0.128c1.471,0.049 2.561,0.073 3.269,0.073c1.696,0 2.728,-0.03 3.094,-0.091c0.012,-0.293 0.018,-0.519 0.018,-0.678c0,-1.892 -0.384,-3.298 -1.153,-4.22c-0.769,-0.922 -1.819,-1.383 -3.149,-1.383c-1.453,0 -2.585,0.519 -3.397,1.557c-0.812,1.037 -1.218,2.576 -1.218,4.614Z" style="fill-rule:nonzero;"/>
    <path d="M423.309,29.997l0.348,0.238c-0.074,0.708 -0.129,1.965 -0.165,3.772l1.373,-1.74c0.452,-0.573 0.852,-1.016 1.199,-1.327c0.348,-0.311 0.754,-0.553 1.218,-0.723c0.464,-0.171 0.94,-0.257 1.428,-0.257c0.537,0 1.044,0.11 1.52,0.33l0.128,0.256c-0.195,1.624 -0.305,3.052 -0.329,4.285l-0.824,-0c-0.489,-1.123 -1.276,-1.685 -2.362,-1.685c-0.757,0 -1.416,0.241 -1.978,0.723c-0.561,0.483 -0.937,1.087 -1.126,1.813c-0.189,0.727 -0.284,1.645 -0.284,2.756l0,2.032c0,0.367 0.025,1.264 0.073,2.692c0.049,1.428 0.101,2.252 0.156,2.472c0.055,0.22 0.14,0.381 0.256,0.485c0.116,0.104 0.269,0.174 0.458,0.211c0.189,0.036 1.059,0.097 2.609,0.183l0.165,0.146l0,0.769l-0.165,0.165c-1.623,-0.097 -3.32,-0.146 -5.09,-0.146c-1.404,-0 -2.869,0.049 -4.394,0.146l-0.165,-0.165l-0,-0.769l0.165,-0.146c1.184,-0.073 1.852,-0.128 2.005,-0.165c0.152,-0.037 0.286,-0.113 0.402,-0.229c0.116,-0.116 0.196,-0.293 0.238,-0.531c0.043,-0.238 0.092,-1.025 0.147,-2.362c0.055,-1.337 0.082,-2.347 0.082,-3.03l0,-3.607c0,-0.489 -0.024,-1.154 -0.073,-1.996c-0.049,-0.843 -0.088,-1.361 -0.119,-1.557c-0.03,-0.195 -0.125,-0.338 -0.284,-0.43c-0.158,-0.092 -0.476,-0.137 -0.952,-0.137l-1.538,-0.019l-0.165,-0.146l0,-0.787l0.147,-0.147c2.331,-0.281 4.297,-0.738 5.896,-1.373Z" style="fill-rule:nonzero;"/>
    <path d="M431.933,33.073l-0,-0.476l0.128,-0.183c1.148,-0.427 2.075,-0.824 2.783,-1.19c0,-3.186 -0.036,-5.042 -0.11,-5.567c1.258,-0.439 2.289,-0.909 3.095,-1.41l0.439,0.366c-0.122,0.77 -0.268,3.003 -0.439,6.702c0.61,0.012 1.269,0.018 1.977,0.018c1.441,0 2.472,-0.036 3.095,-0.109l0.128,0.128l-0.348,1.538l-0.146,0.165c-0.623,-0.013 -1.312,-0.019 -2.069,-0.019c-0.684,0 -1.563,0.006 -2.637,0.019l-0.11,7.452c0,1.721 0.04,2.847 0.119,3.378c0.079,0.531 0.299,0.946 0.659,1.245c0.36,0.3 0.894,0.449 1.602,0.449c0.818,0 1.575,-0.214 2.271,-0.641l0.439,0.659c-0.293,0.208 -0.994,0.818 -2.105,1.831c-0.635,0.293 -1.282,0.44 -1.941,0.44c-2.747,-0 -4.12,-1.331 -4.12,-3.992c-0,-0.976 0.024,-1.806 0.073,-2.49c0.012,-0.208 0.018,-0.421 0.018,-0.641l0,-7.599l-0.75,0c-0.55,0 -1.178,0.025 -1.886,0.073l-0.165,-0.146Z" style="fill-rule:nonzero;"/>
    <path d="M449.658,29.997l0.347,0.238c-0.134,1.599 -0.201,3.631 -0.201,6.097l0,4.267c0,1.562 0.119,2.649 0.357,3.259c0.238,0.61 0.65,1.077 1.236,1.401c0.586,0.323 1.282,0.485 2.087,0.485c0.892,-0 1.703,-0.174 2.436,-0.522c0.732,-0.348 1.346,-0.839 1.84,-1.474c0.494,-0.635 0.778,-1.062 0.851,-1.282c0.074,-0.219 0.122,-0.836 0.147,-1.849l0.055,-2.051l-0,-1.977c-0,-0.489 -0.025,-1.154 -0.073,-1.996c-0.049,-0.843 -0.089,-1.361 -0.119,-1.557c-0.031,-0.195 -0.126,-0.338 -0.284,-0.43c-0.159,-0.092 -0.476,-0.137 -0.952,-0.137l-1.538,-0.019l-0.165,-0.146l-0,-0.787l0.146,-0.147c2.332,-0.281 4.297,-0.738 5.896,-1.373l0.348,0.238c-0.134,1.599 -0.201,3.631 -0.201,6.097l-0,3.223c-0,0.183 0.03,1.678 0.091,4.486c0.025,1.038 0.089,1.669 0.193,1.895c0.103,0.226 0.247,0.385 0.43,0.476c0.183,0.092 0.726,0.138 1.629,0.138l0.513,-0l0.165,0.146l-0,0.732l-0.147,0.165c-1.721,-0.097 -2.874,-0.146 -3.46,-0.146c-0.745,-0 -1.605,0.042 -2.582,0.128l-0.165,-0.147c0.073,-1.245 0.128,-2.301 0.165,-3.167c-0.769,0.598 -1.648,1.397 -2.637,2.398c-0.378,0.379 -0.921,0.696 -1.629,0.953c-0.708,0.256 -1.514,0.384 -2.417,0.384c-1.368,0 -2.433,-0.217 -3.196,-0.65c-0.762,-0.433 -1.303,-1.031 -1.62,-1.794c-0.317,-0.763 -0.476,-2.079 -0.476,-3.946l0.018,-1.447l0,-3.57c0,-0.489 -0.024,-1.154 -0.073,-1.996c-0.049,-0.843 -0.089,-1.361 -0.119,-1.557c-0.031,-0.195 -0.125,-0.338 -0.284,-0.43c-0.159,-0.092 -0.476,-0.137 -0.952,-0.137l-1.538,-0.019l-0.165,-0.146l0,-0.787l0.147,-0.147c2.331,-0.281 4.296,-0.738 5.896,-1.373Z" style="fill-rule:nonzero;"/>
    <path d="M472.967,29.997l0.348,0.238c-0.073,0.708 -0.128,1.965 -0.165,3.772l1.373,-1.74c0.452,-0.573 0.852,-1.016 1.2,-1.327c0.348,-0.311 0.753,-0.553 1.217,-0.723c0.464,-0.171 0.94,-0.257 1.429,-0.257c0.537,0 1.043,0.11 1.519,0.33l0.128,0.256c-0.195,1.624 -0.305,3.052 -0.329,4.285l-0.824,-0c-0.488,-1.123 -1.276,-1.685 -2.362,-1.685c-0.757,0 -1.416,0.241 -1.978,0.723c-0.561,0.483 -0.937,1.087 -1.126,1.813c-0.189,0.727 -0.284,1.645 -0.284,2.756l0,2.032c0,0.367 0.025,1.264 0.074,2.692c0.048,1.428 0.1,2.252 0.155,2.472c0.055,0.22 0.141,0.381 0.257,0.485c0.116,0.104 0.268,0.174 0.457,0.211c0.19,0.036 1.059,0.097 2.61,0.183l0.164,0.146l0,0.769l-0.164,0.165c-1.624,-0.097 -3.321,-0.146 -5.091,-0.146c-1.404,-0 -2.868,0.049 -4.394,0.146l-0.165,-0.165l-0,-0.769l0.165,-0.146c1.184,-0.073 1.852,-0.128 2.005,-0.165c0.152,-0.037 0.287,-0.113 0.403,-0.229c0.116,-0.116 0.195,-0.293 0.238,-0.531c0.042,-0.238 0.091,-1.025 0.146,-2.362c0.055,-1.337 0.083,-2.347 0.083,-3.03l-0,-3.607c-0,-0.489 -0.025,-1.154 -0.074,-1.996c-0.049,-0.843 -0.088,-1.361 -0.119,-1.557c-0.03,-0.195 -0.125,-0.338 -0.284,-0.43c-0.158,-0.092 -0.476,-0.137 -0.952,-0.137l-1.538,-0.019l-0.165,-0.146l0,-0.787l0.147,-0.147c2.331,-0.281 4.297,-0.738 5.896,-1.373Z" style="fill-rule:nonzero;"/>
    <path d="M496.935,44.755l-0.586,1.318c-1.269,0.818 -2.401,1.349 -3.396,1.593c-0.995,0.245 -1.883,0.367 -2.664,0.367c-1.465,-0 -2.854,-0.287 -4.166,-0.861c-1.312,-0.574 -2.38,-1.544 -3.204,-2.911c-0.824,-1.367 -1.236,-3.015 -1.236,-4.944c-0,-1.282 0.158,-2.438 0.476,-3.47c0.317,-1.031 0.65,-1.797 0.998,-2.298c0.348,-0.5 0.937,-1.056 1.767,-1.666c0.83,-0.611 1.709,-1.099 2.636,-1.465c0.928,-0.366 1.929,-0.549 3.003,-0.549c1.465,-0 2.756,0.344 3.873,1.034c1.117,0.69 1.901,1.572 2.353,2.646c0.452,1.074 0.677,2.216 0.677,3.424c0,0.379 -0.018,0.745 -0.055,1.099l-0.201,0.201c-0.83,0.183 -1.947,0.305 -3.351,0.366c-1.404,0.061 -2.331,0.092 -2.783,0.092l-5.878,-0c0.025,2.527 0.66,4.388 1.905,5.585c1.245,1.196 2.771,1.794 4.577,1.794c0.855,0 1.676,-0.146 2.463,-0.439c0.787,-0.293 1.621,-0.702 2.499,-1.227l0.293,0.311Zm-11.737,-7.489c0.22,0.037 1.065,0.079 2.536,0.128c1.471,0.049 2.561,0.073 3.269,0.073c1.697,0 2.728,-0.03 3.094,-0.091c0.012,-0.293 0.019,-0.519 0.019,-0.678c-0,-1.892 -0.385,-3.298 -1.154,-4.22c-0.769,-0.922 -1.819,-1.383 -3.149,-1.383c-1.453,0 -2.585,0.519 -3.397,1.557c-0.812,1.037 -1.218,2.576 -1.218,4.614Z" style="fill-rule:nonzero;"/>
    <g transform="matrix(1,0,0,1,521.941,307.208)">
        <g transform="matrix(37.5,0,0,37.5,92.6403,61.6769)">
            <path d="M0.023,-0.336c0,-0.049 0.007,-0.095 0.021,-0.137c0.014,-0.042 0.038,-0.082 0.072,-0.118c0.034,-0.036 0.074,-0.063 0.122,-0.083c0.047,-0.02 0.101,-0.03 0.161,-0.03c0.111,0 0.199,0.031 0.265,0.091c0.066,0.06 0.099,0.143 0.099,0.247c-0,0.074 -0.016,0.14 -0.049,0.199c-0.032,0.058 -0.078,0.104 -0.138,0.136c-0.06,0.033 -0.128,0.049 -0.202,0.049c-0.054,0 -0.102,-0.009 -0.147,-0.027c-0.045,-0.017 -0.083,-0.044 -0.114,-0.079c-0.031,-0.035 -0.054,-0.076 -0.068,-0.122c-0.014,-0.046 -0.022,-0.088 -0.022,-0.126Zm0.102,-0.033c0,0.04 0.006,0.083 0.019,0.129c0.013,0.045 0.032,0.084 0.058,0.117c0.025,0.033 0.055,0.057 0.088,0.073c0.034,0.016 0.072,0.024 0.114,0.024c0.051,0 0.096,-0.011 0.135,-0.035c0.039,-0.023 0.069,-0.059 0.09,-0.107c0.02,-0.049 0.031,-0.103 0.031,-0.164c-0,-0.066 -0.012,-0.125 -0.035,-0.178c-0.024,-0.053 -0.057,-0.092 -0.101,-0.116c-0.043,-0.024 -0.091,-0.036 -0.144,-0.036c-0.079,-0 -0.141,0.025 -0.187,0.074c-0.045,0.05 -0.068,0.123 -0.068,0.219Z" style="fill-rule:nonzero;"/>
        </g>
        <g transform="matrix(37.5,0,0,37.5,122.12,61.6769)">
            <path d="M-0.006,-0.658l-0.005,-0.004l0,-0.021l0.004,-0.004c0.062,-0.007 0.115,-0.019 0.157,-0.036l0.01,0.006c-0.004,0.037 -0.006,0.112 -0.006,0.225l0,0.124c0.006,-0.008 0.018,-0.02 0.035,-0.037c0.017,-0.017 0.031,-0.029 0.041,-0.035c0.011,-0.007 0.025,-0.013 0.044,-0.018c0.018,-0.006 0.037,-0.008 0.058,-0.008c0.036,-0 0.069,0.009 0.096,0.027c0.028,0.018 0.049,0.043 0.062,0.073c0.014,0.03 0.021,0.063 0.021,0.097c-0,0.033 -0.006,0.065 -0.017,0.094c-0.011,0.03 -0.025,0.054 -0.04,0.073c-0.009,0.012 -0.025,0.026 -0.048,0.042c-0.045,0.033 -0.077,0.054 -0.096,0.062c-0.018,0.008 -0.042,0.013 -0.071,0.013c-0.023,-0 -0.044,-0.004 -0.062,-0.01c-0.019,-0.006 -0.038,-0.016 -0.058,-0.03l-0.039,0.037l-0.017,-0.006c0.007,-0.059 0.01,-0.127 0.01,-0.202l-0,-0.259l-0.002,-0.094c-0.001,-0.036 -0.002,-0.061 -0.003,-0.075c-0.002,-0.015 -0.003,-0.023 -0.005,-0.026c-0.002,-0.003 -0.005,-0.004 -0.01,-0.006c-0.005,-0.001 -0.025,-0.002 -0.059,-0.002Zm0.16,0.349l0,0.183c0,0.015 0.001,0.025 0.002,0.03c0.002,0.005 0.008,0.012 0.02,0.022c0.012,0.009 0.026,0.017 0.045,0.024c0.018,0.007 0.037,0.011 0.056,0.011c0.047,-0 0.083,-0.018 0.109,-0.054c0.026,-0.036 0.039,-0.081 0.039,-0.136c0,-0.035 -0.005,-0.065 -0.016,-0.092c-0.011,-0.026 -0.027,-0.046 -0.049,-0.06c-0.022,-0.014 -0.047,-0.021 -0.074,-0.021c-0.032,-0 -0.06,0.009 -0.085,0.028c-0.025,0.019 -0.04,0.041 -0.047,0.065Z" style="fill-rule:nonzero;"/>
        </g>
        <g transform="matrix(37.5,0,0,37.5,142.866,61.6769)">
            <path d="M0.049,-0.144l0.021,0l0.005,0.005c0,0.027 0.002,0.051 0.005,0.07c0.01,0.015 0.027,0.028 0.052,0.038c0.025,0.009 0.049,0.014 0.073,0.014c0.035,-0 0.062,-0.009 0.083,-0.028c0.021,-0.018 0.031,-0.041 0.031,-0.066c-0,-0.014 -0.004,-0.026 -0.011,-0.037c-0.008,-0.01 -0.019,-0.018 -0.034,-0.025c-0.015,-0.007 -0.043,-0.015 -0.082,-0.024c-0.033,-0.008 -0.057,-0.014 -0.07,-0.018c-0.013,-0.004 -0.026,-0.012 -0.039,-0.022c-0.012,-0.011 -0.021,-0.023 -0.028,-0.039c-0.006,-0.015 -0.01,-0.031 -0.01,-0.05c0,-0.043 0.018,-0.078 0.052,-0.104c0.035,-0.027 0.078,-0.04 0.13,-0.04c0.022,0 0.046,0.003 0.071,0.009c0.026,0.006 0.046,0.012 0.059,0.018l0.004,0.006c-0.002,0.013 -0.004,0.048 -0.005,0.103l-0.004,0.004l-0.019,0l-0.005,-0.004c-0.001,-0.02 -0.003,-0.034 -0.005,-0.042c-0.003,-0.008 -0.008,-0.016 -0.018,-0.026c-0.009,-0.009 -0.023,-0.017 -0.04,-0.023c-0.017,-0.006 -0.035,-0.01 -0.055,-0.01c-0.019,0 -0.036,0.003 -0.05,0.009c-0.013,0.006 -0.024,0.015 -0.032,0.027c-0.009,0.012 -0.013,0.026 -0.013,0.043c0,0.012 0.003,0.023 0.008,0.033c0.005,0.01 0.013,0.018 0.023,0.024c0.01,0.006 0.021,0.01 0.033,0.013l0.053,0.014c0.046,0.011 0.078,0.02 0.098,0.028c0.02,0.008 0.035,0.021 0.045,0.037c0.011,0.017 0.017,0.037 0.017,0.06c-0,0.045 -0.019,0.084 -0.056,0.116c-0.037,0.032 -0.085,0.048 -0.143,0.048c-0.021,0 -0.046,-0.002 -0.077,-0.007c-0.03,-0.004 -0.056,-0.009 -0.077,-0.015l-0.003,-0.006l0.005,-0.033c0.002,-0.01 0.003,-0.02 0.003,-0.03c0,-0.011 0.001,-0.032 0.001,-0.065l0.004,-0.005Z" style="fill-rule:nonzero;"/>
        </g>
        <g transform="matrix(37.5,0,0,37.5,158.76,61.6769)">
            <path d="M0.432,-0.072l-0.016,0.035c-0.034,0.022 -0.064,0.036 -0.091,0.043c-0.026,0.006 -0.05,0.01 -0.071,0.01c-0.039,-0 -0.076,-0.008 -0.111,-0.023c-0.035,-0.016 -0.063,-0.042 -0.085,-0.078c-0.022,-0.036 -0.033,-0.08 -0.033,-0.132c-0,-0.034 0.004,-0.065 0.013,-0.092c0.008,-0.028 0.017,-0.048 0.026,-0.062c0.009,-0.013 0.025,-0.028 0.047,-0.044c0.022,-0.016 0.046,-0.029 0.071,-0.039c0.024,-0.01 0.051,-0.015 0.08,-0.015c0.039,0 0.073,0.009 0.103,0.028c0.03,0.018 0.051,0.042 0.063,0.07c0.012,0.029 0.018,0.059 0.018,0.092c-0,0.01 -0.001,0.02 -0.002,0.029l-0.005,0.005c-0.022,0.005 -0.052,0.009 -0.089,0.01c-0.038,0.002 -0.063,0.003 -0.075,0.003l-0.156,-0c0,0.067 0.017,0.117 0.05,0.149c0.034,0.031 0.074,0.047 0.123,0.047c0.022,0 0.044,-0.004 0.065,-0.011c0.021,-0.008 0.043,-0.019 0.067,-0.033l0.008,0.008Zm-0.313,-0.199c0.006,0 0.028,0.002 0.067,0.003c0.04,0.001 0.069,0.002 0.087,0.002c0.046,-0 0.073,-0.001 0.083,-0.003c0,-0.007 0,-0.013 0,-0.018c0,-0.05 -0.01,-0.088 -0.03,-0.112c-0.021,-0.025 -0.049,-0.037 -0.084,-0.037c-0.039,-0 -0.069,0.014 -0.091,0.041c-0.022,0.028 -0.032,0.069 -0.032,0.124Z" style="fill-rule:nonzero;"/>
        </g>
        <g transform="matrix(37.5,0,0,37.5,176.722,61.6769)">
            <path d="M0.188,-0.465l0.009,0.006c-0.002,0.019 -0.004,0.052 -0.005,0.101l0.037,-0.047c0.012,-0.015 0.023,-0.027 0.032,-0.035c0.009,-0.008 0.02,-0.015 0.032,-0.019c0.013,-0.005 0.026,-0.007 0.039,-0.007c0.014,-0 0.027,0.003 0.04,0.008l0.003,0.007c-0.005,0.044 -0.008,0.082 -0.008,0.115l-0.022,-0c-0.013,-0.03 -0.034,-0.045 -0.063,-0.045c-0.02,-0 -0.038,0.006 -0.053,0.019c-0.015,0.013 -0.025,0.029 -0.03,0.048c-0.005,0.02 -0.008,0.044 -0.008,0.074l0,0.054c0,0.01 0.001,0.034 0.002,0.072c0.002,0.038 0.003,0.06 0.005,0.066c0.001,0.006 0.003,0.01 0.006,0.013c0.003,0.002 0.008,0.004 0.013,0.005c0.005,0.001 0.028,0.003 0.069,0.005l0.005,0.004l-0,0.021l-0.005,0.004c-0.043,-0.003 -0.088,-0.004 -0.136,-0.004c-0.037,-0 -0.076,0.001 -0.117,0.004l-0.004,-0.004l-0,-0.021l0.004,-0.004c0.032,-0.002 0.05,-0.003 0.054,-0.004c0.004,-0.001 0.007,-0.003 0.01,-0.006c0.004,-0.003 0.006,-0.008 0.007,-0.015c0.001,-0.006 0.002,-0.027 0.004,-0.063c0.001,-0.035 0.002,-0.062 0.002,-0.08l-0,-0.097c-0,-0.013 -0.001,-0.03 -0.002,-0.053c-0.001,-0.022 -0.002,-0.036 -0.003,-0.041c-0.001,-0.005 -0.004,-0.009 -0.008,-0.012c-0.004,-0.002 -0.013,-0.003 -0.025,-0.003l-0.041,-0.001l-0.005,-0.004l0,-0.021l0.004,-0.004c0.062,-0.007 0.115,-0.019 0.157,-0.036Z" style="fill-rule:nonzero;"/>
        </g>
        <g transform="matrix(37.5,0,0,37.5,191.536,61.6769)">
            <path d="M0.249,0.009l-0.03,-0.077l-0.036,-0.083l-0.1,-0.233c-0.007,-0.016 -0.013,-0.026 -0.018,-0.031c-0.005,-0.004 -0.01,-0.007 -0.015,-0.008c-0.005,-0.001 -0.016,-0.002 -0.031,-0.003l-0.004,-0.004l-0,-0.021l0.004,-0.004c0.046,0.002 0.082,0.003 0.108,0.003c0.038,0 0.076,-0.001 0.114,-0.003l0.004,0.004l0,0.021l-0.004,0.004c-0.034,0.001 -0.053,0.004 -0.059,0.007c-0.005,0.004 -0.008,0.009 -0.008,0.015c-0,0.009 0.006,0.03 0.019,0.063l0.06,0.148l0.047,0.111l0.049,-0.111l0.04,-0.1c0.016,-0.039 0.026,-0.066 0.03,-0.082c0.005,-0.015 0.007,-0.026 0.007,-0.031c0,-0.006 -0.003,-0.011 -0.01,-0.014c-0.008,-0.002 -0.026,-0.004 -0.055,-0.006l-0.004,-0.004l0,-0.021l0.005,-0.004c0.04,0.002 0.07,0.003 0.091,0.003c0.017,0 0.046,-0.001 0.087,-0.003l0.004,0.004l-0,0.021l-0.004,0.004c-0.019,0.002 -0.032,0.005 -0.038,0.009c-0.007,0.003 -0.013,0.011 -0.019,0.022c-0.006,0.011 -0.023,0.046 -0.052,0.105l-0.047,0.1c-0.008,0.017 -0.036,0.083 -0.084,0.199l-0.051,-0Z" style="fill-rule:nonzero;"/>
        </g>
        <g transform="matrix(37.5,0,0,37.5,212.08,61.6769)">
            <path d="M0.432,-0.072l-0.016,0.035c-0.034,0.022 -0.064,0.036 -0.091,0.043c-0.026,0.006 -0.05,0.01 -0.071,0.01c-0.039,-0 -0.076,-0.008 -0.111,-0.023c-0.035,-0.016 -0.063,-0.042 -0.085,-0.078c-0.022,-0.036 -0.033,-0.08 -0.033,-0.132c-0,-0.034 0.004,-0.065 0.013,-0.092c0.008,-0.028 0.017,-0.048 0.026,-0.062c0.009,-0.013 0.025,-0.028 0.047,-0.044c0.022,-0.016 0.046,-0.029 0.071,-0.039c0.024,-0.01 0.051,-0.015 0.08,-0.015c0.039,0 0.073,0.009 0.103,0.028c0.03,0.018 0.051,0.042 0.063,0.07c0.012,0.029 0.018,0.059 0.018,0.092c-0,0.01 -0.001,0.02 -0.002,0.029l-0.005,0.005c-0.022,0.005 -0.052,0.009 -0.089,0.01c-0.038,0.002 -0.063,0.003 -0.075,0.003l-0.156,-0c0,0.067 0.017,0.117 0.05,0.149c0.034,0.031 0.074,0.047 0.123,0.047c0.022,0 0.044,-0.004 0.065,-0.011c0.021,-0.008 0.043,-0.019 0.067,-0.033l0.008,0.008Zm-0.313,-0.199c0.006,0 0.028,0.002 0.067,0.003c0.04,0.001 0.069,0.002 0.087,0.002c0.046,-0 0.073,-0.001 0.083,-0.003c0,-0.007 0,-0.013 0,-0.018c0,-0.05 -0.01,-0.088 -0.03,-0.112c-0.021,-0.025 -0.049,-0.037 -0.084,-0.037c-0.039,-0 -0.069,0.014 -0.091,0.041c-0.022,0.028 -0.032,0.069 -0.032,0.124Z" style="fill-rule:nonzero;"/>
        </g>
        <g transform="matrix(37.5,0,0,37.5,230.043,61.6769)">
            <path d="M0.329,-0.662l-0,-0.021l0.004,-0.004c0.062,-0.007 0.114,-0.019 0.157,-0.036l0.009,0.006c-0.004,0.037 -0.005,0.112 -0.005,0.225l-0,0.32c-0,0.033 0,0.061 0.001,0.086c0.002,0.024 0.004,0.039 0.006,0.044c0.003,0.004 0.008,0.008 0.015,0.011c0.007,0.003 0.026,0.005 0.057,0.008l0.004,0.004l0,0.019l-0.004,0.004c-0.035,-0.002 -0.063,-0.004 -0.082,-0.004c-0.018,0 -0.043,0.002 -0.075,0.004l-0.006,-0.005c0.001,-0.032 0.002,-0.055 0.002,-0.067c-0,-0.002 -0,-0.008 0,-0.019c-0.018,0.013 -0.036,0.028 -0.054,0.044c-0.026,0.023 -0.043,0.038 -0.051,0.043c-0.015,0.008 -0.037,0.012 -0.064,0.012c-0.045,-0 -0.083,-0.011 -0.115,-0.033c-0.031,-0.023 -0.054,-0.051 -0.067,-0.085c-0.013,-0.035 -0.02,-0.07 -0.02,-0.106c0,-0.037 0.007,-0.072 0.021,-0.106c0.014,-0.034 0.033,-0.059 0.059,-0.075c0.025,-0.015 0.053,-0.031 0.083,-0.048c0.03,-0.017 0.06,-0.025 0.09,-0.025c0.041,-0 0.081,0.01 0.118,0.03l-0.002,-0.108c-0,-0.038 -0.001,-0.064 -0.003,-0.079c-0.001,-0.015 -0.003,-0.024 -0.005,-0.027c-0.002,-0.002 -0.005,-0.004 -0.01,-0.006c-0.004,-0.001 -0.024,-0.002 -0.059,-0.002l-0.004,-0.004Zm0.083,0.31c-0.02,-0.023 -0.042,-0.04 -0.067,-0.052c-0.025,-0.012 -0.049,-0.018 -0.074,-0.018c-0.027,-0 -0.053,0.007 -0.076,0.022c-0.024,0.015 -0.041,0.037 -0.051,0.066c-0.011,0.029 -0.016,0.061 -0.016,0.095c-0,0.057 0.014,0.102 0.043,0.137c0.029,0.034 0.065,0.052 0.109,0.052c0.024,-0 0.045,-0.006 0.063,-0.017c0.018,-0.011 0.034,-0.025 0.045,-0.044c0.012,-0.018 0.019,-0.037 0.021,-0.056c0.002,-0.018 0.003,-0.052 0.003,-0.102l0,-0.083Z" style="fill-rule:nonzero;"/>
        </g>
        <g transform="matrix(37.5,0,0,37.5,127.65,111.665)">
            <path d="M0.049,-0.144l0.021,0l0.005,0.005c0,0.027 0.002,0.051 0.005,0.07c0.01,0.015 0.027,0.028 0.052,0.038c0.025,0.009 0.049,0.014 0.073,0.014c0.035,-0 0.062,-0.009 0.083,-0.028c0.021,-0.018 0.031,-0.041 0.031,-0.066c-0,-0.014 -0.004,-0.026 -0.011,-0.037c-0.008,-0.01 -0.019,-0.018 -0.034,-0.025c-0.015,-0.007 -0.043,-0.015 -0.082,-0.024c-0.033,-0.008 -0.057,-0.014 -0.07,-0.018c-0.013,-0.004 -0.026,-0.012 -0.039,-0.022c-0.012,-0.011 -0.021,-0.023 -0.028,-0.039c-0.006,-0.015 -0.01,-0.031 -0.01,-0.05c0,-0.043 0.018,-0.078 0.052,-0.104c0.035,-0.027 0.078,-0.04 0.13,-0.04c0.022,0 0.046,0.003 0.071,0.009c0.026,0.006 0.046,0.012 0.059,0.018l0.004,0.006c-0.002,0.013 -0.004,0.048 -0.005,0.103l-0.004,0.004l-0.019,0l-0.005,-0.004c-0.001,-0.02 -0.003,-0.034 -0.005,-0.042c-0.003,-0.008 -0.008,-0.016 -0.018,-0.026c-0.009,-0.009 -0.023,-0.017 -0.04,-0.023c-0.017,-0.006 -0.035,-0.01 -0.055,-0.01c-0.019,0 -0.036,0.003 -0.05,0.009c-0.013,0.006 -0.024,0.015 -0.032,0.027c-0.009,0.012 -0.013,0.026 -0.013,0.043c0,0.012 0.003,0.023 0.008,0.033c0.005,0.01 0.013,0.018 0.023,0.024c0.01,0.006 0.021,0.01 0.033,0.013l0.053,0.014c0.046,0.011 0.078,0.02 0.098,0.028c0.02,0.008 0.035,0.021 0.045,0.037c0.011,0.017 0.017,0.037 0.017,0.06c-0,0.045 -0.019,0.084 -0.056,0.116c-0.037,0.032 -0.085,0.048 -0.143,0.048c-0.021,0 -0.046,-0.002 -0.077,-0.007c-0.03,-0.004 -0.056,-0.009 -0.077,-0.015l-0.003,-0.006l0.005,-0.033c0.002,-0.01 0.003,-0.02 0.003,-0.03c0,-0.011 0.001,-0.032 0.001,-0.065l0.004,-0.005Z" style="fill-rule:nonzero;"/>
        </g>
        <g transform="matrix(37.5,0,0,37.5,143.544,111.665)">
            <path d="M0.424,-0.052l-0.02,0.032c-0.042,0.024 -0.089,0.035 -0.14,0.035c-0.072,0 -0.127,-0.021 -0.166,-0.064c-0.039,-0.042 -0.059,-0.097 -0.059,-0.165c0,-0.03 0.003,-0.058 0.01,-0.082c0.007,-0.024 0.015,-0.043 0.025,-0.059c0.011,-0.016 0.022,-0.028 0.034,-0.037c0.013,-0.009 0.034,-0.022 0.063,-0.038c0.03,-0.016 0.052,-0.027 0.067,-0.032c0.015,-0.005 0.035,-0.008 0.062,-0.008c0.05,0 0.092,0.01 0.124,0.029c-0.006,0.037 -0.011,0.078 -0.014,0.123l-0.005,0.004l-0.02,0l-0.004,-0.004c-0.001,-0.028 -0.003,-0.046 -0.006,-0.056c-0.002,-0.009 -0.015,-0.019 -0.038,-0.03c-0.024,-0.011 -0.049,-0.016 -0.076,-0.016c-0.026,0 -0.05,0.006 -0.071,0.017c-0.021,0.011 -0.037,0.03 -0.047,0.055c-0.011,0.026 -0.016,0.056 -0.016,0.092c-0,0.03 0.004,0.059 0.013,0.087c0.008,0.029 0.019,0.052 0.033,0.071c0.014,0.019 0.032,0.034 0.055,0.045c0.023,0.012 0.048,0.017 0.076,0.017c0.018,0 0.035,-0.002 0.052,-0.006c0.016,-0.005 0.036,-0.013 0.058,-0.023l0.01,0.013Z" style="fill-rule:nonzero;"/>
        </g>
        <g transform="matrix(37.5,0,0,37.5,160.188,111.665)">
            <path d="M0.432,-0.072l-0.016,0.035c-0.034,0.022 -0.064,0.036 -0.091,0.043c-0.026,0.006 -0.05,0.01 -0.071,0.01c-0.039,-0 -0.076,-0.008 -0.111,-0.023c-0.035,-0.016 -0.063,-0.042 -0.085,-0.078c-0.022,-0.036 -0.033,-0.08 -0.033,-0.132c-0,-0.034 0.004,-0.065 0.013,-0.092c0.008,-0.028 0.017,-0.048 0.026,-0.062c0.009,-0.013 0.025,-0.028 0.047,-0.044c0.022,-0.016 0.046,-0.029 0.071,-0.039c0.024,-0.01 0.051,-0.015 0.08,-0.015c0.039,0 0.073,0.009 0.103,0.028c0.03,0.018 0.051,0.042 0.063,0.07c0.012,0.029 0.018,0.059 0.018,0.092c-0,0.01 -0.001,0.02 -0.002,0.029l-0.005,0.005c-0.022,0.005 -0.052,0.009 -0.089,0.01c-0.038,0.002 -0.063,0.003 -0.075,0.003l-0.156,-0c0,0.067 0.017,0.117 0.05,0.149c0.034,0.031 0.074,0.047 0.123,0.047c0.022,0 0.044,-0.004 0.065,-0.011c0.021,-0.008 0.043,-0.019 0.067,-0.033l0.008,0.008Zm-0.313,-0.199c0.006,0 0.028,0.002 0.067,0.003c0.04,0.001 0.069,0.002 0.087,0.002c0.046,-0 0.073,-0.001 0.083,-0.003c0,-0.007 0,-0.013 0,-0.018c0,-0.05 -0.01,-0.088 -0.03,-0.112c-0.021,-0.025 -0.049,-0.037 -0.084,-0.037c-0.039,-0 -0.069,0.014 -0.091,0.041c-0.022,0.028 -0.032,0.069 -0.032,0.124Z" style="fill-rule:nonzero;"/>
        </g>
        <g transform="matrix(37.5,0,0,37.5,178.151,111.665)">
            <path d="M0.167,-0.465l0.009,0.006c-0.002,0.022 -0.003,0.05 -0.004,0.086c0.026,-0.022 0.051,-0.043 0.075,-0.065c0.006,-0.007 0.013,-0.011 0.019,-0.014c0.006,-0.003 0.016,-0.006 0.03,-0.009c0.014,-0.004 0.028,-0.005 0.043,-0.005c0.025,-0 0.049,0.005 0.072,0.015c0.023,0.01 0.041,0.022 0.053,0.036c0.012,0.014 0.02,0.03 0.024,0.049c0.005,0.019 0.007,0.042 0.007,0.07l0,0.086c0,0.005 0.001,0.046 0.003,0.121c0,0.031 0.004,0.049 0.01,0.055c0.006,0.006 0.026,0.009 0.06,0.009l0.004,0.004l0,0.021l-0.004,0.004c-0.041,-0.003 -0.069,-0.004 -0.084,-0.004c-0.008,0 -0.032,0.001 -0.071,0.004l-0.006,-0.005c0.004,-0.043 0.007,-0.098 0.007,-0.166l-0,-0.064c-0,-0.038 -0.001,-0.066 -0.003,-0.083c-0.002,-0.017 -0.007,-0.032 -0.016,-0.046c-0.01,-0.014 -0.022,-0.025 -0.037,-0.032c-0.015,-0.008 -0.034,-0.012 -0.055,-0.012c-0.017,0 -0.031,0.002 -0.043,0.005c-0.012,0.004 -0.026,0.011 -0.041,0.021c-0.015,0.011 -0.026,0.021 -0.033,0.03c-0.007,0.009 -0.011,0.018 -0.013,0.026c-0.001,0.008 -0.002,0.025 -0.002,0.051l-0,0.085c-0,0.007 0.001,0.03 0.002,0.069c0.001,0.039 0.003,0.062 0.004,0.068c0.001,0.007 0.004,0.011 0.007,0.014c0.003,0.003 0.006,0.005 0.01,0.006c0.005,0.001 0.022,0.002 0.053,0.004l0.004,0.004l0,0.021l-0.003,0.004c-0.041,-0.003 -0.08,-0.004 -0.118,-0.004c-0.038,-0 -0.077,0.001 -0.117,0.004l-0.005,-0.004l0,-0.021l0.005,-0.004c0.031,-0.002 0.049,-0.003 0.053,-0.004c0.004,-0.001 0.008,-0.003 0.011,-0.006c0.003,-0.003 0.005,-0.008 0.006,-0.015c0.001,-0.006 0.003,-0.027 0.004,-0.063c0.002,-0.035 0.002,-0.062 0.002,-0.08l0,-0.097c0,-0.013 -0,-0.03 -0.002,-0.053c-0.001,-0.022 -0.002,-0.036 -0.003,-0.041c-0.001,-0.005 -0.003,-0.009 -0.007,-0.012c-0.005,-0.002 -0.013,-0.003 -0.026,-0.003l-0.041,-0.001l-0.004,-0.004l-0,-0.021l0.004,-0.004c0.062,-0.007 0.114,-0.019 0.157,-0.036Z" style="fill-rule:nonzero;"/>
        </g>
        <g transform="matrix(37.5,0,0,37.5,199.977,111.665)">
            <path d="M0.432,-0.072l-0.016,0.035c-0.034,0.022 -0.064,0.036 -0.091,0.043c-0.026,0.006 -0.05,0.01 -0.071,0.01c-0.039,-0 -0.076,-0.008 -0.111,-0.023c-0.035,-0.016 -0.063,-0.042 -0.085,-0.078c-0.022,-0.036 -0.033,-0.08 -0.033,-0.132c-0,-0.034 0.004,-0.065 0.013,-0.092c0.008,-0.028 0.017,-0.048 0.026,-0.062c0.009,-0.013 0.025,-0.028 0.047,-0.044c0.022,-0.016 0.046,-0.029 0.071,-0.039c0.024,-0.01 0.051,-0.015 0.08,-0.015c0.039,0 0.073,0.009 0.103,0.028c0.03,0.018 0.051,0.042 0.063,0.07c0.012,0.029 0.018,0.059 0.018,0.092c-0,0.01 -0.001,0.02 -0.002,0.029l-0.005,0.005c-0.022,0.005 -0.052,0.009 -0.089,0.01c-0.038,0.002 -0.063,0.003 -0.075,0.003l-0.156,-0c0,0.067 0.017,0.117 0.05,0.149c0.034,0.031 0.074,0.047 0.123,0.047c0.022,0 0.044,-0.004 0.065,-0.011c0.021,-0.008 0.043,-0.019 0.067,-0.033l0.008,0.008Zm-0.313,-0.199c0.006,0 0.028,0.002 0.067,0.003c0.04,0.001 0.069,0.002 0.087,0.002c0.046,-0 0.073,-0.001 0.083,-0.003c0,-0.007 0,-0.013 0,-0.018c0,-0.05 -0.01,-0.088 -0.03,-0.112c-0.021,-0.025 -0.049,-0.037 -0.084,-0.037c-0.039,-0 -0.069,0.014 -0.091,0.041c-0.022,0.028 -0.032,0.069 -0.032,0.124Z" style="fill-rule:nonzero;"/>
        </g>
    </g>
</svg>
