<?xml version="1.0" encoding="UTF-8" standalone="no"?>
<!DOCTYPE svg PUBLIC "-//W3C//DTD SVG 1.1//EN" "http://www.w3.org/Graphics/SVG/1.1/DTD/svg11.dtd">
<svg width="100%" height="100%" viewBox="0 0 1276 532" version="1.1" xmlns="http://www.w3.org/2000/svg" xmlns:xlink="http://www.w3.org/1999/xlink" xml:space="preserve" xmlns:serif="http://www.serif.com/" style="fill-rule:evenodd;clip-rule:evenodd;stroke-linecap:round;stroke-linejoin:round;stroke-miterlimit:1.5;">
    <path d="M110.86,16.941l-0,405.559" style="fill:none;stroke:black;stroke-width:4.12px;"/>
    <path d="M560.333,16.941l-0,405.559" style="fill:none;stroke:black;stroke-width:4.12px;"/>
    <path d="M757.115,16.941l0,405.559" style="fill:none;stroke:black;stroke-width:2.81px;stroke-dasharray:2.81,14.03,0,0;"/>
    <path d="M953.898,16.941l-0,405.559" style="fill:none;stroke:black;stroke-width:4.12px;"/>
    <path d="M1150.68,16.941l0,405.559" style="fill:none;stroke:black;stroke-width:4.12px;"/>
    <path d="M65.476,219.721l1135.97,-0" style="fill:none;stroke:rgb(35,31,32);stroke-width:2.81px;"/>
    <path d="M25.441,436.071l0.147,-0.128c3.027,0.097 4.773,0.146 5.236,0.146c0.415,0 2.167,-0.049 5.256,-0.146l0.146,0.128l0,0.915l-0.146,0.129c-0.843,0.024 -1.493,0.061 -1.95,0.109c-0.458,0.049 -0.791,0.141 -0.998,0.275c-0.208,0.134 -0.345,0.449 -0.412,0.943c-0.068,0.494 -0.101,1.181 -0.101,2.06l-0.037,4.211l0,8.094c0,2.026 0.012,3.442 0.037,4.248l0.091,3.167l3.736,0c2.978,0 4.837,-0.036 5.575,-0.109c0.739,-0.074 1.45,-0.251 2.134,-0.531c0.134,-0.306 0.326,-1.007 0.576,-2.106c0.251,-1.099 0.382,-1.734 0.394,-1.904l0.165,-0.147l0.897,0l0.128,0.147c-0.097,0.488 -0.198,1.434 -0.302,2.838c-0.104,1.404 -0.156,2.539 -0.156,3.405l-0.146,0.147c-2.319,-0.073 -5.365,-0.11 -9.137,-0.11l-5.347,-0.037c-1.22,0 -2.466,0.049 -3.735,0.147l-0.147,-0.147l0,-0.604l0.147,-0.183c0.757,-0.391 1.172,-0.629 1.245,-0.714c0.073,-0.085 0.15,-0.873 0.229,-2.362c0.079,-1.489 0.119,-3.284 0.119,-5.383l-0,-7.856l-0.037,-3.57c-0.012,-1.392 -0.045,-2.289 -0.1,-2.692c-0.055,-0.403 -0.141,-0.671 -0.257,-0.805c-0.116,-0.135 -0.338,-0.245 -0.668,-0.33c-0.33,-0.085 -1.141,-0.153 -2.435,-0.201l-0.147,-0.129l0,-0.915Z" style="fill-rule:nonzero;"/>
    <path d="M49.007,436.071l0.146,-0.128c4.187,0.073 6.867,0.11 8.039,0.11c4.004,-0 7.568,-0.037 10.693,-0.11l0.092,0.128c-0.306,1.172 -0.531,3.009 -0.678,5.511l-0.11,0.147l-0.897,-0l-0.165,-0.147c0.012,-0.11 0.019,-0.207 0.019,-0.293c-0,-1.037 -0.08,-2.026 -0.239,-2.966c-0.769,-0.342 -1.834,-0.565 -3.195,-0.668c-1.361,-0.104 -2.383,-0.156 -3.067,-0.156c-0.964,0 -2.197,0.067 -3.698,0.201l-0.074,2.93l-0.055,3.351l-0.055,3.717c1.319,0.073 2.533,0.11 3.644,0.11c1.123,-0 2.063,-0.037 2.82,-0.11c0.757,-0.073 1.199,-0.149 1.328,-0.229c0.128,-0.079 0.225,-0.232 0.293,-0.458c0.067,-0.225 0.125,-0.625 0.173,-1.199l0.074,-1.135l0.146,-0.147l0.842,0l0.147,0.147c-0.024,1.33 -0.055,2.667 -0.092,4.01l0.092,4.12l-0.147,0.146l-0.842,0l-0.146,-0.146l-0.128,-1.099c-0.11,-0.854 -0.19,-1.364 -0.238,-1.529c-0.049,-0.165 -0.162,-0.308 -0.339,-0.43c-0.177,-0.122 -0.632,-0.22 -1.364,-0.293c-0.733,-0.073 -1.74,-0.11 -3.022,-0.11c-0.708,-0 -1.788,0.031 -3.241,0.092c-0.061,1.025 -0.091,2.734 -0.091,5.126c-0,2.564 0.03,4.45 0.091,5.658l3.37,0c2.966,0 4.821,-0.036 5.566,-0.109c0.745,-0.074 1.453,-0.251 2.124,-0.531c0.11,-0.281 0.29,-0.931 0.54,-1.95c0.25,-1.02 0.394,-1.658 0.43,-1.914l0.184,-0.128l0.878,-0l0.147,0.128c-0.11,0.525 -0.217,1.44 -0.32,2.747c-0.104,1.306 -0.156,2.423 -0.156,3.35l-0.128,0.147c-2.332,-0.073 -5.384,-0.11 -9.156,-0.11l-4.98,-0.037c-1.16,0 -2.368,0.049 -3.626,0.147l-0.146,-0.147l-0,-0.604l0.146,-0.183c0.721,-0.366 1.133,-0.595 1.236,-0.687c0.104,-0.091 0.19,-1.159 0.257,-3.204c0.067,-2.045 0.1,-3.604 0.1,-4.678l0,-6.72l-0.018,-4.157c0,-0.903 -0.012,-1.638 -0.036,-2.206c-0.025,-0.568 -0.068,-0.974 -0.129,-1.218c-0.061,-0.244 -0.131,-0.415 -0.21,-0.512c-0.08,-0.098 -0.208,-0.181 -0.385,-0.248c-0.177,-0.067 -0.479,-0.125 -0.906,-0.174l-1.392,-0.109l-0.146,-0.129l-0,-0.915Z" style="fill-rule:nonzero;"/>
    <path d="M71.126,436.071l0.146,-0.128c2.112,0.097 3.553,0.146 4.322,0.146l8.569,-0.183c2.441,0 4.443,0.229 6.006,0.687c1.562,0.457 2.951,1.251 4.166,2.38c1.214,1.129 2.136,2.441 2.764,3.937c0.629,1.495 0.943,3.091 0.943,4.788c0,1.648 -0.286,3.278 -0.86,4.889c-0.574,1.611 -1.389,3.055 -2.445,4.33c-1.055,1.276 -2.258,2.304 -3.607,3.086c-1.349,0.781 -2.701,1.303 -4.056,1.565c-1.355,0.263 -2.74,0.394 -4.156,0.394c-0.952,-0 -2.747,-0.037 -5.383,-0.11c-0.867,-0.024 -1.441,-0.037 -1.722,-0.037c-0.842,0 -1.861,0.049 -3.057,0.147l-0.147,-0.147l0,-0.604l0.147,-0.183c0.72,-0.366 1.132,-0.595 1.236,-0.687c0.103,-0.091 0.189,-1.159 0.256,-3.204c0.067,-2.045 0.101,-3.604 0.101,-4.678l-0,-6.72l-0.019,-4.157c0,-0.903 -0.012,-1.638 -0.036,-2.206c-0.025,-0.568 -0.067,-0.974 -0.128,-1.218c-0.062,-0.244 -0.132,-0.415 -0.211,-0.512c-0.079,-0.098 -0.208,-0.181 -0.385,-0.248c-0.177,-0.067 -0.479,-0.125 -0.906,-0.174l-1.392,-0.109l-0.146,-0.129l-0,-0.915Zm6.775,23.895c1.245,0.244 2.679,0.366 4.303,0.366c2.844,0 5.118,-0.476 6.821,-1.428c1.702,-0.952 2.975,-2.362 3.817,-4.23c0.843,-1.867 1.264,-3.973 1.264,-6.317c-0,-3.454 -0.922,-6.134 -2.765,-8.038c-1.843,-1.904 -4.749,-2.857 -8.716,-2.857c-1.636,0 -3.21,0.123 -4.724,0.367c-0.098,2.002 -0.147,4.26 -0.147,6.775l0,5.749l0.037,5.383c0,1.05 0.037,2.46 0.11,4.23Z" style="fill-rule:nonzero;"/>
    <path d="M112.856,449.401l-0.714,-0.183l-0.147,-0.183l0,-2.271c2.173,-1.611 4.285,-2.417 6.336,-2.417c1.403,0 2.569,0.263 3.497,0.788c0.928,0.524 1.599,1.181 2.014,1.968c0.415,0.787 0.623,1.706 0.623,2.756l-0.092,3.68l0,5.457c0,0.744 0.052,1.196 0.156,1.355c0.103,0.158 0.222,0.265 0.357,0.32c0.134,0.055 0.384,0.101 0.75,0.137l1.044,0.092l0.147,0.165l-0,0.732l-0.147,0.147c-0.891,-0.074 -1.721,-0.11 -2.49,-0.11c-0.732,-0 -1.611,0.036 -2.637,0.11l-0.274,-0.257l0.073,-2.948l-3.992,3.113c-0.671,0.281 -1.404,0.421 -2.197,0.421c-0.977,0 -1.816,-0.177 -2.518,-0.531c-0.702,-0.354 -1.239,-0.848 -1.611,-1.483c-0.373,-0.635 -0.559,-1.404 -0.559,-2.307c0,-1.794 0.562,-3.195 1.685,-4.202c1.123,-1.007 4.187,-1.865 9.192,-2.573c-0,-1.807 -0.403,-3.079 -1.209,-3.818c-0.805,-0.738 -1.886,-1.107 -3.241,-1.107c-0.708,-0 -1.352,0.103 -1.931,0.311c-0.58,0.207 -0.913,0.375 -0.998,0.503c-0.086,0.129 -0.415,0.876 -0.989,2.243l-0.128,0.092Zm8.496,2.893c-3.418,0.574 -5.548,1.19 -6.391,1.849c-0.842,0.66 -1.263,1.679 -1.263,3.058c-0,1.905 0.946,2.857 2.838,2.857c1.624,-0 3.229,-0.94 4.816,-2.82l-0,-4.944Z" style="fill-rule:nonzero;"/>
    <path d="M134.755,444.366l0.348,0.238c-0.073,0.708 -0.128,1.965 -0.165,3.772l1.374,-1.74c0.451,-0.574 0.851,-1.016 1.199,-1.327c0.348,-0.312 0.754,-0.553 1.218,-0.724c0.463,-0.171 0.939,-0.256 1.428,-0.256c0.537,-0 1.043,0.11 1.52,0.329l0.128,0.257c-0.196,1.623 -0.305,3.052 -0.33,4.285l-0.824,-0c-0.488,-1.124 -1.276,-1.685 -2.362,-1.685c-0.757,-0 -1.416,0.241 -1.977,0.723c-0.562,0.482 -0.937,1.087 -1.127,1.813c-0.189,0.726 -0.283,1.645 -0.283,2.756l-0,2.032c-0,0.366 0.024,1.264 0.073,2.692c0.049,1.428 0.101,2.252 0.155,2.472c0.055,0.219 0.141,0.381 0.257,0.485c0.116,0.104 0.268,0.174 0.458,0.211c0.189,0.036 1.059,0.097 2.609,0.183l0.165,0.146l-0,0.769l-0.165,0.165c-1.624,-0.098 -3.32,-0.147 -5.09,-0.147c-1.404,0 -2.869,0.049 -4.395,0.147l-0.165,-0.165l0,-0.769l0.165,-0.146c1.184,-0.074 1.852,-0.129 2.005,-0.165c0.153,-0.037 0.287,-0.113 0.403,-0.229c0.116,-0.116 0.195,-0.293 0.238,-0.531c0.043,-0.238 0.091,-1.025 0.146,-2.362c0.055,-1.337 0.083,-2.347 0.083,-3.031l-0,-3.607c-0,-0.488 -0.025,-1.153 -0.073,-1.996c-0.049,-0.842 -0.089,-1.361 -0.12,-1.556c-0.03,-0.195 -0.125,-0.339 -0.283,-0.43c-0.159,-0.092 -0.476,-0.138 -0.952,-0.138l-1.539,-0.018l-0.164,-0.146l-0,-0.788l0.146,-0.146c2.332,-0.281 4.297,-0.739 5.896,-1.373Z" style="fill-rule:nonzero;"/>
    <path d="M149.568,444.366l0.348,0.238c-0.073,0.708 -0.128,1.965 -0.165,3.772l1.374,-1.74c0.451,-0.574 0.851,-1.016 1.199,-1.327c0.348,-0.312 0.754,-0.553 1.218,-0.724c0.464,-0.171 0.94,-0.256 1.428,-0.256c0.537,-0 1.044,0.11 1.52,0.329l0.128,0.257c-0.195,1.623 -0.305,3.052 -0.33,4.285l-0.824,-0c-0.488,-1.124 -1.275,-1.685 -2.362,-1.685c-0.757,-0 -1.416,0.241 -1.977,0.723c-0.562,0.482 -0.937,1.087 -1.126,1.813c-0.19,0.726 -0.284,1.645 -0.284,2.756l-0,2.032c-0,0.366 0.024,1.264 0.073,2.692c0.049,1.428 0.101,2.252 0.156,2.472c0.055,0.219 0.14,0.381 0.256,0.485c0.116,0.104 0.269,0.174 0.458,0.211c0.189,0.036 1.059,0.097 2.609,0.183l0.165,0.146l-0,0.769l-0.165,0.165c-1.623,-0.098 -3.32,-0.147 -5.09,-0.147c-1.404,0 -2.869,0.049 -4.395,0.147l-0.165,-0.165l0,-0.769l0.165,-0.146c1.184,-0.074 1.853,-0.129 2.005,-0.165c0.153,-0.037 0.287,-0.113 0.403,-0.229c0.116,-0.116 0.195,-0.293 0.238,-0.531c0.043,-0.238 0.092,-1.025 0.147,-2.362c0.055,-1.337 0.082,-2.347 0.082,-3.031l-0,-3.607c-0,-0.488 -0.024,-1.153 -0.073,-1.996c-0.049,-0.842 -0.089,-1.361 -0.119,-1.556c-0.031,-0.195 -0.125,-0.339 -0.284,-0.43c-0.159,-0.092 -0.476,-0.138 -0.952,-0.138l-1.538,-0.018l-0.165,-0.146l-0,-0.788l0.146,-0.146c2.332,-0.281 4.297,-0.739 5.896,-1.373Z" style="fill-rule:nonzero;"/>
    <path d="M161.232,449.401l-0.714,-0.183l-0.146,-0.183l-0,-2.271c2.172,-1.611 4.284,-2.417 6.335,-2.417c1.404,0 2.57,0.263 3.497,0.788c0.928,0.524 1.599,1.181 2.015,1.968c0.415,0.787 0.622,1.706 0.622,2.756l-0.091,3.68l-0,5.457c-0,0.744 0.051,1.196 0.155,1.355c0.104,0.158 0.223,0.265 0.357,0.32c0.134,0.055 0.385,0.101 0.751,0.137l1.044,0.092l0.146,0.165l0,0.732l-0.146,0.147c-0.891,-0.074 -1.722,-0.11 -2.491,-0.11c-0.732,-0 -1.611,0.036 -2.636,0.11l-0.275,-0.257l0.073,-2.948l-3.991,3.113c-0.672,0.281 -1.404,0.421 -2.198,0.421c-0.976,0 -1.815,-0.177 -2.517,-0.531c-0.702,-0.354 -1.239,-0.848 -1.612,-1.483c-0.372,-0.635 -0.558,-1.404 -0.558,-2.307c-0,-1.794 0.561,-3.195 1.684,-4.202c1.123,-1.007 4.187,-1.865 9.192,-2.573c0,-1.807 -0.403,-3.079 -1.208,-3.818c-0.806,-0.738 -1.886,-1.107 -3.241,-1.107c-0.708,-0 -1.352,0.103 -1.932,0.311c-0.58,0.207 -0.912,0.375 -0.998,0.503c-0.085,0.129 -0.415,0.876 -0.989,2.243l-0.128,0.092Zm8.496,2.893c-3.418,0.574 -5.548,1.19 -6.39,1.849c-0.842,0.66 -1.264,1.679 -1.264,3.058c0,1.905 0.947,2.857 2.839,2.857c1.623,-0 3.228,-0.94 4.815,-2.82l0,-4.944Z" style="fill-rule:nonzero;"/>
    <path d="M176.924,471.758c0.415,-1.025 0.727,-1.965 0.934,-2.82l0.44,0c0.598,0.647 1.245,0.971 1.941,0.971c0.866,-0 1.62,-0.431 2.261,-1.291c0.641,-0.861 1.547,-2.762 2.719,-5.704c-0.464,-1.306 -0.934,-2.539 -1.41,-3.699l-2.911,-7.214c-0.305,-0.745 -0.757,-1.81 -1.355,-3.195c-0.598,-1.386 -0.955,-2.149 -1.071,-2.289c-0.116,-0.14 -0.266,-0.272 -0.449,-0.394c-0.183,-0.122 -0.678,-0.238 -1.483,-0.348l-0.147,-0.146l0,-0.732l0.165,-0.147c1.404,0.085 2.844,0.128 4.321,0.128c1.734,0 3.07,-0.043 4.01,-0.128l0.147,0.147l-0,0.732l-0.128,0.146c-0.135,0.013 -0.51,0.04 -1.126,0.083c-0.617,0.043 -1.001,0.14 -1.154,0.293c-0.153,0.152 -0.229,0.326 -0.229,0.522c0,0.207 0.189,0.882 0.568,2.023c0.378,1.141 0.744,2.151 1.098,3.03l1.154,2.857c0.757,1.88 1.343,3.265 1.758,4.156l0.97,-2.142c0.342,-0.781 0.83,-1.965 1.465,-3.552l1.52,-3.882c0.391,-1.001 0.613,-1.624 0.668,-1.868c0.055,-0.244 0.083,-0.421 0.083,-0.531c-0,-0.268 -0.098,-0.451 -0.293,-0.549c-0.196,-0.098 -0.629,-0.183 -1.3,-0.256l-0.769,-0.11l-0.129,-0.147l0,-0.805l0.147,-0.147c1.025,0.085 2.24,0.128 3.644,0.128c1.281,0 2.307,-0.043 3.076,-0.128l0.146,0.147l0,0.805l-0.146,0.147c-0.452,0.012 -0.812,0.073 -1.08,0.183c-0.269,0.11 -0.525,0.305 -0.77,0.586c-0.244,0.28 -0.683,1.071 -1.318,2.371c-0.635,1.3 -1.269,2.646 -1.904,4.037l-1.795,3.937l-4.229,9.888c-0.367,0.854 -0.821,1.77 -1.364,2.746c-0.544,0.977 -1.209,1.682 -1.996,2.115c-0.788,0.434 -1.621,0.65 -2.5,0.65c-0.769,0 -1.495,-0.201 -2.179,-0.604Z" style="fill-rule:nonzero;"/>
    <path d="M303.519,455.517l0.147,-0.147l0.897,0l0.146,0.147c0.062,1.562 0.144,2.517 0.248,2.865c0.103,0.348 0.433,0.714 0.988,1.099c0.556,0.384 1.294,0.699 2.216,0.943c0.922,0.244 1.852,0.366 2.792,0.366c1.294,0 2.457,-0.238 3.489,-0.714c1.031,-0.476 1.834,-1.175 2.407,-2.097c0.574,-0.921 0.861,-1.956 0.861,-3.103c-0,-0.806 -0.137,-1.508 -0.412,-2.106c-0.275,-0.598 -0.659,-1.077 -1.154,-1.437c-0.494,-0.36 -1.059,-0.629 -1.693,-0.806c-0.635,-0.177 -1.581,-0.369 -2.838,-0.577c-1.221,-0.195 -2.176,-0.372 -2.866,-0.531c-0.69,-0.158 -1.376,-0.403 -2.06,-0.732c-0.684,-0.33 -1.254,-0.748 -1.712,-1.254c-0.458,-0.507 -0.824,-1.13 -1.099,-1.868c-0.274,-0.739 -0.412,-1.529 -0.412,-2.371c0,-2.283 0.794,-4.154 2.381,-5.613c1.587,-1.458 3.717,-2.188 6.39,-2.188c1.062,0 2.219,0.132 3.47,0.394c1.251,0.262 2.389,0.65 3.415,1.163l0.128,0.219c-0.269,1.124 -0.433,2.723 -0.494,4.798l-0.165,0.146l-0.952,0l-0.147,-0.128c-0.024,-1.465 -0.061,-2.386 -0.11,-2.765c-0.048,-0.378 -0.604,-0.848 -1.666,-1.41c-1.062,-0.561 -2.215,-0.842 -3.461,-0.842c-1.037,0 -2.008,0.208 -2.911,0.623c-0.903,0.415 -1.587,1.068 -2.051,1.959c-0.464,0.891 -0.696,1.8 -0.696,2.728c0,0.72 0.141,1.358 0.422,1.914c0.28,0.555 0.644,0.994 1.089,1.318c0.446,0.323 0.964,0.565 1.556,0.723c0.593,0.159 1.676,0.354 3.251,0.586c2.16,0.305 3.732,0.675 4.715,1.108c0.982,0.433 1.77,1.12 2.362,2.06c0.592,0.94 0.888,2.075 0.888,3.406c-0,2.6 -1.059,4.766 -3.177,6.5c-2.118,1.733 -4.685,2.6 -7.7,2.6c-2.527,-0 -4.742,-0.452 -6.647,-1.355l-0.109,-0.238c0.122,-0.769 0.213,-2.564 0.274,-5.383Z" style="fill-rule:nonzero;"/>
    <path d="M325.638,449.401l-0.714,-0.183l-0.146,-0.183l-0,-2.271c2.173,-1.611 4.284,-2.417 6.335,-2.417c1.404,0 2.57,0.263 3.498,0.788c0.927,0.524 1.599,1.181 2.014,1.968c0.415,0.787 0.622,1.706 0.622,2.756l-0.091,3.68l-0,5.457c-0,0.744 0.052,1.196 0.155,1.355c0.104,0.158 0.223,0.265 0.357,0.32c0.135,0.055 0.385,0.101 0.751,0.137l1.044,0.092l0.146,0.165l0,0.732l-0.146,0.147c-0.891,-0.074 -1.721,-0.11 -2.49,-0.11c-0.733,-0 -1.612,0.036 -2.637,0.11l-0.275,-0.257l0.074,-2.948l-3.992,3.113c-0.672,0.281 -1.404,0.421 -2.197,0.421c-0.977,0 -1.816,-0.177 -2.518,-0.531c-0.702,-0.354 -1.239,-0.848 -1.611,-1.483c-0.373,-0.635 -0.559,-1.404 -0.559,-2.307c0,-1.794 0.562,-3.195 1.685,-4.202c1.123,-1.007 4.187,-1.865 9.192,-2.573c-0,-1.807 -0.403,-3.079 -1.209,-3.818c-0.806,-0.738 -1.886,-1.107 -3.241,-1.107c-0.708,-0 -1.352,0.103 -1.932,0.311c-0.58,0.207 -0.912,0.375 -0.998,0.503c-0.085,0.129 -0.415,0.876 -0.988,2.243l-0.129,0.092Zm8.497,2.893c-3.418,0.574 -5.549,1.19 -6.391,1.849c-0.842,0.66 -1.263,1.679 -1.263,3.058c-0,1.905 0.946,2.857 2.838,2.857c1.623,-0 3.229,-0.94 4.816,-2.82l-0,-4.944Z" style="fill-rule:nonzero;"/>
    <path d="M347.245,444.366l0.348,0.238c-0.073,0.805 -0.122,1.77 -0.147,2.893l1.74,-1.593c0.488,-0.452 0.812,-0.742 0.97,-0.87c0.159,-0.128 0.531,-0.278 1.117,-0.449c0.586,-0.171 1.203,-0.256 1.85,-0.256c1.22,-0 2.288,0.302 3.204,0.906c0.915,0.605 1.593,1.438 2.032,2.5c1.648,-1.563 2.61,-2.43 2.884,-2.6c0.275,-0.171 0.711,-0.345 1.309,-0.522c0.599,-0.177 1.197,-0.266 1.795,-0.266c0.964,0 1.849,0.208 2.655,0.623c0.806,0.415 1.446,0.958 1.923,1.629c0.476,0.672 0.753,1.398 0.833,2.179c0.079,0.782 0.119,1.856 0.119,3.223l-0,1.923c-0,0.207 0.036,1.727 0.11,4.559c0.024,1.16 0.152,1.849 0.384,2.069c0.232,0.22 0.983,0.33 2.252,0.33l0.147,0.146l-0,0.787l-0.147,0.147c-1.55,-0.098 -2.6,-0.147 -3.149,-0.147c-0.305,0 -1.19,0.049 -2.655,0.147l-0.238,-0.201c0.158,-1.587 0.238,-3.656 0.238,-6.208l-0,-2.197c-0,-1.941 -0.092,-3.299 -0.275,-4.074c-0.183,-0.775 -0.61,-1.41 -1.282,-1.904c-0.671,-0.495 -1.471,-0.742 -2.398,-0.742c-0.659,0 -1.276,0.131 -1.85,0.394c-0.573,0.262 -1.089,0.653 -1.547,1.172c-0.458,0.518 -0.711,1.001 -0.76,1.446c-0.049,0.446 -0.073,1.267 -0.073,2.463l0,2.289c0,0.537 0.024,1.544 0.073,3.021c0.049,1.477 0.101,2.338 0.156,2.582c0.055,0.244 0.14,0.418 0.256,0.522c0.116,0.103 0.25,0.17 0.403,0.201c0.153,0.031 0.809,0.082 1.968,0.156l0.165,0.146l0,0.769l-0.146,0.165c-1.526,-0.098 -2.997,-0.147 -4.413,-0.147c-1.306,0 -2.771,0.049 -4.395,0.147l-0.164,-0.165l-0,-0.769l0.164,-0.146c1.184,-0.074 1.853,-0.129 2.005,-0.165c0.153,-0.037 0.287,-0.113 0.403,-0.229c0.116,-0.116 0.196,-0.293 0.238,-0.531c0.043,-0.238 0.092,-1.025 0.147,-2.362c0.055,-1.337 0.082,-2.347 0.082,-3.031l0,-2.087c0,-1.379 -0.094,-2.441 -0.284,-3.186c-0.189,-0.745 -0.595,-1.373 -1.217,-1.886c-0.623,-0.513 -1.404,-0.769 -2.344,-0.769c-0.732,0 -1.401,0.143 -2.005,0.43c-0.604,0.287 -1.099,0.641 -1.483,1.062c-0.385,0.421 -0.623,0.815 -0.714,1.181c-0.092,0.367 -0.138,1.16 -0.138,2.381l0,2.71c0,0.537 0.025,1.544 0.074,3.021c0.048,1.477 0.1,2.338 0.155,2.582c0.055,0.244 0.141,0.418 0.257,0.522c0.116,0.103 0.25,0.17 0.402,0.201c0.153,0.031 0.809,0.082 1.969,0.156l0.165,0.146l-0,0.769l-0.147,0.165c-1.526,-0.098 -2.997,-0.147 -4.413,-0.147c-1.404,0 -2.868,0.049 -4.394,0.147l-0.165,-0.165l-0,-0.769l0.165,-0.146c1.184,-0.074 1.852,-0.129 2.005,-0.165c0.152,-0.037 0.287,-0.113 0.403,-0.229c0.116,-0.116 0.195,-0.293 0.238,-0.531c0.042,-0.238 0.091,-1.025 0.146,-2.362c0.055,-1.337 0.082,-2.347 0.082,-3.031l0,-3.607c0,-0.488 -0.024,-1.153 -0.073,-1.996c-0.049,-0.842 -0.088,-1.361 -0.119,-1.556c-0.03,-0.195 -0.125,-0.339 -0.284,-0.43c-0.158,-0.092 -0.476,-0.138 -0.952,-0.138l-1.538,-0.018l-0.165,-0.146l0,-0.788l0.147,-0.146c2.331,-0.281 4.297,-0.739 5.896,-1.373Z" style="fill-rule:nonzero;"/>
    <path d="M380.387,444.146l0.348,0.22c-0.122,1.391 -0.189,2.624 -0.202,3.698c1.661,-1.513 2.817,-2.514 3.47,-3.003c0.653,-0.488 1.779,-0.732 3.379,-0.732c1.001,-0 1.91,0.137 2.728,0.412c0.818,0.275 1.575,0.726 2.27,1.355c0.696,0.629 1.245,1.416 1.648,2.362c0.403,0.946 0.605,2.042 0.605,3.287c-0,0.879 -0.141,1.77 -0.422,2.673c-0.28,0.903 -0.65,1.74 -1.107,2.509c-0.458,0.769 -0.824,1.278 -1.099,1.528c-0.275,0.251 -0.839,0.626 -1.694,1.127c-0.769,0.463 -1.532,0.964 -2.289,1.501c-0.524,0.378 -0.891,0.623 -1.098,0.732c-0.208,0.11 -0.556,0.22 -1.044,0.33c-0.488,0.11 -1.007,0.165 -1.556,0.165c-1.27,-0 -2.533,-0.324 -3.791,-0.971l0,3.901c0,0.268 0.025,1.132 0.074,2.59c0.049,1.459 0.1,2.311 0.155,2.555c0.055,0.244 0.138,0.421 0.248,0.531c0.109,0.11 0.244,0.18 0.402,0.21c0.159,0.031 0.818,0.083 1.978,0.156l0.165,0.147l-0,0.769l-0.147,0.164c-1.526,-0.097 -2.991,-0.146 -4.394,-0.146c-1.404,-0 -2.869,0.049 -4.395,0.146l-0.165,-0.164l0,-0.769l0.165,-0.147c1.172,-0.073 1.837,-0.128 1.996,-0.165c0.159,-0.036 0.296,-0.113 0.412,-0.229c0.116,-0.116 0.195,-0.302 0.238,-0.558c0.043,-0.256 0.092,-1.074 0.146,-2.454c0.055,-1.379 0.083,-2.417 0.083,-3.113l-0,-14.025c-0,-0.635 -0.028,-1.371 -0.083,-2.207c-0.054,-0.836 -0.1,-1.321 -0.137,-1.456c-0.036,-0.134 -0.125,-0.244 -0.265,-0.329c-0.141,-0.086 -0.455,-0.128 -0.943,-0.128l-1.538,-0.019l-0.165,-0.146l-0,-0.787l0.146,-0.147c2.332,-0.281 4.291,-0.738 5.878,-1.373Zm0.146,14.044c0.562,0.574 1.258,1.071 2.088,1.492c0.83,0.421 1.745,0.632 2.746,0.632c1.185,0 2.231,-0.299 3.141,-0.897c0.909,-0.598 1.614,-1.474 2.115,-2.628c0.5,-1.153 0.75,-2.432 0.75,-3.836c0,-1.135 -0.222,-2.191 -0.668,-3.168c-0.446,-0.976 -1.135,-1.745 -2.069,-2.307c-0.934,-0.561 -1.926,-0.842 -2.976,-0.842c-0.647,0 -1.275,0.113 -1.886,0.339c-0.61,0.226 -1.181,0.558 -1.712,0.998c-0.531,0.439 -0.912,0.857 -1.144,1.254c-0.232,0.397 -0.354,0.726 -0.366,0.989c-0.012,0.262 -0.019,0.552 -0.019,0.869l0,7.105Z" style="fill-rule:nonzero;"/>
    <path d="M403,434.698l0.348,0.219c-0.134,1.404 -0.201,4.218 -0.201,8.441l-0,11.481c-0,0.269 0.024,1.132 0.073,2.591c0.049,1.459 0.101,2.31 0.156,2.554c0.055,0.245 0.137,0.422 0.247,0.531c0.11,0.11 0.244,0.18 0.403,0.211c0.159,0.031 0.818,0.082 1.977,0.156l0.165,0.146l0,0.769l-0.146,0.165c-1.526,-0.098 -2.997,-0.147 -4.413,-0.147c-1.404,0 -2.869,0.049 -4.395,0.147l-0.164,-0.165l-0,-0.769l0.164,-0.146c1.184,-0.074 1.853,-0.129 2.005,-0.165c0.153,-0.037 0.287,-0.113 0.403,-0.229c0.116,-0.116 0.195,-0.293 0.238,-0.531c0.043,-0.238 0.092,-1.025 0.147,-2.362c0.055,-1.337 0.082,-2.347 0.082,-3.031l0,-9.484l-0.073,-3.882c-0.037,-1.355 -0.076,-2.295 -0.119,-2.82c-0.043,-0.525 -0.101,-0.836 -0.174,-0.934c-0.073,-0.098 -0.202,-0.171 -0.385,-0.22c-0.183,-0.048 -0.921,-0.073 -2.215,-0.073l-0.165,-0.165l0,-0.769l0.146,-0.164c2.332,-0.269 4.297,-0.721 5.896,-1.355Z" style="fill-rule:nonzero;"/>
    <path d="M423.252,459.124l-0.586,1.318c-1.27,0.818 -2.402,1.349 -3.397,1.593c-0.994,0.244 -1.883,0.366 -2.664,0.366c-1.465,0 -2.853,-0.286 -4.165,-0.86c-1.313,-0.574 -2.381,-1.544 -3.205,-2.912c-0.824,-1.367 -1.236,-3.015 -1.236,-4.943c0,-1.282 0.159,-2.439 0.476,-3.47c0.318,-1.032 0.65,-1.798 0.998,-2.298c0.348,-0.501 0.937,-1.056 1.767,-1.666c0.83,-0.611 1.709,-1.099 2.637,-1.465c0.928,-0.367 1.929,-0.55 3.003,-0.55c1.465,0 2.756,0.345 3.873,1.035c1.116,0.69 1.901,1.572 2.352,2.646c0.452,1.074 0.678,2.215 0.678,3.424c-0,0.378 -0.018,0.744 -0.055,1.098l-0.201,0.202c-0.83,0.183 -1.947,0.305 -3.351,0.366c-1.404,0.061 -2.332,0.092 -2.783,0.092l-5.878,-0c0.024,2.527 0.659,4.388 1.904,5.584c1.245,1.197 2.771,1.795 4.578,1.795c0.854,-0 1.675,-0.147 2.463,-0.44c0.787,-0.293 1.62,-0.702 2.499,-1.226l0.293,0.311Zm-11.737,-7.489c0.22,0.036 1.065,0.079 2.536,0.128c1.471,0.049 2.56,0.073 3.268,0.073c1.697,0 2.729,-0.03 3.095,-0.091c0.012,-0.293 0.018,-0.519 0.018,-0.678c0,-1.892 -0.384,-3.299 -1.153,-4.22c-0.769,-0.922 -1.819,-1.383 -3.15,-1.383c-1.452,0 -2.585,0.519 -3.396,1.557c-0.812,1.037 -1.218,2.575 -1.218,4.614Z" style="fill-rule:nonzero;"/>
    <path d="M468.176,15.099l0.165,0.238c-0.281,0.769 -0.482,1.434 -0.604,1.996l-0.165,0.128c-0.574,-0.025 -1.141,-0.037 -1.703,-0.037c-0.659,0.012 -1.318,0.025 -1.977,0.037l-2.381,11.133c-0.793,3.491 -1.492,5.905 -2.096,7.241c-0.604,1.337 -1.383,2.512 -2.335,3.525c-0.952,1.013 -1.904,1.746 -2.856,2.198c-0.574,0.28 -1.148,0.421 -1.721,0.421c-0.403,-0 -0.837,-0.116 -1.3,-0.348c0.39,-1.148 0.677,-2.149 0.86,-3.003l0.458,-0.11c0.513,0.684 1.141,1.025 1.886,1.025c0.464,0 0.909,-0.128 1.337,-0.384c0.427,-0.257 0.83,-0.723 1.208,-1.401c0.378,-0.677 0.815,-2.103 1.309,-4.275c0.495,-2.173 0.974,-4.609 1.438,-7.306l1.464,-8.716c-0.695,-0.012 -1.184,-0.018 -1.464,-0.018c-0.708,-0 -1.166,0.012 -1.374,0.036l-0.146,-0.146l0.128,-0.55l0.128,-0.164c1.453,-0.525 2.49,-0.995 3.113,-1.41l0.732,-3.571c0.232,-1.099 0.446,-1.831 0.641,-2.197c0.196,-0.366 0.577,-0.821 1.145,-1.364c0.567,-0.544 1.324,-1.175 2.27,-1.895c0.946,-0.721 1.673,-1.188 2.179,-1.401c0.507,-0.214 1.016,-0.321 1.529,-0.321c0.781,0 1.587,0.165 2.417,0.495c-0.513,1.355 -0.861,2.368 -1.044,3.039l-0.402,0.128c-0.269,-0.402 -0.641,-0.729 -1.117,-0.979c-0.476,-0.25 -0.983,-0.376 -1.52,-0.376c-0.659,0 -1.224,0.181 -1.694,0.541c-0.47,0.36 -0.842,0.995 -1.117,1.904c-0.275,0.909 -0.717,2.994 -1.327,6.253c1.55,-0.024 2.517,-0.067 2.902,-0.128c0.384,-0.061 0.729,-0.141 1.034,-0.238Z" style="fill-rule:nonzero;"/>
    <path d="M664.959,15.099l0.165,0.238c-0.281,0.769 -0.482,1.434 -0.605,1.996l-0.164,0.128c-0.574,-0.025 -1.142,-0.037 -1.703,-0.037c-0.659,0.012 -1.319,0.025 -1.978,0.037l-2.38,11.133c-0.794,3.491 -1.492,5.905 -2.097,7.241c-0.604,1.337 -1.382,2.512 -2.334,3.525c-0.952,1.013 -1.905,1.746 -2.857,2.198c-0.573,0.28 -1.147,0.421 -1.721,0.421c-0.403,-0 -0.836,-0.116 -1.3,-0.348c0.391,-1.148 0.677,-2.149 0.861,-3.003l0.457,-0.11c0.513,0.684 1.142,1.025 1.886,1.025c0.464,0 0.91,-0.128 1.337,-0.384c0.427,-0.257 0.83,-0.723 1.209,-1.401c0.378,-0.677 0.814,-2.103 1.309,-4.275c0.494,-2.173 0.973,-4.609 1.437,-7.306l1.465,-8.716c-0.696,-0.012 -1.184,-0.018 -1.465,-0.018c-0.708,-0 -1.166,0.012 -1.373,0.036l-0.147,-0.146l0.128,-0.55l0.129,-0.164c1.452,-0.525 2.49,-0.995 3.112,-1.41l0.733,-3.571c0.232,-1.099 0.445,-1.831 0.641,-2.197c0.195,-0.366 0.577,-0.821 1.144,-1.364c0.568,-0.544 1.325,-1.175 2.271,-1.895c0.946,-0.721 1.672,-1.188 2.179,-1.401c0.506,-0.214 1.016,-0.321 1.529,-0.321c0.781,0 1.586,0.165 2.417,0.495c-0.513,1.355 -0.861,2.368 -1.044,3.039l-0.403,0.128c-0.269,-0.402 -0.641,-0.729 -1.117,-0.979c-0.476,-0.25 -0.983,-0.376 -1.52,-0.376c-0.659,0 -1.223,0.181 -1.693,0.541c-0.47,0.36 -0.843,0.995 -1.117,1.904c-0.275,0.909 -0.718,2.994 -1.328,6.253c1.55,-0.024 2.518,-0.067 2.902,-0.128c0.385,-0.061 0.73,-0.141 1.035,-0.238Z" style="fill-rule:nonzero;"/>
    <path d="M861.741,15.099l0.165,0.238c-0.281,0.769 -0.482,1.434 -0.604,1.996l-0.165,0.128c-0.574,-0.025 -1.141,-0.037 -1.703,-0.037c-0.659,0.012 -1.318,0.025 -1.977,0.037l-2.381,11.133c-0.793,3.491 -1.492,5.905 -2.096,7.241c-0.604,1.337 -1.383,2.512 -2.335,3.525c-0.952,1.013 -1.904,1.746 -2.856,2.198c-0.574,0.28 -1.148,0.421 -1.721,0.421c-0.403,-0 -0.837,-0.116 -1.301,-0.348c0.391,-1.148 0.678,-2.149 0.861,-3.003l0.458,-0.11c0.513,0.684 1.141,1.025 1.886,1.025c0.464,0 0.909,-0.128 1.337,-0.384c0.427,-0.257 0.83,-0.723 1.208,-1.401c0.378,-0.677 0.815,-2.103 1.309,-4.275c0.495,-2.173 0.974,-4.609 1.438,-7.306l1.464,-8.716c-0.695,-0.012 -1.184,-0.018 -1.464,-0.018c-0.708,-0 -1.166,0.012 -1.374,0.036l-0.146,-0.146l0.128,-0.55l0.128,-0.164c1.453,-0.525 2.49,-0.995 3.113,-1.41l0.732,-3.571c0.232,-1.099 0.446,-1.831 0.641,-2.197c0.196,-0.366 0.577,-0.821 1.145,-1.364c0.567,-0.544 1.324,-1.175 2.27,-1.895c0.946,-0.721 1.673,-1.188 2.179,-1.401c0.507,-0.214 1.016,-0.321 1.529,-0.321c0.781,0 1.587,0.165 2.417,0.495c-0.513,1.355 -0.861,2.368 -1.044,3.039l-0.402,0.128c-0.269,-0.402 -0.641,-0.729 -1.117,-0.979c-0.477,-0.25 -0.983,-0.376 -1.52,-0.376c-0.659,0 -1.224,0.181 -1.694,0.541c-0.47,0.36 -0.842,0.995 -1.117,1.904c-0.275,0.909 -0.717,2.994 -1.327,6.253c1.55,-0.024 2.517,-0.067 2.902,-0.128c0.384,-0.061 0.729,-0.141 1.034,-0.238Z" style="fill-rule:nonzero;"/>
    <path d="M1058.52,15.099l0.165,0.238c-0.281,0.769 -0.483,1.434 -0.605,1.996l-0.164,0.128c-0.574,-0.025 -1.142,-0.037 -1.703,-0.037c-0.659,0.012 -1.319,0.025 -1.978,0.037l-2.38,11.133c-0.794,3.491 -1.492,5.905 -2.097,7.241c-0.604,1.337 -1.382,2.512 -2.334,3.525c-0.952,1.013 -1.905,1.746 -2.857,2.198c-0.574,0.28 -1.147,0.421 -1.721,0.421c-0.403,-0 -0.836,-0.116 -1.3,-0.348c0.391,-1.148 0.677,-2.149 0.861,-3.003l0.457,-0.11c0.513,0.684 1.142,1.025 1.886,1.025c0.464,0 0.91,-0.128 1.337,-0.384c0.427,-0.257 0.83,-0.723 1.208,-1.401c0.379,-0.677 0.815,-2.103 1.31,-4.275c0.494,-2.173 0.973,-4.609 1.437,-7.306l1.465,-8.716c-0.696,-0.012 -1.184,-0.018 -1.465,-0.018c-0.708,-0 -1.166,0.012 -1.373,0.036l-0.147,-0.146l0.128,-0.55l0.129,-0.164c1.452,-0.525 2.49,-0.995 3.112,-1.41l0.733,-3.571c0.232,-1.099 0.445,-1.831 0.641,-2.197c0.195,-0.366 0.577,-0.821 1.144,-1.364c0.568,-0.544 1.325,-1.175 2.271,-1.895c0.946,-0.721 1.672,-1.188 2.179,-1.401c0.506,-0.214 1.016,-0.321 1.529,-0.321c0.781,0 1.586,0.165 2.417,0.495c-0.513,1.355 -0.861,2.368 -1.044,3.039l-0.403,0.128c-0.269,-0.402 -0.641,-0.729 -1.117,-0.979c-0.476,-0.25 -0.983,-0.376 -1.52,-0.376c-0.659,0 -1.223,0.181 -1.693,0.541c-0.47,0.36 -0.843,0.995 -1.117,1.904c-0.275,0.909 -0.718,2.994 -1.328,6.253c1.55,-0.024 2.518,-0.067 2.902,-0.128c0.385,-0.061 0.73,-0.141 1.035,-0.238Z" style="fill-rule:nonzero;"/>
    <path d="M507.653,436.071l0.147,-0.128c3.027,0.097 4.773,0.146 5.237,0.146c0.415,0 2.167,-0.049 5.255,-0.146l0.146,0.128l0,0.915l-0.146,0.129c-0.842,0.024 -1.492,0.061 -1.95,0.109c-0.458,0.049 -0.791,0.141 -0.998,0.275c-0.208,0.134 -0.345,0.449 -0.412,0.943c-0.067,0.494 -0.101,1.181 -0.101,2.06l-0.036,4.211l-0,8.094c-0,2.026 0.012,3.442 0.036,4.248l0.092,3.167l3.735,0c2.979,0 4.837,-0.036 5.576,-0.109c0.738,-0.074 1.449,-0.251 2.133,-0.531c0.134,-0.306 0.326,-1.007 0.577,-2.106c0.25,-1.099 0.381,-1.734 0.393,-1.904l0.165,-0.147l0.897,0l0.128,0.147c-0.097,0.488 -0.198,1.434 -0.302,2.838c-0.103,1.404 -0.155,2.539 -0.155,3.405l-0.147,0.147c-2.319,-0.073 -5.365,-0.11 -9.137,-0.11l-5.346,-0.037c-1.221,0 -2.466,0.049 -3.736,0.147l-0.146,-0.147l-0,-0.604l0.146,-0.183c0.757,-0.391 1.172,-0.629 1.245,-0.714c0.074,-0.085 0.15,-0.873 0.229,-2.362c0.08,-1.489 0.119,-3.284 0.119,-5.383l0,-7.856l-0.036,-3.57c-0.013,-1.392 -0.046,-2.289 -0.101,-2.692c-0.055,-0.403 -0.14,-0.671 -0.256,-0.805c-0.116,-0.135 -0.339,-0.245 -0.669,-0.33c-0.329,-0.085 -1.141,-0.153 -2.435,-0.201l-0.147,-0.129l0,-0.915Z" style="fill-rule:nonzero;"/>
    <path d="M546.069,459.124l-0.586,1.318c-1.269,0.818 -2.402,1.349 -3.397,1.593c-0.994,0.244 -1.882,0.366 -2.664,0.366c-1.465,0 -2.853,-0.286 -4.165,-0.86c-1.313,-0.574 -2.381,-1.544 -3.205,-2.912c-0.824,-1.367 -1.236,-3.015 -1.236,-4.943c0,-1.282 0.159,-2.439 0.476,-3.47c0.318,-1.032 0.65,-1.798 0.998,-2.298c0.348,-0.501 0.937,-1.056 1.767,-1.666c0.83,-0.611 1.709,-1.099 2.637,-1.465c0.928,-0.367 1.929,-0.55 3.003,-0.55c1.465,0 2.756,0.345 3.873,1.035c1.117,0.69 1.901,1.572 2.352,2.646c0.452,1.074 0.678,2.215 0.678,3.424c-0,0.378 -0.018,0.744 -0.055,1.098l-0.201,0.202c-0.83,0.183 -1.947,0.305 -3.351,0.366c-1.404,0.061 -2.332,0.092 -2.783,0.092l-5.878,-0c0.024,2.527 0.659,4.388 1.904,5.584c1.245,1.197 2.771,1.795 4.578,1.795c0.854,-0 1.675,-0.147 2.463,-0.44c0.787,-0.293 1.62,-0.702 2.499,-1.226l0.293,0.311Zm-11.737,-7.489c0.22,0.036 1.065,0.079 2.536,0.128c1.471,0.049 2.56,0.073 3.268,0.073c1.697,0 2.729,-0.03 3.095,-0.091c0.012,-0.293 0.018,-0.519 0.018,-0.678c0,-1.892 -0.384,-3.299 -1.153,-4.22c-0.769,-0.922 -1.819,-1.383 -3.15,-1.383c-1.452,0 -2.585,0.519 -3.396,1.557c-0.812,1.037 -1.218,2.575 -1.218,4.614Z" style="fill-rule:nonzero;"/>
    <path d="M554.107,444.366l0.348,0.238c-0.073,0.817 -0.122,1.892 -0.146,3.222c0.976,-0.805 1.904,-1.623 2.783,-2.453c0.256,-0.232 0.497,-0.403 0.723,-0.513c0.226,-0.11 0.601,-0.226 1.126,-0.348c0.525,-0.122 1.062,-0.183 1.612,-0.183c0.927,-0 1.828,0.189 2.7,0.568c0.873,0.378 1.532,0.827 1.978,1.345c0.446,0.519 0.754,1.133 0.925,1.841c0.171,0.708 0.256,1.58 0.256,2.618l-0,3.223c-0,0.207 0.031,1.727 0.092,4.559c0.024,1.16 0.152,1.849 0.384,2.069c0.232,0.22 0.989,0.33 2.271,0.33l0.146,0.146l0,0.787l-0.146,0.147c-1.551,-0.098 -2.601,-0.147 -3.15,-0.147c-0.317,0 -1.208,0.049 -2.673,0.147l-0.22,-0.201c0.159,-1.587 0.238,-3.656 0.238,-6.208l0,-2.398c0,-1.441 -0.033,-2.478 -0.101,-3.113c-0.067,-0.635 -0.271,-1.212 -0.613,-1.731c-0.342,-0.518 -0.8,-0.921 -1.373,-1.208c-0.574,-0.287 -1.258,-0.43 -2.051,-0.43c-0.635,-0 -1.178,0.064 -1.63,0.192c-0.451,0.128 -0.958,0.391 -1.519,0.787c-0.562,0.397 -0.977,0.769 -1.246,1.117c-0.268,0.348 -0.43,0.672 -0.485,0.971c-0.055,0.299 -0.082,0.937 -0.082,1.913l-0,3.186c-0,0.269 0.024,1.132 0.073,2.591c0.049,1.459 0.101,2.31 0.156,2.554c0.055,0.245 0.137,0.422 0.247,0.531c0.11,0.11 0.244,0.18 0.403,0.211c0.158,0.031 0.818,0.082 1.977,0.156l0.165,0.146l0,0.769l-0.146,0.165c-1.526,-0.098 -2.997,-0.147 -4.413,-0.147c-1.404,0 -2.869,0.049 -4.395,0.147l-0.165,-0.165l0,-0.769l0.165,-0.146c1.184,-0.074 1.853,-0.129 2.005,-0.165c0.153,-0.037 0.287,-0.113 0.403,-0.229c0.116,-0.116 0.195,-0.293 0.238,-0.531c0.043,-0.238 0.092,-1.025 0.147,-2.362c0.054,-1.337 0.082,-2.347 0.082,-3.031l-0,-3.607c-0,-0.488 -0.024,-1.153 -0.073,-1.996c-0.049,-0.842 -0.089,-1.361 -0.119,-1.556c-0.031,-0.195 -0.125,-0.339 -0.284,-0.43c-0.159,-0.092 -0.476,-0.138 -0.952,-0.138l-1.538,-0.018l-0.165,-0.146l-0,-0.788l0.146,-0.146c2.332,-0.281 4.297,-0.739 5.896,-1.373Z" style="fill-rule:nonzero;"/>
    <path d="M571.521,456.432l0.787,0l0.165,0.165c0.024,1.025 0.085,1.904 0.183,2.637c0.378,0.573 1.031,1.04 1.959,1.4c0.928,0.361 1.843,0.541 2.747,0.541c1.294,-0 2.328,-0.348 3.103,-1.044c0.775,-0.696 1.163,-1.526 1.163,-2.49c0,-0.525 -0.14,-0.98 -0.421,-1.364c-0.281,-0.385 -0.705,-0.702 -1.273,-0.953c-0.567,-0.25 -1.584,-0.546 -3.048,-0.888c-1.258,-0.293 -2.137,-0.522 -2.637,-0.686c-0.501,-0.165 -0.983,-0.443 -1.447,-0.833c-0.463,-0.391 -0.817,-0.87 -1.062,-1.438c-0.244,-0.567 -0.366,-1.193 -0.366,-1.877c0,-1.635 0.65,-2.945 1.95,-3.927c1.3,-0.983 2.921,-1.474 4.862,-1.474c0.818,-0 1.709,0.113 2.673,0.338c0.964,0.226 1.697,0.443 2.197,0.65l0.165,0.257c-0.098,0.488 -0.159,1.77 -0.183,3.845l-0.165,0.165l-0.732,-0l-0.165,-0.165c-0.049,-0.745 -0.116,-1.266 -0.201,-1.565c-0.086,-0.3 -0.306,-0.623 -0.66,-0.971c-0.354,-0.348 -0.854,-0.641 -1.501,-0.879c-0.647,-0.238 -1.331,-0.357 -2.051,-0.357c-0.745,0 -1.37,0.11 -1.877,0.33c-0.506,0.219 -0.915,0.552 -1.227,0.998c-0.311,0.445 -0.466,0.985 -0.466,1.62c-0,0.464 0.094,0.879 0.283,1.245c0.19,0.366 0.48,0.662 0.87,0.888c0.391,0.226 0.8,0.388 1.227,0.485l1.996,0.513c1.709,0.415 2.933,0.775 3.671,1.081c0.739,0.305 1.309,0.766 1.712,1.382c0.403,0.616 0.604,1.364 0.604,2.243c0,1.685 -0.695,3.131 -2.087,4.34c-1.392,1.208 -3.18,1.812 -5.365,1.812c-0.769,0 -1.724,-0.085 -2.866,-0.256c-1.141,-0.171 -2.115,-0.36 -2.92,-0.568l-0.092,-0.238l0.183,-1.226c0.061,-0.379 0.098,-0.76 0.11,-1.145c0.012,-0.384 0.025,-1.193 0.037,-2.426l0.165,-0.165Z" style="fill-rule:nonzero;"/>
    <path d="M597.741,441.125l-0.329,-0.11l-0.183,-1.502l0.183,-0.183c1.22,-0.354 2.765,-0.922 4.632,-1.703c1.868,-0.781 3.205,-1.379 4.01,-1.794l0.476,0.183c-0.195,5.347 -0.293,8.557 -0.293,9.631l0,6.793c0,1.673 0.019,3.244 0.055,4.715c0.037,1.471 0.092,2.338 0.165,2.601c0.073,0.262 0.199,0.466 0.376,0.613c0.177,0.146 0.424,0.241 0.741,0.284c0.317,0.042 1.264,0.107 2.838,0.192l0.128,0.146l0,0.824l-0.128,0.147c-2.673,-0.098 -4.559,-0.147 -5.658,-0.147c-0.83,0 -2.862,0.049 -6.097,0.147l-0.128,-0.147l-0,-0.824l0.146,-0.146c1.831,-0.134 2.878,-0.232 3.14,-0.293c0.263,-0.061 0.464,-0.168 0.605,-0.32c0.14,-0.153 0.253,-0.443 0.338,-0.87c0.086,-0.427 0.156,-1.691 0.211,-3.79c0.055,-2.1 0.082,-3.174 0.082,-3.223l0,-7.214c0,-3.54 -0.009,-5.463 -0.027,-5.768c-0.018,-0.305 -0.125,-0.458 -0.32,-0.458c-0.049,-0 -0.116,0.012 -0.202,0.037c-0.085,0.024 -0.354,0.134 -0.806,0.329l-1.812,0.806c-0.757,0.329 -1.471,0.677 -2.143,1.044Z" style="fill-rule:nonzero;"/>
    <path d="M901.218,436.071l0.147,-0.128c3.027,0.097 4.773,0.146 5.237,0.146c0.415,0 2.166,-0.049 5.255,-0.146l0.146,0.128l0,0.915l-0.146,0.129c-0.842,0.024 -1.492,0.061 -1.95,0.109c-0.458,0.049 -0.791,0.141 -0.998,0.275c-0.208,0.134 -0.345,0.449 -0.412,0.943c-0.067,0.494 -0.101,1.181 -0.101,2.06l-0.036,4.211l-0,8.094c-0,2.026 0.012,3.442 0.036,4.248l0.092,3.167l3.735,0c2.979,0 4.837,-0.036 5.576,-0.109c0.738,-0.074 1.449,-0.251 2.133,-0.531c0.134,-0.306 0.326,-1.007 0.577,-2.106c0.25,-1.099 0.381,-1.734 0.393,-1.904l0.165,-0.147l0.897,0l0.128,0.147c-0.097,0.488 -0.198,1.434 -0.302,2.838c-0.103,1.404 -0.155,2.539 -0.155,3.405l-0.147,0.147c-2.319,-0.073 -5.365,-0.11 -9.137,-0.11l-5.346,-0.037c-1.221,0 -2.466,0.049 -3.736,0.147l-0.146,-0.147l-0,-0.604l0.146,-0.183c0.757,-0.391 1.172,-0.629 1.245,-0.714c0.074,-0.085 0.15,-0.873 0.229,-2.362c0.08,-1.489 0.119,-3.284 0.119,-5.383l0,-7.856l-0.036,-3.57c-0.013,-1.392 -0.046,-2.289 -0.101,-2.692c-0.055,-0.403 -0.14,-0.671 -0.256,-0.805c-0.116,-0.135 -0.339,-0.245 -0.669,-0.33c-0.329,-0.085 -1.141,-0.153 -2.435,-0.201l-0.147,-0.129l0,-0.915Z" style="fill-rule:nonzero;"/>
    <path d="M939.634,459.124l-0.586,1.318c-1.27,0.818 -2.402,1.349 -3.397,1.593c-0.994,0.244 -1.883,0.366 -2.664,0.366c-1.465,0 -2.853,-0.286 -4.165,-0.86c-1.313,-0.574 -2.381,-1.544 -3.205,-2.912c-0.824,-1.367 -1.236,-3.015 -1.236,-4.943c0,-1.282 0.159,-2.439 0.476,-3.47c0.318,-1.032 0.65,-1.798 0.998,-2.298c0.348,-0.501 0.937,-1.056 1.767,-1.666c0.83,-0.611 1.709,-1.099 2.637,-1.465c0.928,-0.367 1.929,-0.55 3.003,-0.55c1.465,0 2.756,0.345 3.873,1.035c1.117,0.69 1.901,1.572 2.352,2.646c0.452,1.074 0.678,2.215 0.678,3.424c-0,0.378 -0.018,0.744 -0.055,1.098l-0.201,0.202c-0.83,0.183 -1.947,0.305 -3.351,0.366c-1.404,0.061 -2.332,0.092 -2.783,0.092l-5.878,-0c0.024,2.527 0.659,4.388 1.904,5.584c1.245,1.197 2.771,1.795 4.578,1.795c0.854,-0 1.675,-0.147 2.463,-0.44c0.787,-0.293 1.62,-0.702 2.499,-1.226l0.293,0.311Zm-11.737,-7.489c0.22,0.036 1.065,0.079 2.536,0.128c1.471,0.049 2.56,0.073 3.268,0.073c1.697,0 2.729,-0.03 3.095,-0.091c0.012,-0.293 0.018,-0.519 0.018,-0.678c0,-1.892 -0.384,-3.299 -1.153,-4.22c-0.769,-0.922 -1.819,-1.383 -3.15,-1.383c-1.452,0 -2.585,0.519 -3.396,1.557c-0.812,1.037 -1.218,2.575 -1.218,4.614Z" style="fill-rule:nonzero;"/>
    <path d="M947.672,444.366l0.348,0.238c-0.073,0.817 -0.122,1.892 -0.146,3.222c0.976,-0.805 1.904,-1.623 2.783,-2.453c0.256,-0.232 0.497,-0.403 0.723,-0.513c0.226,-0.11 0.601,-0.226 1.126,-0.348c0.525,-0.122 1.062,-0.183 1.612,-0.183c0.927,-0 1.828,0.189 2.7,0.568c0.873,0.378 1.532,0.827 1.978,1.345c0.446,0.519 0.754,1.133 0.925,1.841c0.171,0.708 0.256,1.58 0.256,2.618l-0,3.223c-0,0.207 0.03,1.727 0.092,4.559c0.024,1.16 0.152,1.849 0.384,2.069c0.232,0.22 0.989,0.33 2.271,0.33l0.146,0.146l0,0.787l-0.146,0.147c-1.551,-0.098 -2.601,-0.147 -3.15,-0.147c-0.317,0 -1.208,0.049 -2.673,0.147l-0.22,-0.201c0.159,-1.587 0.238,-3.656 0.238,-6.208l0,-2.398c0,-1.441 -0.033,-2.478 -0.101,-3.113c-0.067,-0.635 -0.271,-1.212 -0.613,-1.731c-0.342,-0.518 -0.8,-0.921 -1.373,-1.208c-0.574,-0.287 -1.258,-0.43 -2.051,-0.43c-0.635,-0 -1.178,0.064 -1.63,0.192c-0.451,0.128 -0.958,0.391 -1.519,0.787c-0.562,0.397 -0.977,0.769 -1.246,1.117c-0.268,0.348 -0.43,0.672 -0.485,0.971c-0.055,0.299 -0.082,0.937 -0.082,1.913l-0,3.186c-0,0.269 0.024,1.132 0.073,2.591c0.049,1.459 0.101,2.31 0.156,2.554c0.055,0.245 0.137,0.422 0.247,0.531c0.11,0.11 0.244,0.18 0.403,0.211c0.158,0.031 0.818,0.082 1.977,0.156l0.165,0.146l0,0.769l-0.146,0.165c-1.526,-0.098 -2.997,-0.147 -4.413,-0.147c-1.404,0 -2.869,0.049 -4.395,0.147l-0.165,-0.165l0,-0.769l0.165,-0.146c1.184,-0.074 1.853,-0.129 2.005,-0.165c0.153,-0.037 0.287,-0.113 0.403,-0.229c0.116,-0.116 0.195,-0.293 0.238,-0.531c0.043,-0.238 0.092,-1.025 0.147,-2.362c0.054,-1.337 0.082,-2.347 0.082,-3.031l-0,-3.607c-0,-0.488 -0.024,-1.153 -0.073,-1.996c-0.049,-0.842 -0.089,-1.361 -0.119,-1.556c-0.031,-0.195 -0.125,-0.339 -0.284,-0.43c-0.159,-0.092 -0.476,-0.138 -0.952,-0.138l-1.538,-0.018l-0.165,-0.146l-0,-0.788l0.146,-0.146c2.332,-0.281 4.297,-0.739 5.896,-1.373Z" style="fill-rule:nonzero;"/>
    <path d="M965.086,456.432l0.787,0l0.165,0.165c0.024,1.025 0.085,1.904 0.183,2.637c0.378,0.573 1.031,1.04 1.959,1.4c0.928,0.361 1.843,0.541 2.747,0.541c1.294,-0 2.328,-0.348 3.103,-1.044c0.775,-0.696 1.163,-1.526 1.163,-2.49c0,-0.525 -0.14,-0.98 -0.421,-1.364c-0.281,-0.385 -0.705,-0.702 -1.273,-0.953c-0.567,-0.25 -1.584,-0.546 -3.048,-0.888c-1.258,-0.293 -2.137,-0.522 -2.637,-0.686c-0.501,-0.165 -0.983,-0.443 -1.447,-0.833c-0.464,-0.391 -0.818,-0.87 -1.062,-1.438c-0.244,-0.567 -0.366,-1.193 -0.366,-1.877c0,-1.635 0.65,-2.945 1.95,-3.927c1.3,-0.983 2.921,-1.474 4.862,-1.474c0.818,-0 1.709,0.113 2.673,0.338c0.964,0.226 1.697,0.443 2.197,0.65l0.165,0.257c-0.098,0.488 -0.159,1.77 -0.183,3.845l-0.165,0.165l-0.732,-0l-0.165,-0.165c-0.049,-0.745 -0.116,-1.266 -0.201,-1.565c-0.086,-0.3 -0.306,-0.623 -0.66,-0.971c-0.354,-0.348 -0.854,-0.641 -1.501,-0.879c-0.647,-0.238 -1.331,-0.357 -2.051,-0.357c-0.745,0 -1.37,0.11 -1.877,0.33c-0.506,0.219 -0.915,0.552 -1.227,0.998c-0.311,0.445 -0.466,0.985 -0.466,1.62c-0,0.464 0.094,0.879 0.283,1.245c0.19,0.366 0.479,0.662 0.87,0.888c0.391,0.226 0.8,0.388 1.227,0.485l1.996,0.513c1.709,0.415 2.933,0.775 3.671,1.081c0.739,0.305 1.309,0.766 1.712,1.382c0.403,0.616 0.604,1.364 0.604,2.243c0,1.685 -0.695,3.131 -2.087,4.34c-1.392,1.208 -3.18,1.812 -5.365,1.812c-0.769,0 -1.724,-0.085 -2.866,-0.256c-1.141,-0.171 -2.115,-0.36 -2.92,-0.568l-0.092,-0.238l0.183,-1.226c0.061,-0.379 0.098,-0.76 0.11,-1.145c0.012,-0.384 0.025,-1.193 0.037,-2.426l0.165,-0.165Z" style="fill-rule:nonzero;"/>
    <path d="M989.347,461.999l-0.22,-0.184l0,-0.842l6.134,-6.5c2.527,-2.673 4.163,-4.742 4.908,-6.207c0.744,-1.465 1.117,-2.832 1.117,-4.102c-0,-1.489 -0.452,-2.728 -1.355,-3.717c-0.904,-0.989 -2.124,-1.483 -3.663,-1.483c-0.988,-0 -1.849,0.152 -2.581,0.458c-0.733,0.305 -1.224,0.647 -1.474,1.025c-0.251,0.378 -0.614,1.44 -1.09,3.186l-0.165,0.147l-0.75,-0l-0.183,-0.165c0.28,-1.648 0.476,-3.278 0.586,-4.889c1.147,-1.123 2.218,-1.84 3.213,-2.152c0.995,-0.311 2.036,-0.467 3.122,-0.467c1.294,0 2.533,0.245 3.717,0.733c1.184,0.488 2.136,1.279 2.856,2.371c0.721,1.093 1.081,2.359 1.081,3.8c-0,1.074 -0.211,2.151 -0.632,3.231c-0.421,1.081 -1.038,2.124 -1.849,3.131c-0.812,1.008 -1.92,2.213 -3.324,3.617l-5.713,5.823l7.233,-0c2.222,-0 4.071,-0.08 5.548,-0.238l0.128,0.146c-0.073,0.415 -0.109,0.958 -0.109,1.63c-0,0.61 0.036,1.092 0.109,1.446l-0.128,0.202c-0.879,-0.049 -2.228,-0.092 -4.046,-0.129c-1.819,-0.036 -3.022,-0.055 -3.608,-0.055c-1.184,0 -2.777,0.016 -4.779,0.046c-2.002,0.031 -3.363,0.077 -4.083,0.138Z" style="fill-rule:nonzero;"/>
    <path d="M1096.8,455.517l0.146,-0.147l0.897,0l0.147,0.147c0.061,1.562 0.143,2.517 0.247,2.865c0.104,0.348 0.433,0.714 0.989,1.099c0.555,0.384 1.294,0.699 2.215,0.943c0.922,0.244 1.853,0.366 2.793,0.366c1.294,0 2.456,-0.238 3.488,-0.714c1.031,-0.476 1.834,-1.175 2.408,-2.097c0.573,-0.921 0.86,-1.956 0.86,-3.103c0,-0.806 -0.137,-1.508 -0.412,-2.106c-0.274,-0.598 -0.659,-1.077 -1.153,-1.437c-0.495,-0.36 -1.059,-0.629 -1.694,-0.806c-0.635,-0.177 -1.581,-0.369 -2.838,-0.577c-1.221,-0.195 -2.176,-0.372 -2.866,-0.531c-0.689,-0.158 -1.376,-0.403 -2.06,-0.732c-0.683,-0.33 -1.254,-0.748 -1.712,-1.254c-0.457,-0.507 -0.824,-1.13 -1.098,-1.868c-0.275,-0.739 -0.412,-1.529 -0.412,-2.371c-0,-2.283 0.793,-4.154 2.38,-5.613c1.587,-1.458 3.717,-2.188 6.39,-2.188c1.062,0 2.219,0.132 3.47,0.394c1.251,0.262 2.39,0.65 3.415,1.163l0.128,0.219c-0.268,1.124 -0.433,2.723 -0.494,4.798l-0.165,0.146l-0.952,0l-0.146,-0.128c-0.025,-1.465 -0.062,-2.386 -0.11,-2.765c-0.049,-0.378 -0.605,-0.848 -1.667,-1.41c-1.062,-0.561 -2.215,-0.842 -3.46,-0.842c-1.038,0 -2.008,0.208 -2.912,0.623c-0.903,0.415 -1.587,1.068 -2.05,1.959c-0.464,0.891 -0.696,1.8 -0.696,2.728c-0,0.72 0.14,1.358 0.421,1.914c0.281,0.555 0.644,0.994 1.089,1.318c0.446,0.323 0.965,0.565 1.557,0.723c0.592,0.159 1.675,0.354 3.25,0.586c2.161,0.305 3.732,0.675 4.715,1.108c0.983,0.433 1.77,1.12 2.362,2.06c0.592,0.94 0.888,2.075 0.888,3.406c-0,2.6 -1.059,4.766 -3.177,6.5c-2.118,1.733 -4.684,2.6 -7.699,2.6c-2.527,-0 -4.743,-0.452 -6.647,-1.355l-0.11,-0.238c0.122,-0.769 0.214,-2.564 0.275,-5.383Z" style="fill-rule:nonzero;"/>
    <path d="M1131.23,459.124l-0.586,1.318c-1.269,0.818 -2.401,1.349 -3.396,1.593c-0.995,0.244 -1.883,0.366 -2.664,0.366c-1.465,0 -2.854,-0.286 -4.166,-0.86c-1.312,-0.574 -2.38,-1.544 -3.204,-2.912c-0.824,-1.367 -1.236,-3.015 -1.236,-4.943c-0,-1.282 0.158,-2.439 0.476,-3.47c0.317,-1.032 0.65,-1.798 0.998,-2.298c0.348,-0.501 0.937,-1.056 1.767,-1.666c0.83,-0.611 1.709,-1.099 2.636,-1.465c0.928,-0.367 1.929,-0.55 3.003,-0.55c1.465,0 2.756,0.345 3.873,1.035c1.117,0.69 1.901,1.572 2.353,2.646c0.452,1.074 0.677,2.215 0.677,3.424c0,0.378 -0.018,0.744 -0.055,1.098l-0.201,0.202c-0.83,0.183 -1.947,0.305 -3.351,0.366c-1.404,0.061 -2.331,0.092 -2.783,0.092l-5.878,-0c0.025,2.527 0.66,4.388 1.905,5.584c1.245,1.197 2.771,1.795 4.577,1.795c0.855,-0 1.676,-0.147 2.463,-0.44c0.787,-0.293 1.621,-0.702 2.499,-1.226l0.293,0.311Zm-11.737,-7.489c0.22,0.036 1.065,0.079 2.536,0.128c1.471,0.049 2.561,0.073 3.269,0.073c1.697,0 2.728,-0.03 3.094,-0.091c0.012,-0.293 0.019,-0.519 0.019,-0.678c-0,-1.892 -0.385,-3.299 -1.154,-4.22c-0.769,-0.922 -1.819,-1.383 -3.149,-1.383c-1.453,0 -2.585,0.519 -3.397,1.557c-0.812,1.037 -1.218,2.575 -1.218,4.614Z" style="fill-rule:nonzero;"/>
    <path d="M1139.26,444.366l0.348,0.238c-0.074,0.817 -0.122,1.892 -0.147,3.222c0.977,-0.805 1.904,-1.623 2.783,-2.453c0.257,-0.232 0.498,-0.403 0.724,-0.513c0.225,-0.11 0.601,-0.226 1.126,-0.348c0.525,-0.122 1.062,-0.183 1.611,-0.183c0.928,-0 1.828,0.189 2.701,0.568c0.873,0.378 1.532,0.827 1.977,1.345c0.446,0.519 0.754,1.133 0.925,1.841c0.171,0.708 0.256,1.58 0.256,2.618l0,3.223c0,0.207 0.031,1.727 0.092,4.559c0.024,1.16 0.153,1.849 0.385,2.069c0.231,0.22 0.988,0.33 2.27,0.33l0.146,0.146l0,0.787l-0.146,0.147c-1.55,-0.098 -2.6,-0.147 -3.149,-0.147c-0.318,0 -1.209,0.049 -2.674,0.147l-0.219,-0.201c0.158,-1.587 0.238,-3.656 0.238,-6.208l-0,-2.398c-0,-1.441 -0.034,-2.478 -0.101,-3.113c-0.067,-0.635 -0.272,-1.212 -0.614,-1.731c-0.341,-0.518 -0.799,-0.921 -1.373,-1.208c-0.574,-0.287 -1.257,-0.43 -2.051,-0.43c-0.634,-0 -1.178,0.064 -1.629,0.192c-0.452,0.128 -0.959,0.391 -1.52,0.787c-0.562,0.397 -0.977,0.769 -1.245,1.117c-0.269,0.348 -0.43,0.672 -0.485,0.971c-0.055,0.299 -0.083,0.937 -0.083,1.913l0,3.186c0,0.269 0.025,1.132 0.073,2.591c0.049,1.459 0.101,2.31 0.156,2.554c0.055,0.245 0.137,0.422 0.247,0.531c0.11,0.11 0.244,0.18 0.403,0.211c0.159,0.031 0.818,0.082 1.978,0.156l0.164,0.146l0,0.769l-0.146,0.165c-1.526,-0.098 -2.997,-0.147 -4.413,-0.147c-1.404,0 -2.869,0.049 -4.394,0.147l-0.165,-0.165l-0,-0.769l0.165,-0.146c1.184,-0.074 1.852,-0.129 2.005,-0.165c0.152,-0.037 0.286,-0.113 0.402,-0.229c0.116,-0.116 0.196,-0.293 0.238,-0.531c0.043,-0.238 0.092,-1.025 0.147,-2.362c0.055,-1.337 0.082,-2.347 0.082,-3.031l0,-3.607c0,-0.488 -0.024,-1.153 -0.073,-1.996c-0.049,-0.842 -0.088,-1.361 -0.119,-1.556c-0.03,-0.195 -0.125,-0.339 -0.284,-0.43c-0.158,-0.092 -0.476,-0.138 -0.952,-0.138l-1.538,-0.018l-0.165,-0.146l0,-0.788l0.147,-0.146c2.331,-0.281 4.297,-0.739 5.896,-1.373Z" style="fill-rule:nonzero;"/>
    <path d="M1156.68,456.432l0.787,0l0.165,0.165c0.025,1.025 0.086,1.904 0.183,2.637c0.379,0.573 1.032,1.04 1.96,1.4c0.927,0.361 1.843,0.541 2.746,0.541c1.294,-0 2.329,-0.348 3.104,-1.044c0.775,-0.696 1.162,-1.526 1.162,-2.49c0,-0.525 -0.14,-0.98 -0.421,-1.364c-0.28,-0.385 -0.705,-0.702 -1.272,-0.953c-0.568,-0.25 -1.584,-0.546 -3.049,-0.888c-1.257,-0.293 -2.136,-0.522 -2.637,-0.686c-0.5,-0.165 -0.982,-0.443 -1.446,-0.833c-0.464,-0.391 -0.818,-0.87 -1.062,-1.438c-0.244,-0.567 -0.366,-1.193 -0.366,-1.877c-0,-1.635 0.65,-2.945 1.95,-3.927c1.3,-0.983 2.92,-1.474 4.861,-1.474c0.818,-0 1.709,0.113 2.673,0.338c0.965,0.226 1.697,0.443 2.198,0.65l0.165,0.257c-0.098,0.488 -0.159,1.77 -0.184,3.845l-0.164,0.165l-0.733,-0l-0.165,-0.165c-0.048,-0.745 -0.116,-1.266 -0.201,-1.565c-0.085,-0.3 -0.305,-0.623 -0.659,-0.971c-0.354,-0.348 -0.855,-0.641 -1.502,-0.879c-0.647,-0.238 -1.33,-0.357 -2.05,-0.357c-0.745,0 -1.371,0.11 -1.877,0.33c-0.507,0.219 -0.916,0.552 -1.227,0.998c-0.311,0.445 -0.467,0.985 -0.467,1.62c-0,0.464 0.095,0.879 0.284,1.245c0.189,0.366 0.479,0.662 0.87,0.888c0.39,0.226 0.799,0.388 1.226,0.485l1.996,0.513c1.709,0.415 2.933,0.775 3.671,1.081c0.739,0.305 1.31,0.766 1.713,1.382c0.402,0.616 0.604,1.364 0.604,2.243c-0,1.685 -0.696,3.131 -2.088,4.34c-1.391,1.208 -3.18,1.812 -5.365,1.812c-0.769,0 -1.724,-0.085 -2.865,-0.256c-1.142,-0.171 -2.115,-0.36 -2.921,-0.568l-0.091,-0.238l0.183,-1.226c0.061,-0.379 0.097,-0.76 0.11,-1.145c0.012,-0.384 0.024,-1.193 0.036,-2.426l0.165,-0.165Z" style="fill-rule:nonzero;"/>
    <path d="M1171.97,453.429c0,-1.452 0.299,-2.853 0.898,-4.202c0.598,-1.349 1.638,-2.515 3.122,-3.497c1.483,-0.983 3.244,-1.474 5.282,-1.474c2.564,-0 4.651,0.808 6.262,2.426c1.612,1.617 2.417,3.695 2.417,6.235c0,2.795 -0.924,5.096 -2.774,6.903c-1.849,1.806 -4.08,2.71 -6.692,2.71c-1.709,-0 -3.235,-0.461 -4.578,-1.383c-1.343,-0.921 -2.334,-2.048 -2.975,-3.378c-0.641,-1.331 -0.962,-2.777 -0.962,-4.34Zm3.461,-1.263c0,1.709 0.22,3.238 0.659,4.587c0.44,1.348 1.136,2.432 2.088,3.25c0.952,0.818 2.038,1.227 3.259,1.227c1.44,-0 2.631,-0.571 3.57,-1.713c0.94,-1.141 1.41,-2.859 1.41,-5.154c0,-2.6 -0.509,-4.73 -1.529,-6.39c-1.019,-1.66 -2.487,-2.491 -4.403,-2.491c-1.587,0 -2.826,0.574 -3.717,1.722c-0.891,1.147 -1.337,2.801 -1.337,4.962Z" style="fill-rule:nonzero;"/>
    <path d="M1198.22,444.366l0.348,0.238c-0.074,0.708 -0.129,1.965 -0.165,3.772l1.373,-1.74c0.452,-0.574 0.852,-1.016 1.199,-1.327c0.348,-0.312 0.754,-0.553 1.218,-0.724c0.464,-0.171 0.94,-0.256 1.428,-0.256c0.537,-0 1.044,0.11 1.52,0.329l0.128,0.257c-0.195,1.623 -0.305,3.052 -0.329,4.285l-0.824,-0c-0.489,-1.124 -1.276,-1.685 -2.362,-1.685c-0.757,-0 -1.416,0.241 -1.978,0.723c-0.561,0.482 -0.937,1.087 -1.126,1.813c-0.189,0.726 -0.284,1.645 -0.284,2.756l0,2.032c0,0.366 0.025,1.264 0.073,2.692c0.049,1.428 0.101,2.252 0.156,2.472c0.055,0.219 0.14,0.381 0.256,0.485c0.116,0.104 0.269,0.174 0.458,0.211c0.189,0.036 1.059,0.097 2.609,0.183l0.165,0.146l0,0.769l-0.165,0.165c-1.623,-0.098 -3.32,-0.147 -5.09,-0.147c-1.404,0 -2.869,0.049 -4.394,0.147l-0.165,-0.165l-0,-0.769l0.165,-0.146c1.184,-0.074 1.852,-0.129 2.005,-0.165c0.152,-0.037 0.286,-0.113 0.402,-0.229c0.116,-0.116 0.196,-0.293 0.238,-0.531c0.043,-0.238 0.092,-1.025 0.147,-2.362c0.055,-1.337 0.082,-2.347 0.082,-3.031l0,-3.607c0,-0.488 -0.024,-1.153 -0.073,-1.996c-0.049,-0.842 -0.088,-1.361 -0.119,-1.556c-0.03,-0.195 -0.125,-0.339 -0.284,-0.43c-0.158,-0.092 -0.476,-0.138 -0.952,-0.138l-1.538,-0.018l-0.165,-0.146l0,-0.788l0.147,-0.146c2.331,-0.281 4.297,-0.739 5.896,-1.373Z" style="fill-rule:nonzero;"/>
    <g transform="matrix(1,0,0,1,550.778,-173.133)">
        <g transform="matrix(37.5,0,0,37.5,145.116,634.949)">
            <path d="M0.213,-0.329l-0,0.099l0,0.095c0.001,0.036 0.002,0.059 0.003,0.071c0.002,0.011 0.004,0.019 0.007,0.022c0.003,0.004 0.009,0.007 0.018,0.009c0.009,0.002 0.031,0.004 0.065,0.006l0.004,0.003l0,0.024l-0.004,0.004c-0.083,-0.003 -0.129,-0.004 -0.14,-0.004c-0.01,0 -0.057,0.001 -0.14,0.004l-0.004,-0.004l0,-0.024l0.004,-0.003c0.031,-0.002 0.051,-0.003 0.061,-0.005c0.01,-0.002 0.017,-0.005 0.02,-0.008c0.004,-0.003 0.006,-0.01 0.008,-0.02c0.003,-0.009 0.004,-0.031 0.004,-0.066l0.001,-0.104l-0,-0.226l-0.001,-0.095c-0.001,-0.037 -0.002,-0.061 -0.003,-0.072c-0.001,-0.011 -0.004,-0.018 -0.007,-0.022c-0.003,-0.003 -0.009,-0.006 -0.018,-0.008c-0.008,-0.003 -0.03,-0.004 -0.065,-0.006l-0.004,-0.003l0,-0.025l0.004,-0.003c0.138,0.002 0.219,0.003 0.242,0.003c0.078,-0 0.157,-0.001 0.238,-0.003l0.004,0.003c-0.005,0.017 -0.008,0.035 -0.01,0.056c-0.002,0.021 -0.003,0.05 -0.005,0.088l-0.004,0.003l-0.023,0l-0.004,-0.003c-0,-0.003 -0.002,-0.015 -0.004,-0.038c-0.002,-0.018 -0.004,-0.034 -0.008,-0.049c-0.034,-0.012 -0.08,-0.017 -0.14,-0.017c-0.027,-0 -0.058,0.001 -0.094,0.005c-0.003,0.026 -0.005,0.088 -0.005,0.186l-0,0.084c0.041,0.001 0.069,0.001 0.084,0.001c0.028,0 0.052,-0.001 0.072,-0.003c0.02,-0.002 0.031,-0.004 0.035,-0.006c0.004,-0.002 0.007,-0.005 0.009,-0.011c0.002,-0.005 0.004,-0.017 0.006,-0.035l0.003,-0.027l0.004,-0.004l0.025,0l0.004,0.005l-0.004,0.107c0,0.012 0.001,0.03 0.002,0.053c0.001,0.027 0.002,0.048 0.002,0.063l-0.005,0.003l-0.024,0l-0.004,-0.003l-0.002,-0.042c-0.001,-0.016 -0.002,-0.028 -0.004,-0.036c-0.003,-0.007 -0.006,-0.012 -0.012,-0.014c-0.005,-0.003 -0.016,-0.005 -0.034,-0.007c-0.018,-0.002 -0.046,-0.003 -0.083,-0.003c-0.033,0 -0.058,0.001 -0.074,0.002Z" style="fill-rule:nonzero;"/>
        </g>
        <g transform="matrix(37.5,0,0,37.5,165.972,634.949)">
            <path d="M0.033,-0.224c0,-0.038 0.008,-0.076 0.024,-0.112c0.016,-0.036 0.044,-0.067 0.083,-0.093c0.04,-0.026 0.087,-0.039 0.141,-0.039c0.069,-0 0.124,0.021 0.167,0.064c0.043,0.044 0.065,0.099 0.065,0.167c-0,0.074 -0.025,0.136 -0.074,0.184c-0.05,0.048 -0.109,0.072 -0.179,0.072c-0.045,0 -0.086,-0.012 -0.122,-0.037c-0.036,-0.024 -0.062,-0.054 -0.079,-0.09c-0.017,-0.035 -0.026,-0.074 -0.026,-0.116Zm0.092,-0.033c0,0.045 0.006,0.086 0.018,0.122c0.012,0.036 0.03,0.065 0.056,0.087c0.025,0.021 0.054,0.032 0.087,0.032c0.038,0 0.07,-0.015 0.095,-0.045c0.025,-0.031 0.037,-0.077 0.037,-0.138c0,-0.069 -0.013,-0.126 -0.04,-0.17c-0.027,-0.044 -0.067,-0.067 -0.118,-0.067c-0.042,0 -0.075,0.016 -0.099,0.046c-0.024,0.031 -0.036,0.075 -0.036,0.133Z" style="fill-rule:nonzero;"/>
        </g>
        <g transform="matrix(37.5,0,0,37.5,186.443,634.949)">
            <path d="M0.169,-0.465l0.009,0.006c-0.003,0.043 -0.005,0.097 -0.005,0.163l-0,0.113c-0,0.042 0.003,0.071 0.009,0.087c0.007,0.017 0.018,0.029 0.033,0.038c0.016,0.008 0.035,0.013 0.056,0.013c0.024,-0 0.045,-0.005 0.065,-0.014c0.019,-0.01 0.036,-0.023 0.049,-0.04c0.013,-0.017 0.021,-0.028 0.023,-0.034c0.002,-0.006 0.003,-0.022 0.004,-0.049l0.001,-0.055l0,-0.053c0,-0.013 -0.001,-0.03 -0.002,-0.053c-0.001,-0.022 -0.002,-0.036 -0.003,-0.041c-0.001,-0.005 -0.003,-0.009 -0.008,-0.012c-0.004,-0.002 -0.012,-0.003 -0.025,-0.003l-0.041,-0.001l-0.004,-0.004l-0,-0.021l0.003,-0.004c0.063,-0.007 0.115,-0.019 0.158,-0.036l0.009,0.006c-0.004,0.043 -0.005,0.097 -0.005,0.163l-0,0.086c-0,0.004 0,0.044 0.002,0.119c0.001,0.028 0.002,0.045 0.005,0.051c0.003,0.006 0.007,0.01 0.012,0.012c0.005,0.003 0.019,0.004 0.043,0.004l0.014,0l0.004,0.004l0,0.02l-0.004,0.004c-0.046,-0.003 -0.076,-0.004 -0.092,-0.004c-0.02,0 -0.043,0.001 -0.069,0.003l-0.004,-0.003c0.002,-0.034 0.003,-0.062 0.004,-0.085c-0.02,0.016 -0.044,0.037 -0.07,0.064c-0.01,0.01 -0.025,0.019 -0.044,0.025c-0.018,0.007 -0.04,0.011 -0.064,0.011c-0.037,-0 -0.065,-0.006 -0.085,-0.018c-0.021,-0.011 -0.035,-0.027 -0.043,-0.048c-0.009,-0.02 -0.013,-0.055 -0.013,-0.105l0,-0.038l0,-0.096c0,-0.013 -0,-0.03 -0.002,-0.053c-0.001,-0.022 -0.002,-0.036 -0.003,-0.041c-0.001,-0.005 -0.003,-0.009 -0.007,-0.012c-0.005,-0.002 -0.013,-0.003 -0.026,-0.003l-0.041,-0.001l-0.004,-0.004l-0,-0.021l0.004,-0.004c0.062,-0.007 0.114,-0.019 0.157,-0.036Z" style="fill-rule:nonzero;"/>
        </g>
        <g transform="matrix(37.5,0,0,37.5,209.056,634.949)">
            <path d="M0.188,-0.465l0.009,0.006c-0.002,0.019 -0.004,0.052 -0.005,0.101l0.037,-0.047c0.012,-0.015 0.023,-0.027 0.032,-0.035c0.009,-0.008 0.02,-0.015 0.032,-0.019c0.013,-0.005 0.026,-0.007 0.039,-0.007c0.014,-0 0.027,0.003 0.04,0.008l0.003,0.007c-0.005,0.044 -0.008,0.082 -0.008,0.115l-0.022,-0c-0.013,-0.03 -0.034,-0.045 -0.063,-0.045c-0.02,-0 -0.038,0.006 -0.053,0.019c-0.015,0.013 -0.025,0.029 -0.03,0.048c-0.005,0.02 -0.008,0.044 -0.008,0.074l0,0.054c0,0.01 0.001,0.034 0.002,0.072c0.002,0.038 0.003,0.06 0.005,0.066c0.001,0.006 0.003,0.01 0.006,0.013c0.003,0.002 0.008,0.004 0.013,0.005c0.005,0.001 0.028,0.003 0.069,0.005l0.005,0.004l-0,0.021l-0.005,0.004c-0.043,-0.003 -0.088,-0.004 -0.136,-0.004c-0.037,-0 -0.076,0.001 -0.117,0.004l-0.004,-0.004l-0,-0.021l0.004,-0.004c0.032,-0.002 0.05,-0.003 0.054,-0.004c0.004,-0.001 0.007,-0.003 0.01,-0.006c0.004,-0.003 0.006,-0.008 0.007,-0.015c0.001,-0.006 0.002,-0.027 0.004,-0.063c0.001,-0.035 0.002,-0.062 0.002,-0.08l-0,-0.097c-0,-0.013 -0.001,-0.03 -0.002,-0.053c-0.001,-0.022 -0.002,-0.036 -0.003,-0.041c-0.001,-0.005 -0.004,-0.009 -0.008,-0.012c-0.004,-0.002 -0.013,-0.003 -0.025,-0.003l-0.041,-0.001l-0.005,-0.004l0,-0.021l0.004,-0.004c0.062,-0.007 0.115,-0.019 0.157,-0.036Z" style="fill-rule:nonzero;"/>
        </g>
        <g transform="matrix(37.5,0,0,37.5,223.87,634.949)">
            <path d="M0.141,-0.684c0.015,0 0.028,0.006 0.039,0.017c0.01,0.01 0.016,0.023 0.016,0.039c-0,0.015 -0.006,0.027 -0.016,0.038c-0.011,0.011 -0.024,0.016 -0.039,0.016c-0.015,0 -0.028,-0.005 -0.039,-0.016c-0.011,-0.01 -0.017,-0.023 -0.017,-0.038c0,-0.016 0.006,-0.029 0.017,-0.039c0.011,-0.011 0.024,-0.017 0.039,-0.017Zm0.041,0.219l0.009,0.006c-0.003,0.043 -0.005,0.097 -0.005,0.163l0,0.11c0,0.007 0.001,0.03 0.002,0.069c0.001,0.039 0.003,0.062 0.004,0.068c0.002,0.007 0.004,0.011 0.007,0.014c0.003,0.003 0.006,0.005 0.01,0.006c0.005,0.001 0.022,0.002 0.053,0.004l0.005,0.004l-0,0.021l-0.004,0.004c-0.041,-0.003 -0.08,-0.004 -0.118,-0.004c-0.037,0 -0.076,0.001 -0.117,0.004l-0.005,-0.004l0,-0.021l0.005,-0.004c0.031,-0.002 0.049,-0.003 0.053,-0.004c0.004,-0.001 0.008,-0.003 0.011,-0.006c0.003,-0.003 0.005,-0.008 0.006,-0.015c0.002,-0.006 0.003,-0.027 0.004,-0.063c0.002,-0.035 0.002,-0.062 0.002,-0.08l0,-0.097c0,-0.013 -0,-0.03 -0.001,-0.053c-0.002,-0.022 -0.003,-0.036 -0.004,-0.041c-0,-0.005 -0.003,-0.009 -0.007,-0.012c-0.004,-0.002 -0.013,-0.003 -0.026,-0.003l-0.041,-0.001l-0.004,-0.004l-0,-0.021l0.004,-0.004c0.062,-0.007 0.114,-0.019 0.157,-0.036Z" style="fill-rule:nonzero;"/>
        </g>
        <g transform="matrix(37.5,0,0,37.5,234.783,634.949)">
            <path d="M0.432,-0.072l-0.016,0.035c-0.034,0.022 -0.064,0.036 -0.091,0.043c-0.026,0.006 -0.05,0.01 -0.071,0.01c-0.039,-0 -0.076,-0.008 -0.111,-0.023c-0.035,-0.016 -0.063,-0.042 -0.085,-0.078c-0.022,-0.036 -0.033,-0.08 -0.033,-0.132c-0,-0.034 0.004,-0.065 0.013,-0.092c0.008,-0.028 0.017,-0.048 0.026,-0.062c0.009,-0.013 0.025,-0.028 0.047,-0.044c0.022,-0.016 0.046,-0.029 0.071,-0.039c0.024,-0.01 0.051,-0.015 0.08,-0.015c0.039,0 0.073,0.009 0.103,0.028c0.03,0.018 0.051,0.042 0.063,0.07c0.012,0.029 0.018,0.059 0.018,0.092c-0,0.01 -0.001,0.02 -0.002,0.029l-0.005,0.005c-0.022,0.005 -0.052,0.009 -0.089,0.01c-0.038,0.002 -0.063,0.003 -0.075,0.003l-0.156,-0c0,0.067 0.017,0.117 0.05,0.149c0.034,0.031 0.074,0.047 0.123,0.047c0.022,0 0.044,-0.004 0.065,-0.011c0.021,-0.008 0.043,-0.019 0.067,-0.033l0.008,0.008Zm-0.313,-0.199c0.006,0 0.028,0.002 0.067,0.003c0.04,0.001 0.069,0.002 0.087,0.002c0.046,-0 0.073,-0.001 0.083,-0.003c0,-0.007 0,-0.013 0,-0.018c0,-0.05 -0.01,-0.088 -0.03,-0.112c-0.021,-0.025 -0.049,-0.037 -0.084,-0.037c-0.039,-0 -0.069,0.014 -0.091,0.041c-0.022,0.028 -0.032,0.069 -0.032,0.124Z" style="fill-rule:nonzero;"/>
        </g>
        <g transform="matrix(37.5,0,0,37.5,252.745,634.949)">
            <path d="M0.188,-0.465l0.009,0.006c-0.002,0.019 -0.004,0.052 -0.005,0.101l0.037,-0.047c0.012,-0.015 0.023,-0.027 0.032,-0.035c0.009,-0.008 0.02,-0.015 0.032,-0.019c0.013,-0.005 0.026,-0.007 0.039,-0.007c0.014,-0 0.027,0.003 0.04,0.008l0.003,0.007c-0.005,0.044 -0.008,0.082 -0.008,0.115l-0.022,-0c-0.013,-0.03 -0.034,-0.045 -0.063,-0.045c-0.02,-0 -0.038,0.006 -0.053,0.019c-0.015,0.013 -0.025,0.029 -0.03,0.048c-0.005,0.02 -0.008,0.044 -0.008,0.074l0,0.054c0,0.01 0.001,0.034 0.002,0.072c0.002,0.038 0.003,0.06 0.005,0.066c0.001,0.006 0.003,0.01 0.006,0.013c0.003,0.002 0.008,0.004 0.013,0.005c0.005,0.001 0.028,0.003 0.069,0.005l0.005,0.004l-0,0.021l-0.005,0.004c-0.043,-0.003 -0.088,-0.004 -0.136,-0.004c-0.037,-0 -0.076,0.001 -0.117,0.004l-0.004,-0.004l-0,-0.021l0.004,-0.004c0.032,-0.002 0.05,-0.003 0.054,-0.004c0.004,-0.001 0.007,-0.003 0.01,-0.006c0.004,-0.003 0.006,-0.008 0.007,-0.015c0.001,-0.006 0.002,-0.027 0.004,-0.063c0.001,-0.035 0.002,-0.062 0.002,-0.08l-0,-0.097c-0,-0.013 -0.001,-0.03 -0.002,-0.053c-0.001,-0.022 -0.002,-0.036 -0.003,-0.041c-0.001,-0.005 -0.004,-0.009 -0.008,-0.012c-0.004,-0.002 -0.013,-0.003 -0.025,-0.003l-0.041,-0.001l-0.005,-0.004l0,-0.021l0.004,-0.004c0.062,-0.007 0.115,-0.019 0.157,-0.036Z" style="fill-rule:nonzero;"/>
        </g>
        <g transform="matrix(37.5,0,0,37.5,160.341,684.936)">
            <path d="M0.181,-0.471l0.009,0.006c-0.003,0.037 -0.005,0.07 -0.005,0.098c0.044,-0.04 0.075,-0.067 0.092,-0.08c0.018,-0.013 0.048,-0.019 0.09,-0.019c0.027,-0 0.051,0.003 0.073,0.011c0.022,0.007 0.042,0.019 0.06,0.036c0.019,0.017 0.034,0.038 0.044,0.063c0.011,0.025 0.017,0.054 0.017,0.087c-0,0.024 -0.004,0.048 -0.012,0.072c-0.007,0.024 -0.017,0.046 -0.029,0.067c-0.012,0.02 -0.022,0.034 -0.03,0.04c-0.007,0.007 -0.022,0.017 -0.045,0.03c-0.02,0.013 -0.041,0.026 -0.061,0.04c-0.014,0.011 -0.023,0.017 -0.029,0.02c-0.006,0.003 -0.015,0.006 -0.028,0.009c-0.013,0.003 -0.027,0.004 -0.041,0.004c-0.034,0 -0.068,-0.008 -0.101,-0.026l-0,0.104c-0,0.007 0,0.031 0.002,0.069c0.001,0.039 0.002,0.062 0.004,0.069c0.001,0.006 0.003,0.011 0.006,0.014c0.003,0.003 0.007,0.004 0.011,0.005c0.004,0.001 0.022,0.002 0.053,0.004l0.004,0.004l0,0.021l-0.004,0.004c-0.04,-0.002 -0.08,-0.004 -0.117,-0.004c-0.037,0 -0.076,0.002 -0.117,0.004l-0.005,-0.004l0,-0.021l0.005,-0.004c0.031,-0.002 0.049,-0.003 0.053,-0.004c0.004,-0.001 0.008,-0.003 0.011,-0.006c0.003,-0.003 0.005,-0.008 0.006,-0.015c0.002,-0.007 0.003,-0.029 0.004,-0.065c0.002,-0.037 0.003,-0.065 0.003,-0.083l-0,-0.374c-0,-0.017 -0.001,-0.037 -0.003,-0.059c-0.001,-0.023 -0.002,-0.035 -0.003,-0.039c-0.001,-0.004 -0.004,-0.007 -0.007,-0.009c-0.004,-0.002 -0.013,-0.003 -0.026,-0.003l-0.041,-0.001l-0.004,-0.004l0,-0.021l0.004,-0.004c0.062,-0.007 0.114,-0.019 0.157,-0.036Zm0.004,0.374c0.015,0.016 0.033,0.029 0.055,0.04c0.022,0.011 0.047,0.017 0.073,0.017c0.032,-0 0.06,-0.008 0.084,-0.024c0.024,-0.016 0.043,-0.039 0.057,-0.07c0.013,-0.031 0.02,-0.065 0.02,-0.102c-0,-0.031 -0.006,-0.059 -0.018,-0.085c-0.012,-0.026 -0.03,-0.046 -0.055,-0.061c-0.025,-0.015 -0.052,-0.023 -0.08,-0.023c-0.017,0 -0.034,0.003 -0.05,0.009c-0.016,0.006 -0.031,0.015 -0.046,0.027c-0.014,0.012 -0.024,0.023 -0.03,0.033c-0.006,0.011 -0.01,0.02 -0.01,0.027c-0,0.007 -0,0.014 -0,0.023l-0,0.189Z" style="fill-rule:nonzero;"/>
        </g>
        <g transform="matrix(37.5,0,0,37.5,182.881,684.936)">
            <path d="M0.183,-0.723l0.009,0.006c-0.004,0.037 -0.005,0.112 -0.005,0.225l-0,0.306c-0,0.007 0,0.03 0.001,0.069c0.002,0.039 0.003,0.062 0.005,0.068c0.001,0.007 0.003,0.011 0.006,0.014c0.003,0.003 0.007,0.005 0.011,0.006c0.004,0.001 0.022,0.002 0.053,0.004l0.004,0.004l0,0.021l-0.004,0.004c-0.041,-0.003 -0.08,-0.004 -0.117,-0.004c-0.038,-0 -0.077,0.001 -0.118,0.004l-0.004,-0.004l-0,-0.021l0.004,-0.004c0.032,-0.002 0.05,-0.003 0.054,-0.004c0.004,-0.001 0.007,-0.003 0.011,-0.006c0.003,-0.003 0.005,-0.008 0.006,-0.015c0.001,-0.006 0.002,-0.027 0.004,-0.063c0.001,-0.035 0.002,-0.062 0.002,-0.08l-0,-0.253l-0.002,-0.104c-0.001,-0.036 -0.002,-0.061 -0.003,-0.075c-0.001,-0.014 -0.003,-0.022 -0.005,-0.025c-0.002,-0.003 -0.005,-0.004 -0.01,-0.006c-0.005,-0.001 -0.025,-0.002 -0.059,-0.002l-0.005,-0.004l0,-0.021l0.004,-0.004c0.063,-0.007 0.115,-0.019 0.158,-0.036Z" style="fill-rule:nonzero;"/>
        </g>
        <g transform="matrix(37.5,0,0,37.5,193.794,684.936)">
            <path d="M0.104,-0.331l-0.02,-0.005l-0.003,-0.005l-0,-0.06c0.058,-0.043 0.114,-0.065 0.169,-0.065c0.037,0 0.068,0.007 0.093,0.021c0.025,0.014 0.042,0.032 0.053,0.053c0.012,0.021 0.017,0.045 0.017,0.073l-0.002,0.098l-0,0.146c-0,0.02 0.001,0.032 0.004,0.036c0.003,0.004 0.006,0.007 0.009,0.008c0.004,0.002 0.011,0.003 0.02,0.004l0.028,0.003l0.004,0.004l0,0.02l-0.004,0.003c-0.024,-0.002 -0.046,-0.003 -0.066,-0.003c-0.02,0 -0.043,0.001 -0.071,0.003l-0.007,-0.006l0.002,-0.079l-0.106,0.083c-0.018,0.007 -0.038,0.011 -0.059,0.011c-0.026,0 -0.048,-0.005 -0.067,-0.014c-0.019,-0.009 -0.033,-0.023 -0.043,-0.04c-0.01,-0.016 -0.015,-0.037 -0.015,-0.061c0,-0.048 0.015,-0.085 0.045,-0.112c0.03,-0.027 0.112,-0.05 0.245,-0.069c0,-0.048 -0.011,-0.082 -0.032,-0.101c-0.022,-0.02 -0.05,-0.03 -0.087,-0.03c-0.018,-0 -0.036,0.003 -0.051,0.008c-0.016,0.006 -0.024,0.01 -0.027,0.014c-0.002,0.003 -0.011,0.023 -0.026,0.06l-0.003,0.002Zm0.226,0.077c-0.091,0.015 -0.148,0.032 -0.17,0.049c-0.023,0.018 -0.034,0.045 -0.034,0.082c-0,0.051 0.025,0.076 0.076,0.076c0.043,0 0.086,-0.025 0.128,-0.075l0,-0.132Z" style="fill-rule:nonzero;"/>
        </g>
        <g transform="matrix(37.5,0,0,37.5,212.544,684.936)">
            <path d="M0.167,-0.465l0.009,0.006c-0.002,0.022 -0.003,0.05 -0.004,0.086c0.026,-0.022 0.051,-0.043 0.075,-0.065c0.006,-0.007 0.013,-0.011 0.019,-0.014c0.006,-0.003 0.016,-0.006 0.03,-0.009c0.014,-0.004 0.028,-0.005 0.043,-0.005c0.025,-0 0.049,0.005 0.072,0.015c0.023,0.01 0.041,0.022 0.053,0.036c0.012,0.014 0.02,0.03 0.024,0.049c0.005,0.019 0.007,0.042 0.007,0.07l0,0.086c0,0.005 0.001,0.046 0.003,0.121c0,0.031 0.004,0.049 0.01,0.055c0.006,0.006 0.026,0.009 0.06,0.009l0.004,0.004l0,0.021l-0.004,0.004c-0.041,-0.003 -0.069,-0.004 -0.084,-0.004c-0.008,0 -0.032,0.001 -0.071,0.004l-0.006,-0.005c0.004,-0.043 0.007,-0.098 0.007,-0.166l-0,-0.064c-0,-0.038 -0.001,-0.066 -0.003,-0.083c-0.002,-0.017 -0.007,-0.032 -0.016,-0.046c-0.01,-0.014 -0.022,-0.025 -0.037,-0.032c-0.015,-0.008 -0.034,-0.012 -0.055,-0.012c-0.017,0 -0.031,0.002 -0.043,0.005c-0.012,0.004 -0.026,0.011 -0.041,0.021c-0.015,0.011 -0.026,0.021 -0.033,0.03c-0.007,0.009 -0.011,0.018 -0.013,0.026c-0.001,0.008 -0.002,0.025 -0.002,0.051l-0,0.085c-0,0.007 0.001,0.03 0.002,0.069c0.001,0.039 0.003,0.062 0.004,0.068c0.001,0.007 0.004,0.011 0.007,0.014c0.003,0.003 0.006,0.005 0.01,0.006c0.005,0.001 0.022,0.002 0.053,0.004l0.004,0.004l0,0.021l-0.003,0.004c-0.041,-0.003 -0.08,-0.004 -0.118,-0.004c-0.038,-0 -0.077,0.001 -0.117,0.004l-0.005,-0.004l0,-0.021l0.005,-0.004c0.031,-0.002 0.049,-0.003 0.053,-0.004c0.004,-0.001 0.008,-0.003 0.011,-0.006c0.003,-0.003 0.005,-0.008 0.006,-0.015c0.001,-0.006 0.003,-0.027 0.004,-0.063c0.002,-0.035 0.002,-0.062 0.002,-0.08l0,-0.097c0,-0.013 -0,-0.03 -0.002,-0.053c-0.001,-0.022 -0.002,-0.036 -0.003,-0.041c-0.001,-0.005 -0.003,-0.009 -0.007,-0.012c-0.005,-0.002 -0.013,-0.003 -0.026,-0.003l-0.041,-0.001l-0.004,-0.004l-0,-0.021l0.004,-0.004c0.062,-0.007 0.114,-0.019 0.157,-0.036Z" style="fill-rule:nonzero;"/>
        </g>
        <g transform="matrix(37.5,0,0,37.5,234.371,684.936)">
            <path d="M0.432,-0.072l-0.016,0.035c-0.034,0.022 -0.064,0.036 -0.091,0.043c-0.026,0.006 -0.05,0.01 -0.071,0.01c-0.039,-0 -0.076,-0.008 -0.111,-0.023c-0.035,-0.016 -0.063,-0.042 -0.085,-0.078c-0.022,-0.036 -0.033,-0.08 -0.033,-0.132c-0,-0.034 0.004,-0.065 0.013,-0.092c0.008,-0.028 0.017,-0.048 0.026,-0.062c0.009,-0.013 0.025,-0.028 0.047,-0.044c0.022,-0.016 0.046,-0.029 0.071,-0.039c0.024,-0.01 0.051,-0.015 0.08,-0.015c0.039,0 0.073,0.009 0.103,0.028c0.03,0.018 0.051,0.042 0.063,0.07c0.012,0.029 0.018,0.059 0.018,0.092c-0,0.01 -0.001,0.02 -0.002,0.029l-0.005,0.005c-0.022,0.005 -0.052,0.009 -0.089,0.01c-0.038,0.002 -0.063,0.003 -0.075,0.003l-0.156,-0c0,0.067 0.017,0.117 0.05,0.149c0.034,0.031 0.074,0.047 0.123,0.047c0.022,0 0.044,-0.004 0.065,-0.011c0.021,-0.008 0.043,-0.019 0.067,-0.033l0.008,0.008Zm-0.313,-0.199c0.006,0 0.028,0.002 0.067,0.003c0.04,0.001 0.069,0.002 0.087,0.002c0.046,-0 0.073,-0.001 0.083,-0.003c0,-0.007 0,-0.013 0,-0.018c0,-0.05 -0.01,-0.088 -0.03,-0.112c-0.021,-0.025 -0.049,-0.037 -0.084,-0.037c-0.039,-0 -0.069,0.014 -0.091,0.041c-0.022,0.028 -0.032,0.069 -0.032,0.124Z" style="fill-rule:nonzero;"/>
        </g>
    </g>
    <g>
        <path d="M151.766,219.721l37.201,-0" style="fill:none;stroke:rgb(35,31,32);stroke-width:2.81px;"/>
        <path d="M191.853,219.721l36.934,-0" style="fill:none;stroke:white;stroke-width:5.53px;"/>
        <path d="M184.325,219.721l36.935,-0" style="fill:none;stroke:rgb(35,31,32);stroke-width:2.81px;stroke-dasharray:2.81,8.42,0,0;"/>
        <path d="M228.787,219.721l37.202,-0" style="fill:none;stroke:rgb(35,31,32);stroke-width:2.81px;"/>
        <path d="M172.429,237.307l35.172,-35.172" style="fill:none;stroke:rgb(35,31,32);stroke-width:2.92px;"/>
        <path d="M210.32,237.307l35.172,-35.172" style="fill:none;stroke:rgb(35,31,32);stroke-width:2.92px;"/>
    </g>
    <path d="M363.55,14.989l0,150.522" style="fill:none;stroke:rgb(35,31,32);stroke-width:2.92px;"/>
    <path d="M363.55,274.934l0,147.566" style="fill:none;stroke:rgb(35,31,32);stroke-width:2.92px;"/>
    <path d="M369.724,41.69l-6.174,3.087l6.174,3.086l-0,-6.173Z" style="fill:rgb(35,31,32);"/>
    <path d="M554.159,41.69l6.174,3.087l-6.174,3.086l0,-6.173Z" style="fill:rgb(35,31,32);"/>
    <path d="M368.489,44.777l186.905,-0" style="fill:none;stroke:rgb(35,31,32);stroke-width:2.06px;"/>
    <path d="M566.506,41.69l-6.173,3.087l6.173,3.086l0,-6.173Z" style="fill:rgb(35,31,32);"/>
    <path d="M750.942,41.69l6.173,3.087l-6.173,3.086l-0,-6.173Z" style="fill:rgb(35,31,32);"/>
    <path d="M565.272,44.777l186.905,-0" style="fill:none;stroke:rgb(35,31,32);stroke-width:2.06px;"/>
    <path d="M763.289,41.69l-6.174,3.087l6.174,3.086l-0,-6.173Z" style="fill:rgb(35,31,32);"/>
    <path d="M947.724,41.69l6.174,3.087l-6.174,3.086l0,-6.173Z" style="fill:rgb(35,31,32);"/>
    <path d="M762.054,44.777l186.905,-0" style="fill:none;stroke:rgb(35,31,32);stroke-width:2.06px;"/>
    <path d="M960.071,41.69l-6.173,3.087l6.173,3.086l0,-6.173Z" style="fill:rgb(35,31,32);"/>
    <path d="M1144.51,41.69l6.173,3.087l-6.173,3.086l-0,-6.173Z" style="fill:rgb(35,31,32);"/>
    <path d="M958.837,44.777l186.905,-0" style="fill:none;stroke:rgb(35,31,32);stroke-width:2.06px;"/>
    <g id="Step1">
        <path d="M110.86,236.968c-0,0 54.645,0.427 54.645,62.766c-0,60.656 -54.645,62.766 -54.645,62.766" style="fill:none;stroke:rgb(0,174,239);stroke-width:2.81px;stroke-dasharray:2.81,8.42,0,0;"/>
        <path d="M110.86,257.785c-0,-0 37.731,0.285 37.731,41.949c-0,40.539 -37.731,41.949 -37.731,41.949" style="fill:none;stroke:rgb(0,174,239);stroke-width:2.81px;stroke-dasharray:2.81,8.42,0,0;"/>
        <path d="M110.86,221.147c-0,0 75.461,0.535 75.461,78.587c0,75.945 -75.461,78.587 -75.461,78.587" style="fill:none;stroke:rgb(0,174,239);stroke-width:2.81px;stroke-dasharray:2.81,8.42,0,0;"/>
        <path d="M338.469,290.586l-36.175,-114.038" style="fill:none;stroke:rgb(0,174,239);stroke-width:2.92px;stroke-dasharray:2.92,8.75,0,0;"/>
        <path d="M315.464,297.988l-36.176,-114.038" style="fill:none;stroke:rgb(0,174,239);stroke-width:2.92px;stroke-dasharray:2.92,8.75,0,0;"/>
        <path d="M292.132,305.321l-36.175,-114.038" style="fill:none;stroke:rgb(0,174,239);stroke-width:2.92px;stroke-dasharray:2.92,8.75,0,0;"/>
        <path d="M110.86,299.734l449.473,-142.324" style="fill:none;stroke:rgb(0,174,239);stroke-width:2.81px;stroke-dasharray:2.81,14.03,0,0;"/>
        <path d="M305.502,183.891l254.831,-80.691" style="fill:none;stroke:rgb(0,174,239);stroke-width:2.81px;stroke-dasharray:2.81,14.03,0,0;"/>
        <path d="M336.616,283.463l240.455,-76.139" style="fill:none;stroke:rgb(0,174,239);stroke-width:2.81px;stroke-dasharray:2.81,14.03,0,0;"/>
        <path d="M560.333,212.624l393.565,-110.427" style="fill:none;stroke:rgb(0,174,239);stroke-width:2.81px;stroke-dasharray:2.81,14.03,0,0;"/>
        <path d="M560.333,157.41l393.565,0" style="fill:none;stroke:rgb(0,174,239);stroke-width:2.81px;stroke-dasharray:2.81,14.03,0,0;"/>
        <path d="M560.333,103.2l393.565,108.42" style="fill:none;stroke:rgb(0,174,239);stroke-width:2.81px;stroke-dasharray:2.81,14.03,0,0;"/>
        <path d="M953.898,102.197l196.782,62.31" style="fill:none;stroke:rgb(0,174,239);stroke-width:2.81px;stroke-dasharray:2.81,14.03,0,0;"/>
        <path d="M953.898,157.41l196.782,62.311" style="fill:none;stroke:rgb(0,174,239);stroke-width:2.81px;stroke-dasharray:2.81,14.03,0,0;"/>
        <path d="M953.898,211.62l196.782,62.311" style="fill:none;stroke:rgb(0,174,239);stroke-width:2.81px;stroke-dasharray:2.81,14.03,0,0;"/>
        <circle cx="110.86" cy="299.734" r="14.484" style="fill:rgb(0,174,239);stroke:black;stroke-width:2.81px;"/>
    </g>
</svg>
