<?xml version="1.0" encoding="UTF-8" standalone="no"?>
<!DOCTYPE svg PUBLIC "-//W3C//DTD SVG 1.1//EN" "http://www.w3.org/Graphics/SVG/1.1/DTD/svg11.dtd">
<svg width="100%" height="100%" viewBox="0 0 101 101" version="1.1" xmlns="http://www.w3.org/2000/svg" xmlns:xlink="http://www.w3.org/1999/xlink" xml:space="preserve" xmlns:serif="http://www.serif.com/" style="fill-rule:evenodd;clip-rule:evenodd;stroke-linejoin:round;stroke-miterlimit:2;">
    <g transform="matrix(0.336699,0,0,0.336699,0,0)">
        <rect x="0" y="0" width="299.478" height="299.489" style="fill:none;fill-rule:nonzero;"/>
        <g transform="matrix(0.19467,0,0,0.194686,2.20745,2.20754)">
            <path d="M600,1016L920,1016C948,1016 968,1037 968,1064C968,1092 948,1112 920,1112L600,1112C573,1112 552,1092 552,1064C552,1037 573,1016 600,1016Z" style="fill-rule:nonzero;"/>
        </g>
        <g transform="matrix(0.19467,0,0,0.194686,2.20745,2.20754)">
            <path d="M600,1176L920,1176C948,1176 968,1197 968,1224C968,1252 948,1272 920,1272L600,1272C573,1272 552,1252 552,1224C552,1197 573,1176 600,1176Z" style="fill-rule:nonzero;"/>
        </g>
        <g transform="matrix(0.19467,0,0,0.194686,2.20745,2.20754)">
            <path d="M656,1336C661,1391 706,1432 760,1432C815,1432 860,1391 864,1336L656,1336Z" style="fill-rule:nonzero;"/>
        </g>
        <g transform="matrix(0.19467,0,0,0.194686,2.20745,2.20754)">
            <path d="M760,88C533,90 349,272 344,500L344,514C346,564 356,612 373,658C391,701 415,741 445,776C484,818 525,900 543,935C548,946 559,952 572,952L949,952C962,952 973,946 978,935C996,900 1037,818 1076,776C1106,741 1132,701 1148,658C1165,612 1175,564 1176,514L1176,500C1172,272 988,90 760,88ZM1080,512C1079,551 1071,589 1058,624C1045,656 1028,687 1004,712C967,757 935,805 911,856L612,856C586,805 554,757 519,712C496,687 477,656 464,624C450,589 444,551 442,512L442,500C445,325 588,184 762,183C936,184 1079,324 1082,500L1082,512L1080,512Z" style="fill-rule:nonzero;"/>
        </g>
    </g>
</svg>
