<?xml version="1.0" encoding="UTF-8" standalone="no"?>
<!DOCTYPE svg PUBLIC "-//W3C//DTD SVG 1.1//EN" "http://www.w3.org/Graphics/SVG/1.1/DTD/svg11.dtd">
<svg width="100%" height="100%" viewBox="0 0 101 101" version="1.1" xmlns="http://www.w3.org/2000/svg" xmlns:xlink="http://www.w3.org/1999/xlink" xml:space="preserve" xmlns:serif="http://www.serif.com/" style="fill-rule:evenodd;clip-rule:evenodd;stroke-linejoin:round;stroke-miterlimit:2;">
    <g transform="matrix(-0.319274,2.15704e-32,2.15704e-32,0.319274,98.2248,-2.66156)">
        <rect x="0" y="0" width="299.478" height="299.489" style="fill:none;fill-rule:nonzero;"/>
        <g transform="matrix(0.19467,0,0,0.194686,2.20745,2.20754)">
            <path d="M424,504C424,522 410,536 392,536C375,536 360,522 360,504C360,487 375,472 392,472C410,472 424,487 424,504" style="fill-rule:nonzero;"/>
        </g>
        <g transform="matrix(0.19467,0,0,0.194686,2.20745,2.20754)">
            <path d="M424,632C424,650 410,664 392,664C375,664 360,650 360,632C360,615 375,600 392,600C410,600 424,615 424,632" style="fill-rule:nonzero;"/>
        </g>
        <g transform="matrix(0.19467,0,0,0.194686,2.20745,2.20754)">
            <path d="M360,568C360,586 346,600 328,600C311,600 296,586 296,568C296,551 311,536 328,536C346,536 360,551 360,568" style="fill-rule:nonzero;"/>
        </g>
        <g transform="matrix(0.19467,0,0,0.194686,2.20745,2.20754)">
            <path d="M488,568C488,586 474,600 456,600C439,600 424,586 424,568C424,551 439,536 456,536C474,536 488,551 488,568" style="fill-rule:nonzero;"/>
        </g>
        <g transform="matrix(0.19467,0,0,0.194686,2.20745,2.20754)">
            <path d="M872,440C872,458 858,472 840,472C823,472 808,458 808,440C808,423 823,408 840,408C858,408 872,423 872,440" style="fill-rule:nonzero;"/>
        </g>
        <g transform="matrix(0.19467,0,0,0.194686,2.20745,2.20754)">
            <path d="M872,568C872,586 858,600 840,600C823,600 808,586 808,568C808,551 823,536 840,536C858,536 872,551 872,568" style="fill-rule:nonzero;"/>
        </g>
        <g transform="matrix(0.19467,0,0,0.194686,2.20745,2.20754)">
            <path d="M808,504C808,522 794,536 776,536C759,536 744,522 744,504C744,487 759,472 776,472C794,472 808,487 808,504" style="fill-rule:nonzero;"/>
        </g>
        <g transform="matrix(0.19467,0,0,0.194686,2.20745,2.20754)">
            <path d="M936,504C936,522 922,536 904,536C887,536 872,522 872,504C872,487 887,472 904,472C922,472 936,487 936,504" style="fill-rule:nonzero;"/>
        </g>
        <g transform="matrix(0.19467,0,0,0.194686,2.20745,2.20754)">
            <path d="M1304,712L1208,808L1080,808L1080,1160L1208,1160L1304,1256L1400,1256L1400,712L1304,712Z" style="fill-rule:nonzero;"/>
        </g>
        <g transform="matrix(0.19467,0,0,0.194686,2.20745,2.20754)">
            <path d="M840,648C760,648 696,584 696,504C696,424 760,360 840,360C920,360 984,424 984,504C984,584 920,648 840,648ZM888,1160C871,1160 856,1146 856,1128C856,1111 871,1096 888,1096C906,1096 920,1111 920,1128C920,1146 906,1160 888,1160ZM584,712C605,684 621,652 628,615C648,655 682,688 720,712L584,712ZM392,712C312,712 248,648 248,568C248,488 312,424 392,424C472,424 536,488 536,568C536,648 472,712 392,712ZM959,712C1031,671 1080,594 1080,504C1080,372 973,264 840,264C724,264 628,348 605,458C565,381 485,328 392,328C260,328 152,436 152,568C152,647 191,716 248,760L248,808L216,808L184,776L120,776L120,936L184,936L216,904L248,904L248,1192C248,1228 277,1256 312,1256L952,1256C988,1256 1016,1228 1016,1192L1016,776C1016,743 991,716 959,712Z" style="fill-rule:nonzero;"/>
        </g>
    </g>
</svg>
