<?xml version="1.0" encoding="UTF-8" standalone="no"?>
<!DOCTYPE svg PUBLIC "-//W3C//DTD SVG 1.1//EN" "http://www.w3.org/Graphics/SVG/1.1/DTD/svg11.dtd">
<svg width="100%" height="100%" viewBox="0 0 957 508" version="1.1" xmlns="http://www.w3.org/2000/svg" xmlns:xlink="http://www.w3.org/1999/xlink" xml:space="preserve" xmlns:serif="http://www.serif.com/" style="fill-rule:evenodd;clip-rule:evenodd;stroke-linecap:round;stroke-linejoin:round;stroke-miterlimit:1.5;">
    <path d="M638.527,246.932c-69.483,-3.709 -99.611,-16.05 -99.611,-16.05c0,-0 30.128,-36.575 99.611,-47.566c0.078,0.093 0,32.148 0,32.148c0,-0 0.078,31.766 0,31.468Z" style="fill:url(#_Radial1);"/>
    <rect x="64.239" y="241.709" width="120.956" height="42.69" style="fill:none;stroke:black;stroke-width:3.37px;"/>
    <rect x="332.323" y="241.709" width="42.52" height="42.69" style="fill:none;stroke:black;stroke-width:3.37px;"/>
    <rect x="813.709" y="183.316" width="92.235" height="184.86" style="fill:none;stroke:black;stroke-width:3.37px;"/>
    <path d="M226.869,326.074l0,120.956l42.691,-0l-0,-120.956l-42.691,-0Z" style="fill:none;stroke:black;stroke-width:3.37px;"/>
    <path d="M538.916,101.441l0,365.665l99.611,0l0,-365.665l-99.611,-0Z" style="fill:none;stroke:black;stroke-width:3.37px;"/>
    <path d="M199.41,311.859l97.609,-97.609" style="fill:none;stroke:black;stroke-width:3.37px;"/>
    <path d="M9.901,297.718l0.146,-0.128c3.027,0.097 4.773,0.146 5.237,0.146c0.415,0 2.167,-0.049 5.255,-0.146l0.147,0.128l-0,0.915l-0.147,0.129c-0.842,0.024 -1.492,0.061 -1.95,0.109c-0.458,0.049 -0.79,0.141 -0.998,0.275c-0.207,0.134 -0.345,0.449 -0.412,0.943c-0.067,0.494 -0.101,1.181 -0.101,2.06l-0.036,4.211l-0,5.823c-0,1.917 0.039,3.323 0.119,4.221c0.079,0.897 0.25,1.654 0.512,2.27c0.263,0.617 0.663,1.148 1.2,1.593c0.537,0.446 1.306,0.809 2.307,1.09c1.001,0.28 2.136,0.421 3.406,0.421c1.342,-0 2.597,-0.186 3.763,-0.559c1.165,-0.372 2.053,-0.912 2.664,-1.62c0.61,-0.708 1.01,-1.639 1.199,-2.792c0.189,-1.154 0.284,-2.756 0.284,-4.807l-0,-5.64c-0,-0.952 -0.015,-2.261 -0.046,-3.927c-0.03,-1.666 -0.104,-2.625 -0.22,-2.875c-0.116,-0.25 -0.329,-0.439 -0.641,-0.568c-0.311,-0.128 -1.174,-0.204 -2.59,-0.228l-0.147,-0.147l0,-0.861l0.147,-0.164c1.806,0.097 3.253,0.146 4.339,0.146c0.928,0 2.368,-0.049 4.321,-0.146l0.165,0.146l0,0.879l-0.165,0.147c-1.147,0.024 -1.895,0.07 -2.243,0.137c-0.348,0.067 -0.592,0.168 -0.732,0.302c-0.14,0.134 -0.244,0.342 -0.311,0.623c-0.067,0.28 -0.113,1.086 -0.138,2.417l-0.055,4.119l0,5.567c0,2.221 -0.085,3.973 -0.256,5.255c-0.171,1.282 -0.552,2.335 -1.144,3.158c-0.592,0.824 -1.294,1.514 -2.106,2.07c-0.812,0.555 -1.852,0.982 -3.122,1.281c-1.27,0.299 -2.588,0.449 -3.955,0.449c-1.709,-0 -3.22,-0.189 -4.532,-0.568c-1.312,-0.378 -2.347,-0.879 -3.104,-1.501c-0.756,-0.623 -1.3,-1.279 -1.629,-1.969c-0.33,-0.689 -0.543,-1.501 -0.641,-2.435c-0.098,-0.934 -0.147,-2.359 -0.147,-4.275l0,-7.032l-0.036,-3.57c-0.012,-1.392 -0.046,-2.289 -0.101,-2.692c-0.055,-0.403 -0.14,-0.671 -0.256,-0.805c-0.116,-0.135 -0.339,-0.245 -0.669,-0.33c-0.329,-0.086 -1.141,-0.153 -2.435,-0.201l-0.146,-0.129l-0,-0.915Z" style="fill-rule:nonzero;"/>
    <path d="M39.6,297.59c3.077,0.097 5.036,0.146 5.878,0.146c1.147,0 2.435,-0.03 3.864,-0.091c1.513,-0.049 2.447,-0.074 2.801,-0.074c1.709,0 3.122,0.177 4.239,0.531c1.117,0.354 2.042,1.001 2.774,1.941c0.732,0.94 1.099,2.075 1.099,3.406c-0,1.099 -0.257,2.161 -0.769,3.186c-0.513,1.025 -1.227,1.898 -2.143,2.618c-0.915,0.721 -1.843,1.236 -2.783,1.548c-0.94,0.311 -1.916,0.467 -2.93,0.467c-0.756,-0 -1.599,-0.086 -2.526,-0.257l-0.312,-1.117l0.165,-0.183c0.916,0.208 1.66,0.311 2.234,0.311c1.599,0 2.884,-0.527 3.854,-1.583c0.971,-1.056 1.456,-2.408 1.456,-4.056c-0,-1.66 -0.504,-2.985 -1.511,-3.974c-1.007,-0.988 -2.53,-1.483 -4.568,-1.483c-1.111,0 -2.332,0.208 -3.662,0.623c-0.11,0.94 -0.165,3.21 -0.165,6.811l-0,8.478l0.018,3.571c0.012,1.379 0.049,2.27 0.11,2.673c0.061,0.403 0.15,0.671 0.266,0.806c0.116,0.134 0.338,0.247 0.668,0.338c0.33,0.092 1.141,0.162 2.435,0.211l0.147,0.11l-0,0.915l-0.147,0.147c-3.113,-0.098 -4.864,-0.147 -5.255,-0.147c-0.415,0 -2.16,0.049 -5.237,0.147l-0.146,-0.147l-0,-0.915l0.146,-0.11c1.136,-0.049 1.892,-0.11 2.271,-0.183c0.378,-0.073 0.632,-0.168 0.76,-0.284c0.128,-0.116 0.232,-0.363 0.311,-0.741c0.079,-0.379 0.125,-1.221 0.137,-2.527l0.019,-3.864l-0,-8.478l-0.037,-3.57c-0.012,-1.392 -0.046,-2.289 -0.101,-2.692c-0.055,-0.403 -0.14,-0.671 -0.256,-0.805c-0.116,-0.135 -0.339,-0.245 -0.668,-0.33c-0.33,-0.086 -1.142,-0.153 -2.436,-0.201l-0.146,-0.129l-0,-0.915l0.146,-0.128Z" style="fill-rule:nonzero;"/>
    <path d="M77.393,296.345l0.348,0.219c-0.134,1.404 -0.201,4.218 -0.201,8.441l-0,11.481c-0,0.269 0.024,1.132 0.073,2.591c0.049,1.459 0.101,2.31 0.156,2.554c0.055,0.245 0.137,0.422 0.247,0.531c0.11,0.11 0.244,0.18 0.403,0.211c0.158,0.03 0.818,0.082 1.977,0.156l0.165,0.146l0,0.769l-0.146,0.165c-1.526,-0.098 -2.997,-0.147 -4.413,-0.147c-1.404,0 -2.869,0.049 -4.395,0.147l-0.165,-0.165l0,-0.769l0.165,-0.146c1.184,-0.074 1.853,-0.129 2.005,-0.165c0.153,-0.037 0.287,-0.113 0.403,-0.229c0.116,-0.116 0.195,-0.293 0.238,-0.531c0.043,-0.238 0.092,-1.025 0.147,-2.362c0.054,-1.337 0.082,-2.347 0.082,-3.031l-0,-9.484l-0.073,-3.882c-0.037,-1.355 -0.077,-2.295 -0.119,-2.82c-0.043,-0.525 -0.101,-0.836 -0.174,-0.934c-0.074,-0.098 -0.202,-0.171 -0.385,-0.22c-0.183,-0.048 -0.921,-0.073 -2.215,-0.073l-0.165,-0.165l-0,-0.769l0.146,-0.165c2.332,-0.268 4.297,-0.72 5.896,-1.354Z" style="fill-rule:nonzero;"/>
    <path d="M85.34,311.048l-0.714,-0.183l-0.147,-0.183l0,-2.271c2.173,-1.611 4.285,-2.417 6.336,-2.417c1.404,0 2.57,0.263 3.497,0.788c0.928,0.524 1.599,1.181 2.014,1.968c0.415,0.787 0.623,1.706 0.623,2.756l-0.092,3.68l0,5.457c0,0.744 0.052,1.196 0.156,1.355c0.104,0.158 0.223,0.265 0.357,0.32c0.134,0.055 0.385,0.101 0.751,0.137l1.044,0.092l0.146,0.165l0,0.732l-0.146,0.147c-0.892,-0.074 -1.722,-0.11 -2.491,-0.11c-0.732,-0 -1.611,0.036 -2.636,0.11l-0.275,-0.257l0.073,-2.948l-3.992,3.113c-0.671,0.281 -1.403,0.421 -2.197,0.421c-0.976,0 -1.816,-0.177 -2.517,-0.531c-0.702,-0.354 -1.24,-0.848 -1.612,-1.483c-0.372,-0.635 -0.558,-1.404 -0.558,-2.307c-0,-1.795 0.561,-3.195 1.684,-4.202c1.123,-1.007 4.187,-1.865 9.192,-2.573c0,-1.807 -0.403,-3.079 -1.208,-3.818c-0.806,-0.738 -1.886,-1.108 -3.241,-1.108c-0.708,0 -1.352,0.104 -1.932,0.312c-0.58,0.207 -0.913,0.375 -0.998,0.503c-0.085,0.128 -0.415,0.876 -0.989,2.243l-0.128,0.092Zm8.496,2.893c-3.418,0.574 -5.548,1.19 -6.39,1.849c-0.842,0.659 -1.264,1.679 -1.264,3.058c0,1.904 0.946,2.857 2.839,2.857c1.623,-0 3.228,-0.94 4.815,-2.82l0,-4.944Z" style="fill-rule:nonzero;"/>
    <path d="M102.058,318.079l0.787,0l0.165,0.165c0.024,1.025 0.085,1.904 0.183,2.637c0.378,0.573 1.031,1.04 1.959,1.4c0.928,0.361 1.843,0.541 2.747,0.541c1.294,-0 2.328,-0.348 3.103,-1.044c0.775,-0.696 1.163,-1.526 1.163,-2.49c0,-0.525 -0.14,-0.98 -0.421,-1.365c-0.281,-0.384 -0.705,-0.701 -1.273,-0.952c-0.567,-0.25 -1.584,-0.546 -3.048,-0.888c-1.258,-0.293 -2.137,-0.522 -2.637,-0.686c-0.501,-0.165 -0.983,-0.443 -1.447,-0.833c-0.464,-0.391 -0.818,-0.87 -1.062,-1.438c-0.244,-0.567 -0.366,-1.193 -0.366,-1.877c0,-1.635 0.65,-2.945 1.95,-3.927c1.3,-0.983 2.921,-1.474 4.862,-1.474c0.818,-0 1.709,0.113 2.673,0.338c0.964,0.226 1.697,0.443 2.197,0.65l0.165,0.257c-0.098,0.488 -0.159,1.77 -0.183,3.845l-0.165,0.165l-0.732,-0l-0.165,-0.165c-0.049,-0.745 -0.116,-1.266 -0.201,-1.566c-0.086,-0.299 -0.306,-0.622 -0.66,-0.97c-0.354,-0.348 -0.854,-0.641 -1.501,-0.879c-0.647,-0.238 -1.331,-0.357 -2.051,-0.357c-0.745,0 -1.37,0.11 -1.877,0.33c-0.506,0.219 -0.915,0.552 -1.227,0.998c-0.311,0.445 -0.466,0.985 -0.466,1.62c-0,0.464 0.094,0.879 0.283,1.245c0.19,0.366 0.479,0.662 0.87,0.888c0.391,0.226 0.8,0.388 1.227,0.485l1.996,0.513c1.709,0.415 2.932,0.775 3.671,1.08c0.739,0.306 1.309,0.766 1.712,1.383c0.403,0.616 0.604,1.364 0.604,2.243c0,1.685 -0.695,3.131 -2.087,4.34c-1.392,1.208 -3.18,1.812 -5.365,1.812c-0.769,0 -1.724,-0.085 -2.866,-0.256c-1.141,-0.171 -2.115,-0.36 -2.92,-0.568l-0.092,-0.238l0.183,-1.227c0.061,-0.378 0.098,-0.759 0.11,-1.144c0.012,-0.384 0.025,-1.193 0.037,-2.426l0.165,-0.165Z" style="fill-rule:nonzero;"/>
    <path d="M132.288,320.771l-0.586,1.318c-1.269,0.818 -2.401,1.349 -3.396,1.593c-0.995,0.244 -1.883,0.366 -2.664,0.366c-1.465,0 -2.854,-0.286 -4.166,-0.86c-1.312,-0.574 -2.38,-1.544 -3.204,-2.912c-0.824,-1.367 -1.236,-3.015 -1.236,-4.943c-0,-1.282 0.158,-2.439 0.476,-3.47c0.317,-1.032 0.65,-1.798 0.998,-2.298c0.348,-0.501 0.937,-1.056 1.767,-1.667c0.83,-0.61 1.709,-1.098 2.636,-1.464c0.928,-0.367 1.929,-0.55 3.003,-0.55c1.465,0 2.756,0.345 3.873,1.035c1.117,0.69 1.901,1.572 2.353,2.646c0.452,1.074 0.677,2.215 0.677,3.424c0,0.378 -0.018,0.744 -0.055,1.098l-0.201,0.202c-0.83,0.183 -1.947,0.305 -3.351,0.366c-1.404,0.061 -2.331,0.092 -2.783,0.092l-5.878,-0c0.025,2.526 0.659,4.388 1.905,5.584c1.245,1.197 2.771,1.795 4.577,1.795c0.855,-0 1.676,-0.147 2.463,-0.44c0.787,-0.293 1.62,-0.702 2.499,-1.226l0.293,0.311Zm-11.737,-7.489c0.22,0.036 1.065,0.079 2.536,0.128c1.471,0.049 2.561,0.073 3.269,0.073c1.696,0 2.728,-0.03 3.094,-0.091c0.012,-0.293 0.019,-0.519 0.019,-0.678c-0,-1.892 -0.385,-3.299 -1.154,-4.22c-0.769,-0.922 -1.819,-1.383 -3.149,-1.383c-1.453,0 -2.585,0.519 -3.397,1.557c-0.812,1.037 -1.218,2.575 -1.218,4.614Z" style="fill-rule:nonzero;"/>
    <path d="M141.096,306.012l0.348,0.239c-0.074,0.708 -0.129,1.965 -0.165,3.771l1.373,-1.739c0.452,-0.574 0.852,-1.016 1.199,-1.328c0.348,-0.311 0.754,-0.552 1.218,-0.723c0.464,-0.171 0.94,-0.256 1.428,-0.256c0.537,-0 1.044,0.11 1.52,0.329l0.128,0.257c-0.195,1.623 -0.305,3.052 -0.329,4.284l-0.824,0c-0.489,-1.123 -1.276,-1.684 -2.362,-1.684c-0.757,-0 -1.416,0.241 -1.978,0.723c-0.561,0.482 -0.937,1.087 -1.126,1.813c-0.189,0.726 -0.284,1.645 -0.284,2.756l0,2.032c0,0.366 0.025,1.264 0.073,2.692c0.049,1.428 0.101,2.252 0.156,2.472c0.055,0.219 0.14,0.381 0.256,0.485c0.116,0.104 0.269,0.174 0.458,0.21c0.189,0.037 1.059,0.098 2.609,0.184l0.165,0.146l0,0.769l-0.165,0.165c-1.623,-0.098 -3.32,-0.147 -5.09,-0.147c-1.404,0 -2.869,0.049 -4.394,0.147l-0.165,-0.165l-0,-0.769l0.165,-0.146c1.184,-0.074 1.852,-0.129 2.005,-0.165c0.152,-0.037 0.286,-0.113 0.402,-0.229c0.116,-0.116 0.196,-0.293 0.238,-0.531c0.043,-0.238 0.092,-1.025 0.147,-2.362c0.055,-1.337 0.082,-2.347 0.082,-3.031l0,-3.607c0,-0.488 -0.024,-1.153 -0.073,-1.996c-0.049,-0.842 -0.088,-1.361 -0.119,-1.556c-0.03,-0.195 -0.125,-0.339 -0.284,-0.43c-0.158,-0.092 -0.476,-0.138 -0.952,-0.138l-1.538,-0.018l-0.165,-0.146l0,-0.788l0.147,-0.146c2.331,-0.281 4.297,-0.739 5.896,-1.374Z" style="fill-rule:nonzero;"/>
    <g transform="matrix(1,0,0,1,546.671,-567.555)">
        <g transform="matrix(37.5,0,0,37.5,271.517,669.255)">
            <path d="M0.029,-0.69c0.083,0.003 0.129,0.004 0.139,0.004c0.011,-0 0.058,-0.001 0.141,-0.004l0.003,0.003l0,0.025l-0.003,0.003c-0.023,0.001 -0.04,0.002 -0.052,0.003c-0.013,0.002 -0.021,0.004 -0.027,0.008c-0.006,0.003 -0.009,0.012 -0.011,0.025c-0.002,0.013 -0.003,0.031 -0.003,0.055l-0.001,0.112l0,0.068c0.072,0.002 0.139,0.003 0.203,0.003c0.087,0 0.154,-0.001 0.199,-0.003l0,-0.068l-0.001,-0.095c-0,-0.037 -0.001,-0.061 -0.003,-0.072c-0.001,-0.011 -0.004,-0.018 -0.007,-0.022c-0.002,-0.003 -0.008,-0.006 -0.017,-0.008c-0.009,-0.003 -0.031,-0.004 -0.066,-0.006l-0.003,-0.003l0,-0.025l0.003,-0.003c0.084,0.003 0.13,0.004 0.141,0.004c0.011,-0 0.057,-0.001 0.14,-0.004l0.004,0.003l-0,0.025l-0.004,0.003c-0.023,0.001 -0.041,0.002 -0.053,0.003c-0.012,0.002 -0.021,0.004 -0.026,0.008c-0.006,0.003 -0.01,0.012 -0.011,0.025c-0.002,0.013 -0.003,0.031 -0.003,0.055l-0.001,0.112l-0,0.226l0.001,0.095c0,0.037 0.001,0.061 0.003,0.072c0.001,0.01 0.004,0.017 0.007,0.021c0.003,0.004 0.009,0.007 0.018,0.009c0.008,0.002 0.03,0.004 0.065,0.006l0.004,0.003l-0,0.024l-0.004,0.004c-0.084,-0.003 -0.13,-0.004 -0.14,-0.004c-0.011,-0 -0.058,0.001 -0.141,0.004l-0.003,-0.004l0,-0.024l0.003,-0.003c0.031,-0.002 0.051,-0.003 0.061,-0.005c0.011,-0.002 0.017,-0.005 0.02,-0.008c0.004,-0.003 0.007,-0.009 0.009,-0.02c0.002,-0.01 0.003,-0.032 0.003,-0.067l0.001,-0.103l0,-0.111c-0.096,-0.002 -0.164,-0.003 -0.202,-0.003c-0.04,-0 -0.107,0.001 -0.2,0.003l0,0.111l0.001,0.095c0,0.037 0.001,0.061 0.003,0.072c0.001,0.01 0.004,0.017 0.007,0.021c0.003,0.004 0.009,0.007 0.018,0.009c0.008,0.002 0.03,0.004 0.065,0.006l0.004,0.003l-0,0.024l-0.004,0.004c-0.083,-0.003 -0.13,-0.004 -0.141,-0.004c-0.01,-0 -0.056,0.001 -0.139,0.004l-0.004,-0.004l-0,-0.024l0.004,-0.003c0.03,-0.002 0.05,-0.003 0.06,-0.005c0.01,-0.002 0.017,-0.005 0.021,-0.008c0.003,-0.003 0.006,-0.009 0.008,-0.02c0.002,-0.01 0.003,-0.032 0.004,-0.067l0,-0.103l0,-0.226l-0.001,-0.095c-0,-0.037 -0.001,-0.061 -0.003,-0.072c-0.001,-0.011 -0.003,-0.018 -0.006,-0.022c-0.004,-0.003 -0.009,-0.006 -0.018,-0.008c-0.009,-0.003 -0.031,-0.004 -0.065,-0.006l-0.004,-0.003l-0,-0.025l0.004,-0.003Z" style="fill-rule:nonzero;"/>
        </g>
        <g transform="matrix(37.5,0,0,37.5,302.718,669.255)">
            <path d="M0.141,-0.684c0.015,0 0.028,0.006 0.039,0.017c0.01,0.01 0.016,0.023 0.016,0.039c-0,0.015 -0.006,0.027 -0.016,0.038c-0.011,0.011 -0.024,0.016 -0.039,0.016c-0.015,0 -0.028,-0.005 -0.039,-0.016c-0.011,-0.01 -0.017,-0.023 -0.017,-0.038c0,-0.016 0.006,-0.029 0.017,-0.039c0.011,-0.011 0.024,-0.017 0.039,-0.017Zm0.041,0.219l0.009,0.006c-0.003,0.043 -0.005,0.097 -0.005,0.163l0,0.11c0,0.007 0.001,0.03 0.002,0.069c0.001,0.039 0.003,0.062 0.004,0.068c0.002,0.007 0.004,0.011 0.007,0.014c0.003,0.003 0.006,0.005 0.01,0.006c0.005,0.001 0.022,0.002 0.053,0.004l0.005,0.004l-0,0.021l-0.004,0.004c-0.041,-0.003 -0.08,-0.004 -0.118,-0.004c-0.037,0 -0.076,0.001 -0.117,0.004l-0.005,-0.004l0,-0.021l0.005,-0.004c0.031,-0.002 0.049,-0.003 0.053,-0.004c0.004,-0.001 0.008,-0.003 0.011,-0.006c0.003,-0.003 0.005,-0.008 0.006,-0.015c0.002,-0.006 0.003,-0.027 0.004,-0.063c0.002,-0.035 0.002,-0.062 0.002,-0.08l0,-0.097c0,-0.013 -0,-0.03 -0.001,-0.053c-0.002,-0.022 -0.003,-0.036 -0.004,-0.041c-0,-0.005 -0.003,-0.009 -0.007,-0.012c-0.004,-0.002 -0.013,-0.003 -0.026,-0.003l-0.041,-0.001l-0.004,-0.004l-0,-0.021l0.004,-0.004c0.062,-0.007 0.114,-0.019 0.157,-0.036Z" style="fill-rule:nonzero;"/>
        </g>
        <g transform="matrix(37.5,0,0,37.5,313.631,669.255)">
            <path d="M0.329,-0.662l-0,-0.021l0.004,-0.004c0.062,-0.007 0.114,-0.019 0.157,-0.036l0.009,0.006c-0.004,0.037 -0.005,0.112 -0.005,0.225l-0,0.32c-0,0.033 0,0.061 0.001,0.086c0.002,0.024 0.004,0.039 0.006,0.044c0.003,0.004 0.008,0.008 0.015,0.011c0.007,0.003 0.026,0.005 0.057,0.008l0.004,0.004l0,0.019l-0.004,0.004c-0.035,-0.002 -0.063,-0.004 -0.082,-0.004c-0.018,0 -0.043,0.002 -0.075,0.004l-0.006,-0.005c0.001,-0.032 0.002,-0.055 0.002,-0.067c-0,-0.002 -0,-0.008 0,-0.019c-0.018,0.013 -0.036,0.028 -0.054,0.044c-0.026,0.023 -0.043,0.038 -0.051,0.043c-0.015,0.008 -0.037,0.012 -0.064,0.012c-0.045,-0 -0.083,-0.011 -0.115,-0.033c-0.031,-0.023 -0.054,-0.051 -0.067,-0.085c-0.013,-0.035 -0.02,-0.07 -0.02,-0.106c0,-0.037 0.007,-0.072 0.021,-0.106c0.014,-0.034 0.033,-0.059 0.059,-0.075c0.025,-0.015 0.053,-0.031 0.083,-0.048c0.03,-0.017 0.06,-0.025 0.09,-0.025c0.041,-0 0.081,0.01 0.118,0.03l-0.002,-0.108c-0,-0.038 -0.001,-0.064 -0.003,-0.079c-0.001,-0.015 -0.003,-0.024 -0.005,-0.027c-0.002,-0.002 -0.005,-0.004 -0.01,-0.006c-0.004,-0.001 -0.024,-0.002 -0.059,-0.002l-0.004,-0.004Zm0.083,0.31c-0.02,-0.023 -0.042,-0.04 -0.067,-0.052c-0.025,-0.012 -0.049,-0.018 -0.074,-0.018c-0.027,-0 -0.053,0.007 -0.076,0.022c-0.024,0.015 -0.041,0.037 -0.051,0.066c-0.011,0.029 -0.016,0.061 -0.016,0.095c-0,0.057 0.014,0.102 0.043,0.137c0.029,0.034 0.065,0.052 0.109,0.052c0.024,-0 0.045,-0.006 0.063,-0.017c0.018,-0.011 0.034,-0.025 0.045,-0.044c0.012,-0.018 0.019,-0.037 0.021,-0.056c0.002,-0.018 0.003,-0.052 0.003,-0.102l0,-0.083Z" style="fill-rule:nonzero;"/>
        </g>
        <g transform="matrix(37.5,0,0,37.5,336.538,669.255)">
            <path d="M0.329,-0.662l-0,-0.021l0.004,-0.004c0.062,-0.007 0.114,-0.019 0.157,-0.036l0.009,0.006c-0.004,0.037 -0.005,0.112 -0.005,0.225l-0,0.32c-0,0.033 0,0.061 0.001,0.086c0.002,0.024 0.004,0.039 0.006,0.044c0.003,0.004 0.008,0.008 0.015,0.011c0.007,0.003 0.026,0.005 0.057,0.008l0.004,0.004l0,0.019l-0.004,0.004c-0.035,-0.002 -0.063,-0.004 -0.082,-0.004c-0.018,0 -0.043,0.002 -0.075,0.004l-0.006,-0.005c0.001,-0.032 0.002,-0.055 0.002,-0.067c-0,-0.002 -0,-0.008 0,-0.019c-0.018,0.013 -0.036,0.028 -0.054,0.044c-0.026,0.023 -0.043,0.038 -0.051,0.043c-0.015,0.008 -0.037,0.012 -0.064,0.012c-0.045,-0 -0.083,-0.011 -0.115,-0.033c-0.031,-0.023 -0.054,-0.051 -0.067,-0.085c-0.013,-0.035 -0.02,-0.07 -0.02,-0.106c0,-0.037 0.007,-0.072 0.021,-0.106c0.014,-0.034 0.033,-0.059 0.059,-0.075c0.025,-0.015 0.053,-0.031 0.083,-0.048c0.03,-0.017 0.06,-0.025 0.09,-0.025c0.041,-0 0.081,0.01 0.118,0.03l-0.002,-0.108c-0,-0.038 -0.001,-0.064 -0.003,-0.079c-0.001,-0.015 -0.003,-0.024 -0.005,-0.027c-0.002,-0.002 -0.005,-0.004 -0.01,-0.006c-0.004,-0.001 -0.024,-0.002 -0.059,-0.002l-0.004,-0.004Zm0.083,0.31c-0.02,-0.023 -0.042,-0.04 -0.067,-0.052c-0.025,-0.012 -0.049,-0.018 -0.074,-0.018c-0.027,-0 -0.053,0.007 -0.076,0.022c-0.024,0.015 -0.041,0.037 -0.051,0.066c-0.011,0.029 -0.016,0.061 -0.016,0.095c-0,0.057 0.014,0.102 0.043,0.137c0.029,0.034 0.065,0.052 0.109,0.052c0.024,-0 0.045,-0.006 0.063,-0.017c0.018,-0.011 0.034,-0.025 0.045,-0.044c0.012,-0.018 0.019,-0.037 0.021,-0.056c0.002,-0.018 0.003,-0.052 0.003,-0.102l0,-0.083Z" style="fill-rule:nonzero;"/>
        </g>
        <g transform="matrix(37.5,0,0,37.5,359.444,669.255)">
            <path d="M0.432,-0.072l-0.016,0.035c-0.034,0.022 -0.064,0.036 -0.091,0.043c-0.026,0.006 -0.05,0.01 -0.071,0.01c-0.039,-0 -0.076,-0.008 -0.111,-0.023c-0.035,-0.016 -0.063,-0.042 -0.085,-0.078c-0.022,-0.036 -0.033,-0.08 -0.033,-0.132c-0,-0.034 0.004,-0.065 0.013,-0.092c0.008,-0.028 0.017,-0.048 0.026,-0.062c0.009,-0.013 0.025,-0.028 0.047,-0.044c0.022,-0.016 0.046,-0.029 0.071,-0.039c0.024,-0.01 0.051,-0.015 0.08,-0.015c0.039,0 0.073,0.009 0.103,0.028c0.03,0.018 0.051,0.042 0.063,0.07c0.012,0.029 0.018,0.059 0.018,0.092c-0,0.01 -0.001,0.02 -0.002,0.029l-0.005,0.005c-0.022,0.005 -0.052,0.009 -0.089,0.01c-0.038,0.002 -0.063,0.003 -0.075,0.003l-0.156,-0c0,0.067 0.017,0.117 0.05,0.149c0.034,0.031 0.074,0.047 0.123,0.047c0.022,0 0.044,-0.004 0.065,-0.011c0.021,-0.008 0.043,-0.019 0.067,-0.033l0.008,0.008Zm-0.313,-0.199c0.006,0 0.028,0.002 0.067,0.003c0.04,0.001 0.069,0.002 0.087,0.002c0.046,-0 0.073,-0.001 0.083,-0.003c0,-0.007 0,-0.013 0,-0.018c0,-0.05 -0.01,-0.088 -0.03,-0.112c-0.021,-0.025 -0.049,-0.037 -0.084,-0.037c-0.039,-0 -0.069,0.014 -0.091,0.041c-0.022,0.028 -0.032,0.069 -0.032,0.124Z" style="fill-rule:nonzero;"/>
        </g>
        <g transform="matrix(37.5,0,0,37.5,377.407,669.255)">
            <path d="M0.167,-0.465l0.009,0.006c-0.002,0.022 -0.003,0.05 -0.004,0.086c0.026,-0.022 0.051,-0.043 0.075,-0.065c0.006,-0.007 0.013,-0.011 0.019,-0.014c0.006,-0.003 0.016,-0.006 0.03,-0.009c0.014,-0.004 0.028,-0.005 0.043,-0.005c0.025,-0 0.049,0.005 0.072,0.015c0.023,0.01 0.041,0.022 0.053,0.036c0.012,0.014 0.02,0.03 0.024,0.049c0.005,0.019 0.007,0.042 0.007,0.07l0,0.086c0,0.005 0.001,0.046 0.003,0.121c0,0.031 0.004,0.049 0.01,0.055c0.006,0.006 0.026,0.009 0.06,0.009l0.004,0.004l0,0.021l-0.004,0.004c-0.041,-0.003 -0.069,-0.004 -0.084,-0.004c-0.008,0 -0.032,0.001 -0.071,0.004l-0.006,-0.005c0.004,-0.043 0.007,-0.098 0.007,-0.166l-0,-0.064c-0,-0.038 -0.001,-0.066 -0.003,-0.083c-0.002,-0.017 -0.007,-0.032 -0.016,-0.046c-0.01,-0.014 -0.022,-0.025 -0.037,-0.032c-0.015,-0.008 -0.034,-0.012 -0.055,-0.012c-0.017,0 -0.031,0.002 -0.043,0.005c-0.012,0.004 -0.026,0.011 -0.041,0.021c-0.015,0.011 -0.026,0.021 -0.033,0.03c-0.007,0.009 -0.011,0.018 -0.013,0.026c-0.001,0.008 -0.002,0.025 -0.002,0.051l-0,0.085c-0,0.007 0.001,0.03 0.002,0.069c0.001,0.039 0.003,0.062 0.004,0.068c0.001,0.007 0.004,0.011 0.007,0.014c0.003,0.003 0.006,0.005 0.01,0.006c0.005,0.001 0.022,0.002 0.053,0.004l0.004,0.004l0,0.021l-0.003,0.004c-0.041,-0.003 -0.08,-0.004 -0.118,-0.004c-0.038,-0 -0.077,0.001 -0.117,0.004l-0.005,-0.004l0,-0.021l0.005,-0.004c0.031,-0.002 0.049,-0.003 0.053,-0.004c0.004,-0.001 0.008,-0.003 0.011,-0.006c0.003,-0.003 0.005,-0.008 0.006,-0.015c0.001,-0.006 0.003,-0.027 0.004,-0.063c0.002,-0.035 0.002,-0.062 0.002,-0.08l0,-0.097c0,-0.013 -0,-0.03 -0.002,-0.053c-0.001,-0.022 -0.002,-0.036 -0.003,-0.041c-0.001,-0.005 -0.003,-0.009 -0.007,-0.012c-0.005,-0.002 -0.013,-0.003 -0.026,-0.003l-0.041,-0.001l-0.004,-0.004l-0,-0.021l0.004,-0.004c0.062,-0.007 0.114,-0.019 0.157,-0.036Z" style="fill-rule:nonzero;"/>
        </g>
        <g transform="matrix(37.5,0,0,37.5,286.962,719.243)">
            <path d="M0.033,-0.224c0,-0.038 0.008,-0.076 0.024,-0.112c0.016,-0.036 0.044,-0.067 0.083,-0.093c0.04,-0.026 0.087,-0.039 0.141,-0.039c0.069,-0 0.124,0.021 0.167,0.064c0.043,0.044 0.065,0.099 0.065,0.167c-0,0.074 -0.025,0.136 -0.074,0.184c-0.05,0.048 -0.109,0.072 -0.179,0.072c-0.045,0 -0.086,-0.012 -0.122,-0.037c-0.036,-0.024 -0.062,-0.054 -0.079,-0.09c-0.017,-0.035 -0.026,-0.074 -0.026,-0.116Zm0.092,-0.033c0,0.045 0.006,0.086 0.018,0.122c0.012,0.036 0.03,0.065 0.056,0.087c0.025,0.021 0.054,0.032 0.087,0.032c0.038,0 0.07,-0.015 0.095,-0.045c0.025,-0.031 0.037,-0.077 0.037,-0.138c0,-0.069 -0.013,-0.126 -0.04,-0.17c-0.027,-0.044 -0.067,-0.067 -0.118,-0.067c-0.042,0 -0.075,0.016 -0.099,0.046c-0.024,0.031 -0.036,0.075 -0.036,0.133Z" style="fill-rule:nonzero;"/>
        </g>
        <g transform="matrix(37.5,0,0,37.5,307.433,719.243)">
            <path d="M-0.006,-0.658l-0.005,-0.004l0,-0.021l0.004,-0.004c0.062,-0.007 0.115,-0.019 0.157,-0.036l0.01,0.006c-0.004,0.037 -0.006,0.112 -0.006,0.225l0,0.124c0.006,-0.008 0.018,-0.02 0.035,-0.037c0.017,-0.017 0.031,-0.029 0.041,-0.035c0.011,-0.007 0.025,-0.013 0.044,-0.018c0.018,-0.006 0.037,-0.008 0.058,-0.008c0.036,-0 0.069,0.009 0.096,0.027c0.028,0.018 0.049,0.043 0.062,0.073c0.014,0.03 0.021,0.063 0.021,0.097c-0,0.033 -0.006,0.065 -0.017,0.094c-0.011,0.03 -0.025,0.054 -0.04,0.073c-0.009,0.012 -0.025,0.026 -0.048,0.042c-0.045,0.033 -0.077,0.054 -0.096,0.062c-0.018,0.008 -0.042,0.013 -0.071,0.013c-0.023,-0 -0.044,-0.004 -0.062,-0.01c-0.019,-0.006 -0.038,-0.016 -0.058,-0.03l-0.039,0.037l-0.017,-0.006c0.007,-0.059 0.01,-0.127 0.01,-0.202l-0,-0.259l-0.002,-0.094c-0.001,-0.036 -0.002,-0.061 -0.003,-0.075c-0.002,-0.015 -0.003,-0.023 -0.005,-0.026c-0.002,-0.003 -0.005,-0.004 -0.01,-0.006c-0.005,-0.001 -0.025,-0.002 -0.059,-0.002Zm0.16,0.349l0,0.183c0,0.015 0.001,0.025 0.002,0.03c0.002,0.005 0.008,0.012 0.02,0.022c0.012,0.009 0.026,0.017 0.045,0.024c0.018,0.007 0.037,0.011 0.056,0.011c0.047,-0 0.083,-0.018 0.109,-0.054c0.026,-0.036 0.039,-0.081 0.039,-0.136c0,-0.035 -0.005,-0.065 -0.016,-0.092c-0.011,-0.026 -0.027,-0.046 -0.049,-0.06c-0.022,-0.014 -0.047,-0.021 -0.074,-0.021c-0.032,-0 -0.06,0.009 -0.085,0.028c-0.025,0.019 -0.04,0.041 -0.047,0.065Z" style="fill-rule:nonzero;"/>
        </g>
        <g transform="matrix(37.5,0,0,37.5,328.179,719.243)">
            <path d="M0.118,-0.684c0.015,0 0.028,0.006 0.039,0.016c0.01,0.011 0.016,0.024 0.016,0.04c-0,0.015 -0.006,0.027 -0.016,0.038c-0.011,0.011 -0.024,0.016 -0.039,0.016c-0.015,0 -0.028,-0.005 -0.039,-0.016c-0.011,-0.011 -0.016,-0.023 -0.016,-0.038c-0,-0.016 0.005,-0.029 0.016,-0.039c0.011,-0.011 0.024,-0.017 0.039,-0.017Zm-0.122,0.259l0.004,-0.004c0.062,-0.007 0.114,-0.019 0.157,-0.036l0.009,0.006c-0.004,0.043 -0.005,0.102 -0.005,0.179l-0,0.09l0.001,0.156c0,0.054 -0.004,0.103 -0.013,0.149c-0.009,0.045 -0.029,0.084 -0.059,0.117c-0.031,0.032 -0.066,0.048 -0.106,0.048c-0.002,0 -0.006,0 -0.01,-0l-0.005,-0.028l0.004,-0.006c0.007,0 0.013,0.001 0.017,0.001c0.011,-0 0.022,-0.003 0.032,-0.009c0.01,-0.006 0.02,-0.016 0.028,-0.029c0.009,-0.012 0.015,-0.028 0.019,-0.047c0.004,-0.018 0.006,-0.048 0.008,-0.088c0.001,-0.039 0.002,-0.066 0.002,-0.079l0,-0.285c0,-0.013 -0,-0.03 -0.002,-0.053c-0.001,-0.022 -0.002,-0.036 -0.003,-0.041c-0.001,-0.006 -0.003,-0.01 -0.008,-0.012c-0.004,-0.002 -0.012,-0.003 -0.024,-0.003l-0.042,-0.001l-0.004,-0.004l-0,-0.021Z" style="fill-rule:nonzero;"/>
        </g>
        <g transform="matrix(37.5,0,0,37.5,336.95,719.243)">
            <path d="M0.432,-0.072l-0.016,0.035c-0.034,0.022 -0.064,0.036 -0.091,0.043c-0.026,0.006 -0.05,0.01 -0.071,0.01c-0.039,-0 -0.076,-0.008 -0.111,-0.023c-0.035,-0.016 -0.063,-0.042 -0.085,-0.078c-0.022,-0.036 -0.033,-0.08 -0.033,-0.132c-0,-0.034 0.004,-0.065 0.013,-0.092c0.008,-0.028 0.017,-0.048 0.026,-0.062c0.009,-0.013 0.025,-0.028 0.047,-0.044c0.022,-0.016 0.046,-0.029 0.071,-0.039c0.024,-0.01 0.051,-0.015 0.08,-0.015c0.039,0 0.073,0.009 0.103,0.028c0.03,0.018 0.051,0.042 0.063,0.07c0.012,0.029 0.018,0.059 0.018,0.092c-0,0.01 -0.001,0.02 -0.002,0.029l-0.005,0.005c-0.022,0.005 -0.052,0.009 -0.089,0.01c-0.038,0.002 -0.063,0.003 -0.075,0.003l-0.156,-0c0,0.067 0.017,0.117 0.05,0.149c0.034,0.031 0.074,0.047 0.123,0.047c0.022,0 0.044,-0.004 0.065,-0.011c0.021,-0.008 0.043,-0.019 0.067,-0.033l0.008,0.008Zm-0.313,-0.199c0.006,0 0.028,0.002 0.067,0.003c0.04,0.001 0.069,0.002 0.087,0.002c0.046,-0 0.073,-0.001 0.083,-0.003c0,-0.007 0,-0.013 0,-0.018c0,-0.05 -0.01,-0.088 -0.03,-0.112c-0.021,-0.025 -0.049,-0.037 -0.084,-0.037c-0.039,-0 -0.069,0.014 -0.091,0.041c-0.022,0.028 -0.032,0.069 -0.032,0.124Z" style="fill-rule:nonzero;"/>
        </g>
        <g transform="matrix(37.5,0,0,37.5,354.912,719.243)">
            <path d="M0.424,-0.052l-0.02,0.032c-0.042,0.024 -0.089,0.035 -0.14,0.035c-0.072,0 -0.127,-0.021 -0.166,-0.064c-0.039,-0.042 -0.059,-0.097 -0.059,-0.165c0,-0.03 0.003,-0.058 0.01,-0.082c0.007,-0.024 0.015,-0.043 0.025,-0.059c0.011,-0.016 0.022,-0.028 0.034,-0.037c0.013,-0.009 0.034,-0.022 0.063,-0.038c0.03,-0.016 0.052,-0.027 0.067,-0.032c0.015,-0.005 0.035,-0.008 0.062,-0.008c0.05,0 0.092,0.01 0.124,0.029c-0.006,0.037 -0.011,0.078 -0.014,0.123l-0.005,0.004l-0.02,0l-0.004,-0.004c-0.001,-0.028 -0.003,-0.046 -0.006,-0.056c-0.002,-0.009 -0.015,-0.019 -0.038,-0.03c-0.024,-0.011 -0.049,-0.016 -0.076,-0.016c-0.026,0 -0.05,0.006 -0.071,0.017c-0.021,0.011 -0.037,0.03 -0.047,0.055c-0.011,0.026 -0.016,0.056 -0.016,0.092c-0,0.03 0.004,0.059 0.013,0.087c0.008,0.029 0.019,0.052 0.033,0.071c0.014,0.019 0.032,0.034 0.055,0.045c0.023,0.012 0.048,0.017 0.076,0.017c0.018,0 0.035,-0.002 0.052,-0.006c0.016,-0.005 0.036,-0.013 0.058,-0.023l0.01,0.013Z" style="fill-rule:nonzero;"/>
        </g>
        <g transform="matrix(37.5,0,0,37.5,371.557,719.243)">
            <path d="M0.022,-0.383l0,-0.013l0.004,-0.005c0.03,-0.011 0.055,-0.022 0.074,-0.032c0,-0.085 -0.001,-0.134 -0.003,-0.148c0.034,-0.012 0.061,-0.024 0.083,-0.038l0.011,0.01c-0.003,0.021 -0.007,0.08 -0.011,0.179c0.016,0 0.034,0 0.052,0c0.039,0 0.066,-0.001 0.083,-0.003l0.003,0.004l-0.009,0.041l-0.004,0.004c-0.016,-0 -0.035,-0 -0.055,-0c-0.018,-0 -0.042,-0 -0.07,0l-0.003,0.199c-0,0.046 0.001,0.076 0.003,0.09c0.002,0.014 0.008,0.025 0.018,0.033c0.009,0.008 0.023,0.012 0.042,0.012c0.022,0 0.042,-0.006 0.061,-0.017l0.011,0.018c-0.007,0.005 -0.026,0.021 -0.056,0.049c-0.017,0.007 -0.034,0.011 -0.051,0.011c-0.074,0 -0.11,-0.035 -0.11,-0.106c-0,-0.026 0,-0.048 0.002,-0.067c0,-0.005 0,-0.011 0,-0.017l0,-0.202l-0.02,-0c-0.015,-0 -0.031,0 -0.05,0.002l-0.005,-0.004Z" style="fill-rule:nonzero;"/>
        </g>
    </g>
    <path d="M200.644,487.925l0.146,-0.146l0.897,-0l0.147,0.146c0.061,1.563 0.143,2.518 0.247,2.866c0.104,0.348 0.433,0.714 0.989,1.099c0.555,0.384 1.294,0.698 2.215,0.943c0.922,0.244 1.853,0.366 2.793,0.366c1.294,-0 2.456,-0.238 3.488,-0.714c1.031,-0.476 1.834,-1.175 2.408,-2.097c0.574,-0.921 0.86,-1.956 0.86,-3.104c0,-0.805 -0.137,-1.507 -0.412,-2.105c-0.274,-0.598 -0.659,-1.077 -1.153,-1.438c-0.495,-0.36 -1.059,-0.628 -1.694,-0.805c-0.635,-0.177 -1.581,-0.37 -2.838,-0.577c-1.221,-0.195 -2.176,-0.372 -2.866,-0.531c-0.689,-0.159 -1.376,-0.403 -2.06,-0.732c-0.683,-0.33 -1.254,-0.748 -1.712,-1.255c-0.457,-0.506 -0.824,-1.129 -1.098,-1.867c-0.275,-0.739 -0.412,-1.529 -0.412,-2.372c-0,-2.282 0.793,-4.153 2.38,-5.612c1.587,-1.459 3.717,-2.188 6.391,-2.188c1.062,0 2.218,0.131 3.469,0.394c1.252,0.262 2.39,0.65 3.415,1.162l0.128,0.22c-0.268,1.123 -0.433,2.722 -0.494,4.798l-0.165,0.146l-0.952,0l-0.146,-0.128c-0.025,-1.465 -0.061,-2.387 -0.11,-2.765c-0.049,-0.378 -0.604,-0.848 -1.666,-1.41c-1.062,-0.561 -2.216,-0.842 -3.461,-0.842c-1.038,-0 -2.008,0.207 -2.912,0.622c-0.903,0.415 -1.586,1.068 -2.05,1.96c-0.464,0.891 -0.696,1.8 -0.696,2.728c-0,0.72 0.14,1.358 0.421,1.913c0.281,0.556 0.644,0.995 1.089,1.319c0.446,0.323 0.965,0.564 1.557,0.723c0.592,0.159 1.675,0.354 3.25,0.586c2.161,0.305 3.732,0.674 4.715,1.108c0.983,0.433 1.77,1.12 2.362,2.06c0.592,0.94 0.888,2.075 0.888,3.405c0,2.6 -1.059,4.767 -3.177,6.501c-2.118,1.733 -4.684,2.6 -7.699,2.6c-2.527,-0 -4.743,-0.452 -6.647,-1.355l-0.11,-0.238c0.122,-0.769 0.214,-2.564 0.275,-5.384Z" style="fill-rule:nonzero;"/>
    <path d="M219.961,468.351c3.076,0.098 5.036,0.147 5.878,0.147c1.147,-0 2.435,-0.031 3.864,-0.092c1.513,-0.049 2.447,-0.073 2.801,-0.073c1.709,0 3.122,0.177 4.239,0.531c1.117,0.354 2.042,1.001 2.774,1.941c0.732,0.94 1.099,2.075 1.099,3.406c-0,1.098 -0.257,2.16 -0.769,3.186c-0.513,1.025 -1.227,1.898 -2.143,2.618c-0.915,0.72 -1.843,1.236 -2.783,1.547c-0.94,0.312 -1.916,0.467 -2.93,0.467c-0.756,0 -1.599,-0.085 -2.527,-0.256l-0.311,-1.117l0.165,-0.183c0.916,0.207 1.66,0.311 2.234,0.311c1.599,0 2.884,-0.528 3.854,-1.584c0.971,-1.056 1.456,-2.407 1.456,-4.055c-0,-1.661 -0.504,-2.985 -1.511,-3.974c-1.007,-0.989 -2.53,-1.483 -4.568,-1.483c-1.111,0 -2.332,0.208 -3.662,0.623c-0.11,0.94 -0.165,3.21 -0.165,6.811l-0,8.478l0.018,3.57c0.012,1.38 0.049,2.271 0.11,2.674c0.061,0.403 0.15,0.671 0.266,0.805c0.116,0.135 0.338,0.248 0.668,0.339c0.33,0.092 1.141,0.162 2.435,0.211l0.147,0.11l-0,0.915l-0.147,0.147c-3.113,-0.098 -4.864,-0.147 -5.255,-0.147c-0.415,0 -2.161,0.049 -5.237,0.147l-0.146,-0.147l-0,-0.915l0.146,-0.11c1.136,-0.049 1.892,-0.11 2.271,-0.183c0.378,-0.074 0.632,-0.168 0.76,-0.284c0.128,-0.116 0.232,-0.363 0.311,-0.742c0.079,-0.378 0.125,-1.22 0.137,-2.527l0.019,-3.863l-0,-8.478l-0.037,-3.57c-0.012,-1.392 -0.046,-2.289 -0.101,-2.692c-0.055,-0.403 -0.14,-0.671 -0.256,-0.806c-0.116,-0.134 -0.339,-0.244 -0.668,-0.329c-0.33,-0.086 -1.142,-0.153 -2.436,-0.202l-0.146,-0.128l-0,-0.915l0.146,-0.129Z" style="fill-rule:nonzero;"/>
    <path d="M239.847,494.371l-0.165,-0.147l-0,-0.952l0.165,-0.146c0.891,-0.013 1.464,-0.058 1.721,-0.138c0.256,-0.079 0.485,-0.238 0.686,-0.476c0.202,-0.238 0.608,-1.016 1.218,-2.334l1.923,-4.175l4.98,-11.28c0.94,-2.209 1.874,-4.418 2.802,-6.628l1.19,0l7.818,18.384l1.044,2.453c0.305,0.696 0.656,1.453 1.053,2.271c0.397,0.818 0.671,1.3 0.824,1.446c0.153,0.147 0.342,0.26 0.568,0.339c0.225,0.08 0.729,0.125 1.51,0.138l0.147,0.146l-0,0.952l-0.147,0.147c-1.294,-0.11 -2.459,-0.165 -3.497,-0.165c-2.026,0.061 -4.053,0.116 -6.079,0.165l-0.147,-0.147l0,-0.952l0.147,-0.146c1.367,-0.025 2.221,-0.083 2.563,-0.174c0.342,-0.092 0.513,-0.303 0.513,-0.632c-0,-0.269 -0.085,-0.623 -0.256,-1.062l-2.253,-5.585l-10.601,0l-1.996,4.688c-0.354,0.842 -0.531,1.458 -0.531,1.849c-0,0.305 0.165,0.531 0.494,0.678c0.33,0.146 1.16,0.225 2.49,0.238l0.165,0.146l0,0.952l-0.146,0.147c-1.575,-0.098 -2.954,-0.147 -4.138,-0.147c-1.343,0 -2.698,0.049 -4.065,0.147Zm8.349,-10.273l9.265,0l-4.596,-11.041l-4.669,11.041Z" style="fill-rule:nonzero;"/>
    <path d="M268.759,468.48l0.146,-0.129c2.112,0.098 3.553,0.147 4.322,0.147l8.569,-0.183c2.441,-0 4.443,0.229 6.006,0.686c1.562,0.458 2.951,1.252 4.166,2.381c1.214,1.129 2.136,2.441 2.764,3.937c0.629,1.495 0.943,3.091 0.943,4.788c0,1.648 -0.286,3.277 -0.86,4.889c-0.574,1.611 -1.389,3.054 -2.445,4.33c-1.056,1.276 -2.258,2.304 -3.607,3.085c-1.349,0.782 -2.701,1.304 -4.056,1.566c-1.355,0.262 -2.74,0.394 -4.156,0.394c-0.952,-0 -2.747,-0.037 -5.383,-0.11c-0.867,-0.025 -1.441,-0.037 -1.722,-0.037c-0.842,0 -1.861,0.049 -3.057,0.147l-0.147,-0.147l0,-0.604l0.147,-0.183c0.72,-0.366 1.132,-0.595 1.236,-0.687c0.103,-0.091 0.189,-1.159 0.256,-3.204c0.067,-2.045 0.101,-3.604 0.101,-4.678l-0,-6.72l-0.019,-4.157c0,-0.903 -0.012,-1.639 -0.036,-2.206c-0.025,-0.568 -0.067,-0.974 -0.129,-1.218c-0.061,-0.244 -0.131,-0.415 -0.21,-0.513c-0.079,-0.097 -0.208,-0.18 -0.385,-0.247c-0.177,-0.067 -0.479,-0.125 -0.906,-0.174l-1.392,-0.11l-0.146,-0.128l-0,-0.915Zm6.775,23.895c1.245,0.244 2.679,0.366 4.303,0.366c2.844,0 5.118,-0.476 6.82,-1.428c1.703,-0.952 2.976,-2.362 3.818,-4.23c0.843,-1.868 1.264,-3.973 1.264,-6.317c-0,-3.455 -0.922,-6.134 -2.765,-8.038c-1.843,-1.905 -4.749,-2.857 -8.716,-2.857c-1.636,0 -3.21,0.122 -4.724,0.366c-0.098,2.002 -0.147,4.261 -0.147,6.775l0,5.75l0.037,5.383c-0,1.05 0.037,2.46 0.11,4.23Z" style="fill-rule:nonzero;"/>
    <g transform="matrix(1,0,0,1,195.936,-633.976)">
        <g transform="matrix(37.5,0,0,37.5,264.194,669.255)">
            <path d="M0.039,-0.168l0.003,-0.004l0.024,0l0.004,0.004c0.002,0.042 0.004,0.067 0.007,0.076c0.003,0.01 0.011,0.019 0.026,0.03c0.015,0.01 0.035,0.018 0.059,0.025c0.025,0.006 0.05,0.01 0.075,0.01c0.034,-0 0.065,-0.007 0.093,-0.019c0.027,-0.013 0.049,-0.032 0.064,-0.056c0.015,-0.025 0.023,-0.052 0.023,-0.083c-0,-0.022 -0.004,-0.04 -0.011,-0.056c-0.007,-0.016 -0.018,-0.029 -0.031,-0.039c-0.013,-0.009 -0.028,-0.016 -0.045,-0.021c-0.017,-0.005 -0.042,-0.01 -0.076,-0.015c-0.032,-0.006 -0.058,-0.01 -0.076,-0.015c-0.018,-0.004 -0.037,-0.01 -0.055,-0.019c-0.018,-0.009 -0.033,-0.02 -0.046,-0.034c-0.012,-0.013 -0.022,-0.03 -0.029,-0.049c-0.007,-0.02 -0.011,-0.041 -0.011,-0.064c0,-0.06 0.021,-0.11 0.064,-0.149c0.042,-0.039 0.099,-0.059 0.17,-0.059c0.028,0 0.059,0.004 0.093,0.011c0.033,0.007 0.063,0.017 0.091,0.031l0.003,0.006c-0.007,0.03 -0.012,0.072 -0.013,0.128l-0.005,0.004l-0.025,-0l-0.004,-0.004c-0.001,-0.039 -0.001,-0.063 -0.003,-0.074c-0.001,-0.01 -0.016,-0.022 -0.044,-0.037c-0.029,-0.015 -0.059,-0.023 -0.093,-0.023c-0.027,0 -0.053,0.006 -0.077,0.017c-0.024,0.011 -0.042,0.028 -0.055,0.052c-0.012,0.024 -0.018,0.048 -0.018,0.073c-0,0.019 0.003,0.036 0.011,0.051c0.007,0.015 0.017,0.027 0.029,0.035c0.012,0.009 0.026,0.015 0.041,0.019c0.016,0.005 0.045,0.01 0.087,0.016c0.058,0.008 0.1,0.018 0.126,0.03c0.026,0.011 0.047,0.03 0.063,0.055c0.016,0.025 0.023,0.055 0.023,0.09c0,0.07 -0.028,0.128 -0.084,0.174c-0.057,0.046 -0.125,0.069 -0.206,0.069c-0.067,0 -0.126,-0.012 -0.177,-0.036l-0.003,-0.006c0.004,-0.021 0.006,-0.069 0.008,-0.144Z" style="fill-rule:nonzero;"/>
        </g>
        <g transform="matrix(37.5,0,0,37.5,283.878,669.255)">
            <path d="M0.424,-0.052l-0.02,0.032c-0.042,0.024 -0.089,0.035 -0.14,0.035c-0.072,0 -0.127,-0.021 -0.166,-0.064c-0.039,-0.042 -0.059,-0.097 -0.059,-0.165c0,-0.03 0.003,-0.058 0.01,-0.082c0.007,-0.024 0.015,-0.043 0.025,-0.059c0.011,-0.016 0.022,-0.028 0.034,-0.037c0.013,-0.009 0.034,-0.022 0.063,-0.038c0.03,-0.016 0.052,-0.027 0.067,-0.032c0.015,-0.005 0.035,-0.008 0.062,-0.008c0.05,0 0.092,0.01 0.124,0.029c-0.006,0.037 -0.011,0.078 -0.014,0.123l-0.005,0.004l-0.02,0l-0.004,-0.004c-0.001,-0.028 -0.003,-0.046 -0.006,-0.056c-0.002,-0.009 -0.015,-0.019 -0.038,-0.03c-0.024,-0.011 -0.049,-0.016 -0.076,-0.016c-0.026,0 -0.05,0.006 -0.071,0.017c-0.021,0.011 -0.037,0.03 -0.047,0.055c-0.011,0.026 -0.016,0.056 -0.016,0.092c-0,0.03 0.004,0.059 0.013,0.087c0.008,0.029 0.019,0.052 0.033,0.071c0.014,0.019 0.032,0.034 0.055,0.045c0.023,0.012 0.048,0.017 0.076,0.017c0.018,0 0.035,-0.002 0.052,-0.006c0.016,-0.005 0.036,-0.013 0.058,-0.023l0.01,0.013Z" style="fill-rule:nonzero;"/>
        </g>
        <g transform="matrix(37.5,0,0,37.5,300.522,669.255)">
            <path d="M0.104,-0.331l-0.02,-0.005l-0.003,-0.005l-0,-0.06c0.058,-0.043 0.114,-0.065 0.169,-0.065c0.037,0 0.068,0.007 0.093,0.021c0.025,0.014 0.042,0.032 0.053,0.053c0.012,0.021 0.017,0.045 0.017,0.073l-0.002,0.098l-0,0.146c-0,0.02 0.001,0.032 0.004,0.036c0.003,0.004 0.006,0.007 0.009,0.008c0.004,0.002 0.011,0.003 0.02,0.004l0.028,0.003l0.004,0.004l0,0.02l-0.004,0.003c-0.024,-0.002 -0.046,-0.003 -0.066,-0.003c-0.02,0 -0.043,0.001 -0.071,0.003l-0.007,-0.006l0.002,-0.079l-0.106,0.083c-0.018,0.007 -0.038,0.011 -0.059,0.011c-0.026,0 -0.048,-0.005 -0.067,-0.014c-0.019,-0.009 -0.033,-0.023 -0.043,-0.04c-0.01,-0.016 -0.015,-0.037 -0.015,-0.061c0,-0.048 0.015,-0.085 0.045,-0.112c0.03,-0.027 0.112,-0.05 0.245,-0.069c0,-0.048 -0.011,-0.082 -0.032,-0.101c-0.022,-0.02 -0.05,-0.03 -0.087,-0.03c-0.018,-0 -0.036,0.003 -0.051,0.008c-0.016,0.006 -0.024,0.01 -0.027,0.014c-0.002,0.003 -0.011,0.023 -0.026,0.06l-0.003,0.002Zm0.226,0.077c-0.091,0.015 -0.148,0.032 -0.17,0.049c-0.023,0.018 -0.034,0.045 -0.034,0.082c-0,0.051 0.025,0.076 0.076,0.076c0.043,0 0.086,-0.025 0.128,-0.075l0,-0.132Z" style="fill-rule:nonzero;"/>
        </g>
        <g transform="matrix(37.5,0,0,37.5,319.272,669.255)">
            <path d="M0.614,-0.429l-0.01,0.041l-0.003,0.004c-0.017,-0 -0.035,-0 -0.056,-0c-0.018,-0 -0.041,-0 -0.07,0l-0.003,0.199c0,0.048 0.002,0.08 0.004,0.094c0.003,0.014 0.009,0.024 0.019,0.031c0.01,0.007 0.023,0.01 0.041,0.01c0.021,0 0.042,-0.006 0.06,-0.017l0.012,0.018c-0.008,0.005 -0.027,0.021 -0.056,0.049c-0.017,0.007 -0.034,0.011 -0.052,0.011c-0.073,0 -0.11,-0.035 -0.11,-0.106l0.003,-0.084l-0,-0.205l-0.213,0l-0.003,0.199c-0,0.048 0.001,0.08 0.004,0.094c0.003,0.014 0.009,0.024 0.019,0.031c0.009,0.007 0.023,0.01 0.04,0.01c0.022,0 0.042,-0.006 0.061,-0.017l0.012,0.018c-0.008,0.005 -0.027,0.021 -0.057,0.049c-0.017,0.007 -0.034,0.011 -0.051,0.011c-0.074,0 -0.11,-0.035 -0.11,-0.106l0.002,-0.084l0,-0.202l-0.02,-0c-0.014,-0 -0.031,0 -0.05,0.002l-0.005,-0.004l0,-0.013l0.004,-0.005c0.03,-0.011 0.055,-0.022 0.074,-0.032c0,-0.085 -0.001,-0.134 -0.003,-0.148c0.034,-0.012 0.061,-0.024 0.083,-0.038l0.011,0.01c-0.003,0.021 -0.007,0.08 -0.011,0.176l0.214,0c0,-0.092 -0,-0.141 -0.001,-0.148c0.033,-0.012 0.061,-0.024 0.082,-0.038l0.012,0.01c-0.003,0.021 -0.007,0.08 -0.012,0.179c0.016,0 0.034,0 0.053,0c0.038,0 0.066,-0.001 0.082,-0.003l0.004,0.004Z" style="fill-rule:nonzero;"/>
        </g>
        <g transform="matrix(37.5,0,0,37.5,342.581,669.255)">
            <path d="M0.432,-0.072l-0.016,0.035c-0.034,0.022 -0.064,0.036 -0.091,0.043c-0.026,0.006 -0.05,0.01 -0.071,0.01c-0.039,-0 -0.076,-0.008 -0.111,-0.023c-0.035,-0.016 -0.063,-0.042 -0.085,-0.078c-0.022,-0.036 -0.033,-0.08 -0.033,-0.132c-0,-0.034 0.004,-0.065 0.013,-0.092c0.008,-0.028 0.017,-0.048 0.026,-0.062c0.009,-0.013 0.025,-0.028 0.047,-0.044c0.022,-0.016 0.046,-0.029 0.071,-0.039c0.024,-0.01 0.051,-0.015 0.08,-0.015c0.039,0 0.073,0.009 0.103,0.028c0.03,0.018 0.051,0.042 0.063,0.07c0.012,0.029 0.018,0.059 0.018,0.092c-0,0.01 -0.001,0.02 -0.002,0.029l-0.005,0.005c-0.022,0.005 -0.052,0.009 -0.089,0.01c-0.038,0.002 -0.063,0.003 -0.075,0.003l-0.156,-0c0,0.067 0.017,0.117 0.05,0.149c0.034,0.031 0.074,0.047 0.123,0.047c0.022,0 0.044,-0.004 0.065,-0.011c0.021,-0.008 0.043,-0.019 0.067,-0.033l0.008,0.008Zm-0.313,-0.199c0.006,0 0.028,0.002 0.067,0.003c0.04,0.001 0.069,0.002 0.087,0.002c0.046,-0 0.073,-0.001 0.083,-0.003c0,-0.007 0,-0.013 0,-0.018c0,-0.05 -0.01,-0.088 -0.03,-0.112c-0.021,-0.025 -0.049,-0.037 -0.084,-0.037c-0.039,-0 -0.069,0.014 -0.091,0.041c-0.022,0.028 -0.032,0.069 -0.032,0.124Z" style="fill-rule:nonzero;"/>
        </g>
        <g transform="matrix(37.5,0,0,37.5,360.544,669.255)">
            <path d="M0.188,-0.465l0.009,0.006c-0.002,0.019 -0.004,0.052 -0.005,0.101l0.037,-0.047c0.012,-0.015 0.023,-0.027 0.032,-0.035c0.009,-0.008 0.02,-0.015 0.032,-0.019c0.013,-0.005 0.026,-0.007 0.039,-0.007c0.014,-0 0.027,0.003 0.04,0.008l0.003,0.007c-0.005,0.044 -0.008,0.082 -0.008,0.115l-0.022,-0c-0.013,-0.03 -0.034,-0.045 -0.063,-0.045c-0.02,-0 -0.038,0.006 -0.053,0.019c-0.015,0.013 -0.025,0.029 -0.03,0.048c-0.005,0.02 -0.008,0.044 -0.008,0.074l0,0.054c0,0.01 0.001,0.034 0.002,0.072c0.002,0.038 0.003,0.06 0.005,0.066c0.001,0.006 0.003,0.01 0.006,0.013c0.003,0.002 0.008,0.004 0.013,0.005c0.005,0.001 0.028,0.003 0.069,0.005l0.005,0.004l-0,0.021l-0.005,0.004c-0.043,-0.003 -0.088,-0.004 -0.136,-0.004c-0.037,-0 -0.076,0.001 -0.117,0.004l-0.004,-0.004l-0,-0.021l0.004,-0.004c0.032,-0.002 0.05,-0.003 0.054,-0.004c0.004,-0.001 0.007,-0.003 0.01,-0.006c0.004,-0.003 0.006,-0.008 0.007,-0.015c0.001,-0.006 0.002,-0.027 0.004,-0.063c0.001,-0.035 0.002,-0.062 0.002,-0.08l-0,-0.097c-0,-0.013 -0.001,-0.03 -0.002,-0.053c-0.001,-0.022 -0.002,-0.036 -0.003,-0.041c-0.001,-0.005 -0.004,-0.009 -0.008,-0.012c-0.004,-0.002 -0.013,-0.003 -0.025,-0.003l-0.041,-0.001l-0.005,-0.004l0,-0.021l0.004,-0.004c0.062,-0.007 0.115,-0.019 0.157,-0.036Z" style="fill-rule:nonzero;"/>
        </g>
        <g transform="matrix(37.5,0,0,37.5,375.357,669.255)">
            <path d="M0.141,-0.684c0.015,0 0.028,0.006 0.039,0.017c0.01,0.01 0.016,0.023 0.016,0.039c-0,0.015 -0.006,0.027 -0.016,0.038c-0.011,0.011 -0.024,0.016 -0.039,0.016c-0.015,0 -0.028,-0.005 -0.039,-0.016c-0.011,-0.01 -0.017,-0.023 -0.017,-0.038c0,-0.016 0.006,-0.029 0.017,-0.039c0.011,-0.011 0.024,-0.017 0.039,-0.017Zm0.041,0.219l0.009,0.006c-0.003,0.043 -0.005,0.097 -0.005,0.163l0,0.11c0,0.007 0.001,0.03 0.002,0.069c0.001,0.039 0.003,0.062 0.004,0.068c0.002,0.007 0.004,0.011 0.007,0.014c0.003,0.003 0.006,0.005 0.01,0.006c0.005,0.001 0.022,0.002 0.053,0.004l0.005,0.004l-0,0.021l-0.004,0.004c-0.041,-0.003 -0.08,-0.004 -0.118,-0.004c-0.037,0 -0.076,0.001 -0.117,0.004l-0.005,-0.004l0,-0.021l0.005,-0.004c0.031,-0.002 0.049,-0.003 0.053,-0.004c0.004,-0.001 0.008,-0.003 0.011,-0.006c0.003,-0.003 0.005,-0.008 0.006,-0.015c0.002,-0.006 0.003,-0.027 0.004,-0.063c0.002,-0.035 0.002,-0.062 0.002,-0.08l0,-0.097c0,-0.013 -0,-0.03 -0.001,-0.053c-0.002,-0.022 -0.003,-0.036 -0.004,-0.041c-0,-0.005 -0.003,-0.009 -0.007,-0.012c-0.004,-0.002 -0.013,-0.003 -0.026,-0.003l-0.041,-0.001l-0.004,-0.004l-0,-0.021l0.004,-0.004c0.062,-0.007 0.114,-0.019 0.157,-0.036Z" style="fill-rule:nonzero;"/>
        </g>
        <g transform="matrix(37.5,0,0,37.5,386.27,669.255)">
            <path d="M0.167,-0.465l0.009,0.006c-0.002,0.022 -0.003,0.05 -0.004,0.086c0.026,-0.022 0.051,-0.043 0.075,-0.065c0.006,-0.007 0.013,-0.011 0.019,-0.014c0.006,-0.003 0.016,-0.006 0.03,-0.009c0.014,-0.004 0.028,-0.005 0.043,-0.005c0.025,-0 0.049,0.005 0.072,0.015c0.023,0.01 0.041,0.022 0.053,0.036c0.012,0.014 0.02,0.03 0.024,0.049c0.005,0.019 0.007,0.042 0.007,0.07l0,0.086c0,0.005 0.001,0.046 0.003,0.121c0,0.031 0.004,0.049 0.01,0.055c0.006,0.006 0.026,0.009 0.06,0.009l0.004,0.004l0,0.021l-0.004,0.004c-0.041,-0.003 -0.069,-0.004 -0.084,-0.004c-0.008,0 -0.032,0.001 -0.071,0.004l-0.006,-0.005c0.004,-0.043 0.007,-0.098 0.007,-0.166l-0,-0.064c-0,-0.038 -0.001,-0.066 -0.003,-0.083c-0.002,-0.017 -0.007,-0.032 -0.016,-0.046c-0.01,-0.014 -0.022,-0.025 -0.037,-0.032c-0.015,-0.008 -0.034,-0.012 -0.055,-0.012c-0.017,0 -0.031,0.002 -0.043,0.005c-0.012,0.004 -0.026,0.011 -0.041,0.021c-0.015,0.011 -0.026,0.021 -0.033,0.03c-0.007,0.009 -0.011,0.018 -0.013,0.026c-0.001,0.008 -0.002,0.025 -0.002,0.051l-0,0.085c-0,0.007 0.001,0.03 0.002,0.069c0.001,0.039 0.003,0.062 0.004,0.068c0.001,0.007 0.004,0.011 0.007,0.014c0.003,0.003 0.006,0.005 0.01,0.006c0.005,0.001 0.022,0.002 0.053,0.004l0.004,0.004l0,0.021l-0.003,0.004c-0.041,-0.003 -0.08,-0.004 -0.118,-0.004c-0.038,-0 -0.077,0.001 -0.117,0.004l-0.005,-0.004l0,-0.021l0.005,-0.004c0.031,-0.002 0.049,-0.003 0.053,-0.004c0.004,-0.001 0.008,-0.003 0.011,-0.006c0.003,-0.003 0.005,-0.008 0.006,-0.015c0.001,-0.006 0.003,-0.027 0.004,-0.063c0.002,-0.035 0.002,-0.062 0.002,-0.08l0,-0.097c0,-0.013 -0,-0.03 -0.002,-0.053c-0.001,-0.022 -0.002,-0.036 -0.003,-0.041c-0.001,-0.005 -0.003,-0.009 -0.007,-0.012c-0.005,-0.002 -0.013,-0.003 -0.026,-0.003l-0.041,-0.001l-0.004,-0.004l-0,-0.021l0.004,-0.004c0.062,-0.007 0.114,-0.019 0.157,-0.036Z" style="fill-rule:nonzero;"/>
        </g>
        <g transform="matrix(37.5,0,0,37.5,408.096,669.255)">
            <path d="M0.539,-0.432l0.003,0.009c-0.013,0.021 -0.021,0.034 -0.024,0.04l-0.091,0c0.009,0.018 0.013,0.037 0.013,0.056c0,0.023 -0.005,0.046 -0.015,0.068c-0.011,0.022 -0.026,0.04 -0.045,0.055c-0.019,0.016 -0.04,0.028 -0.064,0.037c-0.024,0.009 -0.051,0.014 -0.082,0.014l-0.022,-0c-0.019,0.015 -0.032,0.026 -0.037,0.034c-0.006,0.007 -0.008,0.015 -0.008,0.023c-0,0.014 0.006,0.024 0.019,0.03c0.013,0.006 0.041,0.009 0.082,0.009l0.109,-0.002c0.035,0 0.061,0.004 0.08,0.013c0.018,0.008 0.033,0.022 0.044,0.043c0.012,0.021 0.018,0.044 0.018,0.067c-0,0.036 -0.012,0.071 -0.035,0.107c-0.024,0.036 -0.057,0.063 -0.101,0.081c-0.044,0.019 -0.091,0.028 -0.141,0.028c-0.028,0 -0.055,-0.003 -0.08,-0.009c-0.025,-0.006 -0.046,-0.016 -0.065,-0.028c-0.019,-0.013 -0.034,-0.029 -0.045,-0.049c-0.012,-0.02 -0.017,-0.041 -0.017,-0.063c-0,-0.012 0.001,-0.025 0.005,-0.038c0.004,-0.013 0.01,-0.027 0.021,-0.043l0.088,-0.049c-0.028,-0.009 -0.046,-0.018 -0.054,-0.026c-0.007,-0.009 -0.011,-0.019 -0.011,-0.031c0,-0.013 0.005,-0.027 0.013,-0.044l0.078,-0.057c-0.046,-0.012 -0.077,-0.03 -0.093,-0.054c-0.016,-0.024 -0.024,-0.05 -0.024,-0.079c-0,-0.026 0.005,-0.052 0.017,-0.075c0.011,-0.024 0.028,-0.044 0.051,-0.058c0.023,-0.014 0.049,-0.025 0.077,-0.034c0.029,-0.008 0.055,-0.012 0.078,-0.012c0.041,-0 0.08,0.013 0.116,0.039c0.059,0 0.106,-0 0.142,-0.002Zm-0.397,0.114c-0,0.019 0.004,0.041 0.011,0.064c0.008,0.022 0.021,0.04 0.038,0.051c0.018,0.012 0.037,0.018 0.059,0.018c0.029,-0 0.054,-0.009 0.075,-0.028c0.021,-0.019 0.031,-0.049 0.031,-0.089c0,-0.034 -0.009,-0.064 -0.028,-0.091c-0.02,-0.027 -0.047,-0.041 -0.082,-0.041c-0.03,0 -0.054,0.01 -0.074,0.029c-0.02,0.02 -0.03,0.049 -0.03,0.087Zm0.143,0.327c-0.053,0 -0.083,0.001 -0.091,0.002c-0.008,0.002 -0.019,0.007 -0.034,0.017c-0.014,0.01 -0.026,0.023 -0.036,0.04c-0.009,0.016 -0.014,0.035 -0.014,0.056c0,0.037 0.014,0.067 0.041,0.09c0.028,0.023 0.064,0.035 0.11,0.035c0.034,-0 0.065,-0.008 0.094,-0.022c0.029,-0.014 0.051,-0.033 0.065,-0.058c0.014,-0.024 0.02,-0.047 0.02,-0.069c0,-0.022 -0.005,-0.041 -0.017,-0.057c-0.011,-0.016 -0.026,-0.025 -0.045,-0.029c-0.018,-0.003 -0.049,-0.005 -0.093,-0.005Z" style="fill-rule:nonzero;"/>
        </g>
        <g transform="matrix(37.5,0,0,37.5,276.27,719.243)">
            <path d="M0.18,-0.465l0.009,0.006c-0.002,0.022 -0.003,0.047 -0.004,0.077l0.046,-0.042c0.013,-0.012 0.022,-0.02 0.026,-0.024c0.005,-0.003 0.014,-0.007 0.03,-0.011c0.016,-0.005 0.032,-0.007 0.049,-0.007c0.033,-0 0.061,0.008 0.086,0.024c0.024,0.016 0.042,0.038 0.054,0.067c0.044,-0.042 0.07,-0.065 0.077,-0.07c0.007,-0.004 0.019,-0.009 0.035,-0.014c0.016,-0.004 0.032,-0.007 0.048,-0.007c0.025,0 0.049,0.006 0.071,0.017c0.021,0.011 0.038,0.025 0.051,0.043c0.013,0.018 0.02,0.038 0.022,0.058c0.002,0.021 0.003,0.05 0.003,0.086l0,0.052c0,0.005 0.001,0.046 0.003,0.121c0.001,0.031 0.004,0.049 0.01,0.055c0.007,0.006 0.027,0.009 0.06,0.009l0.004,0.004l0,0.021l-0.004,0.004c-0.041,-0.003 -0.069,-0.004 -0.084,-0.004c-0.008,0 -0.031,0.001 -0.07,0.004l-0.007,-0.005c0.005,-0.043 0.007,-0.098 0.007,-0.166l-0,-0.059c-0,-0.051 -0.003,-0.088 -0.008,-0.108c-0.005,-0.021 -0.016,-0.038 -0.034,-0.051c-0.018,-0.013 -0.039,-0.02 -0.064,-0.02c-0.017,0 -0.034,0.004 -0.049,0.011c-0.015,0.007 -0.029,0.017 -0.041,0.031c-0.013,0.014 -0.019,0.027 -0.021,0.039c-0.001,0.011 -0.002,0.033 -0.002,0.065l0,0.061c0,0.015 0.001,0.041 0.002,0.081c0.002,0.039 0.003,0.062 0.005,0.069c0.001,0.006 0.003,0.011 0.006,0.014c0.003,0.002 0.007,0.004 0.011,0.005c0.004,0.001 0.022,0.002 0.053,0.004l0.004,0.004l-0,0.021l-0.004,0.004c-0.041,-0.003 -0.08,-0.004 -0.118,-0.004c-0.034,-0 -0.074,0.001 -0.117,0.004l-0.004,-0.004l-0,-0.021l0.004,-0.004c0.032,-0.002 0.05,-0.003 0.054,-0.004c0.004,-0.001 0.007,-0.003 0.01,-0.006c0.003,-0.003 0.006,-0.008 0.007,-0.015c0.001,-0.006 0.002,-0.027 0.004,-0.063c0.001,-0.035 0.002,-0.062 0.002,-0.08l-0,-0.056c-0,-0.037 -0.003,-0.065 -0.008,-0.085c-0.005,-0.02 -0.016,-0.037 -0.032,-0.05c-0.017,-0.014 -0.038,-0.021 -0.063,-0.021c-0.019,0 -0.037,0.004 -0.053,0.012c-0.016,0.007 -0.029,0.017 -0.04,0.028c-0.01,0.011 -0.016,0.022 -0.019,0.032c-0.002,0.009 -0.003,0.03 -0.003,0.063l-0,0.072c-0,0.015 0,0.041 0.002,0.081c0.001,0.039 0.002,0.062 0.004,0.069c0.001,0.006 0.003,0.011 0.007,0.014c0.003,0.002 0.006,0.004 0.01,0.005c0.004,0.001 0.022,0.002 0.053,0.004l0.004,0.004l0,0.021l-0.004,0.004c-0.04,-0.003 -0.08,-0.004 -0.117,-0.004c-0.038,-0 -0.077,0.001 -0.118,0.004l-0.004,-0.004l-0,-0.021l0.004,-0.004c0.032,-0.002 0.05,-0.003 0.054,-0.004c0.004,-0.001 0.008,-0.003 0.011,-0.006c0.003,-0.003 0.005,-0.008 0.006,-0.015c0.001,-0.006 0.002,-0.027 0.004,-0.063c0.001,-0.035 0.002,-0.062 0.002,-0.08l0,-0.097c0,-0.013 -0.001,-0.03 -0.002,-0.053c-0.001,-0.022 -0.002,-0.036 -0.003,-0.041c-0.001,-0.005 -0.003,-0.009 -0.008,-0.012c-0.004,-0.002 -0.012,-0.003 -0.025,-0.003l-0.041,-0.001l-0.004,-0.004l-0,-0.021l0.003,-0.004c0.063,-0.007 0.115,-0.019 0.158,-0.036Z" style="fill-rule:nonzero;"/>
        </g>
        <g transform="matrix(37.5,0,0,37.5,309.375,719.243)">
            <path d="M0.432,-0.072l-0.016,0.035c-0.034,0.022 -0.064,0.036 -0.091,0.043c-0.026,0.006 -0.05,0.01 -0.071,0.01c-0.039,-0 -0.076,-0.008 -0.111,-0.023c-0.035,-0.016 -0.063,-0.042 -0.085,-0.078c-0.022,-0.036 -0.033,-0.08 -0.033,-0.132c-0,-0.034 0.004,-0.065 0.013,-0.092c0.008,-0.028 0.017,-0.048 0.026,-0.062c0.009,-0.013 0.025,-0.028 0.047,-0.044c0.022,-0.016 0.046,-0.029 0.071,-0.039c0.024,-0.01 0.051,-0.015 0.08,-0.015c0.039,0 0.073,0.009 0.103,0.028c0.03,0.018 0.051,0.042 0.063,0.07c0.012,0.029 0.018,0.059 0.018,0.092c-0,0.01 -0.001,0.02 -0.002,0.029l-0.005,0.005c-0.022,0.005 -0.052,0.009 -0.089,0.01c-0.038,0.002 -0.063,0.003 -0.075,0.003l-0.156,-0c0,0.067 0.017,0.117 0.05,0.149c0.034,0.031 0.074,0.047 0.123,0.047c0.022,0 0.044,-0.004 0.065,-0.011c0.021,-0.008 0.043,-0.019 0.067,-0.033l0.008,0.008Zm-0.313,-0.199c0.006,0 0.028,0.002 0.067,0.003c0.04,0.001 0.069,0.002 0.087,0.002c0.046,-0 0.073,-0.001 0.083,-0.003c0,-0.007 0,-0.013 0,-0.018c0,-0.05 -0.01,-0.088 -0.03,-0.112c-0.021,-0.025 -0.049,-0.037 -0.084,-0.037c-0.039,-0 -0.069,0.014 -0.091,0.041c-0.022,0.028 -0.032,0.069 -0.032,0.124Z" style="fill-rule:nonzero;"/>
        </g>
        <g transform="matrix(37.5,0,0,37.5,327.338,719.243)">
            <path d="M0.329,-0.662l-0,-0.021l0.004,-0.004c0.062,-0.007 0.114,-0.019 0.157,-0.036l0.009,0.006c-0.004,0.037 -0.005,0.112 -0.005,0.225l-0,0.32c-0,0.033 0,0.061 0.001,0.086c0.002,0.024 0.004,0.039 0.006,0.044c0.003,0.004 0.008,0.008 0.015,0.011c0.007,0.003 0.026,0.005 0.057,0.008l0.004,0.004l0,0.019l-0.004,0.004c-0.035,-0.002 -0.063,-0.004 -0.082,-0.004c-0.018,0 -0.043,0.002 -0.075,0.004l-0.006,-0.005c0.001,-0.032 0.002,-0.055 0.002,-0.067c-0,-0.002 -0,-0.008 0,-0.019c-0.018,0.013 -0.036,0.028 -0.054,0.044c-0.026,0.023 -0.043,0.038 -0.051,0.043c-0.015,0.008 -0.037,0.012 -0.064,0.012c-0.045,-0 -0.083,-0.011 -0.115,-0.033c-0.031,-0.023 -0.054,-0.051 -0.067,-0.085c-0.013,-0.035 -0.02,-0.07 -0.02,-0.106c0,-0.037 0.007,-0.072 0.021,-0.106c0.014,-0.034 0.033,-0.059 0.059,-0.075c0.025,-0.015 0.053,-0.031 0.083,-0.048c0.03,-0.017 0.06,-0.025 0.09,-0.025c0.041,-0 0.081,0.01 0.118,0.03l-0.002,-0.108c-0,-0.038 -0.001,-0.064 -0.003,-0.079c-0.001,-0.015 -0.003,-0.024 -0.005,-0.027c-0.002,-0.002 -0.005,-0.004 -0.01,-0.006c-0.004,-0.001 -0.024,-0.002 -0.059,-0.002l-0.004,-0.004Zm0.083,0.31c-0.02,-0.023 -0.042,-0.04 -0.067,-0.052c-0.025,-0.012 -0.049,-0.018 -0.074,-0.018c-0.027,-0 -0.053,0.007 -0.076,0.022c-0.024,0.015 -0.041,0.037 -0.051,0.066c-0.011,0.029 -0.016,0.061 -0.016,0.095c-0,0.057 0.014,0.102 0.043,0.137c0.029,0.034 0.065,0.052 0.109,0.052c0.024,-0 0.045,-0.006 0.063,-0.017c0.018,-0.011 0.034,-0.025 0.045,-0.044c0.012,-0.018 0.019,-0.037 0.021,-0.056c0.002,-0.018 0.003,-0.052 0.003,-0.102l0,-0.083Z" style="fill-rule:nonzero;"/>
        </g>
        <g transform="matrix(37.5,0,0,37.5,350.244,719.243)">
            <path d="M0.141,-0.684c0.015,0 0.028,0.006 0.039,0.017c0.01,0.01 0.016,0.023 0.016,0.039c-0,0.015 -0.006,0.027 -0.016,0.038c-0.011,0.011 -0.024,0.016 -0.039,0.016c-0.015,0 -0.028,-0.005 -0.039,-0.016c-0.011,-0.01 -0.017,-0.023 -0.017,-0.038c0,-0.016 0.006,-0.029 0.017,-0.039c0.011,-0.011 0.024,-0.017 0.039,-0.017Zm0.041,0.219l0.009,0.006c-0.003,0.043 -0.005,0.097 -0.005,0.163l0,0.11c0,0.007 0.001,0.03 0.002,0.069c0.001,0.039 0.003,0.062 0.004,0.068c0.002,0.007 0.004,0.011 0.007,0.014c0.003,0.003 0.006,0.005 0.01,0.006c0.005,0.001 0.022,0.002 0.053,0.004l0.005,0.004l-0,0.021l-0.004,0.004c-0.041,-0.003 -0.08,-0.004 -0.118,-0.004c-0.037,0 -0.076,0.001 -0.117,0.004l-0.005,-0.004l0,-0.021l0.005,-0.004c0.031,-0.002 0.049,-0.003 0.053,-0.004c0.004,-0.001 0.008,-0.003 0.011,-0.006c0.003,-0.003 0.005,-0.008 0.006,-0.015c0.002,-0.006 0.003,-0.027 0.004,-0.063c0.002,-0.035 0.002,-0.062 0.002,-0.08l0,-0.097c0,-0.013 -0,-0.03 -0.001,-0.053c-0.002,-0.022 -0.003,-0.036 -0.004,-0.041c-0,-0.005 -0.003,-0.009 -0.007,-0.012c-0.004,-0.002 -0.013,-0.003 -0.026,-0.003l-0.041,-0.001l-0.004,-0.004l-0,-0.021l0.004,-0.004c0.062,-0.007 0.114,-0.019 0.157,-0.036Z" style="fill-rule:nonzero;"/>
        </g>
        <g transform="matrix(37.5,0,0,37.5,361.157,719.243)">
            <path d="M0.169,-0.465l0.009,0.006c-0.003,0.043 -0.005,0.097 -0.005,0.163l-0,0.113c-0,0.042 0.003,0.071 0.009,0.087c0.007,0.017 0.018,0.029 0.033,0.038c0.016,0.008 0.035,0.013 0.056,0.013c0.024,-0 0.045,-0.005 0.065,-0.014c0.019,-0.01 0.036,-0.023 0.049,-0.04c0.013,-0.017 0.021,-0.028 0.023,-0.034c0.002,-0.006 0.003,-0.022 0.004,-0.049l0.001,-0.055l0,-0.053c0,-0.013 -0.001,-0.03 -0.002,-0.053c-0.001,-0.022 -0.002,-0.036 -0.003,-0.041c-0.001,-0.005 -0.003,-0.009 -0.008,-0.012c-0.004,-0.002 -0.012,-0.003 -0.025,-0.003l-0.041,-0.001l-0.004,-0.004l-0,-0.021l0.003,-0.004c0.063,-0.007 0.115,-0.019 0.158,-0.036l0.009,0.006c-0.004,0.043 -0.005,0.097 -0.005,0.163l-0,0.086c-0,0.004 0,0.044 0.002,0.119c0.001,0.028 0.002,0.045 0.005,0.051c0.003,0.006 0.007,0.01 0.012,0.012c0.005,0.003 0.019,0.004 0.043,0.004l0.014,0l0.004,0.004l0,0.02l-0.004,0.004c-0.046,-0.003 -0.076,-0.004 -0.092,-0.004c-0.02,0 -0.043,0.001 -0.069,0.003l-0.004,-0.003c0.002,-0.034 0.003,-0.062 0.004,-0.085c-0.02,0.016 -0.044,0.037 -0.07,0.064c-0.01,0.01 -0.025,0.019 -0.044,0.025c-0.018,0.007 -0.04,0.011 -0.064,0.011c-0.037,-0 -0.065,-0.006 -0.085,-0.018c-0.021,-0.011 -0.035,-0.027 -0.043,-0.048c-0.009,-0.02 -0.013,-0.055 -0.013,-0.105l0,-0.038l0,-0.096c0,-0.013 -0,-0.03 -0.002,-0.053c-0.001,-0.022 -0.002,-0.036 -0.003,-0.041c-0.001,-0.005 -0.003,-0.009 -0.007,-0.012c-0.005,-0.002 -0.013,-0.003 -0.026,-0.003l-0.041,-0.001l-0.004,-0.004l-0,-0.021l0.004,-0.004c0.062,-0.007 0.114,-0.019 0.157,-0.036Z" style="fill-rule:nonzero;"/>
        </g>
        <g transform="matrix(37.5,0,0,37.5,383.771,719.243)">
            <path d="M0.18,-0.465l0.009,0.006c-0.002,0.022 -0.003,0.047 -0.004,0.077l0.046,-0.042c0.013,-0.012 0.022,-0.02 0.026,-0.024c0.005,-0.003 0.014,-0.007 0.03,-0.011c0.016,-0.005 0.032,-0.007 0.049,-0.007c0.033,-0 0.061,0.008 0.086,0.024c0.024,0.016 0.042,0.038 0.054,0.067c0.044,-0.042 0.07,-0.065 0.077,-0.07c0.007,-0.004 0.019,-0.009 0.035,-0.014c0.016,-0.004 0.032,-0.007 0.048,-0.007c0.025,0 0.049,0.006 0.071,0.017c0.021,0.011 0.038,0.025 0.051,0.043c0.013,0.018 0.02,0.038 0.022,0.058c0.002,0.021 0.003,0.05 0.003,0.086l0,0.052c0,0.005 0.001,0.046 0.003,0.121c0.001,0.031 0.004,0.049 0.01,0.055c0.007,0.006 0.027,0.009 0.06,0.009l0.004,0.004l0,0.021l-0.004,0.004c-0.041,-0.003 -0.069,-0.004 -0.084,-0.004c-0.008,0 -0.031,0.001 -0.07,0.004l-0.007,-0.005c0.005,-0.043 0.007,-0.098 0.007,-0.166l-0,-0.059c-0,-0.051 -0.003,-0.088 -0.008,-0.108c-0.005,-0.021 -0.016,-0.038 -0.034,-0.051c-0.018,-0.013 -0.039,-0.02 -0.064,-0.02c-0.017,0 -0.034,0.004 -0.049,0.011c-0.015,0.007 -0.029,0.017 -0.041,0.031c-0.013,0.014 -0.019,0.027 -0.021,0.039c-0.001,0.011 -0.002,0.033 -0.002,0.065l0,0.061c0,0.015 0.001,0.041 0.002,0.081c0.002,0.039 0.003,0.062 0.005,0.069c0.001,0.006 0.003,0.011 0.006,0.014c0.003,0.002 0.007,0.004 0.011,0.005c0.004,0.001 0.022,0.002 0.053,0.004l0.004,0.004l-0,0.021l-0.004,0.004c-0.041,-0.003 -0.08,-0.004 -0.118,-0.004c-0.034,-0 -0.074,0.001 -0.117,0.004l-0.004,-0.004l-0,-0.021l0.004,-0.004c0.032,-0.002 0.05,-0.003 0.054,-0.004c0.004,-0.001 0.007,-0.003 0.01,-0.006c0.003,-0.003 0.006,-0.008 0.007,-0.015c0.001,-0.006 0.002,-0.027 0.004,-0.063c0.001,-0.035 0.002,-0.062 0.002,-0.08l-0,-0.056c-0,-0.037 -0.003,-0.065 -0.008,-0.085c-0.005,-0.02 -0.016,-0.037 -0.032,-0.05c-0.017,-0.014 -0.038,-0.021 -0.063,-0.021c-0.019,0 -0.037,0.004 -0.053,0.012c-0.016,0.007 -0.029,0.017 -0.04,0.028c-0.01,0.011 -0.016,0.022 -0.019,0.032c-0.002,0.009 -0.003,0.03 -0.003,0.063l-0,0.072c-0,0.015 0,0.041 0.002,0.081c0.001,0.039 0.002,0.062 0.004,0.069c0.001,0.006 0.003,0.011 0.007,0.014c0.003,0.002 0.006,0.004 0.01,0.005c0.004,0.001 0.022,0.002 0.053,0.004l0.004,0.004l0,0.021l-0.004,0.004c-0.04,-0.003 -0.08,-0.004 -0.117,-0.004c-0.038,-0 -0.077,0.001 -0.118,0.004l-0.004,-0.004l-0,-0.021l0.004,-0.004c0.032,-0.002 0.05,-0.003 0.054,-0.004c0.004,-0.001 0.008,-0.003 0.011,-0.006c0.003,-0.003 0.005,-0.008 0.006,-0.015c0.001,-0.006 0.002,-0.027 0.004,-0.063c0.001,-0.035 0.002,-0.062 0.002,-0.08l0,-0.097c0,-0.013 -0.001,-0.03 -0.002,-0.053c-0.001,-0.022 -0.002,-0.036 -0.003,-0.041c-0.001,-0.005 -0.003,-0.009 -0.008,-0.012c-0.004,-0.002 -0.012,-0.003 -0.025,-0.003l-0.041,-0.001l-0.004,-0.004l-0,-0.021l0.003,-0.004c0.063,-0.007 0.115,-0.019 0.158,-0.036Z" style="fill-rule:nonzero;"/>
        </g>
    </g>
    <g transform="matrix(1,0,0,1,15.1417,-335.376)">
        <g transform="matrix(37.5,0,0,37.5,288.472,669.255)">
            <path d="M0.731,-0.266l0,0.015l-0.002,0.005l-0.023,0.015c-0.006,0.003 -0.01,0.006 -0.011,0.008c-0.001,0.002 -0.002,0.011 -0.003,0.029c-0.002,0.017 -0.003,0.039 -0.003,0.064c0,0.028 0.002,0.059 0.006,0.092l-0.003,0.005c-0.089,0.034 -0.181,0.051 -0.275,0.051c-0.072,0 -0.138,-0.014 -0.196,-0.041c-0.058,-0.027 -0.104,-0.068 -0.138,-0.122c-0.035,-0.053 -0.052,-0.117 -0.052,-0.191c0,-0.113 0.039,-0.202 0.116,-0.268c0.077,-0.067 0.177,-0.1 0.301,-0.1c0.091,-0 0.173,0.015 0.246,0.046l0.003,0.006c-0.006,0.021 -0.012,0.067 -0.02,0.137l-0.004,0.003l-0.023,0l-0.004,-0.004l-0.002,-0.051c-0.001,-0.017 -0.002,-0.027 -0.003,-0.03c-0.001,-0.003 -0.005,-0.007 -0.011,-0.012c-0.005,-0.004 -0.021,-0.012 -0.045,-0.022c-0.024,-0.01 -0.048,-0.018 -0.073,-0.023c-0.024,-0.004 -0.05,-0.007 -0.078,-0.007c-0.06,0 -0.113,0.013 -0.159,0.037c-0.046,0.025 -0.08,0.061 -0.103,0.109c-0.024,0.047 -0.035,0.1 -0.035,0.158c-0,0.059 0.012,0.115 0.037,0.167c0.025,0.051 0.061,0.092 0.108,0.121c0.047,0.029 0.102,0.043 0.164,0.043c0.027,0 0.054,-0.003 0.083,-0.008c0.028,-0.005 0.051,-0.013 0.069,-0.023c0.003,-0.01 0.005,-0.031 0.005,-0.063l-0,-0.054c-0,-0.026 -0.002,-0.042 -0.005,-0.048c-0.004,-0.006 -0.012,-0.011 -0.025,-0.013c-0.012,-0.003 -0.04,-0.005 -0.083,-0.005l-0.004,-0.005l-0,-0.021l0.004,-0.005l0.03,0.001c0.051,0.002 0.093,0.003 0.125,0.003c0.019,-0 0.046,-0.001 0.082,-0.003l0.004,0.004Z" style="fill-rule:nonzero;"/>
        </g>
        <g transform="matrix(37.5,0,0,37.5,317.091,669.255)">
            <path d="M0.104,-0.331l-0.02,-0.005l-0.003,-0.005l-0,-0.06c0.058,-0.043 0.114,-0.065 0.169,-0.065c0.037,0 0.068,0.007 0.093,0.021c0.025,0.014 0.042,0.032 0.053,0.053c0.012,0.021 0.017,0.045 0.017,0.073l-0.002,0.098l-0,0.146c-0,0.02 0.001,0.032 0.004,0.036c0.003,0.004 0.006,0.007 0.009,0.008c0.004,0.002 0.011,0.003 0.02,0.004l0.028,0.003l0.004,0.004l0,0.02l-0.004,0.003c-0.024,-0.002 -0.046,-0.003 -0.066,-0.003c-0.02,0 -0.043,0.001 -0.071,0.003l-0.007,-0.006l0.002,-0.079l-0.106,0.083c-0.018,0.007 -0.038,0.011 -0.059,0.011c-0.026,0 -0.048,-0.005 -0.067,-0.014c-0.019,-0.009 -0.033,-0.023 -0.043,-0.04c-0.01,-0.016 -0.015,-0.037 -0.015,-0.061c0,-0.048 0.015,-0.085 0.045,-0.112c0.03,-0.027 0.112,-0.05 0.245,-0.069c0,-0.048 -0.011,-0.082 -0.032,-0.101c-0.022,-0.02 -0.05,-0.03 -0.087,-0.03c-0.018,-0 -0.036,0.003 -0.051,0.008c-0.016,0.006 -0.024,0.01 -0.027,0.014c-0.002,0.003 -0.011,0.023 -0.026,0.06l-0.003,0.002Zm0.226,0.077c-0.091,0.015 -0.148,0.032 -0.17,0.049c-0.023,0.018 -0.034,0.045 -0.034,0.082c-0,0.051 0.025,0.076 0.076,0.076c0.043,0 0.086,-0.025 0.128,-0.075l0,-0.132Z" style="fill-rule:nonzero;"/>
        </g>
        <g transform="matrix(37.5,0,0,37.5,335.841,669.255)">
            <path d="M0.183,-0.723l0.009,0.006c-0.004,0.037 -0.005,0.112 -0.005,0.225l-0,0.306c-0,0.007 0,0.03 0.001,0.069c0.002,0.039 0.003,0.062 0.005,0.068c0.001,0.007 0.003,0.011 0.006,0.014c0.003,0.003 0.007,0.005 0.011,0.006c0.004,0.001 0.022,0.002 0.053,0.004l0.004,0.004l0,0.021l-0.004,0.004c-0.041,-0.003 -0.08,-0.004 -0.117,-0.004c-0.038,-0 -0.077,0.001 -0.118,0.004l-0.004,-0.004l-0,-0.021l0.004,-0.004c0.032,-0.002 0.05,-0.003 0.054,-0.004c0.004,-0.001 0.007,-0.003 0.011,-0.006c0.003,-0.003 0.005,-0.008 0.006,-0.015c0.001,-0.006 0.002,-0.027 0.004,-0.063c0.001,-0.035 0.002,-0.062 0.002,-0.08l-0,-0.253l-0.002,-0.104c-0.001,-0.036 -0.002,-0.061 -0.003,-0.075c-0.001,-0.014 -0.003,-0.022 -0.005,-0.025c-0.002,-0.003 -0.005,-0.004 -0.01,-0.006c-0.005,-0.001 -0.025,-0.002 -0.059,-0.002l-0.005,-0.004l0,-0.021l0.004,-0.004c0.063,-0.007 0.115,-0.019 0.158,-0.036Z" style="fill-rule:nonzero;"/>
        </g>
        <g transform="matrix(37.5,0,0,37.5,346.754,669.255)">
            <path d="M0.249,0.009l-0.03,-0.077l-0.036,-0.083l-0.1,-0.233c-0.007,-0.016 -0.013,-0.026 -0.018,-0.031c-0.005,-0.004 -0.01,-0.007 -0.015,-0.008c-0.005,-0.001 -0.016,-0.002 -0.031,-0.003l-0.004,-0.004l-0,-0.021l0.004,-0.004c0.046,0.002 0.082,0.003 0.108,0.003c0.038,0 0.076,-0.001 0.114,-0.003l0.004,0.004l0,0.021l-0.004,0.004c-0.034,0.001 -0.053,0.004 -0.059,0.007c-0.005,0.004 -0.008,0.009 -0.008,0.015c-0,0.009 0.006,0.03 0.019,0.063l0.06,0.148l0.047,0.111l0.049,-0.111l0.04,-0.1c0.016,-0.039 0.026,-0.066 0.03,-0.082c0.005,-0.015 0.007,-0.026 0.007,-0.031c0,-0.006 -0.003,-0.011 -0.01,-0.014c-0.008,-0.002 -0.026,-0.004 -0.055,-0.006l-0.004,-0.004l0,-0.021l0.005,-0.004c0.04,0.002 0.07,0.003 0.091,0.003c0.017,0 0.046,-0.001 0.087,-0.003l0.004,0.004l-0,0.021l-0.004,0.004c-0.019,0.002 -0.032,0.005 -0.038,0.009c-0.007,0.003 -0.013,0.011 -0.019,0.022c-0.006,0.011 -0.023,0.046 -0.052,0.105l-0.047,0.1c-0.008,0.017 -0.036,0.083 -0.084,0.199l-0.051,-0Z" style="fill-rule:nonzero;"/>
        </g>
        <g transform="matrix(37.5,0,0,37.5,367.94,669.255)">
            <path d="M0.033,-0.224c0,-0.038 0.008,-0.076 0.024,-0.112c0.016,-0.036 0.044,-0.067 0.083,-0.093c0.04,-0.026 0.087,-0.039 0.141,-0.039c0.069,-0 0.124,0.021 0.167,0.064c0.043,0.044 0.065,0.099 0.065,0.167c-0,0.074 -0.025,0.136 -0.074,0.184c-0.05,0.048 -0.109,0.072 -0.179,0.072c-0.045,0 -0.086,-0.012 -0.122,-0.037c-0.036,-0.024 -0.062,-0.054 -0.079,-0.09c-0.017,-0.035 -0.026,-0.074 -0.026,-0.116Zm0.092,-0.033c0,0.045 0.006,0.086 0.018,0.122c0.012,0.036 0.03,0.065 0.056,0.087c0.025,0.021 0.054,0.032 0.087,0.032c0.038,0 0.07,-0.015 0.095,-0.045c0.025,-0.031 0.037,-0.077 0.037,-0.138c0,-0.069 -0.013,-0.126 -0.04,-0.17c-0.027,-0.044 -0.067,-0.067 -0.118,-0.067c-0.042,0 -0.075,0.016 -0.099,0.046c-0.024,0.031 -0.036,0.075 -0.036,0.133Z" style="fill-rule:nonzero;"/>
        </g>
        <g transform="matrix(37.5,0,0,37.5,274.583,719.243)">
            <path d="M0.049,-0.144l0.021,0l0.005,0.005c0,0.027 0.002,0.051 0.005,0.07c0.01,0.015 0.027,0.028 0.052,0.038c0.025,0.009 0.049,0.014 0.073,0.014c0.035,-0 0.062,-0.009 0.083,-0.028c0.021,-0.018 0.031,-0.041 0.031,-0.066c-0,-0.014 -0.004,-0.026 -0.011,-0.037c-0.008,-0.01 -0.019,-0.018 -0.034,-0.025c-0.015,-0.007 -0.043,-0.015 -0.082,-0.024c-0.033,-0.008 -0.057,-0.014 -0.07,-0.018c-0.013,-0.004 -0.026,-0.012 -0.039,-0.022c-0.012,-0.011 -0.021,-0.023 -0.028,-0.039c-0.006,-0.015 -0.01,-0.031 -0.01,-0.05c0,-0.043 0.018,-0.078 0.052,-0.104c0.035,-0.027 0.078,-0.04 0.13,-0.04c0.022,0 0.046,0.003 0.071,0.009c0.026,0.006 0.046,0.012 0.059,0.018l0.004,0.006c-0.002,0.013 -0.004,0.048 -0.005,0.103l-0.004,0.004l-0.019,0l-0.005,-0.004c-0.001,-0.02 -0.003,-0.034 -0.005,-0.042c-0.003,-0.008 -0.008,-0.016 -0.018,-0.026c-0.009,-0.009 -0.023,-0.017 -0.04,-0.023c-0.017,-0.006 -0.035,-0.01 -0.055,-0.01c-0.019,0 -0.036,0.003 -0.05,0.009c-0.013,0.006 -0.024,0.015 -0.032,0.027c-0.009,0.012 -0.013,0.026 -0.013,0.043c0,0.012 0.003,0.023 0.008,0.033c0.005,0.01 0.013,0.018 0.023,0.024c0.01,0.006 0.021,0.01 0.033,0.013l0.053,0.014c0.046,0.011 0.078,0.02 0.098,0.028c0.02,0.008 0.035,0.021 0.045,0.037c0.011,0.017 0.017,0.037 0.017,0.06c-0,0.045 -0.019,0.084 -0.056,0.116c-0.037,0.032 -0.085,0.048 -0.143,0.048c-0.021,0 -0.046,-0.002 -0.077,-0.007c-0.03,-0.004 -0.056,-0.009 -0.077,-0.015l-0.003,-0.006l0.005,-0.033c0.002,-0.01 0.003,-0.02 0.003,-0.03c0,-0.011 0.001,-0.032 0.001,-0.065l0.004,-0.005Z" style="fill-rule:nonzero;"/>
        </g>
        <g transform="matrix(37.5,0,0,37.5,290.477,719.243)">
            <path d="M0.424,-0.052l-0.02,0.032c-0.042,0.024 -0.089,0.035 -0.14,0.035c-0.072,0 -0.127,-0.021 -0.166,-0.064c-0.039,-0.042 -0.059,-0.097 -0.059,-0.165c0,-0.03 0.003,-0.058 0.01,-0.082c0.007,-0.024 0.015,-0.043 0.025,-0.059c0.011,-0.016 0.022,-0.028 0.034,-0.037c0.013,-0.009 0.034,-0.022 0.063,-0.038c0.03,-0.016 0.052,-0.027 0.067,-0.032c0.015,-0.005 0.035,-0.008 0.062,-0.008c0.05,0 0.092,0.01 0.124,0.029c-0.006,0.037 -0.011,0.078 -0.014,0.123l-0.005,0.004l-0.02,0l-0.004,-0.004c-0.001,-0.028 -0.003,-0.046 -0.006,-0.056c-0.002,-0.009 -0.015,-0.019 -0.038,-0.03c-0.024,-0.011 -0.049,-0.016 -0.076,-0.016c-0.026,0 -0.05,0.006 -0.071,0.017c-0.021,0.011 -0.037,0.03 -0.047,0.055c-0.011,0.026 -0.016,0.056 -0.016,0.092c-0,0.03 0.004,0.059 0.013,0.087c0.008,0.029 0.019,0.052 0.033,0.071c0.014,0.019 0.032,0.034 0.055,0.045c0.023,0.012 0.048,0.017 0.076,0.017c0.018,0 0.035,-0.002 0.052,-0.006c0.016,-0.005 0.036,-0.013 0.058,-0.023l0.01,0.013Z" style="fill-rule:nonzero;"/>
        </g>
        <g transform="matrix(37.5,0,0,37.5,307.121,719.243)">
            <path d="M0.104,-0.331l-0.02,-0.005l-0.003,-0.005l-0,-0.06c0.058,-0.043 0.114,-0.065 0.169,-0.065c0.037,0 0.068,0.007 0.093,0.021c0.025,0.014 0.042,0.032 0.053,0.053c0.012,0.021 0.017,0.045 0.017,0.073l-0.002,0.098l-0,0.146c-0,0.02 0.001,0.032 0.004,0.036c0.003,0.004 0.006,0.007 0.009,0.008c0.004,0.002 0.011,0.003 0.02,0.004l0.028,0.003l0.004,0.004l0,0.02l-0.004,0.003c-0.024,-0.002 -0.046,-0.003 -0.066,-0.003c-0.02,0 -0.043,0.001 -0.071,0.003l-0.007,-0.006l0.002,-0.079l-0.106,0.083c-0.018,0.007 -0.038,0.011 -0.059,0.011c-0.026,0 -0.048,-0.005 -0.067,-0.014c-0.019,-0.009 -0.033,-0.023 -0.043,-0.04c-0.01,-0.016 -0.015,-0.037 -0.015,-0.061c0,-0.048 0.015,-0.085 0.045,-0.112c0.03,-0.027 0.112,-0.05 0.245,-0.069c0,-0.048 -0.011,-0.082 -0.032,-0.101c-0.022,-0.02 -0.05,-0.03 -0.087,-0.03c-0.018,-0 -0.036,0.003 -0.051,0.008c-0.016,0.006 -0.024,0.01 -0.027,0.014c-0.002,0.003 -0.011,0.023 -0.026,0.06l-0.003,0.002Zm0.226,0.077c-0.091,0.015 -0.148,0.032 -0.17,0.049c-0.023,0.018 -0.034,0.045 -0.034,0.082c-0,0.051 0.025,0.076 0.076,0.076c0.043,0 0.086,-0.025 0.128,-0.075l0,-0.132Z" style="fill-rule:nonzero;"/>
        </g>
        <g transform="matrix(37.5,0,0,37.5,325.871,719.243)">
            <path d="M0.167,-0.465l0.009,0.006c-0.002,0.022 -0.003,0.05 -0.004,0.086c0.026,-0.022 0.051,-0.043 0.075,-0.065c0.006,-0.007 0.013,-0.011 0.019,-0.014c0.006,-0.003 0.016,-0.006 0.03,-0.009c0.014,-0.004 0.028,-0.005 0.043,-0.005c0.025,-0 0.049,0.005 0.072,0.015c0.023,0.01 0.041,0.022 0.053,0.036c0.012,0.014 0.02,0.03 0.024,0.049c0.005,0.019 0.007,0.042 0.007,0.07l0,0.086c0,0.005 0.001,0.046 0.003,0.121c0,0.031 0.004,0.049 0.01,0.055c0.006,0.006 0.026,0.009 0.06,0.009l0.004,0.004l0,0.021l-0.004,0.004c-0.041,-0.003 -0.069,-0.004 -0.084,-0.004c-0.008,0 -0.032,0.001 -0.071,0.004l-0.006,-0.005c0.004,-0.043 0.007,-0.098 0.007,-0.166l-0,-0.064c-0,-0.038 -0.001,-0.066 -0.003,-0.083c-0.002,-0.017 -0.007,-0.032 -0.016,-0.046c-0.01,-0.014 -0.022,-0.025 -0.037,-0.032c-0.015,-0.008 -0.034,-0.012 -0.055,-0.012c-0.017,0 -0.031,0.002 -0.043,0.005c-0.012,0.004 -0.026,0.011 -0.041,0.021c-0.015,0.011 -0.026,0.021 -0.033,0.03c-0.007,0.009 -0.011,0.018 -0.013,0.026c-0.001,0.008 -0.002,0.025 -0.002,0.051l-0,0.085c-0,0.007 0.001,0.03 0.002,0.069c0.001,0.039 0.003,0.062 0.004,0.068c0.001,0.007 0.004,0.011 0.007,0.014c0.003,0.003 0.006,0.005 0.01,0.006c0.005,0.001 0.022,0.002 0.053,0.004l0.004,0.004l0,0.021l-0.003,0.004c-0.041,-0.003 -0.08,-0.004 -0.118,-0.004c-0.038,-0 -0.077,0.001 -0.117,0.004l-0.005,-0.004l0,-0.021l0.005,-0.004c0.031,-0.002 0.049,-0.003 0.053,-0.004c0.004,-0.001 0.008,-0.003 0.011,-0.006c0.003,-0.003 0.005,-0.008 0.006,-0.015c0.001,-0.006 0.003,-0.027 0.004,-0.063c0.002,-0.035 0.002,-0.062 0.002,-0.08l0,-0.097c0,-0.013 -0,-0.03 -0.002,-0.053c-0.001,-0.022 -0.002,-0.036 -0.003,-0.041c-0.001,-0.005 -0.003,-0.009 -0.007,-0.012c-0.005,-0.002 -0.013,-0.003 -0.026,-0.003l-0.041,-0.001l-0.004,-0.004l-0,-0.021l0.004,-0.004c0.062,-0.007 0.114,-0.019 0.157,-0.036Z" style="fill-rule:nonzero;"/>
        </g>
        <g transform="matrix(37.5,0,0,37.5,347.697,719.243)">
            <path d="M0.167,-0.465l0.009,0.006c-0.002,0.022 -0.003,0.05 -0.004,0.086c0.026,-0.022 0.051,-0.043 0.075,-0.065c0.006,-0.007 0.013,-0.011 0.019,-0.014c0.006,-0.003 0.016,-0.006 0.03,-0.009c0.014,-0.004 0.028,-0.005 0.043,-0.005c0.025,-0 0.049,0.005 0.072,0.015c0.023,0.01 0.041,0.022 0.053,0.036c0.012,0.014 0.02,0.03 0.024,0.049c0.005,0.019 0.007,0.042 0.007,0.07l0,0.086c0,0.005 0.001,0.046 0.003,0.121c0,0.031 0.004,0.049 0.01,0.055c0.006,0.006 0.026,0.009 0.06,0.009l0.004,0.004l0,0.021l-0.004,0.004c-0.041,-0.003 -0.069,-0.004 -0.084,-0.004c-0.008,0 -0.032,0.001 -0.071,0.004l-0.006,-0.005c0.004,-0.043 0.007,-0.098 0.007,-0.166l-0,-0.064c-0,-0.038 -0.001,-0.066 -0.003,-0.083c-0.002,-0.017 -0.007,-0.032 -0.016,-0.046c-0.01,-0.014 -0.022,-0.025 -0.037,-0.032c-0.015,-0.008 -0.034,-0.012 -0.055,-0.012c-0.017,0 -0.031,0.002 -0.043,0.005c-0.012,0.004 -0.026,0.011 -0.041,0.021c-0.015,0.011 -0.026,0.021 -0.033,0.03c-0.007,0.009 -0.011,0.018 -0.013,0.026c-0.001,0.008 -0.002,0.025 -0.002,0.051l-0,0.085c-0,0.007 0.001,0.03 0.002,0.069c0.001,0.039 0.003,0.062 0.004,0.068c0.001,0.007 0.004,0.011 0.007,0.014c0.003,0.003 0.006,0.005 0.01,0.006c0.005,0.001 0.022,0.002 0.053,0.004l0.004,0.004l0,0.021l-0.003,0.004c-0.041,-0.003 -0.08,-0.004 -0.118,-0.004c-0.038,-0 -0.077,0.001 -0.117,0.004l-0.005,-0.004l0,-0.021l0.005,-0.004c0.031,-0.002 0.049,-0.003 0.053,-0.004c0.004,-0.001 0.008,-0.003 0.011,-0.006c0.003,-0.003 0.005,-0.008 0.006,-0.015c0.001,-0.006 0.003,-0.027 0.004,-0.063c0.002,-0.035 0.002,-0.062 0.002,-0.08l0,-0.097c0,-0.013 -0,-0.03 -0.002,-0.053c-0.001,-0.022 -0.002,-0.036 -0.003,-0.041c-0.001,-0.005 -0.003,-0.009 -0.007,-0.012c-0.005,-0.002 -0.013,-0.003 -0.026,-0.003l-0.041,-0.001l-0.004,-0.004l-0,-0.021l0.004,-0.004c0.062,-0.007 0.114,-0.019 0.157,-0.036Z" style="fill-rule:nonzero;"/>
        </g>
        <g transform="matrix(37.5,0,0,37.5,369.523,719.243)">
            <path d="M0.432,-0.072l-0.016,0.035c-0.034,0.022 -0.064,0.036 -0.091,0.043c-0.026,0.006 -0.05,0.01 -0.071,0.01c-0.039,-0 -0.076,-0.008 -0.111,-0.023c-0.035,-0.016 -0.063,-0.042 -0.085,-0.078c-0.022,-0.036 -0.033,-0.08 -0.033,-0.132c-0,-0.034 0.004,-0.065 0.013,-0.092c0.008,-0.028 0.017,-0.048 0.026,-0.062c0.009,-0.013 0.025,-0.028 0.047,-0.044c0.022,-0.016 0.046,-0.029 0.071,-0.039c0.024,-0.01 0.051,-0.015 0.08,-0.015c0.039,0 0.073,0.009 0.103,0.028c0.03,0.018 0.051,0.042 0.063,0.07c0.012,0.029 0.018,0.059 0.018,0.092c-0,0.01 -0.001,0.02 -0.002,0.029l-0.005,0.005c-0.022,0.005 -0.052,0.009 -0.089,0.01c-0.038,0.002 -0.063,0.003 -0.075,0.003l-0.156,-0c0,0.067 0.017,0.117 0.05,0.149c0.034,0.031 0.074,0.047 0.123,0.047c0.022,0 0.044,-0.004 0.065,-0.011c0.021,-0.008 0.043,-0.019 0.067,-0.033l0.008,0.008Zm-0.313,-0.199c0.006,0 0.028,0.002 0.067,0.003c0.04,0.001 0.069,0.002 0.087,0.002c0.046,-0 0.073,-0.001 0.083,-0.003c0,-0.007 0,-0.013 0,-0.018c0,-0.05 -0.01,-0.088 -0.03,-0.112c-0.021,-0.025 -0.049,-0.037 -0.084,-0.037c-0.039,-0 -0.069,0.014 -0.091,0.041c-0.022,0.028 -0.032,0.069 -0.032,0.124Z" style="fill-rule:nonzero;"/>
        </g>
        <g transform="matrix(37.5,0,0,37.5,387.486,719.243)">
            <path d="M0.188,-0.465l0.009,0.006c-0.002,0.019 -0.004,0.052 -0.005,0.101l0.037,-0.047c0.012,-0.015 0.023,-0.027 0.032,-0.035c0.009,-0.008 0.02,-0.015 0.032,-0.019c0.013,-0.005 0.026,-0.007 0.039,-0.007c0.014,-0 0.027,0.003 0.04,0.008l0.003,0.007c-0.005,0.044 -0.008,0.082 -0.008,0.115l-0.022,-0c-0.013,-0.03 -0.034,-0.045 -0.063,-0.045c-0.02,-0 -0.038,0.006 -0.053,0.019c-0.015,0.013 -0.025,0.029 -0.03,0.048c-0.005,0.02 -0.008,0.044 -0.008,0.074l0,0.054c0,0.01 0.001,0.034 0.002,0.072c0.002,0.038 0.003,0.06 0.005,0.066c0.001,0.006 0.003,0.01 0.006,0.013c0.003,0.002 0.008,0.004 0.013,0.005c0.005,0.001 0.028,0.003 0.069,0.005l0.005,0.004l-0,0.021l-0.005,0.004c-0.043,-0.003 -0.088,-0.004 -0.136,-0.004c-0.037,-0 -0.076,0.001 -0.117,0.004l-0.004,-0.004l-0,-0.021l0.004,-0.004c0.032,-0.002 0.05,-0.003 0.054,-0.004c0.004,-0.001 0.007,-0.003 0.01,-0.006c0.004,-0.003 0.006,-0.008 0.007,-0.015c0.001,-0.006 0.002,-0.027 0.004,-0.063c0.001,-0.035 0.002,-0.062 0.002,-0.08l-0,-0.097c-0,-0.013 -0.001,-0.03 -0.002,-0.053c-0.001,-0.022 -0.002,-0.036 -0.003,-0.041c-0.001,-0.005 -0.004,-0.009 -0.008,-0.012c-0.004,-0.002 -0.013,-0.003 -0.025,-0.003l-0.041,-0.001l-0.005,-0.004l0,-0.021l0.004,-0.004c0.062,-0.007 0.115,-0.019 0.157,-0.036Z" style="fill-rule:nonzero;"/>
        </g>
    </g>
    <g transform="matrix(1,0,0,1,-87.1604,-524.686)">
        <g transform="matrix(37.5,0,0,37.5,289.013,669.255)">
            <path d="M0.018,-0.659l-0.004,-0.003l-0,-0.025l0.004,-0.003c0.055,0.003 0.098,0.004 0.128,0.004c0.012,-0 0.057,-0.001 0.136,-0.004c0.025,-0.001 0.044,-0.001 0.055,-0.001c0.044,0 0.079,0.004 0.104,0.013c0.026,0.009 0.047,0.025 0.062,0.047c0.016,0.022 0.024,0.048 0.024,0.076c-0,0.036 -0.013,0.069 -0.039,0.1c-0.026,0.031 -0.069,0.053 -0.127,0.067c0.035,0.003 0.064,0.008 0.087,0.014c0.023,0.006 0.042,0.016 0.059,0.029c0.016,0.012 0.03,0.029 0.039,0.05c0.01,0.02 0.015,0.044 0.015,0.071c-0,0.021 -0.004,0.043 -0.01,0.064c-0.007,0.022 -0.019,0.044 -0.036,0.065c-0.018,0.022 -0.039,0.04 -0.063,0.055c-0.025,0.016 -0.05,0.027 -0.076,0.034c-0.026,0.006 -0.058,0.01 -0.097,0.01c-0.008,-0 -0.031,-0.001 -0.07,-0.003c-0.043,-0.001 -0.067,-0.001 -0.07,-0.001c-0.022,0 -0.05,0.001 -0.082,0.004l-0.004,-0.004l0,-0.016l0.004,-0.005c0.019,-0.008 0.03,-0.014 0.033,-0.018c0.003,-0.003 0.005,-0.032 0.007,-0.086c0.002,-0.054 0.003,-0.096 0.003,-0.125l-0,-0.179l-0.001,-0.111c0,-0.024 -0,-0.043 -0.001,-0.058c-0.001,-0.016 -0.001,-0.026 -0.003,-0.033c-0.001,-0.006 -0.003,-0.011 -0.005,-0.014c-0.003,-0.002 -0.006,-0.004 -0.011,-0.006c-0.005,-0.002 -0.013,-0.003 -0.024,-0.005l-0.037,-0.003Zm0.175,0.257c0.016,0.001 0.035,0.002 0.055,0.002c0.067,-0 0.114,-0.012 0.141,-0.037c0.026,-0.024 0.039,-0.057 0.039,-0.099c0,-0.024 -0.005,-0.045 -0.015,-0.062c-0.01,-0.017 -0.026,-0.03 -0.048,-0.039c-0.021,-0.009 -0.051,-0.014 -0.088,-0.014c-0.03,0 -0.057,0.003 -0.08,0.007c-0.003,0.03 -0.004,0.081 -0.004,0.154l-0,0.088Zm0.001,0.356c0.025,0.005 0.051,0.008 0.077,0.008c0.047,0 0.083,-0.007 0.109,-0.022c0.027,-0.015 0.046,-0.036 0.059,-0.062c0.012,-0.027 0.019,-0.056 0.019,-0.087c-0,-0.047 -0.014,-0.084 -0.04,-0.113c-0.027,-0.028 -0.084,-0.042 -0.172,-0.042c-0.015,0 -0.033,0.001 -0.053,0.002l-0,0.167l0.001,0.149Z" style="fill-rule:nonzero;"/>
        </g>
        <g transform="matrix(37.5,0,0,37.5,311.919,669.255)">
            <path d="M0.432,-0.072l-0.016,0.035c-0.034,0.022 -0.064,0.036 -0.091,0.043c-0.026,0.006 -0.05,0.01 -0.071,0.01c-0.039,-0 -0.076,-0.008 -0.111,-0.023c-0.035,-0.016 -0.063,-0.042 -0.085,-0.078c-0.022,-0.036 -0.033,-0.08 -0.033,-0.132c-0,-0.034 0.004,-0.065 0.013,-0.092c0.008,-0.028 0.017,-0.048 0.026,-0.062c0.009,-0.013 0.025,-0.028 0.047,-0.044c0.022,-0.016 0.046,-0.029 0.071,-0.039c0.024,-0.01 0.051,-0.015 0.08,-0.015c0.039,0 0.073,0.009 0.103,0.028c0.03,0.018 0.051,0.042 0.063,0.07c0.012,0.029 0.018,0.059 0.018,0.092c-0,0.01 -0.001,0.02 -0.002,0.029l-0.005,0.005c-0.022,0.005 -0.052,0.009 -0.089,0.01c-0.038,0.002 -0.063,0.003 -0.075,0.003l-0.156,-0c0,0.067 0.017,0.117 0.05,0.149c0.034,0.031 0.074,0.047 0.123,0.047c0.022,0 0.044,-0.004 0.065,-0.011c0.021,-0.008 0.043,-0.019 0.067,-0.033l0.008,0.008Zm-0.313,-0.199c0.006,0 0.028,0.002 0.067,0.003c0.04,0.001 0.069,0.002 0.087,0.002c0.046,-0 0.073,-0.001 0.083,-0.003c0,-0.007 0,-0.013 0,-0.018c0,-0.05 -0.01,-0.088 -0.03,-0.112c-0.021,-0.025 -0.049,-0.037 -0.084,-0.037c-0.039,-0 -0.069,0.014 -0.091,0.041c-0.022,0.028 -0.032,0.069 -0.032,0.124Z" style="fill-rule:nonzero;"/>
        </g>
        <g transform="matrix(37.5,0,0,37.5,329.882,669.255)">
            <path d="M0.104,-0.331l-0.02,-0.005l-0.003,-0.005l-0,-0.06c0.058,-0.043 0.114,-0.065 0.169,-0.065c0.037,0 0.068,0.007 0.093,0.021c0.025,0.014 0.042,0.032 0.053,0.053c0.012,0.021 0.017,0.045 0.017,0.073l-0.002,0.098l-0,0.146c-0,0.02 0.001,0.032 0.004,0.036c0.003,0.004 0.006,0.007 0.009,0.008c0.004,0.002 0.011,0.003 0.02,0.004l0.028,0.003l0.004,0.004l0,0.02l-0.004,0.003c-0.024,-0.002 -0.046,-0.003 -0.066,-0.003c-0.02,0 -0.043,0.001 -0.071,0.003l-0.007,-0.006l0.002,-0.079l-0.106,0.083c-0.018,0.007 -0.038,0.011 -0.059,0.011c-0.026,0 -0.048,-0.005 -0.067,-0.014c-0.019,-0.009 -0.033,-0.023 -0.043,-0.04c-0.01,-0.016 -0.015,-0.037 -0.015,-0.061c0,-0.048 0.015,-0.085 0.045,-0.112c0.03,-0.027 0.112,-0.05 0.245,-0.069c0,-0.048 -0.011,-0.082 -0.032,-0.101c-0.022,-0.02 -0.05,-0.03 -0.087,-0.03c-0.018,-0 -0.036,0.003 -0.051,0.008c-0.016,0.006 -0.024,0.01 -0.027,0.014c-0.002,0.003 -0.011,0.023 -0.026,0.06l-0.003,0.002Zm0.226,0.077c-0.091,0.015 -0.148,0.032 -0.17,0.049c-0.023,0.018 -0.034,0.045 -0.034,0.082c-0,0.051 0.025,0.076 0.076,0.076c0.043,0 0.086,-0.025 0.128,-0.075l0,-0.132Z" style="fill-rule:nonzero;"/>
        </g>
        <g transform="matrix(37.5,0,0,37.5,348.632,669.255)">
            <path d="M0.18,-0.465l0.009,0.006c-0.002,0.022 -0.003,0.047 -0.004,0.077l0.046,-0.042c0.013,-0.012 0.022,-0.02 0.026,-0.024c0.005,-0.003 0.014,-0.007 0.03,-0.011c0.016,-0.005 0.032,-0.007 0.049,-0.007c0.033,-0 0.061,0.008 0.086,0.024c0.024,0.016 0.042,0.038 0.054,0.067c0.044,-0.042 0.07,-0.065 0.077,-0.07c0.007,-0.004 0.019,-0.009 0.035,-0.014c0.016,-0.004 0.032,-0.007 0.048,-0.007c0.025,0 0.049,0.006 0.071,0.017c0.021,0.011 0.038,0.025 0.051,0.043c0.013,0.018 0.02,0.038 0.022,0.058c0.002,0.021 0.003,0.05 0.003,0.086l0,0.052c0,0.005 0.001,0.046 0.003,0.121c0.001,0.031 0.004,0.049 0.01,0.055c0.007,0.006 0.027,0.009 0.06,0.009l0.004,0.004l0,0.021l-0.004,0.004c-0.041,-0.003 -0.069,-0.004 -0.084,-0.004c-0.008,0 -0.031,0.001 -0.07,0.004l-0.007,-0.005c0.005,-0.043 0.007,-0.098 0.007,-0.166l-0,-0.059c-0,-0.051 -0.003,-0.088 -0.008,-0.108c-0.005,-0.021 -0.016,-0.038 -0.034,-0.051c-0.018,-0.013 -0.039,-0.02 -0.064,-0.02c-0.017,0 -0.034,0.004 -0.049,0.011c-0.015,0.007 -0.029,0.017 -0.041,0.031c-0.013,0.014 -0.019,0.027 -0.021,0.039c-0.001,0.011 -0.002,0.033 -0.002,0.065l0,0.061c0,0.015 0.001,0.041 0.002,0.081c0.002,0.039 0.003,0.062 0.005,0.069c0.001,0.006 0.003,0.011 0.006,0.014c0.003,0.002 0.007,0.004 0.011,0.005c0.004,0.001 0.022,0.002 0.053,0.004l0.004,0.004l-0,0.021l-0.004,0.004c-0.041,-0.003 -0.08,-0.004 -0.118,-0.004c-0.034,-0 -0.074,0.001 -0.117,0.004l-0.004,-0.004l-0,-0.021l0.004,-0.004c0.032,-0.002 0.05,-0.003 0.054,-0.004c0.004,-0.001 0.007,-0.003 0.01,-0.006c0.003,-0.003 0.006,-0.008 0.007,-0.015c0.001,-0.006 0.002,-0.027 0.004,-0.063c0.001,-0.035 0.002,-0.062 0.002,-0.08l-0,-0.056c-0,-0.037 -0.003,-0.065 -0.008,-0.085c-0.005,-0.02 -0.016,-0.037 -0.032,-0.05c-0.017,-0.014 -0.038,-0.021 -0.063,-0.021c-0.019,0 -0.037,0.004 -0.053,0.012c-0.016,0.007 -0.029,0.017 -0.04,0.028c-0.01,0.011 -0.016,0.022 -0.019,0.032c-0.002,0.009 -0.003,0.03 -0.003,0.063l-0,0.072c-0,0.015 0,0.041 0.002,0.081c0.001,0.039 0.002,0.062 0.004,0.069c0.001,0.006 0.003,0.011 0.007,0.014c0.003,0.002 0.006,0.004 0.01,0.005c0.004,0.001 0.022,0.002 0.053,0.004l0.004,0.004l0,0.021l-0.004,0.004c-0.04,-0.003 -0.08,-0.004 -0.117,-0.004c-0.038,-0 -0.077,0.001 -0.118,0.004l-0.004,-0.004l-0,-0.021l0.004,-0.004c0.032,-0.002 0.05,-0.003 0.054,-0.004c0.004,-0.001 0.008,-0.003 0.011,-0.006c0.003,-0.003 0.005,-0.008 0.006,-0.015c0.001,-0.006 0.002,-0.027 0.004,-0.063c0.001,-0.035 0.002,-0.062 0.002,-0.08l0,-0.097c0,-0.013 -0.001,-0.03 -0.002,-0.053c-0.001,-0.022 -0.002,-0.036 -0.003,-0.041c-0.001,-0.005 -0.003,-0.009 -0.008,-0.012c-0.004,-0.002 -0.012,-0.003 -0.025,-0.003l-0.041,-0.001l-0.004,-0.004l-0,-0.021l0.003,-0.004c0.063,-0.007 0.115,-0.019 0.158,-0.036Z" style="fill-rule:nonzero;"/>
        </g>
        <g transform="matrix(37.5,0,0,37.5,277.202,719.243)">
            <path d="M0.049,-0.144l0.021,0l0.005,0.005c0,0.027 0.002,0.051 0.005,0.07c0.01,0.015 0.027,0.028 0.052,0.038c0.025,0.009 0.049,0.014 0.073,0.014c0.035,-0 0.062,-0.009 0.083,-0.028c0.021,-0.018 0.031,-0.041 0.031,-0.066c-0,-0.014 -0.004,-0.026 -0.011,-0.037c-0.008,-0.01 -0.019,-0.018 -0.034,-0.025c-0.015,-0.007 -0.043,-0.015 -0.082,-0.024c-0.033,-0.008 -0.057,-0.014 -0.07,-0.018c-0.013,-0.004 -0.026,-0.012 -0.039,-0.022c-0.012,-0.011 -0.021,-0.023 -0.028,-0.039c-0.006,-0.015 -0.01,-0.031 -0.01,-0.05c0,-0.043 0.018,-0.078 0.052,-0.104c0.035,-0.027 0.078,-0.04 0.13,-0.04c0.022,0 0.046,0.003 0.071,0.009c0.026,0.006 0.046,0.012 0.059,0.018l0.004,0.006c-0.002,0.013 -0.004,0.048 -0.005,0.103l-0.004,0.004l-0.019,0l-0.005,-0.004c-0.001,-0.02 -0.003,-0.034 -0.005,-0.042c-0.003,-0.008 -0.008,-0.016 -0.018,-0.026c-0.009,-0.009 -0.023,-0.017 -0.04,-0.023c-0.017,-0.006 -0.035,-0.01 -0.055,-0.01c-0.019,0 -0.036,0.003 -0.05,0.009c-0.013,0.006 -0.024,0.015 -0.032,0.027c-0.009,0.012 -0.013,0.026 -0.013,0.043c0,0.012 0.003,0.023 0.008,0.033c0.005,0.01 0.013,0.018 0.023,0.024c0.01,0.006 0.021,0.01 0.033,0.013l0.053,0.014c0.046,0.011 0.078,0.02 0.098,0.028c0.02,0.008 0.035,0.021 0.045,0.037c0.011,0.017 0.017,0.037 0.017,0.06c-0,0.045 -0.019,0.084 -0.056,0.116c-0.037,0.032 -0.085,0.048 -0.143,0.048c-0.021,0 -0.046,-0.002 -0.077,-0.007c-0.03,-0.004 -0.056,-0.009 -0.077,-0.015l-0.003,-0.006l0.005,-0.033c0.002,-0.01 0.003,-0.02 0.003,-0.03c0,-0.011 0.001,-0.032 0.001,-0.065l0.004,-0.005Z" style="fill-rule:nonzero;"/>
        </g>
        <g transform="matrix(37.5,0,0,37.5,293.096,719.243)">
            <path d="M0.181,-0.471l0.009,0.006c-0.003,0.037 -0.005,0.07 -0.005,0.098c0.044,-0.04 0.075,-0.067 0.092,-0.08c0.018,-0.013 0.048,-0.019 0.09,-0.019c0.027,-0 0.051,0.003 0.073,0.011c0.022,0.007 0.042,0.019 0.06,0.036c0.019,0.017 0.034,0.038 0.044,0.063c0.011,0.025 0.017,0.054 0.017,0.087c-0,0.024 -0.004,0.048 -0.012,0.072c-0.007,0.024 -0.017,0.046 -0.029,0.067c-0.012,0.02 -0.022,0.034 -0.03,0.04c-0.007,0.007 -0.022,0.017 -0.045,0.03c-0.02,0.013 -0.041,0.026 -0.061,0.04c-0.014,0.011 -0.023,0.017 -0.029,0.02c-0.006,0.003 -0.015,0.006 -0.028,0.009c-0.013,0.003 -0.027,0.004 -0.041,0.004c-0.034,0 -0.068,-0.008 -0.101,-0.026l-0,0.104c-0,0.007 0,0.031 0.002,0.069c0.001,0.039 0.002,0.062 0.004,0.069c0.001,0.006 0.003,0.011 0.006,0.014c0.003,0.003 0.007,0.004 0.011,0.005c0.004,0.001 0.022,0.002 0.053,0.004l0.004,0.004l0,0.021l-0.004,0.004c-0.04,-0.002 -0.08,-0.004 -0.117,-0.004c-0.037,0 -0.076,0.002 -0.117,0.004l-0.005,-0.004l0,-0.021l0.005,-0.004c0.031,-0.002 0.049,-0.003 0.053,-0.004c0.004,-0.001 0.008,-0.003 0.011,-0.006c0.003,-0.003 0.005,-0.008 0.006,-0.015c0.002,-0.007 0.003,-0.029 0.004,-0.065c0.002,-0.037 0.003,-0.065 0.003,-0.083l-0,-0.374c-0,-0.017 -0.001,-0.037 -0.003,-0.059c-0.001,-0.023 -0.002,-0.035 -0.003,-0.039c-0.001,-0.004 -0.004,-0.007 -0.007,-0.009c-0.004,-0.002 -0.013,-0.003 -0.026,-0.003l-0.041,-0.001l-0.004,-0.004l0,-0.021l0.004,-0.004c0.062,-0.007 0.114,-0.019 0.157,-0.036Zm0.004,0.374c0.015,0.016 0.033,0.029 0.055,0.04c0.022,0.011 0.047,0.017 0.073,0.017c0.032,-0 0.06,-0.008 0.084,-0.024c0.024,-0.016 0.043,-0.039 0.057,-0.07c0.013,-0.031 0.02,-0.065 0.02,-0.102c-0,-0.031 -0.006,-0.059 -0.018,-0.085c-0.012,-0.026 -0.03,-0.046 -0.055,-0.061c-0.025,-0.015 -0.052,-0.023 -0.08,-0.023c-0.017,0 -0.034,0.003 -0.05,0.009c-0.016,0.006 -0.031,0.015 -0.046,0.027c-0.014,0.012 -0.024,0.023 -0.03,0.033c-0.006,0.011 -0.01,0.02 -0.01,0.027c-0,0.007 -0,0.014 -0,0.023l-0,0.189Z" style="fill-rule:nonzero;"/>
        </g>
        <g transform="matrix(37.5,0,0,37.5,315.636,719.243)">
            <path d="M0.183,-0.723l0.009,0.006c-0.004,0.037 -0.005,0.112 -0.005,0.225l-0,0.306c-0,0.007 0,0.03 0.001,0.069c0.002,0.039 0.003,0.062 0.005,0.068c0.001,0.007 0.003,0.011 0.006,0.014c0.003,0.003 0.007,0.005 0.011,0.006c0.004,0.001 0.022,0.002 0.053,0.004l0.004,0.004l0,0.021l-0.004,0.004c-0.041,-0.003 -0.08,-0.004 -0.117,-0.004c-0.038,-0 -0.077,0.001 -0.118,0.004l-0.004,-0.004l-0,-0.021l0.004,-0.004c0.032,-0.002 0.05,-0.003 0.054,-0.004c0.004,-0.001 0.007,-0.003 0.011,-0.006c0.003,-0.003 0.005,-0.008 0.006,-0.015c0.001,-0.006 0.002,-0.027 0.004,-0.063c0.001,-0.035 0.002,-0.062 0.002,-0.08l-0,-0.253l-0.002,-0.104c-0.001,-0.036 -0.002,-0.061 -0.003,-0.075c-0.001,-0.014 -0.003,-0.022 -0.005,-0.025c-0.002,-0.003 -0.005,-0.004 -0.01,-0.006c-0.005,-0.001 -0.025,-0.002 -0.059,-0.002l-0.005,-0.004l0,-0.021l0.004,-0.004c0.063,-0.007 0.115,-0.019 0.158,-0.036Z" style="fill-rule:nonzero;"/>
        </g>
        <g transform="matrix(37.5,0,0,37.5,326.549,719.243)">
            <path d="M0.141,-0.684c0.015,0 0.028,0.006 0.039,0.017c0.01,0.01 0.016,0.023 0.016,0.039c-0,0.015 -0.006,0.027 -0.016,0.038c-0.011,0.011 -0.024,0.016 -0.039,0.016c-0.015,0 -0.028,-0.005 -0.039,-0.016c-0.011,-0.01 -0.017,-0.023 -0.017,-0.038c0,-0.016 0.006,-0.029 0.017,-0.039c0.011,-0.011 0.024,-0.017 0.039,-0.017Zm0.041,0.219l0.009,0.006c-0.003,0.043 -0.005,0.097 -0.005,0.163l0,0.11c0,0.007 0.001,0.03 0.002,0.069c0.001,0.039 0.003,0.062 0.004,0.068c0.002,0.007 0.004,0.011 0.007,0.014c0.003,0.003 0.006,0.005 0.01,0.006c0.005,0.001 0.022,0.002 0.053,0.004l0.005,0.004l-0,0.021l-0.004,0.004c-0.041,-0.003 -0.08,-0.004 -0.118,-0.004c-0.037,0 -0.076,0.001 -0.117,0.004l-0.005,-0.004l0,-0.021l0.005,-0.004c0.031,-0.002 0.049,-0.003 0.053,-0.004c0.004,-0.001 0.008,-0.003 0.011,-0.006c0.003,-0.003 0.005,-0.008 0.006,-0.015c0.002,-0.006 0.003,-0.027 0.004,-0.063c0.002,-0.035 0.002,-0.062 0.002,-0.08l0,-0.097c0,-0.013 -0,-0.03 -0.001,-0.053c-0.002,-0.022 -0.003,-0.036 -0.004,-0.041c-0,-0.005 -0.003,-0.009 -0.007,-0.012c-0.004,-0.002 -0.013,-0.003 -0.026,-0.003l-0.041,-0.001l-0.004,-0.004l-0,-0.021l0.004,-0.004c0.062,-0.007 0.114,-0.019 0.157,-0.036Z" style="fill-rule:nonzero;"/>
        </g>
        <g transform="matrix(37.5,0,0,37.5,337.462,719.243)">
            <path d="M0.614,-0.429l-0.01,0.041l-0.003,0.004c-0.017,-0 -0.035,-0 -0.056,-0c-0.018,-0 -0.041,-0 -0.07,0l-0.003,0.199c0,0.048 0.002,0.08 0.004,0.094c0.003,0.014 0.009,0.024 0.019,0.031c0.01,0.007 0.023,0.01 0.041,0.01c0.021,0 0.042,-0.006 0.06,-0.017l0.012,0.018c-0.008,0.005 -0.027,0.021 -0.056,0.049c-0.017,0.007 -0.034,0.011 -0.052,0.011c-0.073,0 -0.11,-0.035 -0.11,-0.106l0.003,-0.084l-0,-0.205l-0.213,0l-0.003,0.199c-0,0.048 0.001,0.08 0.004,0.094c0.003,0.014 0.009,0.024 0.019,0.031c0.009,0.007 0.023,0.01 0.04,0.01c0.022,0 0.042,-0.006 0.061,-0.017l0.012,0.018c-0.008,0.005 -0.027,0.021 -0.057,0.049c-0.017,0.007 -0.034,0.011 -0.051,0.011c-0.074,0 -0.11,-0.035 -0.11,-0.106l0.002,-0.084l0,-0.202l-0.02,-0c-0.014,-0 -0.031,0 -0.05,0.002l-0.005,-0.004l0,-0.013l0.004,-0.005c0.03,-0.011 0.055,-0.022 0.074,-0.032c0,-0.085 -0.001,-0.134 -0.003,-0.148c0.034,-0.012 0.061,-0.024 0.083,-0.038l0.011,0.01c-0.003,0.021 -0.007,0.08 -0.011,0.176l0.214,0c0,-0.092 -0,-0.141 -0.001,-0.148c0.033,-0.012 0.061,-0.024 0.082,-0.038l0.012,0.01c-0.003,0.021 -0.007,0.08 -0.012,0.179c0.016,0 0.034,0 0.053,0c0.038,0 0.066,-0.001 0.082,-0.003l0.004,0.004Z" style="fill-rule:nonzero;"/>
        </g>
        <g transform="matrix(37.5,0,0,37.5,360.772,719.243)">
            <path d="M0.432,-0.072l-0.016,0.035c-0.034,0.022 -0.064,0.036 -0.091,0.043c-0.026,0.006 -0.05,0.01 -0.071,0.01c-0.039,-0 -0.076,-0.008 -0.111,-0.023c-0.035,-0.016 -0.063,-0.042 -0.085,-0.078c-0.022,-0.036 -0.033,-0.08 -0.033,-0.132c-0,-0.034 0.004,-0.065 0.013,-0.092c0.008,-0.028 0.017,-0.048 0.026,-0.062c0.009,-0.013 0.025,-0.028 0.047,-0.044c0.022,-0.016 0.046,-0.029 0.071,-0.039c0.024,-0.01 0.051,-0.015 0.08,-0.015c0.039,0 0.073,0.009 0.103,0.028c0.03,0.018 0.051,0.042 0.063,0.07c0.012,0.029 0.018,0.059 0.018,0.092c-0,0.01 -0.001,0.02 -0.002,0.029l-0.005,0.005c-0.022,0.005 -0.052,0.009 -0.089,0.01c-0.038,0.002 -0.063,0.003 -0.075,0.003l-0.156,-0c0,0.067 0.017,0.117 0.05,0.149c0.034,0.031 0.074,0.047 0.123,0.047c0.022,0 0.044,-0.004 0.065,-0.011c0.021,-0.008 0.043,-0.019 0.067,-0.033l0.008,0.008Zm-0.313,-0.199c0.006,0 0.028,0.002 0.067,0.003c0.04,0.001 0.069,0.002 0.087,0.002c0.046,-0 0.073,-0.001 0.083,-0.003c0,-0.007 0,-0.013 0,-0.018c0,-0.05 -0.01,-0.088 -0.03,-0.112c-0.021,-0.025 -0.049,-0.037 -0.084,-0.037c-0.039,-0 -0.069,0.014 -0.091,0.041c-0.022,0.028 -0.032,0.069 -0.032,0.124Z" style="fill-rule:nonzero;"/>
        </g>
        <g transform="matrix(37.5,0,0,37.5,378.734,719.243)">
            <path d="M0.188,-0.465l0.009,0.006c-0.002,0.019 -0.004,0.052 -0.005,0.101l0.037,-0.047c0.012,-0.015 0.023,-0.027 0.032,-0.035c0.009,-0.008 0.02,-0.015 0.032,-0.019c0.013,-0.005 0.026,-0.007 0.039,-0.007c0.014,-0 0.027,0.003 0.04,0.008l0.003,0.007c-0.005,0.044 -0.008,0.082 -0.008,0.115l-0.022,-0c-0.013,-0.03 -0.034,-0.045 -0.063,-0.045c-0.02,-0 -0.038,0.006 -0.053,0.019c-0.015,0.013 -0.025,0.029 -0.03,0.048c-0.005,0.02 -0.008,0.044 -0.008,0.074l0,0.054c0,0.01 0.001,0.034 0.002,0.072c0.002,0.038 0.003,0.06 0.005,0.066c0.001,0.006 0.003,0.01 0.006,0.013c0.003,0.002 0.008,0.004 0.013,0.005c0.005,0.001 0.028,0.003 0.069,0.005l0.005,0.004l-0,0.021l-0.005,0.004c-0.043,-0.003 -0.088,-0.004 -0.136,-0.004c-0.037,-0 -0.076,0.001 -0.117,0.004l-0.004,-0.004l-0,-0.021l0.004,-0.004c0.032,-0.002 0.05,-0.003 0.054,-0.004c0.004,-0.001 0.007,-0.003 0.01,-0.006c0.004,-0.003 0.006,-0.008 0.007,-0.015c0.001,-0.006 0.002,-0.027 0.004,-0.063c0.001,-0.035 0.002,-0.062 0.002,-0.08l-0,-0.097c-0,-0.013 -0.001,-0.03 -0.002,-0.053c-0.001,-0.022 -0.002,-0.036 -0.003,-0.041c-0.001,-0.005 -0.004,-0.009 -0.008,-0.012c-0.004,-0.002 -0.013,-0.003 -0.025,-0.003l-0.041,-0.001l-0.005,-0.004l0,-0.021l0.004,-0.004c0.062,-0.007 0.115,-0.019 0.157,-0.036Z" style="fill-rule:nonzero;"/>
        </g>
    </g>
    <g>
        <path d="M506.889,213.125c0,-2.729 1.009,-7.062 4.634,-7.175c-0.413,0.413 -0.6,1.046 -0.6,1.646c-0,1.642 1.308,2.392 2.354,2.392c1.196,-0 2.392,-0.825 2.392,-2.392c-0,-1.904 -1.942,-3.138 -4.146,-3.138c-2.617,0 -4.221,1.905 -5.046,4.071l-0.033,0l-0,-4.071l-6.242,0.296l-0,1.834c2.242,-0 2.542,-0 2.542,1.454l-0,11.396l-2.542,-0l-0,1.829c2.767,-0.109 2.987,-0.109 4.783,-0.109c0.934,0 3.1,0 5.079,0.109l0,-1.829l-3.175,-0l0,-6.313Z" style="fill:rgb(35,31,32);fill-rule:nonzero;"/>
        <path d="M530.369,217.325c-0,-1.821 -0,-8.621 -6.1,-8.621c-6.105,0 -6.105,6.8 -6.105,8.621c0,1.792 0,8.467 6.105,8.467c6.1,-0 6.1,-6.675 6.1,-8.467Zm-6.1,7.671c-1.046,-0 -2.742,-0.5 -3.338,-2.567c-0.4,-1.446 -0.4,-3.883 -0.4,-5.429c0,-1.671 0,-3.587 0.35,-4.933c0.621,-2.242 2.513,-2.563 3.388,-2.563c1.145,0 2.787,0.546 3.337,2.438c0.371,1.321 0.396,3.141 0.396,5.058c-0,1.592 -0,4.109 -0.421,5.504c-0.7,2.167 -2.492,2.492 -3.312,2.492Z" style="fill:rgb(35,31,32);fill-rule:nonzero;"/>
    </g>
    <g>
        <path d="M650.825,178.483c-0,-2.729 1.008,-7.063 4.633,-7.175c-0.413,0.413 -0.6,1.046 -0.6,1.646c0,1.641 1.308,2.392 2.354,2.392c1.196,-0 2.392,-0.825 2.392,-2.392c-0,-1.904 -1.942,-3.138 -4.146,-3.138c-2.617,0 -4.221,1.905 -5.046,4.071l-0.033,0l-0,-4.071l-6.242,0.296l0,1.833c2.242,0 2.542,0 2.542,1.455l-0,11.396l-2.542,-0l0,1.829c2.767,-0.109 2.988,-0.109 4.784,-0.109c0.933,0 3.1,0 5.079,0.109l-0,-1.829l-3.175,-0l-0,-6.313Z" style="fill:rgb(35,31,32);fill-rule:nonzero;"/>
        <path d="M669.546,174.812c-0,-0.75 -0.096,-0.75 -0.846,-0.75c-1.642,1.596 -4.184,1.596 -5.079,1.596l-0,0.971c0.645,-0 2.291,-0 3.783,-0.696l-0,12.575c-0,0.825 -0,1.146 -2.563,1.146l-1.07,-0l-0,0.971c1.366,-0.096 3.312,-0.096 4.704,-0.096c1.396,-0 3.337,-0 4.708,0.096l0,-0.971l-1.071,-0c-2.566,-0 -2.566,-0.321 -2.566,-1.146l-0,-13.696Z" style="fill:rgb(35,31,32);fill-rule:nonzero;"/>
    </g>
    <g>
        <path d="M651.358,255.601c0,-2.729 1.008,-7.063 4.633,-7.175c-0.412,0.412 -0.6,1.045 -0.6,1.646c0,1.641 1.309,2.391 2.355,2.391c1.195,0 2.391,-0.825 2.391,-2.391c0,-1.905 -1.941,-3.138 -4.146,-3.138c-2.616,0 -4.22,1.904 -5.045,4.071l-0.034,-0l0,-4.071l-6.241,0.296l-0,1.833c2.241,0 2.541,0 2.541,1.454l0,11.396l-2.541,0l-0,1.829c2.766,-0.108 2.987,-0.108 4.783,-0.108c0.933,0 3.1,0 5.079,0.108l0,-1.829l-3.175,0l0,-6.312Z" style="fill:rgb(35,31,32);fill-rule:nonzero;"/>
        <path d="M674.537,263.088l-0.921,0c-0.05,0.346 -0.295,1.992 -0.67,2.267c-0.175,0.15 -2.192,0.15 -2.542,0.15l-4.658,-0l3.187,-2.592c0.85,-0.675 3.067,-2.266 3.838,-3.012c0.745,-0.75 1.766,-2.021 1.766,-3.788c0,-3.112 -2.812,-4.933 -6.15,-4.933c-3.212,-0 -5.454,2.116 -5.454,4.458c0,1.271 1.071,1.421 1.346,1.421c0.621,0 1.342,-0.446 1.342,-1.346c-0,-0.546 -0.321,-1.342 -1.417,-1.342c0.571,-1.27 2.092,-2.216 3.808,-2.216c2.617,-0 4.013,1.942 4.013,3.958c-0,1.767 -1.171,3.588 -2.917,5.179l-5.9,5.404c-0.25,0.25 -0.275,0.276 -0.275,1.046l10.833,0l0.771,-4.654Z" style="fill:rgb(35,31,32);fill-rule:nonzero;"/>
    </g>
    <path d="M837.635,219.585l4.559,-4.895c0.412,-0.446 0.675,-0.709 3.662,-0.709l0,-1.833c-1.271,0.112 -2.241,0.112 -3.475,0.112c-0.671,0 -2.129,0 -3.808,-0.112l-0,1.833c0.821,0 1.008,0.15 1.267,0.408l-3.471,3.775l-3.7,-4.183l1.346,0l-0,-1.833c-2.242,0.075 -3.213,0.112 -4.484,0.112c-0.75,0 -2.204,0 -4.112,-0.112l-0,1.833l2.616,0l5.942,6.763l-5.046,5.454c-0.671,0.708 -1.979,0.708 -3.696,0.708l0,1.829c1.267,-0.108 2.242,-0.108 3.475,-0.108c0.671,0 2.13,0 3.809,0.108l-0,-1.829c-0.559,0 -1.196,-0.15 -1.196,-0.408c-0,-0.15 0.225,-0.375 0.262,-0.413l3.663,-3.925l4.146,4.746l-1.309,0l0,1.829c2.355,-0.07 3.213,-0.108 4.446,-0.108c0.859,0 2.242,0 4.146,0.108l0,-1.829l-2.612,0l-6.43,-7.321Z" style="fill:rgb(35,31,32);fill-rule:nonzero;"/>
    <path d="M522.218,229.009l10.885,3.013l-8.941,6.9l-1.944,-9.913Z" style="fill:rgb(237,28,36);"/>
    <path d="M374.843,263.055c-0,-0 118.275,-23.193 150.33,-29.478" style="fill:none;stroke:rgb(237,28,36);stroke-width:3.37px;"/>
    <path d="M798.745,214.15l9.163,6.406l-10.623,3.486l1.46,-9.892Z" style="fill:rgb(237,28,36);"/>
    <path d="M643.764,196.337c-0,-0 123.446,18.214 156.23,23.051" style="fill:none;stroke:rgb(237,28,36);stroke-width:3.33px;"/>
    <circle cx="638.527" cy="195.564" r="5.813" style="fill:rgb(35,31,32);"/>
    <circle cx="638.527" cy="236.508" r="5.813" style="fill:rgb(35,31,32);"/>
    <circle cx="538.916" cy="230.695" r="5.813" style="fill:rgb(35,31,32);"/>
    <circle cx="813.709" cy="220.938" r="5.813" style="fill:rgb(35,31,32);"/>
    <path d="M638.562,372.585c97.765,-0 177.02,-79.255 177.02,-177.021c0,-97.766 -79.255,-177.02 -177.02,-177.02" style="fill:none;stroke:rgb(237,28,36);stroke-width:2.24px;stroke-dasharray:2.24,6.73,0,0;"/>
    <path d="M654.156,240.182l-10.392,-4.123l9.534,-5.84l0.858,9.963Z" style="fill:rgb(237,28,36);"/>
    <path d="M813.709,221.411c-0,0 -128.373,11.065 -161.975,13.961" style="fill:none;stroke:rgb(237,28,36);stroke-width:3.33px;"/>
    <path d="M322.323,258.055l10,5l-10,5l0,-10Z" style="fill:rgb(237,28,36);"/>
    <path d="M185.195,263.055l139.128,-0" style="fill:none;stroke:rgb(237,28,36);stroke-width:3.33px;"/>
    <path d="M253.214,314.328l-5,10l-5,-10l10,-0Z" style="fill:rgb(237,28,36);"/>
    <path d="M332.323,263.055l-84.109,-0l0,53.273" style="fill:none;stroke:rgb(237,28,36);stroke-width:3.33px;"/>
    <defs>
        <radialGradient id="_Radial1" cx="0" cy="0" r="1" gradientUnits="userSpaceOnUse" gradientTransform="matrix(5.15557,26.4424,-144.71,28.2147,541.984,230.28)"><stop offset="0" style="stop-color:rgb(237,28,36);stop-opacity:1"/><stop offset="0.46" style="stop-color:rgb(242,92,98);stop-opacity:1"/><stop offset="1" style="stop-color:white;stop-opacity:1"/></radialGradient>
    </defs>
</svg>
