<?xml version="1.0" encoding="UTF-8" standalone="no"?>
<!DOCTYPE svg PUBLIC "-//W3C//DTD SVG 1.1//EN" "http://www.w3.org/Graphics/SVG/1.1/DTD/svg11.dtd">
<svg width="100%" height="100%" viewBox="0 0 1418 556" version="1.1" xmlns="http://www.w3.org/2000/svg" xmlns:xlink="http://www.w3.org/1999/xlink" xml:space="preserve" xmlns:serif="http://www.serif.com/" style="fill-rule:evenodd;clip-rule:evenodd;stroke-linecap:round;stroke-linejoin:round;stroke-miterlimit:1.5;">
    <g id="BG">
        <path d="M172.262,58.243l587.502,-0" style="fill:none;stroke:black;stroke-width:4.12px;"/>
        <path d="M152.378,297.943l-98.565,86.473l27.484,31.327l98.565,-86.473l-27.484,-31.327Z" style="fill:none;stroke:black;stroke-width:4.12px;"/>
        <path d="M305.655,355.547l64.419,64.418l57.765,-57.765l-64.418,-64.419l-57.766,57.766Z" style="fill:none;stroke:black;stroke-width:4.12px;"/>
        <path d="M253.415,312.776l-0,-135.615" style="fill:none;stroke:black;stroke-width:4.12px;"/>
        <rect x="575.181" y="271.162" width="178.243" height="148.319" style="fill:none;stroke:black;stroke-width:4.12px;"/>
        <path d="M30.373,448.912l0.146,-0.128c3.027,0.098 4.773,0.146 5.237,0.146c0.415,0 2.167,-0.048 5.255,-0.146l0.147,0.128l-0,0.916l-0.147,0.128c-0.842,0.024 -1.492,0.061 -1.95,0.11c-0.458,0.048 -0.79,0.14 -0.998,0.274c-0.207,0.135 -0.345,0.449 -0.412,0.943c-0.067,0.495 -0.101,1.181 -0.101,2.06l-0.036,4.212l-0,5.822c-0,1.917 0.039,3.324 0.119,4.221c0.079,0.897 0.25,1.654 0.512,2.271c0.263,0.616 0.663,1.147 1.2,1.593c0.537,0.445 1.306,0.808 2.307,1.089c1.001,0.281 2.136,0.421 3.406,0.421c1.342,0 2.597,-0.186 3.762,-0.558c1.166,-0.373 2.054,-0.913 2.665,-1.621c0.61,-0.708 1.01,-1.639 1.199,-2.792c0.189,-1.154 0.284,-2.756 0.284,-4.807l-0,-5.639c-0,-0.952 -0.015,-2.262 -0.046,-3.928c-0.03,-1.666 -0.104,-2.624 -0.22,-2.875c-0.116,-0.25 -0.329,-0.439 -0.641,-0.567c-0.311,-0.129 -1.174,-0.205 -2.591,-0.229l-0.146,-0.147l0,-0.86l0.146,-0.165c1.807,0.098 3.254,0.146 4.34,0.146c0.928,0 2.368,-0.048 4.321,-0.146l0.165,0.146l0,0.879l-0.165,0.147c-1.147,0.024 -1.895,0.07 -2.243,0.137c-0.348,0.067 -0.592,0.168 -0.732,0.302c-0.14,0.135 -0.244,0.342 -0.311,0.623c-0.067,0.281 -0.113,1.086 -0.138,2.417l-0.055,4.12l0,5.566c0,2.222 -0.085,3.973 -0.256,5.255c-0.171,1.282 -0.552,2.335 -1.144,3.159c-0.592,0.824 -1.294,1.513 -2.106,2.069c-0.812,0.555 -1.853,0.983 -3.122,1.282c-1.27,0.299 -2.588,0.448 -3.955,0.448c-1.709,0 -3.22,-0.189 -4.532,-0.567c-1.312,-0.379 -2.347,-0.879 -3.104,-1.502c-0.756,-0.622 -1.3,-1.279 -1.629,-1.968c-0.33,-0.69 -0.543,-1.502 -0.641,-2.436c-0.098,-0.933 -0.147,-2.359 -0.147,-4.275l0,-7.031l-0.036,-3.571c-0.012,-1.391 -0.046,-2.289 -0.101,-2.692c-0.055,-0.402 -0.14,-0.671 -0.256,-0.805c-0.116,-0.134 -0.339,-0.244 -0.669,-0.33c-0.329,-0.085 -1.141,-0.152 -2.435,-0.201l-0.146,-0.128l-0,-0.916Z" style="fill-rule:nonzero;"/>
        <path d="M60.072,448.784c3.076,0.098 5.036,0.146 5.878,0.146c1.147,0 2.435,-0.03 3.864,-0.091c1.513,-0.049 2.447,-0.073 2.801,-0.073c1.709,-0 3.122,0.177 4.239,0.531c1.117,0.354 2.042,1.001 2.774,1.941c0.732,0.939 1.099,2.075 1.099,3.405c-0,1.099 -0.257,2.161 -0.769,3.186c-0.513,1.026 -1.227,1.899 -2.143,2.619c-0.915,0.72 -1.843,1.236 -2.783,1.547c-0.94,0.311 -1.916,0.467 -2.93,0.467c-0.757,-0 -1.599,-0.086 -2.527,-0.256l-0.311,-1.117l0.165,-0.184c0.916,0.208 1.66,0.312 2.234,0.312c1.599,-0 2.884,-0.528 3.854,-1.584c0.971,-1.056 1.456,-2.408 1.456,-4.056c-0,-1.66 -0.504,-2.984 -1.511,-3.973c-1.007,-0.989 -2.53,-1.483 -4.568,-1.483c-1.111,-0 -2.332,0.207 -3.662,0.622c-0.11,0.94 -0.165,3.211 -0.165,6.812l-0,8.477l0.018,3.571c0.012,1.379 0.049,2.271 0.11,2.673c0.061,0.403 0.15,0.672 0.266,0.806c0.116,0.134 0.338,0.247 0.668,0.339c0.33,0.091 1.141,0.161 2.435,0.21l0.147,0.11l-0,0.916l-0.147,0.146c-3.113,-0.097 -4.864,-0.146 -5.255,-0.146c-0.415,-0 -2.161,0.049 -5.237,0.146l-0.146,-0.146l-0,-0.916l0.146,-0.11c1.136,-0.049 1.892,-0.11 2.271,-0.183c0.378,-0.073 0.632,-0.168 0.76,-0.284c0.128,-0.116 0.232,-0.363 0.311,-0.741c0.079,-0.379 0.125,-1.221 0.137,-2.527l0.019,-3.864l-0,-8.477l-0.037,-3.571c-0.012,-1.391 -0.046,-2.289 -0.101,-2.692c-0.055,-0.402 -0.14,-0.671 -0.256,-0.805c-0.116,-0.134 -0.339,-0.244 -0.668,-0.33c-0.33,-0.085 -1.142,-0.152 -2.436,-0.201l-0.146,-0.128l-0,-0.916l0.146,-0.128Z" style="fill-rule:nonzero;"/>
        <path d="M97.865,447.539l0.348,0.22c-0.134,1.403 -0.201,4.217 -0.201,8.441l-0,11.48c-0,0.269 0.024,1.133 0.073,2.591c0.049,1.459 0.101,2.311 0.156,2.555c0.055,0.244 0.137,0.421 0.247,0.531c0.11,0.11 0.244,0.18 0.403,0.21c0.158,0.031 0.818,0.083 1.977,0.156l0.165,0.146l-0,0.769l-0.146,0.165c-1.526,-0.097 -2.997,-0.146 -4.413,-0.146c-1.404,-0 -2.869,0.049 -4.395,0.146l-0.165,-0.165l0,-0.769l0.165,-0.146c1.184,-0.073 1.853,-0.128 2.005,-0.165c0.153,-0.037 0.287,-0.113 0.403,-0.229c0.116,-0.116 0.195,-0.293 0.238,-0.531c0.043,-0.238 0.092,-1.025 0.146,-2.362c0.055,-1.337 0.083,-2.347 0.083,-3.03l-0,-9.485l-0.073,-3.882c-0.037,-1.355 -0.077,-2.295 -0.119,-2.82c-0.043,-0.525 -0.101,-0.836 -0.174,-0.934c-0.074,-0.097 -0.202,-0.171 -0.385,-0.219c-0.183,-0.049 -0.921,-0.074 -2.215,-0.074l-0.165,-0.164l-0,-0.769l0.146,-0.165c2.332,-0.269 4.297,-0.72 5.896,-1.355Z" style="fill-rule:nonzero;"/>
        <path d="M105.812,462.242l-0.714,-0.183l-0.147,-0.183l0,-2.271c2.173,-1.611 4.285,-2.417 6.336,-2.417c1.404,0 2.569,0.263 3.497,0.788c0.928,0.525 1.599,1.181 2.014,1.968c0.415,0.788 0.623,1.706 0.623,2.756l-0.092,3.68l0,5.457c0,0.745 0.052,1.196 0.156,1.355c0.104,0.159 0.223,0.265 0.357,0.32c0.134,0.055 0.385,0.101 0.751,0.138l1.044,0.091l0.146,0.165l-0,0.732l-0.146,0.147c-0.892,-0.073 -1.722,-0.11 -2.491,-0.11c-0.732,0 -1.611,0.037 -2.636,0.11l-0.275,-0.256l0.073,-2.948l-3.992,3.112c-0.671,0.281 -1.403,0.421 -2.197,0.421c-0.976,0 -1.816,-0.177 -2.518,-0.531c-0.701,-0.354 -1.239,-0.848 -1.611,-1.483c-0.372,-0.634 -0.558,-1.403 -0.558,-2.307c-0,-1.794 0.561,-3.195 1.684,-4.202c1.123,-1.007 4.187,-1.865 9.192,-2.573c0,-1.806 -0.403,-3.079 -1.208,-3.817c-0.806,-0.739 -1.886,-1.108 -3.241,-1.108c-0.708,-0 -1.352,0.104 -1.932,0.311c-0.58,0.208 -0.913,0.375 -0.998,0.504c-0.085,0.128 -0.415,0.875 -0.989,2.243l-0.128,0.091Zm8.496,2.893c-3.418,0.574 -5.548,1.19 -6.39,1.85c-0.843,0.659 -1.264,1.678 -1.264,3.057c0,1.905 0.946,2.857 2.838,2.857c1.624,-0 3.229,-0.94 4.816,-2.82l0,-4.944Z" style="fill-rule:nonzero;"/>
        <path d="M122.53,469.273l0.787,0l0.165,0.165c0.024,1.026 0.085,1.905 0.183,2.637c0.378,0.574 1.031,1.041 1.959,1.401c0.928,0.36 1.843,0.54 2.747,0.54c1.294,-0 2.328,-0.348 3.103,-1.044c0.775,-0.696 1.163,-1.526 1.163,-2.49c0,-0.525 -0.14,-0.98 -0.421,-1.364c-0.281,-0.385 -0.705,-0.702 -1.273,-0.952c-0.567,-0.251 -1.584,-0.547 -3.048,-0.888c-1.258,-0.293 -2.137,-0.522 -2.637,-0.687c-0.501,-0.165 -0.983,-0.443 -1.447,-0.833c-0.464,-0.391 -0.818,-0.87 -1.062,-1.438c-0.244,-0.567 -0.366,-1.193 -0.366,-1.876c0,-1.636 0.65,-2.945 1.95,-3.928c1.3,-0.983 2.921,-1.474 4.862,-1.474c0.817,-0 1.709,0.113 2.673,0.339c0.964,0.226 1.697,0.442 2.197,0.65l0.165,0.256c-0.098,0.488 -0.159,1.77 -0.183,3.845l-0.165,0.165l-0.732,0l-0.165,-0.165c-0.049,-0.744 -0.116,-1.266 -0.202,-1.565c-0.085,-0.299 -0.305,-0.623 -0.659,-0.971c-0.354,-0.348 -0.854,-0.641 -1.501,-0.879c-0.647,-0.238 -1.331,-0.357 -2.051,-0.357c-0.745,0 -1.37,0.11 -1.877,0.33c-0.506,0.22 -0.915,0.552 -1.227,0.998c-0.311,0.445 -0.466,0.986 -0.466,1.62c-0,0.464 0.094,0.879 0.283,1.245c0.19,0.367 0.479,0.663 0.87,0.889c0.391,0.225 0.8,0.387 1.227,0.485l1.996,0.512c1.709,0.415 2.932,0.776 3.671,1.081c0.739,0.305 1.309,0.766 1.712,1.382c0.403,0.617 0.604,1.364 0.604,2.243c0,1.685 -0.696,3.131 -2.087,4.34c-1.392,1.208 -3.18,1.813 -5.365,1.813c-0.769,-0 -1.724,-0.086 -2.866,-0.257c-1.141,-0.171 -2.115,-0.36 -2.92,-0.567l-0.092,-0.238l0.183,-1.227c0.061,-0.379 0.098,-0.76 0.11,-1.145c0.012,-0.384 0.025,-1.193 0.037,-2.426l0.165,-0.165Z" style="fill-rule:nonzero;"/>
        <path d="M152.76,471.965l-0.586,1.318c-1.269,0.818 -2.401,1.349 -3.396,1.593c-0.995,0.245 -1.883,0.367 -2.664,0.367c-1.465,-0 -2.854,-0.287 -4.166,-0.861c-1.312,-0.574 -2.38,-1.544 -3.204,-2.911c-0.824,-1.368 -1.236,-3.015 -1.236,-4.944c-0,-1.282 0.158,-2.439 0.476,-3.47c0.317,-1.032 0.65,-1.798 0.998,-2.298c0.348,-0.5 0.936,-1.056 1.767,-1.666c0.83,-0.611 1.709,-1.099 2.636,-1.465c0.928,-0.366 1.929,-0.549 3.003,-0.549c1.465,-0 2.756,0.344 3.873,1.034c1.117,0.69 1.901,1.572 2.353,2.646c0.451,1.074 0.677,2.216 0.677,3.424c0,0.379 -0.018,0.745 -0.055,1.099l-0.201,0.201c-0.83,0.183 -1.947,0.305 -3.351,0.366c-1.404,0.061 -2.331,0.092 -2.783,0.092l-5.878,-0c0.025,2.527 0.659,4.388 1.905,5.585c1.245,1.196 2.771,1.794 4.577,1.794c0.855,0 1.676,-0.146 2.463,-0.439c0.787,-0.293 1.62,-0.702 2.499,-1.227l0.293,0.311Zm-11.737,-7.489c0.22,0.037 1.065,0.079 2.536,0.128c1.471,0.049 2.561,0.073 3.269,0.073c1.696,0 2.728,-0.03 3.094,-0.091c0.012,-0.293 0.018,-0.519 0.018,-0.678c0,-1.892 -0.384,-3.299 -1.153,-4.22c-0.769,-0.922 -1.819,-1.383 -3.15,-1.383c-1.452,0 -2.584,0.519 -3.396,1.557c-0.812,1.037 -1.218,2.575 -1.218,4.614Z" style="fill-rule:nonzero;"/>
        <path d="M161.568,457.207l0.348,0.238c-0.074,0.708 -0.129,1.965 -0.165,3.772l1.373,-1.74c0.452,-0.573 0.852,-1.016 1.199,-1.327c0.348,-0.312 0.754,-0.553 1.218,-0.724c0.464,-0.17 0.94,-0.256 1.428,-0.256c0.537,0 1.044,0.11 1.52,0.33l0.128,0.256c-0.195,1.624 -0.305,3.052 -0.329,4.285l-0.824,-0c-0.489,-1.123 -1.276,-1.685 -2.362,-1.685c-0.757,0 -1.416,0.241 -1.978,0.723c-0.561,0.483 -0.937,1.087 -1.126,1.813c-0.189,0.727 -0.284,1.645 -0.284,2.756l0,2.032c0,0.367 0.025,1.264 0.073,2.692c0.049,1.428 0.101,2.252 0.156,2.472c0.055,0.22 0.14,0.381 0.256,0.485c0.116,0.104 0.269,0.174 0.458,0.211c0.189,0.036 1.059,0.097 2.609,0.183l0.165,0.146l0,0.769l-0.165,0.165c-1.623,-0.097 -3.32,-0.146 -5.09,-0.146c-1.404,-0 -2.869,0.049 -4.394,0.146l-0.165,-0.165l-0,-0.769l0.165,-0.146c1.184,-0.073 1.852,-0.128 2.005,-0.165c0.152,-0.037 0.286,-0.113 0.402,-0.229c0.116,-0.116 0.196,-0.293 0.238,-0.531c0.043,-0.238 0.092,-1.025 0.147,-2.362c0.055,-1.337 0.082,-2.347 0.082,-3.03l0,-3.607c0,-0.489 -0.024,-1.154 -0.073,-1.996c-0.049,-0.843 -0.088,-1.361 -0.119,-1.557c-0.03,-0.195 -0.125,-0.338 -0.284,-0.43c-0.158,-0.092 -0.476,-0.137 -0.952,-0.137l-1.538,-0.019l-0.165,-0.146l0,-0.787l0.147,-0.147c2.331,-0.281 4.297,-0.738 5.896,-1.373Z" style="fill-rule:nonzero;"/>
        <g transform="matrix(1,0,0,1,30.2828,31.8004)">
            <g transform="matrix(37.5,0,0,37.5,104.094,130.296)">
                <path d="M0.018,-0.659l-0.004,-0.003l-0,-0.025l0.004,-0.003c0.055,0.003 0.098,0.004 0.128,0.004c0.012,-0 0.057,-0.001 0.136,-0.004c0.025,-0.001 0.044,-0.001 0.055,-0.001c0.044,0 0.079,0.004 0.104,0.013c0.026,0.009 0.047,0.025 0.062,0.047c0.016,0.022 0.024,0.048 0.024,0.076c-0,0.036 -0.013,0.069 -0.039,0.1c-0.026,0.031 -0.069,0.053 -0.127,0.067c0.035,0.003 0.064,0.008 0.087,0.014c0.023,0.006 0.042,0.016 0.059,0.029c0.016,0.012 0.03,0.029 0.039,0.05c0.01,0.02 0.015,0.044 0.015,0.071c-0,0.021 -0.004,0.043 -0.01,0.064c-0.007,0.022 -0.019,0.044 -0.036,0.065c-0.018,0.022 -0.039,0.04 -0.063,0.055c-0.025,0.016 -0.05,0.027 -0.076,0.034c-0.026,0.006 -0.058,0.01 -0.097,0.01c-0.008,-0 -0.031,-0.001 -0.07,-0.003c-0.043,-0.001 -0.067,-0.001 -0.07,-0.001c-0.022,0 -0.05,0.001 -0.082,0.004l-0.004,-0.004l0,-0.016l0.004,-0.005c0.019,-0.008 0.03,-0.014 0.033,-0.018c0.003,-0.003 0.005,-0.032 0.007,-0.086c0.002,-0.054 0.003,-0.096 0.003,-0.125l-0,-0.179l-0.001,-0.111c0,-0.024 -0,-0.043 -0.001,-0.058c-0.001,-0.016 -0.001,-0.026 -0.003,-0.033c-0.001,-0.006 -0.003,-0.011 -0.005,-0.014c-0.003,-0.002 -0.006,-0.004 -0.011,-0.006c-0.005,-0.002 -0.013,-0.003 -0.024,-0.005l-0.037,-0.003Zm0.175,0.257c0.016,0.001 0.035,0.002 0.055,0.002c0.067,-0 0.114,-0.012 0.141,-0.037c0.026,-0.024 0.039,-0.057 0.039,-0.099c0,-0.024 -0.005,-0.045 -0.015,-0.062c-0.01,-0.017 -0.026,-0.03 -0.048,-0.039c-0.021,-0.009 -0.051,-0.014 -0.088,-0.014c-0.03,0 -0.057,0.003 -0.08,0.007c-0.003,0.03 -0.004,0.081 -0.004,0.154l-0,0.088Zm0.001,0.356c0.025,0.005 0.051,0.008 0.077,0.008c0.047,0 0.083,-0.007 0.109,-0.022c0.027,-0.015 0.046,-0.036 0.059,-0.062c0.012,-0.027 0.019,-0.056 0.019,-0.087c-0,-0.047 -0.014,-0.084 -0.04,-0.113c-0.027,-0.028 -0.084,-0.042 -0.172,-0.042c-0.015,0 -0.033,0.001 -0.053,0.002l-0,0.167l0.001,0.149Z" style="fill-rule:nonzero;"/>
            </g>
            <g transform="matrix(37.5,0,0,37.5,127.001,130.296)">
                <path d="M0.432,-0.072l-0.016,0.035c-0.034,0.022 -0.064,0.036 -0.091,0.043c-0.026,0.006 -0.05,0.01 -0.071,0.01c-0.039,-0 -0.076,-0.008 -0.111,-0.023c-0.035,-0.016 -0.063,-0.042 -0.085,-0.078c-0.022,-0.036 -0.033,-0.08 -0.033,-0.132c-0,-0.034 0.004,-0.065 0.013,-0.092c0.008,-0.028 0.017,-0.048 0.026,-0.062c0.009,-0.013 0.025,-0.028 0.047,-0.044c0.022,-0.016 0.046,-0.029 0.071,-0.039c0.024,-0.01 0.051,-0.015 0.08,-0.015c0.039,0 0.073,0.009 0.103,0.028c0.03,0.018 0.051,0.042 0.063,0.07c0.012,0.029 0.018,0.059 0.018,0.092c-0,0.01 -0.001,0.02 -0.002,0.029l-0.005,0.005c-0.022,0.005 -0.052,0.009 -0.089,0.01c-0.038,0.002 -0.063,0.003 -0.075,0.003l-0.156,-0c0,0.067 0.017,0.117 0.05,0.149c0.034,0.031 0.074,0.047 0.123,0.047c0.022,0 0.044,-0.004 0.065,-0.011c0.021,-0.008 0.043,-0.019 0.067,-0.033l0.008,0.008Zm-0.313,-0.199c0.006,0 0.028,0.002 0.067,0.003c0.04,0.001 0.069,0.002 0.087,0.002c0.046,-0 0.073,-0.001 0.083,-0.003c0,-0.007 0,-0.013 0,-0.018c0,-0.05 -0.01,-0.088 -0.03,-0.112c-0.021,-0.025 -0.049,-0.037 -0.084,-0.037c-0.039,-0 -0.069,0.014 -0.091,0.041c-0.022,0.028 -0.032,0.069 -0.032,0.124Z" style="fill-rule:nonzero;"/>
            </g>
            <g transform="matrix(37.5,0,0,37.5,144.963,130.296)">
                <path d="M0.104,-0.331l-0.02,-0.005l-0.003,-0.005l-0,-0.06c0.058,-0.043 0.114,-0.065 0.169,-0.065c0.037,0 0.068,0.007 0.093,0.021c0.025,0.014 0.042,0.032 0.053,0.053c0.012,0.021 0.017,0.045 0.017,0.073l-0.002,0.098l-0,0.146c-0,0.02 0.001,0.032 0.004,0.036c0.003,0.004 0.006,0.007 0.009,0.008c0.004,0.002 0.011,0.003 0.02,0.004l0.028,0.003l0.004,0.004l0,0.02l-0.004,0.003c-0.024,-0.002 -0.046,-0.003 -0.066,-0.003c-0.02,0 -0.043,0.001 -0.071,0.003l-0.007,-0.006l0.002,-0.079l-0.106,0.083c-0.018,0.007 -0.038,0.011 -0.059,0.011c-0.026,0 -0.048,-0.005 -0.067,-0.014c-0.019,-0.009 -0.033,-0.023 -0.043,-0.04c-0.01,-0.016 -0.015,-0.037 -0.015,-0.061c0,-0.048 0.015,-0.085 0.045,-0.112c0.03,-0.027 0.112,-0.05 0.245,-0.069c0,-0.048 -0.011,-0.082 -0.032,-0.101c-0.022,-0.02 -0.05,-0.03 -0.087,-0.03c-0.018,-0 -0.036,0.003 -0.051,0.008c-0.016,0.006 -0.024,0.01 -0.027,0.014c-0.002,0.003 -0.011,0.023 -0.026,0.06l-0.003,0.002Zm0.226,0.077c-0.091,0.015 -0.148,0.032 -0.17,0.049c-0.023,0.018 -0.034,0.045 -0.034,0.082c-0,0.051 0.025,0.076 0.076,0.076c0.043,0 0.086,-0.025 0.128,-0.075l0,-0.132Z" style="fill-rule:nonzero;"/>
            </g>
            <g transform="matrix(37.5,0,0,37.5,163.713,130.296)">
                <path d="M0.18,-0.465l0.009,0.006c-0.002,0.022 -0.003,0.047 -0.004,0.077l0.046,-0.042c0.013,-0.012 0.022,-0.02 0.026,-0.024c0.005,-0.003 0.014,-0.007 0.03,-0.011c0.016,-0.005 0.032,-0.007 0.049,-0.007c0.033,-0 0.061,0.008 0.086,0.024c0.024,0.016 0.042,0.038 0.054,0.067c0.044,-0.042 0.07,-0.065 0.077,-0.07c0.007,-0.004 0.019,-0.009 0.035,-0.014c0.016,-0.004 0.032,-0.007 0.048,-0.007c0.025,0 0.049,0.006 0.071,0.017c0.021,0.011 0.038,0.025 0.051,0.043c0.013,0.018 0.02,0.038 0.022,0.058c0.002,0.021 0.003,0.05 0.003,0.086l0,0.052c0,0.005 0.001,0.046 0.003,0.121c0.001,0.031 0.004,0.049 0.01,0.055c0.007,0.006 0.027,0.009 0.06,0.009l0.004,0.004l0,0.021l-0.004,0.004c-0.041,-0.003 -0.069,-0.004 -0.084,-0.004c-0.008,0 -0.031,0.001 -0.07,0.004l-0.007,-0.005c0.005,-0.043 0.007,-0.098 0.007,-0.166l-0,-0.059c-0,-0.051 -0.003,-0.088 -0.008,-0.108c-0.005,-0.021 -0.016,-0.038 -0.034,-0.051c-0.018,-0.013 -0.039,-0.02 -0.064,-0.02c-0.017,0 -0.034,0.004 -0.049,0.011c-0.015,0.007 -0.029,0.017 -0.041,0.031c-0.013,0.014 -0.019,0.027 -0.021,0.039c-0.001,0.011 -0.002,0.033 -0.002,0.065l0,0.061c0,0.015 0.001,0.041 0.002,0.081c0.002,0.039 0.003,0.062 0.005,0.069c0.001,0.006 0.003,0.011 0.006,0.014c0.003,0.002 0.007,0.004 0.011,0.005c0.004,0.001 0.022,0.002 0.053,0.004l0.004,0.004l-0,0.021l-0.004,0.004c-0.041,-0.003 -0.08,-0.004 -0.118,-0.004c-0.034,-0 -0.074,0.001 -0.117,0.004l-0.004,-0.004l-0,-0.021l0.004,-0.004c0.032,-0.002 0.05,-0.003 0.054,-0.004c0.004,-0.001 0.007,-0.003 0.01,-0.006c0.003,-0.003 0.006,-0.008 0.007,-0.015c0.001,-0.006 0.002,-0.027 0.004,-0.063c0.001,-0.035 0.002,-0.062 0.002,-0.08l-0,-0.056c-0,-0.037 -0.003,-0.065 -0.008,-0.085c-0.005,-0.02 -0.016,-0.037 -0.032,-0.05c-0.017,-0.014 -0.038,-0.021 -0.063,-0.021c-0.019,0 -0.037,0.004 -0.053,0.012c-0.016,0.007 -0.029,0.017 -0.04,0.028c-0.01,0.011 -0.016,0.022 -0.019,0.032c-0.002,0.009 -0.003,0.03 -0.003,0.063l-0,0.072c-0,0.015 0,0.041 0.002,0.081c0.001,0.039 0.002,0.062 0.004,0.069c0.001,0.006 0.003,0.011 0.007,0.014c0.003,0.002 0.006,0.004 0.01,0.005c0.004,0.001 0.022,0.002 0.053,0.004l0.004,0.004l0,0.021l-0.004,0.004c-0.04,-0.003 -0.08,-0.004 -0.117,-0.004c-0.038,-0 -0.077,0.001 -0.118,0.004l-0.004,-0.004l-0,-0.021l0.004,-0.004c0.032,-0.002 0.05,-0.003 0.054,-0.004c0.004,-0.001 0.008,-0.003 0.011,-0.006c0.003,-0.003 0.005,-0.008 0.006,-0.015c0.001,-0.006 0.002,-0.027 0.004,-0.063c0.001,-0.035 0.002,-0.062 0.002,-0.08l0,-0.097c0,-0.013 -0.001,-0.03 -0.002,-0.053c-0.001,-0.022 -0.002,-0.036 -0.003,-0.041c-0.001,-0.005 -0.003,-0.009 -0.008,-0.012c-0.004,-0.002 -0.012,-0.003 -0.025,-0.003l-0.041,-0.001l-0.004,-0.004l-0,-0.021l0.003,-0.004c0.063,-0.007 0.115,-0.019 0.158,-0.036Z" style="fill-rule:nonzero;"/>
            </g>
            <g transform="matrix(37.5,0,0,37.5,92.284,180.284)">
                <path d="M0.049,-0.144l0.021,0l0.005,0.005c0,0.027 0.002,0.051 0.005,0.07c0.01,0.015 0.027,0.028 0.052,0.038c0.025,0.009 0.049,0.014 0.073,0.014c0.035,-0 0.062,-0.009 0.083,-0.028c0.021,-0.018 0.031,-0.041 0.031,-0.066c-0,-0.014 -0.004,-0.026 -0.011,-0.037c-0.008,-0.01 -0.019,-0.018 -0.034,-0.025c-0.015,-0.007 -0.043,-0.015 -0.082,-0.024c-0.033,-0.008 -0.057,-0.014 -0.07,-0.018c-0.013,-0.004 -0.026,-0.012 -0.039,-0.022c-0.012,-0.011 -0.021,-0.023 -0.028,-0.039c-0.006,-0.015 -0.01,-0.031 -0.01,-0.05c0,-0.043 0.018,-0.078 0.052,-0.104c0.035,-0.027 0.078,-0.04 0.13,-0.04c0.022,0 0.046,0.003 0.071,0.009c0.026,0.006 0.046,0.012 0.059,0.018l0.004,0.006c-0.002,0.013 -0.004,0.048 -0.005,0.103l-0.004,0.004l-0.019,0l-0.005,-0.004c-0.001,-0.02 -0.003,-0.034 -0.005,-0.042c-0.003,-0.008 -0.008,-0.016 -0.018,-0.026c-0.009,-0.009 -0.023,-0.017 -0.04,-0.023c-0.017,-0.006 -0.035,-0.01 -0.055,-0.01c-0.019,0 -0.036,0.003 -0.05,0.009c-0.013,0.006 -0.024,0.015 -0.032,0.027c-0.009,0.012 -0.013,0.026 -0.013,0.043c0,0.012 0.003,0.023 0.008,0.033c0.005,0.01 0.013,0.018 0.023,0.024c0.01,0.006 0.021,0.01 0.033,0.013l0.053,0.014c0.046,0.011 0.078,0.02 0.098,0.028c0.02,0.008 0.035,0.021 0.045,0.037c0.011,0.017 0.017,0.037 0.017,0.06c-0,0.045 -0.019,0.084 -0.056,0.116c-0.037,0.032 -0.085,0.048 -0.143,0.048c-0.021,0 -0.046,-0.002 -0.077,-0.007c-0.03,-0.004 -0.056,-0.009 -0.077,-0.015l-0.003,-0.006l0.005,-0.033c0.002,-0.01 0.003,-0.02 0.003,-0.03c0,-0.011 0.001,-0.032 0.001,-0.065l0.004,-0.005Z" style="fill-rule:nonzero;"/>
            </g>
            <g transform="matrix(37.5,0,0,37.5,108.178,180.284)">
                <path d="M0.181,-0.471l0.009,0.006c-0.003,0.037 -0.005,0.07 -0.005,0.098c0.044,-0.04 0.075,-0.067 0.092,-0.08c0.018,-0.013 0.048,-0.019 0.09,-0.019c0.027,-0 0.051,0.003 0.073,0.011c0.022,0.007 0.042,0.019 0.06,0.036c0.019,0.017 0.034,0.038 0.044,0.063c0.011,0.025 0.017,0.054 0.017,0.087c-0,0.024 -0.004,0.048 -0.012,0.072c-0.007,0.024 -0.017,0.046 -0.029,0.067c-0.012,0.02 -0.022,0.034 -0.03,0.04c-0.007,0.007 -0.022,0.017 -0.045,0.03c-0.02,0.013 -0.041,0.026 -0.061,0.04c-0.014,0.011 -0.023,0.017 -0.029,0.02c-0.006,0.003 -0.015,0.006 -0.028,0.009c-0.013,0.003 -0.027,0.004 -0.041,0.004c-0.034,0 -0.068,-0.008 -0.101,-0.026l-0,0.104c-0,0.007 0,0.031 0.002,0.069c0.001,0.039 0.002,0.062 0.004,0.069c0.001,0.006 0.003,0.011 0.006,0.014c0.003,0.003 0.007,0.004 0.011,0.005c0.004,0.001 0.022,0.002 0.053,0.004l0.004,0.004l0,0.021l-0.004,0.004c-0.04,-0.002 -0.08,-0.004 -0.117,-0.004c-0.037,0 -0.076,0.002 -0.117,0.004l-0.005,-0.004l0,-0.021l0.005,-0.004c0.031,-0.002 0.049,-0.003 0.053,-0.004c0.004,-0.001 0.008,-0.003 0.011,-0.006c0.003,-0.003 0.005,-0.008 0.006,-0.015c0.002,-0.007 0.003,-0.029 0.004,-0.065c0.002,-0.037 0.003,-0.065 0.003,-0.083l-0,-0.374c-0,-0.017 -0.001,-0.037 -0.003,-0.059c-0.001,-0.023 -0.002,-0.035 -0.003,-0.039c-0.001,-0.004 -0.004,-0.007 -0.007,-0.009c-0.004,-0.002 -0.013,-0.003 -0.026,-0.003l-0.041,-0.001l-0.004,-0.004l0,-0.021l0.004,-0.004c0.062,-0.007 0.114,-0.019 0.157,-0.036Zm0.004,0.374c0.015,0.016 0.033,0.029 0.055,0.04c0.022,0.011 0.047,0.017 0.073,0.017c0.032,-0 0.06,-0.008 0.084,-0.024c0.024,-0.016 0.043,-0.039 0.057,-0.07c0.013,-0.031 0.02,-0.065 0.02,-0.102c-0,-0.031 -0.006,-0.059 -0.018,-0.085c-0.012,-0.026 -0.03,-0.046 -0.055,-0.061c-0.025,-0.015 -0.052,-0.023 -0.08,-0.023c-0.017,0 -0.034,0.003 -0.05,0.009c-0.016,0.006 -0.031,0.015 -0.046,0.027c-0.014,0.012 -0.024,0.023 -0.03,0.033c-0.006,0.011 -0.01,0.02 -0.01,0.027c-0,0.007 -0,0.014 -0,0.023l-0,0.189Z" style="fill-rule:nonzero;"/>
            </g>
            <g transform="matrix(37.5,0,0,37.5,130.718,180.284)">
                <path d="M0.183,-0.723l0.009,0.006c-0.004,0.037 -0.005,0.112 -0.005,0.225l-0,0.306c-0,0.007 0,0.03 0.001,0.069c0.002,0.039 0.003,0.062 0.005,0.068c0.001,0.007 0.003,0.011 0.006,0.014c0.003,0.003 0.007,0.005 0.011,0.006c0.004,0.001 0.022,0.002 0.053,0.004l0.004,0.004l0,0.021l-0.004,0.004c-0.041,-0.003 -0.08,-0.004 -0.117,-0.004c-0.038,-0 -0.077,0.001 -0.118,0.004l-0.004,-0.004l-0,-0.021l0.004,-0.004c0.032,-0.002 0.05,-0.003 0.054,-0.004c0.004,-0.001 0.007,-0.003 0.011,-0.006c0.003,-0.003 0.005,-0.008 0.006,-0.015c0.001,-0.006 0.002,-0.027 0.004,-0.063c0.001,-0.035 0.002,-0.062 0.002,-0.08l-0,-0.253l-0.002,-0.104c-0.001,-0.036 -0.002,-0.061 -0.003,-0.075c-0.001,-0.014 -0.003,-0.022 -0.005,-0.025c-0.002,-0.003 -0.005,-0.004 -0.01,-0.006c-0.005,-0.001 -0.025,-0.002 -0.059,-0.002l-0.005,-0.004l0,-0.021l0.004,-0.004c0.063,-0.007 0.115,-0.019 0.158,-0.036Z" style="fill-rule:nonzero;"/>
            </g>
            <g transform="matrix(37.5,0,0,37.5,141.631,180.284)">
                <path d="M0.141,-0.684c0.015,0 0.028,0.006 0.039,0.017c0.01,0.01 0.016,0.023 0.016,0.039c-0,0.015 -0.006,0.027 -0.016,0.038c-0.011,0.011 -0.024,0.016 -0.039,0.016c-0.015,0 -0.028,-0.005 -0.039,-0.016c-0.011,-0.01 -0.017,-0.023 -0.017,-0.038c0,-0.016 0.006,-0.029 0.017,-0.039c0.011,-0.011 0.024,-0.017 0.039,-0.017Zm0.041,0.219l0.009,0.006c-0.003,0.043 -0.005,0.097 -0.005,0.163l0,0.11c0,0.007 0.001,0.03 0.002,0.069c0.001,0.039 0.003,0.062 0.004,0.068c0.002,0.007 0.004,0.011 0.007,0.014c0.003,0.003 0.006,0.005 0.01,0.006c0.005,0.001 0.022,0.002 0.053,0.004l0.005,0.004l-0,0.021l-0.004,0.004c-0.041,-0.003 -0.08,-0.004 -0.118,-0.004c-0.037,0 -0.076,0.001 -0.117,0.004l-0.005,-0.004l0,-0.021l0.005,-0.004c0.031,-0.002 0.049,-0.003 0.053,-0.004c0.004,-0.001 0.008,-0.003 0.011,-0.006c0.003,-0.003 0.005,-0.008 0.006,-0.015c0.002,-0.006 0.003,-0.027 0.004,-0.063c0.002,-0.035 0.002,-0.062 0.002,-0.08l0,-0.097c0,-0.013 -0,-0.03 -0.001,-0.053c-0.002,-0.022 -0.003,-0.036 -0.004,-0.041c-0,-0.005 -0.003,-0.009 -0.007,-0.012c-0.004,-0.002 -0.013,-0.003 -0.026,-0.003l-0.041,-0.001l-0.004,-0.004l-0,-0.021l0.004,-0.004c0.062,-0.007 0.114,-0.019 0.157,-0.036Z" style="fill-rule:nonzero;"/>
            </g>
            <g transform="matrix(37.5,0,0,37.5,152.544,180.284)">
                <path d="M0.614,-0.429l-0.01,0.041l-0.003,0.004c-0.017,-0 -0.035,-0 -0.056,-0c-0.018,-0 -0.041,-0 -0.07,0l-0.003,0.199c0,0.048 0.002,0.08 0.004,0.094c0.003,0.014 0.009,0.024 0.019,0.031c0.01,0.007 0.023,0.01 0.041,0.01c0.021,0 0.042,-0.006 0.06,-0.017l0.012,0.018c-0.008,0.005 -0.027,0.021 -0.056,0.049c-0.017,0.007 -0.034,0.011 -0.052,0.011c-0.073,0 -0.11,-0.035 -0.11,-0.106l0.003,-0.084l-0,-0.205l-0.213,0l-0.003,0.199c-0,0.048 0.001,0.08 0.004,0.094c0.003,0.014 0.009,0.024 0.019,0.031c0.009,0.007 0.023,0.01 0.04,0.01c0.022,0 0.042,-0.006 0.061,-0.017l0.012,0.018c-0.008,0.005 -0.027,0.021 -0.057,0.049c-0.017,0.007 -0.034,0.011 -0.051,0.011c-0.074,0 -0.11,-0.035 -0.11,-0.106l0.002,-0.084l0,-0.202l-0.02,-0c-0.014,-0 -0.031,0 -0.05,0.002l-0.005,-0.004l0,-0.013l0.004,-0.005c0.03,-0.011 0.055,-0.022 0.074,-0.032c0,-0.085 -0.001,-0.134 -0.003,-0.148c0.034,-0.012 0.061,-0.024 0.083,-0.038l0.011,0.01c-0.003,0.021 -0.007,0.08 -0.011,0.176l0.214,0c0,-0.092 -0,-0.141 -0.001,-0.148c0.033,-0.012 0.061,-0.024 0.082,-0.038l0.012,0.01c-0.003,0.021 -0.007,0.08 -0.012,0.179c0.016,0 0.034,0 0.053,0c0.038,0 0.066,-0.001 0.082,-0.003l0.004,0.004Z" style="fill-rule:nonzero;"/>
            </g>
            <g transform="matrix(37.5,0,0,37.5,175.853,180.284)">
                <path d="M0.432,-0.072l-0.016,0.035c-0.034,0.022 -0.064,0.036 -0.091,0.043c-0.026,0.006 -0.05,0.01 -0.071,0.01c-0.039,-0 -0.076,-0.008 -0.111,-0.023c-0.035,-0.016 -0.063,-0.042 -0.085,-0.078c-0.022,-0.036 -0.033,-0.08 -0.033,-0.132c-0,-0.034 0.004,-0.065 0.013,-0.092c0.008,-0.028 0.017,-0.048 0.026,-0.062c0.009,-0.013 0.025,-0.028 0.047,-0.044c0.022,-0.016 0.046,-0.029 0.071,-0.039c0.024,-0.01 0.051,-0.015 0.08,-0.015c0.039,0 0.073,0.009 0.103,0.028c0.03,0.018 0.051,0.042 0.063,0.07c0.012,0.029 0.018,0.059 0.018,0.092c-0,0.01 -0.001,0.02 -0.002,0.029l-0.005,0.005c-0.022,0.005 -0.052,0.009 -0.089,0.01c-0.038,0.002 -0.063,0.003 -0.075,0.003l-0.156,-0c0,0.067 0.017,0.117 0.05,0.149c0.034,0.031 0.074,0.047 0.123,0.047c0.022,0 0.044,-0.004 0.065,-0.011c0.021,-0.008 0.043,-0.019 0.067,-0.033l0.008,0.008Zm-0.313,-0.199c0.006,0 0.028,0.002 0.067,0.003c0.04,0.001 0.069,0.002 0.087,0.002c0.046,-0 0.073,-0.001 0.083,-0.003c0,-0.007 0,-0.013 0,-0.018c0,-0.05 -0.01,-0.088 -0.03,-0.112c-0.021,-0.025 -0.049,-0.037 -0.084,-0.037c-0.039,-0 -0.069,0.014 -0.091,0.041c-0.022,0.028 -0.032,0.069 -0.032,0.124Z" style="fill-rule:nonzero;"/>
            </g>
            <g transform="matrix(37.5,0,0,37.5,193.816,180.284)">
                <path d="M0.188,-0.465l0.009,0.006c-0.002,0.019 -0.004,0.052 -0.005,0.101l0.037,-0.047c0.012,-0.015 0.023,-0.027 0.032,-0.035c0.009,-0.008 0.02,-0.015 0.032,-0.019c0.013,-0.005 0.026,-0.007 0.039,-0.007c0.014,-0 0.027,0.003 0.04,0.008l0.003,0.007c-0.005,0.044 -0.008,0.082 -0.008,0.115l-0.022,-0c-0.013,-0.03 -0.034,-0.045 -0.063,-0.045c-0.02,-0 -0.038,0.006 -0.053,0.019c-0.015,0.013 -0.025,0.029 -0.03,0.048c-0.005,0.02 -0.008,0.044 -0.008,0.074l0,0.054c0,0.01 0.001,0.034 0.002,0.072c0.002,0.038 0.003,0.06 0.005,0.066c0.001,0.006 0.003,0.01 0.006,0.013c0.003,0.002 0.008,0.004 0.013,0.005c0.005,0.001 0.028,0.003 0.069,0.005l0.005,0.004l-0,0.021l-0.005,0.004c-0.043,-0.003 -0.088,-0.004 -0.136,-0.004c-0.037,-0 -0.076,0.001 -0.117,0.004l-0.004,-0.004l-0,-0.021l0.004,-0.004c0.032,-0.002 0.05,-0.003 0.054,-0.004c0.004,-0.001 0.007,-0.003 0.01,-0.006c0.004,-0.003 0.006,-0.008 0.007,-0.015c0.001,-0.006 0.002,-0.027 0.004,-0.063c0.001,-0.035 0.002,-0.062 0.002,-0.08l-0,-0.097c-0,-0.013 -0.001,-0.03 -0.002,-0.053c-0.001,-0.022 -0.002,-0.036 -0.003,-0.041c-0.001,-0.005 -0.004,-0.009 -0.008,-0.012c-0.004,-0.002 -0.013,-0.003 -0.025,-0.003l-0.041,-0.001l-0.005,-0.004l0,-0.021l0.004,-0.004c0.062,-0.007 0.115,-0.019 0.157,-0.036Z" style="fill-rule:nonzero;"/>
            </g>
        </g>
        <path d="M318.99,468.842l0.147,-0.147l0.897,0l0.146,0.147c0.061,1.562 0.144,2.518 0.247,2.866c0.104,0.347 0.434,0.714 0.989,1.098c0.556,0.385 1.294,0.699 2.216,0.943c0.921,0.244 1.852,0.366 2.792,0.366c1.294,0 2.457,-0.238 3.488,-0.714c1.032,-0.476 1.834,-1.175 2.408,-2.096c0.574,-0.922 0.861,-1.956 0.861,-3.104c-0,-0.806 -0.138,-1.508 -0.412,-2.106c-0.275,-0.598 -0.659,-1.077 -1.154,-1.437c-0.494,-0.36 -1.059,-0.629 -1.694,-0.806c-0.634,-0.177 -1.58,-0.369 -2.838,-0.576c-1.22,-0.196 -2.176,-0.373 -2.865,-0.531c-0.69,-0.159 -1.377,-0.403 -2.06,-0.733c-0.684,-0.329 -1.254,-0.748 -1.712,-1.254c-0.458,-0.507 -0.824,-1.129 -1.099,-1.868c-0.275,-0.738 -0.412,-1.529 -0.412,-2.371c0,-2.283 0.794,-4.154 2.381,-5.612c1.586,-1.459 3.717,-2.188 6.39,-2.188c1.062,-0 2.219,0.131 3.47,0.393c1.251,0.263 2.389,0.65 3.415,1.163l0.128,0.22c-0.269,1.123 -0.433,2.722 -0.495,4.797l-0.164,0.147l-0.952,-0l-0.147,-0.129c-0.024,-1.464 -0.061,-2.386 -0.11,-2.764c-0.049,-0.379 -0.604,-0.849 -1.666,-1.41c-1.062,-0.562 -2.216,-0.843 -3.461,-0.843c-1.037,0 -2.008,0.208 -2.911,0.623c-0.903,0.415 -1.587,1.068 -2.051,1.959c-0.464,0.891 -0.696,1.801 -0.696,2.728c0,0.721 0.141,1.358 0.421,1.914c0.281,0.555 0.644,0.995 1.09,1.318c0.445,0.324 0.964,0.565 1.556,0.723c0.592,0.159 1.676,0.354 3.25,0.586c2.161,0.306 3.733,0.675 4.715,1.108c0.983,0.434 1.77,1.12 2.362,2.06c0.592,0.94 0.889,2.075 0.889,3.406c-0,2.6 -1.059,4.767 -3.177,6.5c-2.118,1.734 -4.685,2.6 -7.7,2.6c-2.527,0 -4.742,-0.451 -6.647,-1.355l-0.11,-0.238c0.123,-0.769 0.214,-2.563 0.275,-5.383Z" style="fill-rule:nonzero;"/>
        <path d="M338.308,449.268c3.076,0.098 5.035,0.146 5.877,0.146c1.148,0 2.436,-0.03 3.864,-0.091c1.514,-0.049 2.447,-0.073 2.801,-0.073c1.709,-0 3.122,0.177 4.239,0.531c1.117,0.354 2.042,1.001 2.774,1.941c0.733,0.94 1.099,2.075 1.099,3.405c0,1.099 -0.256,2.161 -0.769,3.186c-0.513,1.026 -1.227,1.899 -2.142,2.619c-0.916,0.72 -1.844,1.236 -2.784,1.547c-0.939,0.311 -1.916,0.467 -2.929,0.467c-0.757,-0 -1.599,-0.086 -2.527,-0.256l-0.311,-1.117l0.164,-0.183c0.916,0.207 1.661,0.311 2.234,0.311c1.599,-0 2.884,-0.528 3.855,-1.584c0.97,-1.056 1.455,-2.408 1.455,-4.056c0,-1.66 -0.503,-2.984 -1.51,-3.973c-1.007,-0.989 -2.53,-1.483 -4.569,-1.483c-1.111,-0 -2.331,0.207 -3.662,0.622c-0.11,0.94 -0.165,3.211 -0.165,6.812l0,8.477l0.019,3.571c0.012,1.379 0.048,2.271 0.11,2.673c0.061,0.403 0.149,0.672 0.265,0.806c0.116,0.134 0.339,0.247 0.668,0.339c0.33,0.091 1.142,0.162 2.436,0.21l0.146,0.11l0,0.916l-0.146,0.146c-3.113,-0.097 -4.865,-0.146 -5.255,-0.146c-0.415,-0 -2.161,0.049 -5.237,0.146l-0.147,-0.146l0,-0.916l0.147,-0.11c1.135,-0.048 1.892,-0.109 2.27,-0.183c0.379,-0.073 0.632,-0.168 0.76,-0.284c0.128,-0.116 0.232,-0.363 0.311,-0.741c0.08,-0.379 0.126,-1.221 0.138,-2.527l0.018,-3.864l0,-8.477l-0.037,-3.571c-0.012,-1.391 -0.045,-2.289 -0.1,-2.692c-0.055,-0.402 -0.141,-0.671 -0.257,-0.805c-0.116,-0.134 -0.338,-0.244 -0.668,-0.33c-0.33,-0.085 -1.141,-0.152 -2.435,-0.201l-0.147,-0.128l0,-0.916l0.147,-0.128Z" style="fill-rule:nonzero;"/>
        <path d="M358.193,475.287l-0.165,-0.146l0,-0.952l0.165,-0.147c0.891,-0.012 1.465,-0.058 1.721,-0.137c0.257,-0.08 0.485,-0.238 0.687,-0.476c0.201,-0.238 0.607,-1.017 1.217,-2.335l1.923,-4.175l4.981,-11.279c0.939,-2.209 1.873,-4.419 2.801,-6.628l1.19,-0l7.819,18.383l1.044,2.454c0.305,0.696 0.656,1.453 1.052,2.271c0.397,0.817 0.672,1.3 0.824,1.446c0.153,0.147 0.342,0.259 0.568,0.339c0.226,0.079 0.729,0.125 1.511,0.137l0.146,0.147l0,0.952l-0.146,0.146c-1.294,-0.11 -2.46,-0.165 -3.498,-0.165c-2.026,0.061 -4.052,0.116 -6.079,0.165l-0.146,-0.146l-0,-0.952l0.146,-0.147c1.367,-0.024 2.222,-0.082 2.564,-0.174c0.341,-0.091 0.512,-0.302 0.512,-0.632c0,-0.268 -0.085,-0.622 -0.256,-1.062l-2.252,-5.584l-10.602,-0l-1.996,4.687c-0.354,0.843 -0.531,1.459 -0.531,1.85c0,0.305 0.165,0.531 0.495,0.677c0.329,0.147 1.159,0.226 2.49,0.238l0.165,0.147l-0,0.952l-0.147,0.146c-1.575,-0.097 -2.954,-0.146 -4.138,-0.146c-1.343,-0 -2.698,0.049 -4.065,0.146Zm8.35,-10.272l9.265,0l-4.596,-11.041l-4.669,11.041Z" style="fill-rule:nonzero;"/>
        <path d="M387.105,449.396l0.147,-0.128c2.112,0.098 3.552,0.146 4.321,0.146l8.569,-0.183c2.442,0 4.444,0.229 6.006,0.687c1.563,0.458 2.951,1.251 4.166,2.38c1.215,1.13 2.136,2.442 2.765,3.937c0.629,1.495 0.943,3.092 0.943,4.788c-0,1.648 -0.287,3.278 -0.861,4.889c-0.573,1.612 -1.388,3.055 -2.444,4.331c-1.056,1.275 -2.259,2.304 -3.607,3.085c-1.349,0.781 -2.701,1.303 -4.056,1.566c-1.355,0.262 -2.741,0.393 -4.157,0.393c-0.952,0 -2.746,-0.036 -5.383,-0.11c-0.867,-0.024 -1.44,-0.036 -1.721,-0.036c-0.842,-0 -1.862,0.049 -3.058,0.146l-0.147,-0.146l0,-0.604l0.147,-0.184c0.72,-0.366 1.132,-0.595 1.236,-0.686c0.104,-0.092 0.189,-1.16 0.256,-3.205c0.067,-2.044 0.101,-3.604 0.101,-4.678l-0,-6.72l-0.018,-4.156c-0,-0.904 -0.013,-1.639 -0.037,-2.207c-0.024,-0.567 -0.067,-0.973 -0.128,-1.217c-0.061,-0.245 -0.131,-0.416 -0.211,-0.513c-0.079,-0.098 -0.207,-0.18 -0.384,-0.247c-0.177,-0.067 -0.479,-0.125 -0.907,-0.174l-1.391,-0.11l-0.147,-0.128l0,-0.916Zm6.775,23.895c1.245,0.245 2.68,0.367 4.303,0.367c2.844,-0 5.118,-0.476 6.821,-1.429c1.703,-0.952 2.975,-2.362 3.818,-4.229c0.842,-1.868 1.263,-3.974 1.263,-6.317c0,-3.455 -0.922,-6.135 -2.765,-8.039c-1.843,-1.904 -4.748,-2.856 -8.716,-2.856c-1.635,-0 -3.21,0.122 -4.724,0.366c-0.097,2.002 -0.146,4.26 -0.146,6.775l-0,5.749l0.036,5.384c0,1.049 0.037,2.459 0.11,4.229Z" style="fill-rule:nonzero;"/>
        <path d="M436.926,540.287l-1.666,-7.636l-3.534,-15.069c-0.28,-1.197 -0.573,-1.865 -0.879,-2.005c-0.305,-0.141 -0.964,-0.272 -1.977,-0.394l-0.147,-0.147l0,-0.805l0.147,-0.165c1.758,0.098 3.314,0.146 4.669,0.146c1.013,0 2.49,-0.048 4.431,-0.146l0.165,0.165l-0,0.805l-0.147,0.147c-1.354,0.049 -2.169,0.116 -2.444,0.201c-0.275,0.086 -0.412,0.287 -0.412,0.605c0,0.256 0.122,1.065 0.366,2.426c0.244,1.361 0.464,2.469 0.659,3.323l2.875,12.689l4.523,-11.261c1.184,-2.978 2.35,-6.097 3.497,-9.356l1.172,-0c0.977,3.064 1.984,6.036 3.021,8.917l4.303,11.938l3.113,-10.931c0.317,-1.148 0.708,-2.655 1.172,-4.523c0.464,-1.868 0.696,-2.948 0.696,-3.241c-0,-0.329 -0.153,-0.534 -0.458,-0.613c-0.305,-0.08 -1.184,-0.138 -2.637,-0.174l-0.146,-0.165l-0,-0.806l0.146,-0.146c2.075,0.098 3.327,0.146 3.754,0.146c0.391,0 1.66,-0.048 3.809,-0.146l0.146,0.146l0,0.824l-0.146,0.129c-0.696,0.024 -1.16,0.088 -1.392,0.192c-0.232,0.104 -0.433,0.262 -0.604,0.476c-0.171,0.213 -0.415,0.839 -0.733,1.877l-1.062,3.405l-1.886,6.171c-0.268,0.891 -0.763,2.698 -1.483,5.42l-2.032,7.581l-1.868,-0c-1.27,-3.785 -2.319,-6.812 -3.149,-9.082l-4.175,-11.298l-3.644,9.045l-1.959,5.127c-0.513,1.355 -0.922,2.46 -1.227,3.315l-1.007,2.893l-1.85,-0Z" style="fill-rule:nonzero;"/>
        <path d="M467.029,527.524l-0.714,-0.183l-0.147,-0.183l0,-2.271c2.173,-1.611 4.285,-2.417 6.336,-2.417c1.404,0 2.569,0.263 3.497,0.788c0.928,0.525 1.599,1.181 2.014,1.968c0.415,0.788 0.623,1.706 0.623,2.756l-0.092,3.68l0,5.457c0,0.745 0.052,1.196 0.156,1.355c0.104,0.159 0.223,0.265 0.357,0.32c0.134,0.055 0.385,0.101 0.751,0.138l1.043,0.091l0.147,0.165l-0,0.732l-0.147,0.147c-0.891,-0.073 -1.721,-0.11 -2.49,-0.11c-0.732,0 -1.611,0.037 -2.636,0.11l-0.275,-0.256l0.073,-2.948l-3.992,3.112c-0.671,0.281 -1.403,0.421 -2.197,0.421c-0.976,0 -1.816,-0.177 -2.518,-0.531c-0.701,-0.354 -1.239,-0.848 -1.611,-1.483c-0.372,-0.634 -0.558,-1.404 -0.558,-2.307c-0,-1.794 0.561,-3.195 1.684,-4.202c1.123,-1.007 4.187,-1.865 9.192,-2.573c0,-1.806 -0.403,-3.079 -1.208,-3.817c-0.806,-0.739 -1.886,-1.108 -3.241,-1.108c-0.708,-0 -1.352,0.103 -1.932,0.311c-0.58,0.208 -0.913,0.375 -0.998,0.504c-0.085,0.128 -0.415,0.875 -0.989,2.243l-0.128,0.091Zm8.496,2.893c-3.418,0.574 -5.548,1.19 -6.39,1.85c-0.843,0.659 -1.264,1.678 -1.264,3.057c0,1.905 0.946,2.857 2.838,2.857c1.624,-0 3.229,-0.94 4.816,-2.82l0,-4.944Z" style="fill-rule:nonzero;"/>
        <path d="M488.745,512.821l0.348,0.22c-0.134,1.403 -0.201,4.217 -0.201,8.441l-0,11.48c-0,0.269 0.024,1.133 0.073,2.591c0.049,1.459 0.101,2.311 0.156,2.555c0.055,0.244 0.137,0.421 0.247,0.531c0.11,0.11 0.244,0.18 0.403,0.21c0.158,0.031 0.818,0.083 1.977,0.156l0.165,0.146l0,0.769l-0.146,0.165c-1.526,-0.097 -2.997,-0.146 -4.413,-0.146c-1.404,-0 -2.869,0.049 -4.395,0.146l-0.165,-0.165l0,-0.769l0.165,-0.146c1.184,-0.073 1.853,-0.128 2.005,-0.165c0.153,-0.037 0.287,-0.113 0.403,-0.229c0.116,-0.116 0.195,-0.293 0.238,-0.531c0.043,-0.238 0.092,-1.025 0.147,-2.362c0.054,-1.337 0.082,-2.347 0.082,-3.03l-0,-9.485l-0.073,-3.882c-0.037,-1.355 -0.077,-2.295 -0.119,-2.82c-0.043,-0.525 -0.101,-0.836 -0.174,-0.934c-0.074,-0.097 -0.202,-0.171 -0.385,-0.219c-0.183,-0.049 -0.921,-0.074 -2.215,-0.074l-0.165,-0.164l-0,-0.769l0.146,-0.165c2.332,-0.269 4.297,-0.72 5.896,-1.355Z" style="fill-rule:nonzero;"/>
        <path d="M499.658,512.821l0.348,0.22c-0.134,1.403 -0.201,4.217 -0.201,8.441l-0,11.48c-0,0.269 0.024,1.133 0.073,2.591c0.049,1.459 0.101,2.311 0.156,2.555c0.055,0.244 0.137,0.421 0.247,0.531c0.11,0.11 0.244,0.18 0.403,0.21c0.158,0.031 0.818,0.083 1.977,0.156l0.165,0.146l0,0.769l-0.146,0.165c-1.526,-0.097 -2.997,-0.146 -4.413,-0.146c-1.404,-0 -2.869,0.049 -4.395,0.146l-0.165,-0.165l0,-0.769l0.165,-0.146c1.184,-0.073 1.853,-0.128 2.005,-0.165c0.153,-0.037 0.287,-0.113 0.403,-0.229c0.116,-0.116 0.195,-0.293 0.238,-0.531c0.043,-0.238 0.092,-1.025 0.147,-2.362c0.055,-1.337 0.082,-2.347 0.082,-3.03l0,-9.485l-0.073,-3.882c-0.037,-1.355 -0.077,-2.295 -0.119,-2.82c-0.043,-0.525 -0.101,-0.836 -0.174,-0.934c-0.073,-0.097 -0.202,-0.171 -0.385,-0.219c-0.183,-0.049 -0.921,-0.074 -2.215,-0.074l-0.165,-0.164l-0,-0.769l0.146,-0.165c2.332,-0.269 4.297,-0.72 5.896,-1.355Z" style="fill-rule:nonzero;"/>
        <g transform="matrix(1,0,0,1,513.762,344.361)">
            <g transform="matrix(37.5,0,0,37.5,86.5985,130.296)">
                <path d="M0.029,-0.69c0.083,0.003 0.129,0.004 0.139,0.004c0.011,-0 0.058,-0.001 0.141,-0.004l0.003,0.003l0,0.025l-0.003,0.003c-0.023,0.001 -0.04,0.002 -0.052,0.003c-0.013,0.002 -0.021,0.004 -0.027,0.008c-0.006,0.003 -0.009,0.012 -0.011,0.025c-0.002,0.013 -0.003,0.031 -0.003,0.055l-0.001,0.112l0,0.068c0.072,0.002 0.139,0.003 0.203,0.003c0.087,0 0.154,-0.001 0.199,-0.003l0,-0.068l-0.001,-0.095c-0,-0.037 -0.001,-0.061 -0.003,-0.072c-0.001,-0.011 -0.004,-0.018 -0.007,-0.022c-0.002,-0.003 -0.008,-0.006 -0.017,-0.008c-0.009,-0.003 -0.031,-0.004 -0.066,-0.006l-0.003,-0.003l0,-0.025l0.003,-0.003c0.084,0.003 0.13,0.004 0.141,0.004c0.011,-0 0.057,-0.001 0.14,-0.004l0.004,0.003l-0,0.025l-0.004,0.003c-0.023,0.001 -0.041,0.002 -0.053,0.003c-0.012,0.002 -0.021,0.004 -0.026,0.008c-0.006,0.003 -0.01,0.012 -0.011,0.025c-0.002,0.013 -0.003,0.031 -0.003,0.055l-0.001,0.112l-0,0.226l0.001,0.095c0,0.037 0.001,0.061 0.003,0.072c0.001,0.01 0.004,0.017 0.007,0.021c0.003,0.004 0.009,0.007 0.018,0.009c0.008,0.002 0.03,0.004 0.065,0.006l0.004,0.003l-0,0.024l-0.004,0.004c-0.084,-0.003 -0.13,-0.004 -0.14,-0.004c-0.011,-0 -0.058,0.001 -0.141,0.004l-0.003,-0.004l0,-0.024l0.003,-0.003c0.031,-0.002 0.051,-0.003 0.061,-0.005c0.011,-0.002 0.017,-0.005 0.02,-0.008c0.004,-0.003 0.007,-0.009 0.009,-0.02c0.002,-0.01 0.003,-0.032 0.003,-0.067l0.001,-0.103l0,-0.111c-0.096,-0.002 -0.164,-0.003 -0.202,-0.003c-0.04,-0 -0.107,0.001 -0.2,0.003l0,0.111l0.001,0.095c0,0.037 0.001,0.061 0.003,0.072c0.001,0.01 0.004,0.017 0.007,0.021c0.003,0.004 0.009,0.007 0.018,0.009c0.008,0.002 0.03,0.004 0.065,0.006l0.004,0.003l-0,0.024l-0.004,0.004c-0.083,-0.003 -0.13,-0.004 -0.141,-0.004c-0.01,-0 -0.056,0.001 -0.139,0.004l-0.004,-0.004l-0,-0.024l0.004,-0.003c0.03,-0.002 0.05,-0.003 0.06,-0.005c0.01,-0.002 0.017,-0.005 0.021,-0.008c0.003,-0.003 0.006,-0.009 0.008,-0.02c0.002,-0.01 0.003,-0.032 0.004,-0.067l0,-0.103l0,-0.226l-0.001,-0.095c-0,-0.037 -0.001,-0.061 -0.003,-0.072c-0.001,-0.011 -0.003,-0.018 -0.006,-0.022c-0.004,-0.003 -0.009,-0.006 -0.018,-0.008c-0.009,-0.003 -0.031,-0.004 -0.065,-0.006l-0.004,-0.003l-0,-0.025l0.004,-0.003Z" style="fill-rule:nonzero;"/>
            </g>
            <g transform="matrix(37.5,0,0,37.5,117.8,130.296)">
                <path d="M0.141,-0.684c0.015,0 0.028,0.006 0.039,0.017c0.01,0.01 0.016,0.023 0.016,0.039c-0,0.015 -0.006,0.027 -0.016,0.038c-0.011,0.011 -0.024,0.016 -0.039,0.016c-0.015,0 -0.028,-0.005 -0.039,-0.016c-0.011,-0.01 -0.017,-0.023 -0.017,-0.038c0,-0.016 0.006,-0.029 0.017,-0.039c0.011,-0.011 0.024,-0.017 0.039,-0.017Zm0.041,0.219l0.009,0.006c-0.003,0.043 -0.005,0.097 -0.005,0.163l0,0.11c0,0.007 0.001,0.03 0.002,0.069c0.001,0.039 0.003,0.062 0.004,0.068c0.002,0.007 0.004,0.011 0.007,0.014c0.003,0.003 0.006,0.005 0.01,0.006c0.005,0.001 0.022,0.002 0.053,0.004l0.005,0.004l-0,0.021l-0.004,0.004c-0.041,-0.003 -0.08,-0.004 -0.118,-0.004c-0.037,0 -0.076,0.001 -0.117,0.004l-0.005,-0.004l0,-0.021l0.005,-0.004c0.031,-0.002 0.049,-0.003 0.053,-0.004c0.004,-0.001 0.008,-0.003 0.011,-0.006c0.003,-0.003 0.005,-0.008 0.006,-0.015c0.002,-0.006 0.003,-0.027 0.004,-0.063c0.002,-0.035 0.002,-0.062 0.002,-0.08l0,-0.097c0,-0.013 -0,-0.03 -0.001,-0.053c-0.002,-0.022 -0.003,-0.036 -0.004,-0.041c-0,-0.005 -0.003,-0.009 -0.007,-0.012c-0.004,-0.002 -0.013,-0.003 -0.026,-0.003l-0.041,-0.001l-0.004,-0.004l-0,-0.021l0.004,-0.004c0.062,-0.007 0.114,-0.019 0.157,-0.036Z" style="fill-rule:nonzero;"/>
            </g>
            <g transform="matrix(37.5,0,0,37.5,128.713,130.296)">
                <path d="M0.329,-0.662l-0,-0.021l0.004,-0.004c0.062,-0.007 0.114,-0.019 0.157,-0.036l0.009,0.006c-0.004,0.037 -0.005,0.112 -0.005,0.225l-0,0.32c-0,0.033 0,0.061 0.001,0.086c0.002,0.024 0.004,0.039 0.006,0.044c0.003,0.004 0.008,0.008 0.015,0.011c0.007,0.003 0.026,0.005 0.057,0.008l0.004,0.004l0,0.019l-0.004,0.004c-0.035,-0.002 -0.063,-0.004 -0.082,-0.004c-0.018,0 -0.043,0.002 -0.075,0.004l-0.006,-0.005c0.001,-0.032 0.002,-0.055 0.002,-0.067c-0,-0.002 -0,-0.008 0,-0.019c-0.018,0.013 -0.036,0.028 -0.054,0.044c-0.026,0.023 -0.043,0.038 -0.051,0.043c-0.015,0.008 -0.037,0.012 -0.064,0.012c-0.045,-0 -0.083,-0.011 -0.115,-0.033c-0.031,-0.023 -0.054,-0.051 -0.067,-0.085c-0.013,-0.035 -0.02,-0.07 -0.02,-0.106c0,-0.037 0.007,-0.072 0.021,-0.106c0.014,-0.034 0.033,-0.059 0.059,-0.075c0.025,-0.015 0.053,-0.031 0.083,-0.048c0.03,-0.017 0.06,-0.025 0.09,-0.025c0.041,-0 0.081,0.01 0.118,0.03l-0.002,-0.108c-0,-0.038 -0.001,-0.064 -0.003,-0.079c-0.001,-0.015 -0.003,-0.024 -0.005,-0.027c-0.002,-0.002 -0.005,-0.004 -0.01,-0.006c-0.004,-0.001 -0.024,-0.002 -0.059,-0.002l-0.004,-0.004Zm0.083,0.31c-0.02,-0.023 -0.042,-0.04 -0.067,-0.052c-0.025,-0.012 -0.049,-0.018 -0.074,-0.018c-0.027,-0 -0.053,0.007 -0.076,0.022c-0.024,0.015 -0.041,0.037 -0.051,0.066c-0.011,0.029 -0.016,0.061 -0.016,0.095c-0,0.057 0.014,0.102 0.043,0.137c0.029,0.034 0.065,0.052 0.109,0.052c0.024,-0 0.045,-0.006 0.063,-0.017c0.018,-0.011 0.034,-0.025 0.045,-0.044c0.012,-0.018 0.019,-0.037 0.021,-0.056c0.002,-0.018 0.003,-0.052 0.003,-0.102l0,-0.083Z" style="fill-rule:nonzero;"/>
            </g>
            <g transform="matrix(37.5,0,0,37.5,151.619,130.296)">
                <path d="M0.329,-0.662l-0,-0.021l0.004,-0.004c0.062,-0.007 0.114,-0.019 0.157,-0.036l0.009,0.006c-0.004,0.037 -0.005,0.112 -0.005,0.225l-0,0.32c-0,0.033 0,0.061 0.001,0.086c0.002,0.024 0.004,0.039 0.006,0.044c0.003,0.004 0.008,0.008 0.015,0.011c0.007,0.003 0.026,0.005 0.057,0.008l0.004,0.004l0,0.019l-0.004,0.004c-0.035,-0.002 -0.063,-0.004 -0.082,-0.004c-0.018,0 -0.043,0.002 -0.075,0.004l-0.006,-0.005c0.001,-0.032 0.002,-0.055 0.002,-0.067c-0,-0.002 -0,-0.008 0,-0.019c-0.018,0.013 -0.036,0.028 -0.054,0.044c-0.026,0.023 -0.043,0.038 -0.051,0.043c-0.015,0.008 -0.037,0.012 -0.064,0.012c-0.045,-0 -0.083,-0.011 -0.115,-0.033c-0.031,-0.023 -0.054,-0.051 -0.067,-0.085c-0.013,-0.035 -0.02,-0.07 -0.02,-0.106c0,-0.037 0.007,-0.072 0.021,-0.106c0.014,-0.034 0.033,-0.059 0.059,-0.075c0.025,-0.015 0.053,-0.031 0.083,-0.048c0.03,-0.017 0.06,-0.025 0.09,-0.025c0.041,-0 0.081,0.01 0.118,0.03l-0.002,-0.108c-0,-0.038 -0.001,-0.064 -0.003,-0.079c-0.001,-0.015 -0.003,-0.024 -0.005,-0.027c-0.002,-0.002 -0.005,-0.004 -0.01,-0.006c-0.004,-0.001 -0.024,-0.002 -0.059,-0.002l-0.004,-0.004Zm0.083,0.31c-0.02,-0.023 -0.042,-0.04 -0.067,-0.052c-0.025,-0.012 -0.049,-0.018 -0.074,-0.018c-0.027,-0 -0.053,0.007 -0.076,0.022c-0.024,0.015 -0.041,0.037 -0.051,0.066c-0.011,0.029 -0.016,0.061 -0.016,0.095c-0,0.057 0.014,0.102 0.043,0.137c0.029,0.034 0.065,0.052 0.109,0.052c0.024,-0 0.045,-0.006 0.063,-0.017c0.018,-0.011 0.034,-0.025 0.045,-0.044c0.012,-0.018 0.019,-0.037 0.021,-0.056c0.002,-0.018 0.003,-0.052 0.003,-0.102l0,-0.083Z" style="fill-rule:nonzero;"/>
            </g>
            <g transform="matrix(37.5,0,0,37.5,174.526,130.296)">
                <path d="M0.432,-0.072l-0.016,0.035c-0.034,0.022 -0.064,0.036 -0.091,0.043c-0.026,0.006 -0.05,0.01 -0.071,0.01c-0.039,-0 -0.076,-0.008 -0.111,-0.023c-0.035,-0.016 -0.063,-0.042 -0.085,-0.078c-0.022,-0.036 -0.033,-0.08 -0.033,-0.132c-0,-0.034 0.004,-0.065 0.013,-0.092c0.008,-0.028 0.017,-0.048 0.026,-0.062c0.009,-0.013 0.025,-0.028 0.047,-0.044c0.022,-0.016 0.046,-0.029 0.071,-0.039c0.024,-0.01 0.051,-0.015 0.08,-0.015c0.039,0 0.073,0.009 0.103,0.028c0.03,0.018 0.051,0.042 0.063,0.07c0.012,0.029 0.018,0.059 0.018,0.092c-0,0.01 -0.001,0.02 -0.002,0.029l-0.005,0.005c-0.022,0.005 -0.052,0.009 -0.089,0.01c-0.038,0.002 -0.063,0.003 -0.075,0.003l-0.156,-0c0,0.067 0.017,0.117 0.05,0.149c0.034,0.031 0.074,0.047 0.123,0.047c0.022,0 0.044,-0.004 0.065,-0.011c0.021,-0.008 0.043,-0.019 0.067,-0.033l0.008,0.008Zm-0.313,-0.199c0.006,0 0.028,0.002 0.067,0.003c0.04,0.001 0.069,0.002 0.087,0.002c0.046,-0 0.073,-0.001 0.083,-0.003c0,-0.007 0,-0.013 0,-0.018c0,-0.05 -0.01,-0.088 -0.03,-0.112c-0.021,-0.025 -0.049,-0.037 -0.084,-0.037c-0.039,-0 -0.069,0.014 -0.091,0.041c-0.022,0.028 -0.032,0.069 -0.032,0.124Z" style="fill-rule:nonzero;"/>
            </g>
            <g transform="matrix(37.5,0,0,37.5,192.488,130.296)">
                <path d="M0.167,-0.465l0.009,0.006c-0.002,0.022 -0.003,0.05 -0.004,0.086c0.026,-0.022 0.051,-0.043 0.075,-0.065c0.006,-0.007 0.013,-0.011 0.019,-0.014c0.006,-0.003 0.016,-0.006 0.03,-0.009c0.014,-0.004 0.028,-0.005 0.043,-0.005c0.025,-0 0.049,0.005 0.072,0.015c0.023,0.01 0.041,0.022 0.053,0.036c0.012,0.014 0.02,0.03 0.024,0.049c0.005,0.019 0.007,0.042 0.007,0.07l0,0.086c0,0.005 0.001,0.046 0.003,0.121c0,0.031 0.004,0.049 0.01,0.055c0.006,0.006 0.026,0.009 0.06,0.009l0.004,0.004l0,0.021l-0.004,0.004c-0.041,-0.003 -0.069,-0.004 -0.084,-0.004c-0.008,0 -0.032,0.001 -0.071,0.004l-0.006,-0.005c0.004,-0.043 0.007,-0.098 0.007,-0.166l-0,-0.064c-0,-0.038 -0.001,-0.066 -0.003,-0.083c-0.002,-0.017 -0.007,-0.032 -0.016,-0.046c-0.01,-0.014 -0.022,-0.025 -0.037,-0.032c-0.015,-0.008 -0.034,-0.012 -0.055,-0.012c-0.017,0 -0.031,0.002 -0.043,0.005c-0.012,0.004 -0.026,0.011 -0.041,0.021c-0.015,0.011 -0.026,0.021 -0.033,0.03c-0.007,0.009 -0.011,0.018 -0.013,0.026c-0.001,0.008 -0.002,0.025 -0.002,0.051l-0,0.085c-0,0.007 0.001,0.03 0.002,0.069c0.001,0.039 0.003,0.062 0.004,0.068c0.001,0.007 0.004,0.011 0.007,0.014c0.003,0.003 0.006,0.005 0.01,0.006c0.005,0.001 0.022,0.002 0.053,0.004l0.004,0.004l0,0.021l-0.003,0.004c-0.041,-0.003 -0.08,-0.004 -0.118,-0.004c-0.038,-0 -0.077,0.001 -0.117,0.004l-0.005,-0.004l0,-0.021l0.005,-0.004c0.031,-0.002 0.049,-0.003 0.053,-0.004c0.004,-0.001 0.008,-0.003 0.011,-0.006c0.003,-0.003 0.005,-0.008 0.006,-0.015c0.001,-0.006 0.003,-0.027 0.004,-0.063c0.002,-0.035 0.002,-0.062 0.002,-0.08l0,-0.097c0,-0.013 -0,-0.03 -0.002,-0.053c-0.001,-0.022 -0.002,-0.036 -0.003,-0.041c-0.001,-0.005 -0.003,-0.009 -0.007,-0.012c-0.005,-0.002 -0.013,-0.003 -0.026,-0.003l-0.041,-0.001l-0.004,-0.004l-0,-0.021l0.004,-0.004c0.062,-0.007 0.114,-0.019 0.157,-0.036Z" style="fill-rule:nonzero;"/>
            </g>
            <g transform="matrix(37.5,0,0,37.5,102.043,180.284)">
                <path d="M0.033,-0.224c0,-0.038 0.008,-0.076 0.024,-0.112c0.016,-0.036 0.044,-0.067 0.083,-0.093c0.04,-0.026 0.087,-0.039 0.141,-0.039c0.069,-0 0.124,0.021 0.167,0.064c0.043,0.044 0.065,0.099 0.065,0.167c-0,0.074 -0.025,0.136 -0.074,0.184c-0.05,0.048 -0.109,0.072 -0.179,0.072c-0.045,0 -0.086,-0.012 -0.122,-0.037c-0.036,-0.024 -0.062,-0.054 -0.079,-0.09c-0.017,-0.035 -0.026,-0.074 -0.026,-0.116Zm0.092,-0.033c0,0.045 0.006,0.086 0.018,0.122c0.012,0.036 0.03,0.065 0.056,0.087c0.025,0.021 0.054,0.032 0.087,0.032c0.038,0 0.07,-0.015 0.095,-0.045c0.025,-0.031 0.037,-0.077 0.037,-0.138c0,-0.069 -0.013,-0.126 -0.04,-0.17c-0.027,-0.044 -0.067,-0.067 -0.118,-0.067c-0.042,0 -0.075,0.016 -0.099,0.046c-0.024,0.031 -0.036,0.075 -0.036,0.133Z" style="fill-rule:nonzero;"/>
            </g>
            <g transform="matrix(37.5,0,0,37.5,122.515,180.284)">
                <path d="M-0.006,-0.658l-0.005,-0.004l0,-0.021l0.004,-0.004c0.062,-0.007 0.115,-0.019 0.157,-0.036l0.01,0.006c-0.004,0.037 -0.006,0.112 -0.006,0.225l0,0.124c0.006,-0.008 0.018,-0.02 0.035,-0.037c0.017,-0.017 0.031,-0.029 0.041,-0.035c0.011,-0.007 0.025,-0.013 0.044,-0.018c0.018,-0.006 0.037,-0.008 0.058,-0.008c0.036,-0 0.069,0.009 0.096,0.027c0.028,0.018 0.049,0.043 0.062,0.073c0.014,0.03 0.021,0.063 0.021,0.097c-0,0.033 -0.006,0.065 -0.017,0.094c-0.011,0.03 -0.025,0.054 -0.04,0.073c-0.009,0.012 -0.025,0.026 -0.048,0.042c-0.045,0.033 -0.077,0.054 -0.096,0.062c-0.018,0.008 -0.042,0.013 -0.071,0.013c-0.023,-0 -0.044,-0.004 -0.062,-0.01c-0.019,-0.006 -0.038,-0.016 -0.058,-0.03l-0.039,0.037l-0.017,-0.006c0.007,-0.059 0.01,-0.127 0.01,-0.202l-0,-0.259l-0.002,-0.094c-0.001,-0.036 -0.002,-0.061 -0.003,-0.075c-0.002,-0.015 -0.003,-0.023 -0.005,-0.026c-0.002,-0.003 -0.005,-0.004 -0.01,-0.006c-0.005,-0.001 -0.025,-0.002 -0.059,-0.002Zm0.16,0.349l0,0.183c0,0.015 0.001,0.025 0.002,0.03c0.002,0.005 0.008,0.012 0.02,0.022c0.012,0.009 0.026,0.017 0.045,0.024c0.018,0.007 0.037,0.011 0.056,0.011c0.047,-0 0.083,-0.018 0.109,-0.054c0.026,-0.036 0.039,-0.081 0.039,-0.136c0,-0.035 -0.005,-0.065 -0.016,-0.092c-0.011,-0.026 -0.027,-0.046 -0.049,-0.06c-0.022,-0.014 -0.047,-0.021 -0.074,-0.021c-0.032,-0 -0.06,0.009 -0.085,0.028c-0.025,0.019 -0.04,0.041 -0.047,0.065Z" style="fill-rule:nonzero;"/>
            </g>
            <g transform="matrix(37.5,0,0,37.5,143.261,180.284)">
                <path d="M0.118,-0.684c0.015,0 0.028,0.006 0.039,0.016c0.01,0.011 0.016,0.024 0.016,0.04c-0,0.015 -0.006,0.027 -0.016,0.038c-0.011,0.011 -0.024,0.016 -0.039,0.016c-0.015,0 -0.028,-0.005 -0.039,-0.016c-0.011,-0.011 -0.016,-0.023 -0.016,-0.038c-0,-0.016 0.005,-0.029 0.016,-0.039c0.011,-0.011 0.024,-0.017 0.039,-0.017Zm-0.122,0.259l0.004,-0.004c0.062,-0.007 0.114,-0.019 0.157,-0.036l0.009,0.006c-0.004,0.043 -0.005,0.102 -0.005,0.179l-0,0.09l0.001,0.156c0,0.054 -0.004,0.103 -0.013,0.149c-0.009,0.045 -0.029,0.084 -0.059,0.117c-0.031,0.032 -0.066,0.048 -0.106,0.048c-0.002,0 -0.006,0 -0.01,-0l-0.005,-0.028l0.004,-0.006c0.007,0 0.013,0.001 0.017,0.001c0.011,-0 0.022,-0.003 0.032,-0.009c0.01,-0.006 0.02,-0.016 0.028,-0.029c0.009,-0.012 0.015,-0.028 0.019,-0.047c0.004,-0.018 0.006,-0.048 0.008,-0.088c0.001,-0.039 0.002,-0.066 0.002,-0.079l0,-0.285c0,-0.013 -0,-0.03 -0.002,-0.053c-0.001,-0.022 -0.002,-0.036 -0.003,-0.041c-0.001,-0.006 -0.003,-0.01 -0.008,-0.012c-0.004,-0.002 -0.012,-0.003 -0.024,-0.003l-0.042,-0.001l-0.004,-0.004l-0,-0.021Z" style="fill-rule:nonzero;"/>
            </g>
            <g transform="matrix(37.5,0,0,37.5,152.031,180.284)">
                <path d="M0.432,-0.072l-0.016,0.035c-0.034,0.022 -0.064,0.036 -0.091,0.043c-0.026,0.006 -0.05,0.01 -0.071,0.01c-0.039,-0 -0.076,-0.008 -0.111,-0.023c-0.035,-0.016 -0.063,-0.042 -0.085,-0.078c-0.022,-0.036 -0.033,-0.08 -0.033,-0.132c-0,-0.034 0.004,-0.065 0.013,-0.092c0.008,-0.028 0.017,-0.048 0.026,-0.062c0.009,-0.013 0.025,-0.028 0.047,-0.044c0.022,-0.016 0.046,-0.029 0.071,-0.039c0.024,-0.01 0.051,-0.015 0.08,-0.015c0.039,0 0.073,0.009 0.103,0.028c0.03,0.018 0.051,0.042 0.063,0.07c0.012,0.029 0.018,0.059 0.018,0.092c-0,0.01 -0.001,0.02 -0.002,0.029l-0.005,0.005c-0.022,0.005 -0.052,0.009 -0.089,0.01c-0.038,0.002 -0.063,0.003 -0.075,0.003l-0.156,-0c0,0.067 0.017,0.117 0.05,0.149c0.034,0.031 0.074,0.047 0.123,0.047c0.022,0 0.044,-0.004 0.065,-0.011c0.021,-0.008 0.043,-0.019 0.067,-0.033l0.008,0.008Zm-0.313,-0.199c0.006,0 0.028,0.002 0.067,0.003c0.04,0.001 0.069,0.002 0.087,0.002c0.046,-0 0.073,-0.001 0.083,-0.003c0,-0.007 0,-0.013 0,-0.018c0,-0.05 -0.01,-0.088 -0.03,-0.112c-0.021,-0.025 -0.049,-0.037 -0.084,-0.037c-0.039,-0 -0.069,0.014 -0.091,0.041c-0.022,0.028 -0.032,0.069 -0.032,0.124Z" style="fill-rule:nonzero;"/>
            </g>
            <g transform="matrix(37.5,0,0,37.5,169.994,180.284)">
                <path d="M0.424,-0.052l-0.02,0.032c-0.042,0.024 -0.089,0.035 -0.14,0.035c-0.072,0 -0.127,-0.021 -0.166,-0.064c-0.039,-0.042 -0.059,-0.097 -0.059,-0.165c0,-0.03 0.003,-0.058 0.01,-0.082c0.007,-0.024 0.015,-0.043 0.025,-0.059c0.011,-0.016 0.022,-0.028 0.034,-0.037c0.013,-0.009 0.034,-0.022 0.063,-0.038c0.03,-0.016 0.052,-0.027 0.067,-0.032c0.015,-0.005 0.035,-0.008 0.062,-0.008c0.05,0 0.092,0.01 0.124,0.029c-0.006,0.037 -0.011,0.078 -0.014,0.123l-0.005,0.004l-0.02,0l-0.004,-0.004c-0.001,-0.028 -0.003,-0.046 -0.006,-0.056c-0.002,-0.009 -0.015,-0.019 -0.038,-0.03c-0.024,-0.011 -0.049,-0.016 -0.076,-0.016c-0.026,0 -0.05,0.006 -0.071,0.017c-0.021,0.011 -0.037,0.03 -0.047,0.055c-0.011,0.026 -0.016,0.056 -0.016,0.092c-0,0.03 0.004,0.059 0.013,0.087c0.008,0.029 0.019,0.052 0.033,0.071c0.014,0.019 0.032,0.034 0.055,0.045c0.023,0.012 0.048,0.017 0.076,0.017c0.018,0 0.035,-0.002 0.052,-0.006c0.016,-0.005 0.036,-0.013 0.058,-0.023l0.01,0.013Z" style="fill-rule:nonzero;"/>
            </g>
            <g transform="matrix(37.5,0,0,37.5,186.638,180.284)">
                <path d="M0.022,-0.383l0,-0.013l0.004,-0.005c0.03,-0.011 0.055,-0.022 0.074,-0.032c0,-0.085 -0.001,-0.134 -0.003,-0.148c0.034,-0.012 0.061,-0.024 0.083,-0.038l0.011,0.01c-0.003,0.021 -0.007,0.08 -0.011,0.179c0.016,0 0.034,0 0.052,0c0.039,0 0.066,-0.001 0.083,-0.003l0.003,0.004l-0.009,0.041l-0.004,0.004c-0.016,-0 -0.035,-0 -0.055,-0c-0.018,-0 -0.042,-0 -0.07,0l-0.003,0.199c-0,0.046 0.001,0.076 0.003,0.09c0.002,0.014 0.008,0.025 0.018,0.033c0.009,0.008 0.023,0.012 0.042,0.012c0.022,0 0.042,-0.006 0.061,-0.017l0.011,0.018c-0.007,0.005 -0.026,0.021 -0.056,0.049c-0.017,0.007 -0.034,0.011 -0.051,0.011c-0.074,0 -0.11,-0.035 -0.11,-0.106c-0,-0.026 0,-0.048 0.002,-0.067c0,-0.005 0,-0.011 0,-0.017l0,-0.202l-0.02,-0c-0.015,-0 -0.031,0 -0.05,0.002l-0.005,-0.004Z" style="fill-rule:nonzero;"/>
            </g>
        </g>
        <path d="M362.903,12.86l0.147,-0.128c2.112,0.097 3.552,0.146 4.321,0.146l8.57,-0.183c2.441,0 4.443,0.229 6.005,0.687c1.563,0.457 2.951,1.251 4.166,2.38c1.215,1.129 2.136,2.441 2.765,3.937c0.629,1.495 0.943,3.091 0.943,4.788c-0,1.648 -0.287,3.278 -0.861,4.889c-0.573,1.611 -1.388,3.055 -2.444,4.33c-1.056,1.276 -2.258,2.304 -3.607,3.086c-1.349,0.781 -2.701,1.303 -4.056,1.565c-1.355,0.263 -2.741,0.394 -4.157,0.394c-0.952,-0 -2.746,-0.037 -5.383,-0.11c-0.867,-0.024 -1.44,-0.037 -1.721,-0.037c-0.842,0 -1.862,0.049 -3.058,0.147l-0.146,-0.147l-0,-0.604l0.146,-0.183c0.72,-0.366 1.132,-0.595 1.236,-0.687c0.104,-0.091 0.189,-1.159 0.256,-3.204c0.068,-2.045 0.101,-3.604 0.101,-4.678l0,-6.72l-0.018,-4.157c-0,-0.903 -0.012,-1.639 -0.037,-2.206c-0.024,-0.568 -0.067,-0.974 -0.128,-1.218c-0.061,-0.244 -0.131,-0.415 -0.211,-0.512c-0.079,-0.098 -0.207,-0.181 -0.384,-0.248c-0.177,-0.067 -0.479,-0.125 -0.906,-0.174l-1.392,-0.109l-0.147,-0.129l0,-0.915Zm6.775,23.895c1.245,0.244 2.68,0.366 4.303,0.366c2.845,0 5.118,-0.476 6.821,-1.428c1.703,-0.952 2.975,-2.362 3.818,-4.23c0.842,-1.867 1.263,-3.973 1.263,-6.317c0,-3.454 -0.921,-6.134 -2.765,-8.038c-1.843,-1.904 -4.748,-2.857 -8.716,-2.857c-1.635,0 -3.21,0.122 -4.724,0.367c-0.097,2.002 -0.146,4.26 -0.146,6.775l-0,5.749l0.037,5.383c-0,1.05 0.036,2.46 0.109,4.23Z" style="fill-rule:nonzero;"/>
        <path d="M396.65,12.97c0.574,-0 1.062,0.201 1.465,0.604c0.402,0.403 0.604,0.891 0.604,1.465c-0,0.561 -0.202,1.043 -0.604,1.446c-0.403,0.403 -0.891,0.605 -1.465,0.605c-0.562,-0 -1.047,-0.199 -1.456,-0.596c-0.409,-0.396 -0.613,-0.882 -0.613,-1.455c-0,-0.574 0.204,-1.062 0.613,-1.465c0.409,-0.403 0.894,-0.604 1.456,-0.604Zm1.556,8.184l0.348,0.239c-0.134,1.599 -0.201,3.631 -0.201,6.097l-0,4.138c-0,0.269 0.024,1.132 0.073,2.591c0.049,1.459 0.101,2.31 0.156,2.554c0.055,0.245 0.137,0.422 0.247,0.531c0.11,0.11 0.244,0.18 0.403,0.211c0.158,0.03 0.817,0.082 1.977,0.156l0.165,0.146l-0,0.769l-0.147,0.165c-1.525,-0.098 -2.996,-0.147 -4.412,-0.147c-1.404,0 -2.869,0.049 -4.395,0.147l-0.165,-0.165l0,-0.769l0.165,-0.146c1.184,-0.074 1.852,-0.129 2.005,-0.165c0.153,-0.037 0.287,-0.113 0.403,-0.229c0.116,-0.116 0.195,-0.293 0.238,-0.531c0.043,-0.238 0.092,-1.025 0.146,-2.362c0.055,-1.337 0.083,-2.347 0.083,-3.031l-0,-3.607c-0,-0.488 -0.025,-1.153 -0.073,-1.996c-0.049,-0.842 -0.089,-1.361 -0.119,-1.556c-0.031,-0.195 -0.126,-0.339 -0.284,-0.43c-0.159,-0.092 -0.476,-0.138 -0.952,-0.138l-1.538,-0.018l-0.165,-0.146l-0,-0.788l0.146,-0.146c2.332,-0.281 4.297,-0.739 5.896,-1.374Z" style="fill-rule:nonzero;"/>
        <path d="M418.128,22.4l0,-1.099c0,-1.538 0.092,-2.64 0.275,-3.305c0.183,-0.665 0.464,-1.26 0.842,-1.785c0.378,-0.525 1.102,-1.34 2.17,-2.445c1.068,-1.105 1.852,-1.764 2.353,-1.977c0.5,-0.214 1.025,-0.321 1.574,-0.321c0.501,0 1.001,0.092 1.502,0.275l-0,3.003l-0.421,0.165c-0.684,-0.611 -1.477,-0.916 -2.381,-0.916c-0.634,0 -1.184,0.131 -1.648,0.394c-0.463,0.262 -0.781,0.689 -0.952,1.281c-0.171,0.593 -0.256,1.572 -0.256,2.939l-0,3.791l1.959,-0c1.013,-0 1.966,-0.037 2.857,-0.11l0.183,0.201l-0.33,1.611l-0.165,0.184c-0.366,-0.013 -0.604,-0.019 -0.714,-0.019l-2.398,-0.018l-1.392,-0l-0,7.379c-0,0.391 0.027,1.285 0.082,2.683c0.055,1.397 0.107,2.218 0.156,2.462c0.049,0.245 0.131,0.422 0.247,0.531c0.116,0.11 0.305,0.19 0.568,0.238c0.262,0.049 1.101,0.092 2.518,0.129l0.146,0.146l-0,0.769l-0.146,0.165c-0.379,-0 -1.093,-0.024 -2.143,-0.073c-0.952,-0.049 -1.935,-0.074 -2.948,-0.074c-1.404,0 -2.875,0.049 -4.413,0.147l-0.146,-0.165l-0,-0.769l0.146,-0.146c1.184,-0.074 1.856,-0.129 2.014,-0.165c0.159,-0.037 0.293,-0.113 0.403,-0.229c0.11,-0.116 0.186,-0.293 0.229,-0.531c0.043,-0.238 0.092,-1.025 0.147,-2.362c0.055,-1.337 0.082,-2.347 0.082,-3.031l0,-7.104l-8.862,-0l-0,7.379c-0,0.391 0.027,1.285 0.082,2.683c0.055,1.397 0.107,2.218 0.156,2.462c0.049,0.245 0.131,0.422 0.247,0.531c0.116,0.11 0.305,0.19 0.568,0.238c0.262,0.049 0.949,0.092 2.06,0.129l0.146,0.146l0,0.769l-0.146,0.165c-0.464,-0.024 -1.099,-0.055 -1.905,-0.092c-0.805,-0.036 -1.715,-0.055 -2.728,-0.055c-1.318,0 -2.789,0.049 -4.413,0.147l-0.146,-0.165l-0,-0.769l0.146,-0.146c1.184,-0.074 1.856,-0.129 2.014,-0.165c0.159,-0.037 0.293,-0.113 0.403,-0.229c0.11,-0.116 0.186,-0.293 0.229,-0.531c0.043,-0.238 0.092,-1.025 0.147,-2.362c0.054,-1.337 0.082,-2.347 0.082,-3.031l-0,-7.067l-2.362,0.128l-0.165,-0.147l0,-0.457l0.128,-0.184l2.399,-1.226l-0,-1.099c-0,-1.221 0.055,-2.145 0.165,-2.774c0.11,-0.629 0.314,-1.209 0.613,-1.74c0.299,-0.531 0.821,-1.202 1.566,-2.014c0.744,-0.812 1.397,-1.477 1.959,-1.996c0.561,-0.518 1.05,-0.866 1.465,-1.043c0.415,-0.177 0.903,-0.266 1.465,-0.266c0.463,0 0.964,0.092 1.501,0.275l-0.018,3.003l-0.421,0.165c-0.684,-0.611 -1.477,-0.916 -2.381,-0.916c-0.635,0 -1.184,0.131 -1.648,0.394c-0.464,0.262 -0.781,0.689 -0.952,1.281c-0.171,0.593 -0.256,1.572 -0.256,2.939l-0,3.791l8.862,-0Z" style="fill-rule:nonzero;"/>
        <path d="M433.033,21.154l0.348,0.239c-0.135,1.599 -0.202,3.631 -0.202,6.097l0,4.266c0,1.563 0.119,2.649 0.357,3.26c0.238,0.61 0.65,1.077 1.236,1.4c0.586,0.324 1.282,0.486 2.088,0.486c0.891,-0 1.703,-0.174 2.435,-0.522c0.732,-0.348 1.346,-0.84 1.84,-1.474c0.495,-0.635 0.778,-1.062 0.852,-1.282c0.073,-0.22 0.122,-0.836 0.146,-1.849l0.055,-2.051l0,-1.978c0,-0.488 -0.024,-1.153 -0.073,-1.996c-0.049,-0.842 -0.089,-1.361 -0.119,-1.556c-0.031,-0.195 -0.125,-0.339 -0.284,-0.43c-0.159,-0.092 -0.476,-0.138 -0.952,-0.138l-1.538,-0.018l-0.165,-0.146l0,-0.788l0.147,-0.146c2.331,-0.281 4.296,-0.739 5.896,-1.374l0.347,0.239c-0.134,1.599 -0.201,3.631 -0.201,6.097l0,3.223c0,0.183 0.031,1.678 0.092,4.486c0.024,1.037 0.088,1.669 0.192,1.895c0.104,0.226 0.247,0.384 0.43,0.476c0.183,0.091 0.726,0.137 1.63,0.137l0.512,0l0.165,0.147l0,0.732l-0.146,0.165c-1.721,-0.098 -2.875,-0.147 -3.461,-0.147c-0.745,0 -1.605,0.043 -2.582,0.129l-0.165,-0.147c0.074,-1.245 0.129,-2.301 0.165,-3.168c-0.769,0.599 -1.648,1.398 -2.636,2.399c-0.379,0.379 -0.922,0.696 -1.63,0.952c-0.708,0.257 -1.514,0.385 -2.417,0.385c-1.367,-0 -2.432,-0.217 -3.195,-0.65c-0.763,-0.434 -1.303,-1.032 -1.621,-1.795c-0.317,-0.763 -0.476,-2.078 -0.476,-3.946l0.018,-1.446l0,-3.571c0,-0.488 -0.024,-1.153 -0.073,-1.996c-0.049,-0.842 -0.088,-1.361 -0.119,-1.556c-0.03,-0.195 -0.125,-0.339 -0.284,-0.43c-0.158,-0.092 -0.476,-0.138 -0.952,-0.138l-1.538,-0.018l-0.165,-0.146l0,-0.788l0.147,-0.146c2.331,-0.281 4.297,-0.739 5.896,-1.374Z" style="fill-rule:nonzero;"/>
        <path d="M451.16,33.221l0.788,0l0.164,0.165c0.025,1.025 0.086,1.904 0.184,2.637c0.378,0.573 1.031,1.04 1.959,1.4c0.928,0.361 1.843,0.541 2.746,0.541c1.294,-0 2.329,-0.348 3.104,-1.044c0.775,-0.696 1.163,-1.526 1.163,-2.49c-0,-0.525 -0.141,-0.98 -0.421,-1.365c-0.281,-0.384 -0.705,-0.701 -1.273,-0.952c-0.568,-0.25 -1.584,-0.546 -3.049,-0.888c-1.257,-0.293 -2.136,-0.522 -2.636,-0.686c-0.501,-0.165 -0.983,-0.443 -1.447,-0.833c-0.464,-0.391 -0.818,-0.87 -1.062,-1.438c-0.244,-0.567 -0.366,-1.193 -0.366,-1.877c-0,-1.635 0.65,-2.945 1.95,-3.927c1.3,-0.983 2.92,-1.474 4.861,-1.474c0.818,-0 1.709,0.113 2.674,0.338c0.964,0.226 1.696,0.443 2.197,0.65l0.165,0.257c-0.098,0.488 -0.159,1.77 -0.183,3.845l-0.165,0.165l-0.733,-0l-0.164,-0.165c-0.049,-0.745 -0.116,-1.266 -0.202,-1.566c-0.085,-0.299 -0.305,-0.622 -0.659,-0.97c-0.354,-0.348 -0.854,-0.641 -1.501,-0.879c-0.647,-0.238 -1.331,-0.357 -2.051,-0.357c-0.745,0 -1.37,0.11 -1.877,0.33c-0.507,0.219 -0.916,0.552 -1.227,0.998c-0.311,0.445 -0.467,0.985 -0.467,1.62c0,0.464 0.095,0.879 0.284,1.245c0.189,0.366 0.479,0.662 0.87,0.888c0.39,0.226 0.799,0.388 1.227,0.485l1.995,0.513c1.709,0.415 2.933,0.775 3.672,1.08c0.738,0.306 1.309,0.766 1.712,1.383c0.403,0.616 0.604,1.364 0.604,2.243c0,1.685 -0.696,3.131 -2.087,4.34c-1.392,1.208 -3.18,1.812 -5.365,1.812c-0.769,0 -1.725,-0.085 -2.866,-0.256c-1.141,-0.171 -2.115,-0.36 -2.921,-0.568l-0.091,-0.238l0.183,-1.227c0.061,-0.378 0.098,-0.759 0.11,-1.144c0.012,-0.384 0.024,-1.193 0.037,-2.426l0.164,-0.165Z" style="fill-rule:nonzero;"/>
        <path d="M481.391,35.913l-0.586,1.318c-1.269,0.818 -2.402,1.349 -3.397,1.593c-0.994,0.244 -1.882,0.366 -2.664,0.366c-1.465,0 -2.853,-0.286 -4.165,-0.86c-1.313,-0.574 -2.381,-1.544 -3.205,-2.912c-0.824,-1.367 -1.236,-3.015 -1.236,-4.943c0,-1.282 0.159,-2.439 0.476,-3.47c0.318,-1.032 0.65,-1.798 0.998,-2.298c0.348,-0.501 0.937,-1.056 1.767,-1.667c0.83,-0.61 1.709,-1.098 2.637,-1.464c0.928,-0.367 1.929,-0.55 3.003,-0.55c1.465,0 2.756,0.345 3.873,1.035c1.117,0.69 1.901,1.572 2.353,2.646c0.451,1.074 0.677,2.215 0.677,3.424c0,0.378 -0.018,0.744 -0.055,1.098l-0.201,0.202c-0.83,0.183 -1.947,0.305 -3.351,0.366c-1.404,0.061 -2.332,0.092 -2.783,0.092l-5.878,-0c0.024,2.526 0.659,4.388 1.904,5.584c1.245,1.197 2.771,1.795 4.578,1.795c0.854,-0 1.675,-0.147 2.463,-0.44c0.787,-0.293 1.62,-0.702 2.499,-1.226l0.293,0.311Zm-11.737,-7.489c0.22,0.036 1.065,0.079 2.536,0.128c1.471,0.049 2.56,0.073 3.268,0.073c1.697,0 2.729,-0.03 3.095,-0.091c0.012,-0.293 0.018,-0.519 0.018,-0.678c0,-1.892 -0.384,-3.299 -1.153,-4.22c-0.769,-0.922 -1.819,-1.383 -3.15,-1.383c-1.452,0 -2.585,0.519 -3.396,1.557c-0.812,1.037 -1.218,2.575 -1.218,4.614Z" style="fill-rule:nonzero;"/>
        <path d="M500.397,38.952l-2.472,-8.203c-0.463,-1.538 -0.912,-2.966 -1.345,-4.284c-0.434,-1.319 -0.721,-2.158 -0.861,-2.518c-0.14,-0.36 -0.29,-0.62 -0.449,-0.778c-0.158,-0.159 -0.329,-0.269 -0.512,-0.33c-0.183,-0.061 -0.702,-0.14 -1.557,-0.238l-0.128,-0.146l0,-0.751l0.165,-0.165c0.879,0.085 2.24,0.128 4.083,0.128c1.99,0 3.485,-0.043 4.486,-0.128l0.165,0.165l0,0.751l-0.128,0.146c-1.331,0.012 -2.121,0.085 -2.371,0.22c-0.251,0.134 -0.376,0.342 -0.376,0.622c0,0.281 0.177,1.032 0.531,2.253l1.703,5.895c0.269,0.916 0.611,1.984 1.026,3.205c0.329,-0.794 0.793,-1.856 1.391,-3.186l2.692,-6.024c0.647,-1.429 1.245,-2.869 1.794,-4.322l0.898,0l1.647,4.432l2.106,5.31l1.63,4.028l1.373,-3.607c0.794,-2.063 1.41,-3.784 1.849,-5.164c0.44,-1.379 0.66,-2.264 0.66,-2.655c-0,-0.391 -0.135,-0.647 -0.403,-0.769c-0.269,-0.122 -0.989,-0.201 -2.161,-0.238l-0.165,-0.146l0,-0.77l0.165,-0.146c1.416,0.085 2.606,0.128 3.571,0.128c1.22,0 2.368,-0.043 3.442,-0.128l0.147,0.146l-0,0.751l-0.147,0.165c-0.659,0.024 -1.108,0.098 -1.346,0.22c-0.238,0.122 -0.506,0.418 -0.805,0.888c-0.299,0.47 -0.754,1.425 -1.365,2.865l-1.812,4.303l-0.824,2.051l-1.3,3.406c-0.403,1.062 -0.696,1.935 -0.879,2.618l-1.721,0l-0.879,-2.288l-4.175,-10.492l-1.758,3.79l-2.032,4.541l-1.795,4.449l-1.758,0Z" style="fill-rule:nonzero;"/>
        <path d="M526.691,26.19l-0.714,-0.183l-0.146,-0.183l-0,-2.271c2.173,-1.611 4.284,-2.417 6.335,-2.417c1.404,0 2.57,0.263 3.497,0.788c0.928,0.524 1.6,1.181 2.015,1.968c0.415,0.787 0.622,1.706 0.622,2.756l-0.091,3.68l-0,5.457c-0,0.744 0.052,1.196 0.155,1.355c0.104,0.158 0.223,0.265 0.357,0.32c0.135,0.055 0.385,0.101 0.751,0.137l1.044,0.092l0.146,0.165l0,0.732l-0.146,0.147c-0.891,-0.074 -1.721,-0.11 -2.49,-0.11c-0.733,-0 -1.612,0.036 -2.637,0.11l-0.275,-0.257l0.073,-2.948l-3.991,3.113c-0.672,0.281 -1.404,0.421 -2.198,0.421c-0.976,0 -1.815,-0.177 -2.517,-0.531c-0.702,-0.354 -1.239,-0.848 -1.612,-1.483c-0.372,-0.635 -0.558,-1.404 -0.558,-2.307c-0,-1.795 0.561,-3.195 1.685,-4.202c1.123,-1.007 4.187,-1.865 9.191,-2.573c0,-1.807 -0.402,-3.079 -1.208,-3.818c-0.806,-0.738 -1.886,-1.108 -3.241,-1.108c-0.708,0 -1.352,0.104 -1.932,0.312c-0.58,0.207 -0.912,0.375 -0.998,0.503c-0.085,0.128 -0.415,0.876 -0.989,2.243l-0.128,0.092Zm8.496,2.893c-3.418,0.574 -5.548,1.19 -6.39,1.849c-0.842,0.659 -1.263,1.679 -1.263,3.058c-0,1.904 0.946,2.857 2.838,2.857c1.623,-0 3.228,-0.94 4.815,-2.82l0,-4.944Z" style="fill-rule:nonzero;"/>
        <path d="M548.408,11.487l0.348,0.219c-0.135,1.404 -0.202,4.218 -0.202,8.441l0,11.481c0,0.269 0.025,1.132 0.073,2.591c0.049,1.459 0.101,2.31 0.156,2.554c0.055,0.245 0.137,0.422 0.247,0.531c0.11,0.11 0.244,0.18 0.403,0.211c0.159,0.03 0.818,0.082 1.978,0.156l0.164,0.146l0,0.769l-0.146,0.165c-1.526,-0.098 -2.997,-0.147 -4.413,-0.147c-1.404,0 -2.869,0.049 -4.395,0.147l-0.164,-0.165l-0,-0.769l0.164,-0.146c1.185,-0.074 1.853,-0.129 2.005,-0.165c0.153,-0.037 0.287,-0.113 0.403,-0.229c0.116,-0.116 0.196,-0.293 0.238,-0.531c0.043,-0.238 0.092,-1.025 0.147,-2.362c0.055,-1.337 0.082,-2.347 0.082,-3.031l0,-9.484l-0.073,-3.882c-0.037,-1.355 -0.076,-2.295 -0.119,-2.82c-0.043,-0.525 -0.101,-0.836 -0.174,-0.934c-0.073,-0.098 -0.201,-0.171 -0.384,-0.22c-0.184,-0.048 -0.922,-0.073 -2.216,-0.073l-0.165,-0.165l0,-0.769l0.147,-0.165c2.331,-0.268 4.297,-0.72 5.896,-1.354Z" style="fill-rule:nonzero;"/>
        <path d="M559.321,11.487l0.348,0.219c-0.135,1.404 -0.202,4.218 -0.202,8.441l0,11.481c0,0.269 0.025,1.132 0.073,2.591c0.049,1.459 0.101,2.31 0.156,2.554c0.055,0.245 0.137,0.422 0.247,0.531c0.11,0.11 0.244,0.18 0.403,0.211c0.159,0.03 0.818,0.082 1.978,0.156l0.164,0.146l0,0.769l-0.146,0.165c-1.526,-0.098 -2.997,-0.147 -4.413,-0.147c-1.404,0 -2.869,0.049 -4.394,0.147l-0.165,-0.165l-0,-0.769l0.165,-0.146c1.184,-0.074 1.852,-0.129 2.005,-0.165c0.152,-0.037 0.286,-0.113 0.402,-0.229c0.116,-0.116 0.196,-0.293 0.238,-0.531c0.043,-0.238 0.092,-1.025 0.147,-2.362c0.055,-1.337 0.082,-2.347 0.082,-3.031l0,-9.484l-0.073,-3.882c-0.037,-1.355 -0.076,-2.295 -0.119,-2.82c-0.043,-0.525 -0.101,-0.836 -0.174,-0.934c-0.073,-0.098 -0.201,-0.171 -0.384,-0.22c-0.184,-0.048 -0.922,-0.073 -2.216,-0.073l-0.165,-0.165l0,-0.769l0.147,-0.165c2.331,-0.268 4.297,-0.72 5.896,-1.354Z" style="fill-rule:nonzero;"/>
        <path d="M466.013,164.969l-0,325.26" style="fill:none;stroke:black;stroke-width:4.12px;"/>
    </g>
    <g id="S1">
        <path d="M430.229,65.247l26.706,-7.004l-10.42,25.566l-16.286,-18.562Z" style="fill:rgb(0,174,239);"/>
        <path d="M165.836,313.629c-0,0 216.908,-190.297 276.249,-242.358" style="fill:none;stroke:rgb(0,174,239);stroke-width:4.12px;"/>
        <path d="M325.626,300.121l8.73,26.192l-26.192,-8.731l17.462,-17.461Z" style="fill:rgb(0,174,239);"/>
        <path d="M253.415,245.371c-0,0 43.816,43.816 66.972,66.973" style="fill:none;stroke:rgb(0,174,239);stroke-width:4.12px;stroke-dasharray:4.12,12.35,0,0;"/>
        <path d="M253.415,244.968l212.598,-186.516" style="fill:none;stroke:rgb(0,174,239);stroke-width:4.12px;stroke-dasharray:4.12,12.35,0,0;"/>
    </g>
</svg>
