<?xml version="1.0" encoding="UTF-8" standalone="no"?>
<!DOCTYPE svg PUBLIC "-//W3C//DTD SVG 1.1//EN" "http://www.w3.org/Graphics/SVG/1.1/DTD/svg11.dtd">
<svg width="100%" height="100%" viewBox="0 0 1737 532" version="1.1" xmlns="http://www.w3.org/2000/svg" xmlns:xlink="http://www.w3.org/1999/xlink" xml:space="preserve" xmlns:serif="http://www.serif.com/" style="fill-rule:evenodd;clip-rule:evenodd;stroke-linecap:round;stroke-linejoin:round;stroke-miterlimit:1.5;">
    <g id="BG">
        <path d="M196.649,320.972l-20.986,129.43l41.137,6.67l20.986,-129.43l-41.137,-6.67Z" style="fill:none;stroke:black;stroke-width:4.12px;"/>
        <path d="M365.973,337.131l25.076,87.583l78.537,-22.486l-25.076,-87.583l-78.537,22.486Z" style="fill:none;stroke:black;stroke-width:4.12px;"/>
        <path d="M117.317,479.351l0.147,-0.128c3.027,0.098 4.773,0.147 5.237,0.147c0.415,-0 2.166,-0.049 5.255,-0.147l0.146,0.128l0,0.916l-0.146,0.128c-0.843,0.024 -1.493,0.061 -1.95,0.11c-0.458,0.049 -0.791,0.14 -0.998,0.274c-0.208,0.135 -0.345,0.449 -0.412,0.943c-0.067,0.495 -0.101,1.181 -0.101,2.06l-0.037,4.212l0,5.823c0,1.916 0.04,3.323 0.119,4.22c0.08,0.897 0.251,1.654 0.513,2.271c0.263,0.616 0.662,1.147 1.199,1.593c0.538,0.445 1.307,0.808 2.308,1.089c1.001,0.281 2.136,0.421 3.405,0.421c1.343,0 2.597,-0.186 3.763,-0.558c1.166,-0.373 2.054,-0.913 2.664,-1.621c0.611,-0.708 1.01,-1.638 1.2,-2.792c0.189,-1.154 0.283,-2.756 0.283,-4.807l0,-5.639c0,-0.952 -0.015,-2.262 -0.045,-3.928c-0.031,-1.666 -0.104,-2.624 -0.22,-2.875c-0.116,-0.25 -0.33,-0.439 -0.641,-0.567c-0.311,-0.128 -1.175,-0.205 -2.591,-0.229l-0.146,-0.147l-0,-0.86l0.146,-0.165c1.807,0.098 3.253,0.147 4.34,0.147c0.927,-0 2.368,-0.049 4.321,-0.147l0.165,0.147l-0,0.878l-0.165,0.147c-1.147,0.024 -1.895,0.07 -2.243,0.137c-0.348,0.067 -0.592,0.168 -0.732,0.302c-0.141,0.135 -0.245,0.342 -0.312,0.623c-0.067,0.281 -0.113,1.086 -0.137,2.417l-0.055,4.12l0,5.566c0,2.222 -0.085,3.974 -0.256,5.255c-0.171,1.282 -0.553,2.335 -1.145,3.159c-0.592,0.824 -1.294,1.514 -2.105,2.069c-0.812,0.555 -1.853,0.983 -3.122,1.282c-1.27,0.299 -2.588,0.448 -3.955,0.448c-1.709,0 -3.22,-0.189 -4.532,-0.567c-1.313,-0.379 -2.347,-0.879 -3.104,-1.502c-0.757,-0.622 -1.3,-1.278 -1.63,-1.968c-0.329,-0.69 -0.543,-1.502 -0.64,-2.435c-0.098,-0.934 -0.147,-2.359 -0.147,-4.276l0,-7.031l-0.037,-3.571c-0.012,-1.391 -0.045,-2.289 -0.1,-2.691c-0.055,-0.403 -0.141,-0.672 -0.257,-0.806c-0.116,-0.134 -0.338,-0.244 -0.668,-0.33c-0.33,-0.085 -1.141,-0.152 -2.435,-0.201l-0.147,-0.128l0,-0.916Z" style="fill-rule:nonzero;"/>
        <path d="M147.017,479.223c3.076,0.098 5.035,0.147 5.878,0.147c1.147,-0 2.435,-0.031 3.863,-0.092c1.514,-0.049 2.448,-0.073 2.802,-0.073c1.709,-0 3.122,0.177 4.239,0.531c1.117,0.354 2.041,1.001 2.774,1.941c0.732,0.94 1.098,2.075 1.098,3.405c0,1.099 -0.256,2.161 -0.769,3.186c-0.512,1.026 -1.227,1.899 -2.142,2.619c-0.916,0.72 -1.843,1.236 -2.783,1.547c-0.94,0.311 -1.917,0.467 -2.93,0.467c-0.757,0 -1.599,-0.085 -2.527,-0.256l-0.311,-1.117l0.165,-0.183c0.915,0.207 1.66,0.311 2.234,0.311c1.599,-0 2.883,-0.528 3.854,-1.584c0.97,-1.056 1.456,-2.408 1.456,-4.056c-0,-1.66 -0.504,-2.984 -1.511,-3.973c-1.007,-0.989 -2.53,-1.483 -4.569,-1.483c-1.11,-0 -2.331,0.207 -3.662,0.622c-0.109,0.94 -0.164,3.211 -0.164,6.812l-0,8.478l0.018,3.57c0.012,1.38 0.049,2.271 0.11,2.673c0.061,0.403 0.149,0.672 0.265,0.806c0.116,0.134 0.339,0.247 0.669,0.339c0.329,0.091 1.141,0.162 2.435,0.21l0.146,0.11l0,0.916l-0.146,0.146c-3.113,-0.097 -4.865,-0.146 -5.255,-0.146c-0.415,-0 -2.161,0.049 -5.237,0.146l-0.147,-0.146l0,-0.916l0.147,-0.11c1.135,-0.048 1.892,-0.109 2.27,-0.183c0.379,-0.073 0.632,-0.167 0.76,-0.283c0.129,-0.116 0.232,-0.364 0.312,-0.742c0.079,-0.378 0.125,-1.221 0.137,-2.527l0.018,-3.863l0,-8.478l-0.036,-3.571c-0.013,-1.391 -0.046,-2.289 -0.101,-2.691c-0.055,-0.403 -0.14,-0.672 -0.256,-0.806c-0.116,-0.134 -0.339,-0.244 -0.669,-0.33c-0.329,-0.085 -1.141,-0.152 -2.435,-0.201l-0.147,-0.128l0,-0.916l0.147,-0.128Z" style="fill-rule:nonzero;"/>
        <path d="M184.81,477.978l0.348,0.22c-0.134,1.403 -0.202,4.217 -0.202,8.441l0,11.481c0,0.268 0.025,1.132 0.074,2.59c0.048,1.459 0.1,2.311 0.155,2.555c0.055,0.244 0.138,0.421 0.247,0.531c0.11,0.11 0.245,0.18 0.403,0.21c0.159,0.031 0.818,0.083 1.978,0.156l0.165,0.146l-0,0.77l-0.147,0.164c-1.526,-0.097 -2.997,-0.146 -4.413,-0.146c-1.403,-0 -2.868,0.049 -4.394,0.146l-0.165,-0.164l-0,-0.77l0.165,-0.146c1.184,-0.073 1.852,-0.128 2.005,-0.165c0.152,-0.036 0.287,-0.113 0.403,-0.229c0.116,-0.116 0.195,-0.293 0.238,-0.531c0.042,-0.238 0.091,-1.025 0.146,-2.362c0.055,-1.336 0.083,-2.347 0.083,-3.03l-0,-9.485l-0.074,-3.882c-0.036,-1.355 -0.076,-2.295 -0.119,-2.82c-0.042,-0.525 -0.1,-0.836 -0.174,-0.933c-0.073,-0.098 -0.201,-0.171 -0.384,-0.22c-0.183,-0.049 -0.922,-0.073 -2.216,-0.073l-0.165,-0.165l0,-0.769l0.147,-0.165c2.331,-0.269 4.297,-0.72 5.896,-1.355Z" style="fill-rule:nonzero;"/>
        <path d="M192.757,492.681l-0.714,-0.183l-0.147,-0.183l0,-2.27c2.173,-1.612 4.285,-2.417 6.336,-2.417c1.403,-0 2.569,0.262 3.497,0.787c0.928,0.525 1.599,1.181 2.014,1.968c0.415,0.788 0.623,1.706 0.623,2.756l-0.092,3.68l0,5.457c0,0.745 0.052,1.196 0.156,1.355c0.103,0.159 0.222,0.266 0.357,0.32c0.134,0.055 0.384,0.101 0.75,0.138l1.044,0.091l0.147,0.165l-0,0.733l-0.147,0.146c-0.891,-0.073 -1.721,-0.11 -2.49,-0.11c-0.732,0 -1.611,0.037 -2.637,0.11l-0.274,-0.256l0.073,-2.948l-3.992,3.112c-0.671,0.281 -1.404,0.422 -2.197,0.422c-0.977,-0 -1.816,-0.177 -2.518,-0.531c-0.702,-0.354 -1.239,-0.849 -1.611,-1.484c-0.373,-0.634 -0.559,-1.403 -0.559,-2.307c0,-1.794 0.562,-3.195 1.685,-4.202c1.123,-1.007 4.187,-1.865 9.192,-2.573c-0,-1.806 -0.403,-3.079 -1.209,-3.817c-0.805,-0.739 -1.886,-1.108 -3.241,-1.108c-0.708,-0 -1.352,0.104 -1.931,0.311c-0.58,0.208 -0.913,0.376 -0.998,0.504c-0.086,0.128 -0.415,0.876 -0.989,2.243l-0.128,0.091Zm8.496,2.893c-3.418,0.574 -5.548,1.191 -6.391,1.85c-0.842,0.659 -1.263,1.678 -1.263,3.058c-0,1.904 0.946,2.856 2.838,2.856c1.624,0 3.229,-0.94 4.816,-2.82l-0,-4.944Z" style="fill-rule:nonzero;"/>
        <path d="M209.474,499.713l0.788,-0l0.164,0.164c0.025,1.026 0.086,1.905 0.183,2.637c0.379,0.574 1.032,1.041 1.96,1.401c0.927,0.36 1.843,0.54 2.746,0.54c1.294,-0 2.329,-0.348 3.104,-1.044c0.775,-0.696 1.163,-1.526 1.163,-2.49c-0,-0.525 -0.141,-0.98 -0.421,-1.364c-0.281,-0.385 -0.705,-0.702 -1.273,-0.952c-0.568,-0.25 -1.584,-0.547 -3.049,-0.888c-1.257,-0.293 -2.136,-0.522 -2.637,-0.687c-0.5,-0.165 -0.982,-0.442 -1.446,-0.833c-0.464,-0.391 -0.818,-0.87 -1.062,-1.437c-0.244,-0.568 -0.366,-1.194 -0.366,-1.877c-0,-1.636 0.65,-2.945 1.95,-3.928c1.3,-0.983 2.92,-1.474 4.861,-1.474c0.818,0 1.709,0.113 2.674,0.339c0.964,0.226 1.696,0.442 2.197,0.65l0.165,0.256c-0.098,0.489 -0.159,1.77 -0.183,3.845l-0.165,0.165l-0.733,0l-0.164,-0.165c-0.049,-0.744 -0.116,-1.266 -0.202,-1.565c-0.085,-0.299 -0.305,-0.623 -0.659,-0.971c-0.354,-0.347 -0.855,-0.64 -1.502,-0.878c-0.646,-0.239 -1.33,-0.358 -2.05,-0.358c-0.745,0 -1.371,0.11 -1.877,0.33c-0.507,0.22 -0.916,0.552 -1.227,0.998c-0.311,0.446 -0.467,0.986 -0.467,1.62c0,0.464 0.095,0.879 0.284,1.246c0.189,0.366 0.479,0.662 0.87,0.888c0.39,0.225 0.799,0.387 1.227,0.485l1.995,0.513c1.709,0.415 2.933,0.775 3.672,1.08c0.738,0.305 1.309,0.766 1.712,1.382c0.403,0.617 0.604,1.364 0.604,2.243c-0,1.685 -0.696,3.131 -2.087,4.34c-1.392,1.208 -3.18,1.813 -5.365,1.813c-0.77,-0 -1.725,-0.086 -2.866,-0.257c-1.141,-0.171 -2.115,-0.36 -2.921,-0.567l-0.091,-0.238l0.183,-1.227c0.061,-0.379 0.098,-0.76 0.11,-1.145c0.012,-0.384 0.024,-1.193 0.036,-2.426l0.165,-0.164Z" style="fill-rule:nonzero;"/>
        <path d="M239.705,502.404l-0.586,1.319c-1.27,0.817 -2.402,1.348 -3.397,1.593c-0.994,0.244 -1.883,0.366 -2.664,0.366c-1.465,-0 -2.853,-0.287 -4.165,-0.861c-1.313,-0.574 -2.381,-1.544 -3.205,-2.911c-0.824,-1.367 -1.236,-3.015 -1.236,-4.944c0,-1.282 0.159,-2.438 0.476,-3.47c0.318,-1.031 0.65,-1.797 0.998,-2.298c0.348,-0.5 0.937,-1.056 1.767,-1.666c0.83,-0.61 1.709,-1.099 2.637,-1.465c0.928,-0.366 1.929,-0.549 3.003,-0.549c1.465,-0 2.756,0.345 3.873,1.034c1.116,0.69 1.901,1.572 2.352,2.646c0.452,1.074 0.678,2.216 0.678,3.424c-0,0.379 -0.018,0.745 -0.055,1.099l-0.201,0.201c-0.83,0.183 -1.947,0.305 -3.351,0.366c-1.404,0.062 -2.332,0.092 -2.783,0.092l-5.878,0c0.024,2.527 0.659,4.388 1.904,5.585c1.245,1.196 2.771,1.794 4.578,1.794c0.854,0 1.675,-0.146 2.463,-0.439c0.787,-0.293 1.62,-0.702 2.499,-1.227l0.293,0.311Zm-11.737,-7.489c0.22,0.037 1.065,0.08 2.536,0.128c1.471,0.049 2.56,0.074 3.268,0.074c1.697,-0 2.729,-0.031 3.095,-0.092c0.012,-0.293 0.018,-0.519 0.018,-0.677c0,-1.893 -0.384,-3.299 -1.153,-4.221c-0.769,-0.922 -1.819,-1.382 -3.15,-1.382c-1.452,-0 -2.585,0.518 -3.396,1.556c-0.812,1.038 -1.218,2.576 -1.218,4.614Z" style="fill-rule:nonzero;"/>
        <path d="M248.512,487.646l0.348,0.238c-0.073,0.708 -0.128,1.965 -0.165,3.772l1.374,-1.74c0.451,-0.573 0.851,-1.016 1.199,-1.327c0.348,-0.311 0.754,-0.552 1.218,-0.723c0.464,-0.171 0.94,-0.257 1.428,-0.257c0.537,0 1.044,0.11 1.52,0.33l0.128,0.256c-0.195,1.624 -0.305,3.052 -0.33,4.285l-0.824,-0c-0.488,-1.123 -1.275,-1.685 -2.362,-1.685c-0.757,0 -1.416,0.241 -1.977,0.724c-0.562,0.482 -0.937,1.086 -1.126,1.812c-0.19,0.727 -0.284,1.645 -0.284,2.756l-0,2.033c-0,0.366 0.024,1.263 0.073,2.691c0.049,1.428 0.101,2.252 0.156,2.472c0.055,0.22 0.14,0.382 0.256,0.485c0.116,0.104 0.269,0.174 0.458,0.211c0.189,0.037 1.059,0.098 2.609,0.183l0.165,0.146l-0,0.77l-0.165,0.164c-1.623,-0.097 -3.32,-0.146 -5.09,-0.146c-1.404,-0 -2.869,0.049 -4.395,0.146l-0.165,-0.164l0,-0.77l0.165,-0.146c1.184,-0.073 1.853,-0.128 2.005,-0.165c0.153,-0.036 0.287,-0.113 0.403,-0.229c0.116,-0.116 0.195,-0.293 0.238,-0.531c0.043,-0.238 0.092,-1.025 0.147,-2.362c0.054,-1.336 0.082,-2.347 0.082,-3.03l-0,-3.607c-0,-0.489 -0.024,-1.154 -0.073,-1.996c-0.049,-0.842 -0.089,-1.361 -0.119,-1.557c-0.031,-0.195 -0.125,-0.338 -0.284,-0.43c-0.159,-0.091 -0.476,-0.137 -0.952,-0.137l-1.538,-0.018l-0.165,-0.147l-0,-0.787l0.146,-0.147c2.332,-0.281 4.297,-0.738 5.896,-1.373Z" style="fill-rule:nonzero;"/>
        <path d="M377.663,498.797l0.146,-0.146l0.897,-0l0.147,0.146c0.061,1.563 0.143,2.518 0.247,2.866c0.104,0.348 0.433,0.714 0.989,1.098c0.555,0.385 1.294,0.699 2.215,0.943c0.922,0.244 1.853,0.366 2.793,0.366c1.294,0 2.456,-0.238 3.488,-0.714c1.031,-0.476 1.834,-1.175 2.408,-2.096c0.574,-0.922 0.86,-1.956 0.86,-3.104c0,-0.806 -0.137,-1.507 -0.412,-2.106c-0.274,-0.598 -0.659,-1.077 -1.153,-1.437c-0.495,-0.36 -1.059,-0.629 -1.694,-0.806c-0.635,-0.177 -1.581,-0.369 -2.838,-0.576c-1.221,-0.196 -2.176,-0.373 -2.866,-0.531c-0.689,-0.159 -1.376,-0.403 -2.06,-0.733c-0.683,-0.329 -1.254,-0.747 -1.712,-1.254c-0.457,-0.507 -0.824,-1.129 -1.098,-1.868c-0.275,-0.738 -0.412,-1.529 -0.412,-2.371c-0,-2.283 0.793,-4.153 2.38,-5.612c1.587,-1.459 3.717,-2.188 6.391,-2.188c1.062,-0 2.218,0.131 3.469,0.393c1.252,0.263 2.39,0.65 3.415,1.163l0.129,0.22c-0.269,1.123 -0.434,2.722 -0.495,4.797l-0.165,0.147l-0.952,-0l-0.146,-0.128c-0.025,-1.465 -0.061,-2.387 -0.11,-2.765c-0.049,-0.379 -0.604,-0.849 -1.666,-1.41c-1.062,-0.562 -2.216,-0.843 -3.461,-0.843c-1.038,0 -2.008,0.208 -2.911,0.623c-0.904,0.415 -1.587,1.068 -2.051,1.959c-0.464,0.891 -0.696,1.801 -0.696,2.728c-0,0.721 0.14,1.359 0.421,1.914c0.281,0.555 0.644,0.995 1.09,1.318c0.445,0.324 0.964,0.565 1.556,0.724c0.592,0.158 1.675,0.354 3.25,0.586c2.161,0.305 3.732,0.674 4.715,1.107c0.983,0.434 1.77,1.12 2.362,2.06c0.592,0.94 0.888,2.075 0.888,3.406c0,2.6 -1.059,4.767 -3.177,6.5c-2.118,1.734 -4.684,2.6 -7.699,2.6c-2.527,0 -4.743,-0.451 -6.647,-1.355l-0.11,-0.238c0.122,-0.769 0.214,-2.563 0.275,-5.383Z" style="fill-rule:nonzero;"/>
        <path d="M396.98,479.223c3.077,0.098 5.036,0.147 5.878,0.147c1.148,-0 2.435,-0.031 3.864,-0.092c1.513,-0.049 2.447,-0.073 2.801,-0.073c1.709,-0 3.122,0.177 4.239,0.531c1.117,0.354 2.042,1.001 2.774,1.941c0.732,0.94 1.099,2.075 1.099,3.405c-0,1.099 -0.257,2.161 -0.769,3.186c-0.513,1.026 -1.227,1.899 -2.143,2.619c-0.915,0.72 -1.843,1.236 -2.783,1.547c-0.94,0.311 -1.916,0.467 -2.93,0.467c-0.756,0 -1.599,-0.085 -2.526,-0.256l-0.312,-1.117l0.165,-0.183c0.916,0.207 1.66,0.311 2.234,0.311c1.599,-0 2.884,-0.528 3.854,-1.584c0.971,-1.056 1.456,-2.408 1.456,-4.056c0,-1.66 -0.504,-2.984 -1.511,-3.973c-1.007,-0.989 -2.53,-1.483 -4.568,-1.483c-1.111,-0 -2.332,0.207 -3.662,0.622c-0.11,0.94 -0.165,3.211 -0.165,6.812l0,8.478l0.018,3.57c0.013,1.38 0.049,2.271 0.11,2.673c0.061,0.403 0.15,0.672 0.266,0.806c0.116,0.134 0.338,0.247 0.668,0.339c0.33,0.091 1.141,0.162 2.435,0.21l0.147,0.11l-0,0.916l-0.147,0.146c-3.112,-0.097 -4.864,-0.146 -5.255,-0.146c-0.415,-0 -2.16,0.049 -5.237,0.146l-0.146,-0.146l-0,-0.916l0.146,-0.11c1.136,-0.048 1.892,-0.109 2.271,-0.183c0.378,-0.073 0.632,-0.167 0.76,-0.283c0.128,-0.116 0.232,-0.364 0.311,-0.742c0.079,-0.378 0.125,-1.221 0.137,-2.527l0.019,-3.863l-0,-8.478l-0.037,-3.571c-0.012,-1.391 -0.046,-2.289 -0.101,-2.691c-0.055,-0.403 -0.14,-0.672 -0.256,-0.806c-0.116,-0.134 -0.339,-0.244 -0.668,-0.33c-0.33,-0.085 -1.142,-0.152 -2.436,-0.201l-0.146,-0.128l-0,-0.916l0.146,-0.128Z" style="fill-rule:nonzero;"/>
        <path d="M416.866,505.242l-0.165,-0.146l-0,-0.952l0.165,-0.147c0.891,-0.012 1.464,-0.058 1.721,-0.137c0.256,-0.079 0.485,-0.238 0.686,-0.476c0.202,-0.238 0.608,-1.016 1.218,-2.335l1.923,-4.175l4.98,-11.279c0.94,-2.209 1.874,-4.419 2.802,-6.628l1.19,-0l7.819,18.383l1.043,2.454c0.305,0.696 0.656,1.453 1.053,2.271c0.397,0.817 0.671,1.3 0.824,1.446c0.153,0.147 0.342,0.26 0.568,0.339c0.225,0.079 0.729,0.125 1.51,0.137l0.147,0.147l-0,0.952l-0.147,0.146c-1.294,-0.11 -2.459,-0.164 -3.497,-0.164c-2.026,0.061 -4.053,0.116 -6.079,0.164l-0.147,-0.146l0,-0.952l0.147,-0.147c1.367,-0.024 2.222,-0.082 2.563,-0.174c0.342,-0.091 0.513,-0.302 0.513,-0.631c0,-0.269 -0.085,-0.623 -0.256,-1.062l-2.253,-5.585l-10.601,-0l-1.996,4.687c-0.354,0.843 -0.531,1.459 -0.531,1.85c-0,0.305 0.165,0.531 0.494,0.677c0.33,0.147 1.16,0.226 2.49,0.238l0.165,0.147l0,0.952l-0.146,0.146c-1.575,-0.097 -2.954,-0.146 -4.138,-0.146c-1.343,-0 -2.698,0.049 -4.065,0.146Zm8.349,-10.272l9.265,0l-4.596,-11.041l-4.669,11.041Z" style="fill-rule:nonzero;"/>
        <path d="M445.778,479.351l0.146,-0.128c2.112,0.098 3.553,0.147 4.322,0.147l8.569,-0.184c2.442,0 4.443,0.229 6.006,0.687c1.562,0.458 2.951,1.251 4.166,2.38c1.214,1.13 2.136,2.442 2.764,3.937c0.629,1.496 0.943,3.092 0.943,4.788c0,1.648 -0.286,3.278 -0.86,4.889c-0.574,1.612 -1.389,3.055 -2.445,4.331c-1.055,1.275 -2.258,2.304 -3.607,3.085c-1.349,0.781 -2.701,1.303 -4.056,1.566c-1.355,0.262 -2.74,0.393 -4.156,0.393c-0.952,0 -2.747,-0.036 -5.383,-0.11c-0.867,-0.024 -1.441,-0.036 -1.722,-0.036c-0.842,-0 -1.861,0.049 -3.057,0.146l-0.147,-0.146l0,-0.604l0.147,-0.184c0.72,-0.366 1.132,-0.595 1.236,-0.686c0.103,-0.092 0.189,-1.16 0.256,-3.204c0.067,-2.045 0.101,-3.605 0.101,-4.679l-0,-6.72l-0.019,-4.156c0,-0.904 -0.012,-1.639 -0.036,-2.207c-0.025,-0.567 -0.067,-0.973 -0.128,-1.217c-0.061,-0.245 -0.132,-0.415 -0.211,-0.513c-0.079,-0.098 -0.208,-0.18 -0.385,-0.247c-0.177,-0.067 -0.479,-0.125 -0.906,-0.174l-1.392,-0.11l-0.146,-0.128l-0,-0.916Zm6.775,23.895c1.245,0.245 2.679,0.367 4.303,0.367c2.844,-0 5.118,-0.476 6.821,-1.429c1.702,-0.952 2.975,-2.362 3.817,-4.229c0.843,-1.868 1.264,-3.974 1.264,-6.317c-0,-3.455 -0.922,-6.134 -2.765,-8.039c-1.843,-1.904 -4.749,-2.856 -8.716,-2.856c-1.636,-0 -3.21,0.122 -4.724,0.366c-0.098,2.002 -0.147,4.26 -0.147,6.775l0,5.749l0.037,5.384c0,1.05 0.037,2.459 0.11,4.229Z" style="fill-rule:nonzero;"/>
        <path d="M274.588,25.525l0.146,-0.147l0.898,0l0.146,0.147c0.061,1.562 0.144,2.517 0.247,2.865c0.104,0.348 0.434,0.714 0.989,1.099c0.556,0.384 1.294,0.699 2.216,0.943c0.921,0.244 1.852,0.366 2.792,0.366c1.294,0 2.457,-0.238 3.488,-0.714c1.032,-0.476 1.834,-1.175 2.408,-2.097c0.574,-0.921 0.861,-1.956 0.861,-3.103c-0,-0.806 -0.138,-1.508 -0.412,-2.106c-0.275,-0.598 -0.66,-1.077 -1.154,-1.437c-0.494,-0.36 -1.059,-0.629 -1.694,-0.806c-0.634,-0.177 -1.58,-0.369 -2.838,-0.577c-1.22,-0.195 -2.176,-0.372 -2.865,-0.531c-0.69,-0.159 -1.377,-0.403 -2.06,-0.732c-0.684,-0.33 -1.255,-0.748 -1.712,-1.255c-0.458,-0.506 -0.824,-1.129 -1.099,-1.867c-0.275,-0.739 -0.412,-1.529 -0.412,-2.371c0,-2.283 0.794,-4.154 2.38,-5.613c1.587,-1.458 3.717,-2.188 6.391,-2.188c1.062,0 2.218,0.132 3.47,0.394c1.251,0.262 2.389,0.65 3.415,1.163l0.128,0.219c-0.269,1.123 -0.434,2.723 -0.495,4.798l-0.164,0.146l-0.953,0l-0.146,-0.128c-0.024,-1.465 -0.061,-2.386 -0.11,-2.765c-0.049,-0.378 -0.604,-0.848 -1.666,-1.41c-1.062,-0.561 -2.216,-0.842 -3.461,-0.842c-1.037,-0 -2.008,0.208 -2.911,0.623c-0.904,0.415 -1.587,1.068 -2.051,1.959c-0.464,0.891 -0.696,1.8 -0.696,2.728c0,0.72 0.141,1.358 0.421,1.914c0.281,0.555 0.644,0.994 1.09,1.318c0.445,0.323 0.964,0.564 1.556,0.723c0.592,0.159 1.676,0.354 3.25,0.586c2.161,0.305 3.733,0.675 4.715,1.108c0.983,0.433 1.77,1.12 2.362,2.06c0.592,0.94 0.888,2.075 0.888,3.406c0,2.6 -1.059,4.766 -3.177,6.5c-2.117,1.733 -4.684,2.6 -7.699,2.6c-2.527,-0 -4.743,-0.452 -6.647,-1.355l-0.11,-0.238c0.122,-0.769 0.214,-2.564 0.275,-5.383Z" style="fill-rule:nonzero;"/>
        <path d="M308.719,29.864l-0.733,1.227c-1.574,0.867 -3.332,1.3 -5.273,1.3c-2.686,0 -4.761,-0.8 -6.226,-2.399c-1.464,-1.599 -2.197,-3.662 -2.197,-6.189c0,-1.147 0.125,-2.169 0.375,-3.067c0.251,-0.897 0.568,-1.638 0.953,-2.224c0.384,-0.586 0.808,-1.05 1.272,-1.392c0.464,-0.342 1.248,-0.818 2.353,-1.428c1.105,-0.611 1.938,-1.01 2.5,-1.2c0.561,-0.189 1.336,-0.283 2.325,-0.283c1.892,-0 3.442,0.36 4.651,1.08c-0.232,1.379 -0.409,2.917 -0.531,4.614l-0.165,0.147l-0.751,-0l-0.164,-0.165c-0.049,-1.025 -0.116,-1.715 -0.202,-2.069c-0.085,-0.354 -0.571,-0.733 -1.456,-1.135c-0.885,-0.403 -1.828,-0.605 -2.829,-0.605c-1.001,0 -1.892,0.211 -2.673,0.632c-0.781,0.421 -1.37,1.111 -1.767,2.069c-0.397,0.958 -0.595,2.103 -0.595,3.433c0,1.123 0.159,2.219 0.476,3.287c0.317,1.068 0.736,1.953 1.254,2.655c0.519,0.702 1.206,1.267 2.06,1.694c0.855,0.427 1.807,0.641 2.857,0.641c0.659,-0 1.303,-0.086 1.932,-0.257c0.628,-0.171 1.351,-0.451 2.169,-0.842l0.385,0.476Z" style="fill-rule:nonzero;"/>
        <path d="M325.656,29.132l-0.586,1.318c-1.269,0.818 -2.402,1.349 -3.396,1.593c-0.995,0.244 -1.883,0.366 -2.665,0.366c-1.464,0 -2.853,-0.287 -4.165,-0.86c-1.313,-0.574 -2.381,-1.544 -3.205,-2.912c-0.824,-1.367 -1.236,-3.015 -1.236,-4.943c0,-1.282 0.159,-2.439 0.476,-3.47c0.318,-1.032 0.651,-1.798 0.998,-2.298c0.348,-0.501 0.937,-1.056 1.767,-1.667c0.83,-0.61 1.709,-1.098 2.637,-1.464c0.928,-0.367 1.929,-0.55 3.003,-0.55c1.465,0 2.756,0.345 3.873,1.035c1.117,0.69 1.901,1.571 2.353,2.646c0.451,1.074 0.677,2.215 0.677,3.424c0,0.378 -0.018,0.744 -0.055,1.098l-0.201,0.202c-0.83,0.183 -1.947,0.305 -3.351,0.366c-1.404,0.061 -2.332,0.092 -2.783,0.092l-5.878,-0c0.024,2.526 0.659,4.388 1.904,5.584c1.245,1.197 2.771,1.795 4.578,1.795c0.854,-0 1.675,-0.147 2.463,-0.44c0.787,-0.293 1.62,-0.702 2.499,-1.227l0.293,0.312Zm-11.737,-7.489c0.22,0.036 1.065,0.079 2.536,0.128c1.471,0.049 2.56,0.073 3.268,0.073c1.697,0 2.729,-0.03 3.095,-0.091c0.012,-0.293 0.018,-0.519 0.018,-0.678c0,-1.892 -0.384,-3.299 -1.153,-4.22c-0.769,-0.922 -1.819,-1.383 -3.15,-1.383c-1.452,0 -2.585,0.519 -3.396,1.556c-0.812,1.038 -1.218,2.576 -1.218,4.615Z" style="fill-rule:nonzero;"/>
        <path d="M333.694,14.373l0.348,0.238c-0.073,0.818 -0.122,1.893 -0.146,3.223c0.976,-0.806 1.904,-1.623 2.783,-2.453c0.256,-0.232 0.497,-0.403 0.723,-0.513c0.226,-0.11 0.602,-0.226 1.126,-0.348c0.525,-0.122 1.062,-0.183 1.612,-0.183c0.927,-0 1.828,0.189 2.701,0.567c0.872,0.379 1.532,0.827 1.977,1.346c0.446,0.519 0.754,1.132 0.925,1.84c0.171,0.709 0.256,1.581 0.256,2.619l0,3.223c0,0.207 0.031,1.727 0.092,4.559c0.024,1.16 0.152,1.849 0.384,2.069c0.232,0.22 0.989,0.33 2.271,0.33l0.146,0.146l0,0.787l-0.146,0.147c-1.551,-0.098 -2.6,-0.147 -3.15,-0.147c-0.317,0 -1.208,0.049 -2.673,0.147l-0.22,-0.202c0.159,-1.586 0.238,-3.656 0.238,-6.207l0,-2.398c0,-1.441 -0.033,-2.479 -0.1,-3.113c-0.068,-0.635 -0.272,-1.212 -0.614,-1.731c-0.342,-0.518 -0.799,-0.921 -1.373,-1.208c-0.574,-0.287 -1.257,-0.43 -2.051,-0.43c-0.635,-0 -1.178,0.064 -1.63,0.192c-0.451,0.128 -0.958,0.39 -1.519,0.787c-0.562,0.397 -0.977,0.769 -1.245,1.117c-0.269,0.348 -0.431,0.672 -0.486,0.971c-0.055,0.299 -0.082,0.936 -0.082,1.913l-0,3.186c-0,0.269 0.024,1.132 0.073,2.591c0.049,1.459 0.101,2.31 0.156,2.554c0.055,0.244 0.137,0.421 0.247,0.531c0.11,0.11 0.244,0.18 0.403,0.211c0.159,0.03 0.818,0.082 1.977,0.156l0.165,0.146l0,0.769l-0.146,0.165c-1.526,-0.098 -2.997,-0.147 -4.413,-0.147c-1.404,0 -2.869,0.049 -4.395,0.147l-0.165,-0.165l0,-0.769l0.165,-0.146c1.184,-0.074 1.853,-0.129 2.005,-0.165c0.153,-0.037 0.287,-0.113 0.403,-0.229c0.116,-0.116 0.195,-0.293 0.238,-0.531c0.043,-0.238 0.092,-1.026 0.147,-2.362c0.055,-1.337 0.082,-2.347 0.082,-3.031l0,-3.607c0,-0.488 -0.024,-1.153 -0.073,-1.996c-0.049,-0.842 -0.089,-1.361 -0.119,-1.556c-0.031,-0.195 -0.125,-0.339 -0.284,-0.43c-0.159,-0.092 -0.476,-0.138 -0.952,-0.138l-1.538,-0.018l-0.165,-0.146l-0,-0.788l0.146,-0.146c2.332,-0.281 4.297,-0.739 5.896,-1.374Z" style="fill-rule:nonzero;"/>
        <path d="M365.445,29.132l-0.586,1.318c-1.27,0.818 -2.402,1.349 -3.397,1.593c-0.995,0.244 -1.883,0.366 -2.664,0.366c-1.465,0 -2.853,-0.287 -4.165,-0.86c-1.313,-0.574 -2.381,-1.544 -3.205,-2.912c-0.824,-1.367 -1.236,-3.015 -1.236,-4.943c0,-1.282 0.159,-2.439 0.476,-3.47c0.318,-1.032 0.65,-1.798 0.998,-2.298c0.348,-0.501 0.937,-1.056 1.767,-1.667c0.83,-0.61 1.709,-1.098 2.637,-1.464c0.928,-0.367 1.929,-0.55 3.003,-0.55c1.465,0 2.756,0.345 3.873,1.035c1.116,0.69 1.901,1.571 2.352,2.646c0.452,1.074 0.678,2.215 0.678,3.424c-0,0.378 -0.018,0.744 -0.055,1.098l-0.201,0.202c-0.831,0.183 -1.947,0.305 -3.351,0.366c-1.404,0.061 -2.332,0.092 -2.783,0.092l-5.878,-0c0.024,2.526 0.659,4.388 1.904,5.584c1.245,1.197 2.771,1.795 4.578,1.795c0.854,-0 1.675,-0.147 2.463,-0.44c0.787,-0.293 1.62,-0.702 2.499,-1.227l0.293,0.312Zm-11.737,-7.489c0.22,0.036 1.065,0.079 2.536,0.128c1.471,0.049 2.56,0.073 3.268,0.073c1.697,0 2.729,-0.03 3.095,-0.091c0.012,-0.293 0.018,-0.519 0.018,-0.678c0,-1.892 -0.384,-3.299 -1.153,-4.22c-0.77,-0.922 -1.819,-1.383 -3.15,-1.383c-1.453,0 -2.585,0.519 -3.396,1.556c-0.812,1.038 -1.218,2.576 -1.218,4.615Z" style="fill-rule:nonzero;"/>
        <path d="M95.56,106.265c-0,0 60.182,66.069 118.449,9.148c58.266,-56.92 176.417,-97.578 255.577,6.099" style="fill:none;stroke:black;stroke-width:5.53px;"/>
    </g>
</svg>
