<?xml version="1.0" encoding="UTF-8" standalone="no"?>
<!DOCTYPE svg PUBLIC "-//W3C//DTD SVG 1.1//EN" "http://www.w3.org/Graphics/SVG/1.1/DTD/svg11.dtd">
<svg width="100%" height="100%" viewBox="0 0 1058 254" version="1.1" xmlns="http://www.w3.org/2000/svg" xmlns:xlink="http://www.w3.org/1999/xlink" xml:space="preserve" xmlns:serif="http://www.serif.com/" style="fill-rule:evenodd;clip-rule:evenodd;stroke-linecap:round;stroke-miterlimit:1.5;">
    <g id="_1_Classic" serif:id="1_Classic">
        <g>
            <rect x="572.15" y="65.085" width="272.43" height="171.93" style="fill:white;"/>
            <rect x="572.15" y="65.085" width="30.27" height="15.63" style="fill:rgb(237,18,27);stroke:black;stroke-width:1.31px;"/>
            <rect x="602.421" y="65.085" width="30.27" height="15.63" style="fill:rgb(255,95,0);stroke:black;stroke-width:1.31px;"/>
            <rect x="632.691" y="65.085" width="30.27" height="15.63" style="fill:rgb(255,156,0);stroke:black;stroke-width:1.31px;"/>
            <rect x="662.961" y="65.085" width="30.27" height="15.63" style="fill:rgb(255,225,0);stroke:black;stroke-width:1.31px;"/>
            <rect x="693.231" y="65.085" width="30.27" height="15.63" style="fill:rgb(207,255,0);fill-opacity:0.66;stroke:black;stroke-width:1.31px;"/>
            <rect x="723.501" y="65.085" width="30.27" height="15.63" style="fill:rgb(0,255,26);fill-opacity:0.3;stroke:black;stroke-width:1.31px;"/>
            <rect x="753.771" y="65.085" width="30.27" height="15.63" style="fill:rgb(0,216,255);fill-opacity:0.3;stroke:black;stroke-width:1.31px;"/>
            <rect x="784.041" y="65.085" width="30.27" height="15.63" style="fill:rgb(0,52,255);fill-opacity:0.3;stroke:black;stroke-width:1.31px;"/>
            <rect x="814.311" y="65.085" width="30.27" height="15.63" style="fill:rgb(156,0,255);fill-opacity:0.3;stroke:black;stroke-width:1.31px;"/>
            <rect x="572.15" y="158.865" width="30.27" height="15.63" style="fill:rgb(237,18,27);fill-opacity:0.44;stroke:black;stroke-width:1.31px;"/>
            <rect x="602.421" y="158.865" width="30.27" height="15.63" style="fill:rgb(255,95,0);fill-opacity:0.44;stroke:black;stroke-width:1.31px;"/>
            <rect x="632.691" y="158.865" width="30.27" height="15.63" style="fill:rgb(255,156,0);fill-opacity:0.44;stroke:black;stroke-width:1.31px;"/>
            <rect x="662.961" y="158.865" width="30.27" height="15.63" style="fill:rgb(255,225,0);fill-opacity:0.44;stroke:black;stroke-width:1.31px;"/>
            <rect x="693.231" y="158.865" width="30.27" height="15.63" style="fill:rgb(207,255,0);fill-opacity:0.44;stroke:black;stroke-width:1.31px;"/>
            <rect x="723.501" y="158.865" width="30.27" height="15.63" style="fill:rgb(0,255,26);fill-opacity:0.44;stroke:black;stroke-width:1.31px;"/>
            <rect x="753.771" y="158.865" width="30.27" height="15.63" style="fill:rgb(0,216,255);fill-opacity:0.7;stroke:black;stroke-width:1.31px;"/>
            <rect x="784.041" y="158.865" width="30.27" height="15.63" style="fill:rgb(0,52,255);fill-opacity:0.7;stroke:black;stroke-width:1.31px;"/>
            <rect x="814.311" y="158.865" width="30.27" height="15.63" style="fill:rgb(156,0,255);fill-opacity:0.7;stroke:black;stroke-width:1.31px;"/>
            <rect x="572.15" y="111.975" width="30.27" height="15.63" style="fill:rgb(237,18,27);fill-opacity:0.37;stroke:black;stroke-width:1.31px;"/>
            <rect x="602.421" y="111.975" width="30.27" height="15.63" style="fill:rgb(255,95,0);fill-opacity:0.37;stroke:black;stroke-width:1.31px;"/>
            <rect x="632.691" y="111.975" width="30.27" height="15.63" style="fill:rgb(255,156,0);fill-opacity:0.37;stroke:black;stroke-width:1.31px;"/>
            <rect x="662.961" y="111.975" width="30.27" height="15.63" style="fill:rgb(255,225,0);fill-opacity:0.37;stroke:black;stroke-width:1.31px;"/>
            <rect x="693.231" y="111.975" width="30.27" height="15.63" style="fill:rgb(207,255,0);fill-opacity:0.37;stroke:black;stroke-width:1.31px;"/>
            <rect x="723.501" y="111.975" width="30.27" height="15.63" style="fill:rgb(0,255,26);fill-opacity:0.85;stroke:black;stroke-width:1.31px;"/>
            <rect x="753.771" y="111.975" width="30.27" height="15.63" style="fill:rgb(0,216,255);fill-opacity:0.85;stroke:black;stroke-width:1.31px;"/>
            <rect x="784.041" y="111.975" width="30.27" height="15.63" style="fill:rgb(0,52,255);fill-opacity:0.85;stroke:black;stroke-width:1.31px;"/>
            <rect x="814.311" y="111.975" width="30.27" height="15.63" style="fill:rgb(156,0,255);fill-opacity:0.85;stroke:black;stroke-width:1.31px;"/>
            <rect x="572.15" y="205.755" width="30.27" height="15.63" style="fill:rgb(237,18,27);fill-opacity:0.37;stroke:black;stroke-width:1.31px;"/>
            <rect x="602.421" y="205.755" width="30.27" height="15.63" style="fill:rgb(255,95,0);fill-opacity:0.37;stroke:black;stroke-width:1.31px;"/>
            <rect x="632.691" y="205.755" width="30.27" height="15.63" style="fill:rgb(255,156,0);fill-opacity:0.37;stroke:black;stroke-width:1.31px;"/>
            <rect x="662.961" y="205.755" width="30.27" height="15.63" style="fill:rgb(255,225,0);fill-opacity:0.37;stroke:black;stroke-width:1.31px;"/>
            <rect x="693.231" y="205.755" width="30.27" height="15.63" style="fill:rgb(207,255,0);fill-opacity:0.37;stroke:black;stroke-width:1.31px;"/>
            <rect x="723.501" y="205.755" width="30.27" height="15.63" style="fill:rgb(0,255,26);fill-opacity:0.55;stroke:black;stroke-width:1.31px;"/>
            <rect x="753.771" y="205.755" width="30.27" height="15.63" style="fill:rgb(0,216,255);fill-opacity:0.55;stroke:black;stroke-width:1.31px;"/>
            <rect x="784.041" y="205.755" width="30.27" height="15.63" style="fill:rgb(0,52,255);fill-opacity:0.55;stroke:black;stroke-width:1.31px;"/>
            <rect x="814.311" y="205.755" width="30.27" height="15.63" style="fill:rgb(156,0,255);fill-opacity:0.55;stroke:black;stroke-width:1.31px;"/>
            <rect x="572.15" y="80.715" width="30.27" height="15.63" style="fill:rgb(237,18,27);fill-opacity:0.37;stroke:black;stroke-width:1.31px;"/>
            <rect x="602.421" y="80.715" width="30.27" height="15.63" style="fill:rgb(255,95,0);fill-opacity:0.37;stroke:black;stroke-width:1.31px;"/>
            <rect x="632.691" y="80.715" width="30.27" height="15.63" style="fill:rgb(255,156,0);fill-opacity:0.37;stroke:black;stroke-width:1.31px;"/>
            <rect x="662.961" y="80.715" width="30.27" height="15.63" style="fill:rgb(255,225,0);fill-opacity:0.37;stroke:black;stroke-width:1.31px;"/>
            <rect x="693.231" y="80.715" width="30.27" height="15.63" style="fill:rgb(207,255,0);fill-opacity:0.37;stroke:black;stroke-width:1.31px;"/>
            <rect x="723.501" y="80.715" width="30.27" height="15.63" style="fill:rgb(0,255,26);fill-opacity:0.95;stroke:black;stroke-width:1.31px;"/>
            <rect x="753.771" y="80.715" width="30.27" height="15.63" style="fill:rgb(0,216,255);fill-opacity:0.8;stroke:black;stroke-width:1.31px;"/>
            <rect x="784.041" y="80.715" width="30.27" height="15.63" style="fill:rgb(0,52,255);fill-opacity:0.8;stroke:black;stroke-width:1.31px;"/>
            <rect x="814.311" y="80.715" width="30.27" height="15.63" style="fill:rgb(156,0,255);fill-opacity:0.8;stroke:black;stroke-width:1.31px;"/>
            <rect x="572.15" y="174.495" width="30.27" height="15.63" style="fill:rgb(237,18,27);fill-opacity:0.37;stroke:black;stroke-width:1.31px;"/>
            <rect x="602.421" y="174.495" width="30.27" height="15.63" style="fill:rgb(255,95,0);fill-opacity:0.37;stroke:black;stroke-width:1.31px;"/>
            <rect x="632.691" y="174.495" width="30.27" height="15.63" style="fill:rgb(255,156,0);fill-opacity:0.37;stroke:black;stroke-width:1.31px;"/>
            <rect x="662.961" y="174.495" width="30.27" height="15.63" style="fill:rgb(255,225,0);fill-opacity:0.37;stroke:black;stroke-width:1.31px;"/>
            <rect x="693.231" y="174.495" width="30.27" height="15.63" style="fill:rgb(207,255,0);fill-opacity:0.37;stroke:black;stroke-width:1.31px;"/>
            <rect x="723.501" y="174.495" width="30.27" height="15.63" style="fill:rgb(0,255,26);fill-opacity:0.65;stroke:black;stroke-width:1.31px;"/>
            <rect x="753.771" y="174.495" width="30.27" height="15.63" style="fill:rgb(0,216,255);fill-opacity:0.65;stroke:black;stroke-width:1.31px;"/>
            <rect x="784.041" y="174.495" width="30.27" height="15.63" style="fill:rgb(0,52,255);fill-opacity:0.65;stroke:black;stroke-width:1.31px;"/>
            <rect x="814.311" y="174.495" width="30.27" height="15.63" style="fill:rgb(156,0,255);fill-opacity:0.65;stroke:black;stroke-width:1.31px;"/>
            <rect x="572.15" y="127.605" width="30.27" height="15.63" style="fill:rgb(237,18,27);fill-opacity:0.8;stroke:black;stroke-width:1.31px;"/>
            <rect x="602.421" y="127.605" width="30.27" height="15.63" style="fill:rgb(255,95,0);fill-opacity:0.8;stroke:black;stroke-width:1.31px;"/>
            <rect x="632.691" y="127.605" width="30.27" height="15.63" style="fill:rgb(255,156,0);fill-opacity:0.8;stroke:black;stroke-width:1.31px;"/>
            <rect x="662.961" y="127.605" width="30.27" height="15.63" style="fill:rgb(255,225,0);fill-opacity:0.8;stroke:black;stroke-width:1.31px;"/>
            <rect x="693.231" y="127.605" width="30.27" height="15.63" style="fill:rgb(207,255,0);fill-opacity:0.8;stroke:black;stroke-width:1.31px;"/>
            <rect x="723.501" y="127.605" width="30.27" height="15.63" style="fill:rgb(0,255,26);fill-opacity:0.3;stroke:black;stroke-width:1.31px;"/>
            <rect x="753.771" y="127.605" width="30.27" height="15.63" style="fill:rgb(0,216,255);fill-opacity:0.3;stroke:black;stroke-width:1.31px;"/>
            <rect x="784.041" y="127.605" width="30.27" height="15.63" style="fill:rgb(0,52,255);fill-opacity:0.3;stroke:black;stroke-width:1.31px;"/>
            <rect x="814.311" y="127.605" width="30.27" height="15.63" style="fill:rgb(156,0,255);fill-opacity:0.3;stroke:black;stroke-width:1.31px;"/>
            <rect x="572.15" y="221.385" width="30.27" height="15.63" style="fill:rgb(237,18,27);fill-opacity:0.44;stroke:black;stroke-width:1.31px;"/>
            <rect x="602.421" y="221.385" width="30.27" height="15.63" style="fill:rgb(255,95,0);fill-opacity:0.44;stroke:black;stroke-width:1.31px;"/>
            <rect x="632.691" y="221.385" width="30.27" height="15.63" style="fill:rgb(255,156,0);fill-opacity:0.44;stroke:black;stroke-width:1.31px;"/>
            <rect x="662.961" y="221.385" width="30.27" height="15.63" style="fill:rgb(255,225,0);fill-opacity:0.44;stroke:black;stroke-width:1.31px;"/>
            <rect x="693.231" y="221.385" width="30.27" height="15.63" style="fill:rgb(207,255,0);fill-opacity:0.44;stroke:black;stroke-width:1.31px;"/>
            <rect x="723.501" y="221.385" width="30.27" height="15.63" style="fill:rgb(0,255,26);fill-opacity:0.44;stroke:black;stroke-width:1.31px;"/>
            <rect x="753.771" y="221.385" width="30.27" height="15.63" style="fill:rgb(0,216,255);fill-opacity:0.5;stroke:black;stroke-width:1.31px;"/>
            <rect x="784.041" y="221.385" width="30.27" height="15.63" style="fill:rgb(0,52,255);fill-opacity:0.5;stroke:black;stroke-width:1.31px;"/>
            <rect x="814.311" y="221.385" width="30.27" height="15.63" style="fill:rgb(156,0,255);fill-opacity:0.5;stroke:black;stroke-width:1.31px;"/>
            <rect x="572.15" y="96.345" width="30.27" height="15.63" style="fill:rgb(237,18,27);fill-opacity:0.44;stroke:black;stroke-width:1.31px;"/>
            <rect x="602.421" y="96.345" width="30.27" height="15.63" style="fill:rgb(255,95,0);fill-opacity:0.44;stroke:black;stroke-width:1.31px;"/>
            <rect x="632.691" y="96.345" width="30.27" height="15.63" style="fill:rgb(255,156,0);fill-opacity:0.44;stroke:black;stroke-width:1.31px;"/>
            <rect x="662.961" y="96.345" width="30.27" height="15.63" style="fill:rgb(255,225,0);fill-opacity:0.44;stroke:black;stroke-width:1.31px;"/>
            <rect x="693.231" y="96.345" width="30.27" height="15.63" style="fill:rgb(207,255,0);fill-opacity:0.44;stroke:black;stroke-width:1.31px;"/>
            <rect x="723.501" y="96.345" width="30.27" height="15.63" style="fill:rgb(0,255,26);fill-opacity:0.9;stroke:black;stroke-width:1.31px;"/>
            <rect x="753.771" y="96.345" width="30.27" height="15.63" style="fill:rgb(0,216,255);fill-opacity:0.9;stroke:black;stroke-width:1.31px;"/>
            <rect x="784.041" y="96.345" width="30.27" height="15.63" style="fill:rgb(0,52,255);fill-opacity:0.9;stroke:black;stroke-width:1.31px;"/>
            <rect x="814.311" y="96.345" width="30.27" height="15.63" style="fill:rgb(156,0,255);fill-opacity:0.9;stroke:black;stroke-width:1.31px;"/>
            <rect x="572.15" y="190.125" width="30.27" height="15.63" style="fill:rgb(237,18,27);fill-opacity:0.6;stroke:black;stroke-width:1.31px;"/>
            <rect x="602.421" y="190.125" width="30.27" height="15.63" style="fill:rgb(255,95,0);fill-opacity:0.6;stroke:black;stroke-width:1.31px;"/>
            <rect x="632.691" y="190.125" width="30.27" height="15.63" style="fill:rgb(255,156,0);fill-opacity:0.6;stroke:black;stroke-width:1.31px;"/>
            <rect x="662.961" y="190.125" width="30.27" height="15.63" style="fill:rgb(255,225,0);fill-opacity:0.6;stroke:black;stroke-width:1.31px;"/>
            <rect x="693.231" y="190.125" width="30.27" height="15.63" style="fill:rgb(207,255,0);fill-opacity:0.6;stroke:black;stroke-width:1.31px;"/>
            <rect x="723.501" y="190.125" width="30.27" height="15.63" style="fill:rgb(0,255,26);fill-opacity:0.3;stroke:black;stroke-width:1.31px;"/>
            <rect x="753.771" y="190.125" width="30.27" height="15.63" style="fill:rgb(0,216,255);fill-opacity:0.3;stroke:black;stroke-width:1.31px;"/>
            <rect x="784.041" y="190.125" width="30.27" height="15.63" style="fill:rgb(0,52,255);fill-opacity:0.3;stroke:black;stroke-width:1.31px;"/>
            <rect x="814.311" y="190.125" width="30.27" height="15.63" style="fill:rgb(156,0,255);fill-opacity:0.3;stroke:black;stroke-width:1.31px;"/>
            <rect x="572.15" y="143.235" width="30.27" height="15.63" style="fill:rgb(237,18,27);fill-opacity:0.37;stroke:black;stroke-width:1.31px;"/>
            <rect x="602.421" y="143.235" width="30.27" height="15.63" style="fill:rgb(255,95,0);fill-opacity:0.37;stroke:black;stroke-width:1.31px;"/>
            <rect x="632.691" y="143.235" width="30.27" height="15.63" style="fill:rgb(255,156,0);fill-opacity:0.37;stroke:black;stroke-width:1.31px;"/>
            <rect x="662.961" y="143.235" width="30.27" height="15.63" style="fill:rgb(255,225,0);fill-opacity:0.37;stroke:black;stroke-width:1.31px;"/>
            <rect x="693.231" y="143.235" width="30.27" height="15.63" style="fill:rgb(207,255,0);fill-opacity:0.37;stroke:black;stroke-width:1.31px;"/>
            <rect x="723.501" y="143.235" width="30.27" height="15.63" style="fill:rgb(0,255,26);fill-opacity:0.75;stroke:black;stroke-width:1.31px;"/>
            <rect x="753.771" y="143.235" width="30.27" height="15.63" style="fill:rgb(0,216,255);fill-opacity:0.75;stroke:black;stroke-width:1.31px;"/>
            <rect x="784.041" y="143.235" width="30.27" height="15.63" style="fill:rgb(0,52,255);fill-opacity:0.75;stroke:black;stroke-width:1.31px;"/>
            <rect x="814.311" y="143.235" width="30.27" height="15.63" style="fill:rgb(156,0,255);fill-opacity:0.75;stroke:black;stroke-width:1.31px;"/>
        </g>
        <g>
            <rect x="1015.85" y="65.085" width="30.27" height="171.93" style="fill:white;"/>
            <rect x="1015.85" y="65.085" width="30.27" height="15.63" style="fill:rgb(237,18,27);stroke:black;stroke-width:1.31px;"/>
            <rect x="1015.85" y="65.085" width="30.27" height="15.63" style="fill:rgb(255,95,0);stroke:black;stroke-width:1.31px;"/>
            <rect x="1015.85" y="65.085" width="30.27" height="15.63" style="fill:rgb(255,156,0);stroke:black;stroke-width:1.31px;"/>
            <rect x="1015.85" y="65.085" width="30.27" height="15.63" style="fill:rgb(255,225,0);stroke:black;stroke-width:1.31px;"/>
            <rect x="1015.85" y="65.085" width="30.27" height="15.63" style="fill:rgb(156,0,255);fill-opacity:0.3;stroke:black;stroke-width:1.31px;"/>
            <rect x="1015.85" y="158.865" width="30.27" height="15.63" style="fill:rgb(237,18,27);fill-opacity:0.44;stroke:black;stroke-width:1.31px;"/>
            <rect x="1015.85" y="158.865" width="30.27" height="15.63" style="fill:rgb(255,95,0);fill-opacity:0.44;stroke:black;stroke-width:1.31px;"/>
            <rect x="1015.85" y="158.865" width="30.27" height="15.63" style="fill:rgb(255,156,0);fill-opacity:0.44;stroke:black;stroke-width:1.31px;"/>
            <rect x="1015.85" y="158.865" width="30.27" height="15.63" style="fill:rgb(255,225,0);fill-opacity:0.44;stroke:black;stroke-width:1.31px;"/>
            <rect x="1015.85" y="158.865" width="30.27" height="15.63" style="fill:rgb(156,0,255);fill-opacity:0.7;stroke:black;stroke-width:1.31px;"/>
            <rect x="1015.85" y="111.975" width="30.27" height="15.63" style="fill:rgb(237,18,27);fill-opacity:0.37;stroke:black;stroke-width:1.31px;"/>
            <rect x="1015.85" y="111.975" width="30.27" height="15.63" style="fill:rgb(255,95,0);fill-opacity:0.37;stroke:black;stroke-width:1.31px;"/>
            <rect x="1015.85" y="111.975" width="30.27" height="15.63" style="fill:rgb(255,156,0);fill-opacity:0.37;stroke:black;stroke-width:1.31px;"/>
            <rect x="1015.85" y="111.975" width="30.27" height="15.63" style="fill:rgb(255,225,0);fill-opacity:0.37;stroke:black;stroke-width:1.31px;"/>
            <rect x="1015.85" y="111.975" width="30.27" height="15.63" style="fill:rgb(156,0,255);fill-opacity:0.85;stroke:black;stroke-width:1.31px;"/>
            <rect x="1015.85" y="205.755" width="30.27" height="15.63" style="fill:rgb(237,18,27);fill-opacity:0.37;stroke:black;stroke-width:1.31px;"/>
            <rect x="1015.85" y="205.755" width="30.27" height="15.63" style="fill:rgb(255,95,0);fill-opacity:0.37;stroke:black;stroke-width:1.31px;"/>
            <rect x="1015.85" y="205.755" width="30.27" height="15.63" style="fill:rgb(255,156,0);fill-opacity:0.37;stroke:black;stroke-width:1.31px;"/>
            <rect x="1015.85" y="205.755" width="30.27" height="15.63" style="fill:rgb(255,225,0);fill-opacity:0.37;stroke:black;stroke-width:1.31px;"/>
            <rect x="1015.85" y="205.755" width="30.27" height="15.63" style="fill:rgb(156,0,255);fill-opacity:0.55;stroke:black;stroke-width:1.31px;"/>
            <rect x="1015.85" y="80.715" width="30.27" height="15.63" style="fill:rgb(237,18,27);fill-opacity:0.37;stroke:black;stroke-width:1.31px;"/>
            <rect x="1015.85" y="80.715" width="30.27" height="15.63" style="fill:rgb(255,95,0);fill-opacity:0.37;stroke:black;stroke-width:1.31px;"/>
            <rect x="1015.85" y="80.715" width="30.27" height="15.63" style="fill:rgb(255,156,0);fill-opacity:0.37;stroke:black;stroke-width:1.31px;"/>
            <rect x="1015.85" y="80.715" width="30.27" height="15.63" style="fill:rgb(255,225,0);fill-opacity:0.37;stroke:black;stroke-width:1.31px;"/>
            <rect x="1015.85" y="80.715" width="30.27" height="15.63" style="fill:rgb(156,0,255);fill-opacity:0.8;stroke:black;stroke-width:1.31px;"/>
            <rect x="1015.85" y="174.495" width="30.27" height="15.63" style="fill:rgb(237,18,27);fill-opacity:0.37;stroke:black;stroke-width:1.31px;"/>
            <rect x="1015.85" y="174.495" width="30.27" height="15.63" style="fill:rgb(255,95,0);fill-opacity:0.37;stroke:black;stroke-width:1.31px;"/>
            <rect x="1015.85" y="174.495" width="30.27" height="15.63" style="fill:rgb(255,156,0);fill-opacity:0.37;stroke:black;stroke-width:1.31px;"/>
            <rect x="1015.85" y="174.495" width="30.27" height="15.63" style="fill:rgb(255,225,0);fill-opacity:0.37;stroke:black;stroke-width:1.31px;"/>
            <rect x="1015.85" y="174.495" width="30.27" height="15.63" style="fill:rgb(156,0,255);fill-opacity:0.65;stroke:black;stroke-width:1.31px;"/>
            <rect x="1015.85" y="127.605" width="30.27" height="15.63" style="fill:rgb(237,18,27);fill-opacity:0.8;stroke:black;stroke-width:1.31px;"/>
            <rect x="1015.85" y="127.605" width="30.27" height="15.63" style="fill:rgb(255,95,0);fill-opacity:0.8;stroke:black;stroke-width:1.31px;"/>
            <rect x="1015.85" y="127.605" width="30.27" height="15.63" style="fill:rgb(255,156,0);fill-opacity:0.8;stroke:black;stroke-width:1.31px;"/>
            <rect x="1015.85" y="127.605" width="30.27" height="15.63" style="fill:rgb(255,225,0);fill-opacity:0.8;stroke:black;stroke-width:1.31px;"/>
            <rect x="1015.85" y="127.605" width="30.27" height="15.63" style="fill:rgb(156,0,255);fill-opacity:0.3;stroke:black;stroke-width:1.31px;"/>
            <rect x="1015.85" y="221.385" width="30.27" height="15.63" style="fill:rgb(237,18,27);fill-opacity:0.44;stroke:black;stroke-width:1.31px;"/>
            <rect x="1015.85" y="221.385" width="30.27" height="15.63" style="fill:rgb(255,95,0);fill-opacity:0.44;stroke:black;stroke-width:1.31px;"/>
            <rect x="1015.85" y="221.385" width="30.27" height="15.63" style="fill:rgb(255,156,0);fill-opacity:0.44;stroke:black;stroke-width:1.31px;"/>
            <rect x="1015.85" y="221.385" width="30.27" height="15.63" style="fill:rgb(255,225,0);fill-opacity:0.44;stroke:black;stroke-width:1.31px;"/>
            <rect x="1015.85" y="221.385" width="30.27" height="15.63" style="fill:rgb(156,0,255);fill-opacity:0.5;stroke:black;stroke-width:1.31px;"/>
            <rect x="1015.85" y="96.345" width="30.27" height="15.63" style="fill:rgb(237,18,27);fill-opacity:0.44;stroke:black;stroke-width:1.31px;"/>
            <rect x="1015.85" y="96.345" width="30.27" height="15.63" style="fill:rgb(255,95,0);fill-opacity:0.44;stroke:black;stroke-width:1.31px;"/>
            <rect x="1015.85" y="96.345" width="30.27" height="15.63" style="fill:rgb(255,156,0);fill-opacity:0.44;stroke:black;stroke-width:1.31px;"/>
            <rect x="1015.85" y="96.345" width="30.27" height="15.63" style="fill:rgb(255,225,0);fill-opacity:0.44;stroke:black;stroke-width:1.31px;"/>
            <rect x="1015.85" y="96.345" width="30.27" height="15.63" style="fill:rgb(156,0,255);fill-opacity:0.9;stroke:black;stroke-width:1.31px;"/>
            <rect x="1015.85" y="190.125" width="30.27" height="15.63" style="fill:rgb(237,18,27);fill-opacity:0.6;stroke:black;stroke-width:1.31px;"/>
            <rect x="1015.85" y="190.125" width="30.27" height="15.63" style="fill:rgb(255,95,0);fill-opacity:0.6;stroke:black;stroke-width:1.31px;"/>
            <rect x="1015.85" y="190.125" width="30.27" height="15.63" style="fill:rgb(255,156,0);fill-opacity:0.6;stroke:black;stroke-width:1.31px;"/>
            <rect x="1015.85" y="190.125" width="30.27" height="15.63" style="fill:rgb(255,225,0);fill-opacity:0.6;stroke:black;stroke-width:1.31px;"/>
            <rect x="1015.85" y="190.125" width="30.27" height="15.63" style="fill:rgb(156,0,255);fill-opacity:0.3;stroke:black;stroke-width:1.31px;"/>
            <rect x="1015.85" y="143.235" width="30.27" height="15.63" style="fill:rgb(237,18,27);fill-opacity:0.37;stroke:black;stroke-width:1.31px;"/>
            <rect x="1015.85" y="143.235" width="30.27" height="15.63" style="fill:rgb(255,95,0);fill-opacity:0.37;stroke:black;stroke-width:1.31px;"/>
            <rect x="1015.85" y="143.235" width="30.27" height="15.63" style="fill:rgb(255,156,0);fill-opacity:0.37;stroke:black;stroke-width:1.31px;"/>
            <rect x="1015.85" y="143.235" width="30.27" height="15.63" style="fill:rgb(255,225,0);fill-opacity:0.37;stroke:black;stroke-width:1.31px;"/>
            <rect x="1015.85" y="143.235" width="30.27" height="15.63" style="fill:rgb(156,0,255);fill-opacity:0.75;stroke:black;stroke-width:1.31px;"/>
        </g>
        <g>
            <rect x="51.734" y="65.085" width="272.43" height="171.93" style="fill:white;"/>
            <rect x="51.734" y="65.085" width="30.27" height="15.63" style="fill:rgb(237,18,27);stroke:black;stroke-width:1.31px;"/>
            <rect x="82.004" y="65.085" width="30.27" height="15.63" style="fill:rgb(255,95,0);stroke:black;stroke-width:1.31px;"/>
            <rect x="112.274" y="65.085" width="30.27" height="15.63" style="fill:rgb(255,156,0);stroke:black;stroke-width:1.31px;"/>
            <rect x="142.544" y="65.085" width="30.27" height="15.63" style="fill:rgb(255,225,0);stroke:black;stroke-width:1.31px;"/>
            <rect x="172.814" y="65.085" width="30.27" height="15.63" style="fill:rgb(207,255,0);stroke:black;stroke-width:1.31px;"/>
            <rect x="203.084" y="65.085" width="30.27" height="15.63" style="fill:rgb(0,255,26);stroke:black;stroke-width:1.31px;"/>
            <rect x="233.354" y="65.085" width="30.27" height="15.63" style="fill:rgb(0,216,255);stroke:black;stroke-width:1.31px;"/>
            <rect x="263.624" y="65.085" width="30.27" height="15.63" style="fill:rgb(0,52,255);stroke:black;stroke-width:1.31px;"/>
            <rect x="293.894" y="65.085" width="30.27" height="15.63" style="fill:rgb(156,0,255);stroke:black;stroke-width:1.31px;"/>
            <rect x="51.734" y="158.865" width="30.27" height="15.63" style="fill:rgb(237,18,27);fill-opacity:0.7;stroke:black;stroke-width:1.31px;"/>
            <rect x="82.004" y="158.865" width="30.27" height="15.63" style="fill:rgb(255,95,0);fill-opacity:0.7;stroke:black;stroke-width:1.31px;"/>
            <rect x="112.274" y="158.865" width="30.27" height="15.63" style="fill:rgb(255,156,0);fill-opacity:0.7;stroke:black;stroke-width:1.31px;"/>
            <rect x="142.544" y="158.865" width="30.27" height="15.63" style="fill:rgb(255,225,0);fill-opacity:0.7;stroke:black;stroke-width:1.31px;"/>
            <rect x="172.814" y="158.865" width="30.27" height="15.63" style="fill:rgb(207,255,0);fill-opacity:0.7;stroke:black;stroke-width:1.31px;"/>
            <rect x="203.084" y="158.865" width="30.27" height="15.63" style="fill:rgb(0,255,26);fill-opacity:0.7;stroke:black;stroke-width:1.31px;"/>
            <rect x="233.354" y="158.865" width="30.27" height="15.63" style="fill:rgb(0,216,255);fill-opacity:0.7;stroke:black;stroke-width:1.31px;"/>
            <rect x="263.624" y="158.865" width="30.27" height="15.63" style="fill:rgb(0,52,255);fill-opacity:0.7;stroke:black;stroke-width:1.31px;"/>
            <rect x="293.894" y="158.865" width="30.27" height="15.63" style="fill:rgb(156,0,255);fill-opacity:0.7;stroke:black;stroke-width:1.31px;"/>
            <rect x="51.734" y="111.975" width="30.27" height="15.63" style="fill:rgb(237,18,27);fill-opacity:0.85;stroke:black;stroke-width:1.31px;"/>
            <rect x="82.004" y="111.975" width="30.27" height="15.63" style="fill:rgb(255,95,0);fill-opacity:0.85;stroke:black;stroke-width:1.31px;"/>
            <rect x="112.274" y="111.975" width="30.27" height="15.63" style="fill:rgb(255,156,0);fill-opacity:0.85;stroke:black;stroke-width:1.31px;"/>
            <rect x="142.544" y="111.975" width="30.27" height="15.63" style="fill:rgb(255,225,0);fill-opacity:0.85;stroke:black;stroke-width:1.31px;"/>
            <rect x="172.814" y="111.975" width="30.27" height="15.63" style="fill:rgb(207,255,0);fill-opacity:0.85;stroke:black;stroke-width:1.31px;"/>
            <rect x="203.084" y="111.975" width="30.27" height="15.63" style="fill:rgb(0,255,26);fill-opacity:0.85;stroke:black;stroke-width:1.31px;"/>
            <rect x="233.354" y="111.975" width="30.27" height="15.63" style="fill:rgb(0,216,255);fill-opacity:0.85;stroke:black;stroke-width:1.31px;"/>
            <rect x="263.624" y="111.975" width="30.27" height="15.63" style="fill:rgb(0,52,255);fill-opacity:0.85;stroke:black;stroke-width:1.31px;"/>
            <rect x="293.894" y="111.975" width="30.27" height="15.63" style="fill:rgb(156,0,255);fill-opacity:0.85;stroke:black;stroke-width:1.31px;"/>
            <rect x="51.734" y="205.755" width="30.27" height="15.63" style="fill:rgb(237,18,27);fill-opacity:0.55;stroke:black;stroke-width:1.31px;"/>
            <rect x="82.004" y="205.755" width="30.27" height="15.63" style="fill:rgb(255,95,0);fill-opacity:0.55;stroke:black;stroke-width:1.31px;"/>
            <rect x="112.274" y="205.755" width="30.27" height="15.63" style="fill:rgb(255,156,0);fill-opacity:0.55;stroke:black;stroke-width:1.31px;"/>
            <rect x="142.544" y="205.755" width="30.27" height="15.63" style="fill:rgb(255,225,0);fill-opacity:0.55;stroke:black;stroke-width:1.31px;"/>
            <rect x="172.814" y="205.755" width="30.27" height="15.63" style="fill:rgb(207,255,0);fill-opacity:0.55;stroke:black;stroke-width:1.31px;"/>
            <rect x="203.084" y="205.755" width="30.27" height="15.63" style="fill:rgb(0,255,26);fill-opacity:0.55;stroke:black;stroke-width:1.31px;"/>
            <rect x="233.354" y="205.755" width="30.27" height="15.63" style="fill:rgb(0,216,255);fill-opacity:0.55;stroke:black;stroke-width:1.31px;"/>
            <rect x="263.624" y="205.755" width="30.27" height="15.63" style="fill:rgb(0,52,255);fill-opacity:0.55;stroke:black;stroke-width:1.31px;"/>
            <rect x="293.894" y="205.755" width="30.27" height="15.63" style="fill:rgb(156,0,255);fill-opacity:0.55;stroke:black;stroke-width:1.31px;"/>
            <rect x="51.734" y="80.715" width="30.27" height="15.63" style="fill:rgb(237,18,27);fill-opacity:0.95;stroke:black;stroke-width:1.31px;"/>
            <rect x="82.004" y="80.715" width="30.27" height="15.63" style="fill:rgb(255,95,0);fill-opacity:0.95;stroke:black;stroke-width:1.31px;"/>
            <rect x="112.274" y="80.715" width="30.27" height="15.63" style="fill:rgb(255,156,0);fill-opacity:0.95;stroke:black;stroke-width:1.31px;"/>
            <rect x="142.544" y="80.715" width="30.27" height="15.63" style="fill:rgb(255,225,0);fill-opacity:0.95;stroke:black;stroke-width:1.31px;"/>
            <rect x="172.814" y="80.715" width="30.27" height="15.63" style="fill:rgb(207,255,0);fill-opacity:0.95;stroke:black;stroke-width:1.31px;"/>
            <rect x="203.084" y="80.715" width="30.27" height="15.63" style="fill:rgb(0,255,26);fill-opacity:0.95;stroke:black;stroke-width:1.31px;"/>
            <rect x="233.354" y="80.715" width="30.27" height="15.63" style="fill:rgb(0,216,255);fill-opacity:0.95;stroke:black;stroke-width:1.31px;"/>
            <rect x="263.624" y="80.715" width="30.27" height="15.63" style="fill:rgb(0,52,255);fill-opacity:0.95;stroke:black;stroke-width:1.31px;"/>
            <rect x="293.894" y="80.715" width="30.27" height="15.63" style="fill:rgb(156,0,255);fill-opacity:0.95;stroke:black;stroke-width:1.31px;"/>
            <rect x="51.734" y="174.495" width="30.27" height="15.63" style="fill:rgb(237,18,27);fill-opacity:0.65;stroke:black;stroke-width:1.31px;"/>
            <rect x="82.004" y="174.495" width="30.27" height="15.63" style="fill:rgb(255,95,0);fill-opacity:0.65;stroke:black;stroke-width:1.31px;"/>
            <rect x="112.274" y="174.495" width="30.27" height="15.63" style="fill:rgb(255,156,0);fill-opacity:0.65;stroke:black;stroke-width:1.31px;"/>
            <rect x="142.544" y="174.495" width="30.27" height="15.63" style="fill:rgb(255,225,0);fill-opacity:0.65;stroke:black;stroke-width:1.31px;"/>
            <rect x="172.814" y="174.495" width="30.27" height="15.63" style="fill:rgb(207,255,0);fill-opacity:0.65;stroke:black;stroke-width:1.31px;"/>
            <rect x="203.084" y="174.495" width="30.27" height="15.63" style="fill:rgb(0,255,26);fill-opacity:0.65;stroke:black;stroke-width:1.31px;"/>
            <rect x="233.354" y="174.495" width="30.27" height="15.63" style="fill:rgb(0,216,255);fill-opacity:0.65;stroke:black;stroke-width:1.31px;"/>
            <rect x="263.624" y="174.495" width="30.27" height="15.63" style="fill:rgb(0,52,255);fill-opacity:0.65;stroke:black;stroke-width:1.31px;"/>
            <rect x="293.894" y="174.495" width="30.27" height="15.63" style="fill:rgb(156,0,255);fill-opacity:0.65;stroke:black;stroke-width:1.31px;"/>
            <rect x="51.734" y="127.605" width="30.27" height="15.63" style="fill:rgb(237,18,27);fill-opacity:0.8;stroke:black;stroke-width:1.31px;"/>
            <rect x="82.004" y="127.605" width="30.27" height="15.63" style="fill:rgb(255,95,0);fill-opacity:0.8;stroke:black;stroke-width:1.31px;"/>
            <rect x="112.274" y="127.605" width="30.27" height="15.63" style="fill:rgb(255,156,0);fill-opacity:0.8;stroke:black;stroke-width:1.31px;"/>
            <rect x="142.544" y="127.605" width="30.27" height="15.63" style="fill:rgb(255,225,0);fill-opacity:0.8;stroke:black;stroke-width:1.31px;"/>
            <rect x="172.814" y="127.605" width="30.27" height="15.63" style="fill:rgb(207,255,0);fill-opacity:0.8;stroke:black;stroke-width:1.31px;"/>
            <rect x="203.084" y="127.605" width="30.27" height="15.63" style="fill:rgb(0,255,26);fill-opacity:0.8;stroke:black;stroke-width:1.31px;"/>
            <rect x="233.354" y="127.605" width="30.27" height="15.63" style="fill:rgb(0,216,255);fill-opacity:0.8;stroke:black;stroke-width:1.31px;"/>
            <rect x="263.624" y="127.605" width="30.27" height="15.63" style="fill:rgb(0,52,255);fill-opacity:0.8;stroke:black;stroke-width:1.31px;"/>
            <rect x="293.894" y="127.605" width="30.27" height="15.63" style="fill:rgb(156,0,255);fill-opacity:0.8;stroke:black;stroke-width:1.31px;"/>
            <rect x="51.734" y="221.385" width="30.27" height="15.63" style="fill:rgb(237,18,27);fill-opacity:0.5;stroke:black;stroke-width:1.31px;"/>
            <rect x="82.004" y="221.385" width="30.27" height="15.63" style="fill:rgb(255,95,0);fill-opacity:0.5;stroke:black;stroke-width:1.31px;"/>
            <rect x="112.274" y="221.385" width="30.27" height="15.63" style="fill:rgb(255,156,0);fill-opacity:0.5;stroke:black;stroke-width:1.31px;"/>
            <rect x="142.544" y="221.385" width="30.27" height="15.63" style="fill:rgb(255,225,0);fill-opacity:0.5;stroke:black;stroke-width:1.31px;"/>
            <rect x="172.814" y="221.385" width="30.27" height="15.63" style="fill:rgb(207,255,0);fill-opacity:0.5;stroke:black;stroke-width:1.31px;"/>
            <rect x="203.084" y="221.385" width="30.27" height="15.63" style="fill:rgb(0,255,26);fill-opacity:0.5;stroke:black;stroke-width:1.31px;"/>
            <rect x="233.354" y="221.385" width="30.27" height="15.63" style="fill:rgb(0,216,255);fill-opacity:0.5;stroke:black;stroke-width:1.31px;"/>
            <rect x="263.624" y="221.385" width="30.27" height="15.63" style="fill:rgb(0,52,255);fill-opacity:0.5;stroke:black;stroke-width:1.31px;"/>
            <rect x="293.894" y="221.385" width="30.27" height="15.63" style="fill:rgb(156,0,255);fill-opacity:0.5;stroke:black;stroke-width:1.31px;"/>
            <rect x="51.734" y="96.345" width="30.27" height="15.63" style="fill:rgb(237,18,27);fill-opacity:0.9;stroke:black;stroke-width:1.31px;"/>
            <rect x="82.004" y="96.345" width="30.27" height="15.63" style="fill:rgb(255,95,0);fill-opacity:0.9;stroke:black;stroke-width:1.31px;"/>
            <rect x="112.274" y="96.345" width="30.27" height="15.63" style="fill:rgb(255,156,0);fill-opacity:0.9;stroke:black;stroke-width:1.31px;"/>
            <rect x="142.544" y="96.345" width="30.27" height="15.63" style="fill:rgb(255,225,0);fill-opacity:0.9;stroke:black;stroke-width:1.31px;"/>
            <rect x="172.814" y="96.345" width="30.27" height="15.63" style="fill:rgb(207,255,0);fill-opacity:0.9;stroke:black;stroke-width:1.31px;"/>
            <rect x="203.084" y="96.345" width="30.27" height="15.63" style="fill:rgb(0,255,26);fill-opacity:0.9;stroke:black;stroke-width:1.31px;"/>
            <rect x="233.354" y="96.345" width="30.27" height="15.63" style="fill:rgb(0,216,255);fill-opacity:0.9;stroke:black;stroke-width:1.31px;"/>
            <rect x="263.624" y="96.345" width="30.27" height="15.63" style="fill:rgb(0,52,255);fill-opacity:0.9;stroke:black;stroke-width:1.31px;"/>
            <rect x="293.894" y="96.345" width="30.27" height="15.63" style="fill:rgb(156,0,255);fill-opacity:0.9;stroke:black;stroke-width:1.31px;"/>
            <rect x="51.734" y="190.125" width="30.27" height="15.63" style="fill:rgb(237,18,27);fill-opacity:0.6;stroke:black;stroke-width:1.31px;"/>
            <rect x="82.004" y="190.125" width="30.27" height="15.63" style="fill:rgb(255,95,0);fill-opacity:0.6;stroke:black;stroke-width:1.31px;"/>
            <rect x="112.274" y="190.125" width="30.27" height="15.63" style="fill:rgb(255,156,0);fill-opacity:0.6;stroke:black;stroke-width:1.31px;"/>
            <rect x="142.544" y="190.125" width="30.27" height="15.63" style="fill:rgb(255,225,0);fill-opacity:0.6;stroke:black;stroke-width:1.31px;"/>
            <rect x="172.814" y="190.125" width="30.27" height="15.63" style="fill:rgb(207,255,0);fill-opacity:0.6;stroke:black;stroke-width:1.31px;"/>
            <rect x="203.084" y="190.125" width="30.27" height="15.63" style="fill:rgb(0,255,26);fill-opacity:0.6;stroke:black;stroke-width:1.31px;"/>
            <rect x="233.354" y="190.125" width="30.27" height="15.63" style="fill:rgb(0,216,255);fill-opacity:0.6;stroke:black;stroke-width:1.31px;"/>
            <rect x="263.624" y="190.125" width="30.27" height="15.63" style="fill:rgb(0,52,255);fill-opacity:0.6;stroke:black;stroke-width:1.31px;"/>
            <rect x="293.894" y="190.125" width="30.27" height="15.63" style="fill:rgb(156,0,255);fill-opacity:0.6;stroke:black;stroke-width:1.31px;"/>
            <rect x="51.734" y="143.235" width="30.27" height="15.63" style="fill:rgb(237,18,27);fill-opacity:0.75;stroke:black;stroke-width:1.31px;"/>
            <rect x="82.004" y="143.235" width="30.27" height="15.63" style="fill:rgb(255,95,0);fill-opacity:0.75;stroke:black;stroke-width:1.31px;"/>
            <rect x="112.274" y="143.235" width="30.27" height="15.63" style="fill:rgb(255,156,0);fill-opacity:0.75;stroke:black;stroke-width:1.31px;"/>
            <rect x="142.544" y="143.235" width="30.27" height="15.63" style="fill:rgb(255,225,0);fill-opacity:0.75;stroke:black;stroke-width:1.31px;"/>
            <rect x="172.814" y="143.235" width="30.27" height="15.63" style="fill:rgb(207,255,0);fill-opacity:0.75;stroke:black;stroke-width:1.31px;"/>
            <rect x="203.084" y="143.235" width="30.27" height="15.63" style="fill:rgb(0,255,26);fill-opacity:0.75;stroke:black;stroke-width:1.31px;"/>
            <rect x="233.354" y="143.235" width="30.27" height="15.63" style="fill:rgb(0,216,255);fill-opacity:0.75;stroke:black;stroke-width:1.31px;"/>
            <rect x="263.624" y="143.235" width="30.27" height="15.63" style="fill:rgb(0,52,255);fill-opacity:0.75;stroke:black;stroke-width:1.31px;"/>
            <rect x="293.894" y="143.235" width="30.27" height="15.63" style="fill:rgb(156,0,255);fill-opacity:0.75;stroke:black;stroke-width:1.31px;"/>
        </g>
        <g>
            <rect x="433.022" y="65.085" width="30.27" height="15.63" style="fill:rgb(237,18,27);stroke:black;stroke-width:1.31px;"/>
            <rect x="433.022" y="158.865" width="30.27" height="15.63" style="fill:rgb(0,52,255);stroke:black;stroke-width:1.31px;"/>
            <rect x="433.022" y="111.975" width="30.27" height="15.63" style="fill:rgb(0,166,80);stroke:black;stroke-width:1.31px;"/>
            <rect x="433.022" y="205.755" width="30.27" height="15.63" style="fill:rgb(0,166,80);stroke:black;stroke-width:1.31px;"/>
            <rect x="433.022" y="80.715" width="30.27" height="15.63" style="fill:rgb(0,166,80);stroke:black;stroke-width:1.31px;"/>
            <rect x="433.022" y="174.495" width="30.27" height="15.63" style="fill:rgb(0,166,80);stroke:black;stroke-width:1.31px;"/>
            <rect x="433.022" y="127.605" width="30.27" height="15.63" style="fill:rgb(237,18,27);stroke:black;stroke-width:1.31px;"/>
            <rect x="433.022" y="221.385" width="30.27" height="15.63" style="fill:rgb(0,52,255);stroke:black;stroke-width:1.31px;"/>
            <rect x="433.022" y="96.345" width="30.27" height="15.63" style="fill:rgb(0,52,255);stroke:black;stroke-width:1.31px;"/>
            <rect x="433.022" y="190.125" width="30.27" height="15.63" style="fill:rgb(237,18,27);stroke:black;stroke-width:1.31px;"/>
            <rect x="433.022" y="143.235" width="30.27" height="15.63" style="fill:rgb(0,166,80);stroke:black;stroke-width:1.31px;"/>
        </g>
        <path d="M74.604,26.849c2.166,5.567 3.587,9.75 3.925,10.238c0.746,0.97 1.046,0.97 2.166,0.97l0.859,0c0.262,-0.037 0.45,-0.15 0.45,-0.412c-0,-0.183 -0.075,-0.258 -0.225,-0.408c-0.45,-0.488 -0.638,-0.971 -0.859,-1.609l-7.958,-21.366c-0.862,-2.28 -3.325,-2.542 -4.671,-2.542c-0.337,-0 -0.821,-0 -0.821,0.483c0,0.375 0.296,0.413 0.709,0.45c1.121,0.188 1.571,1.234 2.129,2.617l3.85,10.346l-10.538,10.162c-0.375,0.375 -0.67,0.638 -0.67,1.196c-0,0.783 0.67,1.158 1.196,1.158c0.633,0 1.083,-0.558 1.233,-0.708l9.225,-10.575Z" style="fill:rgb(35,31,32);fill-rule:nonzero;"/>
        <path d="M595.02,26.849c2.167,5.567 3.588,9.75 3.926,10.238c0.745,0.97 1.045,0.97 2.166,0.97l0.858,0c0.263,-0.037 0.451,-0.15 0.451,-0.412c-0,-0.183 -0.075,-0.258 -0.226,-0.408c-0.45,-0.488 -0.637,-0.971 -0.858,-1.609l-7.958,-21.366c-0.863,-2.28 -3.325,-2.542 -4.671,-2.542c-0.338,-0 -0.821,-0 -0.821,0.483c0,0.375 0.296,0.413 0.708,0.45c1.121,0.188 1.571,1.234 2.13,2.617l3.85,10.346l-10.538,10.162c-0.375,0.375 -0.671,0.638 -0.671,1.196c0,0.783 0.671,1.158 1.196,1.158c0.633,0 1.083,-0.558 1.234,-0.708l9.224,-10.575Z" style="fill:rgb(35,31,32);fill-rule:nonzero;"/>
        <path d="M23.274,74.321c-1.383,0.262 -1.796,1.458 -1.796,2.017c0,0.712 0.525,1.345 1.459,1.345c1.045,0 2.054,-0.895 2.054,-2.204c-0,-1.717 -1.867,-2.579 -3.621,-2.579c-2.242,-0 -3.55,1.983 -4,2.767c-0.708,-1.83 -2.354,-2.767 -4.146,-2.767c-4,-0 -6.167,4.783 -6.167,5.754c0,0.338 0.263,0.45 0.525,0.45c0.338,0 0.45,-0.187 0.521,-0.412c1.159,-3.7 3.625,-4.855 5.046,-4.855c1.083,0 2.054,0.709 2.054,2.463c0,1.346 -1.604,7.325 -2.091,9.117c-0.3,1.158 -1.421,3.475 -3.475,3.475c-0.746,-0 -1.534,-0.263 -1.905,-0.488c1.009,-0.183 1.755,-1.046 1.755,-2.017c-0,-0.933 -0.709,-1.345 -1.417,-1.345c-1.088,-0 -2.058,0.937 -2.058,2.204c-0,1.833 2.02,2.579 3.587,2.579c2.167,0 3.438,-1.792 4,-2.8c0.933,2.463 3.138,2.8 4.146,2.8c4.033,0 6.162,-4.854 6.162,-5.754c0,-0.188 -0.112,-0.446 -0.483,-0.446c-0.412,-0 -0.45,0.15 -0.637,0.708c-0.821,2.692 -2.988,4.559 -4.93,4.559c-1.083,-0 -2.091,-0.671 -2.091,-2.467c-0,-0.821 0.521,-2.875 0.858,-4.296c0.15,-0.671 1.158,-4.708 1.233,-4.966c0.446,-1.346 1.567,-3.326 3.475,-3.326c0.671,0 1.38,0.109 1.942,0.484Z" style="fill:rgb(35,31,32);fill-rule:nonzero;"/>
        <path d="M543.691,74.321c-1.384,0.262 -1.796,1.458 -1.796,2.017c-0,0.712 0.525,1.345 1.458,1.345c1.046,0 2.054,-0.895 2.054,-2.204c0,-1.717 -1.866,-2.579 -3.62,-2.579c-2.242,-0 -3.55,1.983 -4,2.767c-0.709,-1.83 -2.355,-2.767 -4.146,-2.767c-4,-0 -6.167,4.783 -6.167,5.754c0,0.338 0.263,0.45 0.525,0.45c0.338,0 0.45,-0.187 0.521,-0.412c1.158,-3.7 3.625,-4.855 5.046,-4.855c1.083,0 2.054,0.709 2.054,2.463c-0,1.346 -1.604,7.325 -2.092,9.117c-0.3,1.158 -1.421,3.475 -3.475,3.475c-0.746,-0 -1.533,-0.263 -1.904,-0.488c1.008,-0.183 1.754,-1.046 1.754,-2.017c0,-0.933 -0.708,-1.345 -1.416,-1.345c-1.088,-0 -2.059,0.937 -2.059,2.204c0,1.833 2.021,2.579 3.588,2.579c2.166,0 3.437,-1.792 4,-2.8c0.933,2.463 3.137,2.8 4.146,2.8c4.033,0 6.162,-4.854 6.162,-5.754c0,-0.188 -0.112,-0.446 -0.483,-0.446c-0.413,-0 -0.45,0.15 -0.638,0.708c-0.821,2.692 -2.987,4.559 -4.929,4.559c-1.083,-0 -2.092,-0.671 -2.092,-2.467c0,-0.821 0.521,-2.875 0.859,-4.296c0.15,-0.671 1.158,-4.708 1.233,-4.966c0.446,-1.346 1.567,-3.326 3.475,-3.326c0.671,0 1.379,0.109 1.942,0.484Z" style="fill:rgb(35,31,32);fill-rule:nonzero;"/>
        <path d="M979.982,74.321c-1.384,0.262 -1.796,1.458 -1.796,2.017c-0,0.712 0.525,1.345 1.458,1.345c1.046,0 2.054,-0.895 2.054,-2.204c0,-1.717 -1.866,-2.579 -3.621,-2.579c-2.241,-0 -3.55,1.983 -4,2.767c-0.708,-1.83 -2.354,-2.767 -4.145,-2.767c-4,-0 -6.167,4.783 -6.167,5.754c-0,0.338 0.262,0.45 0.525,0.45c0.337,0 0.45,-0.187 0.521,-0.412c1.158,-3.7 3.625,-4.855 5.046,-4.855c1.083,0 2.054,0.709 2.054,2.463c-0,1.346 -1.604,7.325 -2.092,9.117c-0.3,1.158 -1.421,3.475 -3.475,3.475c-0.746,-0 -1.533,-0.263 -1.904,-0.488c1.008,-0.183 1.754,-1.046 1.754,-2.017c0,-0.933 -0.708,-1.345 -1.417,-1.345c-1.087,-0 -2.058,0.937 -2.058,2.204c0,1.833 2.021,2.579 3.588,2.579c2.166,0 3.437,-1.792 4,-2.8c0.933,2.463 3.137,2.8 4.145,2.8c4.034,0 6.163,-4.854 6.163,-5.754c-0,-0.188 -0.113,-0.446 -0.483,-0.446c-0.413,-0 -0.45,0.15 -0.638,0.708c-0.821,2.692 -2.987,4.559 -4.929,4.559c-1.083,-0 -2.092,-0.671 -2.092,-2.467c0,-0.821 0.521,-2.875 0.859,-4.296c0.15,-0.671 1.158,-4.708 1.233,-4.966c0.446,-1.346 1.567,-3.326 3.475,-3.326c0.671,0 1.379,0.109 1.942,0.484Z" style="fill:rgb(35,31,32);fill-rule:nonzero;"/>
        <path d="M394.123,74.321c-1.383,0.262 -1.796,1.458 -1.796,2.017c0,0.712 0.525,1.345 1.458,1.345c1.046,0 2.055,-0.895 2.055,-2.204c-0,-1.717 -1.867,-2.579 -3.621,-2.579c-2.242,-0 -3.55,1.983 -4,2.767c-0.709,-1.83 -2.354,-2.767 -4.146,-2.767c-4,-0 -6.167,4.783 -6.167,5.754c0,0.338 0.263,0.45 0.525,0.45c0.338,0 0.45,-0.187 0.521,-0.412c1.158,-3.7 3.625,-4.855 5.046,-4.855c1.083,0 2.054,0.709 2.054,2.463c0,1.346 -1.604,7.325 -2.091,9.117c-0.3,1.158 -1.421,3.475 -3.475,3.475c-0.746,-0 -1.534,-0.263 -1.905,-0.488c1.009,-0.183 1.754,-1.046 1.754,-2.017c0,-0.933 -0.708,-1.345 -1.416,-1.345c-1.088,-0 -2.059,0.937 -2.059,2.204c0,1.833 2.021,2.579 3.588,2.579c2.167,0 3.437,-1.792 4,-2.8c0.933,2.463 3.137,2.8 4.146,2.8c4.033,0 6.162,-4.854 6.162,-5.754c0,-0.188 -0.112,-0.446 -0.483,-0.446c-0.412,-0 -0.45,0.15 -0.638,0.708c-0.82,2.692 -2.987,4.559 -4.929,4.559c-1.083,-0 -2.091,-0.671 -2.091,-2.467c-0,-0.821 0.521,-2.875 0.858,-4.296c0.15,-0.671 1.158,-4.708 1.233,-4.966c0.446,-1.346 1.567,-3.326 3.475,-3.326c0.671,0 1.38,0.109 1.942,0.484Z" style="fill:rgb(35,31,32);fill-rule:nonzero;"/>
        <path d="M35.327,118.023l3.929,7.857l3.928,-7.857l-7.857,-0Z"/>
        <path d="M104.417,48.678l7.857,3.929l-7.857,3.929l-0,-7.858Z"/>
        <path d="M39.256,119.594l-0,-66.987l66.732,0" style="fill:none;stroke:black;stroke-width:1.31px;"/>
        <path d="M555.744,118.023l3.929,7.857l3.928,-7.857l-7.857,-0Z"/>
        <path d="M624.833,48.678l7.858,3.929l-7.858,3.929l0,-7.858Z"/>
        <path d="M559.673,119.594l-0,-66.987l66.732,0" style="fill:none;stroke:black;stroke-width:1.31px;"/>
        <path d="M992.035,118.023l3.928,7.857l3.929,-7.857l-7.857,-0Z"/>
        <path d="M995.963,119.594l0,-66.987" style="fill:none;stroke:black;stroke-width:1.31px;"/>
        <path d="M406.176,118.023l3.929,7.857l3.928,-7.857l-7.857,-0Z"/>
        <path d="M410.105,119.594l-0,-66.987" style="fill:none;stroke:black;stroke-width:1.31px;"/>
        <path d="M384.318,15.156l0.164,0.147l0,0.897l-0.146,0.128c-1.343,0.037 -2.176,0.104 -2.5,0.202c-0.323,0.097 -0.552,0.259 -0.686,0.485c-0.134,0.226 -0.211,0.668 -0.229,1.328c-0.018,0.659 -0.052,2.52 -0.101,5.584l0,8.441c0,1.221 0.019,2.601 0.055,4.139c0.037,1.538 0.113,2.432 0.229,2.682c0.116,0.25 0.327,0.433 0.632,0.549c0.305,0.116 1.172,0.193 2.6,0.229l0.146,0.128l0,0.898l-0.164,0.146c-1.99,-0.11 -3.724,-0.165 -5.201,-0.165c-1.001,0 -2.704,0.055 -5.108,0.165l-0.165,-0.146l-0,-0.879l0.146,-0.147c1.343,-0.036 2.176,-0.103 2.5,-0.201c0.323,-0.098 0.552,-0.26 0.686,-0.485c0.135,-0.226 0.214,-0.675 0.238,-1.346c0.025,-0.672 0.055,-2.527 0.092,-5.567l-0,-13.44l-6.317,13.221c-1.587,3.308 -2.973,6.421 -4.157,9.338l-0.714,0c-0.683,-1.575 -1.245,-2.832 -1.684,-3.772l-8.753,-18.182l0,12.799c0,1.196 0.015,2.572 0.046,4.129c0.031,1.556 0.107,2.456 0.229,2.701c0.122,0.244 0.336,0.427 0.641,0.549c0.305,0.122 1.172,0.195 2.6,0.22l0.146,0.146l0,0.879l-0.164,0.165l-1.172,-0.055c-1.209,-0.061 -2.246,-0.092 -3.113,-0.092c-0.391,0 -1.849,0.049 -4.376,0.147l-0.147,-0.147l0,-0.879l0.147,-0.164c1.342,-0.025 2.173,-0.086 2.49,-0.183c0.317,-0.098 0.546,-0.263 0.687,-0.495c0.14,-0.232 0.219,-0.665 0.238,-1.3c0.018,-0.635 0.045,-2.508 0.082,-5.621l-0,-8.386c-0,-1.111 -0.015,-2.463 -0.046,-4.056c-0.03,-1.593 -0.104,-2.515 -0.22,-2.765c-0.115,-0.25 -0.326,-0.437 -0.631,-0.559c-0.305,-0.122 -1.172,-0.195 -2.6,-0.219l-0.147,-0.147l0,-0.879l0.165,-0.165c0.842,0.062 1.978,0.092 3.406,0.092c1.343,0 2.514,-0.03 3.515,-0.092c1.026,2.369 2.008,4.511 2.948,6.427l6.94,14.246l6.262,-13.055c1.697,-3.528 2.838,-6.067 3.424,-7.618c1.172,0.062 2.326,0.092 3.461,0.092c1.025,0 2.234,-0.03 3.626,-0.092Z" style="fill-rule:nonzero;"/>
        <path d="M386.588,32.588c0,-1.453 0.299,-2.853 0.897,-4.202c0.598,-1.349 1.639,-2.515 3.122,-3.497c1.483,-0.983 3.244,-1.474 5.283,-1.474c2.563,-0 4.651,0.808 6.262,2.426c1.611,1.617 2.417,3.695 2.417,6.234c-0,2.796 -0.925,5.097 -2.774,6.904c-1.849,1.806 -4.08,2.709 -6.693,2.709c-1.709,0 -3.234,-0.46 -4.577,-1.382c-1.343,-0.922 -2.335,-2.048 -2.976,-3.378c-0.641,-1.331 -0.961,-2.777 -0.961,-4.34Zm3.461,-1.263c-0,1.709 0.219,3.238 0.659,4.586c0.439,1.349 1.135,2.433 2.087,3.251c0.952,0.817 2.039,1.226 3.26,1.226c1.44,0 2.63,-0.57 3.57,-1.712c0.94,-1.141 1.41,-2.859 1.41,-5.154c0,-2.6 -0.51,-4.73 -1.529,-6.39c-1.019,-1.661 -2.487,-2.491 -4.404,-2.491c-1.586,0 -2.825,0.574 -3.717,1.722c-0.891,1.147 -1.336,2.801 -1.336,4.962Z" style="fill-rule:nonzero;"/>
        <path d="M418.137,16.145l0,-0.769l0.147,-0.165c2.331,-0.268 4.296,-0.72 5.896,-1.355l0.347,0.22c-0.134,1.404 -0.201,4.218 -0.201,8.441l0,11.994c0,1.233 0.021,2.31 0.064,3.232c0.043,0.921 0.119,1.467 0.229,1.638c0.11,0.171 0.29,0.312 0.54,0.421c0.25,0.11 0.961,0.214 2.133,0.312l0.165,0.146l0,0.696l-0.165,0.165c-1.318,-0.086 -2.343,-0.128 -3.076,-0.128c-0.659,-0 -1.599,0.042 -2.82,0.128l-0.201,-0.202c0.037,-1.196 0.055,-2.032 0.055,-2.508c-0,-0.061 0.006,-0.293 0.018,-0.696c-0.671,0.488 -1.343,1.032 -2.014,1.63c-0.989,0.879 -1.636,1.428 -1.941,1.648c-0.561,0.28 -1.361,0.421 -2.399,0.421c-1.684,-0 -3.115,-0.415 -4.293,-1.245c-1.178,-0.83 -2.018,-1.889 -2.518,-3.177c-0.501,-1.288 -0.751,-2.609 -0.751,-3.964c0,-1.38 0.26,-2.707 0.778,-3.983c0.519,-1.276 1.258,-2.206 2.216,-2.792c0.958,-0.586 2.002,-1.194 3.131,-1.822c1.129,-0.629 2.249,-0.943 3.36,-0.943c1.55,-0 3.027,0.384 4.431,1.153l-0.073,-4.083c-0.024,-1.416 -0.061,-2.402 -0.11,-2.957c-0.049,-0.555 -0.11,-0.885 -0.183,-0.989c-0.073,-0.104 -0.198,-0.18 -0.375,-0.229c-0.177,-0.049 -0.919,-0.073 -2.225,-0.073l-0.165,-0.165Zm3.131,11.627c-0.757,-0.854 -1.596,-1.507 -2.517,-1.959c-0.922,-0.451 -1.847,-0.677 -2.775,-0.677c-1.025,-0 -1.98,0.277 -2.865,0.833c-0.885,0.555 -1.523,1.379 -1.914,2.472c-0.39,1.092 -0.586,2.279 -0.586,3.561c0,2.136 0.541,3.852 1.621,5.145c1.08,1.294 2.438,1.941 4.074,1.941c0.891,0 1.682,-0.204 2.371,-0.613c0.69,-0.409 1.258,-0.961 1.703,-1.657c0.446,-0.696 0.705,-1.392 0.778,-2.088c0.074,-0.695 0.11,-1.971 0.11,-3.826l0,-3.132Z" style="fill-rule:nonzero;"/>
        <path d="M435.056,23.524l0.348,0.238c-0.134,1.6 -0.201,3.632 -0.201,6.098l-0,4.266c-0,1.563 0.119,2.649 0.357,3.259c0.238,0.611 0.65,1.078 1.236,1.401c0.585,0.324 1.281,0.485 2.087,0.485c0.891,0 1.703,-0.173 2.435,-0.521c0.733,-0.348 1.346,-0.84 1.84,-1.474c0.495,-0.635 0.779,-1.062 0.852,-1.282c0.073,-0.22 0.122,-0.836 0.146,-1.849l0.055,-2.051l0,-1.978c0,-0.488 -0.024,-1.153 -0.073,-1.996c-0.049,-0.842 -0.088,-1.361 -0.119,-1.556c-0.03,-0.195 -0.125,-0.339 -0.284,-0.43c-0.158,-0.092 -0.476,-0.138 -0.952,-0.138l-1.538,-0.018l-0.165,-0.146l0,-0.788l0.147,-0.146c2.331,-0.281 4.297,-0.739 5.896,-1.374l0.348,0.238c-0.135,1.6 -0.202,3.632 -0.202,6.098l0,3.223c0,0.183 0.031,1.678 0.092,4.486c0.024,1.037 0.088,1.669 0.192,1.895c0.104,0.226 0.247,0.384 0.43,0.476c0.183,0.091 0.727,0.137 1.63,0.137l0.513,0l0.164,0.147l0,0.732l-0.146,0.165c-1.721,-0.098 -2.875,-0.147 -3.461,-0.147c-0.744,0 -1.605,0.043 -2.582,0.129l-0.164,-0.147c0.073,-1.245 0.128,-2.301 0.164,-3.168c-0.769,0.598 -1.647,1.398 -2.636,2.399c-0.379,0.378 -0.922,0.696 -1.63,0.952c-0.708,0.257 -1.514,0.385 -2.417,0.385c-1.367,-0 -2.432,-0.217 -3.195,-0.65c-0.763,-0.434 -1.303,-1.032 -1.621,-1.795c-0.317,-0.763 -0.476,-2.078 -0.476,-3.946l0.019,-1.446l-0,-3.571c-0,-0.488 -0.025,-1.153 -0.074,-1.996c-0.048,-0.842 -0.088,-1.361 -0.119,-1.556c-0.03,-0.195 -0.125,-0.339 -0.283,-0.43c-0.159,-0.092 -0.476,-0.138 -0.953,-0.138l-1.538,-0.018l-0.164,-0.146l-0,-0.788l0.146,-0.146c2.332,-0.281 4.297,-0.739 5.896,-1.374Z" style="fill-rule:nonzero;"/>
        <path d="M458.182,13.856l0.348,0.22c-0.134,1.404 -0.201,4.218 -0.201,8.441l-0,11.481c-0,0.269 0.024,1.132 0.073,2.591c0.049,1.459 0.101,2.31 0.156,2.554c0.055,0.244 0.137,0.421 0.247,0.531c0.11,0.11 0.244,0.18 0.403,0.211c0.158,0.03 0.818,0.082 1.977,0.156l0.165,0.146l-0,0.769l-0.146,0.165c-1.526,-0.098 -2.997,-0.147 -4.413,-0.147c-1.404,0 -2.869,0.049 -4.395,0.147l-0.165,-0.165l0,-0.769l0.165,-0.146c1.184,-0.074 1.853,-0.129 2.005,-0.165c0.153,-0.037 0.287,-0.113 0.403,-0.229c0.116,-0.116 0.195,-0.293 0.238,-0.531c0.043,-0.238 0.092,-1.026 0.146,-2.362c0.055,-1.337 0.083,-2.347 0.083,-3.031l-0,-9.484l-0.073,-3.882c-0.037,-1.355 -0.077,-2.295 -0.119,-2.82c-0.043,-0.525 -0.101,-0.836 -0.174,-0.934c-0.074,-0.098 -0.202,-0.171 -0.385,-0.22c-0.183,-0.049 -0.921,-0.073 -2.215,-0.073l-0.165,-0.165l-0,-0.769l0.146,-0.165c2.332,-0.268 4.297,-0.72 5.896,-1.355Z" style="fill-rule:nonzero;"/>
        <path d="M466.129,28.56l-0.714,-0.183l-0.147,-0.183l0,-2.271c2.173,-1.611 4.285,-2.417 6.336,-2.417c1.404,0 2.569,0.263 3.497,0.787c0.928,0.525 1.599,1.181 2.014,1.969c0.415,0.787 0.623,1.706 0.623,2.756l-0.092,3.68l0,5.457c0,0.744 0.052,1.196 0.156,1.355c0.104,0.158 0.223,0.265 0.357,0.32c0.134,0.055 0.385,0.101 0.751,0.137l1.044,0.092l0.146,0.165l-0,0.732l-0.146,0.147c-0.892,-0.074 -1.722,-0.11 -2.491,-0.11c-0.732,-0 -1.611,0.036 -2.636,0.11l-0.275,-0.257l0.073,-2.948l-3.992,3.113c-0.671,0.281 -1.403,0.421 -2.197,0.421c-0.976,0 -1.816,-0.177 -2.518,-0.531c-0.701,-0.354 -1.239,-0.848 -1.611,-1.483c-0.372,-0.635 -0.558,-1.404 -0.558,-2.307c-0,-1.795 0.561,-3.195 1.684,-4.202c1.123,-1.008 4.187,-1.865 9.192,-2.573c0,-1.807 -0.403,-3.079 -1.208,-3.818c-0.806,-0.738 -1.886,-1.108 -3.241,-1.108c-0.708,0 -1.352,0.104 -1.932,0.312c-0.58,0.207 -0.913,0.375 -0.998,0.503c-0.085,0.128 -0.415,0.876 -0.989,2.243l-0.128,0.092Zm8.496,2.893c-3.418,0.574 -5.548,1.19 -6.39,1.849c-0.843,0.659 -1.264,1.679 -1.264,3.058c0,1.904 0.946,2.857 2.838,2.857c1.624,-0 3.229,-0.94 4.816,-2.82l0,-4.944Z" style="fill-rule:nonzero;"/>
        <path d="M481.839,26.601l0,-0.476l0.129,-0.184c1.147,-0.427 2.075,-0.824 2.783,-1.19c-0,-3.186 -0.037,-5.041 -0.11,-5.566c1.257,-0.44 2.289,-0.91 3.094,-1.41l0.44,0.366c-0.122,0.769 -0.269,3.003 -0.44,6.702c0.611,0.012 1.27,0.018 1.978,0.018c1.44,0 2.472,-0.037 3.095,-0.11l0.128,0.128l-0.348,1.538l-0.147,0.165c-0.622,-0.012 -1.312,-0.018 -2.069,-0.018c-0.683,-0 -1.562,0.006 -2.637,0.018l-0.109,7.453c-0,1.721 0.039,2.847 0.119,3.378c0.079,0.531 0.299,0.946 0.659,1.245c0.36,0.299 0.894,0.449 1.602,0.449c0.818,-0 1.575,-0.214 2.271,-0.641l0.439,0.659c-0.293,0.208 -0.995,0.818 -2.106,1.831c-0.635,0.293 -1.281,0.44 -1.941,0.44c-2.746,-0 -4.12,-1.331 -4.12,-3.992c0,-0.977 0.025,-1.807 0.074,-2.49c0.012,-0.208 0.018,-0.422 0.018,-0.641l0,-7.599l-0.751,-0c-0.549,-0 -1.178,0.024 -1.886,0.073l-0.165,-0.146Z" style="fill-rule:nonzero;"/>
        <path d="M498.502,15.34c0.574,-0 1.062,0.201 1.465,0.604c0.403,0.403 0.604,0.891 0.604,1.465c0,0.561 -0.201,1.043 -0.604,1.446c-0.403,0.403 -0.891,0.604 -1.465,0.604c-0.561,0 -1.047,-0.198 -1.456,-0.595c-0.409,-0.396 -0.613,-0.882 -0.613,-1.455c-0,-0.574 0.204,-1.062 0.613,-1.465c0.409,-0.403 0.895,-0.604 1.456,-0.604Zm1.556,8.184l0.348,0.238c-0.134,1.6 -0.201,3.632 -0.201,6.098l-0,4.138c-0,0.269 0.024,1.132 0.073,2.591c0.049,1.459 0.101,2.31 0.156,2.554c0.055,0.244 0.137,0.421 0.247,0.531c0.11,0.11 0.244,0.18 0.403,0.211c0.159,0.03 0.818,0.082 1.977,0.156l0.165,0.146l0,0.769l-0.146,0.165c-1.526,-0.098 -2.997,-0.147 -4.413,-0.147c-1.404,0 -2.869,0.049 -4.395,0.147l-0.164,-0.165l-0,-0.769l0.164,-0.146c1.184,-0.074 1.853,-0.129 2.005,-0.165c0.153,-0.037 0.287,-0.113 0.403,-0.229c0.116,-0.116 0.196,-0.293 0.238,-0.531c0.043,-0.238 0.092,-1.026 0.147,-2.362c0.055,-1.337 0.082,-2.347 0.082,-3.031l0,-3.607c0,-0.488 -0.024,-1.153 -0.073,-1.996c-0.049,-0.842 -0.089,-1.361 -0.119,-1.556c-0.031,-0.195 -0.125,-0.339 -0.284,-0.43c-0.159,-0.092 -0.476,-0.138 -0.952,-0.138l-1.538,-0.018l-0.165,-0.146l0,-0.788l0.146,-0.146c2.332,-0.281 4.297,-0.739 5.896,-1.374Z" style="fill-rule:nonzero;"/>
        <path d="M505.387,32.588c-0,-1.453 0.299,-2.853 0.897,-4.202c0.598,-1.349 1.639,-2.515 3.122,-3.497c1.483,-0.983 3.244,-1.474 5.283,-1.474c2.563,-0 4.65,0.808 6.262,2.426c1.611,1.617 2.417,3.695 2.417,6.234c-0,2.796 -0.925,5.097 -2.774,6.904c-1.85,1.806 -4.08,2.709 -6.693,2.709c-1.709,0 -3.235,-0.46 -4.577,-1.382c-1.343,-0.922 -2.335,-2.048 -2.976,-3.378c-0.641,-1.331 -0.961,-2.777 -0.961,-4.34Zm3.461,-1.263c-0,1.709 0.219,3.238 0.659,4.586c0.439,1.349 1.135,2.433 2.087,3.251c0.952,0.817 2.039,1.226 3.259,1.226c1.441,0 2.631,-0.57 3.571,-1.712c0.94,-1.141 1.41,-2.859 1.41,-5.154c-0,-2.6 -0.51,-4.73 -1.529,-6.39c-1.019,-1.661 -2.487,-2.491 -4.404,-2.491c-1.587,0 -2.826,0.574 -3.717,1.722c-0.891,1.147 -1.336,2.801 -1.336,4.962Z" style="fill-rule:nonzero;"/>
        <path d="M530.875,23.524l0.348,0.238c-0.073,0.818 -0.122,1.893 -0.146,3.223c0.976,-0.806 1.904,-1.623 2.783,-2.454c0.256,-0.231 0.497,-0.402 0.723,-0.512c0.226,-0.11 0.601,-0.226 1.126,-0.348c0.525,-0.122 1.062,-0.183 1.611,-0.183c0.928,-0 1.828,0.189 2.701,0.567c0.873,0.379 1.532,0.827 1.978,1.346c0.445,0.519 0.754,1.132 0.924,1.84c0.171,0.708 0.257,1.581 0.257,2.619l-0,3.223c-0,0.207 0.03,1.727 0.091,4.559c0.025,1.16 0.153,1.849 0.385,2.069c0.232,0.22 0.989,0.33 2.27,0.33l0.147,0.146l-0,0.787l-0.147,0.147c-1.55,-0.098 -2.6,-0.147 -3.149,-0.147c-0.317,0 -1.209,0.049 -2.673,0.147l-0.22,-0.202c0.159,-1.586 0.238,-3.656 0.238,-6.207l-0,-2.399c-0,-1.44 -0.034,-2.478 -0.101,-3.112c-0.067,-0.635 -0.271,-1.212 -0.613,-1.731c-0.342,-0.518 -0.8,-0.921 -1.373,-1.208c-0.574,-0.287 -1.258,-0.43 -2.051,-0.43c-0.635,-0 -1.178,0.064 -1.63,0.192c-0.452,0.128 -0.958,0.39 -1.52,0.787c-0.561,0.397 -0.976,0.769 -1.245,1.117c-0.268,0.348 -0.43,0.671 -0.485,0.971c-0.055,0.299 -0.082,0.936 -0.082,1.913l-0,3.186c-0,0.269 0.024,1.132 0.073,2.591c0.049,1.459 0.101,2.31 0.156,2.554c0.054,0.244 0.137,0.421 0.247,0.531c0.11,0.11 0.244,0.18 0.403,0.211c0.158,0.03 0.817,0.082 1.977,0.156l0.165,0.146l-0,0.769l-0.147,0.165c-1.526,-0.098 -2.996,-0.147 -4.412,-0.147c-1.404,0 -2.869,0.049 -4.395,0.147l-0.165,-0.165l0,-0.769l0.165,-0.146c1.184,-0.074 1.852,-0.129 2.005,-0.165c0.153,-0.037 0.287,-0.113 0.403,-0.229c0.116,-0.116 0.195,-0.293 0.238,-0.531c0.043,-0.238 0.091,-1.026 0.146,-2.362c0.055,-1.337 0.083,-2.347 0.083,-3.031l-0,-3.607c-0,-0.488 -0.025,-1.153 -0.073,-1.996c-0.049,-0.842 -0.089,-1.361 -0.12,-1.556c-0.03,-0.195 -0.125,-0.339 -0.283,-0.43c-0.159,-0.092 -0.476,-0.138 -0.952,-0.138l-1.539,-0.018l-0.164,-0.146l-0,-0.788l0.146,-0.146c2.332,-0.281 4.297,-0.739 5.896,-1.374Z" style="fill-rule:nonzero;"/>
        <path d="M847.187,15.102c3.076,0.097 5.035,0.146 5.877,0.146c1.148,0 2.436,-0.03 3.864,-0.092c1.514,-0.048 2.448,-0.073 2.802,-0.073c1.708,0 3.121,0.177 4.238,0.531c1.117,0.354 2.042,1.001 2.774,1.941c0.733,0.94 1.099,2.075 1.099,3.406c0,1.099 -0.256,2.161 -0.769,3.186c-0.513,1.025 -1.227,1.898 -2.142,2.618c-0.916,0.721 -1.844,1.236 -2.784,1.548c-0.939,0.311 -1.916,0.467 -2.929,0.467c-0.757,-0 -1.599,-0.086 -2.527,-0.257l-0.311,-1.117l0.164,-0.183c0.916,0.208 1.661,0.311 2.234,0.311c1.599,0 2.884,-0.528 3.855,-1.583c0.97,-1.056 1.455,-2.408 1.455,-4.056c0,-1.66 -0.503,-2.985 -1.51,-3.974c-1.007,-0.988 -2.53,-1.483 -4.569,-1.483c-1.111,0 -2.331,0.208 -3.662,0.623c-0.11,0.94 -0.165,3.21 -0.165,6.811l0,8.478l0.019,3.571c0.012,1.379 0.049,2.27 0.11,2.673c0.061,0.403 0.149,0.671 0.265,0.806c0.116,0.134 0.339,0.247 0.668,0.338c0.33,0.092 1.142,0.162 2.436,0.211l0.146,0.11l0,0.915l-0.146,0.147c-3.113,-0.098 -4.865,-0.147 -5.255,-0.147c-0.415,0 -2.161,0.049 -5.237,0.147l-0.147,-0.147l0,-0.915l0.147,-0.11c1.135,-0.049 1.892,-0.11 2.27,-0.183c0.379,-0.073 0.632,-0.168 0.76,-0.284c0.128,-0.116 0.232,-0.363 0.311,-0.742c0.08,-0.378 0.126,-1.22 0.138,-2.526l0.018,-3.864l0,-8.478l-0.037,-3.57c-0.012,-1.392 -0.045,-2.289 -0.1,-2.692c-0.055,-0.403 -0.141,-0.671 -0.257,-0.806c-0.116,-0.134 -0.338,-0.244 -0.668,-0.329c-0.33,-0.086 -1.141,-0.153 -2.435,-0.202l-0.147,-0.128l0,-0.915l0.147,-0.128Z" style="fill-rule:nonzero;"/>
        <path d="M875.788,23.524l0.348,0.238c-0.073,0.708 -0.128,1.966 -0.165,3.772l1.373,-1.739c0.452,-0.574 0.852,-1.016 1.2,-1.328c0.347,-0.311 0.753,-0.552 1.217,-0.723c0.464,-0.171 0.94,-0.256 1.428,-0.256c0.538,-0 1.044,0.11 1.52,0.329l0.128,0.257c-0.195,1.623 -0.305,3.051 -0.329,4.284l-0.824,0c-0.488,-1.123 -1.276,-1.684 -2.362,-1.684c-0.757,-0 -1.416,0.241 -1.978,0.723c-0.561,0.482 -0.937,1.087 -1.126,1.813c-0.189,0.726 -0.284,1.645 -0.284,2.756l0,2.032c0,0.366 0.025,1.263 0.074,2.692c0.048,1.428 0.1,2.252 0.155,2.472c0.055,0.219 0.141,0.381 0.257,0.485c0.116,0.104 0.268,0.174 0.457,0.21c0.19,0.037 1.059,0.098 2.61,0.184l0.164,0.146l0,0.769l-0.164,0.165c-1.624,-0.098 -3.321,-0.147 -5.091,-0.147c-1.404,0 -2.868,0.049 -4.394,0.147l-0.165,-0.165l-0,-0.769l0.165,-0.146c1.184,-0.074 1.852,-0.129 2.005,-0.165c0.152,-0.037 0.287,-0.113 0.403,-0.229c0.116,-0.116 0.195,-0.293 0.238,-0.531c0.042,-0.238 0.091,-1.026 0.146,-2.362c0.055,-1.337 0.082,-2.347 0.082,-3.031l0,-3.607c0,-0.488 -0.024,-1.153 -0.073,-1.996c-0.049,-0.842 -0.088,-1.361 -0.119,-1.556c-0.03,-0.195 -0.125,-0.339 -0.284,-0.43c-0.158,-0.092 -0.476,-0.138 -0.952,-0.138l-1.538,-0.018l-0.165,-0.146l0,-0.788l0.147,-0.146c2.331,-0.281 4.297,-0.739 5.896,-1.374Z" style="fill-rule:nonzero;"/>
        <path d="M884.815,32.588c-0,-1.453 0.299,-2.853 0.897,-4.202c0.598,-1.349 1.639,-2.515 3.122,-3.497c1.483,-0.983 3.244,-1.474 5.283,-1.474c2.563,-0 4.651,0.808 6.262,2.426c1.611,1.617 2.417,3.695 2.417,6.234c-0,2.796 -0.925,5.097 -2.774,6.904c-1.849,1.806 -4.08,2.709 -6.693,2.709c-1.709,0 -3.235,-0.46 -4.577,-1.382c-1.343,-0.922 -2.335,-2.048 -2.976,-3.378c-0.641,-1.331 -0.961,-2.777 -0.961,-4.34Zm3.461,-1.263c-0,1.709 0.219,3.238 0.659,4.586c0.439,1.349 1.135,2.433 2.087,3.251c0.952,0.817 2.039,1.226 3.26,1.226c1.44,0 2.63,-0.57 3.57,-1.712c0.94,-1.141 1.41,-2.859 1.41,-5.154c-0,-2.6 -0.51,-4.73 -1.529,-6.39c-1.019,-1.661 -2.487,-2.491 -4.404,-2.491c-1.587,0 -2.826,0.574 -3.717,1.722c-0.891,1.147 -1.336,2.801 -1.336,4.962Z" style="fill-rule:nonzero;"/>
        <path d="M908.472,15.34c0.562,-0 1.044,0.198 1.447,0.595c0.403,0.396 0.604,0.888 0.604,1.474c-0,0.561 -0.201,1.043 -0.604,1.446c-0.403,0.403 -0.885,0.604 -1.447,0.604c-0.574,0 -1.062,-0.201 -1.465,-0.604c-0.402,-0.403 -0.604,-0.885 -0.604,-1.446c0,-0.574 0.202,-1.062 0.604,-1.465c0.403,-0.403 0.891,-0.604 1.465,-0.604Zm-4.596,9.704l0.165,-0.146c2.319,-0.281 4.285,-0.739 5.896,-1.374l0.33,0.238c-0.135,1.6 -0.202,3.84 -0.202,6.72l0,3.37l0.055,5.841c0,2.014 -0.165,3.875 -0.494,5.584c-0.33,1.709 -1.068,3.171 -2.216,4.386c-1.147,1.214 -2.472,1.822 -3.973,1.822c-0.086,-0 -0.214,-0.006 -0.385,-0.019l-0.183,-1.043l0.165,-0.238c0.269,0.024 0.482,0.036 0.641,0.036c0.403,0 0.799,-0.113 1.19,-0.339c0.391,-0.225 0.745,-0.576 1.062,-1.052c0.317,-0.476 0.549,-1.065 0.696,-1.767c0.146,-0.702 0.247,-1.801 0.302,-3.296c0.055,-1.496 0.082,-2.494 0.082,-2.994l0,-10.657c0,-0.488 -0.021,-1.15 -0.064,-1.986c-0.042,-0.837 -0.082,-1.359 -0.119,-1.566c-0.036,-0.208 -0.137,-0.354 -0.302,-0.439c-0.165,-0.086 -0.473,-0.129 -0.925,-0.129l-1.556,-0.018l-0.165,-0.146l0,-0.788Z" style="fill-rule:nonzero;"/>
        <path d="M928.998,38.283l-0.586,1.318c-1.269,0.818 -2.401,1.349 -3.396,1.593c-0.995,0.244 -1.883,0.366 -2.664,0.366c-1.465,0 -2.854,-0.287 -4.166,-0.86c-1.312,-0.574 -2.38,-1.544 -3.204,-2.912c-0.824,-1.367 -1.236,-3.015 -1.236,-4.944c-0,-1.281 0.158,-2.438 0.476,-3.469c0.317,-1.032 0.65,-1.798 0.998,-2.298c0.348,-0.501 0.937,-1.056 1.767,-1.667c0.83,-0.61 1.709,-1.098 2.636,-1.464c0.928,-0.367 1.929,-0.55 3.003,-0.55c1.465,0 2.756,0.345 3.873,1.035c1.117,0.689 1.901,1.571 2.353,2.646c0.451,1.074 0.677,2.215 0.677,3.424c0,0.378 -0.018,0.744 -0.055,1.098l-0.201,0.202c-0.83,0.183 -1.947,0.305 -3.351,0.366c-1.404,0.061 -2.331,0.092 -2.783,0.092l-5.878,-0c0.025,2.526 0.659,4.388 1.905,5.584c1.245,1.197 2.771,1.795 4.577,1.795c0.855,-0 1.676,-0.147 2.463,-0.44c0.787,-0.293 1.62,-0.702 2.499,-1.227l0.293,0.312Zm-11.737,-7.489c0.22,0.036 1.065,0.079 2.536,0.128c1.471,0.049 2.561,0.073 3.269,0.073c1.696,0 2.728,-0.03 3.094,-0.091c0.012,-0.293 0.018,-0.519 0.018,-0.678c0,-1.892 -0.384,-3.299 -1.153,-4.221c-0.769,-0.921 -1.819,-1.382 -3.149,-1.382c-1.453,0 -2.585,0.519 -3.397,1.556c-0.812,1.038 -1.218,2.576 -1.218,4.615Z" style="fill-rule:nonzero;"/>
        <path d="M946.668,39.015l-0.732,1.227c-1.575,0.867 -3.333,1.3 -5.274,1.3c-2.685,-0 -4.761,-0.8 -6.225,-2.399c-1.465,-1.599 -2.198,-3.662 -2.198,-6.189c0,-1.147 0.125,-2.169 0.376,-3.067c0.25,-0.897 0.567,-1.638 0.952,-2.224c0.384,-0.586 0.809,-1.05 1.272,-1.392c0.464,-0.342 1.249,-0.818 2.353,-1.428c1.105,-0.611 1.938,-1.01 2.5,-1.2c0.561,-0.189 1.336,-0.283 2.325,-0.283c1.892,-0 3.442,0.36 4.651,1.08c-0.232,1.379 -0.409,2.917 -0.531,4.614l-0.165,0.147l-0.751,-0l-0.164,-0.165c-0.049,-1.026 -0.116,-1.715 -0.202,-2.069c-0.085,-0.354 -0.57,-0.733 -1.455,-1.135c-0.885,-0.403 -1.828,-0.605 -2.829,-0.605c-1.001,0 -1.893,0.211 -2.674,0.632c-0.781,0.421 -1.37,1.111 -1.767,2.069c-0.396,0.958 -0.595,2.103 -0.595,3.433c0,1.123 0.159,2.219 0.476,3.287c0.318,1.068 0.736,1.953 1.255,2.655c0.518,0.702 1.205,1.267 2.059,1.694c0.855,0.427 1.807,0.641 2.857,0.641c0.659,-0 1.303,-0.086 1.932,-0.257c0.628,-0.171 1.352,-0.451 2.169,-0.842l0.385,0.476Z" style="fill-rule:nonzero;"/>
        <path d="M948.261,26.601l0,-0.476l0.128,-0.184c1.148,-0.427 2.075,-0.824 2.783,-1.19c0,-3.186 -0.036,-5.041 -0.109,-5.566c1.257,-0.44 2.288,-0.91 3.094,-1.41l0.439,0.366c-0.122,0.769 -0.268,3.003 -0.439,6.702c0.61,0.012 1.27,0.018 1.978,0.018c1.44,0 2.471,-0.037 3.094,-0.11l0.128,0.128l-0.348,1.538l-0.146,0.165c-0.623,-0.012 -1.312,-0.018 -2.069,-0.018c-0.684,-0 -1.563,0.006 -2.637,0.018l-0.11,7.453c0,1.721 0.04,2.847 0.119,3.378c0.079,0.531 0.299,0.946 0.659,1.245c0.36,0.299 0.894,0.449 1.603,0.449c0.817,-0 1.574,-0.214 2.27,-0.641l0.439,0.659c-0.293,0.208 -0.994,0.818 -2.105,1.831c-0.635,0.293 -1.282,0.44 -1.941,0.44c-2.747,-0 -4.12,-1.331 -4.12,-3.992c-0,-0.977 0.024,-1.807 0.073,-2.49c0.012,-0.208 0.019,-0.422 0.019,-0.641l-0,-7.599l-0.751,-0c-0.55,-0 -1.178,0.024 -1.886,0.073l-0.165,-0.146Z" style="fill-rule:nonzero;"/>
        <path d="M964.924,15.34c0.573,-0 1.062,0.201 1.464,0.604c0.403,0.403 0.605,0.891 0.605,1.465c-0,0.561 -0.202,1.043 -0.605,1.446c-0.402,0.403 -0.891,0.604 -1.464,0.604c-0.562,0 -1.047,-0.198 -1.456,-0.595c-0.409,-0.396 -0.613,-0.882 -0.613,-1.455c-0,-0.574 0.204,-1.062 0.613,-1.465c0.409,-0.403 0.894,-0.604 1.456,-0.604Zm1.556,8.184l0.348,0.238c-0.134,1.6 -0.202,3.632 -0.202,6.098l0,4.138c0,0.269 0.025,1.132 0.074,2.591c0.049,1.459 0.1,2.31 0.155,2.554c0.055,0.244 0.138,0.421 0.248,0.531c0.109,0.11 0.244,0.18 0.402,0.211c0.159,0.03 0.818,0.082 1.978,0.156l0.165,0.146l-0,0.769l-0.147,0.165c-1.526,-0.098 -2.997,-0.147 -4.413,-0.147c-1.403,0 -2.868,0.049 -4.394,0.147l-0.165,-0.165l0,-0.769l0.165,-0.146c1.184,-0.074 1.852,-0.129 2.005,-0.165c0.152,-0.037 0.287,-0.113 0.403,-0.229c0.116,-0.116 0.195,-0.293 0.238,-0.531c0.042,-0.238 0.091,-1.026 0.146,-2.362c0.055,-1.337 0.083,-2.347 0.083,-3.031l-0,-3.607c-0,-0.488 -0.025,-1.153 -0.074,-1.996c-0.048,-0.842 -0.088,-1.361 -0.119,-1.556c-0.03,-0.195 -0.125,-0.339 -0.283,-0.43c-0.159,-0.092 -0.477,-0.138 -0.953,-0.138l-1.538,-0.018l-0.164,-0.146l-0,-0.788l0.146,-0.146c2.332,-0.281 4.297,-0.739 5.896,-1.374Z" style="fill-rule:nonzero;"/>
        <path d="M971.808,32.588c0,-1.453 0.299,-2.853 0.898,-4.202c0.598,-1.349 1.638,-2.515 3.122,-3.497c1.483,-0.983 3.244,-1.474 5.282,-1.474c2.564,-0 4.651,0.808 6.262,2.426c1.612,1.617 2.417,3.695 2.417,6.234c0,2.796 -0.924,5.097 -2.774,6.904c-1.849,1.806 -4.08,2.709 -6.692,2.709c-1.709,0 -3.235,-0.46 -4.578,-1.382c-1.343,-0.922 -2.334,-2.048 -2.975,-3.378c-0.641,-1.331 -0.962,-2.777 -0.962,-4.34Zm3.461,-1.263c0,1.709 0.22,3.238 0.659,4.586c0.44,1.349 1.135,2.433 2.088,3.251c0.952,0.817 2.038,1.226 3.259,1.226c1.44,0 2.631,-0.57 3.57,-1.712c0.94,-1.141 1.41,-2.859 1.41,-5.154c0,-2.6 -0.509,-4.73 -1.529,-6.39c-1.019,-1.661 -2.487,-2.491 -4.403,-2.491c-1.587,0 -2.826,0.574 -3.717,1.722c-0.891,1.147 -1.337,2.801 -1.337,4.962Z" style="fill-rule:nonzero;"/>
        <path d="M997.297,23.524l0.348,0.238c-0.074,0.818 -0.123,1.893 -0.147,3.223c0.977,-0.806 1.904,-1.623 2.783,-2.454c0.257,-0.231 0.498,-0.402 0.724,-0.512c0.225,-0.11 0.601,-0.226 1.126,-0.348c0.525,-0.122 1.062,-0.183 1.611,-0.183c0.928,-0 1.828,0.189 2.701,0.567c0.873,0.379 1.532,0.827 1.977,1.346c0.446,0.519 0.754,1.132 0.925,1.84c0.171,0.708 0.256,1.581 0.256,2.619l0,3.223c0,0.207 0.031,1.727 0.092,4.559c0.024,1.16 0.152,1.849 0.384,2.069c0.232,0.22 0.989,0.33 2.271,0.33l0.146,0.146l0,0.787l-0.146,0.147c-1.55,-0.098 -2.6,-0.147 -3.149,-0.147c-0.318,0 -1.209,0.049 -2.674,0.147l-0.22,-0.202c0.159,-1.586 0.238,-3.656 0.238,-6.207l0,-2.399c0,-1.44 -0.033,-2.478 -0.1,-3.112c-0.067,-0.635 -0.272,-1.212 -0.614,-1.731c-0.341,-0.518 -0.799,-0.921 -1.373,-1.208c-0.574,-0.287 -1.257,-0.43 -2.051,-0.43c-0.634,-0 -1.178,0.064 -1.629,0.192c-0.452,0.128 -0.959,0.39 -1.52,0.787c-0.562,0.397 -0.977,0.769 -1.245,1.117c-0.269,0.348 -0.431,0.671 -0.485,0.971c-0.055,0.299 -0.083,0.936 -0.083,1.913l0,3.186c0,0.269 0.025,1.132 0.073,2.591c0.049,1.459 0.101,2.31 0.156,2.554c0.055,0.244 0.137,0.421 0.247,0.531c0.11,0.11 0.244,0.18 0.403,0.211c0.159,0.03 0.818,0.082 1.978,0.156l0.164,0.146l0,0.769l-0.146,0.165c-1.526,-0.098 -2.997,-0.147 -4.413,-0.147c-1.404,0 -2.869,0.049 -4.394,0.147l-0.165,-0.165l-0,-0.769l0.165,-0.146c1.184,-0.074 1.852,-0.129 2.005,-0.165c0.152,-0.037 0.286,-0.113 0.402,-0.229c0.116,-0.116 0.196,-0.293 0.238,-0.531c0.043,-0.238 0.092,-1.026 0.147,-2.362c0.055,-1.337 0.082,-2.347 0.082,-3.031l0,-3.607c0,-0.488 -0.024,-1.153 -0.073,-1.996c-0.049,-0.842 -0.088,-1.361 -0.119,-1.556c-0.031,-0.195 -0.125,-0.339 -0.284,-0.43c-0.158,-0.092 -0.476,-0.138 -0.952,-0.138l-1.538,-0.018l-0.165,-0.146l0,-0.788l0.147,-0.146c2.331,-0.281 4.297,-0.739 5.896,-1.374Z" style="fill-rule:nonzero;"/>
        <path d="M396.922,141.172l19.755,9.878l-19.755,9.877l-0,-19.755Z"/>
        <path d="M345.8,151.05l55.073,-0" style="fill:none;stroke:black;stroke-width:4.12px;"/>
        <path d="M531.68,141.172l19.756,9.878l-19.756,9.877l0,-19.755Z"/>
        <path d="M480.559,151.05l55.072,-0" style="fill:none;stroke:black;stroke-width:4.12px;"/>
        <path d="M980.721,141.172l19.755,9.878l-19.755,9.877l-0,-19.755Z"/>
        <path d="M861.054,151.05l123.618,-0" style="fill:none;stroke:black;stroke-width:4.12px;"/>
    </g>
    <g id="_2_PMVIS" serif:id="2_PMVIS">
    </g>
    <g id="_3_SD-CASSI" serif:id="3_SD-CASSI">
    </g>
    <g id="_4_DD-CASSI" serif:id="4_DD-CASSI">
    </g>
</svg>
